<?xml version="1.0" encoding="utf-8" standalone="no"?>
<!DOCTYPE svg PUBLIC "-//W3C//DTD SVG 1.1//EN"
  "http://www.w3.org/Graphics/SVG/1.1/DTD/svg11.dtd">
<svg xmlns:xlink="http://www.w3.org/1999/xlink" width="460.8pt" height="345.6pt" viewBox="0 0 460.8 345.6" xmlns="http://www.w3.org/2000/svg" version="1.1">
 <metadata>
  <rdf:RDF xmlns:dc="http://purl.org/dc/elements/1.1/" xmlns:cc="http://creativecommons.org/ns#" xmlns:rdf="http://www.w3.org/1999/02/22-rdf-syntax-ns#">
   <cc:Work>
    <dc:type rdf:resource="http://purl.org/dc/dcmitype/StillImage"/>
    <dc:date>2023-12-06T21:28:46.692039</dc:date>
    <dc:format>image/svg+xml</dc:format>
    <dc:creator>
     <cc:Agent>
      <dc:title>Matplotlib v3.8.0, https://matplotlib.org/</dc:title>
     </cc:Agent>
    </dc:creator>
   </cc:Work>
  </rdf:RDF>
 </metadata>
 <defs>
  <style type="text/css">*{stroke-linejoin: round; stroke-linecap: butt}</style>
 </defs>
 <g id="figure_1">
  <g id="patch_1">
   <path d="M 0 345.6 
L 460.8 345.6 
L 460.8 0 
L 0 0 
z
" style="fill: #ffffff"/>
  </g>
  <g id="axes_1">
   <g id="patch_2">
    <path d="M 57.6 307.584 
L 414.72 307.584 
L 414.72 41.472 
L 57.6 41.472 
z
" style="fill: #ffffff"/>
   </g>
   <g id="matplotlib.axis_1">
    <g id="xtick_1">
     <g id="line2d_1">
      <defs>
       <path id="mb725741097" d="M 0 0 
L 0 3.5 
" style="stroke: #000000; stroke-width: 0.8"/>
      </defs>
      <g>
       <use xlink:href="#mb725741097" x="106.363243" y="307.584" style="stroke: #000000; stroke-width: 0.8"/>
      </g>
     </g>
     <g id="text_1">
      <!-- 2 -->
      <g transform="translate(103.181993 322.182437) scale(0.1 -0.1)">
       <defs>
        <path id="DejaVuSans-32" d="M 1228 531 
L 3431 531 
L 3431 0 
L 469 0 
L 469 531 
Q 828 903 1448 1529 
Q 2069 2156 2228 2338 
Q 2531 2678 2651 2914 
Q 2772 3150 2772 3378 
Q 2772 3750 2511 3984 
Q 2250 4219 1831 4219 
Q 1534 4219 1204 4116 
Q 875 4013 500 3803 
L 500 4441 
Q 881 4594 1212 4672 
Q 1544 4750 1819 4750 
Q 2544 4750 2975 4387 
Q 3406 4025 3406 3419 
Q 3406 3131 3298 2873 
Q 3191 2616 2906 2266 
Q 2828 2175 2409 1742 
Q 1991 1309 1228 531 
z
" transform="scale(0.015625)"/>
       </defs>
       <use xlink:href="#DejaVuSans-32"/>
      </g>
     </g>
    </g>
    <g id="xtick_2">
     <g id="line2d_2">
      <g>
       <use xlink:href="#mb725741097" x="171.424274" y="307.584" style="stroke: #000000; stroke-width: 0.8"/>
      </g>
     </g>
     <g id="text_2">
      <!-- 4 -->
      <g transform="translate(168.243024 322.182437) scale(0.1 -0.1)">
       <defs>
        <path id="DejaVuSans-34" d="M 2419 4116 
L 825 1625 
L 2419 1625 
L 2419 4116 
z
M 2253 4666 
L 3047 4666 
L 3047 1625 
L 3713 1625 
L 3713 1100 
L 3047 1100 
L 3047 0 
L 2419 0 
L 2419 1100 
L 313 1100 
L 313 1709 
L 2253 4666 
z
" transform="scale(0.015625)"/>
       </defs>
       <use xlink:href="#DejaVuSans-34"/>
      </g>
     </g>
    </g>
    <g id="xtick_3">
     <g id="line2d_3">
      <g>
       <use xlink:href="#mb725741097" x="236.485305" y="307.584" style="stroke: #000000; stroke-width: 0.8"/>
      </g>
     </g>
     <g id="text_3">
      <!-- 6 -->
      <g transform="translate(233.304055 322.182437) scale(0.1 -0.1)">
       <defs>
        <path id="DejaVuSans-36" d="M 2113 2584 
Q 1688 2584 1439 2293 
Q 1191 2003 1191 1497 
Q 1191 994 1439 701 
Q 1688 409 2113 409 
Q 2538 409 2786 701 
Q 3034 994 3034 1497 
Q 3034 2003 2786 2293 
Q 2538 2584 2113 2584 
z
M 3366 4563 
L 3366 3988 
Q 3128 4100 2886 4159 
Q 2644 4219 2406 4219 
Q 1781 4219 1451 3797 
Q 1122 3375 1075 2522 
Q 1259 2794 1537 2939 
Q 1816 3084 2150 3084 
Q 2853 3084 3261 2657 
Q 3669 2231 3669 1497 
Q 3669 778 3244 343 
Q 2819 -91 2113 -91 
Q 1303 -91 875 529 
Q 447 1150 447 2328 
Q 447 3434 972 4092 
Q 1497 4750 2381 4750 
Q 2619 4750 2861 4703 
Q 3103 4656 3366 4563 
z
" transform="scale(0.015625)"/>
       </defs>
       <use xlink:href="#DejaVuSans-36"/>
      </g>
     </g>
    </g>
    <g id="xtick_4">
     <g id="line2d_4">
      <g>
       <use xlink:href="#mb725741097" x="301.546336" y="307.584" style="stroke: #000000; stroke-width: 0.8"/>
      </g>
     </g>
     <g id="text_4">
      <!-- 8 -->
      <g transform="translate(298.365086 322.182437) scale(0.1 -0.1)">
       <defs>
        <path id="DejaVuSans-38" d="M 2034 2216 
Q 1584 2216 1326 1975 
Q 1069 1734 1069 1313 
Q 1069 891 1326 650 
Q 1584 409 2034 409 
Q 2484 409 2743 651 
Q 3003 894 3003 1313 
Q 3003 1734 2745 1975 
Q 2488 2216 2034 2216 
z
M 1403 2484 
Q 997 2584 770 2862 
Q 544 3141 544 3541 
Q 544 4100 942 4425 
Q 1341 4750 2034 4750 
Q 2731 4750 3128 4425 
Q 3525 4100 3525 3541 
Q 3525 3141 3298 2862 
Q 3072 2584 2669 2484 
Q 3125 2378 3379 2068 
Q 3634 1759 3634 1313 
Q 3634 634 3220 271 
Q 2806 -91 2034 -91 
Q 1263 -91 848 271 
Q 434 634 434 1313 
Q 434 1759 690 2068 
Q 947 2378 1403 2484 
z
M 1172 3481 
Q 1172 3119 1398 2916 
Q 1625 2713 2034 2713 
Q 2441 2713 2670 2916 
Q 2900 3119 2900 3481 
Q 2900 3844 2670 4047 
Q 2441 4250 2034 4250 
Q 1625 4250 1398 4047 
Q 1172 3844 1172 3481 
z
" transform="scale(0.015625)"/>
       </defs>
       <use xlink:href="#DejaVuSans-38"/>
      </g>
     </g>
    </g>
    <g id="xtick_5">
     <g id="line2d_5">
      <g>
       <use xlink:href="#mb725741097" x="366.607367" y="307.584" style="stroke: #000000; stroke-width: 0.8"/>
      </g>
     </g>
     <g id="text_5">
      <!-- 10 -->
      <g transform="translate(360.244867 322.182437) scale(0.1 -0.1)">
       <defs>
        <path id="DejaVuSans-31" d="M 794 531 
L 1825 531 
L 1825 4091 
L 703 3866 
L 703 4441 
L 1819 4666 
L 2450 4666 
L 2450 531 
L 3481 531 
L 3481 0 
L 794 0 
L 794 531 
z
" transform="scale(0.015625)"/>
        <path id="DejaVuSans-30" d="M 2034 4250 
Q 1547 4250 1301 3770 
Q 1056 3291 1056 2328 
Q 1056 1369 1301 889 
Q 1547 409 2034 409 
Q 2525 409 2770 889 
Q 3016 1369 3016 2328 
Q 3016 3291 2770 3770 
Q 2525 4250 2034 4250 
z
M 2034 4750 
Q 2819 4750 3233 4129 
Q 3647 3509 3647 2328 
Q 3647 1150 3233 529 
Q 2819 -91 2034 -91 
Q 1250 -91 836 529 
Q 422 1150 422 2328 
Q 422 3509 836 4129 
Q 1250 4750 2034 4750 
z
" transform="scale(0.015625)"/>
       </defs>
       <use xlink:href="#DejaVuSans-31"/>
       <use xlink:href="#DejaVuSans-30" x="63.623047"/>
      </g>
     </g>
    </g>
    <g id="text_6">
     <!-- x -->
     <g transform="translate(233.200625 335.860562) scale(0.1 -0.1)">
      <defs>
       <path id="DejaVuSans-78" d="M 3513 3500 
L 2247 1797 
L 3578 0 
L 2900 0 
L 1881 1375 
L 863 0 
L 184 0 
L 1544 1831 
L 300 3500 
L 978 3500 
L 1906 2253 
L 2834 3500 
L 3513 3500 
z
" transform="scale(0.015625)"/>
      </defs>
      <use xlink:href="#DejaVuSans-78"/>
     </g>
    </g>
   </g>
   <g id="matplotlib.axis_2">
    <g id="ytick_1">
     <g id="line2d_6">
      <defs>
       <path id="mc5412f1510" d="M 0 0 
L -3.5 0 
" style="stroke: #000000; stroke-width: 0.8"/>
      </defs>
      <g>
       <use xlink:href="#mc5412f1510" x="57.6" y="282.346726" style="stroke: #000000; stroke-width: 0.8"/>
      </g>
     </g>
     <g id="text_7">
      <!-- −20 -->
      <g transform="translate(29.495313 286.145945) scale(0.1 -0.1)">
       <defs>
        <path id="DejaVuSans-2212" d="M 678 2272 
L 4684 2272 
L 4684 1741 
L 678 1741 
L 678 2272 
z
" transform="scale(0.015625)"/>
       </defs>
       <use xlink:href="#DejaVuSans-2212"/>
       <use xlink:href="#DejaVuSans-32" x="83.789062"/>
       <use xlink:href="#DejaVuSans-30" x="147.412109"/>
      </g>
     </g>
    </g>
    <g id="ytick_2">
     <g id="line2d_7">
      <g>
       <use xlink:href="#mc5412f1510" x="57.6" y="236.63335" style="stroke: #000000; stroke-width: 0.8"/>
      </g>
     </g>
     <g id="text_8">
      <!-- −10 -->
      <g transform="translate(29.495313 240.432569) scale(0.1 -0.1)">
       <use xlink:href="#DejaVuSans-2212"/>
       <use xlink:href="#DejaVuSans-31" x="83.789062"/>
       <use xlink:href="#DejaVuSans-30" x="147.412109"/>
      </g>
     </g>
    </g>
    <g id="ytick_3">
     <g id="line2d_8">
      <g>
       <use xlink:href="#mc5412f1510" x="57.6" y="190.919974" style="stroke: #000000; stroke-width: 0.8"/>
      </g>
     </g>
     <g id="text_9">
      <!-- 0 -->
      <g transform="translate(44.2375 194.719193) scale(0.1 -0.1)">
       <use xlink:href="#DejaVuSans-30"/>
      </g>
     </g>
    </g>
    <g id="ytick_4">
     <g id="line2d_9">
      <g>
       <use xlink:href="#mc5412f1510" x="57.6" y="145.206598" style="stroke: #000000; stroke-width: 0.8"/>
      </g>
     </g>
     <g id="text_10">
      <!-- 10 -->
      <g transform="translate(37.875 149.005817) scale(0.1 -0.1)">
       <use xlink:href="#DejaVuSans-31"/>
       <use xlink:href="#DejaVuSans-30" x="63.623047"/>
      </g>
     </g>
    </g>
    <g id="ytick_5">
     <g id="line2d_10">
      <g>
       <use xlink:href="#mc5412f1510" x="57.6" y="99.493222" style="stroke: #000000; stroke-width: 0.8"/>
      </g>
     </g>
     <g id="text_11">
      <!-- 20 -->
      <g transform="translate(37.875 103.292441) scale(0.1 -0.1)">
       <use xlink:href="#DejaVuSans-32"/>
       <use xlink:href="#DejaVuSans-30" x="63.623047"/>
      </g>
     </g>
    </g>
    <g id="ytick_6">
     <g id="line2d_11">
      <g>
       <use xlink:href="#mc5412f1510" x="57.6" y="53.779846" style="stroke: #000000; stroke-width: 0.8"/>
      </g>
     </g>
     <g id="text_12">
      <!-- 30 -->
      <g transform="translate(37.875 57.579065) scale(0.1 -0.1)">
       <defs>
        <path id="DejaVuSans-33" d="M 2597 2516 
Q 3050 2419 3304 2112 
Q 3559 1806 3559 1356 
Q 3559 666 3084 287 
Q 2609 -91 1734 -91 
Q 1441 -91 1130 -33 
Q 819 25 488 141 
L 488 750 
Q 750 597 1062 519 
Q 1375 441 1716 441 
Q 2309 441 2620 675 
Q 2931 909 2931 1356 
Q 2931 1769 2642 2001 
Q 2353 2234 1838 2234 
L 1294 2234 
L 1294 2753 
L 1863 2753 
Q 2328 2753 2575 2939 
Q 2822 3125 2822 3475 
Q 2822 3834 2567 4026 
Q 2313 4219 1838 4219 
Q 1578 4219 1281 4162 
Q 984 4106 628 3988 
L 628 4550 
Q 988 4650 1302 4700 
Q 1616 4750 1894 4750 
Q 2613 4750 3031 4423 
Q 3450 4097 3450 3541 
Q 3450 3153 3228 2886 
Q 3006 2619 2597 2516 
z
" transform="scale(0.015625)"/>
       </defs>
       <use xlink:href="#DejaVuSans-33"/>
       <use xlink:href="#DejaVuSans-30" x="63.623047"/>
      </g>
     </g>
    </g>
    <g id="text_13">
     <!-- y -->
     <g transform="translate(23.415625 177.487375) rotate(-90) scale(0.1 -0.1)">
      <defs>
       <path id="DejaVuSans-79" d="M 2059 -325 
Q 1816 -950 1584 -1140 
Q 1353 -1331 966 -1331 
L 506 -1331 
L 506 -850 
L 844 -850 
Q 1081 -850 1212 -737 
Q 1344 -625 1503 -206 
L 1606 56 
L 191 3500 
L 800 3500 
L 1894 763 
L 2988 3500 
L 3597 3500 
L 2059 -325 
z
" transform="scale(0.015625)"/>
      </defs>
      <use xlink:href="#DejaVuSans-79"/>
     </g>
    </g>
   </g>
   <g id="line2d_12">
    <defs>
     <path id="m3c5f18d277" d="M 0 1.5 
C 0.397805 1.5 0.77937 1.341951 1.06066 1.06066 
C 1.341951 0.77937 1.5 0.397805 1.5 0 
C 1.5 -0.397805 1.341951 -0.77937 1.06066 -1.06066 
C 0.77937 -1.341951 0.397805 -1.5 0 -1.5 
C -0.397805 -1.5 -0.77937 -1.341951 -1.06066 -1.06066 
C -1.341951 -0.77937 -1.5 -0.397805 -1.5 0 
C -1.5 0.397805 -1.341951 0.77937 -1.06066 1.06066 
C -0.77937 1.341951 -0.397805 1.5 0 1.5 
z
" style="stroke: #1f77b4"/>
    </defs>
    <g clip-path="url(#p62923aea20)">
     <use xlink:href="#m3c5f18d277" x="73.832727" y="190.562771" style="fill: #1f77b4; stroke: #1f77b4"/>
     <use xlink:href="#m3c5f18d277" x="77.085779" y="254.693264" style="fill: #1f77b4; stroke: #1f77b4"/>
     <use xlink:href="#m3c5f18d277" x="80.33883" y="167.111915" style="fill: #1f77b4; stroke: #1f77b4"/>
     <use xlink:href="#m3c5f18d277" x="83.591882" y="163.258178" style="fill: #1f77b4; stroke: #1f77b4"/>
     <use xlink:href="#m3c5f18d277" x="86.844934" y="265.081822" style="fill: #1f77b4; stroke: #1f77b4"/>
     <use xlink:href="#m3c5f18d277" x="90.097985" y="87.678179" style="fill: #1f77b4; stroke: #1f77b4"/>
     <use xlink:href="#m3c5f18d277" x="93.351037" y="212.062314" style="fill: #1f77b4; stroke: #1f77b4"/>
     <use xlink:href="#m3c5f18d277" x="96.604088" y="198.466486" style="fill: #1f77b4; stroke: #1f77b4"/>
     <use xlink:href="#m3c5f18d277" x="99.85714" y="99.453287" style="fill: #1f77b4; stroke: #1f77b4"/>
     <use xlink:href="#m3c5f18d277" x="103.110191" y="262.891177" style="fill: #1f77b4; stroke: #1f77b4"/>
     <use xlink:href="#m3c5f18d277" x="106.363243" y="235.747783" style="fill: #1f77b4; stroke: #1f77b4"/>
     <use xlink:href="#m3c5f18d277" x="109.616294" y="295.488" style="fill: #1f77b4; stroke: #1f77b4"/>
     <use xlink:href="#m3c5f18d277" x="112.869346" y="153.642633" style="fill: #1f77b4; stroke: #1f77b4"/>
     <use xlink:href="#m3c5f18d277" x="116.122398" y="135.213497" style="fill: #1f77b4; stroke: #1f77b4"/>
     <use xlink:href="#m3c5f18d277" x="119.375449" y="192.635928" style="fill: #1f77b4; stroke: #1f77b4"/>
     <use xlink:href="#m3c5f18d277" x="122.628501" y="98.689344" style="fill: #1f77b4; stroke: #1f77b4"/>
     <use xlink:href="#m3c5f18d277" x="125.881552" y="197.111073" style="fill: #1f77b4; stroke: #1f77b4"/>
     <use xlink:href="#m3c5f18d277" x="129.134604" y="208.106169" style="fill: #1f77b4; stroke: #1f77b4"/>
     <use xlink:href="#m3c5f18d277" x="132.387655" y="293.926696" style="fill: #1f77b4; stroke: #1f77b4"/>
     <use xlink:href="#m3c5f18d277" x="135.640707" y="139.576409" style="fill: #1f77b4; stroke: #1f77b4"/>
     <use xlink:href="#m3c5f18d277" x="138.893758" y="91.07474" style="fill: #1f77b4; stroke: #1f77b4"/>
     <use xlink:href="#m3c5f18d277" x="142.14681" y="188.162927" style="fill: #1f77b4; stroke: #1f77b4"/>
     <use xlink:href="#m3c5f18d277" x="145.399862" y="239.275425" style="fill: #1f77b4; stroke: #1f77b4"/>
     <use xlink:href="#m3c5f18d277" x="148.652913" y="160.277805" style="fill: #1f77b4; stroke: #1f77b4"/>
     <use xlink:href="#m3c5f18d277" x="151.905965" y="82.352412" style="fill: #1f77b4; stroke: #1f77b4"/>
     <use xlink:href="#m3c5f18d277" x="155.159016" y="133.490819" style="fill: #1f77b4; stroke: #1f77b4"/>
     <use xlink:href="#m3c5f18d277" x="158.412068" y="295.413575" style="fill: #1f77b4; stroke: #1f77b4"/>
     <use xlink:href="#m3c5f18d277" x="161.665119" y="205.176887" style="fill: #1f77b4; stroke: #1f77b4"/>
     <use xlink:href="#m3c5f18d277" x="164.918171" y="280.181492" style="fill: #1f77b4; stroke: #1f77b4"/>
     <use xlink:href="#m3c5f18d277" x="168.171222" y="96.264455" style="fill: #1f77b4; stroke: #1f77b4"/>
     <use xlink:href="#m3c5f18d277" x="171.424274" y="145.380222" style="fill: #1f77b4; stroke: #1f77b4"/>
     <use xlink:href="#m3c5f18d277" x="174.677326" y="156.09186" style="fill: #1f77b4; stroke: #1f77b4"/>
     <use xlink:href="#m3c5f18d277" x="177.930377" y="189.776904" style="fill: #1f77b4; stroke: #1f77b4"/>
     <use xlink:href="#m3c5f18d277" x="181.183429" y="153.319689" style="fill: #1f77b4; stroke: #1f77b4"/>
     <use xlink:href="#m3c5f18d277" x="184.43648" y="92.128242" style="fill: #1f77b4; stroke: #1f77b4"/>
     <use xlink:href="#m3c5f18d277" x="187.689532" y="124.754995" style="fill: #1f77b4; stroke: #1f77b4"/>
     <use xlink:href="#m3c5f18d277" x="190.942583" y="92.262355" style="fill: #1f77b4; stroke: #1f77b4"/>
     <use xlink:href="#m3c5f18d277" x="194.195635" y="259.906518" style="fill: #1f77b4; stroke: #1f77b4"/>
     <use xlink:href="#m3c5f18d277" x="197.448686" y="209.4827" style="fill: #1f77b4; stroke: #1f77b4"/>
     <use xlink:href="#m3c5f18d277" x="200.701738" y="81.336081" style="fill: #1f77b4; stroke: #1f77b4"/>
     <use xlink:href="#m3c5f18d277" x="203.95479" y="211.376617" style="fill: #1f77b4; stroke: #1f77b4"/>
     <use xlink:href="#m3c5f18d277" x="207.207841" y="258.393696" style="fill: #1f77b4; stroke: #1f77b4"/>
     <use xlink:href="#m3c5f18d277" x="210.460893" y="69.859096" style="fill: #1f77b4; stroke: #1f77b4"/>
     <use xlink:href="#m3c5f18d277" x="213.713944" y="130.380916" style="fill: #1f77b4; stroke: #1f77b4"/>
     <use xlink:href="#m3c5f18d277" x="216.966996" y="89.301095" style="fill: #1f77b4; stroke: #1f77b4"/>
     <use xlink:href="#m3c5f18d277" x="220.220047" y="88.261323" style="fill: #1f77b4; stroke: #1f77b4"/>
     <use xlink:href="#m3c5f18d277" x="223.473099" y="88.834263" style="fill: #1f77b4; stroke: #1f77b4"/>
     <use xlink:href="#m3c5f18d277" x="226.72615" y="92.501452" style="fill: #1f77b4; stroke: #1f77b4"/>
     <use xlink:href="#m3c5f18d277" x="229.979202" y="192.415971" style="fill: #1f77b4; stroke: #1f77b4"/>
     <use xlink:href="#m3c5f18d277" x="233.232254" y="244.361766" style="fill: #1f77b4; stroke: #1f77b4"/>
     <use xlink:href="#m3c5f18d277" x="236.485305" y="227.487072" style="fill: #1f77b4; stroke: #1f77b4"/>
     <use xlink:href="#m3c5f18d277" x="239.738357" y="224.169856" style="fill: #1f77b4; stroke: #1f77b4"/>
     <use xlink:href="#m3c5f18d277" x="242.991408" y="61.040413" style="fill: #1f77b4; stroke: #1f77b4"/>
     <use xlink:href="#m3c5f18d277" x="246.24446" y="88.603915" style="fill: #1f77b4; stroke: #1f77b4"/>
     <use xlink:href="#m3c5f18d277" x="249.497511" y="165.142503" style="fill: #1f77b4; stroke: #1f77b4"/>
     <use xlink:href="#m3c5f18d277" x="252.750563" y="214.043772" style="fill: #1f77b4; stroke: #1f77b4"/>
     <use xlink:href="#m3c5f18d277" x="256.003615" y="191.98008" style="fill: #1f77b4; stroke: #1f77b4"/>
     <use xlink:href="#m3c5f18d277" x="259.256666" y="234.25209" style="fill: #1f77b4; stroke: #1f77b4"/>
     <use xlink:href="#m3c5f18d277" x="262.509718" y="82.822559" style="fill: #1f77b4; stroke: #1f77b4"/>
     <use xlink:href="#m3c5f18d277" x="265.762769" y="261.480223" style="fill: #1f77b4; stroke: #1f77b4"/>
     <use xlink:href="#m3c5f18d277" x="269.015821" y="243.778768" style="fill: #1f77b4; stroke: #1f77b4"/>
     <use xlink:href="#m3c5f18d277" x="272.268872" y="167.732973" style="fill: #1f77b4; stroke: #1f77b4"/>
     <use xlink:href="#m3c5f18d277" x="275.521924" y="65.74613" style="fill: #1f77b4; stroke: #1f77b4"/>
     <use xlink:href="#m3c5f18d277" x="278.774975" y="238.031498" style="fill: #1f77b4; stroke: #1f77b4"/>
     <use xlink:href="#m3c5f18d277" x="282.028027" y="100.799692" style="fill: #1f77b4; stroke: #1f77b4"/>
     <use xlink:href="#m3c5f18d277" x="285.281079" y="82.293659" style="fill: #1f77b4; stroke: #1f77b4"/>
     <use xlink:href="#m3c5f18d277" x="288.53413" y="188.019292" style="fill: #1f77b4; stroke: #1f77b4"/>
     <use xlink:href="#m3c5f18d277" x="291.787182" y="107.44766" style="fill: #1f77b4; stroke: #1f77b4"/>
     <use xlink:href="#m3c5f18d277" x="295.040233" y="235.5532" style="fill: #1f77b4; stroke: #1f77b4"/>
     <use xlink:href="#m3c5f18d277" x="298.293285" y="142.616336" style="fill: #1f77b4; stroke: #1f77b4"/>
     <use xlink:href="#m3c5f18d277" x="301.546336" y="225.974348" style="fill: #1f77b4; stroke: #1f77b4"/>
     <use xlink:href="#m3c5f18d277" x="304.799388" y="140.528863" style="fill: #1f77b4; stroke: #1f77b4"/>
     <use xlink:href="#m3c5f18d277" x="308.052439" y="244.227771" style="fill: #1f77b4; stroke: #1f77b4"/>
     <use xlink:href="#m3c5f18d277" x="311.305491" y="279.650268" style="fill: #1f77b4; stroke: #1f77b4"/>
     <use xlink:href="#m3c5f18d277" x="314.558543" y="225.629871" style="fill: #1f77b4; stroke: #1f77b4"/>
     <use xlink:href="#m3c5f18d277" x="317.811594" y="158.273273" style="fill: #1f77b4; stroke: #1f77b4"/>
     <use xlink:href="#m3c5f18d277" x="321.064646" y="143.531728" style="fill: #1f77b4; stroke: #1f77b4"/>
     <use xlink:href="#m3c5f18d277" x="324.317697" y="187.239814" style="fill: #1f77b4; stroke: #1f77b4"/>
     <use xlink:href="#m3c5f18d277" x="327.570749" y="116.893515" style="fill: #1f77b4; stroke: #1f77b4"/>
     <use xlink:href="#m3c5f18d277" x="330.8238" y="150.175245" style="fill: #1f77b4; stroke: #1f77b4"/>
     <use xlink:href="#m3c5f18d277" x="334.076852" y="110.139033" style="fill: #1f77b4; stroke: #1f77b4"/>
     <use xlink:href="#m3c5f18d277" x="337.329903" y="188.573534" style="fill: #1f77b4; stroke: #1f77b4"/>
     <use xlink:href="#m3c5f18d277" x="340.582955" y="174.169496" style="fill: #1f77b4; stroke: #1f77b4"/>
     <use xlink:href="#m3c5f18d277" x="343.836007" y="164.609506" style="fill: #1f77b4; stroke: #1f77b4"/>
     <use xlink:href="#m3c5f18d277" x="347.089058" y="53.568" style="fill: #1f77b4; stroke: #1f77b4"/>
     <use xlink:href="#m3c5f18d277" x="350.34211" y="256.790255" style="fill: #1f77b4; stroke: #1f77b4"/>
     <use xlink:href="#m3c5f18d277" x="353.595161" y="149.430803" style="fill: #1f77b4; stroke: #1f77b4"/>
     <use xlink:href="#m3c5f18d277" x="356.848213" y="230.342051" style="fill: #1f77b4; stroke: #1f77b4"/>
     <use xlink:href="#m3c5f18d277" x="360.101264" y="267.37006" style="fill: #1f77b4; stroke: #1f77b4"/>
     <use xlink:href="#m3c5f18d277" x="363.354316" y="255.435382" style="fill: #1f77b4; stroke: #1f77b4"/>
     <use xlink:href="#m3c5f18d277" x="366.607367" y="285.299061" style="fill: #1f77b4; stroke: #1f77b4"/>
     <use xlink:href="#m3c5f18d277" x="369.860419" y="215.193833" style="fill: #1f77b4; stroke: #1f77b4"/>
     <use xlink:href="#m3c5f18d277" x="373.113471" y="113.280381" style="fill: #1f77b4; stroke: #1f77b4"/>
     <use xlink:href="#m3c5f18d277" x="376.366522" y="187.342108" style="fill: #1f77b4; stroke: #1f77b4"/>
     <use xlink:href="#m3c5f18d277" x="379.619574" y="70.530441" style="fill: #1f77b4; stroke: #1f77b4"/>
     <use xlink:href="#m3c5f18d277" x="382.872625" y="86.427626" style="fill: #1f77b4; stroke: #1f77b4"/>
     <use xlink:href="#m3c5f18d277" x="386.125677" y="89.090278" style="fill: #1f77b4; stroke: #1f77b4"/>
     <use xlink:href="#m3c5f18d277" x="389.378728" y="242.17101" style="fill: #1f77b4; stroke: #1f77b4"/>
     <use xlink:href="#m3c5f18d277" x="392.63178" y="237.928007" style="fill: #1f77b4; stroke: #1f77b4"/>
     <use xlink:href="#m3c5f18d277" x="395.884831" y="138.325065" style="fill: #1f77b4; stroke: #1f77b4"/>
    </g>
   </g>
   <g id="line2d_13">
    <path d="M 73.832727 192.941154 
L 77.085779 193.637123 
L 80.33883 194.080988 
L 83.591882 194.330197 
L 86.844934 194.42 
L 90.097985 194.372672 
L 93.351037 194.20274 
L 96.604088 193.920064 
L 99.85714 193.531693 
L 103.110191 193.043019 
L 106.363243 192.458498 
L 109.616294 191.7821 
L 112.869346 191.017594 
L 116.122398 190.168714 
L 119.375449 189.239267 
L 122.628501 188.233188 
L 125.881552 187.154576 
L 129.134604 186.007721 
L 132.387655 184.797134 
L 135.640707 183.527601 
L 138.893758 182.204247 
L 142.14681 180.832651 
L 145.399862 179.418993 
L 148.652913 177.97025 
L 151.905965 176.494441 
L 155.159016 175.000922 
L 158.412068 173.500715 
L 161.665119 172.006862 
L 164.918171 170.534769 
L 168.171222 169.10251 
L 171.424274 167.731029 
L 174.677326 166.444168 
L 177.930377 165.268446 
L 181.183429 164.232481 
L 184.43648 163.365974 
L 187.689532 162.698145 
L 190.942583 162.255575 
L 194.195635 162.059456 
L 197.448686 162.122327 
L 200.701738 162.444516 
L 203.95479 163.010685 
L 207.207841 163.787037 
L 210.460893 164.719954 
L 213.713944 165.736981 
L 216.966996 166.751053 
L 220.220047 167.668721 
L 223.473099 168.402588 
L 226.72615 168.887332 
L 229.979202 169.097366 
L 233.232254 169.06272 
L 236.485305 168.878188 
L 239.738357 168.700017 
L 242.991408 168.724971 
L 246.24446 169.149555 
L 249.497511 170.112885 
L 252.750563 171.634932 
L 256.003615 173.570663 
L 259.256666 175.606015 
L 262.509718 177.318303 
L 265.762769 178.306283 
L 269.015821 178.362827 
L 272.268872 177.623866 
L 275.521924 176.601137 
L 278.774975 176.021933 
L 282.028027 176.478993 
L 285.281079 178.027484 
L 288.53413 179.987297 
L 291.787182 181.200865 
L 295.040233 180.762162 
L 298.293285 178.818692 
L 301.546336 176.743338 
L 304.799388 176.203599 
L 308.052439 177.580877 
L 311.305491 179.208976 
L 314.558543 178.729656 
L 317.811594 175.807377 
L 321.064646 173.109974 
L 324.317697 173.343277 
L 327.570749 175.204789 
L 330.8238 174.490965 
L 334.076852 170.601216 
L 337.329903 168.491669 
L 340.582955 170.342111 
L 343.836007 170.478954 
L 347.089058 166.151219 
L 350.34211 164.498335 
L 353.595161 166.974189 
L 356.848213 164.62843 
L 360.101264 160.728158 
L 363.354316 163.274691 
L 366.607367 161.828762 
L 369.860419 157.899766 
L 373.113471 161.164152 
L 376.366522 157.784214 
L 379.619574 157.012233 
L 382.872625 158.843337 
L 386.125677 154.433889 
L 389.378728 158.429058 
L 392.63178 153.610782 
L 395.884831 157.758009 
" clip-path="url(#p62923aea20)" style="fill: none; stroke: #ff7f0e; stroke-width: 1.5; stroke-linecap: square"/>
   </g>
   <g id="line2d_14">
    <path d="M 73.832727 183.705765 
L 80.33883 184.025864 
L 85.543713 184.480538 
L 90.748595 185.141608 
L 96.604088 186.123874 
L 103.110191 187.464107 
L 112.869346 189.756201 
L 121.32728 191.681218 
L 126.532163 192.646024 
L 130.435824 193.174436 
L 134.339486 193.476885 
L 137.592538 193.517597 
L 140.845589 193.333997 
L 144.098641 192.89823 
L 146.701082 192.351797 
L 149.303523 191.61892 
L 151.905965 190.693113 
L 154.508406 189.571845 
L 157.761457 187.899417 
L 161.014509 185.942872 
L 164.267561 183.736178 
L 168.821833 180.331664 
L 178.580987 172.860415 
L 181.183429 171.147905 
L 183.78587 169.69653 
L 185.737701 168.827341 
L 187.689532 168.182702 
L 189.641363 167.793394 
L 191.593194 167.686829 
L 193.545025 167.885554 
L 195.496856 168.405627 
L 197.448686 169.254929 
L 199.400517 170.431453 
L 201.352348 171.921672 
L 203.304179 173.699088 
L 205.906621 176.443371 
L 209.159672 180.273923 
L 213.713944 185.694101 
L 215.665775 187.754136 
L 217.617606 189.493132 
L 218.918827 190.417624 
L 220.220047 191.11642 
L 221.521268 191.559728 
L 222.822489 191.721253 
L 224.123709 191.57931 
L 225.42493 191.117949 
L 226.72615 190.328077 
L 228.027371 189.208506 
L 229.328592 187.766908 
L 230.629812 186.020598 
L 232.581643 182.892879 
L 234.533474 179.281076 
L 241.690188 165.389812 
L 242.991408 163.438375 
L 244.292629 161.867386 
L 245.59385 160.746818 
L 246.24446 160.373915 
L 246.89507 160.133829 
L 247.54568 160.031039 
L 248.196291 160.068729 
L 248.846901 160.248679 
L 249.497511 160.571165 
L 250.148122 161.034872 
L 251.449342 162.372292 
L 252.750563 164.216192 
L 254.051784 166.493529 
L 256.003615 170.494793 
L 259.907276 178.861397 
L 261.208497 181.158928 
L 262.509718 182.934853 
L 263.160328 183.581128 
L 263.810938 184.045068 
L 264.461549 184.313506 
L 265.112159 184.375892 
L 265.762769 184.224617 
L 266.413379 183.855315 
L 267.06399 183.267119 
L 267.7146 182.462883 
L 269.015821 180.237176 
L 270.317041 177.279826 
L 271.618262 173.755106 
L 276.172534 160.511039 
L 277.473755 157.665263 
L 278.124365 156.575991 
L 278.774975 155.747421 
L 279.425586 155.202584 
L 280.076196 154.958977 
L 280.726806 155.027833 
L 281.377417 155.413486 
L 282.028027 156.112877 
L 282.678637 157.115209 
L 283.329248 158.401775 
L 284.630468 161.713681 
L 286.582299 167.912725 
L 288.53413 174.305279 
L 289.835351 177.869285 
L 290.485961 179.266265 
L 291.136571 180.338988 
L 291.787182 181.046196 
L 292.437792 181.356291 
L 293.088402 181.248903 
L 293.739013 180.716187 
L 294.389623 179.7638 
L 295.040233 178.41148 
L 295.690844 176.693178 
L 296.992064 172.362801 
L 300.895726 157.763247 
L 301.546336 156.032883 
L 302.196947 154.726984 
L 302.847557 153.906727 
L 303.498167 153.616264 
L 304.148778 153.879915 
L 304.799388 154.70001 
L 305.449998 156.055531 
L 306.100608 157.901698 
L 307.401829 162.772907 
L 310.654881 176.608518 
L 311.305491 178.623707 
L 311.956101 180.107585 
L 312.606712 180.974206 
L 313.257322 181.165751 
L 313.907932 180.657165 
L 314.558543 179.459361 
L 315.209153 177.620681 
L 315.859763 175.226367 
L 317.160984 169.278166 
L 319.112815 159.97362 
L 319.763425 157.505856 
L 320.414035 155.638544 
L 321.064646 154.502938 
L 321.715256 154.189821 
L 322.365866 154.741354 
L 323.016477 156.145551 
L 323.667087 158.333986 
L 324.968308 164.519968 
L 326.920138 175.195842 
L 327.570749 178.149439 
L 328.221359 180.411397 
L 328.871969 181.801273 
L 329.52258 182.197491 
L 330.17319 181.550131 
L 330.8238 179.88894 
L 331.474411 177.325481 
L 332.775631 170.313771 
L 334.076852 162.709416 
L 334.727462 159.49645 
L 335.378073 157.082246 
L 336.028683 155.704793 
L 336.679293 155.518292 
L 337.329903 156.57417 
L 337.980514 158.81042 
L 338.631124 162.051049 
L 341.884176 181.38071 
L 342.534786 183.143416 
L 343.185396 183.517615 
L 343.836007 182.437722 
L 344.486617 179.993938 
L 345.137227 176.431043 
L 347.739668 159.780438 
L 348.390279 157.515412 
L 349.040889 156.797747 
L 349.691499 157.761501 
L 350.34211 160.335031 
L 350.99272 164.238519 
L 352.944551 178.704613 
L 353.595161 182.344434 
L 354.245772 184.45365 
L 354.896382 184.711009 
L 355.546992 183.046064 
L 356.197602 179.663583 
L 357.498823 169.812694 
L 358.149433 164.800763 
L 358.800044 160.778614 
L 359.450654 158.40817 
L 360.101264 158.115091 
L 360.751875 160.006419 
L 361.402485 163.834976 
L 364.004926 183.934392 
L 364.655537 185.792868 
L 365.306147 185.211793 
L 365.956757 182.251059 
L 366.607367 177.415494 
L 367.908588 165.861939 
L 368.559198 161.376259 
L 369.209809 159.054058 
L 369.860419 159.423514 
L 370.511029 162.483342 
L 371.16164 167.673349 
L 372.46286 180.039807 
L 373.113471 184.593247 
L 373.764081 186.592054 
L 374.414691 185.538991 
L 375.065302 181.613003 
L 377.017132 163.358786 
L 377.667743 159.983908 
L 378.318353 159.826844 
L 378.968963 163.011049 
L 379.619574 168.8142 
L 380.920794 182.195855 
L 381.571405 186.270469 
L 382.222015 186.884533 
L 382.872625 183.797117 
L 383.523236 177.791767 
L 384.824456 164.027067 
L 385.475066 160.262288 
L 386.125677 160.403145 
L 386.776287 164.502763 
L 388.728118 184.973979 
L 389.378728 187.314959 
L 390.029339 185.201166 
L 390.679949 179.233642 
L 391.98117 164.158715 
L 392.63178 160.215267 
L 393.28239 160.967637 
L 393.933001 166.253512 
L 395.234221 182.076168 
L 395.884831 186.781244 
L 396.535442 186.504459 
L 397.186052 181.236661 
L 398.487273 164.822581 
L 398.487273 164.822581 
" clip-path="url(#p62923aea20)" style="fill: none; stroke: #2ca02c; stroke-width: 1.5; stroke-linecap: square"/>
   </g>
   <g id="patch_3">
    <path d="M 57.6 307.584 
L 57.6 41.472 
" style="fill: none; stroke: #000000; stroke-width: 0.8; stroke-linejoin: miter; stroke-linecap: square"/>
   </g>
   <g id="patch_4">
    <path d="M 414.72 307.584 
L 414.72 41.472 
" style="fill: none; stroke: #000000; stroke-width: 0.8; stroke-linejoin: miter; stroke-linecap: square"/>
   </g>
   <g id="patch_5">
    <path d="M 57.6 307.584 
L 414.72 307.584 
" style="fill: none; stroke: #000000; stroke-width: 0.8; stroke-linejoin: miter; stroke-linecap: square"/>
   </g>
   <g id="patch_6">
    <path d="M 57.6 41.472 
L 414.72 41.472 
" style="fill: none; stroke: #000000; stroke-width: 0.8; stroke-linejoin: miter; stroke-linecap: square"/>
   </g>
   <g id="text_14">
    <!-- Wykres porównujący funkcję przybliżoną do rozkładu  -->
    <g transform="translate(75.159375 21.458625) scale(0.12 -0.12)">
     <defs>
      <path id="DejaVuSans-57" d="M 213 4666 
L 850 4666 
L 1831 722 
L 2809 4666 
L 3519 4666 
L 4500 722 
L 5478 4666 
L 6119 4666 
L 4947 0 
L 4153 0 
L 3169 4050 
L 2175 0 
L 1381 0 
L 213 4666 
z
" transform="scale(0.015625)"/>
      <path id="DejaVuSans-6b" d="M 581 4863 
L 1159 4863 
L 1159 1991 
L 2875 3500 
L 3609 3500 
L 1753 1863 
L 3688 0 
L 2938 0 
L 1159 1709 
L 1159 0 
L 581 0 
L 581 4863 
z
" transform="scale(0.015625)"/>
      <path id="DejaVuSans-72" d="M 2631 2963 
Q 2534 3019 2420 3045 
Q 2306 3072 2169 3072 
Q 1681 3072 1420 2755 
Q 1159 2438 1159 1844 
L 1159 0 
L 581 0 
L 581 3500 
L 1159 3500 
L 1159 2956 
Q 1341 3275 1631 3429 
Q 1922 3584 2338 3584 
Q 2397 3584 2469 3576 
Q 2541 3569 2628 3553 
L 2631 2963 
z
" transform="scale(0.015625)"/>
      <path id="DejaVuSans-65" d="M 3597 1894 
L 3597 1613 
L 953 1613 
Q 991 1019 1311 708 
Q 1631 397 2203 397 
Q 2534 397 2845 478 
Q 3156 559 3463 722 
L 3463 178 
Q 3153 47 2828 -22 
Q 2503 -91 2169 -91 
Q 1331 -91 842 396 
Q 353 884 353 1716 
Q 353 2575 817 3079 
Q 1281 3584 2069 3584 
Q 2775 3584 3186 3129 
Q 3597 2675 3597 1894 
z
M 3022 2063 
Q 3016 2534 2758 2815 
Q 2500 3097 2075 3097 
Q 1594 3097 1305 2825 
Q 1016 2553 972 2059 
L 3022 2063 
z
" transform="scale(0.015625)"/>
      <path id="DejaVuSans-73" d="M 2834 3397 
L 2834 2853 
Q 2591 2978 2328 3040 
Q 2066 3103 1784 3103 
Q 1356 3103 1142 2972 
Q 928 2841 928 2578 
Q 928 2378 1081 2264 
Q 1234 2150 1697 2047 
L 1894 2003 
Q 2506 1872 2764 1633 
Q 3022 1394 3022 966 
Q 3022 478 2636 193 
Q 2250 -91 1575 -91 
Q 1294 -91 989 -36 
Q 684 19 347 128 
L 347 722 
Q 666 556 975 473 
Q 1284 391 1588 391 
Q 1994 391 2212 530 
Q 2431 669 2431 922 
Q 2431 1156 2273 1281 
Q 2116 1406 1581 1522 
L 1381 1569 
Q 847 1681 609 1914 
Q 372 2147 372 2553 
Q 372 3047 722 3315 
Q 1072 3584 1716 3584 
Q 2034 3584 2315 3537 
Q 2597 3491 2834 3397 
z
" transform="scale(0.015625)"/>
      <path id="DejaVuSans-20" transform="scale(0.015625)"/>
      <path id="DejaVuSans-70" d="M 1159 525 
L 1159 -1331 
L 581 -1331 
L 581 3500 
L 1159 3500 
L 1159 2969 
Q 1341 3281 1617 3432 
Q 1894 3584 2278 3584 
Q 2916 3584 3314 3078 
Q 3713 2572 3713 1747 
Q 3713 922 3314 415 
Q 2916 -91 2278 -91 
Q 1894 -91 1617 61 
Q 1341 213 1159 525 
z
M 3116 1747 
Q 3116 2381 2855 2742 
Q 2594 3103 2138 3103 
Q 1681 3103 1420 2742 
Q 1159 2381 1159 1747 
Q 1159 1113 1420 752 
Q 1681 391 2138 391 
Q 2594 391 2855 752 
Q 3116 1113 3116 1747 
z
" transform="scale(0.015625)"/>
      <path id="DejaVuSans-6f" d="M 1959 3097 
Q 1497 3097 1228 2736 
Q 959 2375 959 1747 
Q 959 1119 1226 758 
Q 1494 397 1959 397 
Q 2419 397 2687 759 
Q 2956 1122 2956 1747 
Q 2956 2369 2687 2733 
Q 2419 3097 1959 3097 
z
M 1959 3584 
Q 2709 3584 3137 3096 
Q 3566 2609 3566 1747 
Q 3566 888 3137 398 
Q 2709 -91 1959 -91 
Q 1206 -91 779 398 
Q 353 888 353 1747 
Q 353 2609 779 3096 
Q 1206 3584 1959 3584 
z
" transform="scale(0.015625)"/>
      <path id="DejaVuSans-f3" d="M 1959 3097 
Q 1497 3097 1228 2736 
Q 959 2375 959 1747 
Q 959 1119 1226 758 
Q 1494 397 1959 397 
Q 2419 397 2687 759 
Q 2956 1122 2956 1747 
Q 2956 2369 2687 2733 
Q 2419 3097 1959 3097 
z
M 1959 3584 
Q 2709 3584 3137 3096 
Q 3566 2609 3566 1747 
Q 3566 888 3137 398 
Q 2709 -91 1959 -91 
Q 1206 -91 779 398 
Q 353 888 353 1747 
Q 353 2609 779 3096 
Q 1206 3584 1959 3584 
z
M 2394 5119 
L 3016 5119 
L 1998 3944 
L 1519 3944 
L 2394 5119 
z
" transform="scale(0.015625)"/>
      <path id="DejaVuSans-77" d="M 269 3500 
L 844 3500 
L 1563 769 
L 2278 3500 
L 2956 3500 
L 3675 769 
L 4391 3500 
L 4966 3500 
L 4050 0 
L 3372 0 
L 2619 2869 
L 1863 0 
L 1184 0 
L 269 3500 
z
" transform="scale(0.015625)"/>
      <path id="DejaVuSans-6e" d="M 3513 2113 
L 3513 0 
L 2938 0 
L 2938 2094 
Q 2938 2591 2744 2837 
Q 2550 3084 2163 3084 
Q 1697 3084 1428 2787 
Q 1159 2491 1159 1978 
L 1159 0 
L 581 0 
L 581 3500 
L 1159 3500 
L 1159 2956 
Q 1366 3272 1645 3428 
Q 1925 3584 2291 3584 
Q 2894 3584 3203 3211 
Q 3513 2838 3513 2113 
z
" transform="scale(0.015625)"/>
      <path id="DejaVuSans-75" d="M 544 1381 
L 544 3500 
L 1119 3500 
L 1119 1403 
Q 1119 906 1312 657 
Q 1506 409 1894 409 
Q 2359 409 2629 706 
Q 2900 1003 2900 1516 
L 2900 3500 
L 3475 3500 
L 3475 0 
L 2900 0 
L 2900 538 
Q 2691 219 2414 64 
Q 2138 -91 1772 -91 
Q 1169 -91 856 284 
Q 544 659 544 1381 
z
M 1991 3584 
L 1991 3584 
z
" transform="scale(0.015625)"/>
      <path id="DejaVuSans-6a" d="M 603 3500 
L 1178 3500 
L 1178 -63 
Q 1178 -731 923 -1031 
Q 669 -1331 103 -1331 
L -116 -1331 
L -116 -844 
L 38 -844 
Q 366 -844 484 -692 
Q 603 -541 603 -63 
L 603 3500 
z
M 603 4863 
L 1178 4863 
L 1178 4134 
L 603 4134 
L 603 4863 
z
" transform="scale(0.015625)"/>
      <path id="DejaVuSans-105" d="M 2194 1759 
Q 1497 1759 1228 1600 
Q 959 1441 959 1056 
Q 959 750 1161 570 
Q 1363 391 1709 391 
Q 2188 391 2477 730 
Q 2766 1069 2766 1631 
L 2766 1759 
L 2194 1759 
z
M 3341 1997 
L 3341 0 
L 2766 0 
L 2766 531 
Q 2569 213 2275 61 
Q 1981 -91 1556 -91 
Q 1019 -91 701 211 
Q 384 513 384 1019 
Q 384 1609 779 1909 
Q 1175 2209 1959 2209 
L 2766 2209 
L 2766 2266 
Q 2766 2663 2505 2880 
Q 2244 3097 1772 3097 
Q 1472 3097 1187 3025 
Q 903 2953 641 2809 
L 641 3341 
Q 956 3463 1253 3523 
Q 1550 3584 1831 3584 
Q 2591 3584 2966 3190 
Q 3341 2797 3341 1997 
z
M 2775 0 
L 3147 0 
Q 3006 -191 2939 -328 
Q 2872 -466 2872 -563 
Q 2872 -706 2958 -778 
Q 3044 -850 3213 -850 
Q 3313 -850 3409 -826 
Q 3506 -803 3603 -756 
L 3603 -1172 
Q 3484 -1203 3378 -1218 
Q 3272 -1234 3178 -1234 
Q 2797 -1234 2617 -1098 
Q 2438 -963 2438 -672 
Q 2438 -522 2520 -358 
Q 2603 -194 2775 0 
z
" transform="scale(0.015625)"/>
      <path id="DejaVuSans-63" d="M 3122 3366 
L 3122 2828 
Q 2878 2963 2633 3030 
Q 2388 3097 2138 3097 
Q 1578 3097 1268 2742 
Q 959 2388 959 1747 
Q 959 1106 1268 751 
Q 1578 397 2138 397 
Q 2388 397 2633 464 
Q 2878 531 3122 666 
L 3122 134 
Q 2881 22 2623 -34 
Q 2366 -91 2075 -91 
Q 1284 -91 818 406 
Q 353 903 353 1747 
Q 353 2603 823 3093 
Q 1294 3584 2113 3584 
Q 2378 3584 2631 3529 
Q 2884 3475 3122 3366 
z
" transform="scale(0.015625)"/>
      <path id="DejaVuSans-66" d="M 2375 4863 
L 2375 4384 
L 1825 4384 
Q 1516 4384 1395 4259 
Q 1275 4134 1275 3809 
L 1275 3500 
L 2222 3500 
L 2222 3053 
L 1275 3053 
L 1275 0 
L 697 0 
L 697 3053 
L 147 3053 
L 147 3500 
L 697 3500 
L 697 3744 
Q 697 4328 969 4595 
Q 1241 4863 1831 4863 
L 2375 4863 
z
" transform="scale(0.015625)"/>
      <path id="DejaVuSans-119" d="M 3597 1894 
L 3597 1613 
L 953 1613 
Q 991 1019 1311 708 
Q 1631 397 2203 397 
Q 2534 397 2845 478 
Q 3156 559 3463 722 
L 3463 178 
Q 3153 47 2828 -22 
Q 2503 -91 2169 -91 
Q 1331 -91 842 396 
Q 353 884 353 1716 
Q 353 2575 817 3079 
Q 1281 3584 2069 3584 
Q 2775 3584 3186 3129 
Q 3597 2675 3597 1894 
z
M 3022 2063 
Q 3016 2534 2758 2815 
Q 2500 3097 2075 3097 
Q 1594 3097 1305 2825 
Q 1016 2553 972 2059 
L 3022 2063 
z
M 2551 0 
L 2923 0 
Q 2782 -191 2715 -328 
Q 2648 -466 2648 -563 
Q 2648 -706 2734 -778 
Q 2820 -850 2989 -850 
Q 3089 -850 3185 -826 
Q 3282 -803 3379 -756 
L 3379 -1172 
Q 3260 -1203 3154 -1218 
Q 3048 -1234 2954 -1234 
Q 2573 -1234 2393 -1098 
Q 2214 -963 2214 -672 
Q 2214 -522 2296 -358 
Q 2379 -194 2551 0 
z
" transform="scale(0.015625)"/>
      <path id="DejaVuSans-7a" d="M 353 3500 
L 3084 3500 
L 3084 2975 
L 922 459 
L 3084 459 
L 3084 0 
L 275 0 
L 275 525 
L 2438 3041 
L 353 3041 
L 353 3500 
z
" transform="scale(0.015625)"/>
      <path id="DejaVuSans-62" d="M 3116 1747 
Q 3116 2381 2855 2742 
Q 2594 3103 2138 3103 
Q 1681 3103 1420 2742 
Q 1159 2381 1159 1747 
Q 1159 1113 1420 752 
Q 1681 391 2138 391 
Q 2594 391 2855 752 
Q 3116 1113 3116 1747 
z
M 1159 2969 
Q 1341 3281 1617 3432 
Q 1894 3584 2278 3584 
Q 2916 3584 3314 3078 
Q 3713 2572 3713 1747 
Q 3713 922 3314 415 
Q 2916 -91 2278 -91 
Q 1894 -91 1617 61 
Q 1341 213 1159 525 
L 1159 0 
L 581 0 
L 581 4863 
L 1159 4863 
L 1159 2969 
z
" transform="scale(0.015625)"/>
      <path id="DejaVuSans-6c" d="M 603 4863 
L 1178 4863 
L 1178 0 
L 603 0 
L 603 4863 
z
" transform="scale(0.015625)"/>
      <path id="DejaVuSans-69" d="M 603 3500 
L 1178 3500 
L 1178 0 
L 603 0 
L 603 3500 
z
M 603 4863 
L 1178 4863 
L 1178 4134 
L 603 4134 
L 603 4863 
z
" transform="scale(0.015625)"/>
      <path id="DejaVuSans-17c" d="M 1378 4863 
L 1953 4863 
L 1953 4134 
L 1378 4134 
L 1378 4863 
z
M 1672 3584 
L 1672 3584 
z
M 353 3500 
L 3084 3500 
L 3084 2975 
L 922 459 
L 3084 459 
L 3084 0 
L 275 0 
L 275 525 
L 2438 3041 
L 353 3041 
L 353 3500 
z
" transform="scale(0.015625)"/>
      <path id="DejaVuSans-64" d="M 2906 2969 
L 2906 4863 
L 3481 4863 
L 3481 0 
L 2906 0 
L 2906 525 
Q 2725 213 2448 61 
Q 2172 -91 1784 -91 
Q 1150 -91 751 415 
Q 353 922 353 1747 
Q 353 2572 751 3078 
Q 1150 3584 1784 3584 
Q 2172 3584 2448 3432 
Q 2725 3281 2906 2969 
z
M 947 1747 
Q 947 1113 1208 752 
Q 1469 391 1925 391 
Q 2381 391 2643 752 
Q 2906 1113 2906 1747 
Q 2906 2381 2643 2742 
Q 2381 3103 1925 3103 
Q 1469 3103 1208 2742 
Q 947 2381 947 1747 
z
" transform="scale(0.015625)"/>
      <path id="DejaVuSans-142" d="M 622 4863 
L 1197 4863 
L 1197 2981 
L 1588 3263 
L 1825 2931 
L 1197 2491 
L 1197 0 
L 622 0 
L 622 2081 
L 238 1806 
L 6 2138 
L 622 2578 
L 622 4863 
z
" transform="scale(0.015625)"/>
      <path id="DejaVuSans-61" d="M 2194 1759 
Q 1497 1759 1228 1600 
Q 959 1441 959 1056 
Q 959 750 1161 570 
Q 1363 391 1709 391 
Q 2188 391 2477 730 
Q 2766 1069 2766 1631 
L 2766 1759 
L 2194 1759 
z
M 3341 1997 
L 3341 0 
L 2766 0 
L 2766 531 
Q 2569 213 2275 61 
Q 1981 -91 1556 -91 
Q 1019 -91 701 211 
Q 384 513 384 1019 
Q 384 1609 779 1909 
Q 1175 2209 1959 2209 
L 2766 2209 
L 2766 2266 
Q 2766 2663 2505 2880 
Q 2244 3097 1772 3097 
Q 1472 3097 1187 3025 
Q 903 2953 641 2809 
L 641 3341 
Q 956 3463 1253 3523 
Q 1550 3584 1831 3584 
Q 2591 3584 2966 3190 
Q 3341 2797 3341 1997 
z
" transform="scale(0.015625)"/>
     </defs>
     <use xlink:href="#DejaVuSans-57"/>
     <use xlink:href="#DejaVuSans-79" x="97.126953"/>
     <use xlink:href="#DejaVuSans-6b" x="156.306641"/>
     <use xlink:href="#DejaVuSans-72" x="214.216797"/>
     <use xlink:href="#DejaVuSans-65" x="253.080078"/>
     <use xlink:href="#DejaVuSans-73" x="314.603516"/>
     <use xlink:href="#DejaVuSans-20" x="366.703125"/>
     <use xlink:href="#DejaVuSans-70" x="398.490234"/>
     <use xlink:href="#DejaVuSans-6f" x="461.966797"/>
     <use xlink:href="#DejaVuSans-72" x="523.148438"/>
     <use xlink:href="#DejaVuSans-f3" x="562.011719"/>
     <use xlink:href="#DejaVuSans-77" x="623.193359"/>
     <use xlink:href="#DejaVuSans-6e" x="704.980469"/>
     <use xlink:href="#DejaVuSans-75" x="768.359375"/>
     <use xlink:href="#DejaVuSans-6a" x="831.738281"/>
     <use xlink:href="#DejaVuSans-105" x="859.521484"/>
     <use xlink:href="#DejaVuSans-63" x="920.800781"/>
     <use xlink:href="#DejaVuSans-79" x="975.78125"/>
     <use xlink:href="#DejaVuSans-20" x="1034.960938"/>
     <use xlink:href="#DejaVuSans-66" x="1066.748047"/>
     <use xlink:href="#DejaVuSans-75" x="1101.953125"/>
     <use xlink:href="#DejaVuSans-6e" x="1165.332031"/>
     <use xlink:href="#DejaVuSans-6b" x="1228.710938"/>
     <use xlink:href="#DejaVuSans-63" x="1286.621094"/>
     <use xlink:href="#DejaVuSans-6a" x="1341.601562"/>
     <use xlink:href="#DejaVuSans-119" x="1369.384766"/>
     <use xlink:href="#DejaVuSans-20" x="1430.908203"/>
     <use xlink:href="#DejaVuSans-70" x="1462.695312"/>
     <use xlink:href="#DejaVuSans-72" x="1526.171875"/>
     <use xlink:href="#DejaVuSans-7a" x="1567.285156"/>
     <use xlink:href="#DejaVuSans-79" x="1619.775391"/>
     <use xlink:href="#DejaVuSans-62" x="1678.955078"/>
     <use xlink:href="#DejaVuSans-6c" x="1742.431641"/>
     <use xlink:href="#DejaVuSans-69" x="1770.214844"/>
     <use xlink:href="#DejaVuSans-17c" x="1797.998047"/>
     <use xlink:href="#DejaVuSans-6f" x="1850.488281"/>
     <use xlink:href="#DejaVuSans-6e" x="1911.669922"/>
     <use xlink:href="#DejaVuSans-105" x="1975.048828"/>
     <use xlink:href="#DejaVuSans-20" x="2036.328125"/>
     <use xlink:href="#DejaVuSans-64" x="2068.115234"/>
     <use xlink:href="#DejaVuSans-6f" x="2131.591797"/>
     <use xlink:href="#DejaVuSans-20" x="2192.773438"/>
     <use xlink:href="#DejaVuSans-72" x="2224.560547"/>
     <use xlink:href="#DejaVuSans-6f" x="2263.423828"/>
     <use xlink:href="#DejaVuSans-7a" x="2324.605469"/>
     <use xlink:href="#DejaVuSans-6b" x="2377.095703"/>
     <use xlink:href="#DejaVuSans-142" x="2435.005859"/>
     <use xlink:href="#DejaVuSans-61" x="2463.423828"/>
     <use xlink:href="#DejaVuSans-64" x="2524.703125"/>
     <use xlink:href="#DejaVuSans-75" x="2588.179688"/>
     <use xlink:href="#DejaVuSans-20" x="2651.558594"/>
    </g>
    <!-- punktów danych dla nowej funckji i funkcji modelującej H(x) -->
    <g transform="translate(55.704375 35.472) scale(0.12 -0.12)">
     <defs>
      <path id="DejaVuSans-74" d="M 1172 4494 
L 1172 3500 
L 2356 3500 
L 2356 3053 
L 1172 3053 
L 1172 1153 
Q 1172 725 1289 603 
Q 1406 481 1766 481 
L 2356 481 
L 2356 0 
L 1766 0 
Q 1100 0 847 248 
Q 594 497 594 1153 
L 594 3053 
L 172 3053 
L 172 3500 
L 594 3500 
L 594 4494 
L 1172 4494 
z
" transform="scale(0.015625)"/>
      <path id="DejaVuSans-68" d="M 3513 2113 
L 3513 0 
L 2938 0 
L 2938 2094 
Q 2938 2591 2744 2837 
Q 2550 3084 2163 3084 
Q 1697 3084 1428 2787 
Q 1159 2491 1159 1978 
L 1159 0 
L 581 0 
L 581 4863 
L 1159 4863 
L 1159 2956 
Q 1366 3272 1645 3428 
Q 1925 3584 2291 3584 
Q 2894 3584 3203 3211 
Q 3513 2838 3513 2113 
z
" transform="scale(0.015625)"/>
      <path id="DejaVuSans-6d" d="M 3328 2828 
Q 3544 3216 3844 3400 
Q 4144 3584 4550 3584 
Q 5097 3584 5394 3201 
Q 5691 2819 5691 2113 
L 5691 0 
L 5113 0 
L 5113 2094 
Q 5113 2597 4934 2840 
Q 4756 3084 4391 3084 
Q 3944 3084 3684 2787 
Q 3425 2491 3425 1978 
L 3425 0 
L 2847 0 
L 2847 2094 
Q 2847 2600 2669 2842 
Q 2491 3084 2119 3084 
Q 1678 3084 1418 2786 
Q 1159 2488 1159 1978 
L 1159 0 
L 581 0 
L 581 3500 
L 1159 3500 
L 1159 2956 
Q 1356 3278 1631 3431 
Q 1906 3584 2284 3584 
Q 2666 3584 2933 3390 
Q 3200 3197 3328 2828 
z
" transform="scale(0.015625)"/>
      <path id="DejaVuSans-48" d="M 628 4666 
L 1259 4666 
L 1259 2753 
L 3553 2753 
L 3553 4666 
L 4184 4666 
L 4184 0 
L 3553 0 
L 3553 2222 
L 1259 2222 
L 1259 0 
L 628 0 
L 628 4666 
z
" transform="scale(0.015625)"/>
      <path id="DejaVuSans-28" d="M 1984 4856 
Q 1566 4138 1362 3434 
Q 1159 2731 1159 2009 
Q 1159 1288 1364 580 
Q 1569 -128 1984 -844 
L 1484 -844 
Q 1016 -109 783 600 
Q 550 1309 550 2009 
Q 550 2706 781 3412 
Q 1013 4119 1484 4856 
L 1984 4856 
z
" transform="scale(0.015625)"/>
      <path id="DejaVuSans-29" d="M 513 4856 
L 1013 4856 
Q 1481 4119 1714 3412 
Q 1947 2706 1947 2009 
Q 1947 1309 1714 600 
Q 1481 -109 1013 -844 
L 513 -844 
Q 928 -128 1133 580 
Q 1338 1288 1338 2009 
Q 1338 2731 1133 3434 
Q 928 4138 513 4856 
z
" transform="scale(0.015625)"/>
     </defs>
     <use xlink:href="#DejaVuSans-70"/>
     <use xlink:href="#DejaVuSans-75" x="63.476562"/>
     <use xlink:href="#DejaVuSans-6e" x="126.855469"/>
     <use xlink:href="#DejaVuSans-6b" x="190.234375"/>
     <use xlink:href="#DejaVuSans-74" x="248.144531"/>
     <use xlink:href="#DejaVuSans-f3" x="287.353516"/>
     <use xlink:href="#DejaVuSans-77" x="348.535156"/>
     <use xlink:href="#DejaVuSans-20" x="430.322266"/>
     <use xlink:href="#DejaVuSans-64" x="462.109375"/>
     <use xlink:href="#DejaVuSans-61" x="525.585938"/>
     <use xlink:href="#DejaVuSans-6e" x="586.865234"/>
     <use xlink:href="#DejaVuSans-79" x="650.244141"/>
     <use xlink:href="#DejaVuSans-63" x="709.423828"/>
     <use xlink:href="#DejaVuSans-68" x="764.404297"/>
     <use xlink:href="#DejaVuSans-20" x="827.783203"/>
     <use xlink:href="#DejaVuSans-64" x="859.570312"/>
     <use xlink:href="#DejaVuSans-6c" x="923.046875"/>
     <use xlink:href="#DejaVuSans-61" x="950.830078"/>
     <use xlink:href="#DejaVuSans-20" x="1012.109375"/>
     <use xlink:href="#DejaVuSans-6e" x="1043.896484"/>
     <use xlink:href="#DejaVuSans-6f" x="1107.275391"/>
     <use xlink:href="#DejaVuSans-77" x="1168.457031"/>
     <use xlink:href="#DejaVuSans-65" x="1250.244141"/>
     <use xlink:href="#DejaVuSans-6a" x="1311.767578"/>
     <use xlink:href="#DejaVuSans-20" x="1339.550781"/>
     <use xlink:href="#DejaVuSans-66" x="1371.337891"/>
     <use xlink:href="#DejaVuSans-75" x="1406.542969"/>
     <use xlink:href="#DejaVuSans-6e" x="1469.921875"/>
     <use xlink:href="#DejaVuSans-63" x="1533.300781"/>
     <use xlink:href="#DejaVuSans-6b" x="1588.28125"/>
     <use xlink:href="#DejaVuSans-6a" x="1646.191406"/>
     <use xlink:href="#DejaVuSans-69" x="1673.974609"/>
     <use xlink:href="#DejaVuSans-20" x="1701.757812"/>
     <use xlink:href="#DejaVuSans-69" x="1733.544922"/>
     <use xlink:href="#DejaVuSans-20" x="1761.328125"/>
     <use xlink:href="#DejaVuSans-66" x="1793.115234"/>
     <use xlink:href="#DejaVuSans-75" x="1828.320312"/>
     <use xlink:href="#DejaVuSans-6e" x="1891.699219"/>
     <use xlink:href="#DejaVuSans-6b" x="1955.078125"/>
     <use xlink:href="#DejaVuSans-63" x="2012.988281"/>
     <use xlink:href="#DejaVuSans-6a" x="2067.96875"/>
     <use xlink:href="#DejaVuSans-69" x="2095.751953"/>
     <use xlink:href="#DejaVuSans-20" x="2123.535156"/>
     <use xlink:href="#DejaVuSans-6d" x="2155.322266"/>
     <use xlink:href="#DejaVuSans-6f" x="2252.734375"/>
     <use xlink:href="#DejaVuSans-64" x="2313.916016"/>
     <use xlink:href="#DejaVuSans-65" x="2377.392578"/>
     <use xlink:href="#DejaVuSans-6c" x="2438.916016"/>
     <use xlink:href="#DejaVuSans-75" x="2466.699219"/>
     <use xlink:href="#DejaVuSans-6a" x="2530.078125"/>
     <use xlink:href="#DejaVuSans-105" x="2557.861328"/>
     <use xlink:href="#DejaVuSans-63" x="2619.140625"/>
     <use xlink:href="#DejaVuSans-65" x="2674.121094"/>
     <use xlink:href="#DejaVuSans-6a" x="2735.644531"/>
     <use xlink:href="#DejaVuSans-20" x="2763.427734"/>
     <use xlink:href="#DejaVuSans-48" x="2795.214844"/>
     <use xlink:href="#DejaVuSans-28" x="2870.410156"/>
     <use xlink:href="#DejaVuSans-78" x="2909.423828"/>
     <use xlink:href="#DejaVuSans-29" x="2968.603516"/>
    </g>
   </g>
   <g id="legend_1">
    <g id="patch_7">
     <path d="M 170.852969 302.584 
L 301.467031 302.584 
Q 303.467031 302.584 303.467031 300.584 
L 303.467031 257.549625 
Q 303.467031 255.549625 301.467031 255.549625 
L 170.852969 255.549625 
Q 168.852969 255.549625 168.852969 257.549625 
L 168.852969 300.584 
Q 168.852969 302.584 170.852969 302.584 
z
" style="fill: #ffffff; opacity: 0.8; stroke: #cccccc; stroke-linejoin: miter"/>
    </g>
    <g id="line2d_15">
     <g>
      <use xlink:href="#m3c5f18d277" x="182.852969" y="263.648062" style="fill: #1f77b4; stroke: #1f77b4"/>
     </g>
    </g>
    <g id="text_15">
     <!-- Dane punkty -->
     <g transform="translate(200.852969 267.148062) scale(0.1 -0.1)">
      <defs>
       <path id="DejaVuSans-44" d="M 1259 4147 
L 1259 519 
L 2022 519 
Q 2988 519 3436 956 
Q 3884 1394 3884 2338 
Q 3884 3275 3436 3711 
Q 2988 4147 2022 4147 
L 1259 4147 
z
M 628 4666 
L 1925 4666 
Q 3281 4666 3915 4102 
Q 4550 3538 4550 2338 
Q 4550 1131 3912 565 
Q 3275 0 1925 0 
L 628 0 
L 628 4666 
z
" transform="scale(0.015625)"/>
      </defs>
      <use xlink:href="#DejaVuSans-44"/>
      <use xlink:href="#DejaVuSans-61" x="77.001953"/>
      <use xlink:href="#DejaVuSans-6e" x="138.28125"/>
      <use xlink:href="#DejaVuSans-65" x="201.660156"/>
      <use xlink:href="#DejaVuSans-20" x="263.183594"/>
      <use xlink:href="#DejaVuSans-70" x="294.970703"/>
      <use xlink:href="#DejaVuSans-75" x="358.447266"/>
      <use xlink:href="#DejaVuSans-6e" x="421.826172"/>
      <use xlink:href="#DejaVuSans-6b" x="485.205078"/>
      <use xlink:href="#DejaVuSans-74" x="543.115234"/>
      <use xlink:href="#DejaVuSans-79" x="582.324219"/>
     </g>
    </g>
    <g id="line2d_16">
     <path d="M 172.852969 278.326188 
L 182.852969 278.326188 
L 192.852969 278.326188 
" style="fill: none; stroke: #ff7f0e; stroke-width: 1.5; stroke-linecap: square"/>
    </g>
    <g id="text_16">
     <!-- Funkcja przybliżona -->
     <g transform="translate(200.852969 281.826188) scale(0.1 -0.1)">
      <defs>
       <path id="DejaVuSans-46" d="M 628 4666 
L 3309 4666 
L 3309 4134 
L 1259 4134 
L 1259 2759 
L 3109 2759 
L 3109 2228 
L 1259 2228 
L 1259 0 
L 628 0 
L 628 4666 
z
" transform="scale(0.015625)"/>
      </defs>
      <use xlink:href="#DejaVuSans-46"/>
      <use xlink:href="#DejaVuSans-75" x="52.019531"/>
      <use xlink:href="#DejaVuSans-6e" x="115.398438"/>
      <use xlink:href="#DejaVuSans-6b" x="178.777344"/>
      <use xlink:href="#DejaVuSans-63" x="236.6875"/>
      <use xlink:href="#DejaVuSans-6a" x="291.667969"/>
      <use xlink:href="#DejaVuSans-61" x="319.451172"/>
      <use xlink:href="#DejaVuSans-20" x="380.730469"/>
      <use xlink:href="#DejaVuSans-70" x="412.517578"/>
      <use xlink:href="#DejaVuSans-72" x="475.994141"/>
      <use xlink:href="#DejaVuSans-7a" x="517.107422"/>
      <use xlink:href="#DejaVuSans-79" x="569.597656"/>
      <use xlink:href="#DejaVuSans-62" x="628.777344"/>
      <use xlink:href="#DejaVuSans-6c" x="692.253906"/>
      <use xlink:href="#DejaVuSans-69" x="720.037109"/>
      <use xlink:href="#DejaVuSans-17c" x="747.820312"/>
      <use xlink:href="#DejaVuSans-6f" x="800.310547"/>
      <use xlink:href="#DejaVuSans-6e" x="861.492188"/>
      <use xlink:href="#DejaVuSans-61" x="924.871094"/>
     </g>
    </g>
    <g id="line2d_17">
     <path d="M 172.852969 293.004312 
L 182.852969 293.004312 
L 192.852969 293.004312 
" style="fill: none; stroke: #2ca02c; stroke-width: 1.5; stroke-linecap: square"/>
    </g>
    <g id="text_17">
     <!-- Dokładna funkcja -->
     <g transform="translate(200.852969 296.504312) scale(0.1 -0.1)">
      <use xlink:href="#DejaVuSans-44"/>
      <use xlink:href="#DejaVuSans-6f" x="77.001953"/>
      <use xlink:href="#DejaVuSans-6b" x="138.183594"/>
      <use xlink:href="#DejaVuSans-142" x="196.09375"/>
      <use xlink:href="#DejaVuSans-61" x="224.511719"/>
      <use xlink:href="#DejaVuSans-64" x="285.791016"/>
      <use xlink:href="#DejaVuSans-6e" x="349.267578"/>
      <use xlink:href="#DejaVuSans-61" x="412.646484"/>
      <use xlink:href="#DejaVuSans-20" x="473.925781"/>
      <use xlink:href="#DejaVuSans-66" x="505.712891"/>
      <use xlink:href="#DejaVuSans-75" x="540.917969"/>
      <use xlink:href="#DejaVuSans-6e" x="604.296875"/>
      <use xlink:href="#DejaVuSans-6b" x="667.675781"/>
      <use xlink:href="#DejaVuSans-63" x="725.585938"/>
      <use xlink:href="#DejaVuSans-6a" x="780.566406"/>
      <use xlink:href="#DejaVuSans-61" x="808.349609"/>
     </g>
    </g>
   </g>
  </g>
 </g>
 <defs>
  <clipPath id="p62923aea20">
   <rect x="57.6" y="41.472" width="357.12" height="266.112"/>
  </clipPath>
 </defs>
</svg>
