<?xml version="1.0" encoding="utf-8" standalone="no"?>
<!DOCTYPE svg PUBLIC "-//W3C//DTD SVG 1.1//EN"
  "http://www.w3.org/Graphics/SVG/1.1/DTD/svg11.dtd">
<svg xmlns:xlink="http://www.w3.org/1999/xlink" width="720pt" height="504pt" viewBox="0 0 720 504" xmlns="http://www.w3.org/2000/svg" version="1.1">
 <metadata>
  <rdf:RDF xmlns:dc="http://purl.org/dc/elements/1.1/" xmlns:cc="http://creativecommons.org/ns#" xmlns:rdf="http://www.w3.org/1999/02/22-rdf-syntax-ns#">
   <cc:Work>
    <dc:type rdf:resource="http://purl.org/dc/dcmitype/StillImage"/>
    <dc:date>2023-10-10T22:15:45.843611</dc:date>
    <dc:format>image/svg+xml</dc:format>
    <dc:creator>
     <cc:Agent>
      <dc:title>Matplotlib v3.8.0, https://matplotlib.org/</dc:title>
     </cc:Agent>
    </dc:creator>
   </cc:Work>
  </rdf:RDF>
 </metadata>
 <defs>
  <style type="text/css">*{stroke-linejoin: round; stroke-linecap: butt}</style>
 </defs>
 <g id="figure_1">
  <g id="patch_1">
   <path d="M 0 504 
L 720 504 
L 720 0 
L 0 0 
z
" style="fill: #ffffff"/>
  </g>
  <g id="axes_1">
   <g id="patch_2">
    <path d="M 90 448.56 
L 648 448.56 
L 648 60.48 
L 90 60.48 
z
" style="fill: #ffffff"/>
   </g>
   <g id="matplotlib.axis_1">
    <g id="xtick_1">
     <g id="line2d_1">
      <path d="M 147.068182 448.56 
L 147.068182 60.48 
" clip-path="url(#p12cf56f723)" style="fill: none; stroke: #b0b0b0; stroke-width: 0.8; stroke-linecap: square"/>
     </g>
     <g id="line2d_2">
      <defs>
       <path id="mb534e5c1d1" d="M 0 0 
L 0 3.5 
" style="stroke: #000000; stroke-width: 0.8"/>
      </defs>
      <g>
       <use xlink:href="#mb534e5c1d1" x="147.068182" y="448.56" style="stroke: #000000; stroke-width: 0.8"/>
      </g>
     </g>
     <g id="text_1">
      <!-- $\mathdefault{10^{-15}}$ -->
      <g transform="translate(133.118182 463.158437) scale(0.1 -0.1)">
       <defs>
        <path id="DejaVuSans-31" d="M 794 531 
L 1825 531 
L 1825 4091 
L 703 3866 
L 703 4441 
L 1819 4666 
L 2450 4666 
L 2450 531 
L 3481 531 
L 3481 0 
L 794 0 
L 794 531 
z
" transform="scale(0.015625)"/>
        <path id="DejaVuSans-30" d="M 2034 4250 
Q 1547 4250 1301 3770 
Q 1056 3291 1056 2328 
Q 1056 1369 1301 889 
Q 1547 409 2034 409 
Q 2525 409 2770 889 
Q 3016 1369 3016 2328 
Q 3016 3291 2770 3770 
Q 2525 4250 2034 4250 
z
M 2034 4750 
Q 2819 4750 3233 4129 
Q 3647 3509 3647 2328 
Q 3647 1150 3233 529 
Q 2819 -91 2034 -91 
Q 1250 -91 836 529 
Q 422 1150 422 2328 
Q 422 3509 836 4129 
Q 1250 4750 2034 4750 
z
" transform="scale(0.015625)"/>
        <path id="DejaVuSans-2212" d="M 678 2272 
L 4684 2272 
L 4684 1741 
L 678 1741 
L 678 2272 
z
" transform="scale(0.015625)"/>
        <path id="DejaVuSans-35" d="M 691 4666 
L 3169 4666 
L 3169 4134 
L 1269 4134 
L 1269 2991 
Q 1406 3038 1543 3061 
Q 1681 3084 1819 3084 
Q 2600 3084 3056 2656 
Q 3513 2228 3513 1497 
Q 3513 744 3044 326 
Q 2575 -91 1722 -91 
Q 1428 -91 1123 -41 
Q 819 9 494 109 
L 494 744 
Q 775 591 1075 516 
Q 1375 441 1709 441 
Q 2250 441 2565 725 
Q 2881 1009 2881 1497 
Q 2881 1984 2565 2268 
Q 2250 2553 1709 2553 
Q 1456 2553 1204 2497 
Q 953 2441 691 2322 
L 691 4666 
z
" transform="scale(0.015625)"/>
       </defs>
       <use xlink:href="#DejaVuSans-31" transform="translate(0 0.684375)"/>
       <use xlink:href="#DejaVuSans-30" transform="translate(63.623047 0.684375)"/>
       <use xlink:href="#DejaVuSans-2212" transform="translate(128.203125 38.965625) scale(0.7)"/>
       <use xlink:href="#DejaVuSans-31" transform="translate(186.855469 38.965625) scale(0.7)"/>
       <use xlink:href="#DejaVuSans-35" transform="translate(231.391602 38.965625) scale(0.7)"/>
      </g>
     </g>
    </g>
    <g id="xtick_2">
     <g id="line2d_3">
      <path d="M 210.477273 448.56 
L 210.477273 60.48 
" clip-path="url(#p12cf56f723)" style="fill: none; stroke: #b0b0b0; stroke-width: 0.8; stroke-linecap: square"/>
     </g>
     <g id="line2d_4">
      <g>
       <use xlink:href="#mb534e5c1d1" x="210.477273" y="448.56" style="stroke: #000000; stroke-width: 0.8"/>
      </g>
     </g>
     <g id="text_2">
      <!-- $\mathdefault{10^{-13}}$ -->
      <g transform="translate(196.527273 463.158437) scale(0.1 -0.1)">
       <defs>
        <path id="DejaVuSans-33" d="M 2597 2516 
Q 3050 2419 3304 2112 
Q 3559 1806 3559 1356 
Q 3559 666 3084 287 
Q 2609 -91 1734 -91 
Q 1441 -91 1130 -33 
Q 819 25 488 141 
L 488 750 
Q 750 597 1062 519 
Q 1375 441 1716 441 
Q 2309 441 2620 675 
Q 2931 909 2931 1356 
Q 2931 1769 2642 2001 
Q 2353 2234 1838 2234 
L 1294 2234 
L 1294 2753 
L 1863 2753 
Q 2328 2753 2575 2939 
Q 2822 3125 2822 3475 
Q 2822 3834 2567 4026 
Q 2313 4219 1838 4219 
Q 1578 4219 1281 4162 
Q 984 4106 628 3988 
L 628 4550 
Q 988 4650 1302 4700 
Q 1616 4750 1894 4750 
Q 2613 4750 3031 4423 
Q 3450 4097 3450 3541 
Q 3450 3153 3228 2886 
Q 3006 2619 2597 2516 
z
" transform="scale(0.015625)"/>
       </defs>
       <use xlink:href="#DejaVuSans-31" transform="translate(0 0.765625)"/>
       <use xlink:href="#DejaVuSans-30" transform="translate(63.623047 0.765625)"/>
       <use xlink:href="#DejaVuSans-2212" transform="translate(128.203125 39.046875) scale(0.7)"/>
       <use xlink:href="#DejaVuSans-31" transform="translate(186.855469 39.046875) scale(0.7)"/>
       <use xlink:href="#DejaVuSans-33" transform="translate(231.391602 39.046875) scale(0.7)"/>
      </g>
     </g>
    </g>
    <g id="xtick_3">
     <g id="line2d_5">
      <path d="M 273.886364 448.56 
L 273.886364 60.48 
" clip-path="url(#p12cf56f723)" style="fill: none; stroke: #b0b0b0; stroke-width: 0.8; stroke-linecap: square"/>
     </g>
     <g id="line2d_6">
      <g>
       <use xlink:href="#mb534e5c1d1" x="273.886364" y="448.56" style="stroke: #000000; stroke-width: 0.8"/>
      </g>
     </g>
     <g id="text_3">
      <!-- $\mathdefault{10^{-11}}$ -->
      <g transform="translate(259.936364 463.158437) scale(0.1 -0.1)">
       <use xlink:href="#DejaVuSans-31" transform="translate(0 0.684375)"/>
       <use xlink:href="#DejaVuSans-30" transform="translate(63.623047 0.684375)"/>
       <use xlink:href="#DejaVuSans-2212" transform="translate(128.203125 38.965625) scale(0.7)"/>
       <use xlink:href="#DejaVuSans-31" transform="translate(186.855469 38.965625) scale(0.7)"/>
       <use xlink:href="#DejaVuSans-31" transform="translate(231.391602 38.965625) scale(0.7)"/>
      </g>
     </g>
    </g>
    <g id="xtick_4">
     <g id="line2d_7">
      <path d="M 337.295455 448.56 
L 337.295455 60.48 
" clip-path="url(#p12cf56f723)" style="fill: none; stroke: #b0b0b0; stroke-width: 0.8; stroke-linecap: square"/>
     </g>
     <g id="line2d_8">
      <g>
       <use xlink:href="#mb534e5c1d1" x="337.295455" y="448.56" style="stroke: #000000; stroke-width: 0.8"/>
      </g>
     </g>
     <g id="text_4">
      <!-- $\mathdefault{10^{-9}}$ -->
      <g transform="translate(325.545455 463.158437) scale(0.1 -0.1)">
       <defs>
        <path id="DejaVuSans-39" d="M 703 97 
L 703 672 
Q 941 559 1184 500 
Q 1428 441 1663 441 
Q 2288 441 2617 861 
Q 2947 1281 2994 2138 
Q 2813 1869 2534 1725 
Q 2256 1581 1919 1581 
Q 1219 1581 811 2004 
Q 403 2428 403 3163 
Q 403 3881 828 4315 
Q 1253 4750 1959 4750 
Q 2769 4750 3195 4129 
Q 3622 3509 3622 2328 
Q 3622 1225 3098 567 
Q 2575 -91 1691 -91 
Q 1453 -91 1209 -44 
Q 966 3 703 97 
z
M 1959 2075 
Q 2384 2075 2632 2365 
Q 2881 2656 2881 3163 
Q 2881 3666 2632 3958 
Q 2384 4250 1959 4250 
Q 1534 4250 1286 3958 
Q 1038 3666 1038 3163 
Q 1038 2656 1286 2365 
Q 1534 2075 1959 2075 
z
" transform="scale(0.015625)"/>
       </defs>
       <use xlink:href="#DejaVuSans-31" transform="translate(0 0.765625)"/>
       <use xlink:href="#DejaVuSans-30" transform="translate(63.623047 0.765625)"/>
       <use xlink:href="#DejaVuSans-2212" transform="translate(128.203125 39.046875) scale(0.7)"/>
       <use xlink:href="#DejaVuSans-39" transform="translate(186.855469 39.046875) scale(0.7)"/>
      </g>
     </g>
    </g>
    <g id="xtick_5">
     <g id="line2d_9">
      <path d="M 400.704545 448.56 
L 400.704545 60.48 
" clip-path="url(#p12cf56f723)" style="fill: none; stroke: #b0b0b0; stroke-width: 0.8; stroke-linecap: square"/>
     </g>
     <g id="line2d_10">
      <g>
       <use xlink:href="#mb534e5c1d1" x="400.704545" y="448.56" style="stroke: #000000; stroke-width: 0.8"/>
      </g>
     </g>
     <g id="text_5">
      <!-- $\mathdefault{10^{-7}}$ -->
      <g transform="translate(388.954545 463.158437) scale(0.1 -0.1)">
       <defs>
        <path id="DejaVuSans-37" d="M 525 4666 
L 3525 4666 
L 3525 4397 
L 1831 0 
L 1172 0 
L 2766 4134 
L 525 4134 
L 525 4666 
z
" transform="scale(0.015625)"/>
       </defs>
       <use xlink:href="#DejaVuSans-31" transform="translate(0 0.684375)"/>
       <use xlink:href="#DejaVuSans-30" transform="translate(63.623047 0.684375)"/>
       <use xlink:href="#DejaVuSans-2212" transform="translate(128.203125 38.965625) scale(0.7)"/>
       <use xlink:href="#DejaVuSans-37" transform="translate(186.855469 38.965625) scale(0.7)"/>
      </g>
     </g>
    </g>
    <g id="xtick_6">
     <g id="line2d_11">
      <path d="M 464.113636 448.56 
L 464.113636 60.48 
" clip-path="url(#p12cf56f723)" style="fill: none; stroke: #b0b0b0; stroke-width: 0.8; stroke-linecap: square"/>
     </g>
     <g id="line2d_12">
      <g>
       <use xlink:href="#mb534e5c1d1" x="464.113636" y="448.56" style="stroke: #000000; stroke-width: 0.8"/>
      </g>
     </g>
     <g id="text_6">
      <!-- $\mathdefault{10^{-5}}$ -->
      <g transform="translate(452.363636 463.158437) scale(0.1 -0.1)">
       <use xlink:href="#DejaVuSans-31" transform="translate(0 0.684375)"/>
       <use xlink:href="#DejaVuSans-30" transform="translate(63.623047 0.684375)"/>
       <use xlink:href="#DejaVuSans-2212" transform="translate(128.203125 38.965625) scale(0.7)"/>
       <use xlink:href="#DejaVuSans-35" transform="translate(186.855469 38.965625) scale(0.7)"/>
      </g>
     </g>
    </g>
    <g id="xtick_7">
     <g id="line2d_13">
      <path d="M 527.522727 448.56 
L 527.522727 60.48 
" clip-path="url(#p12cf56f723)" style="fill: none; stroke: #b0b0b0; stroke-width: 0.8; stroke-linecap: square"/>
     </g>
     <g id="line2d_14">
      <g>
       <use xlink:href="#mb534e5c1d1" x="527.522727" y="448.56" style="stroke: #000000; stroke-width: 0.8"/>
      </g>
     </g>
     <g id="text_7">
      <!-- $\mathdefault{10^{-3}}$ -->
      <g transform="translate(515.772727 463.158437) scale(0.1 -0.1)">
       <use xlink:href="#DejaVuSans-31" transform="translate(0 0.765625)"/>
       <use xlink:href="#DejaVuSans-30" transform="translate(63.623047 0.765625)"/>
       <use xlink:href="#DejaVuSans-2212" transform="translate(128.203125 39.046875) scale(0.7)"/>
       <use xlink:href="#DejaVuSans-33" transform="translate(186.855469 39.046875) scale(0.7)"/>
      </g>
     </g>
    </g>
    <g id="xtick_8">
     <g id="line2d_15">
      <path d="M 590.931818 448.56 
L 590.931818 60.48 
" clip-path="url(#p12cf56f723)" style="fill: none; stroke: #b0b0b0; stroke-width: 0.8; stroke-linecap: square"/>
     </g>
     <g id="line2d_16">
      <g>
       <use xlink:href="#mb534e5c1d1" x="590.931818" y="448.56" style="stroke: #000000; stroke-width: 0.8"/>
      </g>
     </g>
     <g id="text_8">
      <!-- $\mathdefault{10^{-1}}$ -->
      <g transform="translate(579.181818 463.158437) scale(0.1 -0.1)">
       <use xlink:href="#DejaVuSans-31" transform="translate(0 0.684375)"/>
       <use xlink:href="#DejaVuSans-30" transform="translate(63.623047 0.684375)"/>
       <use xlink:href="#DejaVuSans-2212" transform="translate(128.203125 38.965625) scale(0.7)"/>
       <use xlink:href="#DejaVuSans-31" transform="translate(186.855469 38.965625) scale(0.7)"/>
      </g>
     </g>
    </g>
    <g id="text_9">
     <!-- wartość h -->
     <g transform="translate(344.660156 476.836563) scale(0.1 -0.1)">
      <defs>
       <path id="DejaVuSans-77" d="M 269 3500 
L 844 3500 
L 1563 769 
L 2278 3500 
L 2956 3500 
L 3675 769 
L 4391 3500 
L 4966 3500 
L 4050 0 
L 3372 0 
L 2619 2869 
L 1863 0 
L 1184 0 
L 269 3500 
z
" transform="scale(0.015625)"/>
       <path id="DejaVuSans-61" d="M 2194 1759 
Q 1497 1759 1228 1600 
Q 959 1441 959 1056 
Q 959 750 1161 570 
Q 1363 391 1709 391 
Q 2188 391 2477 730 
Q 2766 1069 2766 1631 
L 2766 1759 
L 2194 1759 
z
M 3341 1997 
L 3341 0 
L 2766 0 
L 2766 531 
Q 2569 213 2275 61 
Q 1981 -91 1556 -91 
Q 1019 -91 701 211 
Q 384 513 384 1019 
Q 384 1609 779 1909 
Q 1175 2209 1959 2209 
L 2766 2209 
L 2766 2266 
Q 2766 2663 2505 2880 
Q 2244 3097 1772 3097 
Q 1472 3097 1187 3025 
Q 903 2953 641 2809 
L 641 3341 
Q 956 3463 1253 3523 
Q 1550 3584 1831 3584 
Q 2591 3584 2966 3190 
Q 3341 2797 3341 1997 
z
" transform="scale(0.015625)"/>
       <path id="DejaVuSans-72" d="M 2631 2963 
Q 2534 3019 2420 3045 
Q 2306 3072 2169 3072 
Q 1681 3072 1420 2755 
Q 1159 2438 1159 1844 
L 1159 0 
L 581 0 
L 581 3500 
L 1159 3500 
L 1159 2956 
Q 1341 3275 1631 3429 
Q 1922 3584 2338 3584 
Q 2397 3584 2469 3576 
Q 2541 3569 2628 3553 
L 2631 2963 
z
" transform="scale(0.015625)"/>
       <path id="DejaVuSans-74" d="M 1172 4494 
L 1172 3500 
L 2356 3500 
L 2356 3053 
L 1172 3053 
L 1172 1153 
Q 1172 725 1289 603 
Q 1406 481 1766 481 
L 2356 481 
L 2356 0 
L 1766 0 
Q 1100 0 847 248 
Q 594 497 594 1153 
L 594 3053 
L 172 3053 
L 172 3500 
L 594 3500 
L 594 4494 
L 1172 4494 
z
" transform="scale(0.015625)"/>
       <path id="DejaVuSans-6f" d="M 1959 3097 
Q 1497 3097 1228 2736 
Q 959 2375 959 1747 
Q 959 1119 1226 758 
Q 1494 397 1959 397 
Q 2419 397 2687 759 
Q 2956 1122 2956 1747 
Q 2956 2369 2687 2733 
Q 2419 3097 1959 3097 
z
M 1959 3584 
Q 2709 3584 3137 3096 
Q 3566 2609 3566 1747 
Q 3566 888 3137 398 
Q 2709 -91 1959 -91 
Q 1206 -91 779 398 
Q 353 888 353 1747 
Q 353 2609 779 3096 
Q 1206 3584 1959 3584 
z
" transform="scale(0.015625)"/>
       <path id="DejaVuSans-15b" d="M 2242 5119 
L 2864 5119 
L 1846 3944 
L 1367 3944 
L 2242 5119 
z
M 2834 3397 
L 2834 2853 
Q 2591 2978 2328 3040 
Q 2066 3103 1784 3103 
Q 1356 3103 1142 2972 
Q 928 2841 928 2578 
Q 928 2378 1081 2264 
Q 1234 2150 1697 2047 
L 1894 2003 
Q 2506 1872 2764 1633 
Q 3022 1394 3022 966 
Q 3022 478 2636 193 
Q 2250 -91 1575 -91 
Q 1294 -91 989 -36 
Q 684 19 347 128 
L 347 722 
Q 666 556 975 473 
Q 1284 391 1588 391 
Q 1994 391 2212 530 
Q 2431 669 2431 922 
Q 2431 1156 2273 1281 
Q 2116 1406 1581 1522 
L 1381 1569 
Q 847 1681 609 1914 
Q 372 2147 372 2553 
Q 372 3047 722 3315 
Q 1072 3584 1716 3584 
Q 2034 3584 2315 3537 
Q 2597 3491 2834 3397 
z
" transform="scale(0.015625)"/>
       <path id="DejaVuSans-107" d="M 3122 3366 
L 3122 2828 
Q 2878 2963 2633 3030 
Q 2388 3097 2138 3097 
Q 1578 3097 1268 2742 
Q 959 2388 959 1747 
Q 959 1106 1268 751 
Q 1578 397 2138 397 
Q 2388 397 2633 464 
Q 2878 531 3122 666 
L 3122 134 
Q 2881 22 2623 -34 
Q 2366 -91 2075 -91 
Q 1284 -91 818 406 
Q 353 903 353 1747 
Q 353 2603 823 3093 
Q 1294 3584 2113 3584 
Q 2378 3584 2631 3529 
Q 2884 3475 3122 3366 
z
M 2466 5119 
L 3088 5119 
L 2070 3944 
L 1591 3944 
L 2466 5119 
z
" transform="scale(0.015625)"/>
       <path id="DejaVuSans-20" transform="scale(0.015625)"/>
       <path id="DejaVuSans-68" d="M 3513 2113 
L 3513 0 
L 2938 0 
L 2938 2094 
Q 2938 2591 2744 2837 
Q 2550 3084 2163 3084 
Q 1697 3084 1428 2787 
Q 1159 2491 1159 1978 
L 1159 0 
L 581 0 
L 581 4863 
L 1159 4863 
L 1159 2956 
Q 1366 3272 1645 3428 
Q 1925 3584 2291 3584 
Q 2894 3584 3203 3211 
Q 3513 2838 3513 2113 
z
" transform="scale(0.015625)"/>
      </defs>
      <use xlink:href="#DejaVuSans-77"/>
      <use xlink:href="#DejaVuSans-61" x="81.787109"/>
      <use xlink:href="#DejaVuSans-72" x="143.066406"/>
      <use xlink:href="#DejaVuSans-74" x="184.179688"/>
      <use xlink:href="#DejaVuSans-6f" x="223.388672"/>
      <use xlink:href="#DejaVuSans-15b" x="284.570312"/>
      <use xlink:href="#DejaVuSans-107" x="336.669922"/>
      <use xlink:href="#DejaVuSans-20" x="391.650391"/>
      <use xlink:href="#DejaVuSans-68" x="423.4375"/>
     </g>
    </g>
   </g>
   <g id="matplotlib.axis_2">
    <g id="ytick_1">
     <g id="line2d_17">
      <path d="M 90 405.97777 
L 648 405.97777 
" clip-path="url(#p12cf56f723)" style="fill: none; stroke: #b0b0b0; stroke-width: 0.8; stroke-linecap: square"/>
     </g>
     <g id="line2d_18">
      <defs>
       <path id="md81a2c868d" d="M 0 0 
L -3.5 0 
" style="stroke: #000000; stroke-width: 0.8"/>
      </defs>
      <g>
       <use xlink:href="#md81a2c868d" x="90" y="405.97777" style="stroke: #000000; stroke-width: 0.8"/>
      </g>
     </g>
     <g id="text_10">
      <!-- $\mathdefault{10^{-13}}$ -->
      <g transform="translate(55.1 409.776989) scale(0.1 -0.1)">
       <use xlink:href="#DejaVuSans-31" transform="translate(0 0.765625)"/>
       <use xlink:href="#DejaVuSans-30" transform="translate(63.623047 0.765625)"/>
       <use xlink:href="#DejaVuSans-2212" transform="translate(128.203125 39.046875) scale(0.7)"/>
       <use xlink:href="#DejaVuSans-31" transform="translate(186.855469 39.046875) scale(0.7)"/>
       <use xlink:href="#DejaVuSans-33" transform="translate(231.391602 39.046875) scale(0.7)"/>
      </g>
     </g>
    </g>
    <g id="ytick_2">
     <g id="line2d_19">
      <path d="M 90 354.673123 
L 648 354.673123 
" clip-path="url(#p12cf56f723)" style="fill: none; stroke: #b0b0b0; stroke-width: 0.8; stroke-linecap: square"/>
     </g>
     <g id="line2d_20">
      <g>
       <use xlink:href="#md81a2c868d" x="90" y="354.673123" style="stroke: #000000; stroke-width: 0.8"/>
      </g>
     </g>
     <g id="text_11">
      <!-- $\mathdefault{10^{-11}}$ -->
      <g transform="translate(55.1 358.472342) scale(0.1 -0.1)">
       <use xlink:href="#DejaVuSans-31" transform="translate(0 0.684375)"/>
       <use xlink:href="#DejaVuSans-30" transform="translate(63.623047 0.684375)"/>
       <use xlink:href="#DejaVuSans-2212" transform="translate(128.203125 38.965625) scale(0.7)"/>
       <use xlink:href="#DejaVuSans-31" transform="translate(186.855469 38.965625) scale(0.7)"/>
       <use xlink:href="#DejaVuSans-31" transform="translate(231.391602 38.965625) scale(0.7)"/>
      </g>
     </g>
    </g>
    <g id="ytick_3">
     <g id="line2d_21">
      <path d="M 90 303.368476 
L 648 303.368476 
" clip-path="url(#p12cf56f723)" style="fill: none; stroke: #b0b0b0; stroke-width: 0.8; stroke-linecap: square"/>
     </g>
     <g id="line2d_22">
      <g>
       <use xlink:href="#md81a2c868d" x="90" y="303.368476" style="stroke: #000000; stroke-width: 0.8"/>
      </g>
     </g>
     <g id="text_12">
      <!-- $\mathdefault{10^{-9}}$ -->
      <g transform="translate(59.5 307.167694) scale(0.1 -0.1)">
       <use xlink:href="#DejaVuSans-31" transform="translate(0 0.765625)"/>
       <use xlink:href="#DejaVuSans-30" transform="translate(63.623047 0.765625)"/>
       <use xlink:href="#DejaVuSans-2212" transform="translate(128.203125 39.046875) scale(0.7)"/>
       <use xlink:href="#DejaVuSans-39" transform="translate(186.855469 39.046875) scale(0.7)"/>
      </g>
     </g>
    </g>
    <g id="ytick_4">
     <g id="line2d_23">
      <path d="M 90 252.063828 
L 648 252.063828 
" clip-path="url(#p12cf56f723)" style="fill: none; stroke: #b0b0b0; stroke-width: 0.8; stroke-linecap: square"/>
     </g>
     <g id="line2d_24">
      <g>
       <use xlink:href="#md81a2c868d" x="90" y="252.063828" style="stroke: #000000; stroke-width: 0.8"/>
      </g>
     </g>
     <g id="text_13">
      <!-- $\mathdefault{10^{-7}}$ -->
      <g transform="translate(59.5 255.863047) scale(0.1 -0.1)">
       <use xlink:href="#DejaVuSans-31" transform="translate(0 0.684375)"/>
       <use xlink:href="#DejaVuSans-30" transform="translate(63.623047 0.684375)"/>
       <use xlink:href="#DejaVuSans-2212" transform="translate(128.203125 38.965625) scale(0.7)"/>
       <use xlink:href="#DejaVuSans-37" transform="translate(186.855469 38.965625) scale(0.7)"/>
      </g>
     </g>
    </g>
    <g id="ytick_5">
     <g id="line2d_25">
      <path d="M 90 200.759181 
L 648 200.759181 
" clip-path="url(#p12cf56f723)" style="fill: none; stroke: #b0b0b0; stroke-width: 0.8; stroke-linecap: square"/>
     </g>
     <g id="line2d_26">
      <g>
       <use xlink:href="#md81a2c868d" x="90" y="200.759181" style="stroke: #000000; stroke-width: 0.8"/>
      </g>
     </g>
     <g id="text_14">
      <!-- $\mathdefault{10^{-5}}$ -->
      <g transform="translate(59.5 204.5584) scale(0.1 -0.1)">
       <use xlink:href="#DejaVuSans-31" transform="translate(0 0.684375)"/>
       <use xlink:href="#DejaVuSans-30" transform="translate(63.623047 0.684375)"/>
       <use xlink:href="#DejaVuSans-2212" transform="translate(128.203125 38.965625) scale(0.7)"/>
       <use xlink:href="#DejaVuSans-35" transform="translate(186.855469 38.965625) scale(0.7)"/>
      </g>
     </g>
    </g>
    <g id="ytick_6">
     <g id="line2d_27">
      <path d="M 90 149.454534 
L 648 149.454534 
" clip-path="url(#p12cf56f723)" style="fill: none; stroke: #b0b0b0; stroke-width: 0.8; stroke-linecap: square"/>
     </g>
     <g id="line2d_28">
      <g>
       <use xlink:href="#md81a2c868d" x="90" y="149.454534" style="stroke: #000000; stroke-width: 0.8"/>
      </g>
     </g>
     <g id="text_15">
      <!-- $\mathdefault{10^{-3}}$ -->
      <g transform="translate(59.5 153.253753) scale(0.1 -0.1)">
       <use xlink:href="#DejaVuSans-31" transform="translate(0 0.765625)"/>
       <use xlink:href="#DejaVuSans-30" transform="translate(63.623047 0.765625)"/>
       <use xlink:href="#DejaVuSans-2212" transform="translate(128.203125 39.046875) scale(0.7)"/>
       <use xlink:href="#DejaVuSans-33" transform="translate(186.855469 39.046875) scale(0.7)"/>
      </g>
     </g>
    </g>
    <g id="ytick_7">
     <g id="line2d_29">
      <path d="M 90 98.149887 
L 648 98.149887 
" clip-path="url(#p12cf56f723)" style="fill: none; stroke: #b0b0b0; stroke-width: 0.8; stroke-linecap: square"/>
     </g>
     <g id="line2d_30">
      <g>
       <use xlink:href="#md81a2c868d" x="90" y="98.149887" style="stroke: #000000; stroke-width: 0.8"/>
      </g>
     </g>
     <g id="text_16">
      <!-- $\mathdefault{10^{-1}}$ -->
      <g transform="translate(59.5 101.949105) scale(0.1 -0.1)">
       <use xlink:href="#DejaVuSans-31" transform="translate(0 0.684375)"/>
       <use xlink:href="#DejaVuSans-30" transform="translate(63.623047 0.684375)"/>
       <use xlink:href="#DejaVuSans-2212" transform="translate(128.203125 38.965625) scale(0.7)"/>
       <use xlink:href="#DejaVuSans-31" transform="translate(186.855469 38.965625) scale(0.7)"/>
      </g>
     </g>
    </g>
    <g id="text_17">
     <!-- |Dhf(x) - f'(x)| -->
     <g transform="translate(48.742187 288.505938) rotate(-90) scale(0.1 -0.1)">
      <defs>
       <path id="DejaVuSans-7c" d="M 1344 4891 
L 1344 -1509 
L 813 -1509 
L 813 4891 
L 1344 4891 
z
" transform="scale(0.015625)"/>
       <path id="DejaVuSans-44" d="M 1259 4147 
L 1259 519 
L 2022 519 
Q 2988 519 3436 956 
Q 3884 1394 3884 2338 
Q 3884 3275 3436 3711 
Q 2988 4147 2022 4147 
L 1259 4147 
z
M 628 4666 
L 1925 4666 
Q 3281 4666 3915 4102 
Q 4550 3538 4550 2338 
Q 4550 1131 3912 565 
Q 3275 0 1925 0 
L 628 0 
L 628 4666 
z
" transform="scale(0.015625)"/>
       <path id="DejaVuSans-66" d="M 2375 4863 
L 2375 4384 
L 1825 4384 
Q 1516 4384 1395 4259 
Q 1275 4134 1275 3809 
L 1275 3500 
L 2222 3500 
L 2222 3053 
L 1275 3053 
L 1275 0 
L 697 0 
L 697 3053 
L 147 3053 
L 147 3500 
L 697 3500 
L 697 3744 
Q 697 4328 969 4595 
Q 1241 4863 1831 4863 
L 2375 4863 
z
" transform="scale(0.015625)"/>
       <path id="DejaVuSans-28" d="M 1984 4856 
Q 1566 4138 1362 3434 
Q 1159 2731 1159 2009 
Q 1159 1288 1364 580 
Q 1569 -128 1984 -844 
L 1484 -844 
Q 1016 -109 783 600 
Q 550 1309 550 2009 
Q 550 2706 781 3412 
Q 1013 4119 1484 4856 
L 1984 4856 
z
" transform="scale(0.015625)"/>
       <path id="DejaVuSans-78" d="M 3513 3500 
L 2247 1797 
L 3578 0 
L 2900 0 
L 1881 1375 
L 863 0 
L 184 0 
L 1544 1831 
L 300 3500 
L 978 3500 
L 1906 2253 
L 2834 3500 
L 3513 3500 
z
" transform="scale(0.015625)"/>
       <path id="DejaVuSans-29" d="M 513 4856 
L 1013 4856 
Q 1481 4119 1714 3412 
Q 1947 2706 1947 2009 
Q 1947 1309 1714 600 
Q 1481 -109 1013 -844 
L 513 -844 
Q 928 -128 1133 580 
Q 1338 1288 1338 2009 
Q 1338 2731 1133 3434 
Q 928 4138 513 4856 
z
" transform="scale(0.015625)"/>
       <path id="DejaVuSans-2d" d="M 313 2009 
L 1997 2009 
L 1997 1497 
L 313 1497 
L 313 2009 
z
" transform="scale(0.015625)"/>
       <path id="DejaVuSans-27" d="M 1147 4666 
L 1147 2931 
L 616 2931 
L 616 4666 
L 1147 4666 
z
" transform="scale(0.015625)"/>
      </defs>
      <use xlink:href="#DejaVuSans-7c"/>
      <use xlink:href="#DejaVuSans-44" x="33.691406"/>
      <use xlink:href="#DejaVuSans-68" x="110.693359"/>
      <use xlink:href="#DejaVuSans-66" x="174.072266"/>
      <use xlink:href="#DejaVuSans-28" x="209.277344"/>
      <use xlink:href="#DejaVuSans-78" x="248.291016"/>
      <use xlink:href="#DejaVuSans-29" x="307.470703"/>
      <use xlink:href="#DejaVuSans-20" x="346.484375"/>
      <use xlink:href="#DejaVuSans-2d" x="378.271484"/>
      <use xlink:href="#DejaVuSans-20" x="414.355469"/>
      <use xlink:href="#DejaVuSans-66" x="446.142578"/>
      <use xlink:href="#DejaVuSans-27" x="481.347656"/>
      <use xlink:href="#DejaVuSans-28" x="508.837891"/>
      <use xlink:href="#DejaVuSans-78" x="547.851562"/>
      <use xlink:href="#DejaVuSans-29" x="607.03125"/>
      <use xlink:href="#DejaVuSans-7c" x="646.044922"/>
     </g>
    </g>
   </g>
   <g id="line2d_31">
    <path d="M 115.363636 82.714564 
L 364.342237 82.714564 
L 365.189103 83.108448 
L 366.882835 86.102347 
L 368.576567 89.648559 
L 369.423433 91.735222 
L 370.270299 94.133844 
L 371.117165 96.98657 
L 371.964031 100.560424 
L 372.810897 105.457056 
L 373.657763 113.611911 
L 374.504629 160.521408 
L 375.351495 113.961161 
L 376.198361 106.659347 
L 377.045227 102.503781 
L 377.892093 99.643009 
L 378.738959 97.492174 
L 379.585825 95.789843 
L 380.432691 96.160362 
L 381.279557 99.500955 
L 382.126423 103.942716 
L 382.973289 110.821094 
L 383.820155 128.92947 
L 384.667021 117.311827 
L 385.513887 108.17017 
L 386.360753 103.45848 
L 387.207619 101.135488 
L 388.054485 106.306598 
L 388.901351 115.338256 
L 389.748217 134.760163 
L 390.595083 112.589951 
L 391.441949 105.968757 
L 392.288815 108.557454 
L 393.135681 120.789755 
L 393.982547 122.227394 
L 394.829413 109.950237 
L 395.676279 111.802248 
L 396.523145 134.671789 
L 397.370011 115.915895 
L 398.216877 112.164627 
L 399.063743 137.647888 
L 399.910609 115.468866 
L 400.757475 118.834314 
L 401.604341 124.787081 
L 402.451207 116.073339 
L 403.298073 131.472848 
L 404.144939 117.363124 
L 404.991805 127.648485 
L 405.838671 123.236998 
L 406.685537 120.094638 
L 407.532402 153.654872 
L 408.379268 124.231514 
L 409.226134 119.439488 
L 410.073 126.871401 
L 410.919866 138.727911 
L 411.766732 160.673429 
L 412.613598 144.352927 
L 413.460464 147.168438 
L 414.30733 156.93644 
L 415.154196 135.597938 
L 416.001062 127.016082 
L 416.847928 129.510481 
L 417.694794 151.024228 
L 418.54166 126.354803 
L 419.388526 149.115182 
L 420.235392 133.940448 
L 421.082258 128.604032 
L 421.929124 132.812902 
L 422.77599 133.865681 
L 423.622856 131.293027 
L 424.469722 136.631496 
L 425.316588 150.248225 
L 426.163454 135.80441 
L 427.01032 137.178879 
L 427.857186 142.878245 
L 428.704052 140.903318 
L 429.550918 135.654476 
L 430.397784 177.439906 
L 431.24465 140.875365 
L 432.091516 138.946125 
L 433.785248 150.932537 
L 434.632114 153.851659 
L 435.47898 154.787692 
L 436.325846 151.228204 
L 437.172712 154.427118 
L 438.019578 156.412237 
L 438.866444 149.669106 
L 439.71331 165.512412 
L 440.560176 149.457046 
L 441.407042 208.196675 
L 442.253908 156.559734 
L 443.100774 162.178882 
L 443.94764 161.002152 
L 444.794506 182.563189 
L 445.641372 149.319247 
L 447.335104 151.612894 
L 448.18197 201.512741 
L 449.028836 153.815253 
L 449.875702 154.286159 
L 451.569434 165.926104 
L 452.4163 182.717132 
L 453.263166 166.372625 
L 454.110032 155.437847 
L 454.956898 172.242005 
L 455.803764 210.806133 
L 456.65063 163.194416 
L 457.497496 185.190265 
L 458.344362 161.636532 
L 459.191228 162.379779 
L 460.038094 173.662003 
L 460.88496 170.822156 
L 461.731826 161.567193 
L 462.578692 168.041117 
L 463.425558 166.003961 
L 464.272424 176.903112 
L 465.11929 183.882881 
L 465.966156 170.587076 
L 466.813022 167.329447 
L 467.659888 176.116902 
L 468.506754 173.321603 
L 469.35362 179.693235 
L 470.200486 183.940746 
L 471.047352 172.541643 
L 471.894218 178.50953 
L 472.741084 174.990308 
L 473.58795 175.128198 
L 474.434816 200.399807 
L 475.281682 188.606761 
L 476.128548 190.774379 
L 476.975414 181.836014 
L 477.82228 192.869536 
L 478.669146 180.837833 
L 479.516012 185.173955 
L 480.362878 198.857563 
L 481.209744 179.279717 
L 482.05661 198.220184 
L 482.903475 180.309093 
L 483.750341 189.628486 
L 484.597207 176.734671 
L 485.444073 188.478949 
L 486.290939 174.532295 
L 487.137805 175.98848 
L 487.984671 189.769309 
L 488.831537 188.086047 
L 489.678403 174.883526 
L 490.525269 181.750814 
L 491.372135 178.64382 
L 492.219001 180.926733 
L 493.065867 177.485728 
L 493.912733 173.569868 
L 494.759599 178.441492 
L 495.606465 179.311376 
L 496.453331 172.955111 
L 497.300197 171.576832 
L 498.147063 171.486667 
L 498.993929 171.593002 
L 500.687661 171.369996 
L 501.534527 171.651266 
L 503.228259 168.78928 
L 504.075125 168.504227 
L 504.921991 168.623324 
L 505.768857 167.230079 
L 506.615723 166.44511 
L 507.462589 165.235876 
L 508.309455 165.391908 
L 509.156321 164.312786 
L 510.003187 164.097334 
L 511.696919 161.985374 
L 512.543785 161.805205 
L 513.390651 160.766352 
L 514.237517 160.261003 
L 515.931249 158.932941 
L 516.778115 158.063794 
L 517.624981 157.620805 
L 518.471847 156.812737 
L 521.859311 154.137685 
L 523.553043 152.756016 
L 530.327971 147.213442 
L 557.427683 125.305501 
L 602.31158 89.14623 
L 609.086508 83.93195 
L 612.473972 81.521403 
L 615.01457 79.920716 
L 616.708302 79.032902 
L 618.402034 78.3835 
L 619.2489 78.190552 
L 620.095766 78.12 
L 620.942632 78.210296 
L 621.789498 78.516583 
L 622.636364 79.121685 
L 622.636364 79.121685 
" clip-path="url(#p12cf56f723)" style="fill: none; stroke: #1f77b4; stroke-width: 1.5; stroke-linecap: square"/>
   </g>
   <g id="line2d_32">
    <path d="M 115.363636 118.120018 
L 116.210502 126.038447 
L 117.057368 111.007066 
L 117.904234 105.119225 
L 118.7511 110.049356 
L 119.597966 125.646655 
L 120.444832 118.654954 
L 121.291698 128.867608 
L 122.138564 117.332397 
L 122.98543 108.178686 
L 123.832296 120.913868 
L 124.679162 122.096134 
L 125.526028 144.00889 
L 126.372894 113.428409 
L 127.21976 122.7806 
L 128.066626 120.430029 
L 128.913492 119.061626 
L 129.760358 124.431783 
L 131.45409 123.711645 
L 132.300956 119.76983 
L 133.147822 117.084382 
L 133.994688 131.169059 
L 134.841554 131.457178 
L 135.68842 136.308681 
L 136.535286 137.514395 
L 137.382152 127.659336 
L 138.229018 133.673811 
L 139.075884 137.513276 
L 139.92275 119.337923 
L 140.769616 131.5487 
L 141.616482 126.408981 
L 142.463348 140.674519 
L 143.310214 126.74751 
L 144.15708 130.785538 
L 145.003946 132.256189 
L 145.850812 130.455687 
L 146.697678 157.086854 
L 147.544544 133.448989 
L 148.39141 134.824196 
L 149.238276 138.965653 
L 150.085142 144.112187 
L 150.932008 146.04321 
L 151.778874 157.711057 
L 152.62574 148.217458 
L 153.472606 136.841585 
L 154.319472 140.820516 
L 155.166338 148.469715 
L 156.013204 148.67978 
L 156.86007 132.937579 
L 157.706936 139.94126 
L 158.553802 142.042399 
L 159.400668 137.202707 
L 160.247534 192.034942 
L 161.0944 147.493954 
L 161.941266 144.81731 
L 162.788132 150.662009 
L 163.634998 162.346718 
L 164.481864 186.021165 
L 165.32873 178.858685 
L 166.175596 146.926836 
L 167.022462 140.589518 
L 167.869328 145.572257 
L 168.716194 152.608735 
L 169.56306 146.98917 
L 170.409926 149.282458 
L 171.256792 160.979313 
L 172.103658 171.024675 
L 172.950524 159.494715 
L 173.79739 162.091855 
L 175.491122 172.323326 
L 176.337988 163.084704 
L 177.184854 167.181506 
L 178.03172 146.251099 
L 178.878586 149.510069 
L 179.725452 151.669708 
L 180.572317 164.57925 
L 181.419183 186.452391 
L 182.266049 153.049292 
L 183.112915 166.280225 
L 183.959781 165.125301 
L 184.806647 152.049085 
L 185.653513 169.218124 
L 186.500379 170.822435 
L 187.347245 172.995529 
L 188.194111 163.852287 
L 189.040977 159.670891 
L 189.887843 178.480144 
L 190.734709 184.403746 
L 191.581575 161.353356 
L 192.428441 165.900514 
L 193.275307 175.576129 
L 194.122173 164.35517 
L 194.969039 161.704792 
L 195.815905 167.035021 
L 196.662771 167.887991 
L 197.509637 216.859853 
L 198.356503 177.968553 
L 199.203369 211.468609 
L 200.050235 171.921802 
L 200.897101 178.014195 
L 201.743967 176.712692 
L 202.590833 182.047491 
L 203.437699 181.153037 
L 204.284565 179.128009 
L 205.131431 187.552925 
L 205.978297 183.320083 
L 206.825163 168.247965 
L 207.672029 190.055371 
L 208.518895 189.38261 
L 209.365761 175.413977 
L 210.212627 175.661482 
L 211.059493 173.238147 
L 211.906359 213.32604 
L 212.753225 178.111247 
L 213.600091 193.025871 
L 214.446957 198.783046 
L 215.293823 198.157673 
L 216.140689 188.219243 
L 216.987555 222.736636 
L 217.834421 201.151211 
L 218.681287 199.129542 
L 220.375019 180.79654 
L 221.221885 194.157473 
L 222.068751 189.405581 
L 222.915617 190.853274 
L 223.762483 195.739028 
L 224.609349 197.825986 
L 225.456215 188.517506 
L 226.303081 185.859626 
L 227.149947 192.956592 
L 227.996813 204.3454 
L 228.843679 200.330458 
L 229.690545 190.232102 
L 231.384277 219.310369 
L 232.231143 217.386324 
L 233.078009 208.195329 
L 233.924875 197.235024 
L 234.771741 200.401659 
L 235.618607 228.823167 
L 236.465473 205.965429 
L 237.312339 201.180102 
L 238.159205 197.141511 
L 239.006071 206.334709 
L 239.852937 203.356453 
L 240.699803 217.905381 
L 241.546669 208.453677 
L 242.393535 213.25082 
L 243.240401 205.901763 
L 244.087267 208.015347 
L 244.934133 239.547804 
L 245.780999 217.062274 
L 246.627865 209.777893 
L 247.474731 220.218025 
L 248.321597 252.741554 
L 249.168463 252.721347 
L 250.015329 237.284627 
L 250.862195 231.964419 
L 251.709061 224.25171 
L 252.555927 220.385468 
L 253.402793 223.857065 
L 254.249659 208.863615 
L 255.096525 221.943619 
L 256.790256 240.644146 
L 257.637122 221.44565 
L 258.483988 218.837103 
L 259.330854 222.840896 
L 260.17772 272.02234 
L 261.024586 250.247268 
L 261.871452 215.723236 
L 262.718318 242.853132 
L 263.565184 226.303692 
L 264.41205 218.191776 
L 265.258916 227.918502 
L 266.105782 229.07403 
L 266.952648 237.502325 
L 267.799514 229.240521 
L 268.64638 253.526673 
L 269.493246 237.135986 
L 270.340112 231.956491 
L 271.186978 231.501609 
L 272.033844 244.522486 
L 272.88071 272.349538 
L 273.727576 244.231798 
L 274.574442 248.630759 
L 275.421308 227.877466 
L 276.268174 235.700841 
L 277.11504 246.303471 
L 277.961906 234.510788 
L 278.808772 267.966096 
L 279.655638 251.134402 
L 281.34937 237.636099 
L 282.196236 237.952369 
L 283.043102 241.834895 
L 283.889968 233.084546 
L 284.736834 253.830213 
L 285.5837 238.81526 
L 286.430566 238.798236 
L 287.277432 242.172216 
L 288.124298 288.589022 
L 288.971164 242.499144 
L 289.81803 244.776083 
L 290.664896 242.952453 
L 291.511762 240.655866 
L 292.358628 240.525697 
L 293.205494 239.857122 
L 294.899226 256.386929 
L 295.746092 256.892674 
L 296.592958 288.020972 
L 297.439824 260.567127 
L 298.28669 250.795745 
L 299.133556 261.777491 
L 299.980422 253.661677 
L 300.827288 246.942133 
L 301.674154 245.868087 
L 302.52102 254.451618 
L 303.367886 253.664291 
L 304.214752 260.56771 
L 305.061618 254.951606 
L 305.908484 251.270351 
L 306.75535 268.753939 
L 307.602216 259.832121 
L 308.449082 260.915145 
L 309.295948 263.917744 
L 310.142814 256.659572 
L 310.98968 256.878925 
L 311.836546 281.38121 
L 312.683412 261.035572 
L 313.530278 273.981576 
L 314.377144 266.978351 
L 315.22401 264.570584 
L 316.917742 278.045548 
L 317.764608 298.493215 
L 318.611474 280.264598 
L 319.45834 264.850425 
L 320.305206 276.512696 
L 321.152072 265.930089 
L 321.998938 288.822758 
L 322.845804 270.497411 
L 323.69267 271.214953 
L 324.539536 277.861884 
L 325.386402 274.505528 
L 326.233268 267.391763 
L 327.080134 292.677535 
L 327.927 274.879027 
L 328.773866 273.209819 
L 329.620732 278.561288 
L 330.467598 296.654 
L 331.314463 279.076965 
L 332.161329 273.308264 
L 333.008195 272.343586 
L 333.855061 286.329679 
L 334.701927 324.239329 
L 335.548793 290.576818 
L 336.395659 316.553033 
L 337.242525 277.363931 
L 338.089391 286.572059 
L 338.936257 320.159489 
L 339.783123 289.22811 
L 340.629989 289.038279 
L 341.476855 292.579233 
L 342.323721 300.908806 
L 343.170587 292.564673 
L 344.017453 289.468399 
L 344.864319 288.187585 
L 345.711185 286.025753 
L 346.558051 290.940704 
L 347.404917 291.960043 
L 348.251783 305.65364 
L 349.098649 290.487402 
L 349.945515 312.406241 
L 350.792381 317.614797 
L 351.639247 301.146804 
L 352.486113 300.446052 
L 353.332979 291.399405 
L 354.179845 294.124963 
L 355.026711 300.447914 
L 355.873577 291.284345 
L 356.720443 288.903576 
L 357.567309 295.640902 
L 358.414175 290.396827 
L 359.261041 288.203878 
L 360.107907 285.434686 
L 360.954773 285.68792 
L 362.648505 285.509499 
L 363.495371 284.974656 
L 364.342237 283.69499 
L 365.189103 282.875251 
L 366.035969 281.179431 
L 366.882835 278.82991 
L 367.729701 278.898544 
L 368.576567 279.243804 
L 369.423433 277.443368 
L 370.270299 276.898838 
L 371.117165 276.163454 
L 371.964031 275.820145 
L 372.810897 274.623497 
L 374.504629 273.817456 
L 375.351495 273.02258 
L 376.198361 272.444388 
L 377.045227 271.406799 
L 377.892093 270.546104 
L 380.432691 268.60632 
L 381.279557 267.963489 
L 382.126423 267.173104 
L 384.667021 265.139146 
L 387.207619 263.091334 
L 388.901351 261.649589 
L 396.523145 255.502405 
L 454.110032 208.897798 
L 601.464714 89.814845 
L 609.086508 83.931951 
L 612.473972 81.521403 
L 615.01457 79.920715 
L 616.708302 79.032902 
L 618.402034 78.383499 
L 619.2489 78.190552 
L 620.095766 78.120001 
L 620.942632 78.210296 
L 621.789498 78.516583 
L 622.636364 79.121685 
L 622.636364 79.121685 
" clip-path="url(#p12cf56f723)" style="fill: none; stroke: #ff7f0e; stroke-width: 1.5; stroke-linecap: square"/>
   </g>
   <g id="line2d_33">
    <path d="M 115.363636 82.714564 
L 364.342237 82.714564 
L 365.189103 83.108449 
L 366.882835 86.102348 
L 368.576567 89.64856 
L 369.423433 91.735223 
L 370.270299 94.133846 
L 371.117165 96.986572 
L 371.964031 100.560427 
L 372.810897 105.45706 
L 373.657763 113.611919 
L 374.504629 160.52096 
L 375.351495 113.961154 
L 376.198361 106.659343 
L 377.045227 102.503779 
L 377.892093 99.643007 
L 378.738959 97.492173 
L 379.585825 95.789842 
L 380.432691 96.160365 
L 381.279557 99.50096 
L 382.126423 103.942722 
L 382.973289 110.821106 
L 383.820155 128.929524 
L 384.667021 117.311809 
L 385.513887 108.170163 
L 386.360753 103.458476 
L 387.207619 101.135496 
L 388.054485 106.306609 
L 388.901351 115.338281 
L 389.748217 134.760031 
L 390.595083 112.589934 
L 391.441949 105.968748 
L 392.288815 108.557472 
L 393.135681 120.789807 
L 393.982547 122.227338 
L 394.829413 109.950219 
L 395.676279 111.802278 
L 396.523145 134.67201 
L 397.370011 115.915857 
L 398.216877 112.164665 
L 399.063743 137.648235 
L 399.910609 115.468821 
L 400.757475 118.834391 
L 401.604341 124.786958 
L 402.451207 116.073408 
L 403.298073 131.472588 
L 404.144939 117.363211 
L 404.991805 127.648279 
L 405.838671 123.23716 
L 406.685537 120.094524 
L 407.532402 153.652225 
L 408.379268 124.231725 
L 409.226134 119.439359 
L 410.073 126.871123 
L 410.919866 138.727033 
L 411.766732 160.680227 
L 412.613598 144.354608 
L 413.460464 147.170734 
L 414.30733 156.930624 
L 415.154196 135.597041 
L 416.001062 127.015649 
L 416.847928 129.511097 
L 417.694794 151.01986 
L 418.54166 126.355333 
L 419.388526 149.111023 
L 420.235392 133.94161 
L 421.082258 128.603306 
L 421.929124 132.811764 
L 422.77599 133.864349 
L 423.622856 131.291907 
L 424.469722 136.6335 
L 425.316588 150.241141 
L 426.163454 135.806516 
L 427.01032 137.176425 
L 427.857186 142.873868 
L 428.704052 140.899426 
L 429.550918 135.657134 
L 430.397784 177.558802 
L 431.24465 140.880138 
L 432.091516 138.950402 
L 433.785248 150.918605 
L 434.632114 153.871092 
L 435.47898 154.810166 
L 436.325846 151.210999 
L 437.172712 154.451729 
L 438.019578 156.443507 
L 438.866444 149.651129 
L 439.71331 165.433076 
L 440.560176 149.437102 
L 441.407042 213.401795 
L 442.253908 156.517009 
L 443.100774 162.254845 
L 443.94764 160.930192 
L 444.794506 183.109193 
L 445.641372 149.29077 
L 447.335104 151.57331 
L 448.18197 206.059073 
L 449.028836 153.760699 
L 449.875702 154.347399 
L 451.569434 166.12378 
L 452.4163 183.698853 
L 453.263166 166.144845 
L 454.110032 155.530306 
L 454.956898 171.809563 
L 455.803764 201.324758 
L 456.65063 162.9754 
L 457.497496 183.61145 
L 458.344362 161.421183 
L 459.191228 162.135266 
L 460.038094 172.960092 
L 460.88496 171.436666 
L 461.731826 161.294202 
L 462.578692 167.527274 
L 463.425558 165.547739 
L 464.272424 178.307376 
L 465.11929 186.875927 
L 465.966156 171.467636 
L 466.813022 166.677963 
L 467.659888 174.64726 
L 468.506754 172.092257 
L 469.35362 182.461366 
L 470.200486 180.660601 
L 471.047352 171.172051 
L 471.894218 181.536535 
L 473.58795 173.111364 
L 474.434816 188.011351 
L 475.281682 182.354626 
L 476.128548 230.900907 
L 476.975414 188.779197 
L 477.82228 183.458706 
L 478.669146 176.475759 
L 479.516012 200.732391 
L 480.362878 184.184555 
L 481.209744 187.03441 
L 482.05661 190.961023 
L 482.903475 191.146277 
L 483.750341 179.304891 
L 484.597207 184.690279 
L 485.444073 194.998028 
L 486.290939 181.682797 
L 487.137805 185.495397 
L 487.984671 188.683922 
L 488.831537 188.988532 
L 489.678403 185.814918 
L 490.525269 198.071638 
L 491.372135 230.664752 
L 492.219001 194.605523 
L 493.065867 229.157946 
L 493.912733 189.26748 
L 494.759599 194.155771 
L 495.606465 188.706444 
L 496.453331 194.851113 
L 497.300197 189.966126 
L 498.147063 192.800234 
L 498.993929 199.069965 
L 500.687661 218.681005 
L 501.534527 196.637063 
L 502.381393 207.295504 
L 503.228259 207.014257 
L 504.075125 233.200277 
L 504.921991 197.040326 
L 505.768857 216.785148 
L 506.615723 232.377269 
L 507.462589 200.205703 
L 508.309455 203.873566 
L 509.156321 225.32967 
L 510.003187 200.341618 
L 510.850053 212.653632 
L 511.696919 201.762184 
L 512.543785 207.295934 
L 513.390651 207.653558 
L 514.237517 235.781347 
L 515.084383 218.299362 
L 515.931249 218.090245 
L 516.778115 207.832845 
L 517.624981 208.707173 
L 518.471847 235.513271 
L 519.318713 223.346125 
L 520.165579 217.076689 
L 521.012445 221.328685 
L 521.859311 213.072557 
L 522.706177 226.300751 
L 523.553043 214.192033 
L 524.399909 221.429968 
L 525.246775 213.443193 
L 526.093641 239.321518 
L 526.940507 217.461723 
L 528.634239 232.68245 
L 529.481105 232.674314 
L 530.327971 220.21712 
L 531.174837 223.703388 
L 532.021703 233.014415 
L 532.868569 236.479016 
L 533.715435 226.715146 
L 534.562301 221.173893 
L 535.409167 229.529233 
L 536.256033 227.780276 
L 537.102899 225.355787 
L 537.949765 232.918999 
L 538.796631 228.986339 
L 539.643497 231.09716 
L 540.490363 228.344755 
L 541.337229 231.960075 
L 542.184095 226.840904 
L 543.030961 238.297259 
L 543.877827 245.940087 
L 544.724693 249.204643 
L 545.571559 228.645002 
L 546.418425 263.052133 
L 547.265291 240.141595 
L 548.112157 228.036974 
L 548.959023 225.249437 
L 549.805889 227.139995 
L 550.652755 227.945658 
L 551.499621 224.745162 
L 552.346487 224.134605 
L 553.193353 226.473452 
L 554.040219 224.886847 
L 554.887085 221.188723 
L 555.733951 219.160198 
L 556.580817 220.046908 
L 557.427683 218.865526 
L 558.274548 216.647953 
L 560.815146 213.707476 
L 561.662012 211.446923 
L 564.20261 207.059627 
L 568.43694 200.513242 
L 570.130672 197.805236 
L 570.977538 196.525749 
L 572.67127 193.675973 
L 576.9056 186.76133 
L 582.833662 177.032083 
L 589.60859 165.661782 
L 594.689786 156.751498 
L 598.924116 148.869054 
L 602.31158 142.104487 
L 605.699044 134.803012 
L 609.086508 126.879016 
L 612.473972 118.317816 
L 616.708302 106.858495 
L 622.636364 90.286699 
L 622.636364 90.286699 
" clip-path="url(#p12cf56f723)" style="fill: none; stroke: #2ca02c; stroke-width: 1.5; stroke-linecap: square"/>
   </g>
   <g id="line2d_34">
    <path d="M 115.363636 105.575617 
L 116.210502 113.8449 
L 117.057368 151.185565 
L 117.904234 113.752752 
L 118.7511 110.049356 
L 119.597966 125.646655 
L 121.291698 111.977736 
L 122.138564 136.026263 
L 122.98543 115.695355 
L 123.832296 110.943227 
L 124.679162 129.525443 
L 125.526028 119.318509 
L 126.372894 124.051645 
L 127.21976 113.318554 
L 128.066626 164.637569 
L 128.913492 119.061626 
L 129.760358 124.431783 
L 130.607224 143.718879 
L 131.45409 115.60848 
L 132.300956 133.410316 
L 133.147822 125.3015 
L 133.994688 134.569133 
L 134.841554 131.457178 
L 135.68842 132.275039 
L 136.535286 123.390911 
L 137.382152 180.301136 
L 138.229018 139.381095 
L 139.075884 137.513276 
L 139.92275 124.853589 
L 140.769616 157.339494 
L 141.616482 138.148629 
L 142.463348 138.605278 
L 143.310214 136.783004 
L 144.15708 148.84179 
L 145.003946 154.228034 
L 145.850812 143.456754 
L 146.697678 157.086854 
L 147.544544 151.19678 
L 148.39141 134.824196 
L 149.238276 159.669812 
L 150.085142 144.112187 
L 150.932008 146.859676 
L 151.778874 141.801494 
L 152.62574 147.425364 
L 153.472606 150.343156 
L 154.319472 172.930382 
L 155.166338 148.469715 
L 156.013204 152.811504 
L 156.86007 138.386857 
L 157.706936 152.708591 
L 158.553802 158.63767 
L 159.400668 144.311507 
L 160.247534 146.443604 
L 161.0944 147.493954 
L 161.941266 161.530513 
L 162.788132 166.817477 
L 163.634998 162.346718 
L 164.481864 150.120509 
L 165.32873 149.538475 
L 166.175596 159.986205 
L 167.022462 145.693333 
L 167.869328 154.236291 
L 168.716194 145.134982 
L 169.56306 146.98917 
L 170.409926 160.271609 
L 171.256792 149.976047 
L 172.103658 153.311145 
L 172.950524 172.758375 
L 173.79739 168.788685 
L 174.644256 153.862363 
L 175.491122 155.742322 
L 176.337988 153.297406 
L 177.184854 168.212935 
L 178.03172 155.128874 
L 178.878586 162.630517 
L 179.725452 169.053155 
L 180.572317 161.099366 
L 181.419183 156.392983 
L 182.266049 158.227047 
L 183.112915 187.697651 
L 183.959781 165.125301 
L 184.806647 155.74827 
L 185.653513 185.083954 
L 186.500379 161.315937 
L 187.347245 162.610864 
L 188.194111 175.151792 
L 189.040977 165.582449 
L 189.887843 177.469466 
L 190.734709 174.872602 
L 191.581575 167.010954 
L 192.428441 175.127785 
L 193.275307 190.489977 
L 194.122173 170.686161 
L 194.969039 173.169618 
L 195.815905 174.483513 
L 196.662771 175.498489 
L 197.509637 216.859853 
L 198.356503 205.867747 
L 199.203369 177.24975 
L 200.050235 171.921802 
L 200.897101 170.844979 
L 201.743967 184.185939 
L 202.590833 203.405689 
L 203.437699 241.089202 
L 204.284565 196.018892 
L 205.131431 177.066033 
L 205.978297 175.567934 
L 206.825163 175.722601 
L 207.672029 195.250023 
L 208.518895 189.38261 
L 209.365761 180.859315 
L 210.212627 190.818081 
L 211.059493 176.916818 
L 211.906359 186.959363 
L 212.753225 183.529224 
L 213.600091 193.025871 
L 214.446957 185.902364 
L 215.293823 186.403455 
L 216.140689 203.490274 
L 216.987555 191.473302 
L 217.834421 200.027281 
L 218.681287 188.264574 
L 219.528153 204.061508 
L 220.375019 190.032086 
L 221.221885 217.689888 
L 222.068751 198.046448 
L 222.915617 200.459669 
L 223.762483 195.739028 
L 224.609349 197.825986 
L 225.456215 194.016535 
L 226.303081 195.449149 
L 227.149947 233.515967 
L 227.996813 216.326819 
L 228.843679 203.401778 
L 229.690545 194.762051 
L 230.537411 221.658534 
L 231.384277 201.34022 
L 232.231143 217.386324 
L 233.078009 208.195329 
L 233.924875 197.235024 
L 234.771741 209.947481 
L 235.618607 208.975968 
L 236.465473 210.310465 
L 237.312339 196.56559 
L 238.159205 209.548505 
L 239.006071 220.545766 
L 239.852937 211.504572 
L 240.699803 220.383292 
L 241.546669 208.453677 
L 242.393535 246.97938 
L 243.240401 213.842909 
L 244.087267 217.665649 
L 244.934133 216.05597 
L 245.780999 237.890329 
L 246.627865 209.777893 
L 247.474731 231.761911 
L 248.321597 217.058085 
L 249.168463 218.719995 
L 250.862195 224.01919 
L 251.709061 224.25171 
L 252.555927 220.385468 
L 253.402793 223.857065 
L 254.249659 212.820086 
L 255.096525 248.692855 
L 255.94339 231.711117 
L 256.790256 227.314575 
L 257.637122 221.44565 
L 258.483988 227.440297 
L 259.330854 222.840896 
L 260.17772 227.312734 
L 261.024586 229.392362 
L 261.871452 219.988718 
L 262.718318 226.307884 
L 263.565184 240.771911 
L 264.41205 222.65525 
L 265.258916 235.946138 
L 266.105782 245.706228 
L 266.952648 244.092076 
L 267.799514 229.240521 
L 268.64638 236.078115 
L 269.493246 237.135986 
L 270.340112 225.796301 
L 271.186978 243.736778 
L 272.033844 232.220226 
L 272.88071 236.918193 
L 273.727576 247.622249 
L 274.574442 248.630759 
L 275.421308 241.591033 
L 276.268174 229.975442 
L 277.11504 251.339608 
L 277.961906 243.014649 
L 278.808772 267.966096 
L 279.655638 250.080453 
L 280.502504 243.164248 
L 281.34937 246.597301 
L 282.196236 237.952369 
L 283.043102 255.716245 
L 283.889968 243.597538 
L 284.736834 253.830213 
L 285.5837 238.81526 
L 286.430566 244.945934 
L 287.277432 270.347654 
L 288.124298 288.589022 
L 288.971164 250.035579 
L 289.81803 267.15136 
L 290.664896 249.668581 
L 291.511762 253.807089 
L 292.358628 244.854775 
L 293.205494 243.596705 
L 294.05236 256.640371 
L 294.899226 280.799427 
L 295.746092 283.233591 
L 296.592958 255.933455 
L 297.439824 272.411575 
L 298.28669 259.119193 
L 299.133556 261.777491 
L 299.980422 263.92227 
L 300.827288 257.700382 
L 301.674154 254.251433 
L 302.52102 283.385403 
L 303.367886 260.752515 
L 304.214752 265.450635 
L 305.061618 261.966445 
L 305.908484 255.497098 
L 306.75535 258.879986 
L 307.602216 254.581525 
L 308.449082 271.811488 
L 309.295948 263.917744 
L 310.142814 261.923698 
L 310.98968 261.870822 
L 311.836546 273.313857 
L 312.683412 267.978241 
L 313.530278 284.358418 
L 314.377144 266.978351 
L 315.22401 272.973169 
L 316.070876 299.270006 
L 316.917742 284.312216 
L 317.764608 298.493215 
L 319.45834 270.528761 
L 320.305206 306.195401 
L 321.152072 282.701126 
L 321.998938 288.822758 
L 322.845804 278.635802 
L 323.69267 271.214953 
L 324.539536 280.695081 
L 325.386402 285.215735 
L 326.233268 277.978947 
L 327.080134 286.187402 
L 327.927 283.315924 
L 328.773866 295.098425 
L 329.620732 278.561288 
L 330.467598 280.885986 
L 331.314463 296.433944 
L 332.161329 277.922688 
L 333.855061 286.329679 
L 334.701927 287.009873 
L 335.548793 281.545551 
L 336.395659 289.742913 
L 337.242525 281.949953 
L 338.089391 286.572059 
L 338.936257 320.159489 
L 339.783123 307.960107 
L 340.629989 289.038279 
L 341.476855 332.51378 
L 342.323721 301.705561 
L 343.170587 292.564673 
L 344.017453 300.000648 
L 344.864319 296.192871 
L 345.711185 286.025753 
L 346.558051 290.940704 
L 347.404917 302.111092 
L 348.251783 305.65364 
L 349.098649 297.419754 
L 349.945515 296.643868 
L 350.792381 317.614797 
L 351.639247 366.467407 
L 352.486113 303.342458 
L 353.332979 306.379531 
L 354.179845 318.511637 
L 355.026711 298.330273 
L 355.873577 318.450668 
L 356.720443 317.637602 
L 357.567309 301.499632 
L 358.414175 310.268424 
L 359.261041 314.091555 
L 360.107907 314.475282 
L 360.954773 310.379933 
L 361.801639 315.073872 
L 362.648505 310.341046 
L 363.495371 303.400332 
L 364.342237 311.571782 
L 365.189103 309.626539 
L 366.035969 313.11541 
L 366.882835 303.865178 
L 367.729701 319.170121 
L 368.576567 309.367126 
L 369.423433 311.28879 
L 370.270299 316.026158 
L 371.964031 328.398031 
L 372.810897 316.434292 
L 373.657763 324.984762 
L 374.504629 319.638863 
L 375.351495 332.633289 
L 376.198361 313.464395 
L 377.045227 322.675133 
L 377.892093 316.815562 
L 378.738959 319.346162 
L 379.585825 354.189936 
L 380.432691 327.111826 
L 381.279557 340.4465 
L 382.126423 330.643716 
L 382.973289 347.966169 
L 383.820155 323.093137 
L 384.667021 326.887881 
L 385.513887 320.94165 
L 386.360753 331.676379 
L 387.207619 359.015947 
L 388.054485 322.047006 
L 388.901351 328.038087 
L 389.748217 330.307489 
L 390.595083 325.651815 
L 391.441949 337.921954 
L 392.288815 329.867234 
L 393.135681 325.600557 
L 393.982547 361.123924 
L 394.829413 349.198182 
L 395.676279 331.874304 
L 396.523145 346.17317 
L 397.370011 350.43501 
L 398.216877 359.677102 
L 399.063743 358.433885 
L 399.910609 338.28574 
L 400.757475 373.746549 
L 401.604341 334.287716 
L 402.451207 361.706638 
L 403.298073 358.489757 
L 404.144939 340.506402 
L 404.991805 345.984827 
L 405.838671 366.564448 
L 406.685537 353.218164 
L 407.532402 377.756179 
L 408.379268 341.739593 
L 409.226134 362.808118 
L 410.073 364.05739 
L 410.919866 349.2863 
L 411.766732 353.448746 
L 412.613598 385.164074 
L 413.460464 346.937591 
L 414.30733 361.25758 
L 415.154196 354.189344 
L 416.001062 360.437522 
L 417.694794 368.152795 
L 418.54166 355.907168 
L 419.388526 349.207341 
L 420.235392 358.703652 
L 421.082258 390.924929 
L 421.929124 365.730426 
L 422.77599 360.881499 
L 423.622856 377.51668 
L 424.469722 376.220103 
L 425.316588 364.181855 
L 426.163454 382.057886 
L 427.01032 374.840862 
L 427.857186 364.030428 
L 428.704052 366.253418 
L 429.550918 385.197542 
L 430.397784 389.299242 
L 431.24465 359.84711 
L 432.091516 364.110067 
L 432.938382 361.145241 
L 433.785248 373.159273 
L 434.632114 371.795602 
L 435.47898 364.007104 
L 436.325846 373.444706 
L 437.172712 400.482985 
L 438.019578 369.823435 
L 438.866444 362.830603 
L 439.71331 371.005523 
L 440.560176 384.9907 
L 441.407042 388.994822 
L 442.253908 379.193482 
L 443.100774 376.360017 
L 443.94764 430.92 
L 444.794506 368.439314 
L 445.641372 407.078245 
L 446.488238 378.7499 
L 447.335104 372.177077 
L 448.18197 393.585606 
L 449.028836 374.169044 
L 449.875702 403.924592 
L 450.722568 400.013407 
L 451.569434 416.056369 
L 452.4163 387.902807 
L 453.263166 410.420585 
L 454.110032 379.884919 
L 455.803764 382.431089 
L 456.65063 373.386832 
L 457.497496 391.404295 
L 458.344362 371.421751 
L 459.191228 373.905633 
L 460.038094 379.503351 
L 460.88496 381.862375 
L 461.731826 374.779419 
L 462.578692 371.12132 
L 463.425558 374.095267 
L 464.272424 368.442081 
L 465.11929 367.401256 
L 466.813022 364.218214 
L 467.659888 363.422234 
L 468.506754 361.680507 
L 471.047352 358.452883 
L 471.894218 356.493182 
L 472.741084 355.400769 
L 480.362878 343.127268 
L 485.444073 334.886182 
L 493.065867 322.554572 
L 549.805889 230.733433 
L 581.13993 179.831349 
L 589.60859 165.659515 
L 594.689786 156.752301 
L 598.924116 148.869385 
L 602.31158 142.104488 
L 605.699044 134.803084 
L 609.086508 126.878984 
L 612.473972 118.317796 
L 616.708302 106.8585 
L 622.636364 90.2867 
L 622.636364 90.2867 
" clip-path="url(#p12cf56f723)" style="fill: none; stroke: #d62728; stroke-width: 1.5; stroke-linecap: square"/>
   </g>
   <g id="patch_3">
    <path d="M 90 448.56 
L 90 60.48 
" style="fill: none; stroke: #000000; stroke-width: 0.8; stroke-linejoin: miter; stroke-linecap: square"/>
   </g>
   <g id="patch_4">
    <path d="M 648 448.56 
L 648 60.48 
" style="fill: none; stroke: #000000; stroke-width: 0.8; stroke-linejoin: miter; stroke-linecap: square"/>
   </g>
   <g id="patch_5">
    <path d="M 90 448.56 
L 648 448.56 
" style="fill: none; stroke: #000000; stroke-width: 0.8; stroke-linejoin: miter; stroke-linecap: square"/>
   </g>
   <g id="patch_6">
    <path d="M 90 60.48 
L 648 60.48 
" style="fill: none; stroke: #000000; stroke-width: 0.8; stroke-linejoin: miter; stroke-linecap: square"/>
   </g>
   <g id="text_18">
    <!-- Błąd przybliżenia pochodnej dla f(x) = sin(x^2) i x = 0.2 -->
    <g transform="translate(199.306875 54.48) scale(0.12 -0.12)">
     <defs>
      <path id="DejaVuSans-42" d="M 1259 2228 
L 1259 519 
L 2272 519 
Q 2781 519 3026 730 
Q 3272 941 3272 1375 
Q 3272 1813 3026 2020 
Q 2781 2228 2272 2228 
L 1259 2228 
z
M 1259 4147 
L 1259 2741 
L 2194 2741 
Q 2656 2741 2882 2914 
Q 3109 3088 3109 3444 
Q 3109 3797 2882 3972 
Q 2656 4147 2194 4147 
L 1259 4147 
z
M 628 4666 
L 2241 4666 
Q 2963 4666 3353 4366 
Q 3744 4066 3744 3513 
Q 3744 3084 3544 2831 
Q 3344 2578 2956 2516 
Q 3422 2416 3680 2098 
Q 3938 1781 3938 1306 
Q 3938 681 3513 340 
Q 3088 0 2303 0 
L 628 0 
L 628 4666 
z
" transform="scale(0.015625)"/>
      <path id="DejaVuSans-142" d="M 622 4863 
L 1197 4863 
L 1197 2981 
L 1588 3263 
L 1825 2931 
L 1197 2491 
L 1197 0 
L 622 0 
L 622 2081 
L 238 1806 
L 6 2138 
L 622 2578 
L 622 4863 
z
" transform="scale(0.015625)"/>
      <path id="DejaVuSans-105" d="M 2194 1759 
Q 1497 1759 1228 1600 
Q 959 1441 959 1056 
Q 959 750 1161 570 
Q 1363 391 1709 391 
Q 2188 391 2477 730 
Q 2766 1069 2766 1631 
L 2766 1759 
L 2194 1759 
z
M 3341 1997 
L 3341 0 
L 2766 0 
L 2766 531 
Q 2569 213 2275 61 
Q 1981 -91 1556 -91 
Q 1019 -91 701 211 
Q 384 513 384 1019 
Q 384 1609 779 1909 
Q 1175 2209 1959 2209 
L 2766 2209 
L 2766 2266 
Q 2766 2663 2505 2880 
Q 2244 3097 1772 3097 
Q 1472 3097 1187 3025 
Q 903 2953 641 2809 
L 641 3341 
Q 956 3463 1253 3523 
Q 1550 3584 1831 3584 
Q 2591 3584 2966 3190 
Q 3341 2797 3341 1997 
z
M 2775 0 
L 3147 0 
Q 3006 -191 2939 -328 
Q 2872 -466 2872 -563 
Q 2872 -706 2958 -778 
Q 3044 -850 3213 -850 
Q 3313 -850 3409 -826 
Q 3506 -803 3603 -756 
L 3603 -1172 
Q 3484 -1203 3378 -1218 
Q 3272 -1234 3178 -1234 
Q 2797 -1234 2617 -1098 
Q 2438 -963 2438 -672 
Q 2438 -522 2520 -358 
Q 2603 -194 2775 0 
z
" transform="scale(0.015625)"/>
      <path id="DejaVuSans-64" d="M 2906 2969 
L 2906 4863 
L 3481 4863 
L 3481 0 
L 2906 0 
L 2906 525 
Q 2725 213 2448 61 
Q 2172 -91 1784 -91 
Q 1150 -91 751 415 
Q 353 922 353 1747 
Q 353 2572 751 3078 
Q 1150 3584 1784 3584 
Q 2172 3584 2448 3432 
Q 2725 3281 2906 2969 
z
M 947 1747 
Q 947 1113 1208 752 
Q 1469 391 1925 391 
Q 2381 391 2643 752 
Q 2906 1113 2906 1747 
Q 2906 2381 2643 2742 
Q 2381 3103 1925 3103 
Q 1469 3103 1208 2742 
Q 947 2381 947 1747 
z
" transform="scale(0.015625)"/>
      <path id="DejaVuSans-70" d="M 1159 525 
L 1159 -1331 
L 581 -1331 
L 581 3500 
L 1159 3500 
L 1159 2969 
Q 1341 3281 1617 3432 
Q 1894 3584 2278 3584 
Q 2916 3584 3314 3078 
Q 3713 2572 3713 1747 
Q 3713 922 3314 415 
Q 2916 -91 2278 -91 
Q 1894 -91 1617 61 
Q 1341 213 1159 525 
z
M 3116 1747 
Q 3116 2381 2855 2742 
Q 2594 3103 2138 3103 
Q 1681 3103 1420 2742 
Q 1159 2381 1159 1747 
Q 1159 1113 1420 752 
Q 1681 391 2138 391 
Q 2594 391 2855 752 
Q 3116 1113 3116 1747 
z
" transform="scale(0.015625)"/>
      <path id="DejaVuSans-7a" d="M 353 3500 
L 3084 3500 
L 3084 2975 
L 922 459 
L 3084 459 
L 3084 0 
L 275 0 
L 275 525 
L 2438 3041 
L 353 3041 
L 353 3500 
z
" transform="scale(0.015625)"/>
      <path id="DejaVuSans-79" d="M 2059 -325 
Q 1816 -950 1584 -1140 
Q 1353 -1331 966 -1331 
L 506 -1331 
L 506 -850 
L 844 -850 
Q 1081 -850 1212 -737 
Q 1344 -625 1503 -206 
L 1606 56 
L 191 3500 
L 800 3500 
L 1894 763 
L 2988 3500 
L 3597 3500 
L 2059 -325 
z
" transform="scale(0.015625)"/>
      <path id="DejaVuSans-62" d="M 3116 1747 
Q 3116 2381 2855 2742 
Q 2594 3103 2138 3103 
Q 1681 3103 1420 2742 
Q 1159 2381 1159 1747 
Q 1159 1113 1420 752 
Q 1681 391 2138 391 
Q 2594 391 2855 752 
Q 3116 1113 3116 1747 
z
M 1159 2969 
Q 1341 3281 1617 3432 
Q 1894 3584 2278 3584 
Q 2916 3584 3314 3078 
Q 3713 2572 3713 1747 
Q 3713 922 3314 415 
Q 2916 -91 2278 -91 
Q 1894 -91 1617 61 
Q 1341 213 1159 525 
L 1159 0 
L 581 0 
L 581 4863 
L 1159 4863 
L 1159 2969 
z
" transform="scale(0.015625)"/>
      <path id="DejaVuSans-6c" d="M 603 4863 
L 1178 4863 
L 1178 0 
L 603 0 
L 603 4863 
z
" transform="scale(0.015625)"/>
      <path id="DejaVuSans-69" d="M 603 3500 
L 1178 3500 
L 1178 0 
L 603 0 
L 603 3500 
z
M 603 4863 
L 1178 4863 
L 1178 4134 
L 603 4134 
L 603 4863 
z
" transform="scale(0.015625)"/>
      <path id="DejaVuSans-17c" d="M 1378 4863 
L 1953 4863 
L 1953 4134 
L 1378 4134 
L 1378 4863 
z
M 1672 3584 
L 1672 3584 
z
M 353 3500 
L 3084 3500 
L 3084 2975 
L 922 459 
L 3084 459 
L 3084 0 
L 275 0 
L 275 525 
L 2438 3041 
L 353 3041 
L 353 3500 
z
" transform="scale(0.015625)"/>
      <path id="DejaVuSans-65" d="M 3597 1894 
L 3597 1613 
L 953 1613 
Q 991 1019 1311 708 
Q 1631 397 2203 397 
Q 2534 397 2845 478 
Q 3156 559 3463 722 
L 3463 178 
Q 3153 47 2828 -22 
Q 2503 -91 2169 -91 
Q 1331 -91 842 396 
Q 353 884 353 1716 
Q 353 2575 817 3079 
Q 1281 3584 2069 3584 
Q 2775 3584 3186 3129 
Q 3597 2675 3597 1894 
z
M 3022 2063 
Q 3016 2534 2758 2815 
Q 2500 3097 2075 3097 
Q 1594 3097 1305 2825 
Q 1016 2553 972 2059 
L 3022 2063 
z
" transform="scale(0.015625)"/>
      <path id="DejaVuSans-6e" d="M 3513 2113 
L 3513 0 
L 2938 0 
L 2938 2094 
Q 2938 2591 2744 2837 
Q 2550 3084 2163 3084 
Q 1697 3084 1428 2787 
Q 1159 2491 1159 1978 
L 1159 0 
L 581 0 
L 581 3500 
L 1159 3500 
L 1159 2956 
Q 1366 3272 1645 3428 
Q 1925 3584 2291 3584 
Q 2894 3584 3203 3211 
Q 3513 2838 3513 2113 
z
" transform="scale(0.015625)"/>
      <path id="DejaVuSans-63" d="M 3122 3366 
L 3122 2828 
Q 2878 2963 2633 3030 
Q 2388 3097 2138 3097 
Q 1578 3097 1268 2742 
Q 959 2388 959 1747 
Q 959 1106 1268 751 
Q 1578 397 2138 397 
Q 2388 397 2633 464 
Q 2878 531 3122 666 
L 3122 134 
Q 2881 22 2623 -34 
Q 2366 -91 2075 -91 
Q 1284 -91 818 406 
Q 353 903 353 1747 
Q 353 2603 823 3093 
Q 1294 3584 2113 3584 
Q 2378 3584 2631 3529 
Q 2884 3475 3122 3366 
z
" transform="scale(0.015625)"/>
      <path id="DejaVuSans-6a" d="M 603 3500 
L 1178 3500 
L 1178 -63 
Q 1178 -731 923 -1031 
Q 669 -1331 103 -1331 
L -116 -1331 
L -116 -844 
L 38 -844 
Q 366 -844 484 -692 
Q 603 -541 603 -63 
L 603 3500 
z
M 603 4863 
L 1178 4863 
L 1178 4134 
L 603 4134 
L 603 4863 
z
" transform="scale(0.015625)"/>
      <path id="DejaVuSans-3d" d="M 678 2906 
L 4684 2906 
L 4684 2381 
L 678 2381 
L 678 2906 
z
M 678 1631 
L 4684 1631 
L 4684 1100 
L 678 1100 
L 678 1631 
z
" transform="scale(0.015625)"/>
      <path id="DejaVuSans-73" d="M 2834 3397 
L 2834 2853 
Q 2591 2978 2328 3040 
Q 2066 3103 1784 3103 
Q 1356 3103 1142 2972 
Q 928 2841 928 2578 
Q 928 2378 1081 2264 
Q 1234 2150 1697 2047 
L 1894 2003 
Q 2506 1872 2764 1633 
Q 3022 1394 3022 966 
Q 3022 478 2636 193 
Q 2250 -91 1575 -91 
Q 1294 -91 989 -36 
Q 684 19 347 128 
L 347 722 
Q 666 556 975 473 
Q 1284 391 1588 391 
Q 1994 391 2212 530 
Q 2431 669 2431 922 
Q 2431 1156 2273 1281 
Q 2116 1406 1581 1522 
L 1381 1569 
Q 847 1681 609 1914 
Q 372 2147 372 2553 
Q 372 3047 722 3315 
Q 1072 3584 1716 3584 
Q 2034 3584 2315 3537 
Q 2597 3491 2834 3397 
z
" transform="scale(0.015625)"/>
      <path id="DejaVuSans-5e" d="M 2988 4666 
L 4684 2925 
L 4056 2925 
L 2681 4159 
L 1306 2925 
L 678 2925 
L 2375 4666 
L 2988 4666 
z
" transform="scale(0.015625)"/>
      <path id="DejaVuSans-32" d="M 1228 531 
L 3431 531 
L 3431 0 
L 469 0 
L 469 531 
Q 828 903 1448 1529 
Q 2069 2156 2228 2338 
Q 2531 2678 2651 2914 
Q 2772 3150 2772 3378 
Q 2772 3750 2511 3984 
Q 2250 4219 1831 4219 
Q 1534 4219 1204 4116 
Q 875 4013 500 3803 
L 500 4441 
Q 881 4594 1212 4672 
Q 1544 4750 1819 4750 
Q 2544 4750 2975 4387 
Q 3406 4025 3406 3419 
Q 3406 3131 3298 2873 
Q 3191 2616 2906 2266 
Q 2828 2175 2409 1742 
Q 1991 1309 1228 531 
z
" transform="scale(0.015625)"/>
      <path id="DejaVuSans-2e" d="M 684 794 
L 1344 794 
L 1344 0 
L 684 0 
L 684 794 
z
" transform="scale(0.015625)"/>
     </defs>
     <use xlink:href="#DejaVuSans-42"/>
     <use xlink:href="#DejaVuSans-142" x="68.603516"/>
     <use xlink:href="#DejaVuSans-105" x="97.021484"/>
     <use xlink:href="#DejaVuSans-64" x="158.300781"/>
     <use xlink:href="#DejaVuSans-20" x="221.777344"/>
     <use xlink:href="#DejaVuSans-70" x="253.564453"/>
     <use xlink:href="#DejaVuSans-72" x="317.041016"/>
     <use xlink:href="#DejaVuSans-7a" x="358.154297"/>
     <use xlink:href="#DejaVuSans-79" x="410.644531"/>
     <use xlink:href="#DejaVuSans-62" x="469.824219"/>
     <use xlink:href="#DejaVuSans-6c" x="533.300781"/>
     <use xlink:href="#DejaVuSans-69" x="561.083984"/>
     <use xlink:href="#DejaVuSans-17c" x="588.867188"/>
     <use xlink:href="#DejaVuSans-65" x="641.357422"/>
     <use xlink:href="#DejaVuSans-6e" x="702.880859"/>
     <use xlink:href="#DejaVuSans-69" x="766.259766"/>
     <use xlink:href="#DejaVuSans-61" x="794.042969"/>
     <use xlink:href="#DejaVuSans-20" x="855.322266"/>
     <use xlink:href="#DejaVuSans-70" x="887.109375"/>
     <use xlink:href="#DejaVuSans-6f" x="950.585938"/>
     <use xlink:href="#DejaVuSans-63" x="1011.767578"/>
     <use xlink:href="#DejaVuSans-68" x="1066.748047"/>
     <use xlink:href="#DejaVuSans-6f" x="1130.126953"/>
     <use xlink:href="#DejaVuSans-64" x="1191.308594"/>
     <use xlink:href="#DejaVuSans-6e" x="1254.785156"/>
     <use xlink:href="#DejaVuSans-65" x="1318.164062"/>
     <use xlink:href="#DejaVuSans-6a" x="1379.6875"/>
     <use xlink:href="#DejaVuSans-20" x="1407.470703"/>
     <use xlink:href="#DejaVuSans-64" x="1439.257812"/>
     <use xlink:href="#DejaVuSans-6c" x="1502.734375"/>
     <use xlink:href="#DejaVuSans-61" x="1530.517578"/>
     <use xlink:href="#DejaVuSans-20" x="1591.796875"/>
     <use xlink:href="#DejaVuSans-66" x="1623.583984"/>
     <use xlink:href="#DejaVuSans-28" x="1658.789062"/>
     <use xlink:href="#DejaVuSans-78" x="1697.802734"/>
     <use xlink:href="#DejaVuSans-29" x="1756.982422"/>
     <use xlink:href="#DejaVuSans-20" x="1795.996094"/>
     <use xlink:href="#DejaVuSans-3d" x="1827.783203"/>
     <use xlink:href="#DejaVuSans-20" x="1911.572266"/>
     <use xlink:href="#DejaVuSans-73" x="1943.359375"/>
     <use xlink:href="#DejaVuSans-69" x="1995.458984"/>
     <use xlink:href="#DejaVuSans-6e" x="2023.242188"/>
     <use xlink:href="#DejaVuSans-28" x="2086.621094"/>
     <use xlink:href="#DejaVuSans-78" x="2125.634766"/>
     <use xlink:href="#DejaVuSans-5e" x="2184.814453"/>
     <use xlink:href="#DejaVuSans-32" x="2268.603516"/>
     <use xlink:href="#DejaVuSans-29" x="2332.226562"/>
     <use xlink:href="#DejaVuSans-20" x="2371.240234"/>
     <use xlink:href="#DejaVuSans-69" x="2403.027344"/>
     <use xlink:href="#DejaVuSans-20" x="2430.810547"/>
     <use xlink:href="#DejaVuSans-78" x="2462.597656"/>
     <use xlink:href="#DejaVuSans-20" x="2521.777344"/>
     <use xlink:href="#DejaVuSans-3d" x="2553.564453"/>
     <use xlink:href="#DejaVuSans-20" x="2637.353516"/>
     <use xlink:href="#DejaVuSans-30" x="2669.140625"/>
     <use xlink:href="#DejaVuSans-2e" x="2732.763672"/>
     <use xlink:href="#DejaVuSans-32" x="2764.550781"/>
    </g>
   </g>
   <g id="legend_1">
    <g id="patch_7">
     <path d="M 97 443.56 
L 256.864062 443.56 
Q 258.864062 443.56 258.864062 441.56 
L 258.864062 383.8475 
Q 258.864062 381.8475 256.864062 381.8475 
L 97 381.8475 
Q 95 381.8475 95 383.8475 
L 95 441.56 
Q 95 443.56 97 443.56 
z
" style="fill: #ffffff; opacity: 0.8; stroke: #cccccc; stroke-linejoin: miter"/>
    </g>
    <g id="line2d_35">
     <path d="M 99 389.945938 
L 109 389.945938 
L 119 389.945938 
" style="fill: none; stroke: #1f77b4; stroke-width: 1.5; stroke-linecap: square"/>
    </g>
    <g id="text_19">
     <!-- błąd wzoru (a) dla float -->
     <g transform="translate(127 393.445938) scale(0.1 -0.1)">
      <defs>
       <path id="DejaVuSans-75" d="M 544 1381 
L 544 3500 
L 1119 3500 
L 1119 1403 
Q 1119 906 1312 657 
Q 1506 409 1894 409 
Q 2359 409 2629 706 
Q 2900 1003 2900 1516 
L 2900 3500 
L 3475 3500 
L 3475 0 
L 2900 0 
L 2900 538 
Q 2691 219 2414 64 
Q 2138 -91 1772 -91 
Q 1169 -91 856 284 
Q 544 659 544 1381 
z
M 1991 3584 
L 1991 3584 
z
" transform="scale(0.015625)"/>
      </defs>
      <use xlink:href="#DejaVuSans-62"/>
      <use xlink:href="#DejaVuSans-142" x="63.476562"/>
      <use xlink:href="#DejaVuSans-105" x="91.894531"/>
      <use xlink:href="#DejaVuSans-64" x="153.173828"/>
      <use xlink:href="#DejaVuSans-20" x="216.650391"/>
      <use xlink:href="#DejaVuSans-77" x="248.4375"/>
      <use xlink:href="#DejaVuSans-7a" x="330.224609"/>
      <use xlink:href="#DejaVuSans-6f" x="382.714844"/>
      <use xlink:href="#DejaVuSans-72" x="443.896484"/>
      <use xlink:href="#DejaVuSans-75" x="485.009766"/>
      <use xlink:href="#DejaVuSans-20" x="548.388672"/>
      <use xlink:href="#DejaVuSans-28" x="580.175781"/>
      <use xlink:href="#DejaVuSans-61" x="619.189453"/>
      <use xlink:href="#DejaVuSans-29" x="680.46875"/>
      <use xlink:href="#DejaVuSans-20" x="719.482422"/>
      <use xlink:href="#DejaVuSans-64" x="751.269531"/>
      <use xlink:href="#DejaVuSans-6c" x="814.746094"/>
      <use xlink:href="#DejaVuSans-61" x="842.529297"/>
      <use xlink:href="#DejaVuSans-20" x="903.808594"/>
      <use xlink:href="#DejaVuSans-66" x="935.595703"/>
      <use xlink:href="#DejaVuSans-6c" x="970.800781"/>
      <use xlink:href="#DejaVuSans-6f" x="998.583984"/>
      <use xlink:href="#DejaVuSans-61" x="1059.765625"/>
      <use xlink:href="#DejaVuSans-74" x="1121.044922"/>
     </g>
    </g>
    <g id="line2d_36">
     <path d="M 99 404.624063 
L 109 404.624063 
L 119 404.624063 
" style="fill: none; stroke: #ff7f0e; stroke-width: 1.5; stroke-linecap: square"/>
    </g>
    <g id="text_20">
     <!-- błąd wzoru (a) dla double -->
     <g transform="translate(127 408.124063) scale(0.1 -0.1)">
      <use xlink:href="#DejaVuSans-62"/>
      <use xlink:href="#DejaVuSans-142" x="63.476562"/>
      <use xlink:href="#DejaVuSans-105" x="91.894531"/>
      <use xlink:href="#DejaVuSans-64" x="153.173828"/>
      <use xlink:href="#DejaVuSans-20" x="216.650391"/>
      <use xlink:href="#DejaVuSans-77" x="248.4375"/>
      <use xlink:href="#DejaVuSans-7a" x="330.224609"/>
      <use xlink:href="#DejaVuSans-6f" x="382.714844"/>
      <use xlink:href="#DejaVuSans-72" x="443.896484"/>
      <use xlink:href="#DejaVuSans-75" x="485.009766"/>
      <use xlink:href="#DejaVuSans-20" x="548.388672"/>
      <use xlink:href="#DejaVuSans-28" x="580.175781"/>
      <use xlink:href="#DejaVuSans-61" x="619.189453"/>
      <use xlink:href="#DejaVuSans-29" x="680.46875"/>
      <use xlink:href="#DejaVuSans-20" x="719.482422"/>
      <use xlink:href="#DejaVuSans-64" x="751.269531"/>
      <use xlink:href="#DejaVuSans-6c" x="814.746094"/>
      <use xlink:href="#DejaVuSans-61" x="842.529297"/>
      <use xlink:href="#DejaVuSans-20" x="903.808594"/>
      <use xlink:href="#DejaVuSans-64" x="935.595703"/>
      <use xlink:href="#DejaVuSans-6f" x="999.072266"/>
      <use xlink:href="#DejaVuSans-75" x="1060.253906"/>
      <use xlink:href="#DejaVuSans-62" x="1123.632812"/>
      <use xlink:href="#DejaVuSans-6c" x="1187.109375"/>
      <use xlink:href="#DejaVuSans-65" x="1214.892578"/>
     </g>
    </g>
    <g id="line2d_37">
     <path d="M 99 419.302188 
L 109 419.302188 
L 119 419.302188 
" style="fill: none; stroke: #2ca02c; stroke-width: 1.5; stroke-linecap: square"/>
    </g>
    <g id="text_21">
     <!-- błąd wzoru (b) dla float -->
     <g transform="translate(127 422.802188) scale(0.1 -0.1)">
      <use xlink:href="#DejaVuSans-62"/>
      <use xlink:href="#DejaVuSans-142" x="63.476562"/>
      <use xlink:href="#DejaVuSans-105" x="91.894531"/>
      <use xlink:href="#DejaVuSans-64" x="153.173828"/>
      <use xlink:href="#DejaVuSans-20" x="216.650391"/>
      <use xlink:href="#DejaVuSans-77" x="248.4375"/>
      <use xlink:href="#DejaVuSans-7a" x="330.224609"/>
      <use xlink:href="#DejaVuSans-6f" x="382.714844"/>
      <use xlink:href="#DejaVuSans-72" x="443.896484"/>
      <use xlink:href="#DejaVuSans-75" x="485.009766"/>
      <use xlink:href="#DejaVuSans-20" x="548.388672"/>
      <use xlink:href="#DejaVuSans-28" x="580.175781"/>
      <use xlink:href="#DejaVuSans-62" x="619.189453"/>
      <use xlink:href="#DejaVuSans-29" x="682.666016"/>
      <use xlink:href="#DejaVuSans-20" x="721.679688"/>
      <use xlink:href="#DejaVuSans-64" x="753.466797"/>
      <use xlink:href="#DejaVuSans-6c" x="816.943359"/>
      <use xlink:href="#DejaVuSans-61" x="844.726562"/>
      <use xlink:href="#DejaVuSans-20" x="906.005859"/>
      <use xlink:href="#DejaVuSans-66" x="937.792969"/>
      <use xlink:href="#DejaVuSans-6c" x="972.998047"/>
      <use xlink:href="#DejaVuSans-6f" x="1000.78125"/>
      <use xlink:href="#DejaVuSans-61" x="1061.962891"/>
      <use xlink:href="#DejaVuSans-74" x="1123.242188"/>
     </g>
    </g>
    <g id="line2d_38">
     <path d="M 99 433.980313 
L 109 433.980313 
L 119 433.980313 
" style="fill: none; stroke: #d62728; stroke-width: 1.5; stroke-linecap: square"/>
    </g>
    <g id="text_22">
     <!-- błąd wzoru (b) dla double -->
     <g transform="translate(127 437.480313) scale(0.1 -0.1)">
      <use xlink:href="#DejaVuSans-62"/>
      <use xlink:href="#DejaVuSans-142" x="63.476562"/>
      <use xlink:href="#DejaVuSans-105" x="91.894531"/>
      <use xlink:href="#DejaVuSans-64" x="153.173828"/>
      <use xlink:href="#DejaVuSans-20" x="216.650391"/>
      <use xlink:href="#DejaVuSans-77" x="248.4375"/>
      <use xlink:href="#DejaVuSans-7a" x="330.224609"/>
      <use xlink:href="#DejaVuSans-6f" x="382.714844"/>
      <use xlink:href="#DejaVuSans-72" x="443.896484"/>
      <use xlink:href="#DejaVuSans-75" x="485.009766"/>
      <use xlink:href="#DejaVuSans-20" x="548.388672"/>
      <use xlink:href="#DejaVuSans-28" x="580.175781"/>
      <use xlink:href="#DejaVuSans-62" x="619.189453"/>
      <use xlink:href="#DejaVuSans-29" x="682.666016"/>
      <use xlink:href="#DejaVuSans-20" x="721.679688"/>
      <use xlink:href="#DejaVuSans-64" x="753.466797"/>
      <use xlink:href="#DejaVuSans-6c" x="816.943359"/>
      <use xlink:href="#DejaVuSans-61" x="844.726562"/>
      <use xlink:href="#DejaVuSans-20" x="906.005859"/>
      <use xlink:href="#DejaVuSans-64" x="937.792969"/>
      <use xlink:href="#DejaVuSans-6f" x="1001.269531"/>
      <use xlink:href="#DejaVuSans-75" x="1062.451172"/>
      <use xlink:href="#DejaVuSans-62" x="1125.830078"/>
      <use xlink:href="#DejaVuSans-6c" x="1189.306641"/>
      <use xlink:href="#DejaVuSans-65" x="1217.089844"/>
     </g>
    </g>
   </g>
  </g>
 </g>
 <defs>
  <clipPath id="p12cf56f723">
   <rect x="90" y="60.48" width="558" height="388.08"/>
  </clipPath>
 </defs>
</svg>
