<?xml version="1.0" encoding="utf-8" standalone="no"?>
<!DOCTYPE svg PUBLIC "-//W3C//DTD SVG 1.1//EN"
  "http://www.w3.org/Graphics/SVG/1.1/DTD/svg11.dtd">
<svg xmlns:xlink="http://www.w3.org/1999/xlink" width="720pt" height="504pt" viewBox="0 0 720 504" xmlns="http://www.w3.org/2000/svg" version="1.1">
 <metadata>
  <rdf:RDF xmlns:dc="http://purl.org/dc/elements/1.1/" xmlns:cc="http://creativecommons.org/ns#" xmlns:rdf="http://www.w3.org/1999/02/22-rdf-syntax-ns#">
   <cc:Work>
    <dc:type rdf:resource="http://purl.org/dc/dcmitype/StillImage"/>
    <dc:date>2023-10-10T22:17:54.343415</dc:date>
    <dc:format>image/svg+xml</dc:format>
    <dc:creator>
     <cc:Agent>
      <dc:title>Matplotlib v3.8.0, https://matplotlib.org/</dc:title>
     </cc:Agent>
    </dc:creator>
   </cc:Work>
  </rdf:RDF>
 </metadata>
 <defs>
  <style type="text/css">*{stroke-linejoin: round; stroke-linecap: butt}</style>
 </defs>
 <g id="figure_1">
  <g id="patch_1">
   <path d="M 0 504 
L 720 504 
L 720 0 
L 0 0 
z
" style="fill: #ffffff"/>
  </g>
  <g id="axes_1">
   <g id="patch_2">
    <path d="M 90 448.56 
L 648 448.56 
L 648 60.48 
L 90 60.48 
z
" style="fill: #ffffff"/>
   </g>
   <g id="matplotlib.axis_1">
    <g id="xtick_1">
     <g id="line2d_1">
      <path d="M 147.068182 448.56 
L 147.068182 60.48 
" clip-path="url(#pf859915891)" style="fill: none; stroke: #b0b0b0; stroke-width: 0.8; stroke-linecap: square"/>
     </g>
     <g id="line2d_2">
      <defs>
       <path id="m1a013a3300" d="M 0 0 
L 0 3.5 
" style="stroke: #000000; stroke-width: 0.8"/>
      </defs>
      <g>
       <use xlink:href="#m1a013a3300" x="147.068182" y="448.56" style="stroke: #000000; stroke-width: 0.8"/>
      </g>
     </g>
     <g id="text_1">
      <!-- $\mathdefault{10^{-15}}$ -->
      <g transform="translate(133.118182 463.158437) scale(0.1 -0.1)">
       <defs>
        <path id="DejaVuSans-31" d="M 794 531 
L 1825 531 
L 1825 4091 
L 703 3866 
L 703 4441 
L 1819 4666 
L 2450 4666 
L 2450 531 
L 3481 531 
L 3481 0 
L 794 0 
L 794 531 
z
" transform="scale(0.015625)"/>
        <path id="DejaVuSans-30" d="M 2034 4250 
Q 1547 4250 1301 3770 
Q 1056 3291 1056 2328 
Q 1056 1369 1301 889 
Q 1547 409 2034 409 
Q 2525 409 2770 889 
Q 3016 1369 3016 2328 
Q 3016 3291 2770 3770 
Q 2525 4250 2034 4250 
z
M 2034 4750 
Q 2819 4750 3233 4129 
Q 3647 3509 3647 2328 
Q 3647 1150 3233 529 
Q 2819 -91 2034 -91 
Q 1250 -91 836 529 
Q 422 1150 422 2328 
Q 422 3509 836 4129 
Q 1250 4750 2034 4750 
z
" transform="scale(0.015625)"/>
        <path id="DejaVuSans-2212" d="M 678 2272 
L 4684 2272 
L 4684 1741 
L 678 1741 
L 678 2272 
z
" transform="scale(0.015625)"/>
        <path id="DejaVuSans-35" d="M 691 4666 
L 3169 4666 
L 3169 4134 
L 1269 4134 
L 1269 2991 
Q 1406 3038 1543 3061 
Q 1681 3084 1819 3084 
Q 2600 3084 3056 2656 
Q 3513 2228 3513 1497 
Q 3513 744 3044 326 
Q 2575 -91 1722 -91 
Q 1428 -91 1123 -41 
Q 819 9 494 109 
L 494 744 
Q 775 591 1075 516 
Q 1375 441 1709 441 
Q 2250 441 2565 725 
Q 2881 1009 2881 1497 
Q 2881 1984 2565 2268 
Q 2250 2553 1709 2553 
Q 1456 2553 1204 2497 
Q 953 2441 691 2322 
L 691 4666 
z
" transform="scale(0.015625)"/>
       </defs>
       <use xlink:href="#DejaVuSans-31" transform="translate(0 0.684375)"/>
       <use xlink:href="#DejaVuSans-30" transform="translate(63.623047 0.684375)"/>
       <use xlink:href="#DejaVuSans-2212" transform="translate(128.203125 38.965625) scale(0.7)"/>
       <use xlink:href="#DejaVuSans-31" transform="translate(186.855469 38.965625) scale(0.7)"/>
       <use xlink:href="#DejaVuSans-35" transform="translate(231.391602 38.965625) scale(0.7)"/>
      </g>
     </g>
    </g>
    <g id="xtick_2">
     <g id="line2d_3">
      <path d="M 210.477273 448.56 
L 210.477273 60.48 
" clip-path="url(#pf859915891)" style="fill: none; stroke: #b0b0b0; stroke-width: 0.8; stroke-linecap: square"/>
     </g>
     <g id="line2d_4">
      <g>
       <use xlink:href="#m1a013a3300" x="210.477273" y="448.56" style="stroke: #000000; stroke-width: 0.8"/>
      </g>
     </g>
     <g id="text_2">
      <!-- $\mathdefault{10^{-13}}$ -->
      <g transform="translate(196.527273 463.158437) scale(0.1 -0.1)">
       <defs>
        <path id="DejaVuSans-33" d="M 2597 2516 
Q 3050 2419 3304 2112 
Q 3559 1806 3559 1356 
Q 3559 666 3084 287 
Q 2609 -91 1734 -91 
Q 1441 -91 1130 -33 
Q 819 25 488 141 
L 488 750 
Q 750 597 1062 519 
Q 1375 441 1716 441 
Q 2309 441 2620 675 
Q 2931 909 2931 1356 
Q 2931 1769 2642 2001 
Q 2353 2234 1838 2234 
L 1294 2234 
L 1294 2753 
L 1863 2753 
Q 2328 2753 2575 2939 
Q 2822 3125 2822 3475 
Q 2822 3834 2567 4026 
Q 2313 4219 1838 4219 
Q 1578 4219 1281 4162 
Q 984 4106 628 3988 
L 628 4550 
Q 988 4650 1302 4700 
Q 1616 4750 1894 4750 
Q 2613 4750 3031 4423 
Q 3450 4097 3450 3541 
Q 3450 3153 3228 2886 
Q 3006 2619 2597 2516 
z
" transform="scale(0.015625)"/>
       </defs>
       <use xlink:href="#DejaVuSans-31" transform="translate(0 0.765625)"/>
       <use xlink:href="#DejaVuSans-30" transform="translate(63.623047 0.765625)"/>
       <use xlink:href="#DejaVuSans-2212" transform="translate(128.203125 39.046875) scale(0.7)"/>
       <use xlink:href="#DejaVuSans-31" transform="translate(186.855469 39.046875) scale(0.7)"/>
       <use xlink:href="#DejaVuSans-33" transform="translate(231.391602 39.046875) scale(0.7)"/>
      </g>
     </g>
    </g>
    <g id="xtick_3">
     <g id="line2d_5">
      <path d="M 273.886364 448.56 
L 273.886364 60.48 
" clip-path="url(#pf859915891)" style="fill: none; stroke: #b0b0b0; stroke-width: 0.8; stroke-linecap: square"/>
     </g>
     <g id="line2d_6">
      <g>
       <use xlink:href="#m1a013a3300" x="273.886364" y="448.56" style="stroke: #000000; stroke-width: 0.8"/>
      </g>
     </g>
     <g id="text_3">
      <!-- $\mathdefault{10^{-11}}$ -->
      <g transform="translate(259.936364 463.158437) scale(0.1 -0.1)">
       <use xlink:href="#DejaVuSans-31" transform="translate(0 0.684375)"/>
       <use xlink:href="#DejaVuSans-30" transform="translate(63.623047 0.684375)"/>
       <use xlink:href="#DejaVuSans-2212" transform="translate(128.203125 38.965625) scale(0.7)"/>
       <use xlink:href="#DejaVuSans-31" transform="translate(186.855469 38.965625) scale(0.7)"/>
       <use xlink:href="#DejaVuSans-31" transform="translate(231.391602 38.965625) scale(0.7)"/>
      </g>
     </g>
    </g>
    <g id="xtick_4">
     <g id="line2d_7">
      <path d="M 337.295455 448.56 
L 337.295455 60.48 
" clip-path="url(#pf859915891)" style="fill: none; stroke: #b0b0b0; stroke-width: 0.8; stroke-linecap: square"/>
     </g>
     <g id="line2d_8">
      <g>
       <use xlink:href="#m1a013a3300" x="337.295455" y="448.56" style="stroke: #000000; stroke-width: 0.8"/>
      </g>
     </g>
     <g id="text_4">
      <!-- $\mathdefault{10^{-9}}$ -->
      <g transform="translate(325.545455 463.158437) scale(0.1 -0.1)">
       <defs>
        <path id="DejaVuSans-39" d="M 703 97 
L 703 672 
Q 941 559 1184 500 
Q 1428 441 1663 441 
Q 2288 441 2617 861 
Q 2947 1281 2994 2138 
Q 2813 1869 2534 1725 
Q 2256 1581 1919 1581 
Q 1219 1581 811 2004 
Q 403 2428 403 3163 
Q 403 3881 828 4315 
Q 1253 4750 1959 4750 
Q 2769 4750 3195 4129 
Q 3622 3509 3622 2328 
Q 3622 1225 3098 567 
Q 2575 -91 1691 -91 
Q 1453 -91 1209 -44 
Q 966 3 703 97 
z
M 1959 2075 
Q 2384 2075 2632 2365 
Q 2881 2656 2881 3163 
Q 2881 3666 2632 3958 
Q 2384 4250 1959 4250 
Q 1534 4250 1286 3958 
Q 1038 3666 1038 3163 
Q 1038 2656 1286 2365 
Q 1534 2075 1959 2075 
z
" transform="scale(0.015625)"/>
       </defs>
       <use xlink:href="#DejaVuSans-31" transform="translate(0 0.765625)"/>
       <use xlink:href="#DejaVuSans-30" transform="translate(63.623047 0.765625)"/>
       <use xlink:href="#DejaVuSans-2212" transform="translate(128.203125 39.046875) scale(0.7)"/>
       <use xlink:href="#DejaVuSans-39" transform="translate(186.855469 39.046875) scale(0.7)"/>
      </g>
     </g>
    </g>
    <g id="xtick_5">
     <g id="line2d_9">
      <path d="M 400.704545 448.56 
L 400.704545 60.48 
" clip-path="url(#pf859915891)" style="fill: none; stroke: #b0b0b0; stroke-width: 0.8; stroke-linecap: square"/>
     </g>
     <g id="line2d_10">
      <g>
       <use xlink:href="#m1a013a3300" x="400.704545" y="448.56" style="stroke: #000000; stroke-width: 0.8"/>
      </g>
     </g>
     <g id="text_5">
      <!-- $\mathdefault{10^{-7}}$ -->
      <g transform="translate(388.954545 463.158437) scale(0.1 -0.1)">
       <defs>
        <path id="DejaVuSans-37" d="M 525 4666 
L 3525 4666 
L 3525 4397 
L 1831 0 
L 1172 0 
L 2766 4134 
L 525 4134 
L 525 4666 
z
" transform="scale(0.015625)"/>
       </defs>
       <use xlink:href="#DejaVuSans-31" transform="translate(0 0.684375)"/>
       <use xlink:href="#DejaVuSans-30" transform="translate(63.623047 0.684375)"/>
       <use xlink:href="#DejaVuSans-2212" transform="translate(128.203125 38.965625) scale(0.7)"/>
       <use xlink:href="#DejaVuSans-37" transform="translate(186.855469 38.965625) scale(0.7)"/>
      </g>
     </g>
    </g>
    <g id="xtick_6">
     <g id="line2d_11">
      <path d="M 464.113636 448.56 
L 464.113636 60.48 
" clip-path="url(#pf859915891)" style="fill: none; stroke: #b0b0b0; stroke-width: 0.8; stroke-linecap: square"/>
     </g>
     <g id="line2d_12">
      <g>
       <use xlink:href="#m1a013a3300" x="464.113636" y="448.56" style="stroke: #000000; stroke-width: 0.8"/>
      </g>
     </g>
     <g id="text_6">
      <!-- $\mathdefault{10^{-5}}$ -->
      <g transform="translate(452.363636 463.158437) scale(0.1 -0.1)">
       <use xlink:href="#DejaVuSans-31" transform="translate(0 0.684375)"/>
       <use xlink:href="#DejaVuSans-30" transform="translate(63.623047 0.684375)"/>
       <use xlink:href="#DejaVuSans-2212" transform="translate(128.203125 38.965625) scale(0.7)"/>
       <use xlink:href="#DejaVuSans-35" transform="translate(186.855469 38.965625) scale(0.7)"/>
      </g>
     </g>
    </g>
    <g id="xtick_7">
     <g id="line2d_13">
      <path d="M 527.522727 448.56 
L 527.522727 60.48 
" clip-path="url(#pf859915891)" style="fill: none; stroke: #b0b0b0; stroke-width: 0.8; stroke-linecap: square"/>
     </g>
     <g id="line2d_14">
      <g>
       <use xlink:href="#m1a013a3300" x="527.522727" y="448.56" style="stroke: #000000; stroke-width: 0.8"/>
      </g>
     </g>
     <g id="text_7">
      <!-- $\mathdefault{10^{-3}}$ -->
      <g transform="translate(515.772727 463.158437) scale(0.1 -0.1)">
       <use xlink:href="#DejaVuSans-31" transform="translate(0 0.765625)"/>
       <use xlink:href="#DejaVuSans-30" transform="translate(63.623047 0.765625)"/>
       <use xlink:href="#DejaVuSans-2212" transform="translate(128.203125 39.046875) scale(0.7)"/>
       <use xlink:href="#DejaVuSans-33" transform="translate(186.855469 39.046875) scale(0.7)"/>
      </g>
     </g>
    </g>
    <g id="xtick_8">
     <g id="line2d_15">
      <path d="M 590.931818 448.56 
L 590.931818 60.48 
" clip-path="url(#pf859915891)" style="fill: none; stroke: #b0b0b0; stroke-width: 0.8; stroke-linecap: square"/>
     </g>
     <g id="line2d_16">
      <g>
       <use xlink:href="#m1a013a3300" x="590.931818" y="448.56" style="stroke: #000000; stroke-width: 0.8"/>
      </g>
     </g>
     <g id="text_8">
      <!-- $\mathdefault{10^{-1}}$ -->
      <g transform="translate(579.181818 463.158437) scale(0.1 -0.1)">
       <use xlink:href="#DejaVuSans-31" transform="translate(0 0.684375)"/>
       <use xlink:href="#DejaVuSans-30" transform="translate(63.623047 0.684375)"/>
       <use xlink:href="#DejaVuSans-2212" transform="translate(128.203125 38.965625) scale(0.7)"/>
       <use xlink:href="#DejaVuSans-31" transform="translate(186.855469 38.965625) scale(0.7)"/>
      </g>
     </g>
    </g>
    <g id="text_9">
     <!-- wartość h -->
     <g transform="translate(344.660156 476.836563) scale(0.1 -0.1)">
      <defs>
       <path id="DejaVuSans-77" d="M 269 3500 
L 844 3500 
L 1563 769 
L 2278 3500 
L 2956 3500 
L 3675 769 
L 4391 3500 
L 4966 3500 
L 4050 0 
L 3372 0 
L 2619 2869 
L 1863 0 
L 1184 0 
L 269 3500 
z
" transform="scale(0.015625)"/>
       <path id="DejaVuSans-61" d="M 2194 1759 
Q 1497 1759 1228 1600 
Q 959 1441 959 1056 
Q 959 750 1161 570 
Q 1363 391 1709 391 
Q 2188 391 2477 730 
Q 2766 1069 2766 1631 
L 2766 1759 
L 2194 1759 
z
M 3341 1997 
L 3341 0 
L 2766 0 
L 2766 531 
Q 2569 213 2275 61 
Q 1981 -91 1556 -91 
Q 1019 -91 701 211 
Q 384 513 384 1019 
Q 384 1609 779 1909 
Q 1175 2209 1959 2209 
L 2766 2209 
L 2766 2266 
Q 2766 2663 2505 2880 
Q 2244 3097 1772 3097 
Q 1472 3097 1187 3025 
Q 903 2953 641 2809 
L 641 3341 
Q 956 3463 1253 3523 
Q 1550 3584 1831 3584 
Q 2591 3584 2966 3190 
Q 3341 2797 3341 1997 
z
" transform="scale(0.015625)"/>
       <path id="DejaVuSans-72" d="M 2631 2963 
Q 2534 3019 2420 3045 
Q 2306 3072 2169 3072 
Q 1681 3072 1420 2755 
Q 1159 2438 1159 1844 
L 1159 0 
L 581 0 
L 581 3500 
L 1159 3500 
L 1159 2956 
Q 1341 3275 1631 3429 
Q 1922 3584 2338 3584 
Q 2397 3584 2469 3576 
Q 2541 3569 2628 3553 
L 2631 2963 
z
" transform="scale(0.015625)"/>
       <path id="DejaVuSans-74" d="M 1172 4494 
L 1172 3500 
L 2356 3500 
L 2356 3053 
L 1172 3053 
L 1172 1153 
Q 1172 725 1289 603 
Q 1406 481 1766 481 
L 2356 481 
L 2356 0 
L 1766 0 
Q 1100 0 847 248 
Q 594 497 594 1153 
L 594 3053 
L 172 3053 
L 172 3500 
L 594 3500 
L 594 4494 
L 1172 4494 
z
" transform="scale(0.015625)"/>
       <path id="DejaVuSans-6f" d="M 1959 3097 
Q 1497 3097 1228 2736 
Q 959 2375 959 1747 
Q 959 1119 1226 758 
Q 1494 397 1959 397 
Q 2419 397 2687 759 
Q 2956 1122 2956 1747 
Q 2956 2369 2687 2733 
Q 2419 3097 1959 3097 
z
M 1959 3584 
Q 2709 3584 3137 3096 
Q 3566 2609 3566 1747 
Q 3566 888 3137 398 
Q 2709 -91 1959 -91 
Q 1206 -91 779 398 
Q 353 888 353 1747 
Q 353 2609 779 3096 
Q 1206 3584 1959 3584 
z
" transform="scale(0.015625)"/>
       <path id="DejaVuSans-15b" d="M 2242 5119 
L 2864 5119 
L 1846 3944 
L 1367 3944 
L 2242 5119 
z
M 2834 3397 
L 2834 2853 
Q 2591 2978 2328 3040 
Q 2066 3103 1784 3103 
Q 1356 3103 1142 2972 
Q 928 2841 928 2578 
Q 928 2378 1081 2264 
Q 1234 2150 1697 2047 
L 1894 2003 
Q 2506 1872 2764 1633 
Q 3022 1394 3022 966 
Q 3022 478 2636 193 
Q 2250 -91 1575 -91 
Q 1294 -91 989 -36 
Q 684 19 347 128 
L 347 722 
Q 666 556 975 473 
Q 1284 391 1588 391 
Q 1994 391 2212 530 
Q 2431 669 2431 922 
Q 2431 1156 2273 1281 
Q 2116 1406 1581 1522 
L 1381 1569 
Q 847 1681 609 1914 
Q 372 2147 372 2553 
Q 372 3047 722 3315 
Q 1072 3584 1716 3584 
Q 2034 3584 2315 3537 
Q 2597 3491 2834 3397 
z
" transform="scale(0.015625)"/>
       <path id="DejaVuSans-107" d="M 3122 3366 
L 3122 2828 
Q 2878 2963 2633 3030 
Q 2388 3097 2138 3097 
Q 1578 3097 1268 2742 
Q 959 2388 959 1747 
Q 959 1106 1268 751 
Q 1578 397 2138 397 
Q 2388 397 2633 464 
Q 2878 531 3122 666 
L 3122 134 
Q 2881 22 2623 -34 
Q 2366 -91 2075 -91 
Q 1284 -91 818 406 
Q 353 903 353 1747 
Q 353 2603 823 3093 
Q 1294 3584 2113 3584 
Q 2378 3584 2631 3529 
Q 2884 3475 3122 3366 
z
M 2466 5119 
L 3088 5119 
L 2070 3944 
L 1591 3944 
L 2466 5119 
z
" transform="scale(0.015625)"/>
       <path id="DejaVuSans-20" transform="scale(0.015625)"/>
       <path id="DejaVuSans-68" d="M 3513 2113 
L 3513 0 
L 2938 0 
L 2938 2094 
Q 2938 2591 2744 2837 
Q 2550 3084 2163 3084 
Q 1697 3084 1428 2787 
Q 1159 2491 1159 1978 
L 1159 0 
L 581 0 
L 581 4863 
L 1159 4863 
L 1159 2956 
Q 1366 3272 1645 3428 
Q 1925 3584 2291 3584 
Q 2894 3584 3203 3211 
Q 3513 2838 3513 2113 
z
" transform="scale(0.015625)"/>
      </defs>
      <use xlink:href="#DejaVuSans-77"/>
      <use xlink:href="#DejaVuSans-61" x="81.787109"/>
      <use xlink:href="#DejaVuSans-72" x="143.066406"/>
      <use xlink:href="#DejaVuSans-74" x="184.179688"/>
      <use xlink:href="#DejaVuSans-6f" x="223.388672"/>
      <use xlink:href="#DejaVuSans-15b" x="284.570312"/>
      <use xlink:href="#DejaVuSans-107" x="336.669922"/>
      <use xlink:href="#DejaVuSans-20" x="391.650391"/>
      <use xlink:href="#DejaVuSans-68" x="423.4375"/>
     </g>
    </g>
   </g>
   <g id="matplotlib.axis_2">
    <g id="ytick_1">
     <g id="line2d_17">
      <path d="M 90 409.957316 
L 648 409.957316 
" clip-path="url(#pf859915891)" style="fill: none; stroke: #b0b0b0; stroke-width: 0.8; stroke-linecap: square"/>
     </g>
     <g id="line2d_18">
      <defs>
       <path id="m588f742b3b" d="M 0 0 
L -3.5 0 
" style="stroke: #000000; stroke-width: 0.8"/>
      </defs>
      <g>
       <use xlink:href="#m588f742b3b" x="90" y="409.957316" style="stroke: #000000; stroke-width: 0.8"/>
      </g>
     </g>
     <g id="text_10">
      <!-- $\mathdefault{10^{-7}}$ -->
      <g transform="translate(59.5 413.756535) scale(0.1 -0.1)">
       <use xlink:href="#DejaVuSans-31" transform="translate(0 0.684375)"/>
       <use xlink:href="#DejaVuSans-30" transform="translate(63.623047 0.684375)"/>
       <use xlink:href="#DejaVuSans-2212" transform="translate(128.203125 38.965625) scale(0.7)"/>
       <use xlink:href="#DejaVuSans-37" transform="translate(186.855469 38.965625) scale(0.7)"/>
      </g>
     </g>
    </g>
    <g id="ytick_2">
     <g id="line2d_19">
      <path d="M 90 361.019689 
L 648 361.019689 
" clip-path="url(#pf859915891)" style="fill: none; stroke: #b0b0b0; stroke-width: 0.8; stroke-linecap: square"/>
     </g>
     <g id="line2d_20">
      <g>
       <use xlink:href="#m588f742b3b" x="90" y="361.019689" style="stroke: #000000; stroke-width: 0.8"/>
      </g>
     </g>
     <g id="text_11">
      <!-- $\mathdefault{10^{-6}}$ -->
      <g transform="translate(59.5 364.818908) scale(0.1 -0.1)">
       <defs>
        <path id="DejaVuSans-36" d="M 2113 2584 
Q 1688 2584 1439 2293 
Q 1191 2003 1191 1497 
Q 1191 994 1439 701 
Q 1688 409 2113 409 
Q 2538 409 2786 701 
Q 3034 994 3034 1497 
Q 3034 2003 2786 2293 
Q 2538 2584 2113 2584 
z
M 3366 4563 
L 3366 3988 
Q 3128 4100 2886 4159 
Q 2644 4219 2406 4219 
Q 1781 4219 1451 3797 
Q 1122 3375 1075 2522 
Q 1259 2794 1537 2939 
Q 1816 3084 2150 3084 
Q 2853 3084 3261 2657 
Q 3669 2231 3669 1497 
Q 3669 778 3244 343 
Q 2819 -91 2113 -91 
Q 1303 -91 875 529 
Q 447 1150 447 2328 
Q 447 3434 972 4092 
Q 1497 4750 2381 4750 
Q 2619 4750 2861 4703 
Q 3103 4656 3366 4563 
z
" transform="scale(0.015625)"/>
       </defs>
       <use xlink:href="#DejaVuSans-31" transform="translate(0 0.765625)"/>
       <use xlink:href="#DejaVuSans-30" transform="translate(63.623047 0.765625)"/>
       <use xlink:href="#DejaVuSans-2212" transform="translate(128.203125 39.046875) scale(0.7)"/>
       <use xlink:href="#DejaVuSans-36" transform="translate(186.855469 39.046875) scale(0.7)"/>
      </g>
     </g>
    </g>
    <g id="ytick_3">
     <g id="line2d_21">
      <path d="M 90 312.082062 
L 648 312.082062 
" clip-path="url(#pf859915891)" style="fill: none; stroke: #b0b0b0; stroke-width: 0.8; stroke-linecap: square"/>
     </g>
     <g id="line2d_22">
      <g>
       <use xlink:href="#m588f742b3b" x="90" y="312.082062" style="stroke: #000000; stroke-width: 0.8"/>
      </g>
     </g>
     <g id="text_12">
      <!-- $\mathdefault{10^{-5}}$ -->
      <g transform="translate(59.5 315.881281) scale(0.1 -0.1)">
       <use xlink:href="#DejaVuSans-31" transform="translate(0 0.684375)"/>
       <use xlink:href="#DejaVuSans-30" transform="translate(63.623047 0.684375)"/>
       <use xlink:href="#DejaVuSans-2212" transform="translate(128.203125 38.965625) scale(0.7)"/>
       <use xlink:href="#DejaVuSans-35" transform="translate(186.855469 38.965625) scale(0.7)"/>
      </g>
     </g>
    </g>
    <g id="ytick_4">
     <g id="line2d_23">
      <path d="M 90 263.144435 
L 648 263.144435 
" clip-path="url(#pf859915891)" style="fill: none; stroke: #b0b0b0; stroke-width: 0.8; stroke-linecap: square"/>
     </g>
     <g id="line2d_24">
      <g>
       <use xlink:href="#m588f742b3b" x="90" y="263.144435" style="stroke: #000000; stroke-width: 0.8"/>
      </g>
     </g>
     <g id="text_13">
      <!-- $\mathdefault{10^{-4}}$ -->
      <g transform="translate(59.5 266.943653) scale(0.1 -0.1)">
       <defs>
        <path id="DejaVuSans-34" d="M 2419 4116 
L 825 1625 
L 2419 1625 
L 2419 4116 
z
M 2253 4666 
L 3047 4666 
L 3047 1625 
L 3713 1625 
L 3713 1100 
L 3047 1100 
L 3047 0 
L 2419 0 
L 2419 1100 
L 313 1100 
L 313 1709 
L 2253 4666 
z
" transform="scale(0.015625)"/>
       </defs>
       <use xlink:href="#DejaVuSans-31" transform="translate(0 0.684375)"/>
       <use xlink:href="#DejaVuSans-30" transform="translate(63.623047 0.684375)"/>
       <use xlink:href="#DejaVuSans-2212" transform="translate(128.203125 38.965625) scale(0.7)"/>
       <use xlink:href="#DejaVuSans-34" transform="translate(186.855469 38.965625) scale(0.7)"/>
      </g>
     </g>
    </g>
    <g id="ytick_5">
     <g id="line2d_25">
      <path d="M 90 214.206807 
L 648 214.206807 
" clip-path="url(#pf859915891)" style="fill: none; stroke: #b0b0b0; stroke-width: 0.8; stroke-linecap: square"/>
     </g>
     <g id="line2d_26">
      <g>
       <use xlink:href="#m588f742b3b" x="90" y="214.206807" style="stroke: #000000; stroke-width: 0.8"/>
      </g>
     </g>
     <g id="text_14">
      <!-- $\mathdefault{10^{-3}}$ -->
      <g transform="translate(59.5 218.006026) scale(0.1 -0.1)">
       <use xlink:href="#DejaVuSans-31" transform="translate(0 0.765625)"/>
       <use xlink:href="#DejaVuSans-30" transform="translate(63.623047 0.765625)"/>
       <use xlink:href="#DejaVuSans-2212" transform="translate(128.203125 39.046875) scale(0.7)"/>
       <use xlink:href="#DejaVuSans-33" transform="translate(186.855469 39.046875) scale(0.7)"/>
      </g>
     </g>
    </g>
    <g id="ytick_6">
     <g id="line2d_27">
      <path d="M 90 165.26918 
L 648 165.26918 
" clip-path="url(#pf859915891)" style="fill: none; stroke: #b0b0b0; stroke-width: 0.8; stroke-linecap: square"/>
     </g>
     <g id="line2d_28">
      <g>
       <use xlink:href="#m588f742b3b" x="90" y="165.26918" style="stroke: #000000; stroke-width: 0.8"/>
      </g>
     </g>
     <g id="text_15">
      <!-- $\mathdefault{10^{-2}}$ -->
      <g transform="translate(59.5 169.068399) scale(0.1 -0.1)">
       <defs>
        <path id="DejaVuSans-32" d="M 1228 531 
L 3431 531 
L 3431 0 
L 469 0 
L 469 531 
Q 828 903 1448 1529 
Q 2069 2156 2228 2338 
Q 2531 2678 2651 2914 
Q 2772 3150 2772 3378 
Q 2772 3750 2511 3984 
Q 2250 4219 1831 4219 
Q 1534 4219 1204 4116 
Q 875 4013 500 3803 
L 500 4441 
Q 881 4594 1212 4672 
Q 1544 4750 1819 4750 
Q 2544 4750 2975 4387 
Q 3406 4025 3406 3419 
Q 3406 3131 3298 2873 
Q 3191 2616 2906 2266 
Q 2828 2175 2409 1742 
Q 1991 1309 1228 531 
z
" transform="scale(0.015625)"/>
       </defs>
       <use xlink:href="#DejaVuSans-31" transform="translate(0 0.765625)"/>
       <use xlink:href="#DejaVuSans-30" transform="translate(63.623047 0.765625)"/>
       <use xlink:href="#DejaVuSans-2212" transform="translate(128.203125 39.046875) scale(0.7)"/>
       <use xlink:href="#DejaVuSans-32" transform="translate(186.855469 39.046875) scale(0.7)"/>
      </g>
     </g>
    </g>
    <g id="ytick_7">
     <g id="line2d_29">
      <path d="M 90 116.331553 
L 648 116.331553 
" clip-path="url(#pf859915891)" style="fill: none; stroke: #b0b0b0; stroke-width: 0.8; stroke-linecap: square"/>
     </g>
     <g id="line2d_30">
      <g>
       <use xlink:href="#m588f742b3b" x="90" y="116.331553" style="stroke: #000000; stroke-width: 0.8"/>
      </g>
     </g>
     <g id="text_16">
      <!-- $\mathdefault{10^{-1}}$ -->
      <g transform="translate(59.5 120.130772) scale(0.1 -0.1)">
       <use xlink:href="#DejaVuSans-31" transform="translate(0 0.684375)"/>
       <use xlink:href="#DejaVuSans-30" transform="translate(63.623047 0.684375)"/>
       <use xlink:href="#DejaVuSans-2212" transform="translate(128.203125 38.965625) scale(0.7)"/>
       <use xlink:href="#DejaVuSans-31" transform="translate(186.855469 38.965625) scale(0.7)"/>
      </g>
     </g>
    </g>
    <g id="ytick_8">
     <g id="line2d_31">
      <path d="M 90 67.393926 
L 648 67.393926 
" clip-path="url(#pf859915891)" style="fill: none; stroke: #b0b0b0; stroke-width: 0.8; stroke-linecap: square"/>
     </g>
     <g id="line2d_32">
      <g>
       <use xlink:href="#m588f742b3b" x="90" y="67.393926" style="stroke: #000000; stroke-width: 0.8"/>
      </g>
     </g>
     <g id="text_17">
      <!-- $\mathdefault{10^{0}}$ -->
      <g transform="translate(65.4 71.193145) scale(0.1 -0.1)">
       <use xlink:href="#DejaVuSans-31" transform="translate(0 0.765625)"/>
       <use xlink:href="#DejaVuSans-30" transform="translate(63.623047 0.765625)"/>
       <use xlink:href="#DejaVuSans-30" transform="translate(128.203125 39.046875) scale(0.7)"/>
      </g>
     </g>
    </g>
    <g id="ytick_9">
     <g id="line2d_33">
      <defs>
       <path id="ma4818f3f3c" d="M 0 0 
L -2 0 
" style="stroke: #000000; stroke-width: 0.6"/>
      </defs>
      <g>
       <use xlink:href="#ma4818f3f3c" x="90" y="444.16325" style="stroke: #000000; stroke-width: 0.6"/>
      </g>
     </g>
    </g>
    <g id="ytick_10">
     <g id="line2d_34">
      <g>
       <use xlink:href="#ma4818f3f3c" x="90" y="435.545761" style="stroke: #000000; stroke-width: 0.6"/>
      </g>
     </g>
    </g>
    <g id="ytick_11">
     <g id="line2d_35">
      <g>
       <use xlink:href="#ma4818f3f3c" x="90" y="429.431556" style="stroke: #000000; stroke-width: 0.6"/>
      </g>
     </g>
    </g>
    <g id="ytick_12">
     <g id="line2d_36">
      <g>
       <use xlink:href="#ma4818f3f3c" x="90" y="424.68901" style="stroke: #000000; stroke-width: 0.6"/>
      </g>
     </g>
    </g>
    <g id="ytick_13">
     <g id="line2d_37">
      <g>
       <use xlink:href="#ma4818f3f3c" x="90" y="420.814068" style="stroke: #000000; stroke-width: 0.6"/>
      </g>
     </g>
    </g>
    <g id="ytick_14">
     <g id="line2d_38">
      <g>
       <use xlink:href="#ma4818f3f3c" x="90" y="417.537851" style="stroke: #000000; stroke-width: 0.6"/>
      </g>
     </g>
    </g>
    <g id="ytick_15">
     <g id="line2d_39">
      <g>
       <use xlink:href="#ma4818f3f3c" x="90" y="414.699862" style="stroke: #000000; stroke-width: 0.6"/>
      </g>
     </g>
    </g>
    <g id="ytick_16">
     <g id="line2d_40">
      <g>
       <use xlink:href="#ma4818f3f3c" x="90" y="412.196579" style="stroke: #000000; stroke-width: 0.6"/>
      </g>
     </g>
    </g>
    <g id="ytick_17">
     <g id="line2d_41">
      <g>
       <use xlink:href="#ma4818f3f3c" x="90" y="395.225623" style="stroke: #000000; stroke-width: 0.6"/>
      </g>
     </g>
    </g>
    <g id="ytick_18">
     <g id="line2d_42">
      <g>
       <use xlink:href="#ma4818f3f3c" x="90" y="386.608134" style="stroke: #000000; stroke-width: 0.6"/>
      </g>
     </g>
    </g>
    <g id="ytick_19">
     <g id="line2d_43">
      <g>
       <use xlink:href="#ma4818f3f3c" x="90" y="380.493929" style="stroke: #000000; stroke-width: 0.6"/>
      </g>
     </g>
    </g>
    <g id="ytick_20">
     <g id="line2d_44">
      <g>
       <use xlink:href="#ma4818f3f3c" x="90" y="375.751383" style="stroke: #000000; stroke-width: 0.6"/>
      </g>
     </g>
    </g>
    <g id="ytick_21">
     <g id="line2d_45">
      <g>
       <use xlink:href="#ma4818f3f3c" x="90" y="371.876441" style="stroke: #000000; stroke-width: 0.6"/>
      </g>
     </g>
    </g>
    <g id="ytick_22">
     <g id="line2d_46">
      <g>
       <use xlink:href="#ma4818f3f3c" x="90" y="368.600223" style="stroke: #000000; stroke-width: 0.6"/>
      </g>
     </g>
    </g>
    <g id="ytick_23">
     <g id="line2d_47">
      <g>
       <use xlink:href="#ma4818f3f3c" x="90" y="365.762235" style="stroke: #000000; stroke-width: 0.6"/>
      </g>
     </g>
    </g>
    <g id="ytick_24">
     <g id="line2d_48">
      <g>
       <use xlink:href="#ma4818f3f3c" x="90" y="363.258952" style="stroke: #000000; stroke-width: 0.6"/>
      </g>
     </g>
    </g>
    <g id="ytick_25">
     <g id="line2d_49">
      <g>
       <use xlink:href="#ma4818f3f3c" x="90" y="346.287995" style="stroke: #000000; stroke-width: 0.6"/>
      </g>
     </g>
    </g>
    <g id="ytick_26">
     <g id="line2d_50">
      <g>
       <use xlink:href="#ma4818f3f3c" x="90" y="337.670507" style="stroke: #000000; stroke-width: 0.6"/>
      </g>
     </g>
    </g>
    <g id="ytick_27">
     <g id="line2d_51">
      <g>
       <use xlink:href="#ma4818f3f3c" x="90" y="331.556302" style="stroke: #000000; stroke-width: 0.6"/>
      </g>
     </g>
    </g>
    <g id="ytick_28">
     <g id="line2d_52">
      <g>
       <use xlink:href="#ma4818f3f3c" x="90" y="326.813756" style="stroke: #000000; stroke-width: 0.6"/>
      </g>
     </g>
    </g>
    <g id="ytick_29">
     <g id="line2d_53">
      <g>
       <use xlink:href="#ma4818f3f3c" x="90" y="322.938813" style="stroke: #000000; stroke-width: 0.6"/>
      </g>
     </g>
    </g>
    <g id="ytick_30">
     <g id="line2d_54">
      <g>
       <use xlink:href="#ma4818f3f3c" x="90" y="319.662596" style="stroke: #000000; stroke-width: 0.6"/>
      </g>
     </g>
    </g>
    <g id="ytick_31">
     <g id="line2d_55">
      <g>
       <use xlink:href="#ma4818f3f3c" x="90" y="316.824608" style="stroke: #000000; stroke-width: 0.6"/>
      </g>
     </g>
    </g>
    <g id="ytick_32">
     <g id="line2d_56">
      <g>
       <use xlink:href="#ma4818f3f3c" x="90" y="314.321325" style="stroke: #000000; stroke-width: 0.6"/>
      </g>
     </g>
    </g>
    <g id="ytick_33">
     <g id="line2d_57">
      <g>
       <use xlink:href="#ma4818f3f3c" x="90" y="297.350368" style="stroke: #000000; stroke-width: 0.6"/>
      </g>
     </g>
    </g>
    <g id="ytick_34">
     <g id="line2d_58">
      <g>
       <use xlink:href="#ma4818f3f3c" x="90" y="288.73288" style="stroke: #000000; stroke-width: 0.6"/>
      </g>
     </g>
    </g>
    <g id="ytick_35">
     <g id="line2d_59">
      <g>
       <use xlink:href="#ma4818f3f3c" x="90" y="282.618674" style="stroke: #000000; stroke-width: 0.6"/>
      </g>
     </g>
    </g>
    <g id="ytick_36">
     <g id="line2d_60">
      <g>
       <use xlink:href="#ma4818f3f3c" x="90" y="277.876128" style="stroke: #000000; stroke-width: 0.6"/>
      </g>
     </g>
    </g>
    <g id="ytick_37">
     <g id="line2d_61">
      <g>
       <use xlink:href="#ma4818f3f3c" x="90" y="274.001186" style="stroke: #000000; stroke-width: 0.6"/>
      </g>
     </g>
    </g>
    <g id="ytick_38">
     <g id="line2d_62">
      <g>
       <use xlink:href="#ma4818f3f3c" x="90" y="270.724969" style="stroke: #000000; stroke-width: 0.6"/>
      </g>
     </g>
    </g>
    <g id="ytick_39">
     <g id="line2d_63">
      <g>
       <use xlink:href="#ma4818f3f3c" x="90" y="267.886981" style="stroke: #000000; stroke-width: 0.6"/>
      </g>
     </g>
    </g>
    <g id="ytick_40">
     <g id="line2d_64">
      <g>
       <use xlink:href="#ma4818f3f3c" x="90" y="265.383698" style="stroke: #000000; stroke-width: 0.6"/>
      </g>
     </g>
    </g>
    <g id="ytick_41">
     <g id="line2d_65">
      <g>
       <use xlink:href="#ma4818f3f3c" x="90" y="248.412741" style="stroke: #000000; stroke-width: 0.6"/>
      </g>
     </g>
    </g>
    <g id="ytick_42">
     <g id="line2d_66">
      <g>
       <use xlink:href="#ma4818f3f3c" x="90" y="239.795253" style="stroke: #000000; stroke-width: 0.6"/>
      </g>
     </g>
    </g>
    <g id="ytick_43">
     <g id="line2d_67">
      <g>
       <use xlink:href="#ma4818f3f3c" x="90" y="233.681047" style="stroke: #000000; stroke-width: 0.6"/>
      </g>
     </g>
    </g>
    <g id="ytick_44">
     <g id="line2d_68">
      <g>
       <use xlink:href="#ma4818f3f3c" x="90" y="228.938501" style="stroke: #000000; stroke-width: 0.6"/>
      </g>
     </g>
    </g>
    <g id="ytick_45">
     <g id="line2d_69">
      <g>
       <use xlink:href="#ma4818f3f3c" x="90" y="225.063559" style="stroke: #000000; stroke-width: 0.6"/>
      </g>
     </g>
    </g>
    <g id="ytick_46">
     <g id="line2d_70">
      <g>
       <use xlink:href="#ma4818f3f3c" x="90" y="221.787342" style="stroke: #000000; stroke-width: 0.6"/>
      </g>
     </g>
    </g>
    <g id="ytick_47">
     <g id="line2d_71">
      <g>
       <use xlink:href="#ma4818f3f3c" x="90" y="218.949354" style="stroke: #000000; stroke-width: 0.6"/>
      </g>
     </g>
    </g>
    <g id="ytick_48">
     <g id="line2d_72">
      <g>
       <use xlink:href="#ma4818f3f3c" x="90" y="216.44607" style="stroke: #000000; stroke-width: 0.6"/>
      </g>
     </g>
    </g>
    <g id="ytick_49">
     <g id="line2d_73">
      <g>
       <use xlink:href="#ma4818f3f3c" x="90" y="199.475114" style="stroke: #000000; stroke-width: 0.6"/>
      </g>
     </g>
    </g>
    <g id="ytick_50">
     <g id="line2d_74">
      <g>
       <use xlink:href="#ma4818f3f3c" x="90" y="190.857625" style="stroke: #000000; stroke-width: 0.6"/>
      </g>
     </g>
    </g>
    <g id="ytick_51">
     <g id="line2d_75">
      <g>
       <use xlink:href="#ma4818f3f3c" x="90" y="184.74342" style="stroke: #000000; stroke-width: 0.6"/>
      </g>
     </g>
    </g>
    <g id="ytick_52">
     <g id="line2d_76">
      <g>
       <use xlink:href="#ma4818f3f3c" x="90" y="180.000874" style="stroke: #000000; stroke-width: 0.6"/>
      </g>
     </g>
    </g>
    <g id="ytick_53">
     <g id="line2d_77">
      <g>
       <use xlink:href="#ma4818f3f3c" x="90" y="176.125932" style="stroke: #000000; stroke-width: 0.6"/>
      </g>
     </g>
    </g>
    <g id="ytick_54">
     <g id="line2d_78">
      <g>
       <use xlink:href="#ma4818f3f3c" x="90" y="172.849715" style="stroke: #000000; stroke-width: 0.6"/>
      </g>
     </g>
    </g>
    <g id="ytick_55">
     <g id="line2d_79">
      <g>
       <use xlink:href="#ma4818f3f3c" x="90" y="170.011726" style="stroke: #000000; stroke-width: 0.6"/>
      </g>
     </g>
    </g>
    <g id="ytick_56">
     <g id="line2d_80">
      <g>
       <use xlink:href="#ma4818f3f3c" x="90" y="167.508443" style="stroke: #000000; stroke-width: 0.6"/>
      </g>
     </g>
    </g>
    <g id="ytick_57">
     <g id="line2d_81">
      <g>
       <use xlink:href="#ma4818f3f3c" x="90" y="150.537487" style="stroke: #000000; stroke-width: 0.6"/>
      </g>
     </g>
    </g>
    <g id="ytick_58">
     <g id="line2d_82">
      <g>
       <use xlink:href="#ma4818f3f3c" x="90" y="141.919998" style="stroke: #000000; stroke-width: 0.6"/>
      </g>
     </g>
    </g>
    <g id="ytick_59">
     <g id="line2d_83">
      <g>
       <use xlink:href="#ma4818f3f3c" x="90" y="135.805793" style="stroke: #000000; stroke-width: 0.6"/>
      </g>
     </g>
    </g>
    <g id="ytick_60">
     <g id="line2d_84">
      <g>
       <use xlink:href="#ma4818f3f3c" x="90" y="131.063247" style="stroke: #000000; stroke-width: 0.6"/>
      </g>
     </g>
    </g>
    <g id="ytick_61">
     <g id="line2d_85">
      <g>
       <use xlink:href="#ma4818f3f3c" x="90" y="127.188304" style="stroke: #000000; stroke-width: 0.6"/>
      </g>
     </g>
    </g>
    <g id="ytick_62">
     <g id="line2d_86">
      <g>
       <use xlink:href="#ma4818f3f3c" x="90" y="123.912087" style="stroke: #000000; stroke-width: 0.6"/>
      </g>
     </g>
    </g>
    <g id="ytick_63">
     <g id="line2d_87">
      <g>
       <use xlink:href="#ma4818f3f3c" x="90" y="121.074099" style="stroke: #000000; stroke-width: 0.6"/>
      </g>
     </g>
    </g>
    <g id="ytick_64">
     <g id="line2d_88">
      <g>
       <use xlink:href="#ma4818f3f3c" x="90" y="118.570816" style="stroke: #000000; stroke-width: 0.6"/>
      </g>
     </g>
    </g>
    <g id="ytick_65">
     <g id="line2d_89">
      <g>
       <use xlink:href="#ma4818f3f3c" x="90" y="101.599859" style="stroke: #000000; stroke-width: 0.6"/>
      </g>
     </g>
    </g>
    <g id="ytick_66">
     <g id="line2d_90">
      <g>
       <use xlink:href="#ma4818f3f3c" x="90" y="92.982371" style="stroke: #000000; stroke-width: 0.6"/>
      </g>
     </g>
    </g>
    <g id="ytick_67">
     <g id="line2d_91">
      <g>
       <use xlink:href="#ma4818f3f3c" x="90" y="86.868166" style="stroke: #000000; stroke-width: 0.6"/>
      </g>
     </g>
    </g>
    <g id="ytick_68">
     <g id="line2d_92">
      <g>
       <use xlink:href="#ma4818f3f3c" x="90" y="82.125619" style="stroke: #000000; stroke-width: 0.6"/>
      </g>
     </g>
    </g>
    <g id="ytick_69">
     <g id="line2d_93">
      <g>
       <use xlink:href="#ma4818f3f3c" x="90" y="78.250677" style="stroke: #000000; stroke-width: 0.6"/>
      </g>
     </g>
    </g>
    <g id="ytick_70">
     <g id="line2d_94">
      <g>
       <use xlink:href="#ma4818f3f3c" x="90" y="74.97446" style="stroke: #000000; stroke-width: 0.6"/>
      </g>
     </g>
    </g>
    <g id="ytick_71">
     <g id="line2d_95">
      <g>
       <use xlink:href="#ma4818f3f3c" x="90" y="72.136472" style="stroke: #000000; stroke-width: 0.6"/>
      </g>
     </g>
    </g>
    <g id="ytick_72">
     <g id="line2d_96">
      <g>
       <use xlink:href="#ma4818f3f3c" x="90" y="69.633189" style="stroke: #000000; stroke-width: 0.6"/>
      </g>
     </g>
    </g>
    <g id="text_18">
     <!-- |Dhf(x) - f'(x)| -->
     <g transform="translate(53.142187 288.505938) rotate(-90) scale(0.1 -0.1)">
      <defs>
       <path id="DejaVuSans-7c" d="M 1344 4891 
L 1344 -1509 
L 813 -1509 
L 813 4891 
L 1344 4891 
z
" transform="scale(0.015625)"/>
       <path id="DejaVuSans-44" d="M 1259 4147 
L 1259 519 
L 2022 519 
Q 2988 519 3436 956 
Q 3884 1394 3884 2338 
Q 3884 3275 3436 3711 
Q 2988 4147 2022 4147 
L 1259 4147 
z
M 628 4666 
L 1925 4666 
Q 3281 4666 3915 4102 
Q 4550 3538 4550 2338 
Q 4550 1131 3912 565 
Q 3275 0 1925 0 
L 628 0 
L 628 4666 
z
" transform="scale(0.015625)"/>
       <path id="DejaVuSans-66" d="M 2375 4863 
L 2375 4384 
L 1825 4384 
Q 1516 4384 1395 4259 
Q 1275 4134 1275 3809 
L 1275 3500 
L 2222 3500 
L 2222 3053 
L 1275 3053 
L 1275 0 
L 697 0 
L 697 3053 
L 147 3053 
L 147 3500 
L 697 3500 
L 697 3744 
Q 697 4328 969 4595 
Q 1241 4863 1831 4863 
L 2375 4863 
z
" transform="scale(0.015625)"/>
       <path id="DejaVuSans-28" d="M 1984 4856 
Q 1566 4138 1362 3434 
Q 1159 2731 1159 2009 
Q 1159 1288 1364 580 
Q 1569 -128 1984 -844 
L 1484 -844 
Q 1016 -109 783 600 
Q 550 1309 550 2009 
Q 550 2706 781 3412 
Q 1013 4119 1484 4856 
L 1984 4856 
z
" transform="scale(0.015625)"/>
       <path id="DejaVuSans-78" d="M 3513 3500 
L 2247 1797 
L 3578 0 
L 2900 0 
L 1881 1375 
L 863 0 
L 184 0 
L 1544 1831 
L 300 3500 
L 978 3500 
L 1906 2253 
L 2834 3500 
L 3513 3500 
z
" transform="scale(0.015625)"/>
       <path id="DejaVuSans-29" d="M 513 4856 
L 1013 4856 
Q 1481 4119 1714 3412 
Q 1947 2706 1947 2009 
Q 1947 1309 1714 600 
Q 1481 -109 1013 -844 
L 513 -844 
Q 928 -128 1133 580 
Q 1338 1288 1338 2009 
Q 1338 2731 1133 3434 
Q 928 4138 513 4856 
z
" transform="scale(0.015625)"/>
       <path id="DejaVuSans-2d" d="M 313 2009 
L 1997 2009 
L 1997 1497 
L 313 1497 
L 313 2009 
z
" transform="scale(0.015625)"/>
       <path id="DejaVuSans-27" d="M 1147 4666 
L 1147 2931 
L 616 2931 
L 616 4666 
L 1147 4666 
z
" transform="scale(0.015625)"/>
      </defs>
      <use xlink:href="#DejaVuSans-7c"/>
      <use xlink:href="#DejaVuSans-44" x="33.691406"/>
      <use xlink:href="#DejaVuSans-68" x="110.693359"/>
      <use xlink:href="#DejaVuSans-66" x="174.072266"/>
      <use xlink:href="#DejaVuSans-28" x="209.277344"/>
      <use xlink:href="#DejaVuSans-78" x="248.291016"/>
      <use xlink:href="#DejaVuSans-29" x="307.470703"/>
      <use xlink:href="#DejaVuSans-20" x="346.484375"/>
      <use xlink:href="#DejaVuSans-2d" x="378.271484"/>
      <use xlink:href="#DejaVuSans-20" x="414.355469"/>
      <use xlink:href="#DejaVuSans-66" x="446.142578"/>
      <use xlink:href="#DejaVuSans-27" x="481.347656"/>
      <use xlink:href="#DejaVuSans-28" x="508.837891"/>
      <use xlink:href="#DejaVuSans-78" x="547.851562"/>
      <use xlink:href="#DejaVuSans-29" x="607.03125"/>
      <use xlink:href="#DejaVuSans-7c" x="646.044922"/>
     </g>
    </g>
   </g>
   <g id="line2d_97">
    <path d="M 115.363636 86.885172 
L 364.342237 86.885172 
L 365.189103 87.636597 
L 366.882835 93.348138 
L 368.576567 100.113342 
L 369.423433 104.094125 
L 370.270299 108.670041 
L 371.117165 114.112263 
L 371.964031 120.930201 
L 372.810897 130.271637 
L 373.657763 145.828873 
L 374.504629 235.319381 
L 375.351495 146.495146 
L 376.198361 132.565278 
L 377.045227 124.637595 
L 377.892093 119.180022 
L 378.738959 115.076818 
L 379.585825 111.829235 
L 380.432691 112.536083 
L 381.279557 118.909023 
L 382.126423 127.382689 
L 382.973289 140.504757 
L 383.820155 175.050592 
L 384.667021 152.887302 
L 385.513887 135.447517 
L 386.360753 126.4589 
L 387.207619 122.027265 
L 388.054485 131.89233 
L 388.901351 149.122268 
L 389.748217 186.173961 
L 390.595083 143.879252 
L 391.441949 131.247822 
L 392.288815 136.186349 
L 393.135681 159.522239 
L 393.982547 162.264861 
L 394.829413 138.843398 
L 395.676279 142.37653 
L 396.523145 186.005367 
L 397.370011 150.224245 
L 398.216877 143.06785 
L 399.063743 191.682952 
L 399.910609 149.371435 
L 400.757475 155.791791 
L 401.604341 167.148045 
L 402.451207 150.524605 
L 403.298073 179.902661 
L 404.144939 152.985162 
L 404.991805 172.606823 
L 405.838671 164.19091 
L 406.685537 158.196145 
L 407.532402 222.219905 
L 408.379268 166.088174 
L 409.226134 156.946297 
L 410.073 171.124357 
L 410.919866 193.743342 
L 411.766732 235.609396 
L 412.613598 204.474336 
L 413.460464 209.84556 
L 414.30733 228.480241 
L 415.154196 187.772208 
L 416.001062 171.400369 
L 416.847928 176.159002 
L 417.694794 217.201354 
L 418.54166 170.13883 
L 419.388526 213.559417 
L 420.235392 184.610169 
L 421.082258 174.429745 
L 421.929124 182.459119 
L 422.77599 184.467535 
L 423.622856 179.559612 
L 424.469722 189.743954 
L 425.316588 215.720953 
L 426.163454 188.166099 
L 427.01032 190.78821 
L 427.857186 201.661045 
L 428.704052 197.893424 
L 429.550918 187.880066 
L 430.397784 267.595253 
L 431.24465 197.840097 
L 432.091516 194.159634 
L 433.785248 217.026433 
L 434.632114 222.595321 
L 435.47898 224.381017 
L 436.325846 217.590486 
L 437.172712 223.69314 
L 438.019578 227.480204 
L 438.866444 214.616153 
L 439.71331 244.840854 
L 440.560176 214.211599 
L 441.407042 326.270768 
L 442.253908 227.761588 
L 443.100774 238.481389 
L 443.94764 236.236509 
L 444.794506 277.369079 
L 445.641372 213.948716 
L 447.335104 218.324369 
L 448.18197 313.519648 
L 449.028836 222.525869 
L 449.875702 223.424229 
L 451.569434 245.630065 
L 452.4163 277.66276 
L 453.263166 246.481905 
L 454.110032 225.621334 
L 454.956898 257.679079 
L 455.803764 331.248902 
L 456.65063 240.41875 
L 457.497496 282.380823 
L 458.344362 237.446733 
L 459.191228 238.864646 
L 460.038094 260.388047 
L 460.88496 254.970394 
L 461.731826 237.314453 
L 462.578692 249.664933 
L 463.425558 245.778594 
L 464.272424 266.571197 
L 465.11929 279.88669 
L 465.966156 254.521925 
L 466.813022 248.30726 
L 467.659888 265.071323 
L 468.506754 259.738656 
L 469.35362 271.893991 
L 470.200486 279.997081 
L 471.047352 258.250706 
L 471.894218 269.635804 
L 472.741084 262.92209 
L 473.58795 263.185147 
L 474.434816 311.396475 
L 475.281682 288.898563 
L 476.128548 293.033787 
L 476.975414 275.981828 
L 477.82228 297.030774 
L 478.669146 274.07757 
L 479.516012 282.349708 
L 480.362878 308.454294 
L 481.209744 271.10511 
L 482.05661 307.238349 
L 482.903475 273.06888 
L 483.750341 290.847736 
L 484.597207 266.249857 
L 485.444073 288.654734 
L 486.290939 262.048327 
L 487.137805 264.82633 
L 487.984671 291.116387 
L 488.831537 287.905184 
L 489.678403 262.718378 
L 490.525269 275.819289 
L 491.372135 269.891992 
L 492.219001 274.247167 
L 493.065867 267.682669 
L 493.912733 260.212279 
L 494.759599 269.506007 
L 495.606465 271.165507 
L 496.453331 259.03949 
L 497.300197 256.41011 
L 498.147063 256.2381 
L 498.993929 256.440959 
L 499.840795 256.292348 
L 500.687661 256.015524 
L 501.534527 256.55211 
L 503.228259 251.092222 
L 504.075125 250.54842 
L 504.921991 250.775623 
L 505.768857 248.117693 
L 506.615723 246.620187 
L 507.462589 244.313298 
L 508.309455 244.610964 
L 509.156321 242.552295 
L 510.003187 242.14127 
L 510.850053 240.275168 
L 511.696919 238.112228 
L 512.543785 237.768514 
L 513.390651 235.786666 
L 514.237517 234.822599 
L 515.931249 232.289019 
L 516.778115 230.630925 
L 517.624981 229.785823 
L 518.471847 228.244248 
L 521.859311 223.14098 
L 522.706177 221.695905 
L 524.399909 219.154278 
L 527.787373 213.907118 
L 533.715435 204.719858 
L 554.887085 172.058458 
L 599.770982 102.992862 
L 607.392776 91.632322 
L 611.627106 85.716354 
L 614.167704 82.518666 
L 615.861436 80.663731 
L 617.555168 79.171384 
L 618.402034 78.622685 
L 619.2489 78.254594 
L 620.095766 78.12 
L 620.942632 78.29226 
L 621.789498 78.876572 
L 622.636364 80.030941 
L 622.636364 80.030941 
" clip-path="url(#pf859915891)" style="fill: none; stroke: #1f77b4; stroke-width: 1.5; stroke-linecap: square"/>
   </g>
   <g id="line2d_98">
    <path d="M 115.363636 86.885172 
L 364.342237 86.885172 
L 365.189103 87.636599 
L 366.882835 93.34814 
L 368.576567 100.113344 
L 369.423433 104.094128 
L 370.270299 108.670044 
L 371.117165 114.112267 
L 371.964031 120.930205 
L 372.810897 130.271644 
L 373.657763 145.828887 
L 374.504629 235.318526 
L 375.351495 146.495133 
L 376.198361 132.565272 
L 377.045227 124.637591 
L 377.892093 119.18002 
L 378.738959 115.076815 
L 379.585825 111.829233 
L 380.432691 112.53609 
L 381.279557 118.909031 
L 382.126423 127.382701 
L 382.973289 140.504778 
L 383.820155 175.050694 
L 384.667021 152.887268 
L 385.513887 135.447503 
L 386.360753 126.458891 
L 387.207619 122.02728 
L 388.054485 131.892352 
L 388.901351 149.122315 
L 389.748217 186.17371 
L 390.595083 143.87922 
L 391.441949 131.247806 
L 392.288815 136.186384 
L 393.135681 159.522338 
L 393.982547 162.264754 
L 394.829413 138.843364 
L 395.676279 142.376587 
L 396.523145 186.005789 
L 397.370011 150.224172 
L 398.216877 143.067922 
L 399.063743 191.683613 
L 399.910609 149.37135 
L 400.757475 155.791938 
L 401.604341 167.14781 
L 402.451207 150.524737 
L 403.298073 179.902165 
L 404.144939 152.985328 
L 404.991805 172.606429 
L 405.838671 164.191218 
L 406.685537 158.195927 
L 407.532402 222.214855 
L 408.379268 166.088577 
L 409.226134 156.946051 
L 410.073 171.123827 
L 410.919866 193.741667 
L 411.766732 235.622365 
L 412.613598 204.477541 
L 413.460464 209.849942 
L 414.30733 228.469145 
L 415.154196 187.770495 
L 416.001062 171.399543 
L 416.847928 176.160178 
L 417.694794 217.193022 
L 418.54166 170.139842 
L 419.388526 213.551483 
L 420.235392 184.612385 
L 421.082258 174.42836 
L 421.929124 182.456948 
L 422.77599 184.464992 
L 423.622856 179.557477 
L 424.469722 189.747776 
L 425.316588 215.707439 
L 426.163454 188.170116 
L 427.01032 190.78353 
L 427.857186 201.652694 
L 428.704052 197.885999 
L 429.550918 187.885137 
L 430.397784 267.822076 
L 431.24465 197.849202 
L 432.091516 194.167794 
L 433.785248 216.999855 
L 434.632114 222.632394 
L 435.47898 224.423891 
L 436.325846 217.557664 
L 437.172712 223.740091 
L 438.019578 227.539859 
L 438.866444 214.581858 
L 439.71331 244.689502 
L 440.560176 214.173553 
L 441.407042 336.200716 
L 442.253908 227.680081 
L 443.100774 238.626305 
L 443.94764 236.099229 
L 444.794506 278.410705 
L 445.641372 213.89439 
L 447.335104 218.248853 
L 448.18197 322.192808 
L 449.028836 222.421794 
L 449.875702 223.541057 
L 451.569434 246.007176 
L 452.4163 279.535615 
L 453.263166 246.047363 
L 454.110032 225.797722 
L 454.956898 256.854098 
L 455.803764 313.161029 
L 456.65063 240.000927 
L 457.497496 279.368874 
L 458.344362 237.035906 
L 459.191228 238.39818 
L 460.038094 259.048992 
L 460.88496 256.142712 
L 461.731826 236.793661 
L 462.578692 248.684659 
L 463.425558 244.908248 
L 464.272424 269.25015 
L 465.11929 285.596604 
L 465.966156 256.201794 
L 466.813022 247.064406 
L 467.659888 262.267648 
L 468.506754 257.393401 
L 469.35362 277.174829 
L 470.200486 273.739459 
L 471.047352 255.637899 
L 471.894218 275.410503 
L 473.58795 259.337578 
L 474.434816 287.762683 
L 475.281682 276.971198 
L 476.128548 369.584242 
L 476.975414 289.227524 
L 477.82228 279.077481 
L 478.669146 265.755924 
L 479.516012 312.030954 
L 480.362878 280.462203 
L 481.209744 285.898948 
L 482.05661 293.389852 
L 482.903475 293.743267 
L 483.750341 271.153136 
L 484.597207 281.426986 
L 485.444073 301.091354 
L 486.290939 275.689532 
L 487.137805 282.96293 
L 487.984671 289.045766 
L 488.831537 289.626879 
L 489.678403 283.572489 
L 490.525269 306.954964 
L 491.372135 369.133724 
L 492.219001 300.342563 
L 493.065867 366.259148 
L 493.912733 290.159035 
L 494.759599 299.484558 
L 495.606465 289.088732 
L 496.453331 300.811081 
L 497.300197 291.49186 
L 498.147063 296.898564 
L 498.993929 308.859498 
L 500.687661 346.272006 
L 501.534527 304.218186 
L 502.381393 324.551581 
L 503.228259 324.015039 
L 504.075125 373.970812 
L 504.921991 304.987503 
L 505.768857 342.65523 
L 506.615723 372.400738 
L 507.462589 311.026177 
L 508.309455 318.023458 
L 509.156321 358.955843 
L 510.003187 311.285465 
L 510.850053 334.773426 
L 511.696919 313.995518 
L 512.543785 324.552401 
L 513.390651 325.234649 
L 514.237517 378.89479 
L 515.084383 345.543936 
L 515.931249 345.144998 
L 516.778115 325.57668 
L 517.624981 327.244659 
L 518.471847 378.383373 
L 519.318713 355.171782 
L 520.165579 343.21141 
L 521.012445 351.323057 
L 521.859311 335.572619 
L 522.706177 360.808401 
L 523.553043 337.708274 
L 524.399909 351.516277 
L 525.246775 336.279692 
L 526.093641 385.648468 
L 526.940507 343.945951 
L 528.634239 372.98294 
L 529.481105 372.967418 
L 530.327971 349.202495 
L 531.174837 355.853341 
L 532.021703 373.616239 
L 532.868569 380.225752 
L 533.715435 361.598954 
L 534.562301 351.027756 
L 535.409167 366.967463 
L 536.256033 363.63093 
L 537.102899 359.005669 
L 537.949765 373.434211 
L 538.796631 365.93177 
L 539.643497 369.958639 
L 540.490363 364.707802 
L 541.337229 371.604845 
L 542.184095 361.838865 
L 543.030961 383.694462 
L 543.877827 398.274889 
L 544.724693 404.502771 
L 545.571559 365.280592 
L 546.418425 430.92 
L 547.265291 387.212951 
L 548.112157 364.120641 
L 548.959023 358.802781 
L 549.805889 362.409449 
L 550.652755 363.946434 
L 551.499621 357.840762 
L 552.346487 356.675986 
L 553.193353 361.137868 
L 554.040219 358.111059 
L 554.887085 351.056048 
L 555.733951 347.186177 
L 556.580817 348.877777 
L 557.427683 346.624023 
L 558.274548 342.393498 
L 560.815146 336.783872 
L 561.662012 332.471353 
L 564.20261 324.101592 
L 567.590074 314.409612 
L 569.283806 308.938164 
L 570.977538 304.005829 
L 571.824404 301.082893 
L 574.365002 293.287677 
L 587.914858 250.618123 
L 592.996054 233.892581 
L 597.230384 219.229007 
L 600.617848 206.752043 
L 604.005312 193.361192 
L 607.392776 178.851427 
L 610.78024 163.119334 
L 614.167704 146.226275 
L 618.402034 123.90278 
L 622.636364 101.33074 
L 622.636364 101.33074 
" clip-path="url(#pf859915891)" style="fill: none; stroke: #ff7f0e; stroke-width: 1.5; stroke-linecap: square"/>
   </g>
   <g id="patch_3">
    <path d="M 90 448.56 
L 90 60.48 
" style="fill: none; stroke: #000000; stroke-width: 0.8; stroke-linejoin: miter; stroke-linecap: square"/>
   </g>
   <g id="patch_4">
    <path d="M 648 448.56 
L 648 60.48 
" style="fill: none; stroke: #000000; stroke-width: 0.8; stroke-linejoin: miter; stroke-linecap: square"/>
   </g>
   <g id="patch_5">
    <path d="M 90 448.56 
L 648 448.56 
" style="fill: none; stroke: #000000; stroke-width: 0.8; stroke-linejoin: miter; stroke-linecap: square"/>
   </g>
   <g id="patch_6">
    <path d="M 90 60.48 
L 648 60.48 
" style="fill: none; stroke: #000000; stroke-width: 0.8; stroke-linejoin: miter; stroke-linecap: square"/>
   </g>
   <g id="text_19">
    <!-- Błąd przybliżenia pochodnej dla f(x) = sin(x^2) i x = 0.2 -->
    <g transform="translate(199.306875 54.48) scale(0.12 -0.12)">
     <defs>
      <path id="DejaVuSans-42" d="M 1259 2228 
L 1259 519 
L 2272 519 
Q 2781 519 3026 730 
Q 3272 941 3272 1375 
Q 3272 1813 3026 2020 
Q 2781 2228 2272 2228 
L 1259 2228 
z
M 1259 4147 
L 1259 2741 
L 2194 2741 
Q 2656 2741 2882 2914 
Q 3109 3088 3109 3444 
Q 3109 3797 2882 3972 
Q 2656 4147 2194 4147 
L 1259 4147 
z
M 628 4666 
L 2241 4666 
Q 2963 4666 3353 4366 
Q 3744 4066 3744 3513 
Q 3744 3084 3544 2831 
Q 3344 2578 2956 2516 
Q 3422 2416 3680 2098 
Q 3938 1781 3938 1306 
Q 3938 681 3513 340 
Q 3088 0 2303 0 
L 628 0 
L 628 4666 
z
" transform="scale(0.015625)"/>
      <path id="DejaVuSans-142" d="M 622 4863 
L 1197 4863 
L 1197 2981 
L 1588 3263 
L 1825 2931 
L 1197 2491 
L 1197 0 
L 622 0 
L 622 2081 
L 238 1806 
L 6 2138 
L 622 2578 
L 622 4863 
z
" transform="scale(0.015625)"/>
      <path id="DejaVuSans-105" d="M 2194 1759 
Q 1497 1759 1228 1600 
Q 959 1441 959 1056 
Q 959 750 1161 570 
Q 1363 391 1709 391 
Q 2188 391 2477 730 
Q 2766 1069 2766 1631 
L 2766 1759 
L 2194 1759 
z
M 3341 1997 
L 3341 0 
L 2766 0 
L 2766 531 
Q 2569 213 2275 61 
Q 1981 -91 1556 -91 
Q 1019 -91 701 211 
Q 384 513 384 1019 
Q 384 1609 779 1909 
Q 1175 2209 1959 2209 
L 2766 2209 
L 2766 2266 
Q 2766 2663 2505 2880 
Q 2244 3097 1772 3097 
Q 1472 3097 1187 3025 
Q 903 2953 641 2809 
L 641 3341 
Q 956 3463 1253 3523 
Q 1550 3584 1831 3584 
Q 2591 3584 2966 3190 
Q 3341 2797 3341 1997 
z
M 2775 0 
L 3147 0 
Q 3006 -191 2939 -328 
Q 2872 -466 2872 -563 
Q 2872 -706 2958 -778 
Q 3044 -850 3213 -850 
Q 3313 -850 3409 -826 
Q 3506 -803 3603 -756 
L 3603 -1172 
Q 3484 -1203 3378 -1218 
Q 3272 -1234 3178 -1234 
Q 2797 -1234 2617 -1098 
Q 2438 -963 2438 -672 
Q 2438 -522 2520 -358 
Q 2603 -194 2775 0 
z
" transform="scale(0.015625)"/>
      <path id="DejaVuSans-64" d="M 2906 2969 
L 2906 4863 
L 3481 4863 
L 3481 0 
L 2906 0 
L 2906 525 
Q 2725 213 2448 61 
Q 2172 -91 1784 -91 
Q 1150 -91 751 415 
Q 353 922 353 1747 
Q 353 2572 751 3078 
Q 1150 3584 1784 3584 
Q 2172 3584 2448 3432 
Q 2725 3281 2906 2969 
z
M 947 1747 
Q 947 1113 1208 752 
Q 1469 391 1925 391 
Q 2381 391 2643 752 
Q 2906 1113 2906 1747 
Q 2906 2381 2643 2742 
Q 2381 3103 1925 3103 
Q 1469 3103 1208 2742 
Q 947 2381 947 1747 
z
" transform="scale(0.015625)"/>
      <path id="DejaVuSans-70" d="M 1159 525 
L 1159 -1331 
L 581 -1331 
L 581 3500 
L 1159 3500 
L 1159 2969 
Q 1341 3281 1617 3432 
Q 1894 3584 2278 3584 
Q 2916 3584 3314 3078 
Q 3713 2572 3713 1747 
Q 3713 922 3314 415 
Q 2916 -91 2278 -91 
Q 1894 -91 1617 61 
Q 1341 213 1159 525 
z
M 3116 1747 
Q 3116 2381 2855 2742 
Q 2594 3103 2138 3103 
Q 1681 3103 1420 2742 
Q 1159 2381 1159 1747 
Q 1159 1113 1420 752 
Q 1681 391 2138 391 
Q 2594 391 2855 752 
Q 3116 1113 3116 1747 
z
" transform="scale(0.015625)"/>
      <path id="DejaVuSans-7a" d="M 353 3500 
L 3084 3500 
L 3084 2975 
L 922 459 
L 3084 459 
L 3084 0 
L 275 0 
L 275 525 
L 2438 3041 
L 353 3041 
L 353 3500 
z
" transform="scale(0.015625)"/>
      <path id="DejaVuSans-79" d="M 2059 -325 
Q 1816 -950 1584 -1140 
Q 1353 -1331 966 -1331 
L 506 -1331 
L 506 -850 
L 844 -850 
Q 1081 -850 1212 -737 
Q 1344 -625 1503 -206 
L 1606 56 
L 191 3500 
L 800 3500 
L 1894 763 
L 2988 3500 
L 3597 3500 
L 2059 -325 
z
" transform="scale(0.015625)"/>
      <path id="DejaVuSans-62" d="M 3116 1747 
Q 3116 2381 2855 2742 
Q 2594 3103 2138 3103 
Q 1681 3103 1420 2742 
Q 1159 2381 1159 1747 
Q 1159 1113 1420 752 
Q 1681 391 2138 391 
Q 2594 391 2855 752 
Q 3116 1113 3116 1747 
z
M 1159 2969 
Q 1341 3281 1617 3432 
Q 1894 3584 2278 3584 
Q 2916 3584 3314 3078 
Q 3713 2572 3713 1747 
Q 3713 922 3314 415 
Q 2916 -91 2278 -91 
Q 1894 -91 1617 61 
Q 1341 213 1159 525 
L 1159 0 
L 581 0 
L 581 4863 
L 1159 4863 
L 1159 2969 
z
" transform="scale(0.015625)"/>
      <path id="DejaVuSans-6c" d="M 603 4863 
L 1178 4863 
L 1178 0 
L 603 0 
L 603 4863 
z
" transform="scale(0.015625)"/>
      <path id="DejaVuSans-69" d="M 603 3500 
L 1178 3500 
L 1178 0 
L 603 0 
L 603 3500 
z
M 603 4863 
L 1178 4863 
L 1178 4134 
L 603 4134 
L 603 4863 
z
" transform="scale(0.015625)"/>
      <path id="DejaVuSans-17c" d="M 1378 4863 
L 1953 4863 
L 1953 4134 
L 1378 4134 
L 1378 4863 
z
M 1672 3584 
L 1672 3584 
z
M 353 3500 
L 3084 3500 
L 3084 2975 
L 922 459 
L 3084 459 
L 3084 0 
L 275 0 
L 275 525 
L 2438 3041 
L 353 3041 
L 353 3500 
z
" transform="scale(0.015625)"/>
      <path id="DejaVuSans-65" d="M 3597 1894 
L 3597 1613 
L 953 1613 
Q 991 1019 1311 708 
Q 1631 397 2203 397 
Q 2534 397 2845 478 
Q 3156 559 3463 722 
L 3463 178 
Q 3153 47 2828 -22 
Q 2503 -91 2169 -91 
Q 1331 -91 842 396 
Q 353 884 353 1716 
Q 353 2575 817 3079 
Q 1281 3584 2069 3584 
Q 2775 3584 3186 3129 
Q 3597 2675 3597 1894 
z
M 3022 2063 
Q 3016 2534 2758 2815 
Q 2500 3097 2075 3097 
Q 1594 3097 1305 2825 
Q 1016 2553 972 2059 
L 3022 2063 
z
" transform="scale(0.015625)"/>
      <path id="DejaVuSans-6e" d="M 3513 2113 
L 3513 0 
L 2938 0 
L 2938 2094 
Q 2938 2591 2744 2837 
Q 2550 3084 2163 3084 
Q 1697 3084 1428 2787 
Q 1159 2491 1159 1978 
L 1159 0 
L 581 0 
L 581 3500 
L 1159 3500 
L 1159 2956 
Q 1366 3272 1645 3428 
Q 1925 3584 2291 3584 
Q 2894 3584 3203 3211 
Q 3513 2838 3513 2113 
z
" transform="scale(0.015625)"/>
      <path id="DejaVuSans-63" d="M 3122 3366 
L 3122 2828 
Q 2878 2963 2633 3030 
Q 2388 3097 2138 3097 
Q 1578 3097 1268 2742 
Q 959 2388 959 1747 
Q 959 1106 1268 751 
Q 1578 397 2138 397 
Q 2388 397 2633 464 
Q 2878 531 3122 666 
L 3122 134 
Q 2881 22 2623 -34 
Q 2366 -91 2075 -91 
Q 1284 -91 818 406 
Q 353 903 353 1747 
Q 353 2603 823 3093 
Q 1294 3584 2113 3584 
Q 2378 3584 2631 3529 
Q 2884 3475 3122 3366 
z
" transform="scale(0.015625)"/>
      <path id="DejaVuSans-6a" d="M 603 3500 
L 1178 3500 
L 1178 -63 
Q 1178 -731 923 -1031 
Q 669 -1331 103 -1331 
L -116 -1331 
L -116 -844 
L 38 -844 
Q 366 -844 484 -692 
Q 603 -541 603 -63 
L 603 3500 
z
M 603 4863 
L 1178 4863 
L 1178 4134 
L 603 4134 
L 603 4863 
z
" transform="scale(0.015625)"/>
      <path id="DejaVuSans-3d" d="M 678 2906 
L 4684 2906 
L 4684 2381 
L 678 2381 
L 678 2906 
z
M 678 1631 
L 4684 1631 
L 4684 1100 
L 678 1100 
L 678 1631 
z
" transform="scale(0.015625)"/>
      <path id="DejaVuSans-73" d="M 2834 3397 
L 2834 2853 
Q 2591 2978 2328 3040 
Q 2066 3103 1784 3103 
Q 1356 3103 1142 2972 
Q 928 2841 928 2578 
Q 928 2378 1081 2264 
Q 1234 2150 1697 2047 
L 1894 2003 
Q 2506 1872 2764 1633 
Q 3022 1394 3022 966 
Q 3022 478 2636 193 
Q 2250 -91 1575 -91 
Q 1294 -91 989 -36 
Q 684 19 347 128 
L 347 722 
Q 666 556 975 473 
Q 1284 391 1588 391 
Q 1994 391 2212 530 
Q 2431 669 2431 922 
Q 2431 1156 2273 1281 
Q 2116 1406 1581 1522 
L 1381 1569 
Q 847 1681 609 1914 
Q 372 2147 372 2553 
Q 372 3047 722 3315 
Q 1072 3584 1716 3584 
Q 2034 3584 2315 3537 
Q 2597 3491 2834 3397 
z
" transform="scale(0.015625)"/>
      <path id="DejaVuSans-5e" d="M 2988 4666 
L 4684 2925 
L 4056 2925 
L 2681 4159 
L 1306 2925 
L 678 2925 
L 2375 4666 
L 2988 4666 
z
" transform="scale(0.015625)"/>
      <path id="DejaVuSans-2e" d="M 684 794 
L 1344 794 
L 1344 0 
L 684 0 
L 684 794 
z
" transform="scale(0.015625)"/>
     </defs>
     <use xlink:href="#DejaVuSans-42"/>
     <use xlink:href="#DejaVuSans-142" x="68.603516"/>
     <use xlink:href="#DejaVuSans-105" x="97.021484"/>
     <use xlink:href="#DejaVuSans-64" x="158.300781"/>
     <use xlink:href="#DejaVuSans-20" x="221.777344"/>
     <use xlink:href="#DejaVuSans-70" x="253.564453"/>
     <use xlink:href="#DejaVuSans-72" x="317.041016"/>
     <use xlink:href="#DejaVuSans-7a" x="358.154297"/>
     <use xlink:href="#DejaVuSans-79" x="410.644531"/>
     <use xlink:href="#DejaVuSans-62" x="469.824219"/>
     <use xlink:href="#DejaVuSans-6c" x="533.300781"/>
     <use xlink:href="#DejaVuSans-69" x="561.083984"/>
     <use xlink:href="#DejaVuSans-17c" x="588.867188"/>
     <use xlink:href="#DejaVuSans-65" x="641.357422"/>
     <use xlink:href="#DejaVuSans-6e" x="702.880859"/>
     <use xlink:href="#DejaVuSans-69" x="766.259766"/>
     <use xlink:href="#DejaVuSans-61" x="794.042969"/>
     <use xlink:href="#DejaVuSans-20" x="855.322266"/>
     <use xlink:href="#DejaVuSans-70" x="887.109375"/>
     <use xlink:href="#DejaVuSans-6f" x="950.585938"/>
     <use xlink:href="#DejaVuSans-63" x="1011.767578"/>
     <use xlink:href="#DejaVuSans-68" x="1066.748047"/>
     <use xlink:href="#DejaVuSans-6f" x="1130.126953"/>
     <use xlink:href="#DejaVuSans-64" x="1191.308594"/>
     <use xlink:href="#DejaVuSans-6e" x="1254.785156"/>
     <use xlink:href="#DejaVuSans-65" x="1318.164062"/>
     <use xlink:href="#DejaVuSans-6a" x="1379.6875"/>
     <use xlink:href="#DejaVuSans-20" x="1407.470703"/>
     <use xlink:href="#DejaVuSans-64" x="1439.257812"/>
     <use xlink:href="#DejaVuSans-6c" x="1502.734375"/>
     <use xlink:href="#DejaVuSans-61" x="1530.517578"/>
     <use xlink:href="#DejaVuSans-20" x="1591.796875"/>
     <use xlink:href="#DejaVuSans-66" x="1623.583984"/>
     <use xlink:href="#DejaVuSans-28" x="1658.789062"/>
     <use xlink:href="#DejaVuSans-78" x="1697.802734"/>
     <use xlink:href="#DejaVuSans-29" x="1756.982422"/>
     <use xlink:href="#DejaVuSans-20" x="1795.996094"/>
     <use xlink:href="#DejaVuSans-3d" x="1827.783203"/>
     <use xlink:href="#DejaVuSans-20" x="1911.572266"/>
     <use xlink:href="#DejaVuSans-73" x="1943.359375"/>
     <use xlink:href="#DejaVuSans-69" x="1995.458984"/>
     <use xlink:href="#DejaVuSans-6e" x="2023.242188"/>
     <use xlink:href="#DejaVuSans-28" x="2086.621094"/>
     <use xlink:href="#DejaVuSans-78" x="2125.634766"/>
     <use xlink:href="#DejaVuSans-5e" x="2184.814453"/>
     <use xlink:href="#DejaVuSans-32" x="2268.603516"/>
     <use xlink:href="#DejaVuSans-29" x="2332.226562"/>
     <use xlink:href="#DejaVuSans-20" x="2371.240234"/>
     <use xlink:href="#DejaVuSans-69" x="2403.027344"/>
     <use xlink:href="#DejaVuSans-20" x="2430.810547"/>
     <use xlink:href="#DejaVuSans-78" x="2462.597656"/>
     <use xlink:href="#DejaVuSans-20" x="2521.777344"/>
     <use xlink:href="#DejaVuSans-3d" x="2553.564453"/>
     <use xlink:href="#DejaVuSans-20" x="2637.353516"/>
     <use xlink:href="#DejaVuSans-30" x="2669.140625"/>
     <use xlink:href="#DejaVuSans-2e" x="2732.763672"/>
     <use xlink:href="#DejaVuSans-32" x="2764.550781"/>
    </g>
   </g>
   <g id="legend_1">
    <g id="patch_7">
     <path d="M 97 443.56 
L 245.245313 443.56 
Q 247.245313 443.56 247.245313 441.56 
L 247.245313 413.20375 
Q 247.245313 411.20375 245.245313 411.20375 
L 97 411.20375 
Q 95 411.20375 95 413.20375 
L 95 441.56 
Q 95 443.56 97 443.56 
z
" style="fill: #ffffff; opacity: 0.8; stroke: #cccccc; stroke-linejoin: miter"/>
    </g>
    <g id="line2d_99">
     <path d="M 99 419.302188 
L 109 419.302188 
L 119 419.302188 
" style="fill: none; stroke: #1f77b4; stroke-width: 1.5; stroke-linecap: square"/>
    </g>
    <g id="text_20">
     <!-- błąd wzoru (a) dla float -->
     <g transform="translate(127 422.802188) scale(0.1 -0.1)">
      <defs>
       <path id="DejaVuSans-75" d="M 544 1381 
L 544 3500 
L 1119 3500 
L 1119 1403 
Q 1119 906 1312 657 
Q 1506 409 1894 409 
Q 2359 409 2629 706 
Q 2900 1003 2900 1516 
L 2900 3500 
L 3475 3500 
L 3475 0 
L 2900 0 
L 2900 538 
Q 2691 219 2414 64 
Q 2138 -91 1772 -91 
Q 1169 -91 856 284 
Q 544 659 544 1381 
z
M 1991 3584 
L 1991 3584 
z
" transform="scale(0.015625)"/>
      </defs>
      <use xlink:href="#DejaVuSans-62"/>
      <use xlink:href="#DejaVuSans-142" x="63.476562"/>
      <use xlink:href="#DejaVuSans-105" x="91.894531"/>
      <use xlink:href="#DejaVuSans-64" x="153.173828"/>
      <use xlink:href="#DejaVuSans-20" x="216.650391"/>
      <use xlink:href="#DejaVuSans-77" x="248.4375"/>
      <use xlink:href="#DejaVuSans-7a" x="330.224609"/>
      <use xlink:href="#DejaVuSans-6f" x="382.714844"/>
      <use xlink:href="#DejaVuSans-72" x="443.896484"/>
      <use xlink:href="#DejaVuSans-75" x="485.009766"/>
      <use xlink:href="#DejaVuSans-20" x="548.388672"/>
      <use xlink:href="#DejaVuSans-28" x="580.175781"/>
      <use xlink:href="#DejaVuSans-61" x="619.189453"/>
      <use xlink:href="#DejaVuSans-29" x="680.46875"/>
      <use xlink:href="#DejaVuSans-20" x="719.482422"/>
      <use xlink:href="#DejaVuSans-64" x="751.269531"/>
      <use xlink:href="#DejaVuSans-6c" x="814.746094"/>
      <use xlink:href="#DejaVuSans-61" x="842.529297"/>
      <use xlink:href="#DejaVuSans-20" x="903.808594"/>
      <use xlink:href="#DejaVuSans-66" x="935.595703"/>
      <use xlink:href="#DejaVuSans-6c" x="970.800781"/>
      <use xlink:href="#DejaVuSans-6f" x="998.583984"/>
      <use xlink:href="#DejaVuSans-61" x="1059.765625"/>
      <use xlink:href="#DejaVuSans-74" x="1121.044922"/>
     </g>
    </g>
    <g id="line2d_100">
     <path d="M 99 433.980312 
L 109 433.980312 
L 119 433.980312 
" style="fill: none; stroke: #ff7f0e; stroke-width: 1.5; stroke-linecap: square"/>
    </g>
    <g id="text_21">
     <!-- błąd wzoru (b) dla float -->
     <g transform="translate(127 437.480312) scale(0.1 -0.1)">
      <use xlink:href="#DejaVuSans-62"/>
      <use xlink:href="#DejaVuSans-142" x="63.476562"/>
      <use xlink:href="#DejaVuSans-105" x="91.894531"/>
      <use xlink:href="#DejaVuSans-64" x="153.173828"/>
      <use xlink:href="#DejaVuSans-20" x="216.650391"/>
      <use xlink:href="#DejaVuSans-77" x="248.4375"/>
      <use xlink:href="#DejaVuSans-7a" x="330.224609"/>
      <use xlink:href="#DejaVuSans-6f" x="382.714844"/>
      <use xlink:href="#DejaVuSans-72" x="443.896484"/>
      <use xlink:href="#DejaVuSans-75" x="485.009766"/>
      <use xlink:href="#DejaVuSans-20" x="548.388672"/>
      <use xlink:href="#DejaVuSans-28" x="580.175781"/>
      <use xlink:href="#DejaVuSans-62" x="619.189453"/>
      <use xlink:href="#DejaVuSans-29" x="682.666016"/>
      <use xlink:href="#DejaVuSans-20" x="721.679688"/>
      <use xlink:href="#DejaVuSans-64" x="753.466797"/>
      <use xlink:href="#DejaVuSans-6c" x="816.943359"/>
      <use xlink:href="#DejaVuSans-61" x="844.726562"/>
      <use xlink:href="#DejaVuSans-20" x="906.005859"/>
      <use xlink:href="#DejaVuSans-66" x="937.792969"/>
      <use xlink:href="#DejaVuSans-6c" x="972.998047"/>
      <use xlink:href="#DejaVuSans-6f" x="1000.78125"/>
      <use xlink:href="#DejaVuSans-61" x="1061.962891"/>
      <use xlink:href="#DejaVuSans-74" x="1123.242188"/>
     </g>
    </g>
   </g>
  </g>
 </g>
 <defs>
  <clipPath id="pf859915891">
   <rect x="90" y="60.48" width="558" height="388.08"/>
  </clipPath>
 </defs>
</svg>
