<?xml version="1.0" encoding="utf-8" standalone="no"?>
<!DOCTYPE svg PUBLIC "-//W3C//DTD SVG 1.1//EN"
  "http://www.w3.org/Graphics/SVG/1.1/DTD/svg11.dtd">
<svg xmlns:xlink="http://www.w3.org/1999/xlink" width="460.8pt" height="345.6pt" viewBox="0 0 460.8 345.6" xmlns="http://www.w3.org/2000/svg" version="1.1">
 <metadata>
  <rdf:RDF xmlns:dc="http://purl.org/dc/elements/1.1/" xmlns:cc="http://creativecommons.org/ns#" xmlns:rdf="http://www.w3.org/1999/02/22-rdf-syntax-ns#">
   <cc:Work>
    <dc:type rdf:resource="http://purl.org/dc/dcmitype/StillImage"/>
    <dc:date>2023-12-06T20:36:53.236542</dc:date>
    <dc:format>image/svg+xml</dc:format>
    <dc:creator>
     <cc:Agent>
      <dc:title>Matplotlib v3.8.0, https://matplotlib.org/</dc:title>
     </cc:Agent>
    </dc:creator>
   </cc:Work>
  </rdf:RDF>
 </metadata>
 <defs>
  <style type="text/css">*{stroke-linejoin: round; stroke-linecap: butt}</style>
 </defs>
 <g id="figure_1">
  <g id="patch_1">
   <path d="M 0 345.6 
L 460.8 345.6 
L 460.8 0 
L 0 0 
z
" style="fill: #ffffff"/>
  </g>
  <g id="axes_1">
   <g id="patch_2">
    <path d="M 57.6 307.584 
L 414.72 307.584 
L 414.72 41.472 
L 57.6 41.472 
z
" style="fill: #ffffff"/>
   </g>
   <g id="matplotlib.axis_1">
    <g id="xtick_1">
     <g id="line2d_1">
      <defs>
       <path id="ma756932950" d="M 0 0 
L 0 3.5 
" style="stroke: #000000; stroke-width: 0.8"/>
      </defs>
      <g>
       <use xlink:href="#ma756932950" x="73.832727" y="307.584" style="stroke: #000000; stroke-width: 0.8"/>
      </g>
     </g>
     <g id="text_1">
      <!-- 0 -->
      <g transform="translate(70.651477 322.182437) scale(0.1 -0.1)">
       <defs>
        <path id="DejaVuSans-30" d="M 2034 4250 
Q 1547 4250 1301 3770 
Q 1056 3291 1056 2328 
Q 1056 1369 1301 889 
Q 1547 409 2034 409 
Q 2525 409 2770 889 
Q 3016 1369 3016 2328 
Q 3016 3291 2770 3770 
Q 2525 4250 2034 4250 
z
M 2034 4750 
Q 2819 4750 3233 4129 
Q 3647 3509 3647 2328 
Q 3647 1150 3233 529 
Q 2819 -91 2034 -91 
Q 1250 -91 836 529 
Q 422 1150 422 2328 
Q 422 3509 836 4129 
Q 1250 4750 2034 4750 
z
" transform="scale(0.015625)"/>
       </defs>
       <use xlink:href="#DejaVuSans-30"/>
      </g>
     </g>
    </g>
    <g id="xtick_2">
     <g id="line2d_2">
      <g>
       <use xlink:href="#ma756932950" x="139.419504" y="307.584" style="stroke: #000000; stroke-width: 0.8"/>
      </g>
     </g>
     <g id="text_2">
      <!-- 1 -->
      <g transform="translate(136.238254 322.182437) scale(0.1 -0.1)">
       <defs>
        <path id="DejaVuSans-31" d="M 794 531 
L 1825 531 
L 1825 4091 
L 703 3866 
L 703 4441 
L 1819 4666 
L 2450 4666 
L 2450 531 
L 3481 531 
L 3481 0 
L 794 0 
L 794 531 
z
" transform="scale(0.015625)"/>
       </defs>
       <use xlink:href="#DejaVuSans-31"/>
      </g>
     </g>
    </g>
    <g id="xtick_3">
     <g id="line2d_3">
      <g>
       <use xlink:href="#ma756932950" x="205.006281" y="307.584" style="stroke: #000000; stroke-width: 0.8"/>
      </g>
     </g>
     <g id="text_3">
      <!-- 2 -->
      <g transform="translate(201.825031 322.182437) scale(0.1 -0.1)">
       <defs>
        <path id="DejaVuSans-32" d="M 1228 531 
L 3431 531 
L 3431 0 
L 469 0 
L 469 531 
Q 828 903 1448 1529 
Q 2069 2156 2228 2338 
Q 2531 2678 2651 2914 
Q 2772 3150 2772 3378 
Q 2772 3750 2511 3984 
Q 2250 4219 1831 4219 
Q 1534 4219 1204 4116 
Q 875 4013 500 3803 
L 500 4441 
Q 881 4594 1212 4672 
Q 1544 4750 1819 4750 
Q 2544 4750 2975 4387 
Q 3406 4025 3406 3419 
Q 3406 3131 3298 2873 
Q 3191 2616 2906 2266 
Q 2828 2175 2409 1742 
Q 1991 1309 1228 531 
z
" transform="scale(0.015625)"/>
       </defs>
       <use xlink:href="#DejaVuSans-32"/>
      </g>
     </g>
    </g>
    <g id="xtick_4">
     <g id="line2d_4">
      <g>
       <use xlink:href="#ma756932950" x="270.593058" y="307.584" style="stroke: #000000; stroke-width: 0.8"/>
      </g>
     </g>
     <g id="text_4">
      <!-- 3 -->
      <g transform="translate(267.411808 322.182437) scale(0.1 -0.1)">
       <defs>
        <path id="DejaVuSans-33" d="M 2597 2516 
Q 3050 2419 3304 2112 
Q 3559 1806 3559 1356 
Q 3559 666 3084 287 
Q 2609 -91 1734 -91 
Q 1441 -91 1130 -33 
Q 819 25 488 141 
L 488 750 
Q 750 597 1062 519 
Q 1375 441 1716 441 
Q 2309 441 2620 675 
Q 2931 909 2931 1356 
Q 2931 1769 2642 2001 
Q 2353 2234 1838 2234 
L 1294 2234 
L 1294 2753 
L 1863 2753 
Q 2328 2753 2575 2939 
Q 2822 3125 2822 3475 
Q 2822 3834 2567 4026 
Q 2313 4219 1838 4219 
Q 1578 4219 1281 4162 
Q 984 4106 628 3988 
L 628 4550 
Q 988 4650 1302 4700 
Q 1616 4750 1894 4750 
Q 2613 4750 3031 4423 
Q 3450 4097 3450 3541 
Q 3450 3153 3228 2886 
Q 3006 2619 2597 2516 
z
" transform="scale(0.015625)"/>
       </defs>
       <use xlink:href="#DejaVuSans-33"/>
      </g>
     </g>
    </g>
    <g id="xtick_5">
     <g id="line2d_5">
      <g>
       <use xlink:href="#ma756932950" x="336.179835" y="307.584" style="stroke: #000000; stroke-width: 0.8"/>
      </g>
     </g>
     <g id="text_5">
      <!-- 4 -->
      <g transform="translate(332.998585 322.182437) scale(0.1 -0.1)">
       <defs>
        <path id="DejaVuSans-34" d="M 2419 4116 
L 825 1625 
L 2419 1625 
L 2419 4116 
z
M 2253 4666 
L 3047 4666 
L 3047 1625 
L 3713 1625 
L 3713 1100 
L 3047 1100 
L 3047 0 
L 2419 0 
L 2419 1100 
L 313 1100 
L 313 1709 
L 2253 4666 
z
" transform="scale(0.015625)"/>
       </defs>
       <use xlink:href="#DejaVuSans-34"/>
      </g>
     </g>
    </g>
    <g id="xtick_6">
     <g id="line2d_6">
      <g>
       <use xlink:href="#ma756932950" x="401.766612" y="307.584" style="stroke: #000000; stroke-width: 0.8"/>
      </g>
     </g>
     <g id="text_6">
      <!-- 5 -->
      <g transform="translate(398.585362 322.182437) scale(0.1 -0.1)">
       <defs>
        <path id="DejaVuSans-35" d="M 691 4666 
L 3169 4666 
L 3169 4134 
L 1269 4134 
L 1269 2991 
Q 1406 3038 1543 3061 
Q 1681 3084 1819 3084 
Q 2600 3084 3056 2656 
Q 3513 2228 3513 1497 
Q 3513 744 3044 326 
Q 2575 -91 1722 -91 
Q 1428 -91 1123 -41 
Q 819 9 494 109 
L 494 744 
Q 775 591 1075 516 
Q 1375 441 1709 441 
Q 2250 441 2565 725 
Q 2881 1009 2881 1497 
Q 2881 1984 2565 2268 
Q 2250 2553 1709 2553 
Q 1456 2553 1204 2497 
Q 953 2441 691 2322 
L 691 4666 
z
" transform="scale(0.015625)"/>
       </defs>
       <use xlink:href="#DejaVuSans-35"/>
      </g>
     </g>
    </g>
    <g id="text_7">
     <!-- x -->
     <g transform="translate(233.200625 335.860562) scale(0.1 -0.1)">
      <defs>
       <path id="DejaVuSans-78" d="M 3513 3500 
L 2247 1797 
L 3578 0 
L 2900 0 
L 1881 1375 
L 863 0 
L 184 0 
L 1544 1831 
L 300 3500 
L 978 3500 
L 1906 2253 
L 2834 3500 
L 3513 3500 
z
" transform="scale(0.015625)"/>
      </defs>
      <use xlink:href="#DejaVuSans-78"/>
     </g>
    </g>
   </g>
   <g id="matplotlib.axis_2">
    <g id="ytick_1">
     <g id="line2d_7">
      <defs>
       <path id="m0b79d1eefb" d="M 0 0 
L -3.5 0 
" style="stroke: #000000; stroke-width: 0.8"/>
      </defs>
      <g>
       <use xlink:href="#m0b79d1eefb" x="57.6" y="272.406642" style="stroke: #000000; stroke-width: 0.8"/>
      </g>
     </g>
     <g id="text_8">
      <!-- 0 -->
      <g transform="translate(44.2375 276.20586) scale(0.1 -0.1)">
       <use xlink:href="#DejaVuSans-30"/>
      </g>
     </g>
    </g>
    <g id="ytick_2">
     <g id="line2d_8">
      <g>
       <use xlink:href="#m0b79d1eefb" x="57.6" y="214.732068" style="stroke: #000000; stroke-width: 0.8"/>
      </g>
     </g>
     <g id="text_9">
      <!-- 10 -->
      <g transform="translate(37.875 218.531287) scale(0.1 -0.1)">
       <use xlink:href="#DejaVuSans-31"/>
       <use xlink:href="#DejaVuSans-30" x="63.623047"/>
      </g>
     </g>
    </g>
    <g id="ytick_3">
     <g id="line2d_9">
      <g>
       <use xlink:href="#m0b79d1eefb" x="57.6" y="157.057495" style="stroke: #000000; stroke-width: 0.8"/>
      </g>
     </g>
     <g id="text_10">
      <!-- 20 -->
      <g transform="translate(37.875 160.856714) scale(0.1 -0.1)">
       <use xlink:href="#DejaVuSans-32"/>
       <use xlink:href="#DejaVuSans-30" x="63.623047"/>
      </g>
     </g>
    </g>
    <g id="ytick_4">
     <g id="line2d_10">
      <g>
       <use xlink:href="#m0b79d1eefb" x="57.6" y="99.382922" style="stroke: #000000; stroke-width: 0.8"/>
      </g>
     </g>
     <g id="text_11">
      <!-- 30 -->
      <g transform="translate(37.875 103.182141) scale(0.1 -0.1)">
       <use xlink:href="#DejaVuSans-33"/>
       <use xlink:href="#DejaVuSans-30" x="63.623047"/>
      </g>
     </g>
    </g>
    <g id="ytick_5">
     <g id="line2d_11">
      <g>
       <use xlink:href="#m0b79d1eefb" x="57.6" y="41.708349" style="stroke: #000000; stroke-width: 0.8"/>
      </g>
     </g>
     <g id="text_12">
      <!-- 40 -->
      <g transform="translate(37.875 45.507568) scale(0.1 -0.1)">
       <use xlink:href="#DejaVuSans-34"/>
       <use xlink:href="#DejaVuSans-30" x="63.623047"/>
      </g>
     </g>
    </g>
    <g id="text_13">
     <!-- y -->
     <g transform="translate(31.795313 177.487375) rotate(-90) scale(0.1 -0.1)">
      <defs>
       <path id="DejaVuSans-79" d="M 2059 -325 
Q 1816 -950 1584 -1140 
Q 1353 -1331 966 -1331 
L 506 -1331 
L 506 -850 
L 844 -850 
Q 1081 -850 1212 -737 
Q 1344 -625 1503 -206 
L 1606 56 
L 191 3500 
L 800 3500 
L 1894 763 
L 2988 3500 
L 3597 3500 
L 2059 -325 
z
" transform="scale(0.015625)"/>
      </defs>
      <use xlink:href="#DejaVuSans-79"/>
     </g>
    </g>
   </g>
   <g id="line2d_12">
    <defs>
     <path id="m6cf81c084c" d="M 0 1.5 
C 0.397805 1.5 0.77937 1.341951 1.06066 1.06066 
C 1.341951 0.77937 1.5 0.397805 1.5 0 
C 1.5 -0.397805 1.341951 -0.77937 1.06066 -1.06066 
C 0.77937 -1.341951 0.397805 -1.5 0 -1.5 
C -0.397805 -1.5 -0.77937 -1.341951 -1.06066 -1.06066 
C -1.341951 -0.77937 -1.5 -0.397805 -1.5 0 
C -1.5 0.397805 -1.341951 0.77937 -1.06066 1.06066 
C -0.77937 1.341951 -0.397805 1.5 0 1.5 
z
" style="stroke: #1f77b4"/>
    </defs>
    <g clip-path="url(#pacee831c67)">
     <use xlink:href="#m6cf81c084c" x="73.832727" y="255.10427" style="fill: #1f77b4; stroke: #1f77b4"/>
     <use xlink:href="#m6cf81c084c" x="77.112066" y="284.087184" style="fill: #1f77b4; stroke: #1f77b4"/>
     <use xlink:href="#m6cf81c084c" x="80.391405" y="295.488" style="fill: #1f77b4; stroke: #1f77b4"/>
     <use xlink:href="#m6cf81c084c" x="83.670744" y="295.082813" style="fill: #1f77b4; stroke: #1f77b4"/>
     <use xlink:href="#m6cf81c084c" x="86.950083" y="259.810423" style="fill: #1f77b4; stroke: #1f77b4"/>
     <use xlink:href="#m6cf81c084c" x="90.229421" y="276.19131" style="fill: #1f77b4; stroke: #1f77b4"/>
     <use xlink:href="#m6cf81c084c" x="93.50876" y="286.559515" style="fill: #1f77b4; stroke: #1f77b4"/>
     <use xlink:href="#m6cf81c084c" x="96.788099" y="279.388725" style="fill: #1f77b4; stroke: #1f77b4"/>
     <use xlink:href="#m6cf81c084c" x="100.067438" y="271.989908" style="fill: #1f77b4; stroke: #1f77b4"/>
     <use xlink:href="#m6cf81c084c" x="103.346777" y="247.069278" style="fill: #1f77b4; stroke: #1f77b4"/>
     <use xlink:href="#m6cf81c084c" x="106.626116" y="256.542529" style="fill: #1f77b4; stroke: #1f77b4"/>
     <use xlink:href="#m6cf81c084c" x="109.905455" y="260.046029" style="fill: #1f77b4; stroke: #1f77b4"/>
     <use xlink:href="#m6cf81c084c" x="113.184793" y="263.355794" style="fill: #1f77b4; stroke: #1f77b4"/>
     <use xlink:href="#m6cf81c084c" x="116.464132" y="254.945462" style="fill: #1f77b4; stroke: #1f77b4"/>
     <use xlink:href="#m6cf81c084c" x="119.743471" y="240.591034" style="fill: #1f77b4; stroke: #1f77b4"/>
     <use xlink:href="#m6cf81c084c" x="123.02281" y="254.905788" style="fill: #1f77b4; stroke: #1f77b4"/>
     <use xlink:href="#m6cf81c084c" x="126.302149" y="269.060963" style="fill: #1f77b4; stroke: #1f77b4"/>
     <use xlink:href="#m6cf81c084c" x="129.581488" y="231.15796" style="fill: #1f77b4; stroke: #1f77b4"/>
     <use xlink:href="#m6cf81c084c" x="132.860826" y="227.717147" style="fill: #1f77b4; stroke: #1f77b4"/>
     <use xlink:href="#m6cf81c084c" x="136.140165" y="252.979567" style="fill: #1f77b4; stroke: #1f77b4"/>
     <use xlink:href="#m6cf81c084c" x="139.419504" y="220.441851" style="fill: #1f77b4; stroke: #1f77b4"/>
     <use xlink:href="#m6cf81c084c" x="142.698843" y="210.856885" style="fill: #1f77b4; stroke: #1f77b4"/>
     <use xlink:href="#m6cf81c084c" x="145.978182" y="230.000598" style="fill: #1f77b4; stroke: #1f77b4"/>
     <use xlink:href="#m6cf81c084c" x="149.257521" y="220.206885" style="fill: #1f77b4; stroke: #1f77b4"/>
     <use xlink:href="#m6cf81c084c" x="152.53686" y="216.088944" style="fill: #1f77b4; stroke: #1f77b4"/>
     <use xlink:href="#m6cf81c084c" x="155.816198" y="217.655223" style="fill: #1f77b4; stroke: #1f77b4"/>
     <use xlink:href="#m6cf81c084c" x="159.095537" y="224.914163" style="fill: #1f77b4; stroke: #1f77b4"/>
     <use xlink:href="#m6cf81c084c" x="162.374876" y="226.339278" style="fill: #1f77b4; stroke: #1f77b4"/>
     <use xlink:href="#m6cf81c084c" x="165.654215" y="193.101704" style="fill: #1f77b4; stroke: #1f77b4"/>
     <use xlink:href="#m6cf81c084c" x="168.933554" y="188.651886" style="fill: #1f77b4; stroke: #1f77b4"/>
     <use xlink:href="#m6cf81c084c" x="172.212893" y="207.230769" style="fill: #1f77b4; stroke: #1f77b4"/>
     <use xlink:href="#m6cf81c084c" x="175.492231" y="208.47455" style="fill: #1f77b4; stroke: #1f77b4"/>
     <use xlink:href="#m6cf81c084c" x="178.77157" y="175.089243" style="fill: #1f77b4; stroke: #1f77b4"/>
     <use xlink:href="#m6cf81c084c" x="182.050909" y="176.292715" style="fill: #1f77b4; stroke: #1f77b4"/>
     <use xlink:href="#m6cf81c084c" x="185.330248" y="171.721134" style="fill: #1f77b4; stroke: #1f77b4"/>
     <use xlink:href="#m6cf81c084c" x="188.609587" y="167.15032" style="fill: #1f77b4; stroke: #1f77b4"/>
     <use xlink:href="#m6cf81c084c" x="191.888926" y="168.356083" style="fill: #1f77b4; stroke: #1f77b4"/>
     <use xlink:href="#m6cf81c084c" x="195.168264" y="140.742021" style="fill: #1f77b4; stroke: #1f77b4"/>
     <use xlink:href="#m6cf81c084c" x="198.447603" y="170.828332" style="fill: #1f77b4; stroke: #1f77b4"/>
     <use xlink:href="#m6cf81c084c" x="201.726942" y="166.344024" style="fill: #1f77b4; stroke: #1f77b4"/>
     <use xlink:href="#m6cf81c084c" x="205.006281" y="150.367245" style="fill: #1f77b4; stroke: #1f77b4"/>
     <use xlink:href="#m6cf81c084c" x="208.28562" y="151.74359" style="fill: #1f77b4; stroke: #1f77b4"/>
     <use xlink:href="#m6cf81c084c" x="211.564959" y="147.411533" style="fill: #1f77b4; stroke: #1f77b4"/>
     <use xlink:href="#m6cf81c084c" x="214.844298" y="131.611906" style="fill: #1f77b4; stroke: #1f77b4"/>
     <use xlink:href="#m6cf81c084c" x="218.123636" y="127.422823" style="fill: #1f77b4; stroke: #1f77b4"/>
     <use xlink:href="#m6cf81c084c" x="221.402975" y="146.387474" style="fill: #1f77b4; stroke: #1f77b4"/>
     <use xlink:href="#m6cf81c084c" x="224.682314" y="125.072094" style="fill: #1f77b4; stroke: #1f77b4"/>
     <use xlink:href="#m6cf81c084c" x="227.961653" y="121.159514" style="fill: #1f77b4; stroke: #1f77b4"/>
     <use xlink:href="#m6cf81c084c" x="231.240992" y="105.820696" style="fill: #1f77b4; stroke: #1f77b4"/>
     <use xlink:href="#m6cf81c084c" x="234.520331" y="113.668625" style="fill: #1f77b4; stroke: #1f77b4"/>
     <use xlink:href="#m6cf81c084c" x="237.799669" y="92.804416" style="fill: #1f77b4; stroke: #1f77b4"/>
     <use xlink:href="#m6cf81c084c" x="241.079008" y="89.375951" style="fill: #1f77b4; stroke: #1f77b4"/>
     <use xlink:href="#m6cf81c084c" x="244.358347" y="91.856529" style="fill: #1f77b4; stroke: #1f77b4"/>
     <use xlink:href="#m6cf81c084c" x="247.637686" y="117.556728" style="fill: #1f77b4; stroke: #1f77b4"/>
     <use xlink:href="#m6cf81c084c" x="250.917025" y="91.5078" style="fill: #1f77b4; stroke: #1f77b4"/>
     <use xlink:href="#m6cf81c084c" x="254.196364" y="100.229792" style="fill: #1f77b4; stroke: #1f77b4"/>
     <use xlink:href="#m6cf81c084c" x="257.475702" y="91.82377" style="fill: #1f77b4; stroke: #1f77b4"/>
     <use xlink:href="#m6cf81c084c" x="260.755041" y="106.670104" style="fill: #1f77b4; stroke: #1f77b4"/>
     <use xlink:href="#m6cf81c084c" x="264.03438" y="104.404757" style="fill: #1f77b4; stroke: #1f77b4"/>
     <use xlink:href="#m6cf81c084c" x="267.313719" y="102.338253" style="fill: #1f77b4; stroke: #1f77b4"/>
     <use xlink:href="#m6cf81c084c" x="270.593058" y="88.943824" style="fill: #1f77b4; stroke: #1f77b4"/>
     <use xlink:href="#m6cf81c084c" x="273.872397" y="58.462149" style="fill: #1f77b4; stroke: #1f77b4"/>
     <use xlink:href="#m6cf81c084c" x="277.151736" y="85.8783" style="fill: #1f77b4; stroke: #1f77b4"/>
     <use xlink:href="#m6cf81c084c" x="280.431074" y="55.85125" style="fill: #1f77b4; stroke: #1f77b4"/>
     <use xlink:href="#m6cf81c084c" x="283.710413" y="66.435884" style="fill: #1f77b4; stroke: #1f77b4"/>
     <use xlink:href="#m6cf81c084c" x="286.989752" y="65.733188" style="fill: #1f77b4; stroke: #1f77b4"/>
     <use xlink:href="#m6cf81c084c" x="290.269091" y="82.588542" style="fill: #1f77b4; stroke: #1f77b4"/>
     <use xlink:href="#m6cf81c084c" x="293.54843" y="53.568" style="fill: #1f77b4; stroke: #1f77b4"/>
     <use xlink:href="#m6cf81c084c" x="296.827769" y="88.261327" style="fill: #1f77b4; stroke: #1f77b4"/>
     <use xlink:href="#m6cf81c084c" x="300.107107" y="65.559986" style="fill: #1f77b4; stroke: #1f77b4"/>
     <use xlink:href="#m6cf81c084c" x="303.386446" y="71.983895" style="fill: #1f77b4; stroke: #1f77b4"/>
     <use xlink:href="#m6cf81c084c" x="306.665785" y="78.703819" style="fill: #1f77b4; stroke: #1f77b4"/>
     <use xlink:href="#m6cf81c084c" x="309.945124" y="62.657969" style="fill: #1f77b4; stroke: #1f77b4"/>
     <use xlink:href="#m6cf81c084c" x="313.224463" y="87.296408" style="fill: #1f77b4; stroke: #1f77b4"/>
     <use xlink:href="#m6cf81c084c" x="316.503802" y="94.952586" style="fill: #1f77b4; stroke: #1f77b4"/>
     <use xlink:href="#m6cf81c084c" x="319.78314" y="68.332149" style="fill: #1f77b4; stroke: #1f77b4"/>
     <use xlink:href="#m6cf81c084c" x="323.062479" y="105.489875" style="fill: #1f77b4; stroke: #1f77b4"/>
     <use xlink:href="#m6cf81c084c" x="326.341818" y="73.782246" style="fill: #1f77b4; stroke: #1f77b4"/>
     <use xlink:href="#m6cf81c084c" x="329.621157" y="77.031482" style="fill: #1f77b4; stroke: #1f77b4"/>
     <use xlink:href="#m6cf81c084c" x="332.900496" y="97.943191" style="fill: #1f77b4; stroke: #1f77b4"/>
     <use xlink:href="#m6cf81c084c" x="336.179835" y="96.153146" style="fill: #1f77b4; stroke: #1f77b4"/>
     <use xlink:href="#m6cf81c084c" x="339.459174" y="106.274053" style="fill: #1f77b4; stroke: #1f77b4"/>
     <use xlink:href="#m6cf81c084c" x="342.738512" y="128.313866" style="fill: #1f77b4; stroke: #1f77b4"/>
     <use xlink:href="#m6cf81c084c" x="346.017851" y="110.373417" style="fill: #1f77b4; stroke: #1f77b4"/>
     <use xlink:href="#m6cf81c084c" x="349.29719" y="127.437588" style="fill: #1f77b4; stroke: #1f77b4"/>
     <use xlink:href="#m6cf81c084c" x="352.576529" y="121.839734" style="fill: #1f77b4; stroke: #1f77b4"/>
     <use xlink:href="#m6cf81c084c" x="355.855868" y="122.425062" style="fill: #1f77b4; stroke: #1f77b4"/>
     <use xlink:href="#m6cf81c084c" x="359.135207" y="158.03877" style="fill: #1f77b4; stroke: #1f77b4"/>
     <use xlink:href="#m6cf81c084c" x="362.414545" y="153.711816" style="fill: #1f77b4; stroke: #1f77b4"/>
     <use xlink:href="#m6cf81c084c" x="365.693884" y="149.824296" style="fill: #1f77b4; stroke: #1f77b4"/>
     <use xlink:href="#m6cf81c084c" x="368.973223" y="152.151552" style="fill: #1f77b4; stroke: #1f77b4"/>
     <use xlink:href="#m6cf81c084c" x="372.252562" y="178.003833" style="fill: #1f77b4; stroke: #1f77b4"/>
     <use xlink:href="#m6cf81c084c" x="375.531901" y="187.016806" style="fill: #1f77b4; stroke: #1f77b4"/>
     <use xlink:href="#m6cf81c084c" x="378.81124" y="190.733246" style="fill: #1f77b4; stroke: #1f77b4"/>
     <use xlink:href="#m6cf81c084c" x="382.090579" y="194.92846" style="fill: #1f77b4; stroke: #1f77b4"/>
     <use xlink:href="#m6cf81c084c" x="385.369917" y="222.68012" style="fill: #1f77b4; stroke: #1f77b4"/>
     <use xlink:href="#m6cf81c084c" x="388.649256" y="216.321487" style="fill: #1f77b4; stroke: #1f77b4"/>
     <use xlink:href="#m6cf81c084c" x="391.928595" y="233.534959" style="fill: #1f77b4; stroke: #1f77b4"/>
     <use xlink:href="#m6cf81c084c" x="395.207934" y="257.025981" style="fill: #1f77b4; stroke: #1f77b4"/>
     <use xlink:href="#m6cf81c084c" x="398.487273" y="246.430158" style="fill: #1f77b4; stroke: #1f77b4"/>
    </g>
   </g>
   <g id="line2d_13">
    <path d="M 73.832727 272.406642 
L 77.112066 272.694301 
L 80.391405 272.707021 
L 83.670744 272.452781 
L 86.950083 271.939572 
L 90.229421 271.175397 
L 93.50876 270.168269 
L 96.788099 268.926213 
L 100.067438 267.457263 
L 103.346777 265.769467 
L 106.626116 263.870881 
L 109.905455 261.769574 
L 113.184793 259.473626 
L 116.464132 256.991126 
L 119.743471 254.330177 
L 123.02281 251.498891 
L 126.302149 248.50539 
L 129.581488 245.357811 
L 132.860826 242.064297 
L 136.140165 238.633006 
L 139.419504 235.072105 
L 142.698843 231.389774 
L 145.978182 227.5942 
L 149.257521 223.693585 
L 152.53686 219.696141 
L 155.816198 215.610089 
L 159.095537 211.443664 
L 162.374876 207.205111 
L 165.654215 202.902684 
L 168.933554 198.544651 
L 172.212893 194.139288 
L 175.492231 189.694886 
L 178.77157 185.219743 
L 182.050909 180.72217 
L 185.330248 176.210489 
L 188.609587 171.693033 
L 191.888926 167.178145 
L 195.168264 162.674181 
L 198.447603 158.189505 
L 201.726942 153.732494 
L 205.006281 149.311537 
L 208.28562 144.935033 
L 211.564959 140.61139 
L 214.844298 136.34903 
L 218.123636 132.156385 
L 221.402975 128.041897 
L 224.682314 124.014021 
L 227.961653 120.081222 
L 231.240992 116.251974 
L 234.520331 112.534765 
L 237.799669 108.938094 
L 241.079008 105.470469 
L 244.358347 102.140409 
L 247.637686 98.956446 
L 250.917025 95.927123 
L 254.196364 93.060991 
L 257.475702 90.366615 
L 260.755041 87.852569 
L 264.03438 85.527441 
L 267.313719 83.399827 
L 270.593058 81.478334 
L 273.872397 79.771583 
L 277.151736 78.288203 
L 280.431074 77.036835 
L 283.710413 76.026132 
L 286.989752 75.264756 
L 290.269091 74.761381 
L 293.54843 74.524694 
L 296.827769 74.563389 
L 300.107107 74.886174 
L 303.386446 75.501768 
L 306.665785 76.4189 
L 309.945124 77.646309 
L 313.224463 79.192747 
L 316.503802 81.066976 
L 319.78314 83.277769 
L 323.062479 85.833912 
L 326.341818 88.744198 
L 329.621157 92.017435 
L 332.900496 95.66244 
L 336.179835 99.68804 
L 339.459174 104.103076 
L 342.738512 108.916397 
L 346.017851 114.136865 
L 349.29719 119.773353 
L 352.576529 125.834743 
L 355.855868 132.329931 
L 359.135207 139.267821 
L 362.414545 146.657331 
L 365.693884 154.507387 
L 368.973223 162.826927 
L 372.252562 171.624903 
L 375.531901 180.910273 
L 378.81124 190.692009 
L 382.090579 200.979095 
L 385.369917 211.780523 
L 388.649256 223.105297 
L 391.928595 234.962435 
L 395.207934 247.360961 
L 398.487273 260.309915 
" clip-path="url(#pacee831c67)" style="fill: none; stroke: #ff7f0e; stroke-width: 1.5; stroke-linecap: square"/>
   </g>
   <g id="line2d_14">
    <path d="M 73.832727 272.406642 
L 77.112066 272.55227 
L 80.391405 272.418171 
L 83.670744 272.012983 
L 86.950083 271.345337 
L 90.229421 270.423853 
L 93.50876 269.257143 
L 96.788099 267.85381 
L 100.067438 266.222451 
L 103.346777 264.37165 
L 106.626116 262.309987 
L 109.905455 260.046029 
L 113.184793 257.588337 
L 116.464132 254.945462 
L 119.743471 252.125949 
L 123.02281 249.138331 
L 126.302149 245.991133 
L 129.581488 242.692874 
L 132.860826 239.252061 
L 136.140165 235.677195 
L 139.419504 231.976766 
L 142.698843 228.159257 
L 145.978182 224.233141 
L 149.257521 220.206885 
L 152.53686 216.088944 
L 155.816198 211.887766 
L 159.095537 207.611791 
L 162.374876 203.269449 
L 165.654215 198.869162 
L 168.933554 194.419343 
L 172.212893 189.928397 
L 175.492231 185.404721 
L 178.77157 180.8567 
L 182.050909 176.292715 
L 185.330248 171.721134 
L 188.609587 167.15032 
L 191.888926 162.588625 
L 195.168264 158.044393 
L 198.447603 153.52596 
L 201.726942 149.041652 
L 205.006281 144.599788 
L 208.28562 140.208676 
L 211.564959 135.876618 
L 214.844298 131.611906 
L 218.123636 127.422823 
L 221.402975 123.317645 
L 224.682314 119.304637 
L 227.961653 115.392057 
L 231.240992 111.588154 
L 234.520331 107.901168 
L 237.799669 104.339331 
L 241.079008 100.910865 
L 244.358347 97.623986 
L 247.637686 94.486898 
L 250.917025 91.5078 
L 254.196364 88.694878 
L 257.475702 86.056312 
L 260.755041 83.600275 
L 264.03438 81.334928 
L 267.313719 79.268424 
L 270.593058 77.40891 
L 273.872397 75.764521 
L 277.151736 74.343385 
L 280.431074 73.153622 
L 283.710413 72.203341 
L 286.989752 71.500645 
L 290.269091 71.053627 
L 293.54843 70.870372 
L 296.827769 70.958955 
L 300.107107 71.327443 
L 303.386446 71.983895 
L 306.665785 72.936362 
L 309.945124 74.192883 
L 313.224463 75.761493 
L 316.503802 77.650214 
L 319.78314 79.867063 
L 323.062479 82.420046 
L 326.341818 85.31716 
L 329.621157 88.566396 
L 332.900496 92.175734 
L 336.179835 96.153146 
L 339.459174 100.506596 
L 342.738512 105.244037 
L 346.017851 110.373417 
L 349.29719 115.902673 
L 352.576529 121.839734 
L 355.855868 128.192519 
L 359.135207 134.968941 
L 362.414545 142.176902 
L 365.693884 149.824296 
L 368.973223 157.919009 
L 372.252562 166.468918 
L 375.531901 175.481891 
L 378.81124 184.965788 
L 382.090579 194.92846 
L 385.369917 205.377748 
L 388.649256 216.321487 
L 391.928595 227.767502 
L 395.207934 239.723609 
L 398.487273 252.197615 
" clip-path="url(#pacee831c67)" style="fill: none; stroke: #2ca02c; stroke-width: 1.5; stroke-linecap: square"/>
   </g>
   <g id="patch_3">
    <path d="M 57.6 307.584 
L 57.6 41.472 
" style="fill: none; stroke: #000000; stroke-width: 0.8; stroke-linejoin: miter; stroke-linecap: square"/>
   </g>
   <g id="patch_4">
    <path d="M 414.72 307.584 
L 414.72 41.472 
" style="fill: none; stroke: #000000; stroke-width: 0.8; stroke-linejoin: miter; stroke-linecap: square"/>
   </g>
   <g id="patch_5">
    <path d="M 57.6 307.584 
L 414.72 307.584 
" style="fill: none; stroke: #000000; stroke-width: 0.8; stroke-linejoin: miter; stroke-linecap: square"/>
   </g>
   <g id="patch_6">
    <path d="M 57.6 41.472 
L 414.72 41.472 
" style="fill: none; stroke: #000000; stroke-width: 0.8; stroke-linejoin: miter; stroke-linecap: square"/>
   </g>
   <g id="text_14">
    <!-- Wykres porównujący funkcję przybliżoną do rozkładu  -->
    <g transform="translate(75.159375 21.458625) scale(0.12 -0.12)">
     <defs>
      <path id="DejaVuSans-57" d="M 213 4666 
L 850 4666 
L 1831 722 
L 2809 4666 
L 3519 4666 
L 4500 722 
L 5478 4666 
L 6119 4666 
L 4947 0 
L 4153 0 
L 3169 4050 
L 2175 0 
L 1381 0 
L 213 4666 
z
" transform="scale(0.015625)"/>
      <path id="DejaVuSans-6b" d="M 581 4863 
L 1159 4863 
L 1159 1991 
L 2875 3500 
L 3609 3500 
L 1753 1863 
L 3688 0 
L 2938 0 
L 1159 1709 
L 1159 0 
L 581 0 
L 581 4863 
z
" transform="scale(0.015625)"/>
      <path id="DejaVuSans-72" d="M 2631 2963 
Q 2534 3019 2420 3045 
Q 2306 3072 2169 3072 
Q 1681 3072 1420 2755 
Q 1159 2438 1159 1844 
L 1159 0 
L 581 0 
L 581 3500 
L 1159 3500 
L 1159 2956 
Q 1341 3275 1631 3429 
Q 1922 3584 2338 3584 
Q 2397 3584 2469 3576 
Q 2541 3569 2628 3553 
L 2631 2963 
z
" transform="scale(0.015625)"/>
      <path id="DejaVuSans-65" d="M 3597 1894 
L 3597 1613 
L 953 1613 
Q 991 1019 1311 708 
Q 1631 397 2203 397 
Q 2534 397 2845 478 
Q 3156 559 3463 722 
L 3463 178 
Q 3153 47 2828 -22 
Q 2503 -91 2169 -91 
Q 1331 -91 842 396 
Q 353 884 353 1716 
Q 353 2575 817 3079 
Q 1281 3584 2069 3584 
Q 2775 3584 3186 3129 
Q 3597 2675 3597 1894 
z
M 3022 2063 
Q 3016 2534 2758 2815 
Q 2500 3097 2075 3097 
Q 1594 3097 1305 2825 
Q 1016 2553 972 2059 
L 3022 2063 
z
" transform="scale(0.015625)"/>
      <path id="DejaVuSans-73" d="M 2834 3397 
L 2834 2853 
Q 2591 2978 2328 3040 
Q 2066 3103 1784 3103 
Q 1356 3103 1142 2972 
Q 928 2841 928 2578 
Q 928 2378 1081 2264 
Q 1234 2150 1697 2047 
L 1894 2003 
Q 2506 1872 2764 1633 
Q 3022 1394 3022 966 
Q 3022 478 2636 193 
Q 2250 -91 1575 -91 
Q 1294 -91 989 -36 
Q 684 19 347 128 
L 347 722 
Q 666 556 975 473 
Q 1284 391 1588 391 
Q 1994 391 2212 530 
Q 2431 669 2431 922 
Q 2431 1156 2273 1281 
Q 2116 1406 1581 1522 
L 1381 1569 
Q 847 1681 609 1914 
Q 372 2147 372 2553 
Q 372 3047 722 3315 
Q 1072 3584 1716 3584 
Q 2034 3584 2315 3537 
Q 2597 3491 2834 3397 
z
" transform="scale(0.015625)"/>
      <path id="DejaVuSans-20" transform="scale(0.015625)"/>
      <path id="DejaVuSans-70" d="M 1159 525 
L 1159 -1331 
L 581 -1331 
L 581 3500 
L 1159 3500 
L 1159 2969 
Q 1341 3281 1617 3432 
Q 1894 3584 2278 3584 
Q 2916 3584 3314 3078 
Q 3713 2572 3713 1747 
Q 3713 922 3314 415 
Q 2916 -91 2278 -91 
Q 1894 -91 1617 61 
Q 1341 213 1159 525 
z
M 3116 1747 
Q 3116 2381 2855 2742 
Q 2594 3103 2138 3103 
Q 1681 3103 1420 2742 
Q 1159 2381 1159 1747 
Q 1159 1113 1420 752 
Q 1681 391 2138 391 
Q 2594 391 2855 752 
Q 3116 1113 3116 1747 
z
" transform="scale(0.015625)"/>
      <path id="DejaVuSans-6f" d="M 1959 3097 
Q 1497 3097 1228 2736 
Q 959 2375 959 1747 
Q 959 1119 1226 758 
Q 1494 397 1959 397 
Q 2419 397 2687 759 
Q 2956 1122 2956 1747 
Q 2956 2369 2687 2733 
Q 2419 3097 1959 3097 
z
M 1959 3584 
Q 2709 3584 3137 3096 
Q 3566 2609 3566 1747 
Q 3566 888 3137 398 
Q 2709 -91 1959 -91 
Q 1206 -91 779 398 
Q 353 888 353 1747 
Q 353 2609 779 3096 
Q 1206 3584 1959 3584 
z
" transform="scale(0.015625)"/>
      <path id="DejaVuSans-f3" d="M 1959 3097 
Q 1497 3097 1228 2736 
Q 959 2375 959 1747 
Q 959 1119 1226 758 
Q 1494 397 1959 397 
Q 2419 397 2687 759 
Q 2956 1122 2956 1747 
Q 2956 2369 2687 2733 
Q 2419 3097 1959 3097 
z
M 1959 3584 
Q 2709 3584 3137 3096 
Q 3566 2609 3566 1747 
Q 3566 888 3137 398 
Q 2709 -91 1959 -91 
Q 1206 -91 779 398 
Q 353 888 353 1747 
Q 353 2609 779 3096 
Q 1206 3584 1959 3584 
z
M 2394 5119 
L 3016 5119 
L 1998 3944 
L 1519 3944 
L 2394 5119 
z
" transform="scale(0.015625)"/>
      <path id="DejaVuSans-77" d="M 269 3500 
L 844 3500 
L 1563 769 
L 2278 3500 
L 2956 3500 
L 3675 769 
L 4391 3500 
L 4966 3500 
L 4050 0 
L 3372 0 
L 2619 2869 
L 1863 0 
L 1184 0 
L 269 3500 
z
" transform="scale(0.015625)"/>
      <path id="DejaVuSans-6e" d="M 3513 2113 
L 3513 0 
L 2938 0 
L 2938 2094 
Q 2938 2591 2744 2837 
Q 2550 3084 2163 3084 
Q 1697 3084 1428 2787 
Q 1159 2491 1159 1978 
L 1159 0 
L 581 0 
L 581 3500 
L 1159 3500 
L 1159 2956 
Q 1366 3272 1645 3428 
Q 1925 3584 2291 3584 
Q 2894 3584 3203 3211 
Q 3513 2838 3513 2113 
z
" transform="scale(0.015625)"/>
      <path id="DejaVuSans-75" d="M 544 1381 
L 544 3500 
L 1119 3500 
L 1119 1403 
Q 1119 906 1312 657 
Q 1506 409 1894 409 
Q 2359 409 2629 706 
Q 2900 1003 2900 1516 
L 2900 3500 
L 3475 3500 
L 3475 0 
L 2900 0 
L 2900 538 
Q 2691 219 2414 64 
Q 2138 -91 1772 -91 
Q 1169 -91 856 284 
Q 544 659 544 1381 
z
M 1991 3584 
L 1991 3584 
z
" transform="scale(0.015625)"/>
      <path id="DejaVuSans-6a" d="M 603 3500 
L 1178 3500 
L 1178 -63 
Q 1178 -731 923 -1031 
Q 669 -1331 103 -1331 
L -116 -1331 
L -116 -844 
L 38 -844 
Q 366 -844 484 -692 
Q 603 -541 603 -63 
L 603 3500 
z
M 603 4863 
L 1178 4863 
L 1178 4134 
L 603 4134 
L 603 4863 
z
" transform="scale(0.015625)"/>
      <path id="DejaVuSans-105" d="M 2194 1759 
Q 1497 1759 1228 1600 
Q 959 1441 959 1056 
Q 959 750 1161 570 
Q 1363 391 1709 391 
Q 2188 391 2477 730 
Q 2766 1069 2766 1631 
L 2766 1759 
L 2194 1759 
z
M 3341 1997 
L 3341 0 
L 2766 0 
L 2766 531 
Q 2569 213 2275 61 
Q 1981 -91 1556 -91 
Q 1019 -91 701 211 
Q 384 513 384 1019 
Q 384 1609 779 1909 
Q 1175 2209 1959 2209 
L 2766 2209 
L 2766 2266 
Q 2766 2663 2505 2880 
Q 2244 3097 1772 3097 
Q 1472 3097 1187 3025 
Q 903 2953 641 2809 
L 641 3341 
Q 956 3463 1253 3523 
Q 1550 3584 1831 3584 
Q 2591 3584 2966 3190 
Q 3341 2797 3341 1997 
z
M 2775 0 
L 3147 0 
Q 3006 -191 2939 -328 
Q 2872 -466 2872 -563 
Q 2872 -706 2958 -778 
Q 3044 -850 3213 -850 
Q 3313 -850 3409 -826 
Q 3506 -803 3603 -756 
L 3603 -1172 
Q 3484 -1203 3378 -1218 
Q 3272 -1234 3178 -1234 
Q 2797 -1234 2617 -1098 
Q 2438 -963 2438 -672 
Q 2438 -522 2520 -358 
Q 2603 -194 2775 0 
z
" transform="scale(0.015625)"/>
      <path id="DejaVuSans-63" d="M 3122 3366 
L 3122 2828 
Q 2878 2963 2633 3030 
Q 2388 3097 2138 3097 
Q 1578 3097 1268 2742 
Q 959 2388 959 1747 
Q 959 1106 1268 751 
Q 1578 397 2138 397 
Q 2388 397 2633 464 
Q 2878 531 3122 666 
L 3122 134 
Q 2881 22 2623 -34 
Q 2366 -91 2075 -91 
Q 1284 -91 818 406 
Q 353 903 353 1747 
Q 353 2603 823 3093 
Q 1294 3584 2113 3584 
Q 2378 3584 2631 3529 
Q 2884 3475 3122 3366 
z
" transform="scale(0.015625)"/>
      <path id="DejaVuSans-66" d="M 2375 4863 
L 2375 4384 
L 1825 4384 
Q 1516 4384 1395 4259 
Q 1275 4134 1275 3809 
L 1275 3500 
L 2222 3500 
L 2222 3053 
L 1275 3053 
L 1275 0 
L 697 0 
L 697 3053 
L 147 3053 
L 147 3500 
L 697 3500 
L 697 3744 
Q 697 4328 969 4595 
Q 1241 4863 1831 4863 
L 2375 4863 
z
" transform="scale(0.015625)"/>
      <path id="DejaVuSans-119" d="M 3597 1894 
L 3597 1613 
L 953 1613 
Q 991 1019 1311 708 
Q 1631 397 2203 397 
Q 2534 397 2845 478 
Q 3156 559 3463 722 
L 3463 178 
Q 3153 47 2828 -22 
Q 2503 -91 2169 -91 
Q 1331 -91 842 396 
Q 353 884 353 1716 
Q 353 2575 817 3079 
Q 1281 3584 2069 3584 
Q 2775 3584 3186 3129 
Q 3597 2675 3597 1894 
z
M 3022 2063 
Q 3016 2534 2758 2815 
Q 2500 3097 2075 3097 
Q 1594 3097 1305 2825 
Q 1016 2553 972 2059 
L 3022 2063 
z
M 2551 0 
L 2923 0 
Q 2782 -191 2715 -328 
Q 2648 -466 2648 -563 
Q 2648 -706 2734 -778 
Q 2820 -850 2989 -850 
Q 3089 -850 3185 -826 
Q 3282 -803 3379 -756 
L 3379 -1172 
Q 3260 -1203 3154 -1218 
Q 3048 -1234 2954 -1234 
Q 2573 -1234 2393 -1098 
Q 2214 -963 2214 -672 
Q 2214 -522 2296 -358 
Q 2379 -194 2551 0 
z
" transform="scale(0.015625)"/>
      <path id="DejaVuSans-7a" d="M 353 3500 
L 3084 3500 
L 3084 2975 
L 922 459 
L 3084 459 
L 3084 0 
L 275 0 
L 275 525 
L 2438 3041 
L 353 3041 
L 353 3500 
z
" transform="scale(0.015625)"/>
      <path id="DejaVuSans-62" d="M 3116 1747 
Q 3116 2381 2855 2742 
Q 2594 3103 2138 3103 
Q 1681 3103 1420 2742 
Q 1159 2381 1159 1747 
Q 1159 1113 1420 752 
Q 1681 391 2138 391 
Q 2594 391 2855 752 
Q 3116 1113 3116 1747 
z
M 1159 2969 
Q 1341 3281 1617 3432 
Q 1894 3584 2278 3584 
Q 2916 3584 3314 3078 
Q 3713 2572 3713 1747 
Q 3713 922 3314 415 
Q 2916 -91 2278 -91 
Q 1894 -91 1617 61 
Q 1341 213 1159 525 
L 1159 0 
L 581 0 
L 581 4863 
L 1159 4863 
L 1159 2969 
z
" transform="scale(0.015625)"/>
      <path id="DejaVuSans-6c" d="M 603 4863 
L 1178 4863 
L 1178 0 
L 603 0 
L 603 4863 
z
" transform="scale(0.015625)"/>
      <path id="DejaVuSans-69" d="M 603 3500 
L 1178 3500 
L 1178 0 
L 603 0 
L 603 3500 
z
M 603 4863 
L 1178 4863 
L 1178 4134 
L 603 4134 
L 603 4863 
z
" transform="scale(0.015625)"/>
      <path id="DejaVuSans-17c" d="M 1378 4863 
L 1953 4863 
L 1953 4134 
L 1378 4134 
L 1378 4863 
z
M 1672 3584 
L 1672 3584 
z
M 353 3500 
L 3084 3500 
L 3084 2975 
L 922 459 
L 3084 459 
L 3084 0 
L 275 0 
L 275 525 
L 2438 3041 
L 353 3041 
L 353 3500 
z
" transform="scale(0.015625)"/>
      <path id="DejaVuSans-64" d="M 2906 2969 
L 2906 4863 
L 3481 4863 
L 3481 0 
L 2906 0 
L 2906 525 
Q 2725 213 2448 61 
Q 2172 -91 1784 -91 
Q 1150 -91 751 415 
Q 353 922 353 1747 
Q 353 2572 751 3078 
Q 1150 3584 1784 3584 
Q 2172 3584 2448 3432 
Q 2725 3281 2906 2969 
z
M 947 1747 
Q 947 1113 1208 752 
Q 1469 391 1925 391 
Q 2381 391 2643 752 
Q 2906 1113 2906 1747 
Q 2906 2381 2643 2742 
Q 2381 3103 1925 3103 
Q 1469 3103 1208 2742 
Q 947 2381 947 1747 
z
" transform="scale(0.015625)"/>
      <path id="DejaVuSans-142" d="M 622 4863 
L 1197 4863 
L 1197 2981 
L 1588 3263 
L 1825 2931 
L 1197 2491 
L 1197 0 
L 622 0 
L 622 2081 
L 238 1806 
L 6 2138 
L 622 2578 
L 622 4863 
z
" transform="scale(0.015625)"/>
      <path id="DejaVuSans-61" d="M 2194 1759 
Q 1497 1759 1228 1600 
Q 959 1441 959 1056 
Q 959 750 1161 570 
Q 1363 391 1709 391 
Q 2188 391 2477 730 
Q 2766 1069 2766 1631 
L 2766 1759 
L 2194 1759 
z
M 3341 1997 
L 3341 0 
L 2766 0 
L 2766 531 
Q 2569 213 2275 61 
Q 1981 -91 1556 -91 
Q 1019 -91 701 211 
Q 384 513 384 1019 
Q 384 1609 779 1909 
Q 1175 2209 1959 2209 
L 2766 2209 
L 2766 2266 
Q 2766 2663 2505 2880 
Q 2244 3097 1772 3097 
Q 1472 3097 1187 3025 
Q 903 2953 641 2809 
L 641 3341 
Q 956 3463 1253 3523 
Q 1550 3584 1831 3584 
Q 2591 3584 2966 3190 
Q 3341 2797 3341 1997 
z
" transform="scale(0.015625)"/>
     </defs>
     <use xlink:href="#DejaVuSans-57"/>
     <use xlink:href="#DejaVuSans-79" x="97.126953"/>
     <use xlink:href="#DejaVuSans-6b" x="156.306641"/>
     <use xlink:href="#DejaVuSans-72" x="214.216797"/>
     <use xlink:href="#DejaVuSans-65" x="253.080078"/>
     <use xlink:href="#DejaVuSans-73" x="314.603516"/>
     <use xlink:href="#DejaVuSans-20" x="366.703125"/>
     <use xlink:href="#DejaVuSans-70" x="398.490234"/>
     <use xlink:href="#DejaVuSans-6f" x="461.966797"/>
     <use xlink:href="#DejaVuSans-72" x="523.148438"/>
     <use xlink:href="#DejaVuSans-f3" x="562.011719"/>
     <use xlink:href="#DejaVuSans-77" x="623.193359"/>
     <use xlink:href="#DejaVuSans-6e" x="704.980469"/>
     <use xlink:href="#DejaVuSans-75" x="768.359375"/>
     <use xlink:href="#DejaVuSans-6a" x="831.738281"/>
     <use xlink:href="#DejaVuSans-105" x="859.521484"/>
     <use xlink:href="#DejaVuSans-63" x="920.800781"/>
     <use xlink:href="#DejaVuSans-79" x="975.78125"/>
     <use xlink:href="#DejaVuSans-20" x="1034.960938"/>
     <use xlink:href="#DejaVuSans-66" x="1066.748047"/>
     <use xlink:href="#DejaVuSans-75" x="1101.953125"/>
     <use xlink:href="#DejaVuSans-6e" x="1165.332031"/>
     <use xlink:href="#DejaVuSans-6b" x="1228.710938"/>
     <use xlink:href="#DejaVuSans-63" x="1286.621094"/>
     <use xlink:href="#DejaVuSans-6a" x="1341.601562"/>
     <use xlink:href="#DejaVuSans-119" x="1369.384766"/>
     <use xlink:href="#DejaVuSans-20" x="1430.908203"/>
     <use xlink:href="#DejaVuSans-70" x="1462.695312"/>
     <use xlink:href="#DejaVuSans-72" x="1526.171875"/>
     <use xlink:href="#DejaVuSans-7a" x="1567.285156"/>
     <use xlink:href="#DejaVuSans-79" x="1619.775391"/>
     <use xlink:href="#DejaVuSans-62" x="1678.955078"/>
     <use xlink:href="#DejaVuSans-6c" x="1742.431641"/>
     <use xlink:href="#DejaVuSans-69" x="1770.214844"/>
     <use xlink:href="#DejaVuSans-17c" x="1797.998047"/>
     <use xlink:href="#DejaVuSans-6f" x="1850.488281"/>
     <use xlink:href="#DejaVuSans-6e" x="1911.669922"/>
     <use xlink:href="#DejaVuSans-105" x="1975.048828"/>
     <use xlink:href="#DejaVuSans-20" x="2036.328125"/>
     <use xlink:href="#DejaVuSans-64" x="2068.115234"/>
     <use xlink:href="#DejaVuSans-6f" x="2131.591797"/>
     <use xlink:href="#DejaVuSans-20" x="2192.773438"/>
     <use xlink:href="#DejaVuSans-72" x="2224.560547"/>
     <use xlink:href="#DejaVuSans-6f" x="2263.423828"/>
     <use xlink:href="#DejaVuSans-7a" x="2324.605469"/>
     <use xlink:href="#DejaVuSans-6b" x="2377.095703"/>
     <use xlink:href="#DejaVuSans-142" x="2435.005859"/>
     <use xlink:href="#DejaVuSans-61" x="2463.423828"/>
     <use xlink:href="#DejaVuSans-64" x="2524.703125"/>
     <use xlink:href="#DejaVuSans-75" x="2588.179688"/>
     <use xlink:href="#DejaVuSans-20" x="2651.558594"/>
    </g>
    <!-- punktów danych dla nowej funckji i funkcji modelującej G(x) -->
    <g transform="translate(55.5675 35.472) scale(0.12 -0.12)">
     <defs>
      <path id="DejaVuSans-74" d="M 1172 4494 
L 1172 3500 
L 2356 3500 
L 2356 3053 
L 1172 3053 
L 1172 1153 
Q 1172 725 1289 603 
Q 1406 481 1766 481 
L 2356 481 
L 2356 0 
L 1766 0 
Q 1100 0 847 248 
Q 594 497 594 1153 
L 594 3053 
L 172 3053 
L 172 3500 
L 594 3500 
L 594 4494 
L 1172 4494 
z
" transform="scale(0.015625)"/>
      <path id="DejaVuSans-68" d="M 3513 2113 
L 3513 0 
L 2938 0 
L 2938 2094 
Q 2938 2591 2744 2837 
Q 2550 3084 2163 3084 
Q 1697 3084 1428 2787 
Q 1159 2491 1159 1978 
L 1159 0 
L 581 0 
L 581 4863 
L 1159 4863 
L 1159 2956 
Q 1366 3272 1645 3428 
Q 1925 3584 2291 3584 
Q 2894 3584 3203 3211 
Q 3513 2838 3513 2113 
z
" transform="scale(0.015625)"/>
      <path id="DejaVuSans-6d" d="M 3328 2828 
Q 3544 3216 3844 3400 
Q 4144 3584 4550 3584 
Q 5097 3584 5394 3201 
Q 5691 2819 5691 2113 
L 5691 0 
L 5113 0 
L 5113 2094 
Q 5113 2597 4934 2840 
Q 4756 3084 4391 3084 
Q 3944 3084 3684 2787 
Q 3425 2491 3425 1978 
L 3425 0 
L 2847 0 
L 2847 2094 
Q 2847 2600 2669 2842 
Q 2491 3084 2119 3084 
Q 1678 3084 1418 2786 
Q 1159 2488 1159 1978 
L 1159 0 
L 581 0 
L 581 3500 
L 1159 3500 
L 1159 2956 
Q 1356 3278 1631 3431 
Q 1906 3584 2284 3584 
Q 2666 3584 2933 3390 
Q 3200 3197 3328 2828 
z
" transform="scale(0.015625)"/>
      <path id="DejaVuSans-47" d="M 3809 666 
L 3809 1919 
L 2778 1919 
L 2778 2438 
L 4434 2438 
L 4434 434 
Q 4069 175 3628 42 
Q 3188 -91 2688 -91 
Q 1594 -91 976 548 
Q 359 1188 359 2328 
Q 359 3472 976 4111 
Q 1594 4750 2688 4750 
Q 3144 4750 3555 4637 
Q 3966 4525 4313 4306 
L 4313 3634 
Q 3963 3931 3569 4081 
Q 3175 4231 2741 4231 
Q 1884 4231 1454 3753 
Q 1025 3275 1025 2328 
Q 1025 1384 1454 906 
Q 1884 428 2741 428 
Q 3075 428 3337 486 
Q 3600 544 3809 666 
z
" transform="scale(0.015625)"/>
      <path id="DejaVuSans-28" d="M 1984 4856 
Q 1566 4138 1362 3434 
Q 1159 2731 1159 2009 
Q 1159 1288 1364 580 
Q 1569 -128 1984 -844 
L 1484 -844 
Q 1016 -109 783 600 
Q 550 1309 550 2009 
Q 550 2706 781 3412 
Q 1013 4119 1484 4856 
L 1984 4856 
z
" transform="scale(0.015625)"/>
      <path id="DejaVuSans-29" d="M 513 4856 
L 1013 4856 
Q 1481 4119 1714 3412 
Q 1947 2706 1947 2009 
Q 1947 1309 1714 600 
Q 1481 -109 1013 -844 
L 513 -844 
Q 928 -128 1133 580 
Q 1338 1288 1338 2009 
Q 1338 2731 1133 3434 
Q 928 4138 513 4856 
z
" transform="scale(0.015625)"/>
     </defs>
     <use xlink:href="#DejaVuSans-70"/>
     <use xlink:href="#DejaVuSans-75" x="63.476562"/>
     <use xlink:href="#DejaVuSans-6e" x="126.855469"/>
     <use xlink:href="#DejaVuSans-6b" x="190.234375"/>
     <use xlink:href="#DejaVuSans-74" x="248.144531"/>
     <use xlink:href="#DejaVuSans-f3" x="287.353516"/>
     <use xlink:href="#DejaVuSans-77" x="348.535156"/>
     <use xlink:href="#DejaVuSans-20" x="430.322266"/>
     <use xlink:href="#DejaVuSans-64" x="462.109375"/>
     <use xlink:href="#DejaVuSans-61" x="525.585938"/>
     <use xlink:href="#DejaVuSans-6e" x="586.865234"/>
     <use xlink:href="#DejaVuSans-79" x="650.244141"/>
     <use xlink:href="#DejaVuSans-63" x="709.423828"/>
     <use xlink:href="#DejaVuSans-68" x="764.404297"/>
     <use xlink:href="#DejaVuSans-20" x="827.783203"/>
     <use xlink:href="#DejaVuSans-64" x="859.570312"/>
     <use xlink:href="#DejaVuSans-6c" x="923.046875"/>
     <use xlink:href="#DejaVuSans-61" x="950.830078"/>
     <use xlink:href="#DejaVuSans-20" x="1012.109375"/>
     <use xlink:href="#DejaVuSans-6e" x="1043.896484"/>
     <use xlink:href="#DejaVuSans-6f" x="1107.275391"/>
     <use xlink:href="#DejaVuSans-77" x="1168.457031"/>
     <use xlink:href="#DejaVuSans-65" x="1250.244141"/>
     <use xlink:href="#DejaVuSans-6a" x="1311.767578"/>
     <use xlink:href="#DejaVuSans-20" x="1339.550781"/>
     <use xlink:href="#DejaVuSans-66" x="1371.337891"/>
     <use xlink:href="#DejaVuSans-75" x="1406.542969"/>
     <use xlink:href="#DejaVuSans-6e" x="1469.921875"/>
     <use xlink:href="#DejaVuSans-63" x="1533.300781"/>
     <use xlink:href="#DejaVuSans-6b" x="1588.28125"/>
     <use xlink:href="#DejaVuSans-6a" x="1646.191406"/>
     <use xlink:href="#DejaVuSans-69" x="1673.974609"/>
     <use xlink:href="#DejaVuSans-20" x="1701.757812"/>
     <use xlink:href="#DejaVuSans-69" x="1733.544922"/>
     <use xlink:href="#DejaVuSans-20" x="1761.328125"/>
     <use xlink:href="#DejaVuSans-66" x="1793.115234"/>
     <use xlink:href="#DejaVuSans-75" x="1828.320312"/>
     <use xlink:href="#DejaVuSans-6e" x="1891.699219"/>
     <use xlink:href="#DejaVuSans-6b" x="1955.078125"/>
     <use xlink:href="#DejaVuSans-63" x="2012.988281"/>
     <use xlink:href="#DejaVuSans-6a" x="2067.96875"/>
     <use xlink:href="#DejaVuSans-69" x="2095.751953"/>
     <use xlink:href="#DejaVuSans-20" x="2123.535156"/>
     <use xlink:href="#DejaVuSans-6d" x="2155.322266"/>
     <use xlink:href="#DejaVuSans-6f" x="2252.734375"/>
     <use xlink:href="#DejaVuSans-64" x="2313.916016"/>
     <use xlink:href="#DejaVuSans-65" x="2377.392578"/>
     <use xlink:href="#DejaVuSans-6c" x="2438.916016"/>
     <use xlink:href="#DejaVuSans-75" x="2466.699219"/>
     <use xlink:href="#DejaVuSans-6a" x="2530.078125"/>
     <use xlink:href="#DejaVuSans-105" x="2557.861328"/>
     <use xlink:href="#DejaVuSans-63" x="2619.140625"/>
     <use xlink:href="#DejaVuSans-65" x="2674.121094"/>
     <use xlink:href="#DejaVuSans-6a" x="2735.644531"/>
     <use xlink:href="#DejaVuSans-20" x="2763.427734"/>
     <use xlink:href="#DejaVuSans-47" x="2795.214844"/>
     <use xlink:href="#DejaVuSans-28" x="2872.705078"/>
     <use xlink:href="#DejaVuSans-78" x="2911.71875"/>
     <use xlink:href="#DejaVuSans-29" x="2970.898438"/>
    </g>
   </g>
   <g id="legend_1">
    <g id="patch_7">
     <path d="M 64.6 93.506375 
L 195.214062 93.506375 
Q 197.214062 93.506375 197.214062 91.506375 
L 197.214062 48.472 
Q 197.214062 46.472 195.214062 46.472 
L 64.6 46.472 
Q 62.6 46.472 62.6 48.472 
L 62.6 91.506375 
Q 62.6 93.506375 64.6 93.506375 
z
" style="fill: #ffffff; opacity: 0.8; stroke: #cccccc; stroke-linejoin: miter"/>
    </g>
    <g id="line2d_15">
     <g>
      <use xlink:href="#m6cf81c084c" x="76.6" y="54.570438" style="fill: #1f77b4; stroke: #1f77b4"/>
     </g>
    </g>
    <g id="text_15">
     <!-- Dane punkty -->
     <g transform="translate(94.6 58.070438) scale(0.1 -0.1)">
      <defs>
       <path id="DejaVuSans-44" d="M 1259 4147 
L 1259 519 
L 2022 519 
Q 2988 519 3436 956 
Q 3884 1394 3884 2338 
Q 3884 3275 3436 3711 
Q 2988 4147 2022 4147 
L 1259 4147 
z
M 628 4666 
L 1925 4666 
Q 3281 4666 3915 4102 
Q 4550 3538 4550 2338 
Q 4550 1131 3912 565 
Q 3275 0 1925 0 
L 628 0 
L 628 4666 
z
" transform="scale(0.015625)"/>
      </defs>
      <use xlink:href="#DejaVuSans-44"/>
      <use xlink:href="#DejaVuSans-61" x="77.001953"/>
      <use xlink:href="#DejaVuSans-6e" x="138.28125"/>
      <use xlink:href="#DejaVuSans-65" x="201.660156"/>
      <use xlink:href="#DejaVuSans-20" x="263.183594"/>
      <use xlink:href="#DejaVuSans-70" x="294.970703"/>
      <use xlink:href="#DejaVuSans-75" x="358.447266"/>
      <use xlink:href="#DejaVuSans-6e" x="421.826172"/>
      <use xlink:href="#DejaVuSans-6b" x="485.205078"/>
      <use xlink:href="#DejaVuSans-74" x="543.115234"/>
      <use xlink:href="#DejaVuSans-79" x="582.324219"/>
     </g>
    </g>
    <g id="line2d_16">
     <path d="M 66.6 69.248563 
L 76.6 69.248563 
L 86.6 69.248563 
" style="fill: none; stroke: #ff7f0e; stroke-width: 1.5; stroke-linecap: square"/>
    </g>
    <g id="text_16">
     <!-- Funkcja przybliżona -->
     <g transform="translate(94.6 72.748563) scale(0.1 -0.1)">
      <defs>
       <path id="DejaVuSans-46" d="M 628 4666 
L 3309 4666 
L 3309 4134 
L 1259 4134 
L 1259 2759 
L 3109 2759 
L 3109 2228 
L 1259 2228 
L 1259 0 
L 628 0 
L 628 4666 
z
" transform="scale(0.015625)"/>
      </defs>
      <use xlink:href="#DejaVuSans-46"/>
      <use xlink:href="#DejaVuSans-75" x="52.019531"/>
      <use xlink:href="#DejaVuSans-6e" x="115.398438"/>
      <use xlink:href="#DejaVuSans-6b" x="178.777344"/>
      <use xlink:href="#DejaVuSans-63" x="236.6875"/>
      <use xlink:href="#DejaVuSans-6a" x="291.667969"/>
      <use xlink:href="#DejaVuSans-61" x="319.451172"/>
      <use xlink:href="#DejaVuSans-20" x="380.730469"/>
      <use xlink:href="#DejaVuSans-70" x="412.517578"/>
      <use xlink:href="#DejaVuSans-72" x="475.994141"/>
      <use xlink:href="#DejaVuSans-7a" x="517.107422"/>
      <use xlink:href="#DejaVuSans-79" x="569.597656"/>
      <use xlink:href="#DejaVuSans-62" x="628.777344"/>
      <use xlink:href="#DejaVuSans-6c" x="692.253906"/>
      <use xlink:href="#DejaVuSans-69" x="720.037109"/>
      <use xlink:href="#DejaVuSans-17c" x="747.820312"/>
      <use xlink:href="#DejaVuSans-6f" x="800.310547"/>
      <use xlink:href="#DejaVuSans-6e" x="861.492188"/>
      <use xlink:href="#DejaVuSans-61" x="924.871094"/>
     </g>
    </g>
    <g id="line2d_17">
     <path d="M 66.6 83.926688 
L 76.6 83.926688 
L 86.6 83.926688 
" style="fill: none; stroke: #2ca02c; stroke-width: 1.5; stroke-linecap: square"/>
    </g>
    <g id="text_17">
     <!-- Dokładna funkcja -->
     <g transform="translate(94.6 87.426688) scale(0.1 -0.1)">
      <use xlink:href="#DejaVuSans-44"/>
      <use xlink:href="#DejaVuSans-6f" x="77.001953"/>
      <use xlink:href="#DejaVuSans-6b" x="138.183594"/>
      <use xlink:href="#DejaVuSans-142" x="196.09375"/>
      <use xlink:href="#DejaVuSans-61" x="224.511719"/>
      <use xlink:href="#DejaVuSans-64" x="285.791016"/>
      <use xlink:href="#DejaVuSans-6e" x="349.267578"/>
      <use xlink:href="#DejaVuSans-61" x="412.646484"/>
      <use xlink:href="#DejaVuSans-20" x="473.925781"/>
      <use xlink:href="#DejaVuSans-66" x="505.712891"/>
      <use xlink:href="#DejaVuSans-75" x="540.917969"/>
      <use xlink:href="#DejaVuSans-6e" x="604.296875"/>
      <use xlink:href="#DejaVuSans-6b" x="667.675781"/>
      <use xlink:href="#DejaVuSans-63" x="725.585938"/>
      <use xlink:href="#DejaVuSans-6a" x="780.566406"/>
      <use xlink:href="#DejaVuSans-61" x="808.349609"/>
     </g>
    </g>
   </g>
  </g>
 </g>
 <defs>
  <clipPath id="pacee831c67">
   <rect x="57.6" y="41.472" width="357.12" height="266.112"/>
  </clipPath>
 </defs>
</svg>
