<?xml version="1.0" encoding="utf-8" standalone="no"?>
<!DOCTYPE svg PUBLIC "-//W3C//DTD SVG 1.1//EN"
  "http://www.w3.org/Graphics/SVG/1.1/DTD/svg11.dtd">
<svg xmlns:xlink="http://www.w3.org/1999/xlink" width="460.8pt" height="345.6pt" viewBox="0 0 460.8 345.6" xmlns="http://www.w3.org/2000/svg" version="1.1">
 <metadata>
  <rdf:RDF xmlns:dc="http://purl.org/dc/elements/1.1/" xmlns:cc="http://creativecommons.org/ns#" xmlns:rdf="http://www.w3.org/1999/02/22-rdf-syntax-ns#">
   <cc:Work>
    <dc:type rdf:resource="http://purl.org/dc/dcmitype/StillImage"/>
    <dc:date>2023-12-06T20:31:02.093499</dc:date>
    <dc:format>image/svg+xml</dc:format>
    <dc:creator>
     <cc:Agent>
      <dc:title>Matplotlib v3.8.0, https://matplotlib.org/</dc:title>
     </cc:Agent>
    </dc:creator>
   </cc:Work>
  </rdf:RDF>
 </metadata>
 <defs>
  <style type="text/css">*{stroke-linejoin: round; stroke-linecap: butt}</style>
 </defs>
 <g id="figure_1">
  <g id="patch_1">
   <path d="M 0 345.6 
L 460.8 345.6 
L 460.8 0 
L 0 0 
z
" style="fill: #ffffff"/>
  </g>
  <g id="axes_1">
   <g id="patch_2">
    <path d="M 57.6 307.584 
L 414.72 307.584 
L 414.72 41.472 
L 57.6 41.472 
z
" style="fill: #ffffff"/>
   </g>
   <g id="matplotlib.axis_1">
    <g id="xtick_1">
     <g id="line2d_1">
      <defs>
       <path id="mdc5ee50db9" d="M 0 0 
L 0 3.5 
" style="stroke: #000000; stroke-width: 0.8"/>
      </defs>
      <g>
       <use xlink:href="#mdc5ee50db9" x="73.832727" y="307.584" style="stroke: #000000; stroke-width: 0.8"/>
      </g>
     </g>
     <g id="text_1">
      <!-- 0 -->
      <g transform="translate(70.651477 322.182437) scale(0.1 -0.1)">
       <defs>
        <path id="DejaVuSans-30" d="M 2034 4250 
Q 1547 4250 1301 3770 
Q 1056 3291 1056 2328 
Q 1056 1369 1301 889 
Q 1547 409 2034 409 
Q 2525 409 2770 889 
Q 3016 1369 3016 2328 
Q 3016 3291 2770 3770 
Q 2525 4250 2034 4250 
z
M 2034 4750 
Q 2819 4750 3233 4129 
Q 3647 3509 3647 2328 
Q 3647 1150 3233 529 
Q 2819 -91 2034 -91 
Q 1250 -91 836 529 
Q 422 1150 422 2328 
Q 422 3509 836 4129 
Q 1250 4750 2034 4750 
z
" transform="scale(0.015625)"/>
       </defs>
       <use xlink:href="#DejaVuSans-30"/>
      </g>
     </g>
    </g>
    <g id="xtick_2">
     <g id="line2d_2">
      <g>
       <use xlink:href="#mdc5ee50db9" x="139.419504" y="307.584" style="stroke: #000000; stroke-width: 0.8"/>
      </g>
     </g>
     <g id="text_2">
      <!-- 2 -->
      <g transform="translate(136.238254 322.182437) scale(0.1 -0.1)">
       <defs>
        <path id="DejaVuSans-32" d="M 1228 531 
L 3431 531 
L 3431 0 
L 469 0 
L 469 531 
Q 828 903 1448 1529 
Q 2069 2156 2228 2338 
Q 2531 2678 2651 2914 
Q 2772 3150 2772 3378 
Q 2772 3750 2511 3984 
Q 2250 4219 1831 4219 
Q 1534 4219 1204 4116 
Q 875 4013 500 3803 
L 500 4441 
Q 881 4594 1212 4672 
Q 1544 4750 1819 4750 
Q 2544 4750 2975 4387 
Q 3406 4025 3406 3419 
Q 3406 3131 3298 2873 
Q 3191 2616 2906 2266 
Q 2828 2175 2409 1742 
Q 1991 1309 1228 531 
z
" transform="scale(0.015625)"/>
       </defs>
       <use xlink:href="#DejaVuSans-32"/>
      </g>
     </g>
    </g>
    <g id="xtick_3">
     <g id="line2d_3">
      <g>
       <use xlink:href="#mdc5ee50db9" x="205.006281" y="307.584" style="stroke: #000000; stroke-width: 0.8"/>
      </g>
     </g>
     <g id="text_3">
      <!-- 4 -->
      <g transform="translate(201.825031 322.182437) scale(0.1 -0.1)">
       <defs>
        <path id="DejaVuSans-34" d="M 2419 4116 
L 825 1625 
L 2419 1625 
L 2419 4116 
z
M 2253 4666 
L 3047 4666 
L 3047 1625 
L 3713 1625 
L 3713 1100 
L 3047 1100 
L 3047 0 
L 2419 0 
L 2419 1100 
L 313 1100 
L 313 1709 
L 2253 4666 
z
" transform="scale(0.015625)"/>
       </defs>
       <use xlink:href="#DejaVuSans-34"/>
      </g>
     </g>
    </g>
    <g id="xtick_4">
     <g id="line2d_4">
      <g>
       <use xlink:href="#mdc5ee50db9" x="270.593058" y="307.584" style="stroke: #000000; stroke-width: 0.8"/>
      </g>
     </g>
     <g id="text_4">
      <!-- 6 -->
      <g transform="translate(267.411808 322.182437) scale(0.1 -0.1)">
       <defs>
        <path id="DejaVuSans-36" d="M 2113 2584 
Q 1688 2584 1439 2293 
Q 1191 2003 1191 1497 
Q 1191 994 1439 701 
Q 1688 409 2113 409 
Q 2538 409 2786 701 
Q 3034 994 3034 1497 
Q 3034 2003 2786 2293 
Q 2538 2584 2113 2584 
z
M 3366 4563 
L 3366 3988 
Q 3128 4100 2886 4159 
Q 2644 4219 2406 4219 
Q 1781 4219 1451 3797 
Q 1122 3375 1075 2522 
Q 1259 2794 1537 2939 
Q 1816 3084 2150 3084 
Q 2853 3084 3261 2657 
Q 3669 2231 3669 1497 
Q 3669 778 3244 343 
Q 2819 -91 2113 -91 
Q 1303 -91 875 529 
Q 447 1150 447 2328 
Q 447 3434 972 4092 
Q 1497 4750 2381 4750 
Q 2619 4750 2861 4703 
Q 3103 4656 3366 4563 
z
" transform="scale(0.015625)"/>
       </defs>
       <use xlink:href="#DejaVuSans-36"/>
      </g>
     </g>
    </g>
    <g id="xtick_5">
     <g id="line2d_5">
      <g>
       <use xlink:href="#mdc5ee50db9" x="336.179835" y="307.584" style="stroke: #000000; stroke-width: 0.8"/>
      </g>
     </g>
     <g id="text_5">
      <!-- 8 -->
      <g transform="translate(332.998585 322.182437) scale(0.1 -0.1)">
       <defs>
        <path id="DejaVuSans-38" d="M 2034 2216 
Q 1584 2216 1326 1975 
Q 1069 1734 1069 1313 
Q 1069 891 1326 650 
Q 1584 409 2034 409 
Q 2484 409 2743 651 
Q 3003 894 3003 1313 
Q 3003 1734 2745 1975 
Q 2488 2216 2034 2216 
z
M 1403 2484 
Q 997 2584 770 2862 
Q 544 3141 544 3541 
Q 544 4100 942 4425 
Q 1341 4750 2034 4750 
Q 2731 4750 3128 4425 
Q 3525 4100 3525 3541 
Q 3525 3141 3298 2862 
Q 3072 2584 2669 2484 
Q 3125 2378 3379 2068 
Q 3634 1759 3634 1313 
Q 3634 634 3220 271 
Q 2806 -91 2034 -91 
Q 1263 -91 848 271 
Q 434 634 434 1313 
Q 434 1759 690 2068 
Q 947 2378 1403 2484 
z
M 1172 3481 
Q 1172 3119 1398 2916 
Q 1625 2713 2034 2713 
Q 2441 2713 2670 2916 
Q 2900 3119 2900 3481 
Q 2900 3844 2670 4047 
Q 2441 4250 2034 4250 
Q 1625 4250 1398 4047 
Q 1172 3844 1172 3481 
z
" transform="scale(0.015625)"/>
       </defs>
       <use xlink:href="#DejaVuSans-38"/>
      </g>
     </g>
    </g>
    <g id="xtick_6">
     <g id="line2d_6">
      <g>
       <use xlink:href="#mdc5ee50db9" x="401.766612" y="307.584" style="stroke: #000000; stroke-width: 0.8"/>
      </g>
     </g>
     <g id="text_6">
      <!-- 10 -->
      <g transform="translate(395.404112 322.182437) scale(0.1 -0.1)">
       <defs>
        <path id="DejaVuSans-31" d="M 794 531 
L 1825 531 
L 1825 4091 
L 703 3866 
L 703 4441 
L 1819 4666 
L 2450 4666 
L 2450 531 
L 3481 531 
L 3481 0 
L 794 0 
L 794 531 
z
" transform="scale(0.015625)"/>
       </defs>
       <use xlink:href="#DejaVuSans-31"/>
       <use xlink:href="#DejaVuSans-30" x="63.623047"/>
      </g>
     </g>
    </g>
    <g id="text_7">
     <!-- x -->
     <g transform="translate(233.200625 335.860562) scale(0.1 -0.1)">
      <defs>
       <path id="DejaVuSans-78" d="M 3513 3500 
L 2247 1797 
L 3578 0 
L 2900 0 
L 1881 1375 
L 863 0 
L 184 0 
L 1544 1831 
L 300 3500 
L 978 3500 
L 1906 2253 
L 2834 3500 
L 3513 3500 
z
" transform="scale(0.015625)"/>
      </defs>
      <use xlink:href="#DejaVuSans-78"/>
     </g>
    </g>
   </g>
   <g id="matplotlib.axis_2">
    <g id="ytick_1">
     <g id="line2d_7">
      <defs>
       <path id="m1b6d553d2c" d="M 0 0 
L -3.5 0 
" style="stroke: #000000; stroke-width: 0.8"/>
      </defs>
      <g>
       <use xlink:href="#m1b6d553d2c" x="57.6" y="296.904133" style="stroke: #000000; stroke-width: 0.8"/>
      </g>
     </g>
     <g id="text_8">
      <!-- −5.0 -->
      <g transform="translate(26.317187 300.703352) scale(0.1 -0.1)">
       <defs>
        <path id="DejaVuSans-2212" d="M 678 2272 
L 4684 2272 
L 4684 1741 
L 678 1741 
L 678 2272 
z
" transform="scale(0.015625)"/>
        <path id="DejaVuSans-35" d="M 691 4666 
L 3169 4666 
L 3169 4134 
L 1269 4134 
L 1269 2991 
Q 1406 3038 1543 3061 
Q 1681 3084 1819 3084 
Q 2600 3084 3056 2656 
Q 3513 2228 3513 1497 
Q 3513 744 3044 326 
Q 2575 -91 1722 -91 
Q 1428 -91 1123 -41 
Q 819 9 494 109 
L 494 744 
Q 775 591 1075 516 
Q 1375 441 1709 441 
Q 2250 441 2565 725 
Q 2881 1009 2881 1497 
Q 2881 1984 2565 2268 
Q 2250 2553 1709 2553 
Q 1456 2553 1204 2497 
Q 953 2441 691 2322 
L 691 4666 
z
" transform="scale(0.015625)"/>
        <path id="DejaVuSans-2e" d="M 684 794 
L 1344 794 
L 1344 0 
L 684 0 
L 684 794 
z
" transform="scale(0.015625)"/>
       </defs>
       <use xlink:href="#DejaVuSans-2212"/>
       <use xlink:href="#DejaVuSans-35" x="83.789062"/>
       <use xlink:href="#DejaVuSans-2e" x="147.412109"/>
       <use xlink:href="#DejaVuSans-30" x="179.199219"/>
      </g>
     </g>
    </g>
    <g id="ytick_2">
     <g id="line2d_8">
      <g>
       <use xlink:href="#m1b6d553d2c" x="57.6" y="263.586062" style="stroke: #000000; stroke-width: 0.8"/>
      </g>
     </g>
     <g id="text_9">
      <!-- −2.5 -->
      <g transform="translate(26.317187 267.385281) scale(0.1 -0.1)">
       <use xlink:href="#DejaVuSans-2212"/>
       <use xlink:href="#DejaVuSans-32" x="83.789062"/>
       <use xlink:href="#DejaVuSans-2e" x="147.412109"/>
       <use xlink:href="#DejaVuSans-35" x="179.199219"/>
      </g>
     </g>
    </g>
    <g id="ytick_3">
     <g id="line2d_9">
      <g>
       <use xlink:href="#m1b6d553d2c" x="57.6" y="230.267992" style="stroke: #000000; stroke-width: 0.8"/>
      </g>
     </g>
     <g id="text_10">
      <!-- 0.0 -->
      <g transform="translate(34.696875 234.067211) scale(0.1 -0.1)">
       <use xlink:href="#DejaVuSans-30"/>
       <use xlink:href="#DejaVuSans-2e" x="63.623047"/>
       <use xlink:href="#DejaVuSans-30" x="95.410156"/>
      </g>
     </g>
    </g>
    <g id="ytick_4">
     <g id="line2d_10">
      <g>
       <use xlink:href="#m1b6d553d2c" x="57.6" y="196.949921" style="stroke: #000000; stroke-width: 0.8"/>
      </g>
     </g>
     <g id="text_11">
      <!-- 2.5 -->
      <g transform="translate(34.696875 200.74914) scale(0.1 -0.1)">
       <use xlink:href="#DejaVuSans-32"/>
       <use xlink:href="#DejaVuSans-2e" x="63.623047"/>
       <use xlink:href="#DejaVuSans-35" x="95.410156"/>
      </g>
     </g>
    </g>
    <g id="ytick_5">
     <g id="line2d_11">
      <g>
       <use xlink:href="#m1b6d553d2c" x="57.6" y="163.631851" style="stroke: #000000; stroke-width: 0.8"/>
      </g>
     </g>
     <g id="text_12">
      <!-- 5.0 -->
      <g transform="translate(34.696875 167.431069) scale(0.1 -0.1)">
       <use xlink:href="#DejaVuSans-35"/>
       <use xlink:href="#DejaVuSans-2e" x="63.623047"/>
       <use xlink:href="#DejaVuSans-30" x="95.410156"/>
      </g>
     </g>
    </g>
    <g id="ytick_6">
     <g id="line2d_12">
      <g>
       <use xlink:href="#m1b6d553d2c" x="57.6" y="130.31378" style="stroke: #000000; stroke-width: 0.8"/>
      </g>
     </g>
     <g id="text_13">
      <!-- 7.5 -->
      <g transform="translate(34.696875 134.112999) scale(0.1 -0.1)">
       <defs>
        <path id="DejaVuSans-37" d="M 525 4666 
L 3525 4666 
L 3525 4397 
L 1831 0 
L 1172 0 
L 2766 4134 
L 525 4134 
L 525 4666 
z
" transform="scale(0.015625)"/>
       </defs>
       <use xlink:href="#DejaVuSans-37"/>
       <use xlink:href="#DejaVuSans-2e" x="63.623047"/>
       <use xlink:href="#DejaVuSans-35" x="95.410156"/>
      </g>
     </g>
    </g>
    <g id="ytick_7">
     <g id="line2d_13">
      <g>
       <use xlink:href="#m1b6d553d2c" x="57.6" y="96.99571" style="stroke: #000000; stroke-width: 0.8"/>
      </g>
     </g>
     <g id="text_14">
      <!-- 10.0 -->
      <g transform="translate(28.334375 100.794928) scale(0.1 -0.1)">
       <use xlink:href="#DejaVuSans-31"/>
       <use xlink:href="#DejaVuSans-30" x="63.623047"/>
       <use xlink:href="#DejaVuSans-2e" x="127.246094"/>
       <use xlink:href="#DejaVuSans-30" x="159.033203"/>
      </g>
     </g>
    </g>
    <g id="ytick_8">
     <g id="line2d_14">
      <g>
       <use xlink:href="#m1b6d553d2c" x="57.6" y="63.677639" style="stroke: #000000; stroke-width: 0.8"/>
      </g>
     </g>
     <g id="text_15">
      <!-- 12.5 -->
      <g transform="translate(28.334375 67.476858) scale(0.1 -0.1)">
       <use xlink:href="#DejaVuSans-31"/>
       <use xlink:href="#DejaVuSans-32" x="63.623047"/>
       <use xlink:href="#DejaVuSans-2e" x="127.246094"/>
       <use xlink:href="#DejaVuSans-35" x="159.033203"/>
      </g>
     </g>
    </g>
    <g id="text_16">
     <!-- y -->
     <g transform="translate(20.2375 177.487375) rotate(-90) scale(0.1 -0.1)">
      <defs>
       <path id="DejaVuSans-79" d="M 2059 -325 
Q 1816 -950 1584 -1140 
Q 1353 -1331 966 -1331 
L 506 -1331 
L 506 -850 
L 844 -850 
Q 1081 -850 1212 -737 
Q 1344 -625 1503 -206 
L 1606 56 
L 191 3500 
L 800 3500 
L 1894 763 
L 2988 3500 
L 3597 3500 
L 2059 -325 
z
" transform="scale(0.015625)"/>
      </defs>
      <use xlink:href="#DejaVuSans-79"/>
     </g>
    </g>
   </g>
   <g id="line2d_15">
    <defs>
     <path id="m2ba24b65b5" d="M 0 1.5 
C 0.397805 1.5 0.77937 1.341951 1.06066 1.06066 
C 1.341951 0.77937 1.5 0.397805 1.5 0 
C 1.5 -0.397805 1.341951 -0.77937 1.06066 -1.06066 
C 0.77937 -1.341951 0.397805 -1.5 0 -1.5 
C -0.397805 -1.5 -0.77937 -1.341951 -1.06066 -1.06066 
C -1.341951 -0.77937 -1.5 -0.397805 -1.5 0 
C -1.5 0.397805 -1.341951 0.77937 -1.06066 1.06066 
C -0.77937 1.341951 -0.397805 1.5 0 1.5 
z
" style="stroke: #1f77b4"/>
    </defs>
    <g clip-path="url(#p1c4038dcb7)">
     <use xlink:href="#m2ba24b65b5" x="73.832727" y="113.879876" style="fill: #1f77b4; stroke: #1f77b4"/>
     <use xlink:href="#m2ba24b65b5" x="77.112066" y="121.073424" style="fill: #1f77b4; stroke: #1f77b4"/>
     <use xlink:href="#m2ba24b65b5" x="80.391405" y="140.722388" style="fill: #1f77b4; stroke: #1f77b4"/>
     <use xlink:href="#m2ba24b65b5" x="83.670744" y="160.984375" style="fill: #1f77b4; stroke: #1f77b4"/>
     <use xlink:href="#m2ba24b65b5" x="86.950083" y="166.978538" style="fill: #1f77b4; stroke: #1f77b4"/>
     <use xlink:href="#m2ba24b65b5" x="90.229421" y="205.077593" style="fill: #1f77b4; stroke: #1f77b4"/>
     <use xlink:href="#m2ba24b65b5" x="93.50876" y="198.883957" style="fill: #1f77b4; stroke: #1f77b4"/>
     <use xlink:href="#m2ba24b65b5" x="96.788099" y="189.801304" style="fill: #1f77b4; stroke: #1f77b4"/>
     <use xlink:href="#m2ba24b65b5" x="100.067438" y="175.015252" style="fill: #1f77b4; stroke: #1f77b4"/>
     <use xlink:href="#m2ba24b65b5" x="103.346777" y="155.061469" style="fill: #1f77b4; stroke: #1f77b4"/>
     <use xlink:href="#m2ba24b65b5" x="106.626116" y="145.394415" style="fill: #1f77b4; stroke: #1f77b4"/>
     <use xlink:href="#m2ba24b65b5" x="109.905455" y="118.732705" style="fill: #1f77b4; stroke: #1f77b4"/>
     <use xlink:href="#m2ba24b65b5" x="113.184793" y="110.709492" style="fill: #1f77b4; stroke: #1f77b4"/>
     <use xlink:href="#m2ba24b65b5" x="116.464132" y="123.435194" style="fill: #1f77b4; stroke: #1f77b4"/>
     <use xlink:href="#m2ba24b65b5" x="119.743471" y="128.78343" style="fill: #1f77b4; stroke: #1f77b4"/>
     <use xlink:href="#m2ba24b65b5" x="123.02281" y="140.867777" style="fill: #1f77b4; stroke: #1f77b4"/>
     <use xlink:href="#m2ba24b65b5" x="126.302149" y="165.663259" style="fill: #1f77b4; stroke: #1f77b4"/>
     <use xlink:href="#m2ba24b65b5" x="129.581488" y="186.456493" style="fill: #1f77b4; stroke: #1f77b4"/>
     <use xlink:href="#m2ba24b65b5" x="132.860826" y="205.872021" style="fill: #1f77b4; stroke: #1f77b4"/>
     <use xlink:href="#m2ba24b65b5" x="136.140165" y="209.333494" style="fill: #1f77b4; stroke: #1f77b4"/>
     <use xlink:href="#m2ba24b65b5" x="139.419504" y="197.187732" style="fill: #1f77b4; stroke: #1f77b4"/>
     <use xlink:href="#m2ba24b65b5" x="142.698843" y="190.135011" style="fill: #1f77b4; stroke: #1f77b4"/>
     <use xlink:href="#m2ba24b65b5" x="145.978182" y="165.041449" style="fill: #1f77b4; stroke: #1f77b4"/>
     <use xlink:href="#m2ba24b65b5" x="149.257521" y="153.87867" style="fill: #1f77b4; stroke: #1f77b4"/>
     <use xlink:href="#m2ba24b65b5" x="152.53686" y="154.001002" style="fill: #1f77b4; stroke: #1f77b4"/>
     <use xlink:href="#m2ba24b65b5" x="155.816198" y="146.419889" style="fill: #1f77b4; stroke: #1f77b4"/>
     <use xlink:href="#m2ba24b65b5" x="159.095537" y="141.801672" style="fill: #1f77b4; stroke: #1f77b4"/>
     <use xlink:href="#m2ba24b65b5" x="162.374876" y="174.09156" style="fill: #1f77b4; stroke: #1f77b4"/>
     <use xlink:href="#m2ba24b65b5" x="165.654215" y="185.904205" style="fill: #1f77b4; stroke: #1f77b4"/>
     <use xlink:href="#m2ba24b65b5" x="168.933554" y="218.087557" style="fill: #1f77b4; stroke: #1f77b4"/>
     <use xlink:href="#m2ba24b65b5" x="172.212893" y="237.872074" style="fill: #1f77b4; stroke: #1f77b4"/>
     <use xlink:href="#m2ba24b65b5" x="175.492231" y="259.776139" style="fill: #1f77b4; stroke: #1f77b4"/>
     <use xlink:href="#m2ba24b65b5" x="178.77157" y="263.581469" style="fill: #1f77b4; stroke: #1f77b4"/>
     <use xlink:href="#m2ba24b65b5" x="182.050909" y="258.293183" style="fill: #1f77b4; stroke: #1f77b4"/>
     <use xlink:href="#m2ba24b65b5" x="185.330248" y="234.699455" style="fill: #1f77b4; stroke: #1f77b4"/>
     <use xlink:href="#m2ba24b65b5" x="188.609587" y="223.130376" style="fill: #1f77b4; stroke: #1f77b4"/>
     <use xlink:href="#m2ba24b65b5" x="191.888926" y="210.112597" style="fill: #1f77b4; stroke: #1f77b4"/>
     <use xlink:href="#m2ba24b65b5" x="195.168264" y="199.183227" style="fill: #1f77b4; stroke: #1f77b4"/>
     <use xlink:href="#m2ba24b65b5" x="198.447603" y="201.675489" style="fill: #1f77b4; stroke: #1f77b4"/>
     <use xlink:href="#m2ba24b65b5" x="201.726942" y="219.354376" style="fill: #1f77b4; stroke: #1f77b4"/>
     <use xlink:href="#m2ba24b65b5" x="205.006281" y="237.053032" style="fill: #1f77b4; stroke: #1f77b4"/>
     <use xlink:href="#m2ba24b65b5" x="208.28562" y="256.417422" style="fill: #1f77b4; stroke: #1f77b4"/>
     <use xlink:href="#m2ba24b65b5" x="211.564959" y="275.275091" style="fill: #1f77b4; stroke: #1f77b4"/>
     <use xlink:href="#m2ba24b65b5" x="214.844298" y="284.430019" style="fill: #1f77b4; stroke: #1f77b4"/>
     <use xlink:href="#m2ba24b65b5" x="218.123636" y="289.272892" style="fill: #1f77b4; stroke: #1f77b4"/>
     <use xlink:href="#m2ba24b65b5" x="221.402975" y="289.704712" style="fill: #1f77b4; stroke: #1f77b4"/>
     <use xlink:href="#m2ba24b65b5" x="224.682314" y="269.863895" style="fill: #1f77b4; stroke: #1f77b4"/>
     <use xlink:href="#m2ba24b65b5" x="227.961653" y="250.420895" style="fill: #1f77b4; stroke: #1f77b4"/>
     <use xlink:href="#m2ba24b65b5" x="231.240992" y="227.166689" style="fill: #1f77b4; stroke: #1f77b4"/>
     <use xlink:href="#m2ba24b65b5" x="234.520331" y="221.492549" style="fill: #1f77b4; stroke: #1f77b4"/>
     <use xlink:href="#m2ba24b65b5" x="237.799669" y="199.923779" style="fill: #1f77b4; stroke: #1f77b4"/>
     <use xlink:href="#m2ba24b65b5" x="241.079008" y="210.634913" style="fill: #1f77b4; stroke: #1f77b4"/>
     <use xlink:href="#m2ba24b65b5" x="244.358347" y="208.225868" style="fill: #1f77b4; stroke: #1f77b4"/>
     <use xlink:href="#m2ba24b65b5" x="247.637686" y="232.259825" style="fill: #1f77b4; stroke: #1f77b4"/>
     <use xlink:href="#m2ba24b65b5" x="250.917025" y="249.789616" style="fill: #1f77b4; stroke: #1f77b4"/>
     <use xlink:href="#m2ba24b65b5" x="254.196364" y="261.188734" style="fill: #1f77b4; stroke: #1f77b4"/>
     <use xlink:href="#m2ba24b65b5" x="257.475702" y="263.401807" style="fill: #1f77b4; stroke: #1f77b4"/>
     <use xlink:href="#m2ba24b65b5" x="260.755041" y="256.231507" style="fill: #1f77b4; stroke: #1f77b4"/>
     <use xlink:href="#m2ba24b65b5" x="264.03438" y="236.879385" style="fill: #1f77b4; stroke: #1f77b4"/>
     <use xlink:href="#m2ba24b65b5" x="267.313719" y="214.223601" style="fill: #1f77b4; stroke: #1f77b4"/>
     <use xlink:href="#m2ba24b65b5" x="270.593058" y="193.691975" style="fill: #1f77b4; stroke: #1f77b4"/>
     <use xlink:href="#m2ba24b65b5" x="273.872397" y="155.57223" style="fill: #1f77b4; stroke: #1f77b4"/>
     <use xlink:href="#m2ba24b65b5" x="277.151736" y="139.713417" style="fill: #1f77b4; stroke: #1f77b4"/>
     <use xlink:href="#m2ba24b65b5" x="280.431074" y="126.027793" style="fill: #1f77b4; stroke: #1f77b4"/>
     <use xlink:href="#m2ba24b65b5" x="283.710413" y="152.864374" style="fill: #1f77b4; stroke: #1f77b4"/>
     <use xlink:href="#m2ba24b65b5" x="286.989752" y="142.569356" style="fill: #1f77b4; stroke: #1f77b4"/>
     <use xlink:href="#m2ba24b65b5" x="290.269091" y="161.571901" style="fill: #1f77b4; stroke: #1f77b4"/>
     <use xlink:href="#m2ba24b65b5" x="293.54843" y="167.964431" style="fill: #1f77b4; stroke: #1f77b4"/>
     <use xlink:href="#m2ba24b65b5" x="296.827769" y="165.544876" style="fill: #1f77b4; stroke: #1f77b4"/>
     <use xlink:href="#m2ba24b65b5" x="300.107107" y="178.025321" style="fill: #1f77b4; stroke: #1f77b4"/>
     <use xlink:href="#m2ba24b65b5" x="303.386446" y="162.383437" style="fill: #1f77b4; stroke: #1f77b4"/>
     <use xlink:href="#m2ba24b65b5" x="306.665785" y="139.803327" style="fill: #1f77b4; stroke: #1f77b4"/>
     <use xlink:href="#m2ba24b65b5" x="309.945124" y="126.699192" style="fill: #1f77b4; stroke: #1f77b4"/>
     <use xlink:href="#m2ba24b65b5" x="313.224463" y="100.743314" style="fill: #1f77b4; stroke: #1f77b4"/>
     <use xlink:href="#m2ba24b65b5" x="316.503802" y="69.401508" style="fill: #1f77b4; stroke: #1f77b4"/>
     <use xlink:href="#m2ba24b65b5" x="319.78314" y="65.720516" style="fill: #1f77b4; stroke: #1f77b4"/>
     <use xlink:href="#m2ba24b65b5" x="323.062479" y="63.764495" style="fill: #1f77b4; stroke: #1f77b4"/>
     <use xlink:href="#m2ba24b65b5" x="326.341818" y="69.233306" style="fill: #1f77b4; stroke: #1f77b4"/>
     <use xlink:href="#m2ba24b65b5" x="329.621157" y="83.441262" style="fill: #1f77b4; stroke: #1f77b4"/>
     <use xlink:href="#m2ba24b65b5" x="332.900496" y="108.328584" style="fill: #1f77b4; stroke: #1f77b4"/>
     <use xlink:href="#m2ba24b65b5" x="336.179835" y="113.151626" style="fill: #1f77b4; stroke: #1f77b4"/>
     <use xlink:href="#m2ba24b65b5" x="339.459174" y="138.910294" style="fill: #1f77b4; stroke: #1f77b4"/>
     <use xlink:href="#m2ba24b65b5" x="342.738512" y="128.863962" style="fill: #1f77b4; stroke: #1f77b4"/>
     <use xlink:href="#m2ba24b65b5" x="346.017851" y="115.656009" style="fill: #1f77b4; stroke: #1f77b4"/>
     <use xlink:href="#m2ba24b65b5" x="349.29719" y="112.561927" style="fill: #1f77b4; stroke: #1f77b4"/>
     <use xlink:href="#m2ba24b65b5" x="352.576529" y="74.530381" style="fill: #1f77b4; stroke: #1f77b4"/>
     <use xlink:href="#m2ba24b65b5" x="355.855868" y="60.950849" style="fill: #1f77b4; stroke: #1f77b4"/>
     <use xlink:href="#m2ba24b65b5" x="359.135207" y="58.680227" style="fill: #1f77b4; stroke: #1f77b4"/>
     <use xlink:href="#m2ba24b65b5" x="362.414545" y="53.745513" style="fill: #1f77b4; stroke: #1f77b4"/>
     <use xlink:href="#m2ba24b65b5" x="365.693884" y="58.794627" style="fill: #1f77b4; stroke: #1f77b4"/>
     <use xlink:href="#m2ba24b65b5" x="368.973223" y="80.055006" style="fill: #1f77b4; stroke: #1f77b4"/>
     <use xlink:href="#m2ba24b65b5" x="372.252562" y="97.3141" style="fill: #1f77b4; stroke: #1f77b4"/>
     <use xlink:href="#m2ba24b65b5" x="375.531901" y="132.772857" style="fill: #1f77b4; stroke: #1f77b4"/>
     <use xlink:href="#m2ba24b65b5" x="378.81124" y="152.191605" style="fill: #1f77b4; stroke: #1f77b4"/>
     <use xlink:href="#m2ba24b65b5" x="382.090579" y="156.991514" style="fill: #1f77b4; stroke: #1f77b4"/>
     <use xlink:href="#m2ba24b65b5" x="385.369917" y="142.510681" style="fill: #1f77b4; stroke: #1f77b4"/>
     <use xlink:href="#m2ba24b65b5" x="388.649256" y="126.150727" style="fill: #1f77b4; stroke: #1f77b4"/>
     <use xlink:href="#m2ba24b65b5" x="391.928595" y="132.390096" style="fill: #1f77b4; stroke: #1f77b4"/>
     <use xlink:href="#m2ba24b65b5" x="395.207934" y="119.921626" style="fill: #1f77b4; stroke: #1f77b4"/>
     <use xlink:href="#m2ba24b65b5" x="398.487273" y="87.58746" style="fill: #1f77b4; stroke: #1f77b4"/>
    </g>
   </g>
   <g id="line2d_16">
    <path d="M 73.832727 114.033465 
L 77.112066 120.850429 
L 80.391405 135.858839 
L 83.670744 155.777065 
L 86.950083 175.98303 
L 90.229421 191.672953 
L 93.50876 199.062797 
L 96.788099 196.338272 
L 100.067438 184.120805 
L 103.346777 165.335408 
L 106.626116 144.512781 
L 109.905455 126.696525 
L 113.184793 116.223016 
L 116.464132 115.672671 
L 119.743471 125.249372 
L 123.02281 142.740003 
L 126.302149 164.064016 
L 129.581488 184.278504 
L 132.860826 198.79272 
L 136.140165 204.494739 
L 139.419504 200.514451 
L 142.698843 188.436139 
L 145.978182 171.908666 
L 149.257521 155.748769 
L 152.53686 144.757103 
L 155.816198 142.536995 
L 159.095537 150.605208 
L 162.374876 168.012559 
L 165.654215 191.567362 
L 168.933554 216.607134 
L 172.212893 238.129736 
L 175.492231 252.007131 
L 178.77157 255.98473 
L 182.050909 250.221779 
L 185.330248 237.240613 
L 188.609587 221.297345 
L 191.888926 207.328186 
L 195.168264 199.729517 
L 198.447603 201.270508 
L 201.726942 212.404643 
L 205.006281 231.148822 
L 208.28562 253.559752 
L 211.564959 274.691084 
L 214.844298 289.797052 
L 218.123636 295.488 
L 221.402975 290.554949 
L 224.682314 276.26139 
L 227.961653 256.030893 
L 231.240992 234.607074 
L 234.520331 216.891586 
L 237.799669 206.744664 
L 241.079008 206.041881 
L 244.358347 214.218036 
L 247.637686 228.409824 
L 250.917025 244.162314 
L 254.196364 256.526211 
L 257.475702 261.277193 
L 260.755041 255.958712 
L 264.03438 240.492863 
L 267.313719 217.20966 
L 270.593058 190.287462 
L 273.872397 164.74143 
L 277.151736 145.207579 
L 280.431074 134.819999 
L 283.710413 134.456022 
L 286.989752 142.534032 
L 290.269091 155.413277 
L 293.54843 168.297684 
L 296.827769 176.422266 
L 300.107107 176.231516 
L 303.386446 166.261174 
L 306.665785 147.50736 
L 309.945124 123.192587 
L 313.224463 97.985852 
L 316.503802 76.867653 
L 319.78314 63.917752 
L 323.062479 61.322387 
L 326.341818 68.843961 
L 329.621157 83.882987 
L 332.900496 102.117092 
L 336.179835 118.560596 
L 339.459174 128.785239 
L 342.738512 130.003175 
L 346.017851 121.747088 
L 349.29719 105.980949 
L 352.576529 86.614316 
L 355.855868 68.539162 
L 359.135207 56.425092 
L 362.414545 53.568 
L 365.693884 61.074139 
L 368.973223 77.579453 
L 372.252562 99.572996 
L 375.531901 122.245347 
L 378.81124 140.654429 
L 382.090579 150.923396 
L 385.369917 151.17744 
L 388.649256 141.990268 
L 391.928595 126.231072 
L 395.207934 108.349572 
L 398.487273 93.274314 
" clip-path="url(#p1c4038dcb7)" style="fill: none; stroke: #ff7f0e; stroke-width: 1.5; stroke-linecap: square"/>
   </g>
   <g id="patch_3">
    <path d="M 57.6 307.584 
L 57.6 41.472 
" style="fill: none; stroke: #000000; stroke-width: 0.8; stroke-linejoin: miter; stroke-linecap: square"/>
   </g>
   <g id="patch_4">
    <path d="M 414.72 307.584 
L 414.72 41.472 
" style="fill: none; stroke: #000000; stroke-width: 0.8; stroke-linejoin: miter; stroke-linecap: square"/>
   </g>
   <g id="patch_5">
    <path d="M 57.6 307.584 
L 414.72 307.584 
" style="fill: none; stroke: #000000; stroke-width: 0.8; stroke-linejoin: miter; stroke-linecap: square"/>
   </g>
   <g id="patch_6">
    <path d="M 57.6 41.472 
L 414.72 41.472 
" style="fill: none; stroke: #000000; stroke-width: 0.8; stroke-linejoin: miter; stroke-linecap: square"/>
   </g>
   <g id="text_17">
    <!-- Wykres porównujący funkcję przybliżoną  -->
    <g transform="translate(112.073437 21.458625) scale(0.12 -0.12)">
     <defs>
      <path id="DejaVuSans-57" d="M 213 4666 
L 850 4666 
L 1831 722 
L 2809 4666 
L 3519 4666 
L 4500 722 
L 5478 4666 
L 6119 4666 
L 4947 0 
L 4153 0 
L 3169 4050 
L 2175 0 
L 1381 0 
L 213 4666 
z
" transform="scale(0.015625)"/>
      <path id="DejaVuSans-6b" d="M 581 4863 
L 1159 4863 
L 1159 1991 
L 2875 3500 
L 3609 3500 
L 1753 1863 
L 3688 0 
L 2938 0 
L 1159 1709 
L 1159 0 
L 581 0 
L 581 4863 
z
" transform="scale(0.015625)"/>
      <path id="DejaVuSans-72" d="M 2631 2963 
Q 2534 3019 2420 3045 
Q 2306 3072 2169 3072 
Q 1681 3072 1420 2755 
Q 1159 2438 1159 1844 
L 1159 0 
L 581 0 
L 581 3500 
L 1159 3500 
L 1159 2956 
Q 1341 3275 1631 3429 
Q 1922 3584 2338 3584 
Q 2397 3584 2469 3576 
Q 2541 3569 2628 3553 
L 2631 2963 
z
" transform="scale(0.015625)"/>
      <path id="DejaVuSans-65" d="M 3597 1894 
L 3597 1613 
L 953 1613 
Q 991 1019 1311 708 
Q 1631 397 2203 397 
Q 2534 397 2845 478 
Q 3156 559 3463 722 
L 3463 178 
Q 3153 47 2828 -22 
Q 2503 -91 2169 -91 
Q 1331 -91 842 396 
Q 353 884 353 1716 
Q 353 2575 817 3079 
Q 1281 3584 2069 3584 
Q 2775 3584 3186 3129 
Q 3597 2675 3597 1894 
z
M 3022 2063 
Q 3016 2534 2758 2815 
Q 2500 3097 2075 3097 
Q 1594 3097 1305 2825 
Q 1016 2553 972 2059 
L 3022 2063 
z
" transform="scale(0.015625)"/>
      <path id="DejaVuSans-73" d="M 2834 3397 
L 2834 2853 
Q 2591 2978 2328 3040 
Q 2066 3103 1784 3103 
Q 1356 3103 1142 2972 
Q 928 2841 928 2578 
Q 928 2378 1081 2264 
Q 1234 2150 1697 2047 
L 1894 2003 
Q 2506 1872 2764 1633 
Q 3022 1394 3022 966 
Q 3022 478 2636 193 
Q 2250 -91 1575 -91 
Q 1294 -91 989 -36 
Q 684 19 347 128 
L 347 722 
Q 666 556 975 473 
Q 1284 391 1588 391 
Q 1994 391 2212 530 
Q 2431 669 2431 922 
Q 2431 1156 2273 1281 
Q 2116 1406 1581 1522 
L 1381 1569 
Q 847 1681 609 1914 
Q 372 2147 372 2553 
Q 372 3047 722 3315 
Q 1072 3584 1716 3584 
Q 2034 3584 2315 3537 
Q 2597 3491 2834 3397 
z
" transform="scale(0.015625)"/>
      <path id="DejaVuSans-20" transform="scale(0.015625)"/>
      <path id="DejaVuSans-70" d="M 1159 525 
L 1159 -1331 
L 581 -1331 
L 581 3500 
L 1159 3500 
L 1159 2969 
Q 1341 3281 1617 3432 
Q 1894 3584 2278 3584 
Q 2916 3584 3314 3078 
Q 3713 2572 3713 1747 
Q 3713 922 3314 415 
Q 2916 -91 2278 -91 
Q 1894 -91 1617 61 
Q 1341 213 1159 525 
z
M 3116 1747 
Q 3116 2381 2855 2742 
Q 2594 3103 2138 3103 
Q 1681 3103 1420 2742 
Q 1159 2381 1159 1747 
Q 1159 1113 1420 752 
Q 1681 391 2138 391 
Q 2594 391 2855 752 
Q 3116 1113 3116 1747 
z
" transform="scale(0.015625)"/>
      <path id="DejaVuSans-6f" d="M 1959 3097 
Q 1497 3097 1228 2736 
Q 959 2375 959 1747 
Q 959 1119 1226 758 
Q 1494 397 1959 397 
Q 2419 397 2687 759 
Q 2956 1122 2956 1747 
Q 2956 2369 2687 2733 
Q 2419 3097 1959 3097 
z
M 1959 3584 
Q 2709 3584 3137 3096 
Q 3566 2609 3566 1747 
Q 3566 888 3137 398 
Q 2709 -91 1959 -91 
Q 1206 -91 779 398 
Q 353 888 353 1747 
Q 353 2609 779 3096 
Q 1206 3584 1959 3584 
z
" transform="scale(0.015625)"/>
      <path id="DejaVuSans-f3" d="M 1959 3097 
Q 1497 3097 1228 2736 
Q 959 2375 959 1747 
Q 959 1119 1226 758 
Q 1494 397 1959 397 
Q 2419 397 2687 759 
Q 2956 1122 2956 1747 
Q 2956 2369 2687 2733 
Q 2419 3097 1959 3097 
z
M 1959 3584 
Q 2709 3584 3137 3096 
Q 3566 2609 3566 1747 
Q 3566 888 3137 398 
Q 2709 -91 1959 -91 
Q 1206 -91 779 398 
Q 353 888 353 1747 
Q 353 2609 779 3096 
Q 1206 3584 1959 3584 
z
M 2394 5119 
L 3016 5119 
L 1998 3944 
L 1519 3944 
L 2394 5119 
z
" transform="scale(0.015625)"/>
      <path id="DejaVuSans-77" d="M 269 3500 
L 844 3500 
L 1563 769 
L 2278 3500 
L 2956 3500 
L 3675 769 
L 4391 3500 
L 4966 3500 
L 4050 0 
L 3372 0 
L 2619 2869 
L 1863 0 
L 1184 0 
L 269 3500 
z
" transform="scale(0.015625)"/>
      <path id="DejaVuSans-6e" d="M 3513 2113 
L 3513 0 
L 2938 0 
L 2938 2094 
Q 2938 2591 2744 2837 
Q 2550 3084 2163 3084 
Q 1697 3084 1428 2787 
Q 1159 2491 1159 1978 
L 1159 0 
L 581 0 
L 581 3500 
L 1159 3500 
L 1159 2956 
Q 1366 3272 1645 3428 
Q 1925 3584 2291 3584 
Q 2894 3584 3203 3211 
Q 3513 2838 3513 2113 
z
" transform="scale(0.015625)"/>
      <path id="DejaVuSans-75" d="M 544 1381 
L 544 3500 
L 1119 3500 
L 1119 1403 
Q 1119 906 1312 657 
Q 1506 409 1894 409 
Q 2359 409 2629 706 
Q 2900 1003 2900 1516 
L 2900 3500 
L 3475 3500 
L 3475 0 
L 2900 0 
L 2900 538 
Q 2691 219 2414 64 
Q 2138 -91 1772 -91 
Q 1169 -91 856 284 
Q 544 659 544 1381 
z
M 1991 3584 
L 1991 3584 
z
" transform="scale(0.015625)"/>
      <path id="DejaVuSans-6a" d="M 603 3500 
L 1178 3500 
L 1178 -63 
Q 1178 -731 923 -1031 
Q 669 -1331 103 -1331 
L -116 -1331 
L -116 -844 
L 38 -844 
Q 366 -844 484 -692 
Q 603 -541 603 -63 
L 603 3500 
z
M 603 4863 
L 1178 4863 
L 1178 4134 
L 603 4134 
L 603 4863 
z
" transform="scale(0.015625)"/>
      <path id="DejaVuSans-105" d="M 2194 1759 
Q 1497 1759 1228 1600 
Q 959 1441 959 1056 
Q 959 750 1161 570 
Q 1363 391 1709 391 
Q 2188 391 2477 730 
Q 2766 1069 2766 1631 
L 2766 1759 
L 2194 1759 
z
M 3341 1997 
L 3341 0 
L 2766 0 
L 2766 531 
Q 2569 213 2275 61 
Q 1981 -91 1556 -91 
Q 1019 -91 701 211 
Q 384 513 384 1019 
Q 384 1609 779 1909 
Q 1175 2209 1959 2209 
L 2766 2209 
L 2766 2266 
Q 2766 2663 2505 2880 
Q 2244 3097 1772 3097 
Q 1472 3097 1187 3025 
Q 903 2953 641 2809 
L 641 3341 
Q 956 3463 1253 3523 
Q 1550 3584 1831 3584 
Q 2591 3584 2966 3190 
Q 3341 2797 3341 1997 
z
M 2775 0 
L 3147 0 
Q 3006 -191 2939 -328 
Q 2872 -466 2872 -563 
Q 2872 -706 2958 -778 
Q 3044 -850 3213 -850 
Q 3313 -850 3409 -826 
Q 3506 -803 3603 -756 
L 3603 -1172 
Q 3484 -1203 3378 -1218 
Q 3272 -1234 3178 -1234 
Q 2797 -1234 2617 -1098 
Q 2438 -963 2438 -672 
Q 2438 -522 2520 -358 
Q 2603 -194 2775 0 
z
" transform="scale(0.015625)"/>
      <path id="DejaVuSans-63" d="M 3122 3366 
L 3122 2828 
Q 2878 2963 2633 3030 
Q 2388 3097 2138 3097 
Q 1578 3097 1268 2742 
Q 959 2388 959 1747 
Q 959 1106 1268 751 
Q 1578 397 2138 397 
Q 2388 397 2633 464 
Q 2878 531 3122 666 
L 3122 134 
Q 2881 22 2623 -34 
Q 2366 -91 2075 -91 
Q 1284 -91 818 406 
Q 353 903 353 1747 
Q 353 2603 823 3093 
Q 1294 3584 2113 3584 
Q 2378 3584 2631 3529 
Q 2884 3475 3122 3366 
z
" transform="scale(0.015625)"/>
      <path id="DejaVuSans-66" d="M 2375 4863 
L 2375 4384 
L 1825 4384 
Q 1516 4384 1395 4259 
Q 1275 4134 1275 3809 
L 1275 3500 
L 2222 3500 
L 2222 3053 
L 1275 3053 
L 1275 0 
L 697 0 
L 697 3053 
L 147 3053 
L 147 3500 
L 697 3500 
L 697 3744 
Q 697 4328 969 4595 
Q 1241 4863 1831 4863 
L 2375 4863 
z
" transform="scale(0.015625)"/>
      <path id="DejaVuSans-119" d="M 3597 1894 
L 3597 1613 
L 953 1613 
Q 991 1019 1311 708 
Q 1631 397 2203 397 
Q 2534 397 2845 478 
Q 3156 559 3463 722 
L 3463 178 
Q 3153 47 2828 -22 
Q 2503 -91 2169 -91 
Q 1331 -91 842 396 
Q 353 884 353 1716 
Q 353 2575 817 3079 
Q 1281 3584 2069 3584 
Q 2775 3584 3186 3129 
Q 3597 2675 3597 1894 
z
M 3022 2063 
Q 3016 2534 2758 2815 
Q 2500 3097 2075 3097 
Q 1594 3097 1305 2825 
Q 1016 2553 972 2059 
L 3022 2063 
z
M 2551 0 
L 2923 0 
Q 2782 -191 2715 -328 
Q 2648 -466 2648 -563 
Q 2648 -706 2734 -778 
Q 2820 -850 2989 -850 
Q 3089 -850 3185 -826 
Q 3282 -803 3379 -756 
L 3379 -1172 
Q 3260 -1203 3154 -1218 
Q 3048 -1234 2954 -1234 
Q 2573 -1234 2393 -1098 
Q 2214 -963 2214 -672 
Q 2214 -522 2296 -358 
Q 2379 -194 2551 0 
z
" transform="scale(0.015625)"/>
      <path id="DejaVuSans-7a" d="M 353 3500 
L 3084 3500 
L 3084 2975 
L 922 459 
L 3084 459 
L 3084 0 
L 275 0 
L 275 525 
L 2438 3041 
L 353 3041 
L 353 3500 
z
" transform="scale(0.015625)"/>
      <path id="DejaVuSans-62" d="M 3116 1747 
Q 3116 2381 2855 2742 
Q 2594 3103 2138 3103 
Q 1681 3103 1420 2742 
Q 1159 2381 1159 1747 
Q 1159 1113 1420 752 
Q 1681 391 2138 391 
Q 2594 391 2855 752 
Q 3116 1113 3116 1747 
z
M 1159 2969 
Q 1341 3281 1617 3432 
Q 1894 3584 2278 3584 
Q 2916 3584 3314 3078 
Q 3713 2572 3713 1747 
Q 3713 922 3314 415 
Q 2916 -91 2278 -91 
Q 1894 -91 1617 61 
Q 1341 213 1159 525 
L 1159 0 
L 581 0 
L 581 4863 
L 1159 4863 
L 1159 2969 
z
" transform="scale(0.015625)"/>
      <path id="DejaVuSans-6c" d="M 603 4863 
L 1178 4863 
L 1178 0 
L 603 0 
L 603 4863 
z
" transform="scale(0.015625)"/>
      <path id="DejaVuSans-69" d="M 603 3500 
L 1178 3500 
L 1178 0 
L 603 0 
L 603 3500 
z
M 603 4863 
L 1178 4863 
L 1178 4134 
L 603 4134 
L 603 4863 
z
" transform="scale(0.015625)"/>
      <path id="DejaVuSans-17c" d="M 1378 4863 
L 1953 4863 
L 1953 4134 
L 1378 4134 
L 1378 4863 
z
M 1672 3584 
L 1672 3584 
z
M 353 3500 
L 3084 3500 
L 3084 2975 
L 922 459 
L 3084 459 
L 3084 0 
L 275 0 
L 275 525 
L 2438 3041 
L 353 3041 
L 353 3500 
z
" transform="scale(0.015625)"/>
     </defs>
     <use xlink:href="#DejaVuSans-57"/>
     <use xlink:href="#DejaVuSans-79" x="97.126953"/>
     <use xlink:href="#DejaVuSans-6b" x="156.306641"/>
     <use xlink:href="#DejaVuSans-72" x="214.216797"/>
     <use xlink:href="#DejaVuSans-65" x="253.080078"/>
     <use xlink:href="#DejaVuSans-73" x="314.603516"/>
     <use xlink:href="#DejaVuSans-20" x="366.703125"/>
     <use xlink:href="#DejaVuSans-70" x="398.490234"/>
     <use xlink:href="#DejaVuSans-6f" x="461.966797"/>
     <use xlink:href="#DejaVuSans-72" x="523.148438"/>
     <use xlink:href="#DejaVuSans-f3" x="562.011719"/>
     <use xlink:href="#DejaVuSans-77" x="623.193359"/>
     <use xlink:href="#DejaVuSans-6e" x="704.980469"/>
     <use xlink:href="#DejaVuSans-75" x="768.359375"/>
     <use xlink:href="#DejaVuSans-6a" x="831.738281"/>
     <use xlink:href="#DejaVuSans-105" x="859.521484"/>
     <use xlink:href="#DejaVuSans-63" x="920.800781"/>
     <use xlink:href="#DejaVuSans-79" x="975.78125"/>
     <use xlink:href="#DejaVuSans-20" x="1034.960938"/>
     <use xlink:href="#DejaVuSans-66" x="1066.748047"/>
     <use xlink:href="#DejaVuSans-75" x="1101.953125"/>
     <use xlink:href="#DejaVuSans-6e" x="1165.332031"/>
     <use xlink:href="#DejaVuSans-6b" x="1228.710938"/>
     <use xlink:href="#DejaVuSans-63" x="1286.621094"/>
     <use xlink:href="#DejaVuSans-6a" x="1341.601562"/>
     <use xlink:href="#DejaVuSans-119" x="1369.384766"/>
     <use xlink:href="#DejaVuSans-20" x="1430.908203"/>
     <use xlink:href="#DejaVuSans-70" x="1462.695312"/>
     <use xlink:href="#DejaVuSans-72" x="1526.171875"/>
     <use xlink:href="#DejaVuSans-7a" x="1567.285156"/>
     <use xlink:href="#DejaVuSans-79" x="1619.775391"/>
     <use xlink:href="#DejaVuSans-62" x="1678.955078"/>
     <use xlink:href="#DejaVuSans-6c" x="1742.431641"/>
     <use xlink:href="#DejaVuSans-69" x="1770.214844"/>
     <use xlink:href="#DejaVuSans-17c" x="1797.998047"/>
     <use xlink:href="#DejaVuSans-6f" x="1850.488281"/>
     <use xlink:href="#DejaVuSans-6e" x="1911.669922"/>
     <use xlink:href="#DejaVuSans-105" x="1975.048828"/>
     <use xlink:href="#DejaVuSans-20" x="2036.328125"/>
    </g>
    <!-- do rozkładu punktów danych w (a) -->
    <g transform="translate(132.499687 35.472) scale(0.12 -0.12)">
     <defs>
      <path id="DejaVuSans-64" d="M 2906 2969 
L 2906 4863 
L 3481 4863 
L 3481 0 
L 2906 0 
L 2906 525 
Q 2725 213 2448 61 
Q 2172 -91 1784 -91 
Q 1150 -91 751 415 
Q 353 922 353 1747 
Q 353 2572 751 3078 
Q 1150 3584 1784 3584 
Q 2172 3584 2448 3432 
Q 2725 3281 2906 2969 
z
M 947 1747 
Q 947 1113 1208 752 
Q 1469 391 1925 391 
Q 2381 391 2643 752 
Q 2906 1113 2906 1747 
Q 2906 2381 2643 2742 
Q 2381 3103 1925 3103 
Q 1469 3103 1208 2742 
Q 947 2381 947 1747 
z
" transform="scale(0.015625)"/>
      <path id="DejaVuSans-142" d="M 622 4863 
L 1197 4863 
L 1197 2981 
L 1588 3263 
L 1825 2931 
L 1197 2491 
L 1197 0 
L 622 0 
L 622 2081 
L 238 1806 
L 6 2138 
L 622 2578 
L 622 4863 
z
" transform="scale(0.015625)"/>
      <path id="DejaVuSans-61" d="M 2194 1759 
Q 1497 1759 1228 1600 
Q 959 1441 959 1056 
Q 959 750 1161 570 
Q 1363 391 1709 391 
Q 2188 391 2477 730 
Q 2766 1069 2766 1631 
L 2766 1759 
L 2194 1759 
z
M 3341 1997 
L 3341 0 
L 2766 0 
L 2766 531 
Q 2569 213 2275 61 
Q 1981 -91 1556 -91 
Q 1019 -91 701 211 
Q 384 513 384 1019 
Q 384 1609 779 1909 
Q 1175 2209 1959 2209 
L 2766 2209 
L 2766 2266 
Q 2766 2663 2505 2880 
Q 2244 3097 1772 3097 
Q 1472 3097 1187 3025 
Q 903 2953 641 2809 
L 641 3341 
Q 956 3463 1253 3523 
Q 1550 3584 1831 3584 
Q 2591 3584 2966 3190 
Q 3341 2797 3341 1997 
z
" transform="scale(0.015625)"/>
      <path id="DejaVuSans-74" d="M 1172 4494 
L 1172 3500 
L 2356 3500 
L 2356 3053 
L 1172 3053 
L 1172 1153 
Q 1172 725 1289 603 
Q 1406 481 1766 481 
L 2356 481 
L 2356 0 
L 1766 0 
Q 1100 0 847 248 
Q 594 497 594 1153 
L 594 3053 
L 172 3053 
L 172 3500 
L 594 3500 
L 594 4494 
L 1172 4494 
z
" transform="scale(0.015625)"/>
      <path id="DejaVuSans-68" d="M 3513 2113 
L 3513 0 
L 2938 0 
L 2938 2094 
Q 2938 2591 2744 2837 
Q 2550 3084 2163 3084 
Q 1697 3084 1428 2787 
Q 1159 2491 1159 1978 
L 1159 0 
L 581 0 
L 581 4863 
L 1159 4863 
L 1159 2956 
Q 1366 3272 1645 3428 
Q 1925 3584 2291 3584 
Q 2894 3584 3203 3211 
Q 3513 2838 3513 2113 
z
" transform="scale(0.015625)"/>
      <path id="DejaVuSans-28" d="M 1984 4856 
Q 1566 4138 1362 3434 
Q 1159 2731 1159 2009 
Q 1159 1288 1364 580 
Q 1569 -128 1984 -844 
L 1484 -844 
Q 1016 -109 783 600 
Q 550 1309 550 2009 
Q 550 2706 781 3412 
Q 1013 4119 1484 4856 
L 1984 4856 
z
" transform="scale(0.015625)"/>
      <path id="DejaVuSans-29" d="M 513 4856 
L 1013 4856 
Q 1481 4119 1714 3412 
Q 1947 2706 1947 2009 
Q 1947 1309 1714 600 
Q 1481 -109 1013 -844 
L 513 -844 
Q 928 -128 1133 580 
Q 1338 1288 1338 2009 
Q 1338 2731 1133 3434 
Q 928 4138 513 4856 
z
" transform="scale(0.015625)"/>
     </defs>
     <use xlink:href="#DejaVuSans-64"/>
     <use xlink:href="#DejaVuSans-6f" x="63.476562"/>
     <use xlink:href="#DejaVuSans-20" x="124.658203"/>
     <use xlink:href="#DejaVuSans-72" x="156.445312"/>
     <use xlink:href="#DejaVuSans-6f" x="195.308594"/>
     <use xlink:href="#DejaVuSans-7a" x="256.490234"/>
     <use xlink:href="#DejaVuSans-6b" x="308.980469"/>
     <use xlink:href="#DejaVuSans-142" x="366.890625"/>
     <use xlink:href="#DejaVuSans-61" x="395.308594"/>
     <use xlink:href="#DejaVuSans-64" x="456.587891"/>
     <use xlink:href="#DejaVuSans-75" x="520.064453"/>
     <use xlink:href="#DejaVuSans-20" x="583.443359"/>
     <use xlink:href="#DejaVuSans-70" x="615.230469"/>
     <use xlink:href="#DejaVuSans-75" x="678.707031"/>
     <use xlink:href="#DejaVuSans-6e" x="742.085938"/>
     <use xlink:href="#DejaVuSans-6b" x="805.464844"/>
     <use xlink:href="#DejaVuSans-74" x="863.375"/>
     <use xlink:href="#DejaVuSans-f3" x="902.583984"/>
     <use xlink:href="#DejaVuSans-77" x="963.765625"/>
     <use xlink:href="#DejaVuSans-20" x="1045.552734"/>
     <use xlink:href="#DejaVuSans-64" x="1077.339844"/>
     <use xlink:href="#DejaVuSans-61" x="1140.816406"/>
     <use xlink:href="#DejaVuSans-6e" x="1202.095703"/>
     <use xlink:href="#DejaVuSans-79" x="1265.474609"/>
     <use xlink:href="#DejaVuSans-63" x="1324.654297"/>
     <use xlink:href="#DejaVuSans-68" x="1379.634766"/>
     <use xlink:href="#DejaVuSans-20" x="1443.013672"/>
     <use xlink:href="#DejaVuSans-77" x="1474.800781"/>
     <use xlink:href="#DejaVuSans-20" x="1556.587891"/>
     <use xlink:href="#DejaVuSans-28" x="1588.375"/>
     <use xlink:href="#DejaVuSans-61" x="1627.388672"/>
     <use xlink:href="#DejaVuSans-29" x="1688.667969"/>
    </g>
   </g>
   <g id="legend_1">
    <g id="patch_7">
     <path d="M 64.6 78.82825 
L 195.214062 78.82825 
Q 197.214062 78.82825 197.214062 76.82825 
L 197.214062 48.472 
Q 197.214062 46.472 195.214062 46.472 
L 64.6 46.472 
Q 62.6 46.472 62.6 48.472 
L 62.6 76.82825 
Q 62.6 78.82825 64.6 78.82825 
z
" style="fill: #ffffff; opacity: 0.8; stroke: #cccccc; stroke-linejoin: miter"/>
    </g>
    <g id="line2d_17">
     <g>
      <use xlink:href="#m2ba24b65b5" x="76.6" y="54.570437" style="fill: #1f77b4; stroke: #1f77b4"/>
     </g>
    </g>
    <g id="text_18">
     <!-- Dane punkty -->
     <g transform="translate(94.6 58.070437) scale(0.1 -0.1)">
      <defs>
       <path id="DejaVuSans-44" d="M 1259 4147 
L 1259 519 
L 2022 519 
Q 2988 519 3436 956 
Q 3884 1394 3884 2338 
Q 3884 3275 3436 3711 
Q 2988 4147 2022 4147 
L 1259 4147 
z
M 628 4666 
L 1925 4666 
Q 3281 4666 3915 4102 
Q 4550 3538 4550 2338 
Q 4550 1131 3912 565 
Q 3275 0 1925 0 
L 628 0 
L 628 4666 
z
" transform="scale(0.015625)"/>
      </defs>
      <use xlink:href="#DejaVuSans-44"/>
      <use xlink:href="#DejaVuSans-61" x="77.001953"/>
      <use xlink:href="#DejaVuSans-6e" x="138.28125"/>
      <use xlink:href="#DejaVuSans-65" x="201.660156"/>
      <use xlink:href="#DejaVuSans-20" x="263.183594"/>
      <use xlink:href="#DejaVuSans-70" x="294.970703"/>
      <use xlink:href="#DejaVuSans-75" x="358.447266"/>
      <use xlink:href="#DejaVuSans-6e" x="421.826172"/>
      <use xlink:href="#DejaVuSans-6b" x="485.205078"/>
      <use xlink:href="#DejaVuSans-74" x="543.115234"/>
      <use xlink:href="#DejaVuSans-79" x="582.324219"/>
     </g>
    </g>
    <g id="line2d_18">
     <path d="M 66.6 69.248562 
L 76.6 69.248562 
L 86.6 69.248562 
" style="fill: none; stroke: #ff7f0e; stroke-width: 1.5; stroke-linecap: square"/>
    </g>
    <g id="text_19">
     <!-- Funkcja przybliżona -->
     <g transform="translate(94.6 72.748562) scale(0.1 -0.1)">
      <defs>
       <path id="DejaVuSans-46" d="M 628 4666 
L 3309 4666 
L 3309 4134 
L 1259 4134 
L 1259 2759 
L 3109 2759 
L 3109 2228 
L 1259 2228 
L 1259 0 
L 628 0 
L 628 4666 
z
" transform="scale(0.015625)"/>
      </defs>
      <use xlink:href="#DejaVuSans-46"/>
      <use xlink:href="#DejaVuSans-75" x="52.019531"/>
      <use xlink:href="#DejaVuSans-6e" x="115.398438"/>
      <use xlink:href="#DejaVuSans-6b" x="178.777344"/>
      <use xlink:href="#DejaVuSans-63" x="236.6875"/>
      <use xlink:href="#DejaVuSans-6a" x="291.667969"/>
      <use xlink:href="#DejaVuSans-61" x="319.451172"/>
      <use xlink:href="#DejaVuSans-20" x="380.730469"/>
      <use xlink:href="#DejaVuSans-70" x="412.517578"/>
      <use xlink:href="#DejaVuSans-72" x="475.994141"/>
      <use xlink:href="#DejaVuSans-7a" x="517.107422"/>
      <use xlink:href="#DejaVuSans-79" x="569.597656"/>
      <use xlink:href="#DejaVuSans-62" x="628.777344"/>
      <use xlink:href="#DejaVuSans-6c" x="692.253906"/>
      <use xlink:href="#DejaVuSans-69" x="720.037109"/>
      <use xlink:href="#DejaVuSans-17c" x="747.820312"/>
      <use xlink:href="#DejaVuSans-6f" x="800.310547"/>
      <use xlink:href="#DejaVuSans-6e" x="861.492188"/>
      <use xlink:href="#DejaVuSans-61" x="924.871094"/>
     </g>
    </g>
   </g>
  </g>
 </g>
 <defs>
  <clipPath id="p1c4038dcb7">
   <rect x="57.6" y="41.472" width="357.12" height="266.112"/>
  </clipPath>
 </defs>
</svg>
