<?xml version="1.0" encoding="utf-8" standalone="no"?>
<!DOCTYPE svg PUBLIC "-//W3C//DTD SVG 1.1//EN"
  "http://www.w3.org/Graphics/SVG/1.1/DTD/svg11.dtd">
<svg xmlns:xlink="http://www.w3.org/1999/xlink" width="460.8pt" height="345.024pt" viewBox="0 0 460.8 345.024" xmlns="http://www.w3.org/2000/svg" version="1.1">
 <metadata>
  <rdf:RDF xmlns:dc="http://purl.org/dc/elements/1.1/" xmlns:cc="http://creativecommons.org/ns#" xmlns:rdf="http://www.w3.org/1999/02/22-rdf-syntax-ns#">
   <cc:Work>
    <dc:type rdf:resource="http://purl.org/dc/dcmitype/StillImage"/>
    <dc:date>2023-12-06T21:19:04.393563</dc:date>
    <dc:format>image/svg+xml</dc:format>
    <dc:creator>
     <cc:Agent>
      <dc:title>Matplotlib v3.8.0, https://matplotlib.org/</dc:title>
     </cc:Agent>
    </dc:creator>
   </cc:Work>
  </rdf:RDF>
 </metadata>
 <defs>
  <style type="text/css">*{stroke-linejoin: round; stroke-linecap: butt}</style>
 </defs>
 <g id="figure_1">
  <g id="patch_1">
   <path d="M 0 345.024 
L 460.8 345.024 
L 460.8 0 
L 0 0 
z
" style="fill: #ffffff"/>
  </g>
  <g id="axes_1">
   <g id="patch_2">
    <path d="M 57.6 307.07136 
L 414.72 307.07136 
L 414.72 41.40288 
L 57.6 41.40288 
z
" style="fill: #ffffff"/>
   </g>
   <g id="matplotlib.axis_1">
    <g id="xtick_1">
     <g id="line2d_1">
      <defs>
       <path id="m403dc77b7a" d="M 0 0 
L 0 3.5 
" style="stroke: #000000; stroke-width: 0.8"/>
      </defs>
      <g>
       <use xlink:href="#m403dc77b7a" x="106.363243" y="307.07136" style="stroke: #000000; stroke-width: 0.8"/>
      </g>
     </g>
     <g id="text_1">
      <!-- 2 -->
      <g transform="translate(103.181993 321.669798) scale(0.1 -0.1)">
       <defs>
        <path id="DejaVuSans-32" d="M 1228 531 
L 3431 531 
L 3431 0 
L 469 0 
L 469 531 
Q 828 903 1448 1529 
Q 2069 2156 2228 2338 
Q 2531 2678 2651 2914 
Q 2772 3150 2772 3378 
Q 2772 3750 2511 3984 
Q 2250 4219 1831 4219 
Q 1534 4219 1204 4116 
Q 875 4013 500 3803 
L 500 4441 
Q 881 4594 1212 4672 
Q 1544 4750 1819 4750 
Q 2544 4750 2975 4387 
Q 3406 4025 3406 3419 
Q 3406 3131 3298 2873 
Q 3191 2616 2906 2266 
Q 2828 2175 2409 1742 
Q 1991 1309 1228 531 
z
" transform="scale(0.015625)"/>
       </defs>
       <use xlink:href="#DejaVuSans-32"/>
      </g>
     </g>
    </g>
    <g id="xtick_2">
     <g id="line2d_2">
      <g>
       <use xlink:href="#m403dc77b7a" x="171.424274" y="307.07136" style="stroke: #000000; stroke-width: 0.8"/>
      </g>
     </g>
     <g id="text_2">
      <!-- 4 -->
      <g transform="translate(168.243024 321.669798) scale(0.1 -0.1)">
       <defs>
        <path id="DejaVuSans-34" d="M 2419 4116 
L 825 1625 
L 2419 1625 
L 2419 4116 
z
M 2253 4666 
L 3047 4666 
L 3047 1625 
L 3713 1625 
L 3713 1100 
L 3047 1100 
L 3047 0 
L 2419 0 
L 2419 1100 
L 313 1100 
L 313 1709 
L 2253 4666 
z
" transform="scale(0.015625)"/>
       </defs>
       <use xlink:href="#DejaVuSans-34"/>
      </g>
     </g>
    </g>
    <g id="xtick_3">
     <g id="line2d_3">
      <g>
       <use xlink:href="#m403dc77b7a" x="236.485305" y="307.07136" style="stroke: #000000; stroke-width: 0.8"/>
      </g>
     </g>
     <g id="text_3">
      <!-- 6 -->
      <g transform="translate(233.304055 321.669798) scale(0.1 -0.1)">
       <defs>
        <path id="DejaVuSans-36" d="M 2113 2584 
Q 1688 2584 1439 2293 
Q 1191 2003 1191 1497 
Q 1191 994 1439 701 
Q 1688 409 2113 409 
Q 2538 409 2786 701 
Q 3034 994 3034 1497 
Q 3034 2003 2786 2293 
Q 2538 2584 2113 2584 
z
M 3366 4563 
L 3366 3988 
Q 3128 4100 2886 4159 
Q 2644 4219 2406 4219 
Q 1781 4219 1451 3797 
Q 1122 3375 1075 2522 
Q 1259 2794 1537 2939 
Q 1816 3084 2150 3084 
Q 2853 3084 3261 2657 
Q 3669 2231 3669 1497 
Q 3669 778 3244 343 
Q 2819 -91 2113 -91 
Q 1303 -91 875 529 
Q 447 1150 447 2328 
Q 447 3434 972 4092 
Q 1497 4750 2381 4750 
Q 2619 4750 2861 4703 
Q 3103 4656 3366 4563 
z
" transform="scale(0.015625)"/>
       </defs>
       <use xlink:href="#DejaVuSans-36"/>
      </g>
     </g>
    </g>
    <g id="xtick_4">
     <g id="line2d_4">
      <g>
       <use xlink:href="#m403dc77b7a" x="301.546336" y="307.07136" style="stroke: #000000; stroke-width: 0.8"/>
      </g>
     </g>
     <g id="text_4">
      <!-- 8 -->
      <g transform="translate(298.365086 321.669798) scale(0.1 -0.1)">
       <defs>
        <path id="DejaVuSans-38" d="M 2034 2216 
Q 1584 2216 1326 1975 
Q 1069 1734 1069 1313 
Q 1069 891 1326 650 
Q 1584 409 2034 409 
Q 2484 409 2743 651 
Q 3003 894 3003 1313 
Q 3003 1734 2745 1975 
Q 2488 2216 2034 2216 
z
M 1403 2484 
Q 997 2584 770 2862 
Q 544 3141 544 3541 
Q 544 4100 942 4425 
Q 1341 4750 2034 4750 
Q 2731 4750 3128 4425 
Q 3525 4100 3525 3541 
Q 3525 3141 3298 2862 
Q 3072 2584 2669 2484 
Q 3125 2378 3379 2068 
Q 3634 1759 3634 1313 
Q 3634 634 3220 271 
Q 2806 -91 2034 -91 
Q 1263 -91 848 271 
Q 434 634 434 1313 
Q 434 1759 690 2068 
Q 947 2378 1403 2484 
z
M 1172 3481 
Q 1172 3119 1398 2916 
Q 1625 2713 2034 2713 
Q 2441 2713 2670 2916 
Q 2900 3119 2900 3481 
Q 2900 3844 2670 4047 
Q 2441 4250 2034 4250 
Q 1625 4250 1398 4047 
Q 1172 3844 1172 3481 
z
" transform="scale(0.015625)"/>
       </defs>
       <use xlink:href="#DejaVuSans-38"/>
      </g>
     </g>
    </g>
    <g id="xtick_5">
     <g id="line2d_5">
      <g>
       <use xlink:href="#m403dc77b7a" x="366.607367" y="307.07136" style="stroke: #000000; stroke-width: 0.8"/>
      </g>
     </g>
     <g id="text_5">
      <!-- 10 -->
      <g transform="translate(360.244867 321.669798) scale(0.1 -0.1)">
       <defs>
        <path id="DejaVuSans-31" d="M 794 531 
L 1825 531 
L 1825 4091 
L 703 3866 
L 703 4441 
L 1819 4666 
L 2450 4666 
L 2450 531 
L 3481 531 
L 3481 0 
L 794 0 
L 794 531 
z
" transform="scale(0.015625)"/>
        <path id="DejaVuSans-30" d="M 2034 4250 
Q 1547 4250 1301 3770 
Q 1056 3291 1056 2328 
Q 1056 1369 1301 889 
Q 1547 409 2034 409 
Q 2525 409 2770 889 
Q 3016 1369 3016 2328 
Q 3016 3291 2770 3770 
Q 2525 4250 2034 4250 
z
M 2034 4750 
Q 2819 4750 3233 4129 
Q 3647 3509 3647 2328 
Q 3647 1150 3233 529 
Q 2819 -91 2034 -91 
Q 1250 -91 836 529 
Q 422 1150 422 2328 
Q 422 3509 836 4129 
Q 1250 4750 2034 4750 
z
" transform="scale(0.015625)"/>
       </defs>
       <use xlink:href="#DejaVuSans-31"/>
       <use xlink:href="#DejaVuSans-30" x="63.623047"/>
      </g>
     </g>
    </g>
    <g id="text_6">
     <!-- x -->
     <g transform="translate(233.200625 335.347922) scale(0.1 -0.1)">
      <defs>
       <path id="DejaVuSans-78" d="M 3513 3500 
L 2247 1797 
L 3578 0 
L 2900 0 
L 1881 1375 
L 863 0 
L 184 0 
L 1544 1831 
L 300 3500 
L 978 3500 
L 1906 2253 
L 2834 3500 
L 3513 3500 
z
" transform="scale(0.015625)"/>
      </defs>
      <use xlink:href="#DejaVuSans-78"/>
     </g>
    </g>
   </g>
   <g id="matplotlib.axis_2">
    <g id="ytick_1">
     <g id="line2d_6">
      <defs>
       <path id="m8e4ef5f6f0" d="M 0 0 
L -3.5 0 
" style="stroke: #000000; stroke-width: 0.8"/>
      </defs>
      <g>
       <use xlink:href="#m8e4ef5f6f0" x="57.6" y="269.162891" style="stroke: #000000; stroke-width: 0.8"/>
      </g>
     </g>
     <g id="text_7">
      <!-- 0 -->
      <g transform="translate(44.2375 272.96211) scale(0.1 -0.1)">
       <use xlink:href="#DejaVuSans-30"/>
      </g>
     </g>
    </g>
    <g id="ytick_2">
     <g id="line2d_7">
      <g>
       <use xlink:href="#m8e4ef5f6f0" x="57.6" y="217.336135" style="stroke: #000000; stroke-width: 0.8"/>
      </g>
     </g>
     <g id="text_8">
      <!-- 2 -->
      <g transform="translate(44.2375 221.135353) scale(0.1 -0.1)">
       <use xlink:href="#DejaVuSans-32"/>
      </g>
     </g>
    </g>
    <g id="ytick_3">
     <g id="line2d_8">
      <g>
       <use xlink:href="#m8e4ef5f6f0" x="57.6" y="165.509378" style="stroke: #000000; stroke-width: 0.8"/>
      </g>
     </g>
     <g id="text_9">
      <!-- 4 -->
      <g transform="translate(44.2375 169.308597) scale(0.1 -0.1)">
       <use xlink:href="#DejaVuSans-34"/>
      </g>
     </g>
    </g>
    <g id="ytick_4">
     <g id="line2d_9">
      <g>
       <use xlink:href="#m8e4ef5f6f0" x="57.6" y="113.682621" style="stroke: #000000; stroke-width: 0.8"/>
      </g>
     </g>
     <g id="text_10">
      <!-- 6 -->
      <g transform="translate(44.2375 117.48184) scale(0.1 -0.1)">
       <use xlink:href="#DejaVuSans-36"/>
      </g>
     </g>
    </g>
    <g id="ytick_5">
     <g id="line2d_10">
      <g>
       <use xlink:href="#m8e4ef5f6f0" x="57.6" y="61.855864" style="stroke: #000000; stroke-width: 0.8"/>
      </g>
     </g>
     <g id="text_11">
      <!-- 8 -->
      <g transform="translate(44.2375 65.655083) scale(0.1 -0.1)">
       <use xlink:href="#DejaVuSans-38"/>
      </g>
     </g>
    </g>
    <g id="text_12">
     <!-- y -->
     <g transform="translate(38.157812 177.196495) rotate(-90) scale(0.1 -0.1)">
      <defs>
       <path id="DejaVuSans-79" d="M 2059 -325 
Q 1816 -950 1584 -1140 
Q 1353 -1331 966 -1331 
L 506 -1331 
L 506 -850 
L 844 -850 
Q 1081 -850 1212 -737 
Q 1344 -625 1503 -206 
L 1606 56 
L 191 3500 
L 800 3500 
L 1894 763 
L 2988 3500 
L 3597 3500 
L 2059 -325 
z
" transform="scale(0.015625)"/>
      </defs>
      <use xlink:href="#DejaVuSans-79"/>
     </g>
    </g>
   </g>
   <g id="line2d_11">
    <defs>
     <path id="m9d0d45f32a" d="M 0 1.5 
C 0.397805 1.5 0.77937 1.341951 1.06066 1.06066 
C 1.341951 0.77937 1.5 0.397805 1.5 0 
C 1.5 -0.397805 1.341951 -0.77937 1.06066 -1.06066 
C 0.77937 -1.341951 0.397805 -1.5 0 -1.5 
C -0.397805 -1.5 -0.77937 -1.341951 -1.06066 -1.06066 
C -1.341951 -0.77937 -1.5 -0.397805 -1.5 0 
C -1.5 0.397805 -1.341951 0.77937 -1.06066 1.06066 
C -0.77937 1.341951 -0.397805 1.5 0 1.5 
z
" style="stroke: #1f77b4"/>
    </defs>
    <g clip-path="url(#pa74aecc12a)">
     <use xlink:href="#m9d0d45f32a" x="73.832727" y="233.450636" style="fill: #1f77b4; stroke: #1f77b4"/>
     <use xlink:href="#m9d0d45f32a" x="77.085779" y="231.606238" style="fill: #1f77b4; stroke: #1f77b4"/>
     <use xlink:href="#m9d0d45f32a" x="80.33883" y="237.856509" style="fill: #1f77b4; stroke: #1f77b4"/>
     <use xlink:href="#m9d0d45f32a" x="83.591882" y="228.967655" style="fill: #1f77b4; stroke: #1f77b4"/>
     <use xlink:href="#m9d0d45f32a" x="86.844934" y="225.712038" style="fill: #1f77b4; stroke: #1f77b4"/>
     <use xlink:href="#m9d0d45f32a" x="90.097985" y="230.692094" style="fill: #1f77b4; stroke: #1f77b4"/>
     <use xlink:href="#m9d0d45f32a" x="93.351037" y="251.670815" style="fill: #1f77b4; stroke: #1f77b4"/>
     <use xlink:href="#m9d0d45f32a" x="96.604088" y="239.384073" style="fill: #1f77b4; stroke: #1f77b4"/>
     <use xlink:href="#m9d0d45f32a" x="99.85714" y="248.205812" style="fill: #1f77b4; stroke: #1f77b4"/>
     <use xlink:href="#m9d0d45f32a" x="103.110191" y="244.390063" style="fill: #1f77b4; stroke: #1f77b4"/>
     <use xlink:href="#m9d0d45f32a" x="106.363243" y="251.186217" style="fill: #1f77b4; stroke: #1f77b4"/>
     <use xlink:href="#m9d0d45f32a" x="109.616294" y="260.733549" style="fill: #1f77b4; stroke: #1f77b4"/>
     <use xlink:href="#m9d0d45f32a" x="112.869346" y="275.522538" style="fill: #1f77b4; stroke: #1f77b4"/>
     <use xlink:href="#m9d0d45f32a" x="116.122398" y="261.750774" style="fill: #1f77b4; stroke: #1f77b4"/>
     <use xlink:href="#m9d0d45f32a" x="119.375449" y="260.750695" style="fill: #1f77b4; stroke: #1f77b4"/>
     <use xlink:href="#m9d0d45f32a" x="122.628501" y="285.336678" style="fill: #1f77b4; stroke: #1f77b4"/>
     <use xlink:href="#m9d0d45f32a" x="125.881552" y="291.301462" style="fill: #1f77b4; stroke: #1f77b4"/>
     <use xlink:href="#m9d0d45f32a" x="129.134604" y="291.436866" style="fill: #1f77b4; stroke: #1f77b4"/>
     <use xlink:href="#m9d0d45f32a" x="132.387655" y="282.979093" style="fill: #1f77b4; stroke: #1f77b4"/>
     <use xlink:href="#m9d0d45f32a" x="135.640707" y="291.665334" style="fill: #1f77b4; stroke: #1f77b4"/>
     <use xlink:href="#m9d0d45f32a" x="138.893758" y="288.816124" style="fill: #1f77b4; stroke: #1f77b4"/>
     <use xlink:href="#m9d0d45f32a" x="142.14681" y="294.99552" style="fill: #1f77b4; stroke: #1f77b4"/>
     <use xlink:href="#m9d0d45f32a" x="145.399862" y="284.139928" style="fill: #1f77b4; stroke: #1f77b4"/>
     <use xlink:href="#m9d0d45f32a" x="148.652913" y="274.26503" style="fill: #1f77b4; stroke: #1f77b4"/>
     <use xlink:href="#m9d0d45f32a" x="151.905965" y="267.876891" style="fill: #1f77b4; stroke: #1f77b4"/>
     <use xlink:href="#m9d0d45f32a" x="155.159016" y="267.533518" style="fill: #1f77b4; stroke: #1f77b4"/>
     <use xlink:href="#m9d0d45f32a" x="158.412068" y="249.946306" style="fill: #1f77b4; stroke: #1f77b4"/>
     <use xlink:href="#m9d0d45f32a" x="161.665119" y="243.735692" style="fill: #1f77b4; stroke: #1f77b4"/>
     <use xlink:href="#m9d0d45f32a" x="164.918171" y="225.792852" style="fill: #1f77b4; stroke: #1f77b4"/>
     <use xlink:href="#m9d0d45f32a" x="168.171222" y="201.624677" style="fill: #1f77b4; stroke: #1f77b4"/>
     <use xlink:href="#m9d0d45f32a" x="171.424274" y="187.224298" style="fill: #1f77b4; stroke: #1f77b4"/>
     <use xlink:href="#m9d0d45f32a" x="174.677326" y="175.387517" style="fill: #1f77b4; stroke: #1f77b4"/>
     <use xlink:href="#m9d0d45f32a" x="177.930377" y="174.577723" style="fill: #1f77b4; stroke: #1f77b4"/>
     <use xlink:href="#m9d0d45f32a" x="181.183429" y="170.03836" style="fill: #1f77b4; stroke: #1f77b4"/>
     <use xlink:href="#m9d0d45f32a" x="184.43648" y="144.490482" style="fill: #1f77b4; stroke: #1f77b4"/>
     <use xlink:href="#m9d0d45f32a" x="187.689532" y="129.907576" style="fill: #1f77b4; stroke: #1f77b4"/>
     <use xlink:href="#m9d0d45f32a" x="190.942583" y="134.885371" style="fill: #1f77b4; stroke: #1f77b4"/>
     <use xlink:href="#m9d0d45f32a" x="194.195635" y="131.591531" style="fill: #1f77b4; stroke: #1f77b4"/>
     <use xlink:href="#m9d0d45f32a" x="197.448686" y="135.985671" style="fill: #1f77b4; stroke: #1f77b4"/>
     <use xlink:href="#m9d0d45f32a" x="200.701738" y="166.236154" style="fill: #1f77b4; stroke: #1f77b4"/>
     <use xlink:href="#m9d0d45f32a" x="203.95479" y="180.409045" style="fill: #1f77b4; stroke: #1f77b4"/>
     <use xlink:href="#m9d0d45f32a" x="207.207841" y="195.573309" style="fill: #1f77b4; stroke: #1f77b4"/>
     <use xlink:href="#m9d0d45f32a" x="210.460893" y="210.013171" style="fill: #1f77b4; stroke: #1f77b4"/>
     <use xlink:href="#m9d0d45f32a" x="213.713944" y="239.539173" style="fill: #1f77b4; stroke: #1f77b4"/>
     <use xlink:href="#m9d0d45f32a" x="216.966996" y="265.805237" style="fill: #1f77b4; stroke: #1f77b4"/>
     <use xlink:href="#m9d0d45f32a" x="220.220047" y="278.050488" style="fill: #1f77b4; stroke: #1f77b4"/>
     <use xlink:href="#m9d0d45f32a" x="223.473099" y="268.341602" style="fill: #1f77b4; stroke: #1f77b4"/>
     <use xlink:href="#m9d0d45f32a" x="226.72615" y="270.990299" style="fill: #1f77b4; stroke: #1f77b4"/>
     <use xlink:href="#m9d0d45f32a" x="229.979202" y="243.955805" style="fill: #1f77b4; stroke: #1f77b4"/>
     <use xlink:href="#m9d0d45f32a" x="233.232254" y="206.727833" style="fill: #1f77b4; stroke: #1f77b4"/>
     <use xlink:href="#m9d0d45f32a" x="236.485305" y="188.810996" style="fill: #1f77b4; stroke: #1f77b4"/>
     <use xlink:href="#m9d0d45f32a" x="239.738357" y="138.910755" style="fill: #1f77b4; stroke: #1f77b4"/>
     <use xlink:href="#m9d0d45f32a" x="242.991408" y="108.196256" style="fill: #1f77b4; stroke: #1f77b4"/>
     <use xlink:href="#m9d0d45f32a" x="246.24446" y="88.233525" style="fill: #1f77b4; stroke: #1f77b4"/>
     <use xlink:href="#m9d0d45f32a" x="249.497511" y="97.125681" style="fill: #1f77b4; stroke: #1f77b4"/>
     <use xlink:href="#m9d0d45f32a" x="252.750563" y="110.0141" style="fill: #1f77b4; stroke: #1f77b4"/>
     <use xlink:href="#m9d0d45f32a" x="256.003615" y="148.196719" style="fill: #1f77b4; stroke: #1f77b4"/>
     <use xlink:href="#m9d0d45f32a" x="259.256666" y="196.063554" style="fill: #1f77b4; stroke: #1f77b4"/>
     <use xlink:href="#m9d0d45f32a" x="262.509718" y="229.080594" style="fill: #1f77b4; stroke: #1f77b4"/>
     <use xlink:href="#m9d0d45f32a" x="265.762769" y="241.574511" style="fill: #1f77b4; stroke: #1f77b4"/>
     <use xlink:href="#m9d0d45f32a" x="269.015821" y="198.240341" style="fill: #1f77b4; stroke: #1f77b4"/>
     <use xlink:href="#m9d0d45f32a" x="272.268872" y="150.680256" style="fill: #1f77b4; stroke: #1f77b4"/>
     <use xlink:href="#m9d0d45f32a" x="275.521924" y="98.592656" style="fill: #1f77b4; stroke: #1f77b4"/>
     <use xlink:href="#m9d0d45f32a" x="278.774975" y="80.146848" style="fill: #1f77b4; stroke: #1f77b4"/>
     <use xlink:href="#m9d0d45f32a" x="282.028027" y="71.853144" style="fill: #1f77b4; stroke: #1f77b4"/>
     <use xlink:href="#m9d0d45f32a" x="285.281079" y="122.428926" style="fill: #1f77b4; stroke: #1f77b4"/>
     <use xlink:href="#m9d0d45f32a" x="288.53413" y="177.571099" style="fill: #1f77b4; stroke: #1f77b4"/>
     <use xlink:href="#m9d0d45f32a" x="291.787182" y="213.191755" style="fill: #1f77b4; stroke: #1f77b4"/>
     <use xlink:href="#m9d0d45f32a" x="295.040233" y="193.073759" style="fill: #1f77b4; stroke: #1f77b4"/>
     <use xlink:href="#m9d0d45f32a" x="298.293285" y="124.912672" style="fill: #1f77b4; stroke: #1f77b4"/>
     <use xlink:href="#m9d0d45f32a" x="301.546336" y="71.39968" style="fill: #1f77b4; stroke: #1f77b4"/>
     <use xlink:href="#m9d0d45f32a" x="304.799388" y="53.47872" style="fill: #1f77b4; stroke: #1f77b4"/>
     <use xlink:href="#m9d0d45f32a" x="308.052439" y="138.593475" style="fill: #1f77b4; stroke: #1f77b4"/>
     <use xlink:href="#m9d0d45f32a" x="311.305491" y="194.276804" style="fill: #1f77b4; stroke: #1f77b4"/>
     <use xlink:href="#m9d0d45f32a" x="314.558543" y="204.196522" style="fill: #1f77b4; stroke: #1f77b4"/>
     <use xlink:href="#m9d0d45f32a" x="317.811594" y="128.152444" style="fill: #1f77b4; stroke: #1f77b4"/>
     <use xlink:href="#m9d0d45f32a" x="321.064646" y="70.500953" style="fill: #1f77b4; stroke: #1f77b4"/>
     <use xlink:href="#m9d0d45f32a" x="324.317697" y="90.229688" style="fill: #1f77b4; stroke: #1f77b4"/>
     <use xlink:href="#m9d0d45f32a" x="327.570749" y="191.588337" style="fill: #1f77b4; stroke: #1f77b4"/>
     <use xlink:href="#m9d0d45f32a" x="330.8238" y="214.405674" style="fill: #1f77b4; stroke: #1f77b4"/>
     <use xlink:href="#m9d0d45f32a" x="334.076852" y="101.472691" style="fill: #1f77b4; stroke: #1f77b4"/>
     <use xlink:href="#m9d0d45f32a" x="337.329903" y="66.694045" style="fill: #1f77b4; stroke: #1f77b4"/>
     <use xlink:href="#m9d0d45f32a" x="340.582955" y="174.210055" style="fill: #1f77b4; stroke: #1f77b4"/>
     <use xlink:href="#m9d0d45f32a" x="343.836007" y="215.897178" style="fill: #1f77b4; stroke: #1f77b4"/>
     <use xlink:href="#m9d0d45f32a" x="347.089058" y="125.438427" style="fill: #1f77b4; stroke: #1f77b4"/>
     <use xlink:href="#m9d0d45f32a" x="350.34211" y="108.743805" style="fill: #1f77b4; stroke: #1f77b4"/>
     <use xlink:href="#m9d0d45f32a" x="353.595161" y="210.185681" style="fill: #1f77b4; stroke: #1f77b4"/>
     <use xlink:href="#m9d0d45f32a" x="356.848213" y="171.307522" style="fill: #1f77b4; stroke: #1f77b4"/>
     <use xlink:href="#m9d0d45f32a" x="360.101264" y="88.385696" style="fill: #1f77b4; stroke: #1f77b4"/>
     <use xlink:href="#m9d0d45f32a" x="363.354316" y="217.673687" style="fill: #1f77b4; stroke: #1f77b4"/>
     <use xlink:href="#m9d0d45f32a" x="366.607367" y="202.975877" style="fill: #1f77b4; stroke: #1f77b4"/>
     <use xlink:href="#m9d0d45f32a" x="369.860419" y="100.985383" style="fill: #1f77b4; stroke: #1f77b4"/>
     <use xlink:href="#m9d0d45f32a" x="373.113471" y="230.707462" style="fill: #1f77b4; stroke: #1f77b4"/>
     <use xlink:href="#m9d0d45f32a" x="376.366522" y="134.862304" style="fill: #1f77b4; stroke: #1f77b4"/>
     <use xlink:href="#m9d0d45f32a" x="379.619574" y="151.62669" style="fill: #1f77b4; stroke: #1f77b4"/>
     <use xlink:href="#m9d0d45f32a" x="382.872625" y="241.742495" style="fill: #1f77b4; stroke: #1f77b4"/>
     <use xlink:href="#m9d0d45f32a" x="386.125677" y="98.764567" style="fill: #1f77b4; stroke: #1f77b4"/>
     <use xlink:href="#m9d0d45f32a" x="389.378728" y="259.092619" style="fill: #1f77b4; stroke: #1f77b4"/>
     <use xlink:href="#m9d0d45f32a" x="392.63178" y="102.882229" style="fill: #1f77b4; stroke: #1f77b4"/>
     <use xlink:href="#m9d0d45f32a" x="395.884831" y="250.884494" style="fill: #1f77b4; stroke: #1f77b4"/>
    </g>
   </g>
   <g id="line2d_12">
    <path d="M 73.832727 231.441894 
L 77.085779 231.488662 
L 80.33883 232.053598 
L 83.591882 233.171405 
L 86.844934 234.848475 
L 90.097985 237.071742 
L 93.351037 239.812983 
L 96.604088 243.030746 
L 99.85714 246.671032 
L 103.110191 250.667305 
L 106.363243 254.940171 
L 109.616294 259.396938 
L 112.869346 263.931214 
L 116.122398 268.422677 
L 119.375449 272.737145 
L 122.628501 276.727078 
L 125.881552 280.232665 
L 129.134604 283.083675 
L 132.387655 285.102238 
L 135.640707 286.106769 
L 138.893758 285.917238 
L 142.14681 284.361982 
L 145.399862 281.286216 
L 148.652913 276.562375 
L 151.905965 270.102267 
L 155.159016 261.870927 
L 158.412068 251.901799 
L 161.665119 240.312618 
L 164.918171 227.320993 
L 168.171222 213.258231 
L 171.424274 198.57946 
L 174.677326 183.867558 
L 177.930377 169.827866 
L 181.183429 157.270325 
L 184.43648 147.075527 
L 187.689532 140.141553 
L 190.942583 137.309507 
L 194.195635 139.267663 
L 197.448686 146.437358 
L 200.701738 158.848285 
L 203.95479 176.01672 
L 207.207841 196.846882 
L 210.460893 219.582293 
L 213.713944 241.838874 
L 216.966996 260.75219 
L 220.220047 273.264548 
L 223.473099 276.560156 
L 226.72615 268.625589 
L 229.979202 248.868189 
L 233.232254 218.671065 
L 236.485305 181.711666 
L 239.738357 143.841759 
L 242.991408 112.348056 
L 246.24446 94.514873 
L 249.497511 95.611999 
L 252.750563 116.719992 
L 256.003615 153.114014 
L 259.256666 194.118786 
L 262.509718 225.22845 
L 265.762769 232.675641 
L 269.015821 209.498532 
L 272.268872 160.773945 
L 275.521924 104.765407 
L 278.774975 67.287087 
L 282.028027 69.392681 
L 285.281079 113.20524 
L 288.53413 174.964679 
L 291.787182 214.090257 
L 295.040233 198.807724 
L 298.293285 134.343068 
L 301.546336 68.963445 
L 304.799388 61.255767 
L 308.052439 124.556057 
L 311.305491 200.179189 
L 314.558543 205.075315 
L 317.811594 127.26981 
L 321.064646 60.341164 
L 324.317697 99.173551 
L 327.570749 197.708222 
L 330.8238 207.873344 
L 334.076852 108.239068 
L 337.329903 72.706352 
L 340.582955 177.556626 
L 343.836007 222.96922 
L 347.089058 111.861035 
L 350.34211 94.84756 
L 353.595161 222.664681 
L 356.848213 180.283773 
L 360.101264 82.194719 
L 363.354316 209.331851 
L 366.607367 194.35338 
L 369.860419 89.997298 
L 373.113471 236.13969 
L 376.366522 146.025898 
L 379.619574 144.670138 
L 382.872625 231.674708 
L 386.125677 95.940939 
L 389.378728 252.166587 
L 392.63178 94.912948 
L 395.884831 249.118486 
" clip-path="url(#pa74aecc12a)" style="fill: none; stroke: #ff7f0e; stroke-width: 1.5; stroke-linecap: square"/>
   </g>
   <g id="line2d_13">
    <path d="M 73.832727 228.26796 
L 77.085779 229.0149 
L 79.68822 229.838279 
L 82.290661 230.915849 
L 84.893103 232.274558 
L 87.495544 233.926933 
L 90.097985 235.87477 
L 92.700426 238.111349 
L 95.302868 240.622761 
L 98.555919 244.116947 
L 101.808971 247.955464 
L 105.712633 252.920827 
L 111.568125 260.796361 
L 118.074228 269.474027 
L 121.32728 273.478126 
L 123.929721 276.387551 
L 126.532163 278.947288 
L 128.483993 280.586099 
L 130.435824 281.942677 
L 132.387655 282.979093 
L 133.688876 283.473308 
L 134.990097 283.796961 
L 136.291317 283.938851 
L 137.592538 283.887945 
L 138.893758 283.633449 
L 140.194979 283.164891 
L 141.4962 282.472217 
L 142.79742 281.545882 
L 144.098641 280.376959 
L 145.399862 278.957252 
L 146.701082 277.279415 
L 148.002303 275.337077 
L 149.954134 271.916469 
L 151.905965 267.876891 
L 153.857796 263.213504 
L 155.809627 257.93011 
L 157.761457 252.040366 
L 159.713288 245.569002 
L 162.31573 236.101633 
L 164.918171 225.792852 
L 168.171222 211.990028 
L 178.580987 166.789313 
L 180.532818 159.387431 
L 182.484649 152.75467 
L 184.43648 147.08182 
L 185.737701 143.927171 
L 187.038921 141.338488 
L 188.340142 139.368343 
L 188.990752 138.630793 
L 189.641363 138.06607 
L 190.291973 137.679659 
L 190.942583 137.476709 
L 191.593194 137.461991 
L 192.243804 137.639861 
L 192.894414 138.014225 
L 193.545025 138.588493 
L 194.195635 139.365545 
L 194.846245 140.347687 
L 196.147466 142.933369 
L 197.448686 146.351022 
L 198.749907 150.594426 
L 200.051128 155.644443 
L 201.352348 161.467896 
L 203.304179 171.543469 
L 205.25601 183.016749 
L 207.858451 199.932964 
L 214.364555 243.59351 
L 216.316385 254.73727 
L 217.617606 261.074604 
L 218.918827 266.315236 
L 220.220047 270.276475 
L 220.870658 271.723844 
L 221.521268 272.789438 
L 222.171878 273.455292 
L 222.822489 273.705072 
L 223.473099 273.524278 
L 224.123709 272.900442 
L 224.77432 271.823332 
L 225.42493 270.285145 
L 226.07554 268.2807 
L 226.72615 265.807623 
L 228.027371 259.461153 
L 229.328592 251.289219 
L 230.629812 241.389974 
L 231.931033 229.919451 
L 233.882864 210.255236 
L 236.485305 181.036983 
L 239.738357 144.093431 
L 241.690188 124.440973 
L 242.991408 113.378932 
L 244.292629 104.473524 
L 244.943239 100.956074 
L 245.59385 98.121396 
L 246.24446 96.007538 
L 246.89507 94.646571 
L 247.54568 94.063886 
L 248.196291 94.277537 
L 248.846901 95.297614 
L 249.497511 97.125681 
L 250.148122 99.754276 
L 250.798732 103.166495 
L 252.099953 112.22512 
L 253.401173 123.967833 
L 254.702394 137.901068 
L 256.654225 161.458965 
L 259.256666 193.472216 
L 260.557887 207.632456 
L 261.859107 219.288279 
L 262.509718 223.897918 
L 263.160328 227.561438 
L 263.810938 230.191357 
L 264.461549 231.713043 
L 265.112159 232.066686 
L 265.762769 231.20916 
L 266.413379 229.115708 
L 267.06399 225.781426 
L 267.7146 221.222478 
L 268.36521 215.477007 
L 269.666431 200.691913 
L 270.967652 182.181855 
L 272.919483 149.918756 
L 275.521924 106.366669 
L 276.823144 88.148317 
L 277.473755 80.653096 
L 278.124365 74.478381 
L 278.774975 69.781496 
L 279.425586 66.692996 
L 280.076196 65.312071 
L 280.726806 65.702389 
L 281.377417 67.888527 
L 282.028027 71.853144 
L 282.678637 77.535023 
L 283.329248 84.828136 
L 284.630468 103.602217 
L 285.931689 126.469022 
L 288.53413 174.979761 
L 289.835351 195.182914 
L 290.485961 203.101924 
L 291.136571 209.182833 
L 291.787182 213.191755 
L 292.437792 214.949581 
L 293.088402 214.340833 
L 293.739013 211.321045 
L 294.389623 205.922283 
L 295.040233 198.256434 
L 295.690844 188.515958 
L 296.992064 163.968504 
L 300.895726 81.208535 
L 301.546336 71.39968 
L 302.196947 63.996978 
L 302.847557 59.347215 
L 303.498167 57.700678 
L 304.148778 59.19523 
L 304.799388 63.844071 
L 305.449998 71.528064 
L 306.100608 81.993367 
L 307.401829 109.606614 
L 310.654881 188.03605 
L 311.305491 199.45948 
L 311.956101 207.871084 
L 312.606712 212.78367 
L 313.257322 213.869476 
L 313.907932 210.986471 
L 314.558543 204.196522 
L 315.209153 193.773662 
L 315.859763 180.2011 
L 317.160984 146.482748 
L 319.112815 93.738398 
L 319.763425 79.749472 
L 320.414035 69.164307 
L 321.064646 62.72694 
L 321.715256 60.951984 
L 322.365866 64.07844 
L 323.016477 72.03836 
L 323.667087 84.443861 
L 324.317697 100.595039 
L 325.618918 139.977668 
L 326.920138 180.028063 
L 327.570749 196.771013 
L 328.221359 209.593298 
L 328.871969 217.472036 
L 329.52258 219.71806 
L 330.17319 216.048393 
L 330.8238 206.63166 
L 331.474411 192.100276 
L 332.775631 152.353241 
L 334.076852 109.246705 
L 334.727462 91.033481 
L 335.378073 77.348171 
L 336.028683 69.539853 
L 336.679293 68.48264 
L 337.329903 74.468059 
L 337.980514 87.144609 
L 338.631124 105.514646 
L 339.932345 152.534564 
L 341.233565 198.393751 
L 341.884176 215.088004 
L 342.534786 225.080196 
L 343.185396 227.201404 
L 343.836007 221.079854 
L 344.486617 207.226861 
L 345.137227 187.030002 
L 347.739668 92.643315 
L 348.390279 79.803643 
L 349.040889 75.73544 
L 349.691499 81.19864 
L 350.34211 95.787116 
L 350.99272 117.914676 
L 352.944551 199.918108 
L 353.595161 220.551032 
L 354.245772 232.507471 
L 354.896382 233.96635 
L 355.546992 224.528337 
L 356.197602 205.354188 
L 357.498823 149.512807 
L 358.149433 121.101851 
L 358.800044 98.301638 
L 359.450654 84.864387 
L 360.101264 83.20302 
L 360.751875 93.924323 
L 361.402485 115.627129 
L 364.004926 229.563969 
L 364.655537 240.099047 
L 365.306147 236.80513 
L 365.956757 220.021723 
L 366.607367 192.610525 
L 367.908588 127.117301 
L 368.559198 101.689489 
L 369.209809 88.525707 
L 369.860419 90.620032 
L 370.511029 107.965166 
L 371.16164 137.385578 
L 372.46286 207.486875 
L 373.113471 233.2988 
L 373.764081 244.629364 
L 374.414691 238.659903 
L 375.065302 216.404795 
L 377.017132 112.92777 
L 377.667743 93.796716 
L 378.318353 92.906374 
L 378.968963 110.956561 
L 379.619574 143.852676 
L 380.920794 219.708786 
L 381.571405 242.806405 
L 382.222015 246.287328 
L 382.872625 228.785806 
L 383.523236 194.743493 
L 384.824456 116.716027 
L 385.475066 95.37476 
L 386.125677 96.173229 
L 386.776287 119.412588 
L 388.728118 235.45704 
L 389.378728 248.727268 
L 390.029339 236.744889 
L 390.679949 202.916996 
L 391.98117 117.462297 
L 392.63178 95.108215 
L 393.28239 99.373149 
L 393.933001 129.336995 
L 395.234221 219.03032 
L 395.884831 245.701819 
L 396.535442 244.132821 
L 397.186052 214.27144 
L 398.487273 121.225531 
L 398.487273 121.225531 
" clip-path="url(#pa74aecc12a)" style="fill: none; stroke: #2ca02c; stroke-width: 1.5; stroke-linecap: square"/>
   </g>
   <g id="patch_3">
    <path d="M 57.6 307.07136 
L 57.6 41.40288 
" style="fill: none; stroke: #000000; stroke-width: 0.8; stroke-linejoin: miter; stroke-linecap: square"/>
   </g>
   <g id="patch_4">
    <path d="M 414.72 307.07136 
L 414.72 41.40288 
" style="fill: none; stroke: #000000; stroke-width: 0.8; stroke-linejoin: miter; stroke-linecap: square"/>
   </g>
   <g id="patch_5">
    <path d="M 57.6 307.07136 
L 414.72 307.07136 
" style="fill: none; stroke: #000000; stroke-width: 0.8; stroke-linejoin: miter; stroke-linecap: square"/>
   </g>
   <g id="patch_6">
    <path d="M 57.6 41.40288 
L 414.72 41.40288 
" style="fill: none; stroke: #000000; stroke-width: 0.8; stroke-linejoin: miter; stroke-linecap: square"/>
   </g>
   <g id="text_13">
    <!-- Wykres porównujący funkcję przybliżoną do rozkładu  -->
    <g transform="translate(75.159375 21.389505) scale(0.12 -0.12)">
     <defs>
      <path id="DejaVuSans-57" d="M 213 4666 
L 850 4666 
L 1831 722 
L 2809 4666 
L 3519 4666 
L 4500 722 
L 5478 4666 
L 6119 4666 
L 4947 0 
L 4153 0 
L 3169 4050 
L 2175 0 
L 1381 0 
L 213 4666 
z
" transform="scale(0.015625)"/>
      <path id="DejaVuSans-6b" d="M 581 4863 
L 1159 4863 
L 1159 1991 
L 2875 3500 
L 3609 3500 
L 1753 1863 
L 3688 0 
L 2938 0 
L 1159 1709 
L 1159 0 
L 581 0 
L 581 4863 
z
" transform="scale(0.015625)"/>
      <path id="DejaVuSans-72" d="M 2631 2963 
Q 2534 3019 2420 3045 
Q 2306 3072 2169 3072 
Q 1681 3072 1420 2755 
Q 1159 2438 1159 1844 
L 1159 0 
L 581 0 
L 581 3500 
L 1159 3500 
L 1159 2956 
Q 1341 3275 1631 3429 
Q 1922 3584 2338 3584 
Q 2397 3584 2469 3576 
Q 2541 3569 2628 3553 
L 2631 2963 
z
" transform="scale(0.015625)"/>
      <path id="DejaVuSans-65" d="M 3597 1894 
L 3597 1613 
L 953 1613 
Q 991 1019 1311 708 
Q 1631 397 2203 397 
Q 2534 397 2845 478 
Q 3156 559 3463 722 
L 3463 178 
Q 3153 47 2828 -22 
Q 2503 -91 2169 -91 
Q 1331 -91 842 396 
Q 353 884 353 1716 
Q 353 2575 817 3079 
Q 1281 3584 2069 3584 
Q 2775 3584 3186 3129 
Q 3597 2675 3597 1894 
z
M 3022 2063 
Q 3016 2534 2758 2815 
Q 2500 3097 2075 3097 
Q 1594 3097 1305 2825 
Q 1016 2553 972 2059 
L 3022 2063 
z
" transform="scale(0.015625)"/>
      <path id="DejaVuSans-73" d="M 2834 3397 
L 2834 2853 
Q 2591 2978 2328 3040 
Q 2066 3103 1784 3103 
Q 1356 3103 1142 2972 
Q 928 2841 928 2578 
Q 928 2378 1081 2264 
Q 1234 2150 1697 2047 
L 1894 2003 
Q 2506 1872 2764 1633 
Q 3022 1394 3022 966 
Q 3022 478 2636 193 
Q 2250 -91 1575 -91 
Q 1294 -91 989 -36 
Q 684 19 347 128 
L 347 722 
Q 666 556 975 473 
Q 1284 391 1588 391 
Q 1994 391 2212 530 
Q 2431 669 2431 922 
Q 2431 1156 2273 1281 
Q 2116 1406 1581 1522 
L 1381 1569 
Q 847 1681 609 1914 
Q 372 2147 372 2553 
Q 372 3047 722 3315 
Q 1072 3584 1716 3584 
Q 2034 3584 2315 3537 
Q 2597 3491 2834 3397 
z
" transform="scale(0.015625)"/>
      <path id="DejaVuSans-20" transform="scale(0.015625)"/>
      <path id="DejaVuSans-70" d="M 1159 525 
L 1159 -1331 
L 581 -1331 
L 581 3500 
L 1159 3500 
L 1159 2969 
Q 1341 3281 1617 3432 
Q 1894 3584 2278 3584 
Q 2916 3584 3314 3078 
Q 3713 2572 3713 1747 
Q 3713 922 3314 415 
Q 2916 -91 2278 -91 
Q 1894 -91 1617 61 
Q 1341 213 1159 525 
z
M 3116 1747 
Q 3116 2381 2855 2742 
Q 2594 3103 2138 3103 
Q 1681 3103 1420 2742 
Q 1159 2381 1159 1747 
Q 1159 1113 1420 752 
Q 1681 391 2138 391 
Q 2594 391 2855 752 
Q 3116 1113 3116 1747 
z
" transform="scale(0.015625)"/>
      <path id="DejaVuSans-6f" d="M 1959 3097 
Q 1497 3097 1228 2736 
Q 959 2375 959 1747 
Q 959 1119 1226 758 
Q 1494 397 1959 397 
Q 2419 397 2687 759 
Q 2956 1122 2956 1747 
Q 2956 2369 2687 2733 
Q 2419 3097 1959 3097 
z
M 1959 3584 
Q 2709 3584 3137 3096 
Q 3566 2609 3566 1747 
Q 3566 888 3137 398 
Q 2709 -91 1959 -91 
Q 1206 -91 779 398 
Q 353 888 353 1747 
Q 353 2609 779 3096 
Q 1206 3584 1959 3584 
z
" transform="scale(0.015625)"/>
      <path id="DejaVuSans-f3" d="M 1959 3097 
Q 1497 3097 1228 2736 
Q 959 2375 959 1747 
Q 959 1119 1226 758 
Q 1494 397 1959 397 
Q 2419 397 2687 759 
Q 2956 1122 2956 1747 
Q 2956 2369 2687 2733 
Q 2419 3097 1959 3097 
z
M 1959 3584 
Q 2709 3584 3137 3096 
Q 3566 2609 3566 1747 
Q 3566 888 3137 398 
Q 2709 -91 1959 -91 
Q 1206 -91 779 398 
Q 353 888 353 1747 
Q 353 2609 779 3096 
Q 1206 3584 1959 3584 
z
M 2394 5119 
L 3016 5119 
L 1998 3944 
L 1519 3944 
L 2394 5119 
z
" transform="scale(0.015625)"/>
      <path id="DejaVuSans-77" d="M 269 3500 
L 844 3500 
L 1563 769 
L 2278 3500 
L 2956 3500 
L 3675 769 
L 4391 3500 
L 4966 3500 
L 4050 0 
L 3372 0 
L 2619 2869 
L 1863 0 
L 1184 0 
L 269 3500 
z
" transform="scale(0.015625)"/>
      <path id="DejaVuSans-6e" d="M 3513 2113 
L 3513 0 
L 2938 0 
L 2938 2094 
Q 2938 2591 2744 2837 
Q 2550 3084 2163 3084 
Q 1697 3084 1428 2787 
Q 1159 2491 1159 1978 
L 1159 0 
L 581 0 
L 581 3500 
L 1159 3500 
L 1159 2956 
Q 1366 3272 1645 3428 
Q 1925 3584 2291 3584 
Q 2894 3584 3203 3211 
Q 3513 2838 3513 2113 
z
" transform="scale(0.015625)"/>
      <path id="DejaVuSans-75" d="M 544 1381 
L 544 3500 
L 1119 3500 
L 1119 1403 
Q 1119 906 1312 657 
Q 1506 409 1894 409 
Q 2359 409 2629 706 
Q 2900 1003 2900 1516 
L 2900 3500 
L 3475 3500 
L 3475 0 
L 2900 0 
L 2900 538 
Q 2691 219 2414 64 
Q 2138 -91 1772 -91 
Q 1169 -91 856 284 
Q 544 659 544 1381 
z
M 1991 3584 
L 1991 3584 
z
" transform="scale(0.015625)"/>
      <path id="DejaVuSans-6a" d="M 603 3500 
L 1178 3500 
L 1178 -63 
Q 1178 -731 923 -1031 
Q 669 -1331 103 -1331 
L -116 -1331 
L -116 -844 
L 38 -844 
Q 366 -844 484 -692 
Q 603 -541 603 -63 
L 603 3500 
z
M 603 4863 
L 1178 4863 
L 1178 4134 
L 603 4134 
L 603 4863 
z
" transform="scale(0.015625)"/>
      <path id="DejaVuSans-105" d="M 2194 1759 
Q 1497 1759 1228 1600 
Q 959 1441 959 1056 
Q 959 750 1161 570 
Q 1363 391 1709 391 
Q 2188 391 2477 730 
Q 2766 1069 2766 1631 
L 2766 1759 
L 2194 1759 
z
M 3341 1997 
L 3341 0 
L 2766 0 
L 2766 531 
Q 2569 213 2275 61 
Q 1981 -91 1556 -91 
Q 1019 -91 701 211 
Q 384 513 384 1019 
Q 384 1609 779 1909 
Q 1175 2209 1959 2209 
L 2766 2209 
L 2766 2266 
Q 2766 2663 2505 2880 
Q 2244 3097 1772 3097 
Q 1472 3097 1187 3025 
Q 903 2953 641 2809 
L 641 3341 
Q 956 3463 1253 3523 
Q 1550 3584 1831 3584 
Q 2591 3584 2966 3190 
Q 3341 2797 3341 1997 
z
M 2775 0 
L 3147 0 
Q 3006 -191 2939 -328 
Q 2872 -466 2872 -563 
Q 2872 -706 2958 -778 
Q 3044 -850 3213 -850 
Q 3313 -850 3409 -826 
Q 3506 -803 3603 -756 
L 3603 -1172 
Q 3484 -1203 3378 -1218 
Q 3272 -1234 3178 -1234 
Q 2797 -1234 2617 -1098 
Q 2438 -963 2438 -672 
Q 2438 -522 2520 -358 
Q 2603 -194 2775 0 
z
" transform="scale(0.015625)"/>
      <path id="DejaVuSans-63" d="M 3122 3366 
L 3122 2828 
Q 2878 2963 2633 3030 
Q 2388 3097 2138 3097 
Q 1578 3097 1268 2742 
Q 959 2388 959 1747 
Q 959 1106 1268 751 
Q 1578 397 2138 397 
Q 2388 397 2633 464 
Q 2878 531 3122 666 
L 3122 134 
Q 2881 22 2623 -34 
Q 2366 -91 2075 -91 
Q 1284 -91 818 406 
Q 353 903 353 1747 
Q 353 2603 823 3093 
Q 1294 3584 2113 3584 
Q 2378 3584 2631 3529 
Q 2884 3475 3122 3366 
z
" transform="scale(0.015625)"/>
      <path id="DejaVuSans-66" d="M 2375 4863 
L 2375 4384 
L 1825 4384 
Q 1516 4384 1395 4259 
Q 1275 4134 1275 3809 
L 1275 3500 
L 2222 3500 
L 2222 3053 
L 1275 3053 
L 1275 0 
L 697 0 
L 697 3053 
L 147 3053 
L 147 3500 
L 697 3500 
L 697 3744 
Q 697 4328 969 4595 
Q 1241 4863 1831 4863 
L 2375 4863 
z
" transform="scale(0.015625)"/>
      <path id="DejaVuSans-119" d="M 3597 1894 
L 3597 1613 
L 953 1613 
Q 991 1019 1311 708 
Q 1631 397 2203 397 
Q 2534 397 2845 478 
Q 3156 559 3463 722 
L 3463 178 
Q 3153 47 2828 -22 
Q 2503 -91 2169 -91 
Q 1331 -91 842 396 
Q 353 884 353 1716 
Q 353 2575 817 3079 
Q 1281 3584 2069 3584 
Q 2775 3584 3186 3129 
Q 3597 2675 3597 1894 
z
M 3022 2063 
Q 3016 2534 2758 2815 
Q 2500 3097 2075 3097 
Q 1594 3097 1305 2825 
Q 1016 2553 972 2059 
L 3022 2063 
z
M 2551 0 
L 2923 0 
Q 2782 -191 2715 -328 
Q 2648 -466 2648 -563 
Q 2648 -706 2734 -778 
Q 2820 -850 2989 -850 
Q 3089 -850 3185 -826 
Q 3282 -803 3379 -756 
L 3379 -1172 
Q 3260 -1203 3154 -1218 
Q 3048 -1234 2954 -1234 
Q 2573 -1234 2393 -1098 
Q 2214 -963 2214 -672 
Q 2214 -522 2296 -358 
Q 2379 -194 2551 0 
z
" transform="scale(0.015625)"/>
      <path id="DejaVuSans-7a" d="M 353 3500 
L 3084 3500 
L 3084 2975 
L 922 459 
L 3084 459 
L 3084 0 
L 275 0 
L 275 525 
L 2438 3041 
L 353 3041 
L 353 3500 
z
" transform="scale(0.015625)"/>
      <path id="DejaVuSans-62" d="M 3116 1747 
Q 3116 2381 2855 2742 
Q 2594 3103 2138 3103 
Q 1681 3103 1420 2742 
Q 1159 2381 1159 1747 
Q 1159 1113 1420 752 
Q 1681 391 2138 391 
Q 2594 391 2855 752 
Q 3116 1113 3116 1747 
z
M 1159 2969 
Q 1341 3281 1617 3432 
Q 1894 3584 2278 3584 
Q 2916 3584 3314 3078 
Q 3713 2572 3713 1747 
Q 3713 922 3314 415 
Q 2916 -91 2278 -91 
Q 1894 -91 1617 61 
Q 1341 213 1159 525 
L 1159 0 
L 581 0 
L 581 4863 
L 1159 4863 
L 1159 2969 
z
" transform="scale(0.015625)"/>
      <path id="DejaVuSans-6c" d="M 603 4863 
L 1178 4863 
L 1178 0 
L 603 0 
L 603 4863 
z
" transform="scale(0.015625)"/>
      <path id="DejaVuSans-69" d="M 603 3500 
L 1178 3500 
L 1178 0 
L 603 0 
L 603 3500 
z
M 603 4863 
L 1178 4863 
L 1178 4134 
L 603 4134 
L 603 4863 
z
" transform="scale(0.015625)"/>
      <path id="DejaVuSans-17c" d="M 1378 4863 
L 1953 4863 
L 1953 4134 
L 1378 4134 
L 1378 4863 
z
M 1672 3584 
L 1672 3584 
z
M 353 3500 
L 3084 3500 
L 3084 2975 
L 922 459 
L 3084 459 
L 3084 0 
L 275 0 
L 275 525 
L 2438 3041 
L 353 3041 
L 353 3500 
z
" transform="scale(0.015625)"/>
      <path id="DejaVuSans-64" d="M 2906 2969 
L 2906 4863 
L 3481 4863 
L 3481 0 
L 2906 0 
L 2906 525 
Q 2725 213 2448 61 
Q 2172 -91 1784 -91 
Q 1150 -91 751 415 
Q 353 922 353 1747 
Q 353 2572 751 3078 
Q 1150 3584 1784 3584 
Q 2172 3584 2448 3432 
Q 2725 3281 2906 2969 
z
M 947 1747 
Q 947 1113 1208 752 
Q 1469 391 1925 391 
Q 2381 391 2643 752 
Q 2906 1113 2906 1747 
Q 2906 2381 2643 2742 
Q 2381 3103 1925 3103 
Q 1469 3103 1208 2742 
Q 947 2381 947 1747 
z
" transform="scale(0.015625)"/>
      <path id="DejaVuSans-142" d="M 622 4863 
L 1197 4863 
L 1197 2981 
L 1588 3263 
L 1825 2931 
L 1197 2491 
L 1197 0 
L 622 0 
L 622 2081 
L 238 1806 
L 6 2138 
L 622 2578 
L 622 4863 
z
" transform="scale(0.015625)"/>
      <path id="DejaVuSans-61" d="M 2194 1759 
Q 1497 1759 1228 1600 
Q 959 1441 959 1056 
Q 959 750 1161 570 
Q 1363 391 1709 391 
Q 2188 391 2477 730 
Q 2766 1069 2766 1631 
L 2766 1759 
L 2194 1759 
z
M 3341 1997 
L 3341 0 
L 2766 0 
L 2766 531 
Q 2569 213 2275 61 
Q 1981 -91 1556 -91 
Q 1019 -91 701 211 
Q 384 513 384 1019 
Q 384 1609 779 1909 
Q 1175 2209 1959 2209 
L 2766 2209 
L 2766 2266 
Q 2766 2663 2505 2880 
Q 2244 3097 1772 3097 
Q 1472 3097 1187 3025 
Q 903 2953 641 2809 
L 641 3341 
Q 956 3463 1253 3523 
Q 1550 3584 1831 3584 
Q 2591 3584 2966 3190 
Q 3341 2797 3341 1997 
z
" transform="scale(0.015625)"/>
     </defs>
     <use xlink:href="#DejaVuSans-57"/>
     <use xlink:href="#DejaVuSans-79" x="97.126953"/>
     <use xlink:href="#DejaVuSans-6b" x="156.306641"/>
     <use xlink:href="#DejaVuSans-72" x="214.216797"/>
     <use xlink:href="#DejaVuSans-65" x="253.080078"/>
     <use xlink:href="#DejaVuSans-73" x="314.603516"/>
     <use xlink:href="#DejaVuSans-20" x="366.703125"/>
     <use xlink:href="#DejaVuSans-70" x="398.490234"/>
     <use xlink:href="#DejaVuSans-6f" x="461.966797"/>
     <use xlink:href="#DejaVuSans-72" x="523.148438"/>
     <use xlink:href="#DejaVuSans-f3" x="562.011719"/>
     <use xlink:href="#DejaVuSans-77" x="623.193359"/>
     <use xlink:href="#DejaVuSans-6e" x="704.980469"/>
     <use xlink:href="#DejaVuSans-75" x="768.359375"/>
     <use xlink:href="#DejaVuSans-6a" x="831.738281"/>
     <use xlink:href="#DejaVuSans-105" x="859.521484"/>
     <use xlink:href="#DejaVuSans-63" x="920.800781"/>
     <use xlink:href="#DejaVuSans-79" x="975.78125"/>
     <use xlink:href="#DejaVuSans-20" x="1034.960938"/>
     <use xlink:href="#DejaVuSans-66" x="1066.748047"/>
     <use xlink:href="#DejaVuSans-75" x="1101.953125"/>
     <use xlink:href="#DejaVuSans-6e" x="1165.332031"/>
     <use xlink:href="#DejaVuSans-6b" x="1228.710938"/>
     <use xlink:href="#DejaVuSans-63" x="1286.621094"/>
     <use xlink:href="#DejaVuSans-6a" x="1341.601562"/>
     <use xlink:href="#DejaVuSans-119" x="1369.384766"/>
     <use xlink:href="#DejaVuSans-20" x="1430.908203"/>
     <use xlink:href="#DejaVuSans-70" x="1462.695312"/>
     <use xlink:href="#DejaVuSans-72" x="1526.171875"/>
     <use xlink:href="#DejaVuSans-7a" x="1567.285156"/>
     <use xlink:href="#DejaVuSans-79" x="1619.775391"/>
     <use xlink:href="#DejaVuSans-62" x="1678.955078"/>
     <use xlink:href="#DejaVuSans-6c" x="1742.431641"/>
     <use xlink:href="#DejaVuSans-69" x="1770.214844"/>
     <use xlink:href="#DejaVuSans-17c" x="1797.998047"/>
     <use xlink:href="#DejaVuSans-6f" x="1850.488281"/>
     <use xlink:href="#DejaVuSans-6e" x="1911.669922"/>
     <use xlink:href="#DejaVuSans-105" x="1975.048828"/>
     <use xlink:href="#DejaVuSans-20" x="2036.328125"/>
     <use xlink:href="#DejaVuSans-64" x="2068.115234"/>
     <use xlink:href="#DejaVuSans-6f" x="2131.591797"/>
     <use xlink:href="#DejaVuSans-20" x="2192.773438"/>
     <use xlink:href="#DejaVuSans-72" x="2224.560547"/>
     <use xlink:href="#DejaVuSans-6f" x="2263.423828"/>
     <use xlink:href="#DejaVuSans-7a" x="2324.605469"/>
     <use xlink:href="#DejaVuSans-6b" x="2377.095703"/>
     <use xlink:href="#DejaVuSans-142" x="2435.005859"/>
     <use xlink:href="#DejaVuSans-61" x="2463.423828"/>
     <use xlink:href="#DejaVuSans-64" x="2524.703125"/>
     <use xlink:href="#DejaVuSans-75" x="2588.179688"/>
     <use xlink:href="#DejaVuSans-20" x="2651.558594"/>
    </g>
    <!-- punktów danych dla nowej funckji i funkcji modelującej H(x) -->
    <g transform="translate(55.704375 35.40288) scale(0.12 -0.12)">
     <defs>
      <path id="DejaVuSans-74" d="M 1172 4494 
L 1172 3500 
L 2356 3500 
L 2356 3053 
L 1172 3053 
L 1172 1153 
Q 1172 725 1289 603 
Q 1406 481 1766 481 
L 2356 481 
L 2356 0 
L 1766 0 
Q 1100 0 847 248 
Q 594 497 594 1153 
L 594 3053 
L 172 3053 
L 172 3500 
L 594 3500 
L 594 4494 
L 1172 4494 
z
" transform="scale(0.015625)"/>
      <path id="DejaVuSans-68" d="M 3513 2113 
L 3513 0 
L 2938 0 
L 2938 2094 
Q 2938 2591 2744 2837 
Q 2550 3084 2163 3084 
Q 1697 3084 1428 2787 
Q 1159 2491 1159 1978 
L 1159 0 
L 581 0 
L 581 4863 
L 1159 4863 
L 1159 2956 
Q 1366 3272 1645 3428 
Q 1925 3584 2291 3584 
Q 2894 3584 3203 3211 
Q 3513 2838 3513 2113 
z
" transform="scale(0.015625)"/>
      <path id="DejaVuSans-6d" d="M 3328 2828 
Q 3544 3216 3844 3400 
Q 4144 3584 4550 3584 
Q 5097 3584 5394 3201 
Q 5691 2819 5691 2113 
L 5691 0 
L 5113 0 
L 5113 2094 
Q 5113 2597 4934 2840 
Q 4756 3084 4391 3084 
Q 3944 3084 3684 2787 
Q 3425 2491 3425 1978 
L 3425 0 
L 2847 0 
L 2847 2094 
Q 2847 2600 2669 2842 
Q 2491 3084 2119 3084 
Q 1678 3084 1418 2786 
Q 1159 2488 1159 1978 
L 1159 0 
L 581 0 
L 581 3500 
L 1159 3500 
L 1159 2956 
Q 1356 3278 1631 3431 
Q 1906 3584 2284 3584 
Q 2666 3584 2933 3390 
Q 3200 3197 3328 2828 
z
" transform="scale(0.015625)"/>
      <path id="DejaVuSans-48" d="M 628 4666 
L 1259 4666 
L 1259 2753 
L 3553 2753 
L 3553 4666 
L 4184 4666 
L 4184 0 
L 3553 0 
L 3553 2222 
L 1259 2222 
L 1259 0 
L 628 0 
L 628 4666 
z
" transform="scale(0.015625)"/>
      <path id="DejaVuSans-28" d="M 1984 4856 
Q 1566 4138 1362 3434 
Q 1159 2731 1159 2009 
Q 1159 1288 1364 580 
Q 1569 -128 1984 -844 
L 1484 -844 
Q 1016 -109 783 600 
Q 550 1309 550 2009 
Q 550 2706 781 3412 
Q 1013 4119 1484 4856 
L 1984 4856 
z
" transform="scale(0.015625)"/>
      <path id="DejaVuSans-29" d="M 513 4856 
L 1013 4856 
Q 1481 4119 1714 3412 
Q 1947 2706 1947 2009 
Q 1947 1309 1714 600 
Q 1481 -109 1013 -844 
L 513 -844 
Q 928 -128 1133 580 
Q 1338 1288 1338 2009 
Q 1338 2731 1133 3434 
Q 928 4138 513 4856 
z
" transform="scale(0.015625)"/>
     </defs>
     <use xlink:href="#DejaVuSans-70"/>
     <use xlink:href="#DejaVuSans-75" x="63.476562"/>
     <use xlink:href="#DejaVuSans-6e" x="126.855469"/>
     <use xlink:href="#DejaVuSans-6b" x="190.234375"/>
     <use xlink:href="#DejaVuSans-74" x="248.144531"/>
     <use xlink:href="#DejaVuSans-f3" x="287.353516"/>
     <use xlink:href="#DejaVuSans-77" x="348.535156"/>
     <use xlink:href="#DejaVuSans-20" x="430.322266"/>
     <use xlink:href="#DejaVuSans-64" x="462.109375"/>
     <use xlink:href="#DejaVuSans-61" x="525.585938"/>
     <use xlink:href="#DejaVuSans-6e" x="586.865234"/>
     <use xlink:href="#DejaVuSans-79" x="650.244141"/>
     <use xlink:href="#DejaVuSans-63" x="709.423828"/>
     <use xlink:href="#DejaVuSans-68" x="764.404297"/>
     <use xlink:href="#DejaVuSans-20" x="827.783203"/>
     <use xlink:href="#DejaVuSans-64" x="859.570312"/>
     <use xlink:href="#DejaVuSans-6c" x="923.046875"/>
     <use xlink:href="#DejaVuSans-61" x="950.830078"/>
     <use xlink:href="#DejaVuSans-20" x="1012.109375"/>
     <use xlink:href="#DejaVuSans-6e" x="1043.896484"/>
     <use xlink:href="#DejaVuSans-6f" x="1107.275391"/>
     <use xlink:href="#DejaVuSans-77" x="1168.457031"/>
     <use xlink:href="#DejaVuSans-65" x="1250.244141"/>
     <use xlink:href="#DejaVuSans-6a" x="1311.767578"/>
     <use xlink:href="#DejaVuSans-20" x="1339.550781"/>
     <use xlink:href="#DejaVuSans-66" x="1371.337891"/>
     <use xlink:href="#DejaVuSans-75" x="1406.542969"/>
     <use xlink:href="#DejaVuSans-6e" x="1469.921875"/>
     <use xlink:href="#DejaVuSans-63" x="1533.300781"/>
     <use xlink:href="#DejaVuSans-6b" x="1588.28125"/>
     <use xlink:href="#DejaVuSans-6a" x="1646.191406"/>
     <use xlink:href="#DejaVuSans-69" x="1673.974609"/>
     <use xlink:href="#DejaVuSans-20" x="1701.757812"/>
     <use xlink:href="#DejaVuSans-69" x="1733.544922"/>
     <use xlink:href="#DejaVuSans-20" x="1761.328125"/>
     <use xlink:href="#DejaVuSans-66" x="1793.115234"/>
     <use xlink:href="#DejaVuSans-75" x="1828.320312"/>
     <use xlink:href="#DejaVuSans-6e" x="1891.699219"/>
     <use xlink:href="#DejaVuSans-6b" x="1955.078125"/>
     <use xlink:href="#DejaVuSans-63" x="2012.988281"/>
     <use xlink:href="#DejaVuSans-6a" x="2067.96875"/>
     <use xlink:href="#DejaVuSans-69" x="2095.751953"/>
     <use xlink:href="#DejaVuSans-20" x="2123.535156"/>
     <use xlink:href="#DejaVuSans-6d" x="2155.322266"/>
     <use xlink:href="#DejaVuSans-6f" x="2252.734375"/>
     <use xlink:href="#DejaVuSans-64" x="2313.916016"/>
     <use xlink:href="#DejaVuSans-65" x="2377.392578"/>
     <use xlink:href="#DejaVuSans-6c" x="2438.916016"/>
     <use xlink:href="#DejaVuSans-75" x="2466.699219"/>
     <use xlink:href="#DejaVuSans-6a" x="2530.078125"/>
     <use xlink:href="#DejaVuSans-105" x="2557.861328"/>
     <use xlink:href="#DejaVuSans-63" x="2619.140625"/>
     <use xlink:href="#DejaVuSans-65" x="2674.121094"/>
     <use xlink:href="#DejaVuSans-6a" x="2735.644531"/>
     <use xlink:href="#DejaVuSans-20" x="2763.427734"/>
     <use xlink:href="#DejaVuSans-48" x="2795.214844"/>
     <use xlink:href="#DejaVuSans-28" x="2870.410156"/>
     <use xlink:href="#DejaVuSans-78" x="2909.423828"/>
     <use xlink:href="#DejaVuSans-29" x="2968.603516"/>
    </g>
   </g>
   <g id="legend_1">
    <g id="patch_7">
     <path d="M 64.6 93.437255 
L 195.214062 93.437255 
Q 197.214062 93.437255 197.214062 91.437255 
L 197.214062 48.40288 
Q 197.214062 46.40288 195.214062 46.40288 
L 64.6 46.40288 
Q 62.6 46.40288 62.6 48.40288 
L 62.6 91.437255 
Q 62.6 93.437255 64.6 93.437255 
z
" style="fill: #ffffff; opacity: 0.8; stroke: #cccccc; stroke-linejoin: miter"/>
    </g>
    <g id="line2d_14">
     <g>
      <use xlink:href="#m9d0d45f32a" x="76.6" y="54.501317" style="fill: #1f77b4; stroke: #1f77b4"/>
     </g>
    </g>
    <g id="text_14">
     <!-- Dane punkty -->
     <g transform="translate(94.6 58.001317) scale(0.1 -0.1)">
      <defs>
       <path id="DejaVuSans-44" d="M 1259 4147 
L 1259 519 
L 2022 519 
Q 2988 519 3436 956 
Q 3884 1394 3884 2338 
Q 3884 3275 3436 3711 
Q 2988 4147 2022 4147 
L 1259 4147 
z
M 628 4666 
L 1925 4666 
Q 3281 4666 3915 4102 
Q 4550 3538 4550 2338 
Q 4550 1131 3912 565 
Q 3275 0 1925 0 
L 628 0 
L 628 4666 
z
" transform="scale(0.015625)"/>
      </defs>
      <use xlink:href="#DejaVuSans-44"/>
      <use xlink:href="#DejaVuSans-61" x="77.001953"/>
      <use xlink:href="#DejaVuSans-6e" x="138.28125"/>
      <use xlink:href="#DejaVuSans-65" x="201.660156"/>
      <use xlink:href="#DejaVuSans-20" x="263.183594"/>
      <use xlink:href="#DejaVuSans-70" x="294.970703"/>
      <use xlink:href="#DejaVuSans-75" x="358.447266"/>
      <use xlink:href="#DejaVuSans-6e" x="421.826172"/>
      <use xlink:href="#DejaVuSans-6b" x="485.205078"/>
      <use xlink:href="#DejaVuSans-74" x="543.115234"/>
      <use xlink:href="#DejaVuSans-79" x="582.324219"/>
     </g>
    </g>
    <g id="line2d_15">
     <path d="M 66.6 69.179442 
L 76.6 69.179442 
L 86.6 69.179442 
" style="fill: none; stroke: #ff7f0e; stroke-width: 1.5; stroke-linecap: square"/>
    </g>
    <g id="text_15">
     <!-- Funkcja przybliżona -->
     <g transform="translate(94.6 72.679442) scale(0.1 -0.1)">
      <defs>
       <path id="DejaVuSans-46" d="M 628 4666 
L 3309 4666 
L 3309 4134 
L 1259 4134 
L 1259 2759 
L 3109 2759 
L 3109 2228 
L 1259 2228 
L 1259 0 
L 628 0 
L 628 4666 
z
" transform="scale(0.015625)"/>
      </defs>
      <use xlink:href="#DejaVuSans-46"/>
      <use xlink:href="#DejaVuSans-75" x="52.019531"/>
      <use xlink:href="#DejaVuSans-6e" x="115.398438"/>
      <use xlink:href="#DejaVuSans-6b" x="178.777344"/>
      <use xlink:href="#DejaVuSans-63" x="236.6875"/>
      <use xlink:href="#DejaVuSans-6a" x="291.667969"/>
      <use xlink:href="#DejaVuSans-61" x="319.451172"/>
      <use xlink:href="#DejaVuSans-20" x="380.730469"/>
      <use xlink:href="#DejaVuSans-70" x="412.517578"/>
      <use xlink:href="#DejaVuSans-72" x="475.994141"/>
      <use xlink:href="#DejaVuSans-7a" x="517.107422"/>
      <use xlink:href="#DejaVuSans-79" x="569.597656"/>
      <use xlink:href="#DejaVuSans-62" x="628.777344"/>
      <use xlink:href="#DejaVuSans-6c" x="692.253906"/>
      <use xlink:href="#DejaVuSans-69" x="720.037109"/>
      <use xlink:href="#DejaVuSans-17c" x="747.820312"/>
      <use xlink:href="#DejaVuSans-6f" x="800.310547"/>
      <use xlink:href="#DejaVuSans-6e" x="861.492188"/>
      <use xlink:href="#DejaVuSans-61" x="924.871094"/>
     </g>
    </g>
    <g id="line2d_16">
     <path d="M 66.6 83.857567 
L 76.6 83.857567 
L 86.6 83.857567 
" style="fill: none; stroke: #2ca02c; stroke-width: 1.5; stroke-linecap: square"/>
    </g>
    <g id="text_16">
     <!-- Dokładna funkcja -->
     <g transform="translate(94.6 87.357567) scale(0.1 -0.1)">
      <use xlink:href="#DejaVuSans-44"/>
      <use xlink:href="#DejaVuSans-6f" x="77.001953"/>
      <use xlink:href="#DejaVuSans-6b" x="138.183594"/>
      <use xlink:href="#DejaVuSans-142" x="196.09375"/>
      <use xlink:href="#DejaVuSans-61" x="224.511719"/>
      <use xlink:href="#DejaVuSans-64" x="285.791016"/>
      <use xlink:href="#DejaVuSans-6e" x="349.267578"/>
      <use xlink:href="#DejaVuSans-61" x="412.646484"/>
      <use xlink:href="#DejaVuSans-20" x="473.925781"/>
      <use xlink:href="#DejaVuSans-66" x="505.712891"/>
      <use xlink:href="#DejaVuSans-75" x="540.917969"/>
      <use xlink:href="#DejaVuSans-6e" x="604.296875"/>
      <use xlink:href="#DejaVuSans-6b" x="667.675781"/>
      <use xlink:href="#DejaVuSans-63" x="725.585938"/>
      <use xlink:href="#DejaVuSans-6a" x="780.566406"/>
      <use xlink:href="#DejaVuSans-61" x="808.349609"/>
     </g>
    </g>
   </g>
  </g>
 </g>
 <defs>
  <clipPath id="pa74aecc12a">
   <rect x="57.6" y="41.40288" width="357.12" height="265.66848"/>
  </clipPath>
 </defs>
</svg>
