<?xml version="1.0" encoding="utf-8" standalone="no"?>
<!DOCTYPE svg PUBLIC "-//W3C//DTD SVG 1.1//EN"
  "http://www.w3.org/Graphics/SVG/1.1/DTD/svg11.dtd">
<svg xmlns:xlink="http://www.w3.org/1999/xlink" width="460.8pt" height="345.6pt" viewBox="0 0 460.8 345.6" xmlns="http://www.w3.org/2000/svg" version="1.1">
 <metadata>
  <rdf:RDF xmlns:dc="http://purl.org/dc/elements/1.1/" xmlns:cc="http://creativecommons.org/ns#" xmlns:rdf="http://www.w3.org/1999/02/22-rdf-syntax-ns#">
   <cc:Work>
    <dc:type rdf:resource="http://purl.org/dc/dcmitype/StillImage"/>
    <dc:date>2023-11-16T18:45:29.635094</dc:date>
    <dc:format>image/svg+xml</dc:format>
    <dc:creator>
     <cc:Agent>
      <dc:title>Matplotlib v3.8.0, https://matplotlib.org/</dc:title>
     </cc:Agent>
    </dc:creator>
   </cc:Work>
  </rdf:RDF>
 </metadata>
 <defs>
  <style type="text/css">*{stroke-linejoin: round; stroke-linecap: butt}</style>
 </defs>
 <g id="figure_1">
  <g id="patch_1">
   <path d="M 0 345.6 
L 460.8 345.6 
L 460.8 0 
L 0 0 
z
" style="fill: #ffffff"/>
  </g>
  <g id="axes_1">
   <g id="patch_2">
    <path d="M 57.6 307.584 
L 414.72 307.584 
L 414.72 41.472 
L 57.6 41.472 
z
" style="fill: #ffffff"/>
   </g>
   <g id="matplotlib.axis_1">
    <g id="xtick_1">
     <g id="line2d_1">
      <defs>
       <path id="m05eb6a5435" d="M 0 0 
L 0 3.5 
" style="stroke: #000000; stroke-width: 0.8"/>
      </defs>
      <g>
       <use xlink:href="#m05eb6a5435" x="67.207124" y="307.584" style="stroke: #000000; stroke-width: 0.8"/>
      </g>
     </g>
     <g id="text_1">
      <!-- 0 -->
      <g transform="translate(64.025874 322.182437) scale(0.1 -0.1)">
       <defs>
        <path id="DejaVuSans-30" d="M 2034 4250 
Q 1547 4250 1301 3770 
Q 1056 3291 1056 2328 
Q 1056 1369 1301 889 
Q 1547 409 2034 409 
Q 2525 409 2770 889 
Q 3016 1369 3016 2328 
Q 3016 3291 2770 3770 
Q 2525 4250 2034 4250 
z
M 2034 4750 
Q 2819 4750 3233 4129 
Q 3647 3509 3647 2328 
Q 3647 1150 3233 529 
Q 2819 -91 2034 -91 
Q 1250 -91 836 529 
Q 422 1150 422 2328 
Q 422 3509 836 4129 
Q 1250 4750 2034 4750 
z
" transform="scale(0.015625)"/>
       </defs>
       <use xlink:href="#DejaVuSans-30"/>
      </g>
     </g>
    </g>
    <g id="xtick_2">
     <g id="line2d_2">
      <g>
       <use xlink:href="#m05eb6a5435" x="133.463154" y="307.584" style="stroke: #000000; stroke-width: 0.8"/>
      </g>
     </g>
     <g id="text_2">
      <!-- 200 -->
      <g transform="translate(123.919404 322.182437) scale(0.1 -0.1)">
       <defs>
        <path id="DejaVuSans-32" d="M 1228 531 
L 3431 531 
L 3431 0 
L 469 0 
L 469 531 
Q 828 903 1448 1529 
Q 2069 2156 2228 2338 
Q 2531 2678 2651 2914 
Q 2772 3150 2772 3378 
Q 2772 3750 2511 3984 
Q 2250 4219 1831 4219 
Q 1534 4219 1204 4116 
Q 875 4013 500 3803 
L 500 4441 
Q 881 4594 1212 4672 
Q 1544 4750 1819 4750 
Q 2544 4750 2975 4387 
Q 3406 4025 3406 3419 
Q 3406 3131 3298 2873 
Q 3191 2616 2906 2266 
Q 2828 2175 2409 1742 
Q 1991 1309 1228 531 
z
" transform="scale(0.015625)"/>
       </defs>
       <use xlink:href="#DejaVuSans-32"/>
       <use xlink:href="#DejaVuSans-30" x="63.623047"/>
       <use xlink:href="#DejaVuSans-30" x="127.246094"/>
      </g>
     </g>
    </g>
    <g id="xtick_3">
     <g id="line2d_3">
      <g>
       <use xlink:href="#m05eb6a5435" x="199.719184" y="307.584" style="stroke: #000000; stroke-width: 0.8"/>
      </g>
     </g>
     <g id="text_3">
      <!-- 400 -->
      <g transform="translate(190.175434 322.182437) scale(0.1 -0.1)">
       <defs>
        <path id="DejaVuSans-34" d="M 2419 4116 
L 825 1625 
L 2419 1625 
L 2419 4116 
z
M 2253 4666 
L 3047 4666 
L 3047 1625 
L 3713 1625 
L 3713 1100 
L 3047 1100 
L 3047 0 
L 2419 0 
L 2419 1100 
L 313 1100 
L 313 1709 
L 2253 4666 
z
" transform="scale(0.015625)"/>
       </defs>
       <use xlink:href="#DejaVuSans-34"/>
       <use xlink:href="#DejaVuSans-30" x="63.623047"/>
       <use xlink:href="#DejaVuSans-30" x="127.246094"/>
      </g>
     </g>
    </g>
    <g id="xtick_4">
     <g id="line2d_4">
      <g>
       <use xlink:href="#m05eb6a5435" x="265.975213" y="307.584" style="stroke: #000000; stroke-width: 0.8"/>
      </g>
     </g>
     <g id="text_4">
      <!-- 600 -->
      <g transform="translate(256.431463 322.182437) scale(0.1 -0.1)">
       <defs>
        <path id="DejaVuSans-36" d="M 2113 2584 
Q 1688 2584 1439 2293 
Q 1191 2003 1191 1497 
Q 1191 994 1439 701 
Q 1688 409 2113 409 
Q 2538 409 2786 701 
Q 3034 994 3034 1497 
Q 3034 2003 2786 2293 
Q 2538 2584 2113 2584 
z
M 3366 4563 
L 3366 3988 
Q 3128 4100 2886 4159 
Q 2644 4219 2406 4219 
Q 1781 4219 1451 3797 
Q 1122 3375 1075 2522 
Q 1259 2794 1537 2939 
Q 1816 3084 2150 3084 
Q 2853 3084 3261 2657 
Q 3669 2231 3669 1497 
Q 3669 778 3244 343 
Q 2819 -91 2113 -91 
Q 1303 -91 875 529 
Q 447 1150 447 2328 
Q 447 3434 972 4092 
Q 1497 4750 2381 4750 
Q 2619 4750 2861 4703 
Q 3103 4656 3366 4563 
z
" transform="scale(0.015625)"/>
       </defs>
       <use xlink:href="#DejaVuSans-36"/>
       <use xlink:href="#DejaVuSans-30" x="63.623047"/>
       <use xlink:href="#DejaVuSans-30" x="127.246094"/>
      </g>
     </g>
    </g>
    <g id="xtick_5">
     <g id="line2d_5">
      <g>
       <use xlink:href="#m05eb6a5435" x="332.231243" y="307.584" style="stroke: #000000; stroke-width: 0.8"/>
      </g>
     </g>
     <g id="text_5">
      <!-- 800 -->
      <g transform="translate(322.687493 322.182437) scale(0.1 -0.1)">
       <defs>
        <path id="DejaVuSans-38" d="M 2034 2216 
Q 1584 2216 1326 1975 
Q 1069 1734 1069 1313 
Q 1069 891 1326 650 
Q 1584 409 2034 409 
Q 2484 409 2743 651 
Q 3003 894 3003 1313 
Q 3003 1734 2745 1975 
Q 2488 2216 2034 2216 
z
M 1403 2484 
Q 997 2584 770 2862 
Q 544 3141 544 3541 
Q 544 4100 942 4425 
Q 1341 4750 2034 4750 
Q 2731 4750 3128 4425 
Q 3525 4100 3525 3541 
Q 3525 3141 3298 2862 
Q 3072 2584 2669 2484 
Q 3125 2378 3379 2068 
Q 3634 1759 3634 1313 
Q 3634 634 3220 271 
Q 2806 -91 2034 -91 
Q 1263 -91 848 271 
Q 434 634 434 1313 
Q 434 1759 690 2068 
Q 947 2378 1403 2484 
z
M 1172 3481 
Q 1172 3119 1398 2916 
Q 1625 2713 2034 2713 
Q 2441 2713 2670 2916 
Q 2900 3119 2900 3481 
Q 2900 3844 2670 4047 
Q 2441 4250 2034 4250 
Q 1625 4250 1398 4047 
Q 1172 3844 1172 3481 
z
" transform="scale(0.015625)"/>
       </defs>
       <use xlink:href="#DejaVuSans-38"/>
       <use xlink:href="#DejaVuSans-30" x="63.623047"/>
       <use xlink:href="#DejaVuSans-30" x="127.246094"/>
      </g>
     </g>
    </g>
    <g id="xtick_6">
     <g id="line2d_6">
      <g>
       <use xlink:href="#m05eb6a5435" x="398.487273" y="307.584" style="stroke: #000000; stroke-width: 0.8"/>
      </g>
     </g>
     <g id="text_6">
      <!-- 1000 -->
      <g transform="translate(385.762273 322.182437) scale(0.1 -0.1)">
       <defs>
        <path id="DejaVuSans-31" d="M 794 531 
L 1825 531 
L 1825 4091 
L 703 3866 
L 703 4441 
L 1819 4666 
L 2450 4666 
L 2450 531 
L 3481 531 
L 3481 0 
L 794 0 
L 794 531 
z
" transform="scale(0.015625)"/>
       </defs>
       <use xlink:href="#DejaVuSans-31"/>
       <use xlink:href="#DejaVuSans-30" x="63.623047"/>
       <use xlink:href="#DejaVuSans-30" x="127.246094"/>
       <use xlink:href="#DejaVuSans-30" x="190.869141"/>
      </g>
     </g>
    </g>
    <g id="text_7">
     <!-- Parametr N -->
     <g transform="translate(207.894375 335.860562) scale(0.1 -0.1)">
      <defs>
       <path id="DejaVuSans-50" d="M 1259 4147 
L 1259 2394 
L 2053 2394 
Q 2494 2394 2734 2622 
Q 2975 2850 2975 3272 
Q 2975 3691 2734 3919 
Q 2494 4147 2053 4147 
L 1259 4147 
z
M 628 4666 
L 2053 4666 
Q 2838 4666 3239 4311 
Q 3641 3956 3641 3272 
Q 3641 2581 3239 2228 
Q 2838 1875 2053 1875 
L 1259 1875 
L 1259 0 
L 628 0 
L 628 4666 
z
" transform="scale(0.015625)"/>
       <path id="DejaVuSans-61" d="M 2194 1759 
Q 1497 1759 1228 1600 
Q 959 1441 959 1056 
Q 959 750 1161 570 
Q 1363 391 1709 391 
Q 2188 391 2477 730 
Q 2766 1069 2766 1631 
L 2766 1759 
L 2194 1759 
z
M 3341 1997 
L 3341 0 
L 2766 0 
L 2766 531 
Q 2569 213 2275 61 
Q 1981 -91 1556 -91 
Q 1019 -91 701 211 
Q 384 513 384 1019 
Q 384 1609 779 1909 
Q 1175 2209 1959 2209 
L 2766 2209 
L 2766 2266 
Q 2766 2663 2505 2880 
Q 2244 3097 1772 3097 
Q 1472 3097 1187 3025 
Q 903 2953 641 2809 
L 641 3341 
Q 956 3463 1253 3523 
Q 1550 3584 1831 3584 
Q 2591 3584 2966 3190 
Q 3341 2797 3341 1997 
z
" transform="scale(0.015625)"/>
       <path id="DejaVuSans-72" d="M 2631 2963 
Q 2534 3019 2420 3045 
Q 2306 3072 2169 3072 
Q 1681 3072 1420 2755 
Q 1159 2438 1159 1844 
L 1159 0 
L 581 0 
L 581 3500 
L 1159 3500 
L 1159 2956 
Q 1341 3275 1631 3429 
Q 1922 3584 2338 3584 
Q 2397 3584 2469 3576 
Q 2541 3569 2628 3553 
L 2631 2963 
z
" transform="scale(0.015625)"/>
       <path id="DejaVuSans-6d" d="M 3328 2828 
Q 3544 3216 3844 3400 
Q 4144 3584 4550 3584 
Q 5097 3584 5394 3201 
Q 5691 2819 5691 2113 
L 5691 0 
L 5113 0 
L 5113 2094 
Q 5113 2597 4934 2840 
Q 4756 3084 4391 3084 
Q 3944 3084 3684 2787 
Q 3425 2491 3425 1978 
L 3425 0 
L 2847 0 
L 2847 2094 
Q 2847 2600 2669 2842 
Q 2491 3084 2119 3084 
Q 1678 3084 1418 2786 
Q 1159 2488 1159 1978 
L 1159 0 
L 581 0 
L 581 3500 
L 1159 3500 
L 1159 2956 
Q 1356 3278 1631 3431 
Q 1906 3584 2284 3584 
Q 2666 3584 2933 3390 
Q 3200 3197 3328 2828 
z
" transform="scale(0.015625)"/>
       <path id="DejaVuSans-65" d="M 3597 1894 
L 3597 1613 
L 953 1613 
Q 991 1019 1311 708 
Q 1631 397 2203 397 
Q 2534 397 2845 478 
Q 3156 559 3463 722 
L 3463 178 
Q 3153 47 2828 -22 
Q 2503 -91 2169 -91 
Q 1331 -91 842 396 
Q 353 884 353 1716 
Q 353 2575 817 3079 
Q 1281 3584 2069 3584 
Q 2775 3584 3186 3129 
Q 3597 2675 3597 1894 
z
M 3022 2063 
Q 3016 2534 2758 2815 
Q 2500 3097 2075 3097 
Q 1594 3097 1305 2825 
Q 1016 2553 972 2059 
L 3022 2063 
z
" transform="scale(0.015625)"/>
       <path id="DejaVuSans-74" d="M 1172 4494 
L 1172 3500 
L 2356 3500 
L 2356 3053 
L 1172 3053 
L 1172 1153 
Q 1172 725 1289 603 
Q 1406 481 1766 481 
L 2356 481 
L 2356 0 
L 1766 0 
Q 1100 0 847 248 
Q 594 497 594 1153 
L 594 3053 
L 172 3053 
L 172 3500 
L 594 3500 
L 594 4494 
L 1172 4494 
z
" transform="scale(0.015625)"/>
       <path id="DejaVuSans-20" transform="scale(0.015625)"/>
       <path id="DejaVuSans-4e" d="M 628 4666 
L 1478 4666 
L 3547 763 
L 3547 4666 
L 4159 4666 
L 4159 0 
L 3309 0 
L 1241 3903 
L 1241 0 
L 628 0 
L 628 4666 
z
" transform="scale(0.015625)"/>
      </defs>
      <use xlink:href="#DejaVuSans-50"/>
      <use xlink:href="#DejaVuSans-61" x="55.802734"/>
      <use xlink:href="#DejaVuSans-72" x="117.082031"/>
      <use xlink:href="#DejaVuSans-61" x="158.195312"/>
      <use xlink:href="#DejaVuSans-6d" x="219.474609"/>
      <use xlink:href="#DejaVuSans-65" x="316.886719"/>
      <use xlink:href="#DejaVuSans-74" x="378.410156"/>
      <use xlink:href="#DejaVuSans-72" x="417.619141"/>
      <use xlink:href="#DejaVuSans-20" x="458.732422"/>
      <use xlink:href="#DejaVuSans-4e" x="490.519531"/>
     </g>
    </g>
   </g>
   <g id="matplotlib.axis_2">
    <g id="ytick_1">
     <g id="line2d_7">
      <defs>
       <path id="m04342dd08b" d="M 0 0 
L -3.5 0 
" style="stroke: #000000; stroke-width: 0.8"/>
      </defs>
      <g>
       <use xlink:href="#m04342dd08b" x="57.6" y="297.55962" style="stroke: #000000; stroke-width: 0.8"/>
      </g>
     </g>
     <g id="text_8">
      <!-- 0 -->
      <g transform="translate(44.2375 301.358839) scale(0.1 -0.1)">
       <use xlink:href="#DejaVuSans-30"/>
      </g>
     </g>
    </g>
    <g id="ytick_2">
     <g id="line2d_8">
      <g>
       <use xlink:href="#m04342dd08b" x="57.6" y="262.583757" style="stroke: #000000; stroke-width: 0.8"/>
      </g>
     </g>
     <g id="text_9">
      <!-- 10 -->
      <g transform="translate(37.875 266.382976) scale(0.1 -0.1)">
       <use xlink:href="#DejaVuSans-31"/>
       <use xlink:href="#DejaVuSans-30" x="63.623047"/>
      </g>
     </g>
    </g>
    <g id="ytick_3">
     <g id="line2d_9">
      <g>
       <use xlink:href="#m04342dd08b" x="57.6" y="227.607894" style="stroke: #000000; stroke-width: 0.8"/>
      </g>
     </g>
     <g id="text_10">
      <!-- 20 -->
      <g transform="translate(37.875 231.407113) scale(0.1 -0.1)">
       <use xlink:href="#DejaVuSans-32"/>
       <use xlink:href="#DejaVuSans-30" x="63.623047"/>
      </g>
     </g>
    </g>
    <g id="ytick_4">
     <g id="line2d_10">
      <g>
       <use xlink:href="#m04342dd08b" x="57.6" y="192.632031" style="stroke: #000000; stroke-width: 0.8"/>
      </g>
     </g>
     <g id="text_11">
      <!-- 30 -->
      <g transform="translate(37.875 196.43125) scale(0.1 -0.1)">
       <defs>
        <path id="DejaVuSans-33" d="M 2597 2516 
Q 3050 2419 3304 2112 
Q 3559 1806 3559 1356 
Q 3559 666 3084 287 
Q 2609 -91 1734 -91 
Q 1441 -91 1130 -33 
Q 819 25 488 141 
L 488 750 
Q 750 597 1062 519 
Q 1375 441 1716 441 
Q 2309 441 2620 675 
Q 2931 909 2931 1356 
Q 2931 1769 2642 2001 
Q 2353 2234 1838 2234 
L 1294 2234 
L 1294 2753 
L 1863 2753 
Q 2328 2753 2575 2939 
Q 2822 3125 2822 3475 
Q 2822 3834 2567 4026 
Q 2313 4219 1838 4219 
Q 1578 4219 1281 4162 
Q 984 4106 628 3988 
L 628 4550 
Q 988 4650 1302 4700 
Q 1616 4750 1894 4750 
Q 2613 4750 3031 4423 
Q 3450 4097 3450 3541 
Q 3450 3153 3228 2886 
Q 3006 2619 2597 2516 
z
" transform="scale(0.015625)"/>
       </defs>
       <use xlink:href="#DejaVuSans-33"/>
       <use xlink:href="#DejaVuSans-30" x="63.623047"/>
      </g>
     </g>
    </g>
    <g id="ytick_5">
     <g id="line2d_11">
      <g>
       <use xlink:href="#m04342dd08b" x="57.6" y="157.656168" style="stroke: #000000; stroke-width: 0.8"/>
      </g>
     </g>
     <g id="text_12">
      <!-- 40 -->
      <g transform="translate(37.875 161.455387) scale(0.1 -0.1)">
       <use xlink:href="#DejaVuSans-34"/>
       <use xlink:href="#DejaVuSans-30" x="63.623047"/>
      </g>
     </g>
    </g>
    <g id="ytick_6">
     <g id="line2d_12">
      <g>
       <use xlink:href="#m04342dd08b" x="57.6" y="122.680305" style="stroke: #000000; stroke-width: 0.8"/>
      </g>
     </g>
     <g id="text_13">
      <!-- 50 -->
      <g transform="translate(37.875 126.479524) scale(0.1 -0.1)">
       <defs>
        <path id="DejaVuSans-35" d="M 691 4666 
L 3169 4666 
L 3169 4134 
L 1269 4134 
L 1269 2991 
Q 1406 3038 1543 3061 
Q 1681 3084 1819 3084 
Q 2600 3084 3056 2656 
Q 3513 2228 3513 1497 
Q 3513 744 3044 326 
Q 2575 -91 1722 -91 
Q 1428 -91 1123 -41 
Q 819 9 494 109 
L 494 744 
Q 775 591 1075 516 
Q 1375 441 1709 441 
Q 2250 441 2565 725 
Q 2881 1009 2881 1497 
Q 2881 1984 2565 2268 
Q 2250 2553 1709 2553 
Q 1456 2553 1204 2497 
Q 953 2441 691 2322 
L 691 4666 
z
" transform="scale(0.015625)"/>
       </defs>
       <use xlink:href="#DejaVuSans-35"/>
       <use xlink:href="#DejaVuSans-30" x="63.623047"/>
      </g>
     </g>
    </g>
    <g id="ytick_7">
     <g id="line2d_13">
      <g>
       <use xlink:href="#m04342dd08b" x="57.6" y="87.704442" style="stroke: #000000; stroke-width: 0.8"/>
      </g>
     </g>
     <g id="text_14">
      <!-- 60 -->
      <g transform="translate(37.875 91.503661) scale(0.1 -0.1)">
       <use xlink:href="#DejaVuSans-36"/>
       <use xlink:href="#DejaVuSans-30" x="63.623047"/>
      </g>
     </g>
    </g>
    <g id="ytick_8">
     <g id="line2d_14">
      <g>
       <use xlink:href="#m04342dd08b" x="57.6" y="52.728579" style="stroke: #000000; stroke-width: 0.8"/>
      </g>
     </g>
     <g id="text_15">
      <!-- 70 -->
      <g transform="translate(37.875 56.527798) scale(0.1 -0.1)">
       <defs>
        <path id="DejaVuSans-37" d="M 525 4666 
L 3525 4666 
L 3525 4397 
L 1831 0 
L 1172 0 
L 2766 4134 
L 525 4134 
L 525 4666 
z
" transform="scale(0.015625)"/>
       </defs>
       <use xlink:href="#DejaVuSans-37"/>
       <use xlink:href="#DejaVuSans-30" x="63.623047"/>
      </g>
     </g>
    </g>
    <g id="text_16">
     <!-- Czas działania funkcji (ms) -->
     <g transform="translate(31.795312 241.335031) rotate(-90) scale(0.1 -0.1)">
      <defs>
       <path id="DejaVuSans-43" d="M 4122 4306 
L 4122 3641 
Q 3803 3938 3442 4084 
Q 3081 4231 2675 4231 
Q 1875 4231 1450 3742 
Q 1025 3253 1025 2328 
Q 1025 1406 1450 917 
Q 1875 428 2675 428 
Q 3081 428 3442 575 
Q 3803 722 4122 1019 
L 4122 359 
Q 3791 134 3420 21 
Q 3050 -91 2638 -91 
Q 1578 -91 968 557 
Q 359 1206 359 2328 
Q 359 3453 968 4101 
Q 1578 4750 2638 4750 
Q 3056 4750 3426 4639 
Q 3797 4528 4122 4306 
z
" transform="scale(0.015625)"/>
       <path id="DejaVuSans-7a" d="M 353 3500 
L 3084 3500 
L 3084 2975 
L 922 459 
L 3084 459 
L 3084 0 
L 275 0 
L 275 525 
L 2438 3041 
L 353 3041 
L 353 3500 
z
" transform="scale(0.015625)"/>
       <path id="DejaVuSans-73" d="M 2834 3397 
L 2834 2853 
Q 2591 2978 2328 3040 
Q 2066 3103 1784 3103 
Q 1356 3103 1142 2972 
Q 928 2841 928 2578 
Q 928 2378 1081 2264 
Q 1234 2150 1697 2047 
L 1894 2003 
Q 2506 1872 2764 1633 
Q 3022 1394 3022 966 
Q 3022 478 2636 193 
Q 2250 -91 1575 -91 
Q 1294 -91 989 -36 
Q 684 19 347 128 
L 347 722 
Q 666 556 975 473 
Q 1284 391 1588 391 
Q 1994 391 2212 530 
Q 2431 669 2431 922 
Q 2431 1156 2273 1281 
Q 2116 1406 1581 1522 
L 1381 1569 
Q 847 1681 609 1914 
Q 372 2147 372 2553 
Q 372 3047 722 3315 
Q 1072 3584 1716 3584 
Q 2034 3584 2315 3537 
Q 2597 3491 2834 3397 
z
" transform="scale(0.015625)"/>
       <path id="DejaVuSans-64" d="M 2906 2969 
L 2906 4863 
L 3481 4863 
L 3481 0 
L 2906 0 
L 2906 525 
Q 2725 213 2448 61 
Q 2172 -91 1784 -91 
Q 1150 -91 751 415 
Q 353 922 353 1747 
Q 353 2572 751 3078 
Q 1150 3584 1784 3584 
Q 2172 3584 2448 3432 
Q 2725 3281 2906 2969 
z
M 947 1747 
Q 947 1113 1208 752 
Q 1469 391 1925 391 
Q 2381 391 2643 752 
Q 2906 1113 2906 1747 
Q 2906 2381 2643 2742 
Q 2381 3103 1925 3103 
Q 1469 3103 1208 2742 
Q 947 2381 947 1747 
z
" transform="scale(0.015625)"/>
       <path id="DejaVuSans-69" d="M 603 3500 
L 1178 3500 
L 1178 0 
L 603 0 
L 603 3500 
z
M 603 4863 
L 1178 4863 
L 1178 4134 
L 603 4134 
L 603 4863 
z
" transform="scale(0.015625)"/>
       <path id="DejaVuSans-142" d="M 622 4863 
L 1197 4863 
L 1197 2981 
L 1588 3263 
L 1825 2931 
L 1197 2491 
L 1197 0 
L 622 0 
L 622 2081 
L 238 1806 
L 6 2138 
L 622 2578 
L 622 4863 
z
" transform="scale(0.015625)"/>
       <path id="DejaVuSans-6e" d="M 3513 2113 
L 3513 0 
L 2938 0 
L 2938 2094 
Q 2938 2591 2744 2837 
Q 2550 3084 2163 3084 
Q 1697 3084 1428 2787 
Q 1159 2491 1159 1978 
L 1159 0 
L 581 0 
L 581 3500 
L 1159 3500 
L 1159 2956 
Q 1366 3272 1645 3428 
Q 1925 3584 2291 3584 
Q 2894 3584 3203 3211 
Q 3513 2838 3513 2113 
z
" transform="scale(0.015625)"/>
       <path id="DejaVuSans-66" d="M 2375 4863 
L 2375 4384 
L 1825 4384 
Q 1516 4384 1395 4259 
Q 1275 4134 1275 3809 
L 1275 3500 
L 2222 3500 
L 2222 3053 
L 1275 3053 
L 1275 0 
L 697 0 
L 697 3053 
L 147 3053 
L 147 3500 
L 697 3500 
L 697 3744 
Q 697 4328 969 4595 
Q 1241 4863 1831 4863 
L 2375 4863 
z
" transform="scale(0.015625)"/>
       <path id="DejaVuSans-75" d="M 544 1381 
L 544 3500 
L 1119 3500 
L 1119 1403 
Q 1119 906 1312 657 
Q 1506 409 1894 409 
Q 2359 409 2629 706 
Q 2900 1003 2900 1516 
L 2900 3500 
L 3475 3500 
L 3475 0 
L 2900 0 
L 2900 538 
Q 2691 219 2414 64 
Q 2138 -91 1772 -91 
Q 1169 -91 856 284 
Q 544 659 544 1381 
z
M 1991 3584 
L 1991 3584 
z
" transform="scale(0.015625)"/>
       <path id="DejaVuSans-6b" d="M 581 4863 
L 1159 4863 
L 1159 1991 
L 2875 3500 
L 3609 3500 
L 1753 1863 
L 3688 0 
L 2938 0 
L 1159 1709 
L 1159 0 
L 581 0 
L 581 4863 
z
" transform="scale(0.015625)"/>
       <path id="DejaVuSans-63" d="M 3122 3366 
L 3122 2828 
Q 2878 2963 2633 3030 
Q 2388 3097 2138 3097 
Q 1578 3097 1268 2742 
Q 959 2388 959 1747 
Q 959 1106 1268 751 
Q 1578 397 2138 397 
Q 2388 397 2633 464 
Q 2878 531 3122 666 
L 3122 134 
Q 2881 22 2623 -34 
Q 2366 -91 2075 -91 
Q 1284 -91 818 406 
Q 353 903 353 1747 
Q 353 2603 823 3093 
Q 1294 3584 2113 3584 
Q 2378 3584 2631 3529 
Q 2884 3475 3122 3366 
z
" transform="scale(0.015625)"/>
       <path id="DejaVuSans-6a" d="M 603 3500 
L 1178 3500 
L 1178 -63 
Q 1178 -731 923 -1031 
Q 669 -1331 103 -1331 
L -116 -1331 
L -116 -844 
L 38 -844 
Q 366 -844 484 -692 
Q 603 -541 603 -63 
L 603 3500 
z
M 603 4863 
L 1178 4863 
L 1178 4134 
L 603 4134 
L 603 4863 
z
" transform="scale(0.015625)"/>
       <path id="DejaVuSans-28" d="M 1984 4856 
Q 1566 4138 1362 3434 
Q 1159 2731 1159 2009 
Q 1159 1288 1364 580 
Q 1569 -128 1984 -844 
L 1484 -844 
Q 1016 -109 783 600 
Q 550 1309 550 2009 
Q 550 2706 781 3412 
Q 1013 4119 1484 4856 
L 1984 4856 
z
" transform="scale(0.015625)"/>
       <path id="DejaVuSans-29" d="M 513 4856 
L 1013 4856 
Q 1481 4119 1714 3412 
Q 1947 2706 1947 2009 
Q 1947 1309 1714 600 
Q 1481 -109 1013 -844 
L 513 -844 
Q 928 -128 1133 580 
Q 1338 1288 1338 2009 
Q 1338 2731 1133 3434 
Q 928 4138 513 4856 
z
" transform="scale(0.015625)"/>
      </defs>
      <use xlink:href="#DejaVuSans-43"/>
      <use xlink:href="#DejaVuSans-7a" x="69.824219"/>
      <use xlink:href="#DejaVuSans-61" x="122.314453"/>
      <use xlink:href="#DejaVuSans-73" x="183.59375"/>
      <use xlink:href="#DejaVuSans-20" x="235.693359"/>
      <use xlink:href="#DejaVuSans-64" x="267.480469"/>
      <use xlink:href="#DejaVuSans-7a" x="330.957031"/>
      <use xlink:href="#DejaVuSans-69" x="383.447266"/>
      <use xlink:href="#DejaVuSans-61" x="411.230469"/>
      <use xlink:href="#DejaVuSans-142" x="472.509766"/>
      <use xlink:href="#DejaVuSans-61" x="500.927734"/>
      <use xlink:href="#DejaVuSans-6e" x="562.207031"/>
      <use xlink:href="#DejaVuSans-69" x="625.585938"/>
      <use xlink:href="#DejaVuSans-61" x="653.369141"/>
      <use xlink:href="#DejaVuSans-20" x="714.648438"/>
      <use xlink:href="#DejaVuSans-66" x="746.435547"/>
      <use xlink:href="#DejaVuSans-75" x="781.640625"/>
      <use xlink:href="#DejaVuSans-6e" x="845.019531"/>
      <use xlink:href="#DejaVuSans-6b" x="908.398438"/>
      <use xlink:href="#DejaVuSans-63" x="966.308594"/>
      <use xlink:href="#DejaVuSans-6a" x="1021.289062"/>
      <use xlink:href="#DejaVuSans-69" x="1049.072266"/>
      <use xlink:href="#DejaVuSans-20" x="1076.855469"/>
      <use xlink:href="#DejaVuSans-28" x="1108.642578"/>
      <use xlink:href="#DejaVuSans-6d" x="1147.65625"/>
      <use xlink:href="#DejaVuSans-73" x="1245.068359"/>
      <use xlink:href="#DejaVuSans-29" x="1297.167969"/>
     </g>
    </g>
   </g>
   <g id="line2d_15">
    <path d="M 73.832727 295.488 
L 77.145529 293.346428 
L 80.45833 290.736529 
L 83.771132 289.388909 
L 87.083933 287.027339 
L 90.396735 285.421247 
L 93.709536 282.813097 
L 97.022338 280.307776 
L 100.335139 278.221815 
L 103.647941 273.655017 
L 106.960742 273.91069 
L 110.273544 271.934204 
L 113.586345 269.82411 
L 116.899147 266.323376 
L 120.211948 262.821243 
L 123.52475 262.78172 
L 126.837551 258.29012 
L 130.150353 254.679562 
L 133.463154 254.643537 
L 136.775955 250.034418 
L 140.088757 249.328954 
L 143.401558 249.290481 
L 146.71436 243.389353 
L 150.027161 245.317572 
L 153.339963 243.719526 
L 156.652764 241.209307 
L 159.965566 233.890609 
L 163.278367 235.96013 
L 166.591169 230.339859 
L 169.90397 230.575946 
L 173.216772 227.409931 
L 176.529573 225.380631 
L 179.842375 223.858481 
L 183.155176 222.129974 
L 186.467978 219.106661 
L 189.780779 214.807428 
L 193.093581 213.045344 
L 196.406382 208.977651 
L 199.719184 206.376846 
L 203.031985 202.430519 
L 206.344787 201.045125 
L 209.657588 195.288098 
L 212.97039 196.410124 
L 216.283191 192.321096 
L 219.595993 191.777571 
L 222.908794 188.057188 
L 226.221596 185.108023 
L 229.534397 182.770236 
L 232.847199 181.732153 
L 236.16 178.76655 
L 239.472801 175.840119 
L 242.785603 173.017218 
L 246.098404 172.68145 
L 249.411206 168.889366 
L 252.724007 168.499735 
L 256.036809 165.863954 
L 259.34961 161.126823 
L 262.662412 157.497028 
L 265.975213 158.148279 
L 269.288015 152.920087 
L 272.600816 148.065087 
L 275.913618 148.855892 
L 279.226419 145.978077 
L 282.539221 141.72781 
L 285.852022 137.680053 
L 289.164824 135.45384 
L 292.477625 131.247993 
L 295.790427 128.681813 
L 299.103228 129.783903 
L 302.41603 125.101685 
L 305.728831 123.269649 
L 309.041633 119.493654 
L 312.354434 118.721037 
L 315.667236 113.926196 
L 318.980037 111.510763 
L 322.292839 110.547878 
L 325.60564 107.304216 
L 328.918442 104.865699 
L 332.231243 65.979535 
L 335.544045 97.562739 
L 338.856846 97.292375 
L 342.169647 93.548209 
L 345.482449 91.603202 
L 348.79525 88.948533 
L 352.108052 85.705921 
L 355.420853 74.394727 
L 358.733655 80.156302 
L 362.046456 71.839041 
L 365.359258 74.832275 
L 368.672059 61.61 
L 371.984861 73.437088 
L 375.297662 69.364148 
L 378.610464 65.938613 
L 381.923265 65.976037 
L 385.236067 60.916079 
L 388.548868 62.37807 
L 391.86167 65.470636 
L 395.174471 57.123646 
L 398.487273 53.568 
" clip-path="url(#p10c045f669)" style="fill: none; stroke: #1f77b4; stroke-width: 1.5; stroke-linecap: square"/>
    <defs>
     <path id="m7d059e1bac" d="M 0 3 
C 0.795609 3 1.55874 2.683901 2.12132 2.12132 
C 2.683901 1.55874 3 0.795609 3 0 
C 3 -0.795609 2.683901 -1.55874 2.12132 -2.12132 
C 1.55874 -2.683901 0.795609 -3 0 -3 
C -0.795609 -3 -1.55874 -2.683901 -2.12132 -2.12132 
C -2.683901 -1.55874 -3 -0.795609 -3 0 
C -3 0.795609 -2.683901 1.55874 -2.12132 2.12132 
C -1.55874 2.683901 -0.795609 3 0 3 
z
" style="stroke: #1f77b4"/>
    </defs>
    <g clip-path="url(#p10c045f669)">
     <use xlink:href="#m7d059e1bac" x="73.832727" y="295.488" style="fill: #1f77b4; stroke: #1f77b4"/>
     <use xlink:href="#m7d059e1bac" x="77.145529" y="293.346428" style="fill: #1f77b4; stroke: #1f77b4"/>
     <use xlink:href="#m7d059e1bac" x="80.45833" y="290.736529" style="fill: #1f77b4; stroke: #1f77b4"/>
     <use xlink:href="#m7d059e1bac" x="83.771132" y="289.388909" style="fill: #1f77b4; stroke: #1f77b4"/>
     <use xlink:href="#m7d059e1bac" x="87.083933" y="287.027339" style="fill: #1f77b4; stroke: #1f77b4"/>
     <use xlink:href="#m7d059e1bac" x="90.396735" y="285.421247" style="fill: #1f77b4; stroke: #1f77b4"/>
     <use xlink:href="#m7d059e1bac" x="93.709536" y="282.813097" style="fill: #1f77b4; stroke: #1f77b4"/>
     <use xlink:href="#m7d059e1bac" x="97.022338" y="280.307776" style="fill: #1f77b4; stroke: #1f77b4"/>
     <use xlink:href="#m7d059e1bac" x="100.335139" y="278.221815" style="fill: #1f77b4; stroke: #1f77b4"/>
     <use xlink:href="#m7d059e1bac" x="103.647941" y="273.655017" style="fill: #1f77b4; stroke: #1f77b4"/>
     <use xlink:href="#m7d059e1bac" x="106.960742" y="273.91069" style="fill: #1f77b4; stroke: #1f77b4"/>
     <use xlink:href="#m7d059e1bac" x="110.273544" y="271.934204" style="fill: #1f77b4; stroke: #1f77b4"/>
     <use xlink:href="#m7d059e1bac" x="113.586345" y="269.82411" style="fill: #1f77b4; stroke: #1f77b4"/>
     <use xlink:href="#m7d059e1bac" x="116.899147" y="266.323376" style="fill: #1f77b4; stroke: #1f77b4"/>
     <use xlink:href="#m7d059e1bac" x="120.211948" y="262.821243" style="fill: #1f77b4; stroke: #1f77b4"/>
     <use xlink:href="#m7d059e1bac" x="123.52475" y="262.78172" style="fill: #1f77b4; stroke: #1f77b4"/>
     <use xlink:href="#m7d059e1bac" x="126.837551" y="258.29012" style="fill: #1f77b4; stroke: #1f77b4"/>
     <use xlink:href="#m7d059e1bac" x="130.150353" y="254.679562" style="fill: #1f77b4; stroke: #1f77b4"/>
     <use xlink:href="#m7d059e1bac" x="133.463154" y="254.643537" style="fill: #1f77b4; stroke: #1f77b4"/>
     <use xlink:href="#m7d059e1bac" x="136.775955" y="250.034418" style="fill: #1f77b4; stroke: #1f77b4"/>
     <use xlink:href="#m7d059e1bac" x="140.088757" y="249.328954" style="fill: #1f77b4; stroke: #1f77b4"/>
     <use xlink:href="#m7d059e1bac" x="143.401558" y="249.290481" style="fill: #1f77b4; stroke: #1f77b4"/>
     <use xlink:href="#m7d059e1bac" x="146.71436" y="243.389353" style="fill: #1f77b4; stroke: #1f77b4"/>
     <use xlink:href="#m7d059e1bac" x="150.027161" y="245.317572" style="fill: #1f77b4; stroke: #1f77b4"/>
     <use xlink:href="#m7d059e1bac" x="153.339963" y="243.719526" style="fill: #1f77b4; stroke: #1f77b4"/>
     <use xlink:href="#m7d059e1bac" x="156.652764" y="241.209307" style="fill: #1f77b4; stroke: #1f77b4"/>
     <use xlink:href="#m7d059e1bac" x="159.965566" y="233.890609" style="fill: #1f77b4; stroke: #1f77b4"/>
     <use xlink:href="#m7d059e1bac" x="163.278367" y="235.96013" style="fill: #1f77b4; stroke: #1f77b4"/>
     <use xlink:href="#m7d059e1bac" x="166.591169" y="230.339859" style="fill: #1f77b4; stroke: #1f77b4"/>
     <use xlink:href="#m7d059e1bac" x="169.90397" y="230.575946" style="fill: #1f77b4; stroke: #1f77b4"/>
     <use xlink:href="#m7d059e1bac" x="173.216772" y="227.409931" style="fill: #1f77b4; stroke: #1f77b4"/>
     <use xlink:href="#m7d059e1bac" x="176.529573" y="225.380631" style="fill: #1f77b4; stroke: #1f77b4"/>
     <use xlink:href="#m7d059e1bac" x="179.842375" y="223.858481" style="fill: #1f77b4; stroke: #1f77b4"/>
     <use xlink:href="#m7d059e1bac" x="183.155176" y="222.129974" style="fill: #1f77b4; stroke: #1f77b4"/>
     <use xlink:href="#m7d059e1bac" x="186.467978" y="219.106661" style="fill: #1f77b4; stroke: #1f77b4"/>
     <use xlink:href="#m7d059e1bac" x="189.780779" y="214.807428" style="fill: #1f77b4; stroke: #1f77b4"/>
     <use xlink:href="#m7d059e1bac" x="193.093581" y="213.045344" style="fill: #1f77b4; stroke: #1f77b4"/>
     <use xlink:href="#m7d059e1bac" x="196.406382" y="208.977651" style="fill: #1f77b4; stroke: #1f77b4"/>
     <use xlink:href="#m7d059e1bac" x="199.719184" y="206.376846" style="fill: #1f77b4; stroke: #1f77b4"/>
     <use xlink:href="#m7d059e1bac" x="203.031985" y="202.430519" style="fill: #1f77b4; stroke: #1f77b4"/>
     <use xlink:href="#m7d059e1bac" x="206.344787" y="201.045125" style="fill: #1f77b4; stroke: #1f77b4"/>
     <use xlink:href="#m7d059e1bac" x="209.657588" y="195.288098" style="fill: #1f77b4; stroke: #1f77b4"/>
     <use xlink:href="#m7d059e1bac" x="212.97039" y="196.410124" style="fill: #1f77b4; stroke: #1f77b4"/>
     <use xlink:href="#m7d059e1bac" x="216.283191" y="192.321096" style="fill: #1f77b4; stroke: #1f77b4"/>
     <use xlink:href="#m7d059e1bac" x="219.595993" y="191.777571" style="fill: #1f77b4; stroke: #1f77b4"/>
     <use xlink:href="#m7d059e1bac" x="222.908794" y="188.057188" style="fill: #1f77b4; stroke: #1f77b4"/>
     <use xlink:href="#m7d059e1bac" x="226.221596" y="185.108023" style="fill: #1f77b4; stroke: #1f77b4"/>
     <use xlink:href="#m7d059e1bac" x="229.534397" y="182.770236" style="fill: #1f77b4; stroke: #1f77b4"/>
     <use xlink:href="#m7d059e1bac" x="232.847199" y="181.732153" style="fill: #1f77b4; stroke: #1f77b4"/>
     <use xlink:href="#m7d059e1bac" x="236.16" y="178.76655" style="fill: #1f77b4; stroke: #1f77b4"/>
     <use xlink:href="#m7d059e1bac" x="239.472801" y="175.840119" style="fill: #1f77b4; stroke: #1f77b4"/>
     <use xlink:href="#m7d059e1bac" x="242.785603" y="173.017218" style="fill: #1f77b4; stroke: #1f77b4"/>
     <use xlink:href="#m7d059e1bac" x="246.098404" y="172.68145" style="fill: #1f77b4; stroke: #1f77b4"/>
     <use xlink:href="#m7d059e1bac" x="249.411206" y="168.889366" style="fill: #1f77b4; stroke: #1f77b4"/>
     <use xlink:href="#m7d059e1bac" x="252.724007" y="168.499735" style="fill: #1f77b4; stroke: #1f77b4"/>
     <use xlink:href="#m7d059e1bac" x="256.036809" y="165.863954" style="fill: #1f77b4; stroke: #1f77b4"/>
     <use xlink:href="#m7d059e1bac" x="259.34961" y="161.126823" style="fill: #1f77b4; stroke: #1f77b4"/>
     <use xlink:href="#m7d059e1bac" x="262.662412" y="157.497028" style="fill: #1f77b4; stroke: #1f77b4"/>
     <use xlink:href="#m7d059e1bac" x="265.975213" y="158.148279" style="fill: #1f77b4; stroke: #1f77b4"/>
     <use xlink:href="#m7d059e1bac" x="269.288015" y="152.920087" style="fill: #1f77b4; stroke: #1f77b4"/>
     <use xlink:href="#m7d059e1bac" x="272.600816" y="148.065087" style="fill: #1f77b4; stroke: #1f77b4"/>
     <use xlink:href="#m7d059e1bac" x="275.913618" y="148.855892" style="fill: #1f77b4; stroke: #1f77b4"/>
     <use xlink:href="#m7d059e1bac" x="279.226419" y="145.978077" style="fill: #1f77b4; stroke: #1f77b4"/>
     <use xlink:href="#m7d059e1bac" x="282.539221" y="141.72781" style="fill: #1f77b4; stroke: #1f77b4"/>
     <use xlink:href="#m7d059e1bac" x="285.852022" y="137.680053" style="fill: #1f77b4; stroke: #1f77b4"/>
     <use xlink:href="#m7d059e1bac" x="289.164824" y="135.45384" style="fill: #1f77b4; stroke: #1f77b4"/>
     <use xlink:href="#m7d059e1bac" x="292.477625" y="131.247993" style="fill: #1f77b4; stroke: #1f77b4"/>
     <use xlink:href="#m7d059e1bac" x="295.790427" y="128.681813" style="fill: #1f77b4; stroke: #1f77b4"/>
     <use xlink:href="#m7d059e1bac" x="299.103228" y="129.783903" style="fill: #1f77b4; stroke: #1f77b4"/>
     <use xlink:href="#m7d059e1bac" x="302.41603" y="125.101685" style="fill: #1f77b4; stroke: #1f77b4"/>
     <use xlink:href="#m7d059e1bac" x="305.728831" y="123.269649" style="fill: #1f77b4; stroke: #1f77b4"/>
     <use xlink:href="#m7d059e1bac" x="309.041633" y="119.493654" style="fill: #1f77b4; stroke: #1f77b4"/>
     <use xlink:href="#m7d059e1bac" x="312.354434" y="118.721037" style="fill: #1f77b4; stroke: #1f77b4"/>
     <use xlink:href="#m7d059e1bac" x="315.667236" y="113.926196" style="fill: #1f77b4; stroke: #1f77b4"/>
     <use xlink:href="#m7d059e1bac" x="318.980037" y="111.510763" style="fill: #1f77b4; stroke: #1f77b4"/>
     <use xlink:href="#m7d059e1bac" x="322.292839" y="110.547878" style="fill: #1f77b4; stroke: #1f77b4"/>
     <use xlink:href="#m7d059e1bac" x="325.60564" y="107.304216" style="fill: #1f77b4; stroke: #1f77b4"/>
     <use xlink:href="#m7d059e1bac" x="328.918442" y="104.865699" style="fill: #1f77b4; stroke: #1f77b4"/>
     <use xlink:href="#m7d059e1bac" x="332.231243" y="65.979535" style="fill: #1f77b4; stroke: #1f77b4"/>
     <use xlink:href="#m7d059e1bac" x="335.544045" y="97.562739" style="fill: #1f77b4; stroke: #1f77b4"/>
     <use xlink:href="#m7d059e1bac" x="338.856846" y="97.292375" style="fill: #1f77b4; stroke: #1f77b4"/>
     <use xlink:href="#m7d059e1bac" x="342.169647" y="93.548209" style="fill: #1f77b4; stroke: #1f77b4"/>
     <use xlink:href="#m7d059e1bac" x="345.482449" y="91.603202" style="fill: #1f77b4; stroke: #1f77b4"/>
     <use xlink:href="#m7d059e1bac" x="348.79525" y="88.948533" style="fill: #1f77b4; stroke: #1f77b4"/>
     <use xlink:href="#m7d059e1bac" x="352.108052" y="85.705921" style="fill: #1f77b4; stroke: #1f77b4"/>
     <use xlink:href="#m7d059e1bac" x="355.420853" y="74.394727" style="fill: #1f77b4; stroke: #1f77b4"/>
     <use xlink:href="#m7d059e1bac" x="358.733655" y="80.156302" style="fill: #1f77b4; stroke: #1f77b4"/>
     <use xlink:href="#m7d059e1bac" x="362.046456" y="71.839041" style="fill: #1f77b4; stroke: #1f77b4"/>
     <use xlink:href="#m7d059e1bac" x="365.359258" y="74.832275" style="fill: #1f77b4; stroke: #1f77b4"/>
     <use xlink:href="#m7d059e1bac" x="368.672059" y="61.61" style="fill: #1f77b4; stroke: #1f77b4"/>
     <use xlink:href="#m7d059e1bac" x="371.984861" y="73.437088" style="fill: #1f77b4; stroke: #1f77b4"/>
     <use xlink:href="#m7d059e1bac" x="375.297662" y="69.364148" style="fill: #1f77b4; stroke: #1f77b4"/>
     <use xlink:href="#m7d059e1bac" x="378.610464" y="65.938613" style="fill: #1f77b4; stroke: #1f77b4"/>
     <use xlink:href="#m7d059e1bac" x="381.923265" y="65.976037" style="fill: #1f77b4; stroke: #1f77b4"/>
     <use xlink:href="#m7d059e1bac" x="385.236067" y="60.916079" style="fill: #1f77b4; stroke: #1f77b4"/>
     <use xlink:href="#m7d059e1bac" x="388.548868" y="62.37807" style="fill: #1f77b4; stroke: #1f77b4"/>
     <use xlink:href="#m7d059e1bac" x="391.86167" y="65.470636" style="fill: #1f77b4; stroke: #1f77b4"/>
     <use xlink:href="#m7d059e1bac" x="395.174471" y="57.123646" style="fill: #1f77b4; stroke: #1f77b4"/>
     <use xlink:href="#m7d059e1bac" x="398.487273" y="53.568" style="fill: #1f77b4; stroke: #1f77b4"/>
    </g>
   </g>
   <g id="patch_3">
    <path d="M 57.6 307.584 
L 57.6 41.472 
" style="fill: none; stroke: #000000; stroke-width: 0.8; stroke-linejoin: miter; stroke-linecap: square"/>
   </g>
   <g id="patch_4">
    <path d="M 414.72 307.584 
L 414.72 41.472 
" style="fill: none; stroke: #000000; stroke-width: 0.8; stroke-linejoin: miter; stroke-linecap: square"/>
   </g>
   <g id="patch_5">
    <path d="M 57.6 307.584 
L 414.72 307.584 
" style="fill: none; stroke: #000000; stroke-width: 0.8; stroke-linejoin: miter; stroke-linecap: square"/>
   </g>
   <g id="patch_6">
    <path d="M 57.6 41.472 
L 414.72 41.472 
" style="fill: none; stroke: #000000; stroke-width: 0.8; stroke-linejoin: miter; stroke-linecap: square"/>
   </g>
   <g id="text_17">
    <!-- Wykres zależności czasu wykonywania programu od parametru N -->
    <g transform="translate(39.220313 35.472) scale(0.12 -0.12)">
     <defs>
      <path id="DejaVuSans-57" d="M 213 4666 
L 850 4666 
L 1831 722 
L 2809 4666 
L 3519 4666 
L 4500 722 
L 5478 4666 
L 6119 4666 
L 4947 0 
L 4153 0 
L 3169 4050 
L 2175 0 
L 1381 0 
L 213 4666 
z
" transform="scale(0.015625)"/>
      <path id="DejaVuSans-79" d="M 2059 -325 
Q 1816 -950 1584 -1140 
Q 1353 -1331 966 -1331 
L 506 -1331 
L 506 -850 
L 844 -850 
Q 1081 -850 1212 -737 
Q 1344 -625 1503 -206 
L 1606 56 
L 191 3500 
L 800 3500 
L 1894 763 
L 2988 3500 
L 3597 3500 
L 2059 -325 
z
" transform="scale(0.015625)"/>
      <path id="DejaVuSans-6c" d="M 603 4863 
L 1178 4863 
L 1178 0 
L 603 0 
L 603 4863 
z
" transform="scale(0.015625)"/>
      <path id="DejaVuSans-17c" d="M 1378 4863 
L 1953 4863 
L 1953 4134 
L 1378 4134 
L 1378 4863 
z
M 1672 3584 
L 1672 3584 
z
M 353 3500 
L 3084 3500 
L 3084 2975 
L 922 459 
L 3084 459 
L 3084 0 
L 275 0 
L 275 525 
L 2438 3041 
L 353 3041 
L 353 3500 
z
" transform="scale(0.015625)"/>
      <path id="DejaVuSans-6f" d="M 1959 3097 
Q 1497 3097 1228 2736 
Q 959 2375 959 1747 
Q 959 1119 1226 758 
Q 1494 397 1959 397 
Q 2419 397 2687 759 
Q 2956 1122 2956 1747 
Q 2956 2369 2687 2733 
Q 2419 3097 1959 3097 
z
M 1959 3584 
Q 2709 3584 3137 3096 
Q 3566 2609 3566 1747 
Q 3566 888 3137 398 
Q 2709 -91 1959 -91 
Q 1206 -91 779 398 
Q 353 888 353 1747 
Q 353 2609 779 3096 
Q 1206 3584 1959 3584 
z
" transform="scale(0.015625)"/>
      <path id="DejaVuSans-15b" d="M 2242 5119 
L 2864 5119 
L 1846 3944 
L 1367 3944 
L 2242 5119 
z
M 2834 3397 
L 2834 2853 
Q 2591 2978 2328 3040 
Q 2066 3103 1784 3103 
Q 1356 3103 1142 2972 
Q 928 2841 928 2578 
Q 928 2378 1081 2264 
Q 1234 2150 1697 2047 
L 1894 2003 
Q 2506 1872 2764 1633 
Q 3022 1394 3022 966 
Q 3022 478 2636 193 
Q 2250 -91 1575 -91 
Q 1294 -91 989 -36 
Q 684 19 347 128 
L 347 722 
Q 666 556 975 473 
Q 1284 391 1588 391 
Q 1994 391 2212 530 
Q 2431 669 2431 922 
Q 2431 1156 2273 1281 
Q 2116 1406 1581 1522 
L 1381 1569 
Q 847 1681 609 1914 
Q 372 2147 372 2553 
Q 372 3047 722 3315 
Q 1072 3584 1716 3584 
Q 2034 3584 2315 3537 
Q 2597 3491 2834 3397 
z
" transform="scale(0.015625)"/>
      <path id="DejaVuSans-77" d="M 269 3500 
L 844 3500 
L 1563 769 
L 2278 3500 
L 2956 3500 
L 3675 769 
L 4391 3500 
L 4966 3500 
L 4050 0 
L 3372 0 
L 2619 2869 
L 1863 0 
L 1184 0 
L 269 3500 
z
" transform="scale(0.015625)"/>
      <path id="DejaVuSans-70" d="M 1159 525 
L 1159 -1331 
L 581 -1331 
L 581 3500 
L 1159 3500 
L 1159 2969 
Q 1341 3281 1617 3432 
Q 1894 3584 2278 3584 
Q 2916 3584 3314 3078 
Q 3713 2572 3713 1747 
Q 3713 922 3314 415 
Q 2916 -91 2278 -91 
Q 1894 -91 1617 61 
Q 1341 213 1159 525 
z
M 3116 1747 
Q 3116 2381 2855 2742 
Q 2594 3103 2138 3103 
Q 1681 3103 1420 2742 
Q 1159 2381 1159 1747 
Q 1159 1113 1420 752 
Q 1681 391 2138 391 
Q 2594 391 2855 752 
Q 3116 1113 3116 1747 
z
" transform="scale(0.015625)"/>
      <path id="DejaVuSans-67" d="M 2906 1791 
Q 2906 2416 2648 2759 
Q 2391 3103 1925 3103 
Q 1463 3103 1205 2759 
Q 947 2416 947 1791 
Q 947 1169 1205 825 
Q 1463 481 1925 481 
Q 2391 481 2648 825 
Q 2906 1169 2906 1791 
z
M 3481 434 
Q 3481 -459 3084 -895 
Q 2688 -1331 1869 -1331 
Q 1566 -1331 1297 -1286 
Q 1028 -1241 775 -1147 
L 775 -588 
Q 1028 -725 1275 -790 
Q 1522 -856 1778 -856 
Q 2344 -856 2625 -561 
Q 2906 -266 2906 331 
L 2906 616 
Q 2728 306 2450 153 
Q 2172 0 1784 0 
Q 1141 0 747 490 
Q 353 981 353 1791 
Q 353 2603 747 3093 
Q 1141 3584 1784 3584 
Q 2172 3584 2450 3431 
Q 2728 3278 2906 2969 
L 2906 3500 
L 3481 3500 
L 3481 434 
z
" transform="scale(0.015625)"/>
     </defs>
     <use xlink:href="#DejaVuSans-57"/>
     <use xlink:href="#DejaVuSans-79" x="97.126953"/>
     <use xlink:href="#DejaVuSans-6b" x="156.306641"/>
     <use xlink:href="#DejaVuSans-72" x="214.216797"/>
     <use xlink:href="#DejaVuSans-65" x="253.080078"/>
     <use xlink:href="#DejaVuSans-73" x="314.603516"/>
     <use xlink:href="#DejaVuSans-20" x="366.703125"/>
     <use xlink:href="#DejaVuSans-7a" x="398.490234"/>
     <use xlink:href="#DejaVuSans-61" x="450.980469"/>
     <use xlink:href="#DejaVuSans-6c" x="512.259766"/>
     <use xlink:href="#DejaVuSans-65" x="540.042969"/>
     <use xlink:href="#DejaVuSans-17c" x="601.566406"/>
     <use xlink:href="#DejaVuSans-6e" x="654.056641"/>
     <use xlink:href="#DejaVuSans-6f" x="717.435547"/>
     <use xlink:href="#DejaVuSans-15b" x="778.617188"/>
     <use xlink:href="#DejaVuSans-63" x="830.716797"/>
     <use xlink:href="#DejaVuSans-69" x="885.697266"/>
     <use xlink:href="#DejaVuSans-20" x="913.480469"/>
     <use xlink:href="#DejaVuSans-63" x="945.267578"/>
     <use xlink:href="#DejaVuSans-7a" x="1000.248047"/>
     <use xlink:href="#DejaVuSans-61" x="1052.738281"/>
     <use xlink:href="#DejaVuSans-73" x="1114.017578"/>
     <use xlink:href="#DejaVuSans-75" x="1166.117188"/>
     <use xlink:href="#DejaVuSans-20" x="1229.496094"/>
     <use xlink:href="#DejaVuSans-77" x="1261.283203"/>
     <use xlink:href="#DejaVuSans-79" x="1343.070312"/>
     <use xlink:href="#DejaVuSans-6b" x="1402.25"/>
     <use xlink:href="#DejaVuSans-6f" x="1456.535156"/>
     <use xlink:href="#DejaVuSans-6e" x="1517.716797"/>
     <use xlink:href="#DejaVuSans-79" x="1581.095703"/>
     <use xlink:href="#DejaVuSans-77" x="1640.275391"/>
     <use xlink:href="#DejaVuSans-61" x="1722.0625"/>
     <use xlink:href="#DejaVuSans-6e" x="1783.341797"/>
     <use xlink:href="#DejaVuSans-69" x="1846.720703"/>
     <use xlink:href="#DejaVuSans-61" x="1874.503906"/>
     <use xlink:href="#DejaVuSans-20" x="1935.783203"/>
     <use xlink:href="#DejaVuSans-70" x="1967.570312"/>
     <use xlink:href="#DejaVuSans-72" x="2031.046875"/>
     <use xlink:href="#DejaVuSans-6f" x="2069.910156"/>
     <use xlink:href="#DejaVuSans-67" x="2131.091797"/>
     <use xlink:href="#DejaVuSans-72" x="2194.568359"/>
     <use xlink:href="#DejaVuSans-61" x="2235.681641"/>
     <use xlink:href="#DejaVuSans-6d" x="2296.960938"/>
     <use xlink:href="#DejaVuSans-75" x="2394.373047"/>
     <use xlink:href="#DejaVuSans-20" x="2457.751953"/>
     <use xlink:href="#DejaVuSans-6f" x="2489.539062"/>
     <use xlink:href="#DejaVuSans-64" x="2550.720703"/>
     <use xlink:href="#DejaVuSans-20" x="2614.197266"/>
     <use xlink:href="#DejaVuSans-70" x="2645.984375"/>
     <use xlink:href="#DejaVuSans-61" x="2709.460938"/>
     <use xlink:href="#DejaVuSans-72" x="2770.740234"/>
     <use xlink:href="#DejaVuSans-61" x="2811.853516"/>
     <use xlink:href="#DejaVuSans-6d" x="2873.132812"/>
     <use xlink:href="#DejaVuSans-65" x="2970.544922"/>
     <use xlink:href="#DejaVuSans-74" x="3032.068359"/>
     <use xlink:href="#DejaVuSans-72" x="3071.277344"/>
     <use xlink:href="#DejaVuSans-75" x="3112.390625"/>
     <use xlink:href="#DejaVuSans-20" x="3175.769531"/>
     <use xlink:href="#DejaVuSans-4e" x="3207.556641"/>
    </g>
   </g>
  </g>
 </g>
 <defs>
  <clipPath id="p10c045f669">
   <rect x="57.6" y="41.472" width="357.12" height="266.112"/>
  </clipPath>
 </defs>
</svg>
