<?xml version="1.0" encoding="utf-8" standalone="no"?>
<!DOCTYPE svg PUBLIC "-//W3C//DTD SVG 1.1//EN"
  "http://www.w3.org/Graphics/SVG/1.1/DTD/svg11.dtd">
<svg xmlns:xlink="http://www.w3.org/1999/xlink" width="460.8pt" height="345.6pt" viewBox="0 0 460.8 345.6" xmlns="http://www.w3.org/2000/svg" version="1.1">
 <metadata>
  <rdf:RDF xmlns:dc="http://purl.org/dc/elements/1.1/" xmlns:cc="http://creativecommons.org/ns#" xmlns:rdf="http://www.w3.org/1999/02/22-rdf-syntax-ns#">
   <cc:Work>
    <dc:type rdf:resource="http://purl.org/dc/dcmitype/StillImage"/>
    <dc:date>2023-11-16T14:46:16.666926</dc:date>
    <dc:format>image/svg+xml</dc:format>
    <dc:creator>
     <cc:Agent>
      <dc:title>Matplotlib v3.8.0, https://matplotlib.org/</dc:title>
     </cc:Agent>
    </dc:creator>
   </cc:Work>
  </rdf:RDF>
 </metadata>
 <defs>
  <style type="text/css">*{stroke-linejoin: round; stroke-linecap: butt}</style>
 </defs>
 <g id="figure_1">
  <g id="patch_1">
   <path d="M 0 345.6 
L 460.8 345.6 
L 460.8 0 
L 0 0 
z
" style="fill: #ffffff"/>
  </g>
  <g id="axes_1">
   <g id="patch_2">
    <path d="M 57.6 307.584 
L 414.72 307.584 
L 414.72 41.472 
L 57.6 41.472 
z
" style="fill: #ffffff"/>
   </g>
   <g id="matplotlib.axis_1">
    <g id="xtick_1">
     <g id="line2d_1">
      <defs>
       <path id="m5a72f8e0f1" d="M 0 0 
L 0 3.5 
" style="stroke: #000000; stroke-width: 0.8"/>
      </defs>
      <g>
       <use xlink:href="#m5a72f8e0f1" x="71.977558" y="307.584" style="stroke: #000000; stroke-width: 0.8"/>
      </g>
     </g>
     <g id="text_1">
      <!-- 0 -->
      <g transform="translate(68.796308 322.182437) scale(0.1 -0.1)">
       <defs>
        <path id="DejaVuSans-30" d="M 2034 4250 
Q 1547 4250 1301 3770 
Q 1056 3291 1056 2328 
Q 1056 1369 1301 889 
Q 1547 409 2034 409 
Q 2525 409 2770 889 
Q 3016 1369 3016 2328 
Q 3016 3291 2770 3770 
Q 2525 4250 2034 4250 
z
M 2034 4750 
Q 2819 4750 3233 4129 
Q 3647 3509 3647 2328 
Q 3647 1150 3233 529 
Q 2819 -91 2034 -91 
Q 1250 -91 836 529 
Q 422 1150 422 2328 
Q 422 3509 836 4129 
Q 1250 4750 2034 4750 
z
" transform="scale(0.015625)"/>
       </defs>
       <use xlink:href="#DejaVuSans-30"/>
      </g>
     </g>
    </g>
    <g id="xtick_2">
     <g id="line2d_2">
      <g>
       <use xlink:href="#m5a72f8e0f1" x="118.356779" y="307.584" style="stroke: #000000; stroke-width: 0.8"/>
      </g>
     </g>
     <g id="text_2">
      <!-- 25 -->
      <g transform="translate(111.994279 322.182437) scale(0.1 -0.1)">
       <defs>
        <path id="DejaVuSans-32" d="M 1228 531 
L 3431 531 
L 3431 0 
L 469 0 
L 469 531 
Q 828 903 1448 1529 
Q 2069 2156 2228 2338 
Q 2531 2678 2651 2914 
Q 2772 3150 2772 3378 
Q 2772 3750 2511 3984 
Q 2250 4219 1831 4219 
Q 1534 4219 1204 4116 
Q 875 4013 500 3803 
L 500 4441 
Q 881 4594 1212 4672 
Q 1544 4750 1819 4750 
Q 2544 4750 2975 4387 
Q 3406 4025 3406 3419 
Q 3406 3131 3298 2873 
Q 3191 2616 2906 2266 
Q 2828 2175 2409 1742 
Q 1991 1309 1228 531 
z
" transform="scale(0.015625)"/>
        <path id="DejaVuSans-35" d="M 691 4666 
L 3169 4666 
L 3169 4134 
L 1269 4134 
L 1269 2991 
Q 1406 3038 1543 3061 
Q 1681 3084 1819 3084 
Q 2600 3084 3056 2656 
Q 3513 2228 3513 1497 
Q 3513 744 3044 326 
Q 2575 -91 1722 -91 
Q 1428 -91 1123 -41 
Q 819 9 494 109 
L 494 744 
Q 775 591 1075 516 
Q 1375 441 1709 441 
Q 2250 441 2565 725 
Q 2881 1009 2881 1497 
Q 2881 1984 2565 2268 
Q 2250 2553 1709 2553 
Q 1456 2553 1204 2497 
Q 953 2441 691 2322 
L 691 4666 
z
" transform="scale(0.015625)"/>
       </defs>
       <use xlink:href="#DejaVuSans-32"/>
       <use xlink:href="#DejaVuSans-35" x="63.623047"/>
      </g>
     </g>
    </g>
    <g id="xtick_3">
     <g id="line2d_3">
      <g>
       <use xlink:href="#m5a72f8e0f1" x="164.736" y="307.584" style="stroke: #000000; stroke-width: 0.8"/>
      </g>
     </g>
     <g id="text_3">
      <!-- 50 -->
      <g transform="translate(158.3735 322.182437) scale(0.1 -0.1)">
       <use xlink:href="#DejaVuSans-35"/>
       <use xlink:href="#DejaVuSans-30" x="63.623047"/>
      </g>
     </g>
    </g>
    <g id="xtick_4">
     <g id="line2d_4">
      <g>
       <use xlink:href="#m5a72f8e0f1" x="211.115221" y="307.584" style="stroke: #000000; stroke-width: 0.8"/>
      </g>
     </g>
     <g id="text_4">
      <!-- 75 -->
      <g transform="translate(204.752721 322.182437) scale(0.1 -0.1)">
       <defs>
        <path id="DejaVuSans-37" d="M 525 4666 
L 3525 4666 
L 3525 4397 
L 1831 0 
L 1172 0 
L 2766 4134 
L 525 4134 
L 525 4666 
z
" transform="scale(0.015625)"/>
       </defs>
       <use xlink:href="#DejaVuSans-37"/>
       <use xlink:href="#DejaVuSans-35" x="63.623047"/>
      </g>
     </g>
    </g>
    <g id="xtick_5">
     <g id="line2d_5">
      <g>
       <use xlink:href="#m5a72f8e0f1" x="257.494442" y="307.584" style="stroke: #000000; stroke-width: 0.8"/>
      </g>
     </g>
     <g id="text_5">
      <!-- 100 -->
      <g transform="translate(247.950692 322.182437) scale(0.1 -0.1)">
       <defs>
        <path id="DejaVuSans-31" d="M 794 531 
L 1825 531 
L 1825 4091 
L 703 3866 
L 703 4441 
L 1819 4666 
L 2450 4666 
L 2450 531 
L 3481 531 
L 3481 0 
L 794 0 
L 794 531 
z
" transform="scale(0.015625)"/>
       </defs>
       <use xlink:href="#DejaVuSans-31"/>
       <use xlink:href="#DejaVuSans-30" x="63.623047"/>
       <use xlink:href="#DejaVuSans-30" x="127.246094"/>
      </g>
     </g>
    </g>
    <g id="xtick_6">
     <g id="line2d_6">
      <g>
       <use xlink:href="#m5a72f8e0f1" x="303.873662" y="307.584" style="stroke: #000000; stroke-width: 0.8"/>
      </g>
     </g>
     <g id="text_6">
      <!-- 125 -->
      <g transform="translate(294.329912 322.182437) scale(0.1 -0.1)">
       <use xlink:href="#DejaVuSans-31"/>
       <use xlink:href="#DejaVuSans-32" x="63.623047"/>
       <use xlink:href="#DejaVuSans-35" x="127.246094"/>
      </g>
     </g>
    </g>
    <g id="xtick_7">
     <g id="line2d_7">
      <g>
       <use xlink:href="#m5a72f8e0f1" x="350.252883" y="307.584" style="stroke: #000000; stroke-width: 0.8"/>
      </g>
     </g>
     <g id="text_7">
      <!-- 150 -->
      <g transform="translate(340.709133 322.182437) scale(0.1 -0.1)">
       <use xlink:href="#DejaVuSans-31"/>
       <use xlink:href="#DejaVuSans-35" x="63.623047"/>
       <use xlink:href="#DejaVuSans-30" x="127.246094"/>
      </g>
     </g>
    </g>
    <g id="xtick_8">
     <g id="line2d_8">
      <g>
       <use xlink:href="#m5a72f8e0f1" x="396.632104" y="307.584" style="stroke: #000000; stroke-width: 0.8"/>
      </g>
     </g>
     <g id="text_8">
      <!-- 175 -->
      <g transform="translate(387.088354 322.182437) scale(0.1 -0.1)">
       <use xlink:href="#DejaVuSans-31"/>
       <use xlink:href="#DejaVuSans-37" x="63.623047"/>
       <use xlink:href="#DejaVuSans-35" x="127.246094"/>
      </g>
     </g>
    </g>
    <g id="text_9">
     <!-- Numer iteracji -->
     <g transform="translate(200.586562 335.860562) scale(0.1 -0.1)">
      <defs>
       <path id="DejaVuSans-4e" d="M 628 4666 
L 1478 4666 
L 3547 763 
L 3547 4666 
L 4159 4666 
L 4159 0 
L 3309 0 
L 1241 3903 
L 1241 0 
L 628 0 
L 628 4666 
z
" transform="scale(0.015625)"/>
       <path id="DejaVuSans-75" d="M 544 1381 
L 544 3500 
L 1119 3500 
L 1119 1403 
Q 1119 906 1312 657 
Q 1506 409 1894 409 
Q 2359 409 2629 706 
Q 2900 1003 2900 1516 
L 2900 3500 
L 3475 3500 
L 3475 0 
L 2900 0 
L 2900 538 
Q 2691 219 2414 64 
Q 2138 -91 1772 -91 
Q 1169 -91 856 284 
Q 544 659 544 1381 
z
M 1991 3584 
L 1991 3584 
z
" transform="scale(0.015625)"/>
       <path id="DejaVuSans-6d" d="M 3328 2828 
Q 3544 3216 3844 3400 
Q 4144 3584 4550 3584 
Q 5097 3584 5394 3201 
Q 5691 2819 5691 2113 
L 5691 0 
L 5113 0 
L 5113 2094 
Q 5113 2597 4934 2840 
Q 4756 3084 4391 3084 
Q 3944 3084 3684 2787 
Q 3425 2491 3425 1978 
L 3425 0 
L 2847 0 
L 2847 2094 
Q 2847 2600 2669 2842 
Q 2491 3084 2119 3084 
Q 1678 3084 1418 2786 
Q 1159 2488 1159 1978 
L 1159 0 
L 581 0 
L 581 3500 
L 1159 3500 
L 1159 2956 
Q 1356 3278 1631 3431 
Q 1906 3584 2284 3584 
Q 2666 3584 2933 3390 
Q 3200 3197 3328 2828 
z
" transform="scale(0.015625)"/>
       <path id="DejaVuSans-65" d="M 3597 1894 
L 3597 1613 
L 953 1613 
Q 991 1019 1311 708 
Q 1631 397 2203 397 
Q 2534 397 2845 478 
Q 3156 559 3463 722 
L 3463 178 
Q 3153 47 2828 -22 
Q 2503 -91 2169 -91 
Q 1331 -91 842 396 
Q 353 884 353 1716 
Q 353 2575 817 3079 
Q 1281 3584 2069 3584 
Q 2775 3584 3186 3129 
Q 3597 2675 3597 1894 
z
M 3022 2063 
Q 3016 2534 2758 2815 
Q 2500 3097 2075 3097 
Q 1594 3097 1305 2825 
Q 1016 2553 972 2059 
L 3022 2063 
z
" transform="scale(0.015625)"/>
       <path id="DejaVuSans-72" d="M 2631 2963 
Q 2534 3019 2420 3045 
Q 2306 3072 2169 3072 
Q 1681 3072 1420 2755 
Q 1159 2438 1159 1844 
L 1159 0 
L 581 0 
L 581 3500 
L 1159 3500 
L 1159 2956 
Q 1341 3275 1631 3429 
Q 1922 3584 2338 3584 
Q 2397 3584 2469 3576 
Q 2541 3569 2628 3553 
L 2631 2963 
z
" transform="scale(0.015625)"/>
       <path id="DejaVuSans-20" transform="scale(0.015625)"/>
       <path id="DejaVuSans-69" d="M 603 3500 
L 1178 3500 
L 1178 0 
L 603 0 
L 603 3500 
z
M 603 4863 
L 1178 4863 
L 1178 4134 
L 603 4134 
L 603 4863 
z
" transform="scale(0.015625)"/>
       <path id="DejaVuSans-74" d="M 1172 4494 
L 1172 3500 
L 2356 3500 
L 2356 3053 
L 1172 3053 
L 1172 1153 
Q 1172 725 1289 603 
Q 1406 481 1766 481 
L 2356 481 
L 2356 0 
L 1766 0 
Q 1100 0 847 248 
Q 594 497 594 1153 
L 594 3053 
L 172 3053 
L 172 3500 
L 594 3500 
L 594 4494 
L 1172 4494 
z
" transform="scale(0.015625)"/>
       <path id="DejaVuSans-61" d="M 2194 1759 
Q 1497 1759 1228 1600 
Q 959 1441 959 1056 
Q 959 750 1161 570 
Q 1363 391 1709 391 
Q 2188 391 2477 730 
Q 2766 1069 2766 1631 
L 2766 1759 
L 2194 1759 
z
M 3341 1997 
L 3341 0 
L 2766 0 
L 2766 531 
Q 2569 213 2275 61 
Q 1981 -91 1556 -91 
Q 1019 -91 701 211 
Q 384 513 384 1019 
Q 384 1609 779 1909 
Q 1175 2209 1959 2209 
L 2766 2209 
L 2766 2266 
Q 2766 2663 2505 2880 
Q 2244 3097 1772 3097 
Q 1472 3097 1187 3025 
Q 903 2953 641 2809 
L 641 3341 
Q 956 3463 1253 3523 
Q 1550 3584 1831 3584 
Q 2591 3584 2966 3190 
Q 3341 2797 3341 1997 
z
" transform="scale(0.015625)"/>
       <path id="DejaVuSans-63" d="M 3122 3366 
L 3122 2828 
Q 2878 2963 2633 3030 
Q 2388 3097 2138 3097 
Q 1578 3097 1268 2742 
Q 959 2388 959 1747 
Q 959 1106 1268 751 
Q 1578 397 2138 397 
Q 2388 397 2633 464 
Q 2878 531 3122 666 
L 3122 134 
Q 2881 22 2623 -34 
Q 2366 -91 2075 -91 
Q 1284 -91 818 406 
Q 353 903 353 1747 
Q 353 2603 823 3093 
Q 1294 3584 2113 3584 
Q 2378 3584 2631 3529 
Q 2884 3475 3122 3366 
z
" transform="scale(0.015625)"/>
       <path id="DejaVuSans-6a" d="M 603 3500 
L 1178 3500 
L 1178 -63 
Q 1178 -731 923 -1031 
Q 669 -1331 103 -1331 
L -116 -1331 
L -116 -844 
L 38 -844 
Q 366 -844 484 -692 
Q 603 -541 603 -63 
L 603 3500 
z
M 603 4863 
L 1178 4863 
L 1178 4134 
L 603 4134 
L 603 4863 
z
" transform="scale(0.015625)"/>
      </defs>
      <use xlink:href="#DejaVuSans-4e"/>
      <use xlink:href="#DejaVuSans-75" x="74.804688"/>
      <use xlink:href="#DejaVuSans-6d" x="138.183594"/>
      <use xlink:href="#DejaVuSans-65" x="235.595703"/>
      <use xlink:href="#DejaVuSans-72" x="297.119141"/>
      <use xlink:href="#DejaVuSans-20" x="338.232422"/>
      <use xlink:href="#DejaVuSans-69" x="370.019531"/>
      <use xlink:href="#DejaVuSans-74" x="397.802734"/>
      <use xlink:href="#DejaVuSans-65" x="437.011719"/>
      <use xlink:href="#DejaVuSans-72" x="498.535156"/>
      <use xlink:href="#DejaVuSans-61" x="539.648438"/>
      <use xlink:href="#DejaVuSans-63" x="600.927734"/>
      <use xlink:href="#DejaVuSans-6a" x="655.908203"/>
      <use xlink:href="#DejaVuSans-69" x="683.691406"/>
     </g>
    </g>
   </g>
   <g id="matplotlib.axis_2">
    <g id="ytick_1">
     <g id="line2d_9">
      <defs>
       <path id="m3f5e42deb2" d="M 0 0 
L -3.5 0 
" style="stroke: #000000; stroke-width: 0.8"/>
      </defs>
      <g>
       <use xlink:href="#m3f5e42deb2" x="57.6" y="276.773831" style="stroke: #000000; stroke-width: 0.8"/>
      </g>
     </g>
     <g id="text_10">
      <!-- $\mathdefault{10^{-7}}$ -->
      <g transform="translate(27.1 280.573049) scale(0.1 -0.1)">
       <defs>
        <path id="DejaVuSans-2212" d="M 678 2272 
L 4684 2272 
L 4684 1741 
L 678 1741 
L 678 2272 
z
" transform="scale(0.015625)"/>
       </defs>
       <use xlink:href="#DejaVuSans-31" transform="translate(0 0.684375)"/>
       <use xlink:href="#DejaVuSans-30" transform="translate(63.623047 0.684375)"/>
       <use xlink:href="#DejaVuSans-2212" transform="translate(128.203125 38.965625) scale(0.7)"/>
       <use xlink:href="#DejaVuSans-37" transform="translate(186.855469 38.965625) scale(0.7)"/>
      </g>
     </g>
    </g>
    <g id="ytick_2">
     <g id="line2d_10">
      <g>
       <use xlink:href="#m3f5e42deb2" x="57.6" y="236.343638" style="stroke: #000000; stroke-width: 0.8"/>
      </g>
     </g>
     <g id="text_11">
      <!-- $\mathdefault{10^{-5}}$ -->
      <g transform="translate(27.1 240.142857) scale(0.1 -0.1)">
       <use xlink:href="#DejaVuSans-31" transform="translate(0 0.684375)"/>
       <use xlink:href="#DejaVuSans-30" transform="translate(63.623047 0.684375)"/>
       <use xlink:href="#DejaVuSans-2212" transform="translate(128.203125 38.965625) scale(0.7)"/>
       <use xlink:href="#DejaVuSans-35" transform="translate(186.855469 38.965625) scale(0.7)"/>
      </g>
     </g>
    </g>
    <g id="ytick_3">
     <g id="line2d_11">
      <g>
       <use xlink:href="#m3f5e42deb2" x="57.6" y="195.913446" style="stroke: #000000; stroke-width: 0.8"/>
      </g>
     </g>
     <g id="text_12">
      <!-- $\mathdefault{10^{-3}}$ -->
      <g transform="translate(27.1 199.712665) scale(0.1 -0.1)">
       <defs>
        <path id="DejaVuSans-33" d="M 2597 2516 
Q 3050 2419 3304 2112 
Q 3559 1806 3559 1356 
Q 3559 666 3084 287 
Q 2609 -91 1734 -91 
Q 1441 -91 1130 -33 
Q 819 25 488 141 
L 488 750 
Q 750 597 1062 519 
Q 1375 441 1716 441 
Q 2309 441 2620 675 
Q 2931 909 2931 1356 
Q 2931 1769 2642 2001 
Q 2353 2234 1838 2234 
L 1294 2234 
L 1294 2753 
L 1863 2753 
Q 2328 2753 2575 2939 
Q 2822 3125 2822 3475 
Q 2822 3834 2567 4026 
Q 2313 4219 1838 4219 
Q 1578 4219 1281 4162 
Q 984 4106 628 3988 
L 628 4550 
Q 988 4650 1302 4700 
Q 1616 4750 1894 4750 
Q 2613 4750 3031 4423 
Q 3450 4097 3450 3541 
Q 3450 3153 3228 2886 
Q 3006 2619 2597 2516 
z
" transform="scale(0.015625)"/>
       </defs>
       <use xlink:href="#DejaVuSans-31" transform="translate(0 0.765625)"/>
       <use xlink:href="#DejaVuSans-30" transform="translate(63.623047 0.765625)"/>
       <use xlink:href="#DejaVuSans-2212" transform="translate(128.203125 39.046875) scale(0.7)"/>
       <use xlink:href="#DejaVuSans-33" transform="translate(186.855469 39.046875) scale(0.7)"/>
      </g>
     </g>
    </g>
    <g id="ytick_4">
     <g id="line2d_12">
      <g>
       <use xlink:href="#m3f5e42deb2" x="57.6" y="155.483254" style="stroke: #000000; stroke-width: 0.8"/>
      </g>
     </g>
     <g id="text_13">
      <!-- $\mathdefault{10^{-1}}$ -->
      <g transform="translate(27.1 159.282472) scale(0.1 -0.1)">
       <use xlink:href="#DejaVuSans-31" transform="translate(0 0.684375)"/>
       <use xlink:href="#DejaVuSans-30" transform="translate(63.623047 0.684375)"/>
       <use xlink:href="#DejaVuSans-2212" transform="translate(128.203125 38.965625) scale(0.7)"/>
       <use xlink:href="#DejaVuSans-31" transform="translate(186.855469 38.965625) scale(0.7)"/>
      </g>
     </g>
    </g>
    <g id="ytick_5">
     <g id="line2d_13">
      <g>
       <use xlink:href="#m3f5e42deb2" x="57.6" y="115.053061" style="stroke: #000000; stroke-width: 0.8"/>
      </g>
     </g>
     <g id="text_14">
      <!-- $\mathdefault{10^{1}}$ -->
      <g transform="translate(33 118.85228) scale(0.1 -0.1)">
       <use xlink:href="#DejaVuSans-31" transform="translate(0 0.684375)"/>
       <use xlink:href="#DejaVuSans-30" transform="translate(63.623047 0.684375)"/>
       <use xlink:href="#DejaVuSans-31" transform="translate(128.203125 38.965625) scale(0.7)"/>
      </g>
     </g>
    </g>
    <g id="ytick_6">
     <g id="line2d_14">
      <g>
       <use xlink:href="#m3f5e42deb2" x="57.6" y="74.622869" style="stroke: #000000; stroke-width: 0.8"/>
      </g>
     </g>
     <g id="text_15">
      <!-- $\mathdefault{10^{3}}$ -->
      <g transform="translate(33 78.422088) scale(0.1 -0.1)">
       <use xlink:href="#DejaVuSans-31" transform="translate(0 0.765625)"/>
       <use xlink:href="#DejaVuSans-30" transform="translate(63.623047 0.765625)"/>
       <use xlink:href="#DejaVuSans-33" transform="translate(128.203125 39.046875) scale(0.7)"/>
      </g>
     </g>
    </g>
    <g id="text_16">
     <!-- Norma różnicy przybliżenia i dokładnego rozwiązania -->
     <g transform="translate(21.020312 307.292062) rotate(-90) scale(0.1 -0.1)">
      <defs>
       <path id="DejaVuSans-6f" d="M 1959 3097 
Q 1497 3097 1228 2736 
Q 959 2375 959 1747 
Q 959 1119 1226 758 
Q 1494 397 1959 397 
Q 2419 397 2687 759 
Q 2956 1122 2956 1747 
Q 2956 2369 2687 2733 
Q 2419 3097 1959 3097 
z
M 1959 3584 
Q 2709 3584 3137 3096 
Q 3566 2609 3566 1747 
Q 3566 888 3137 398 
Q 2709 -91 1959 -91 
Q 1206 -91 779 398 
Q 353 888 353 1747 
Q 353 2609 779 3096 
Q 1206 3584 1959 3584 
z
" transform="scale(0.015625)"/>
       <path id="DejaVuSans-f3" d="M 1959 3097 
Q 1497 3097 1228 2736 
Q 959 2375 959 1747 
Q 959 1119 1226 758 
Q 1494 397 1959 397 
Q 2419 397 2687 759 
Q 2956 1122 2956 1747 
Q 2956 2369 2687 2733 
Q 2419 3097 1959 3097 
z
M 1959 3584 
Q 2709 3584 3137 3096 
Q 3566 2609 3566 1747 
Q 3566 888 3137 398 
Q 2709 -91 1959 -91 
Q 1206 -91 779 398 
Q 353 888 353 1747 
Q 353 2609 779 3096 
Q 1206 3584 1959 3584 
z
M 2394 5119 
L 3016 5119 
L 1998 3944 
L 1519 3944 
L 2394 5119 
z
" transform="scale(0.015625)"/>
       <path id="DejaVuSans-17c" d="M 1378 4863 
L 1953 4863 
L 1953 4134 
L 1378 4134 
L 1378 4863 
z
M 1672 3584 
L 1672 3584 
z
M 353 3500 
L 3084 3500 
L 3084 2975 
L 922 459 
L 3084 459 
L 3084 0 
L 275 0 
L 275 525 
L 2438 3041 
L 353 3041 
L 353 3500 
z
" transform="scale(0.015625)"/>
       <path id="DejaVuSans-6e" d="M 3513 2113 
L 3513 0 
L 2938 0 
L 2938 2094 
Q 2938 2591 2744 2837 
Q 2550 3084 2163 3084 
Q 1697 3084 1428 2787 
Q 1159 2491 1159 1978 
L 1159 0 
L 581 0 
L 581 3500 
L 1159 3500 
L 1159 2956 
Q 1366 3272 1645 3428 
Q 1925 3584 2291 3584 
Q 2894 3584 3203 3211 
Q 3513 2838 3513 2113 
z
" transform="scale(0.015625)"/>
       <path id="DejaVuSans-79" d="M 2059 -325 
Q 1816 -950 1584 -1140 
Q 1353 -1331 966 -1331 
L 506 -1331 
L 506 -850 
L 844 -850 
Q 1081 -850 1212 -737 
Q 1344 -625 1503 -206 
L 1606 56 
L 191 3500 
L 800 3500 
L 1894 763 
L 2988 3500 
L 3597 3500 
L 2059 -325 
z
" transform="scale(0.015625)"/>
       <path id="DejaVuSans-70" d="M 1159 525 
L 1159 -1331 
L 581 -1331 
L 581 3500 
L 1159 3500 
L 1159 2969 
Q 1341 3281 1617 3432 
Q 1894 3584 2278 3584 
Q 2916 3584 3314 3078 
Q 3713 2572 3713 1747 
Q 3713 922 3314 415 
Q 2916 -91 2278 -91 
Q 1894 -91 1617 61 
Q 1341 213 1159 525 
z
M 3116 1747 
Q 3116 2381 2855 2742 
Q 2594 3103 2138 3103 
Q 1681 3103 1420 2742 
Q 1159 2381 1159 1747 
Q 1159 1113 1420 752 
Q 1681 391 2138 391 
Q 2594 391 2855 752 
Q 3116 1113 3116 1747 
z
" transform="scale(0.015625)"/>
       <path id="DejaVuSans-7a" d="M 353 3500 
L 3084 3500 
L 3084 2975 
L 922 459 
L 3084 459 
L 3084 0 
L 275 0 
L 275 525 
L 2438 3041 
L 353 3041 
L 353 3500 
z
" transform="scale(0.015625)"/>
       <path id="DejaVuSans-62" d="M 3116 1747 
Q 3116 2381 2855 2742 
Q 2594 3103 2138 3103 
Q 1681 3103 1420 2742 
Q 1159 2381 1159 1747 
Q 1159 1113 1420 752 
Q 1681 391 2138 391 
Q 2594 391 2855 752 
Q 3116 1113 3116 1747 
z
M 1159 2969 
Q 1341 3281 1617 3432 
Q 1894 3584 2278 3584 
Q 2916 3584 3314 3078 
Q 3713 2572 3713 1747 
Q 3713 922 3314 415 
Q 2916 -91 2278 -91 
Q 1894 -91 1617 61 
Q 1341 213 1159 525 
L 1159 0 
L 581 0 
L 581 4863 
L 1159 4863 
L 1159 2969 
z
" transform="scale(0.015625)"/>
       <path id="DejaVuSans-6c" d="M 603 4863 
L 1178 4863 
L 1178 0 
L 603 0 
L 603 4863 
z
" transform="scale(0.015625)"/>
       <path id="DejaVuSans-64" d="M 2906 2969 
L 2906 4863 
L 3481 4863 
L 3481 0 
L 2906 0 
L 2906 525 
Q 2725 213 2448 61 
Q 2172 -91 1784 -91 
Q 1150 -91 751 415 
Q 353 922 353 1747 
Q 353 2572 751 3078 
Q 1150 3584 1784 3584 
Q 2172 3584 2448 3432 
Q 2725 3281 2906 2969 
z
M 947 1747 
Q 947 1113 1208 752 
Q 1469 391 1925 391 
Q 2381 391 2643 752 
Q 2906 1113 2906 1747 
Q 2906 2381 2643 2742 
Q 2381 3103 1925 3103 
Q 1469 3103 1208 2742 
Q 947 2381 947 1747 
z
" transform="scale(0.015625)"/>
       <path id="DejaVuSans-6b" d="M 581 4863 
L 1159 4863 
L 1159 1991 
L 2875 3500 
L 3609 3500 
L 1753 1863 
L 3688 0 
L 2938 0 
L 1159 1709 
L 1159 0 
L 581 0 
L 581 4863 
z
" transform="scale(0.015625)"/>
       <path id="DejaVuSans-142" d="M 622 4863 
L 1197 4863 
L 1197 2981 
L 1588 3263 
L 1825 2931 
L 1197 2491 
L 1197 0 
L 622 0 
L 622 2081 
L 238 1806 
L 6 2138 
L 622 2578 
L 622 4863 
z
" transform="scale(0.015625)"/>
       <path id="DejaVuSans-67" d="M 2906 1791 
Q 2906 2416 2648 2759 
Q 2391 3103 1925 3103 
Q 1463 3103 1205 2759 
Q 947 2416 947 1791 
Q 947 1169 1205 825 
Q 1463 481 1925 481 
Q 2391 481 2648 825 
Q 2906 1169 2906 1791 
z
M 3481 434 
Q 3481 -459 3084 -895 
Q 2688 -1331 1869 -1331 
Q 1566 -1331 1297 -1286 
Q 1028 -1241 775 -1147 
L 775 -588 
Q 1028 -725 1275 -790 
Q 1522 -856 1778 -856 
Q 2344 -856 2625 -561 
Q 2906 -266 2906 331 
L 2906 616 
Q 2728 306 2450 153 
Q 2172 0 1784 0 
Q 1141 0 747 490 
Q 353 981 353 1791 
Q 353 2603 747 3093 
Q 1141 3584 1784 3584 
Q 2172 3584 2450 3431 
Q 2728 3278 2906 2969 
L 2906 3500 
L 3481 3500 
L 3481 434 
z
" transform="scale(0.015625)"/>
       <path id="DejaVuSans-77" d="M 269 3500 
L 844 3500 
L 1563 769 
L 2278 3500 
L 2956 3500 
L 3675 769 
L 4391 3500 
L 4966 3500 
L 4050 0 
L 3372 0 
L 2619 2869 
L 1863 0 
L 1184 0 
L 269 3500 
z
" transform="scale(0.015625)"/>
       <path id="DejaVuSans-105" d="M 2194 1759 
Q 1497 1759 1228 1600 
Q 959 1441 959 1056 
Q 959 750 1161 570 
Q 1363 391 1709 391 
Q 2188 391 2477 730 
Q 2766 1069 2766 1631 
L 2766 1759 
L 2194 1759 
z
M 3341 1997 
L 3341 0 
L 2766 0 
L 2766 531 
Q 2569 213 2275 61 
Q 1981 -91 1556 -91 
Q 1019 -91 701 211 
Q 384 513 384 1019 
Q 384 1609 779 1909 
Q 1175 2209 1959 2209 
L 2766 2209 
L 2766 2266 
Q 2766 2663 2505 2880 
Q 2244 3097 1772 3097 
Q 1472 3097 1187 3025 
Q 903 2953 641 2809 
L 641 3341 
Q 956 3463 1253 3523 
Q 1550 3584 1831 3584 
Q 2591 3584 2966 3190 
Q 3341 2797 3341 1997 
z
M 2775 0 
L 3147 0 
Q 3006 -191 2939 -328 
Q 2872 -466 2872 -563 
Q 2872 -706 2958 -778 
Q 3044 -850 3213 -850 
Q 3313 -850 3409 -826 
Q 3506 -803 3603 -756 
L 3603 -1172 
Q 3484 -1203 3378 -1218 
Q 3272 -1234 3178 -1234 
Q 2797 -1234 2617 -1098 
Q 2438 -963 2438 -672 
Q 2438 -522 2520 -358 
Q 2603 -194 2775 0 
z
" transform="scale(0.015625)"/>
      </defs>
      <use xlink:href="#DejaVuSans-4e"/>
      <use xlink:href="#DejaVuSans-6f" x="74.804688"/>
      <use xlink:href="#DejaVuSans-72" x="135.986328"/>
      <use xlink:href="#DejaVuSans-6d" x="175.349609"/>
      <use xlink:href="#DejaVuSans-61" x="272.761719"/>
      <use xlink:href="#DejaVuSans-20" x="334.041016"/>
      <use xlink:href="#DejaVuSans-72" x="365.828125"/>
      <use xlink:href="#DejaVuSans-f3" x="404.691406"/>
      <use xlink:href="#DejaVuSans-17c" x="465.873047"/>
      <use xlink:href="#DejaVuSans-6e" x="518.363281"/>
      <use xlink:href="#DejaVuSans-69" x="581.742188"/>
      <use xlink:href="#DejaVuSans-63" x="609.525391"/>
      <use xlink:href="#DejaVuSans-79" x="664.505859"/>
      <use xlink:href="#DejaVuSans-20" x="723.685547"/>
      <use xlink:href="#DejaVuSans-70" x="755.472656"/>
      <use xlink:href="#DejaVuSans-72" x="818.949219"/>
      <use xlink:href="#DejaVuSans-7a" x="860.0625"/>
      <use xlink:href="#DejaVuSans-79" x="912.552734"/>
      <use xlink:href="#DejaVuSans-62" x="971.732422"/>
      <use xlink:href="#DejaVuSans-6c" x="1035.208984"/>
      <use xlink:href="#DejaVuSans-69" x="1062.992188"/>
      <use xlink:href="#DejaVuSans-17c" x="1090.775391"/>
      <use xlink:href="#DejaVuSans-65" x="1143.265625"/>
      <use xlink:href="#DejaVuSans-6e" x="1204.789062"/>
      <use xlink:href="#DejaVuSans-69" x="1268.167969"/>
      <use xlink:href="#DejaVuSans-61" x="1295.951172"/>
      <use xlink:href="#DejaVuSans-20" x="1357.230469"/>
      <use xlink:href="#DejaVuSans-69" x="1389.017578"/>
      <use xlink:href="#DejaVuSans-20" x="1416.800781"/>
      <use xlink:href="#DejaVuSans-64" x="1448.587891"/>
      <use xlink:href="#DejaVuSans-6f" x="1512.064453"/>
      <use xlink:href="#DejaVuSans-6b" x="1573.246094"/>
      <use xlink:href="#DejaVuSans-142" x="1631.15625"/>
      <use xlink:href="#DejaVuSans-61" x="1659.574219"/>
      <use xlink:href="#DejaVuSans-64" x="1720.853516"/>
      <use xlink:href="#DejaVuSans-6e" x="1784.330078"/>
      <use xlink:href="#DejaVuSans-65" x="1847.708984"/>
      <use xlink:href="#DejaVuSans-67" x="1909.232422"/>
      <use xlink:href="#DejaVuSans-6f" x="1972.708984"/>
      <use xlink:href="#DejaVuSans-20" x="2033.890625"/>
      <use xlink:href="#DejaVuSans-72" x="2065.677734"/>
      <use xlink:href="#DejaVuSans-6f" x="2104.541016"/>
      <use xlink:href="#DejaVuSans-7a" x="2165.722656"/>
      <use xlink:href="#DejaVuSans-77" x="2218.212891"/>
      <use xlink:href="#DejaVuSans-69" x="2300"/>
      <use xlink:href="#DejaVuSans-105" x="2327.783203"/>
      <use xlink:href="#DejaVuSans-7a" x="2389.0625"/>
      <use xlink:href="#DejaVuSans-61" x="2441.552734"/>
      <use xlink:href="#DejaVuSans-6e" x="2502.832031"/>
      <use xlink:href="#DejaVuSans-69" x="2566.210938"/>
      <use xlink:href="#DejaVuSans-61" x="2593.994141"/>
     </g>
    </g>
   </g>
   <g id="line2d_15">
    <path d="M 73.832727 91.112257 
L 75.687896 53.568 
L 77.543065 93.593483 
L 79.398234 55.962855 
L 81.253403 95.992227 
L 83.108571 58.332509 
L 84.96374 98.37312 
L 86.818909 60.694539 
L 88.674078 100.745736 
L 90.529247 63.052424 
L 92.384416 103.113376 
L 94.239584 65.407594 
L 96.094753 105.4776 
L 97.949922 67.760804 
L 99.805091 107.839286 
L 101.66026 70.112513 
L 103.515429 110.198988 
L 105.370597 72.463024 
L 107.225766 112.55708 
L 109.080935 74.812551 
L 110.936104 114.913833 
L 112.791273 77.161249 
L 114.646442 117.269447 
L 116.50161 79.509239 
L 118.356779 119.624077 
L 120.211948 81.856613 
L 122.067117 121.977847 
L 123.922286 84.203445 
L 125.777455 124.330854 
L 127.632623 86.549796 
L 129.487792 126.683182 
L 131.342961 88.895716 
L 133.19813 129.034898 
L 135.053299 91.241247 
L 136.908468 131.386058 
L 138.763636 93.586425 
L 140.618805 133.736713 
L 142.473974 95.93128 
L 144.329143 136.086903 
L 146.184312 98.275839 
L 148.039481 138.436667 
L 149.894649 100.620124 
L 151.749818 140.786035 
L 153.604987 102.964155 
L 155.460156 143.135036 
L 157.315325 105.307952 
L 159.170494 145.483695 
L 161.025662 107.651528 
L 162.880831 147.832034 
L 164.736 109.994899 
L 166.591169 150.180074 
L 168.446338 112.338078 
L 170.301506 152.527832 
L 172.156675 114.681075 
L 174.011844 154.875325 
L 175.867013 117.023901 
L 177.722182 157.222567 
L 179.577351 119.366565 
L 181.432519 159.569573 
L 183.287688 121.709077 
L 185.142857 161.916353 
L 186.998026 124.051444 
L 188.853195 164.26292 
L 190.708364 126.393673 
L 192.563532 166.609283 
L 194.418701 128.73577 
L 196.27387 168.955453 
L 198.129039 131.077743 
L 199.984208 171.301439 
L 201.839377 133.419596 
L 203.694545 173.647247 
L 205.549714 135.761336 
L 207.404883 175.992887 
L 209.260052 138.102966 
L 211.115221 178.338364 
L 212.97039 140.444491 
L 214.825558 180.683687 
L 216.680727 142.785916 
L 218.535896 183.02886 
L 220.391065 145.127245 
L 222.246234 185.37389 
L 224.101403 147.468481 
L 225.956571 187.718782 
L 227.81174 149.809628 
L 229.666909 190.063541 
L 231.522078 152.150689 
L 233.377247 192.408171 
L 235.232416 154.491667 
L 237.087584 194.752679 
L 238.942753 156.832566 
L 240.797922 197.097066 
L 242.653091 159.173387 
L 244.50826 199.441339 
L 246.363429 161.514134 
L 248.218597 201.785499 
L 250.073766 163.854809 
L 251.928935 204.129552 
L 253.784104 166.195413 
L 255.639273 206.4735 
L 257.494442 168.535951 
L 259.34961 208.817347 
L 261.204779 170.876423 
L 263.059948 211.161096 
L 264.915117 173.216831 
L 266.770286 213.504749 
L 268.625455 175.557178 
L 270.480623 215.848309 
L 272.335792 177.897466 
L 274.190961 218.19178 
L 276.04613 180.237695 
L 277.901299 220.535163 
L 279.756468 182.577868 
L 281.611636 222.878461 
L 283.466805 184.917986 
L 285.321974 225.221676 
L 287.177143 187.258051 
L 289.032312 227.564811 
L 290.887481 189.598063 
L 292.742649 229.907867 
L 294.597818 191.938026 
L 296.452987 232.250847 
L 298.308156 194.277939 
L 300.163325 234.593752 
L 302.018494 196.617804 
L 303.873662 236.936585 
L 305.728831 198.957622 
L 307.584 239.279346 
L 309.439169 201.297395 
L 311.294338 241.622039 
L 313.149506 203.637124 
L 315.004675 243.964664 
L 316.859844 205.976809 
L 318.715013 246.307223 
L 320.570182 208.316451 
L 322.425351 248.649718 
L 324.280519 210.656053 
L 326.135688 250.99215 
L 327.990857 212.995613 
L 329.846026 253.33452 
L 331.701195 215.335135 
L 333.556364 255.67683 
L 335.411532 217.674618 
L 337.266701 258.019081 
L 339.12187 220.014063 
L 340.977039 260.361275 
L 342.832208 222.353471 
L 344.687377 262.703412 
L 346.542545 224.692842 
L 348.397714 265.045494 
L 350.252883 227.032179 
L 352.108052 267.387522 
L 353.963221 229.371481 
L 355.81839 269.729497 
L 357.673558 231.710749 
L 359.528727 272.071419 
L 361.383896 234.049983 
L 363.239065 274.413291 
L 365.094234 236.389186 
L 366.949403 276.755113 
L 368.804571 238.728356 
L 370.65974 279.096886 
L 372.514909 241.067495 
L 374.370078 281.438611 
L 376.225247 243.406603 
L 378.080416 283.780289 
L 379.935584 245.745681 
L 381.790753 286.12192 
L 383.645922 248.08473 
L 385.501091 288.463508 
L 387.35626 250.42375 
L 389.211429 290.805048 
L 391.066597 252.762742 
L 392.921766 293.146548 
L 394.776935 255.101705 
L 396.632104 295.488 
L 398.487273 257.440641 
L 398.487273 257.440641 
" clip-path="url(#p8d0706abc5)" style="fill: none; stroke: #1f77b4; stroke-width: 1.5; stroke-linecap: square"/>
   </g>
   <g id="line2d_16">
    <path d="M 73.832727 91.112257 
L 75.687896 53.568 
L 77.543065 102.323974 
L 79.398234 64.851562 
L 81.253403 113.499664 
L 83.108571 76.166827 
L 84.96374 124.611174 
L 86.818909 87.465733 
L 88.674078 135.610773 
L 90.529247 98.757669 
L 92.384416 146.423382 
L 94.239584 110.024062 
L 96.094753 156.947174 
L 97.949922 121.250546 
L 99.805091 167.076635 
L 101.66026 132.399012 
L 103.515429 176.750201 
L 105.370597 143.411677 
L 107.225766 185.987694 
L 109.080935 154.195072 
L 110.936104 194.876975 
L 112.791273 164.631902 
L 114.646442 203.525286 
L 116.50161 174.61676 
L 118.356779 212.021719 
L 120.211948 184.115024 
L 122.067117 220.426738 
L 123.922286 193.185967 
L 125.777455 228.777101 
L 127.632623 201.942913 
L 129.487792 237.093964 
L 131.342961 210.497401 
L 133.19813 245.389263 
L 135.053299 218.9308 
L 136.908468 253.669765 
L 138.763636 227.293903 
L 140.618805 261.939402 
L 142.473974 235.615792 
L 144.329143 270.200555 
L 146.184312 243.912551 
L 148.039481 278.454746 
L 149.894649 252.192981 
L 151.749818 286.703017 
L 153.604987 260.461978 
" clip-path="url(#p8d0706abc5)" style="fill: none; stroke: #ff7f0e; stroke-width: 1.5; stroke-linecap: square"/>
   </g>
   <g id="patch_3">
    <path d="M 57.6 307.584 
L 57.6 41.472 
" style="fill: none; stroke: #000000; stroke-width: 0.8; stroke-linejoin: miter; stroke-linecap: square"/>
   </g>
   <g id="patch_4">
    <path d="M 414.72 307.584 
L 414.72 41.472 
" style="fill: none; stroke: #000000; stroke-width: 0.8; stroke-linejoin: miter; stroke-linecap: square"/>
   </g>
   <g id="patch_5">
    <path d="M 57.6 307.584 
L 414.72 307.584 
" style="fill: none; stroke: #000000; stroke-width: 0.8; stroke-linejoin: miter; stroke-linecap: square"/>
   </g>
   <g id="patch_6">
    <path d="M 57.6 41.472 
L 414.72 41.472 
" style="fill: none; stroke: #000000; stroke-width: 0.8; stroke-linejoin: miter; stroke-linecap: square"/>
   </g>
   <g id="text_17">
    <!-- Wykres różnicy rozwiązania i przybliżenia od numeru iteracji  -->
    <g transform="translate(52.905937 22.034625) scale(0.12 -0.12)">
     <defs>
      <path id="DejaVuSans-57" d="M 213 4666 
L 850 4666 
L 1831 722 
L 2809 4666 
L 3519 4666 
L 4500 722 
L 5478 4666 
L 6119 4666 
L 4947 0 
L 4153 0 
L 3169 4050 
L 2175 0 
L 1381 0 
L 213 4666 
z
" transform="scale(0.015625)"/>
      <path id="DejaVuSans-73" d="M 2834 3397 
L 2834 2853 
Q 2591 2978 2328 3040 
Q 2066 3103 1784 3103 
Q 1356 3103 1142 2972 
Q 928 2841 928 2578 
Q 928 2378 1081 2264 
Q 1234 2150 1697 2047 
L 1894 2003 
Q 2506 1872 2764 1633 
Q 3022 1394 3022 966 
Q 3022 478 2636 193 
Q 2250 -91 1575 -91 
Q 1294 -91 989 -36 
Q 684 19 347 128 
L 347 722 
Q 666 556 975 473 
Q 1284 391 1588 391 
Q 1994 391 2212 530 
Q 2431 669 2431 922 
Q 2431 1156 2273 1281 
Q 2116 1406 1581 1522 
L 1381 1569 
Q 847 1681 609 1914 
Q 372 2147 372 2553 
Q 372 3047 722 3315 
Q 1072 3584 1716 3584 
Q 2034 3584 2315 3537 
Q 2597 3491 2834 3397 
z
" transform="scale(0.015625)"/>
     </defs>
     <use xlink:href="#DejaVuSans-57"/>
     <use xlink:href="#DejaVuSans-79" x="97.126953"/>
     <use xlink:href="#DejaVuSans-6b" x="156.306641"/>
     <use xlink:href="#DejaVuSans-72" x="214.216797"/>
     <use xlink:href="#DejaVuSans-65" x="253.080078"/>
     <use xlink:href="#DejaVuSans-73" x="314.603516"/>
     <use xlink:href="#DejaVuSans-20" x="366.703125"/>
     <use xlink:href="#DejaVuSans-72" x="398.490234"/>
     <use xlink:href="#DejaVuSans-f3" x="437.353516"/>
     <use xlink:href="#DejaVuSans-17c" x="498.535156"/>
     <use xlink:href="#DejaVuSans-6e" x="551.025391"/>
     <use xlink:href="#DejaVuSans-69" x="614.404297"/>
     <use xlink:href="#DejaVuSans-63" x="642.1875"/>
     <use xlink:href="#DejaVuSans-79" x="697.167969"/>
     <use xlink:href="#DejaVuSans-20" x="756.347656"/>
     <use xlink:href="#DejaVuSans-72" x="788.134766"/>
     <use xlink:href="#DejaVuSans-6f" x="826.998047"/>
     <use xlink:href="#DejaVuSans-7a" x="888.179688"/>
     <use xlink:href="#DejaVuSans-77" x="940.669922"/>
     <use xlink:href="#DejaVuSans-69" x="1022.457031"/>
     <use xlink:href="#DejaVuSans-105" x="1050.240234"/>
     <use xlink:href="#DejaVuSans-7a" x="1111.519531"/>
     <use xlink:href="#DejaVuSans-61" x="1164.009766"/>
     <use xlink:href="#DejaVuSans-6e" x="1225.289062"/>
     <use xlink:href="#DejaVuSans-69" x="1288.667969"/>
     <use xlink:href="#DejaVuSans-61" x="1316.451172"/>
     <use xlink:href="#DejaVuSans-20" x="1377.730469"/>
     <use xlink:href="#DejaVuSans-69" x="1409.517578"/>
     <use xlink:href="#DejaVuSans-20" x="1437.300781"/>
     <use xlink:href="#DejaVuSans-70" x="1469.087891"/>
     <use xlink:href="#DejaVuSans-72" x="1532.564453"/>
     <use xlink:href="#DejaVuSans-7a" x="1573.677734"/>
     <use xlink:href="#DejaVuSans-79" x="1626.167969"/>
     <use xlink:href="#DejaVuSans-62" x="1685.347656"/>
     <use xlink:href="#DejaVuSans-6c" x="1748.824219"/>
     <use xlink:href="#DejaVuSans-69" x="1776.607422"/>
     <use xlink:href="#DejaVuSans-17c" x="1804.390625"/>
     <use xlink:href="#DejaVuSans-65" x="1856.880859"/>
     <use xlink:href="#DejaVuSans-6e" x="1918.404297"/>
     <use xlink:href="#DejaVuSans-69" x="1981.783203"/>
     <use xlink:href="#DejaVuSans-61" x="2009.566406"/>
     <use xlink:href="#DejaVuSans-20" x="2070.845703"/>
     <use xlink:href="#DejaVuSans-6f" x="2102.632812"/>
     <use xlink:href="#DejaVuSans-64" x="2163.814453"/>
     <use xlink:href="#DejaVuSans-20" x="2227.291016"/>
     <use xlink:href="#DejaVuSans-6e" x="2259.078125"/>
     <use xlink:href="#DejaVuSans-75" x="2322.457031"/>
     <use xlink:href="#DejaVuSans-6d" x="2385.835938"/>
     <use xlink:href="#DejaVuSans-65" x="2483.248047"/>
     <use xlink:href="#DejaVuSans-72" x="2544.771484"/>
     <use xlink:href="#DejaVuSans-75" x="2585.884766"/>
     <use xlink:href="#DejaVuSans-20" x="2649.263672"/>
     <use xlink:href="#DejaVuSans-69" x="2681.050781"/>
     <use xlink:href="#DejaVuSans-74" x="2708.833984"/>
     <use xlink:href="#DejaVuSans-65" x="2748.042969"/>
     <use xlink:href="#DejaVuSans-72" x="2809.566406"/>
     <use xlink:href="#DejaVuSans-61" x="2850.679688"/>
     <use xlink:href="#DejaVuSans-63" x="2911.958984"/>
     <use xlink:href="#DejaVuSans-6a" x="2966.939453"/>
     <use xlink:href="#DejaVuSans-69" x="2994.722656"/>
     <use xlink:href="#DejaVuSans-20" x="3022.505859"/>
    </g>
    <!--  dla wektora startowego = (1000, 1000, ..., 1000) -->
    <g transform="translate(86.8275 35.472) scale(0.12 -0.12)">
     <defs>
      <path id="DejaVuSans-3d" d="M 678 2906 
L 4684 2906 
L 4684 2381 
L 678 2381 
L 678 2906 
z
M 678 1631 
L 4684 1631 
L 4684 1100 
L 678 1100 
L 678 1631 
z
" transform="scale(0.015625)"/>
      <path id="DejaVuSans-28" d="M 1984 4856 
Q 1566 4138 1362 3434 
Q 1159 2731 1159 2009 
Q 1159 1288 1364 580 
Q 1569 -128 1984 -844 
L 1484 -844 
Q 1016 -109 783 600 
Q 550 1309 550 2009 
Q 550 2706 781 3412 
Q 1013 4119 1484 4856 
L 1984 4856 
z
" transform="scale(0.015625)"/>
      <path id="DejaVuSans-2c" d="M 750 794 
L 1409 794 
L 1409 256 
L 897 -744 
L 494 -744 
L 750 256 
L 750 794 
z
" transform="scale(0.015625)"/>
      <path id="DejaVuSans-2e" d="M 684 794 
L 1344 794 
L 1344 0 
L 684 0 
L 684 794 
z
" transform="scale(0.015625)"/>
      <path id="DejaVuSans-29" d="M 513 4856 
L 1013 4856 
Q 1481 4119 1714 3412 
Q 1947 2706 1947 2009 
Q 1947 1309 1714 600 
Q 1481 -109 1013 -844 
L 513 -844 
Q 928 -128 1133 580 
Q 1338 1288 1338 2009 
Q 1338 2731 1133 3434 
Q 928 4138 513 4856 
z
" transform="scale(0.015625)"/>
     </defs>
     <use xlink:href="#DejaVuSans-20"/>
     <use xlink:href="#DejaVuSans-64" x="31.787109"/>
     <use xlink:href="#DejaVuSans-6c" x="95.263672"/>
     <use xlink:href="#DejaVuSans-61" x="123.046875"/>
     <use xlink:href="#DejaVuSans-20" x="184.326172"/>
     <use xlink:href="#DejaVuSans-77" x="216.113281"/>
     <use xlink:href="#DejaVuSans-65" x="297.900391"/>
     <use xlink:href="#DejaVuSans-6b" x="359.423828"/>
     <use xlink:href="#DejaVuSans-74" x="417.333984"/>
     <use xlink:href="#DejaVuSans-6f" x="456.542969"/>
     <use xlink:href="#DejaVuSans-72" x="517.724609"/>
     <use xlink:href="#DejaVuSans-61" x="558.837891"/>
     <use xlink:href="#DejaVuSans-20" x="620.117188"/>
     <use xlink:href="#DejaVuSans-73" x="651.904297"/>
     <use xlink:href="#DejaVuSans-74" x="704.003906"/>
     <use xlink:href="#DejaVuSans-61" x="743.212891"/>
     <use xlink:href="#DejaVuSans-72" x="804.492188"/>
     <use xlink:href="#DejaVuSans-74" x="845.605469"/>
     <use xlink:href="#DejaVuSans-6f" x="884.814453"/>
     <use xlink:href="#DejaVuSans-77" x="945.996094"/>
     <use xlink:href="#DejaVuSans-65" x="1027.783203"/>
     <use xlink:href="#DejaVuSans-67" x="1089.306641"/>
     <use xlink:href="#DejaVuSans-6f" x="1152.783203"/>
     <use xlink:href="#DejaVuSans-20" x="1213.964844"/>
     <use xlink:href="#DejaVuSans-3d" x="1245.751953"/>
     <use xlink:href="#DejaVuSans-20" x="1329.541016"/>
     <use xlink:href="#DejaVuSans-28" x="1361.328125"/>
     <use xlink:href="#DejaVuSans-31" x="1400.341797"/>
     <use xlink:href="#DejaVuSans-30" x="1463.964844"/>
     <use xlink:href="#DejaVuSans-30" x="1527.587891"/>
     <use xlink:href="#DejaVuSans-30" x="1591.210938"/>
     <use xlink:href="#DejaVuSans-2c" x="1654.833984"/>
     <use xlink:href="#DejaVuSans-20" x="1686.621094"/>
     <use xlink:href="#DejaVuSans-31" x="1718.408203"/>
     <use xlink:href="#DejaVuSans-30" x="1782.03125"/>
     <use xlink:href="#DejaVuSans-30" x="1845.654297"/>
     <use xlink:href="#DejaVuSans-30" x="1909.277344"/>
     <use xlink:href="#DejaVuSans-2c" x="1972.900391"/>
     <use xlink:href="#DejaVuSans-20" x="2004.6875"/>
     <use xlink:href="#DejaVuSans-2e" x="2036.474609"/>
     <use xlink:href="#DejaVuSans-2e" x="2068.261719"/>
     <use xlink:href="#DejaVuSans-2e" x="2100.048828"/>
     <use xlink:href="#DejaVuSans-2c" x="2131.835938"/>
     <use xlink:href="#DejaVuSans-20" x="2163.623047"/>
     <use xlink:href="#DejaVuSans-31" x="2195.410156"/>
     <use xlink:href="#DejaVuSans-30" x="2259.033203"/>
     <use xlink:href="#DejaVuSans-30" x="2322.65625"/>
     <use xlink:href="#DejaVuSans-30" x="2386.279297"/>
     <use xlink:href="#DejaVuSans-29" x="2449.902344"/>
    </g>
   </g>
   <g id="legend_1">
    <g id="patch_7">
     <path d="M 285.690313 78.82825 
L 407.72 78.82825 
Q 409.72 78.82825 409.72 76.82825 
L 409.72 48.472 
Q 409.72 46.472 407.72 46.472 
L 285.690313 46.472 
Q 283.690313 46.472 283.690313 48.472 
L 283.690313 76.82825 
Q 283.690313 78.82825 285.690313 78.82825 
z
" style="fill: #ffffff; opacity: 0.8; stroke: #cccccc; stroke-linejoin: miter"/>
    </g>
    <g id="line2d_17">
     <path d="M 287.690313 54.570437 
L 297.690313 54.570437 
L 307.690313 54.570437 
" style="fill: none; stroke: #1f77b4; stroke-width: 1.5; stroke-linecap: square"/>
    </g>
    <g id="text_18">
     <!-- metoda Jacobiego -->
     <g transform="translate(315.690313 58.070437) scale(0.1 -0.1)">
      <defs>
       <path id="DejaVuSans-4a" d="M 628 4666 
L 1259 4666 
L 1259 325 
Q 1259 -519 939 -900 
Q 619 -1281 -91 -1281 
L -331 -1281 
L -331 -750 
L -134 -750 
Q 284 -750 456 -515 
Q 628 -281 628 325 
L 628 4666 
z
" transform="scale(0.015625)"/>
      </defs>
      <use xlink:href="#DejaVuSans-6d"/>
      <use xlink:href="#DejaVuSans-65" x="97.412109"/>
      <use xlink:href="#DejaVuSans-74" x="158.935547"/>
      <use xlink:href="#DejaVuSans-6f" x="198.144531"/>
      <use xlink:href="#DejaVuSans-64" x="259.326172"/>
      <use xlink:href="#DejaVuSans-61" x="322.802734"/>
      <use xlink:href="#DejaVuSans-20" x="384.082031"/>
      <use xlink:href="#DejaVuSans-4a" x="415.869141"/>
      <use xlink:href="#DejaVuSans-61" x="445.361328"/>
      <use xlink:href="#DejaVuSans-63" x="506.640625"/>
      <use xlink:href="#DejaVuSans-6f" x="561.621094"/>
      <use xlink:href="#DejaVuSans-62" x="622.802734"/>
      <use xlink:href="#DejaVuSans-69" x="686.279297"/>
      <use xlink:href="#DejaVuSans-65" x="714.0625"/>
      <use xlink:href="#DejaVuSans-67" x="775.585938"/>
      <use xlink:href="#DejaVuSans-6f" x="839.0625"/>
     </g>
    </g>
    <g id="line2d_18">
     <path d="M 287.690313 69.248562 
L 297.690313 69.248562 
L 307.690313 69.248562 
" style="fill: none; stroke: #ff7f0e; stroke-width: 1.5; stroke-linecap: square"/>
    </g>
    <g id="text_19">
     <!-- metoda Gaussa -->
     <g transform="translate(315.690313 72.748562) scale(0.1 -0.1)">
      <defs>
       <path id="DejaVuSans-47" d="M 3809 666 
L 3809 1919 
L 2778 1919 
L 2778 2438 
L 4434 2438 
L 4434 434 
Q 4069 175 3628 42 
Q 3188 -91 2688 -91 
Q 1594 -91 976 548 
Q 359 1188 359 2328 
Q 359 3472 976 4111 
Q 1594 4750 2688 4750 
Q 3144 4750 3555 4637 
Q 3966 4525 4313 4306 
L 4313 3634 
Q 3963 3931 3569 4081 
Q 3175 4231 2741 4231 
Q 1884 4231 1454 3753 
Q 1025 3275 1025 2328 
Q 1025 1384 1454 906 
Q 1884 428 2741 428 
Q 3075 428 3337 486 
Q 3600 544 3809 666 
z
" transform="scale(0.015625)"/>
      </defs>
      <use xlink:href="#DejaVuSans-6d"/>
      <use xlink:href="#DejaVuSans-65" x="97.412109"/>
      <use xlink:href="#DejaVuSans-74" x="158.935547"/>
      <use xlink:href="#DejaVuSans-6f" x="198.144531"/>
      <use xlink:href="#DejaVuSans-64" x="259.326172"/>
      <use xlink:href="#DejaVuSans-61" x="322.802734"/>
      <use xlink:href="#DejaVuSans-20" x="384.082031"/>
      <use xlink:href="#DejaVuSans-47" x="415.869141"/>
      <use xlink:href="#DejaVuSans-61" x="493.359375"/>
      <use xlink:href="#DejaVuSans-75" x="554.638672"/>
      <use xlink:href="#DejaVuSans-73" x="618.017578"/>
      <use xlink:href="#DejaVuSans-73" x="670.117188"/>
      <use xlink:href="#DejaVuSans-61" x="722.216797"/>
     </g>
    </g>
   </g>
  </g>
 </g>
 <defs>
  <clipPath id="p8d0706abc5">
   <rect x="57.6" y="41.472" width="357.12" height="266.112"/>
  </clipPath>
 </defs>
</svg>
