<?xml version="1.0" encoding="utf-8" standalone="no"?>
<!DOCTYPE svg PUBLIC "-//W3C//DTD SVG 1.1//EN"
  "http://www.w3.org/Graphics/SVG/1.1/DTD/svg11.dtd">
<svg xmlns:xlink="http://www.w3.org/1999/xlink" width="460.8pt" height="345.6pt" viewBox="0 0 460.8 345.6" xmlns="http://www.w3.org/2000/svg" version="1.1">
 <metadata>
  <rdf:RDF xmlns:dc="http://purl.org/dc/elements/1.1/" xmlns:cc="http://creativecommons.org/ns#" xmlns:rdf="http://www.w3.org/1999/02/22-rdf-syntax-ns#">
   <cc:Work>
    <dc:type rdf:resource="http://purl.org/dc/dcmitype/StillImage"/>
    <dc:date>2023-11-26T20:56:03.520942</dc:date>
    <dc:format>image/svg+xml</dc:format>
    <dc:creator>
     <cc:Agent>
      <dc:title>Matplotlib v3.8.0, https://matplotlib.org/</dc:title>
     </cc:Agent>
    </dc:creator>
   </cc:Work>
  </rdf:RDF>
 </metadata>
 <defs>
  <style type="text/css">*{stroke-linejoin: round; stroke-linecap: butt}</style>
 </defs>
 <g id="figure_1">
  <g id="patch_1">
   <path d="M 0 345.6 
L 460.8 345.6 
L 460.8 0 
L 0 0 
z
" style="fill: #ffffff"/>
  </g>
  <g id="axes_1">
   <g id="patch_2">
    <path d="M 57.6 307.584 
L 414.72 307.584 
L 414.72 41.472 
L 57.6 41.472 
z
" style="fill: #ffffff"/>
   </g>
   <g id="matplotlib.axis_1">
    <g id="xtick_1">
     <g id="line2d_1">
      <defs>
       <path id="m490c515b16" d="M 0 0 
L 0 3.5 
" style="stroke: #000000; stroke-width: 0.8"/>
      </defs>
      <g>
       <use xlink:href="#m490c515b16" x="70.225455" y="307.584" style="stroke: #000000; stroke-width: 0.8"/>
      </g>
     </g>
     <g id="text_1">
      <!-- 0 -->
      <g transform="translate(67.044205 322.182437) scale(0.1 -0.1)">
       <defs>
        <path id="DejaVuSans-30" d="M 2034 4250 
Q 1547 4250 1301 3770 
Q 1056 3291 1056 2328 
Q 1056 1369 1301 889 
Q 1547 409 2034 409 
Q 2525 409 2770 889 
Q 3016 1369 3016 2328 
Q 3016 3291 2770 3770 
Q 2525 4250 2034 4250 
z
M 2034 4750 
Q 2819 4750 3233 4129 
Q 3647 3509 3647 2328 
Q 3647 1150 3233 529 
Q 2819 -91 2034 -91 
Q 1250 -91 836 529 
Q 422 1150 422 2328 
Q 422 3509 836 4129 
Q 1250 4750 2034 4750 
z
" transform="scale(0.015625)"/>
       </defs>
       <use xlink:href="#DejaVuSans-30"/>
      </g>
     </g>
    </g>
    <g id="xtick_2">
     <g id="line2d_2">
      <g>
       <use xlink:href="#m490c515b16" x="142.370909" y="307.584" style="stroke: #000000; stroke-width: 0.8"/>
      </g>
     </g>
     <g id="text_2">
      <!-- 20 -->
      <g transform="translate(136.008409 322.182437) scale(0.1 -0.1)">
       <defs>
        <path id="DejaVuSans-32" d="M 1228 531 
L 3431 531 
L 3431 0 
L 469 0 
L 469 531 
Q 828 903 1448 1529 
Q 2069 2156 2228 2338 
Q 2531 2678 2651 2914 
Q 2772 3150 2772 3378 
Q 2772 3750 2511 3984 
Q 2250 4219 1831 4219 
Q 1534 4219 1204 4116 
Q 875 4013 500 3803 
L 500 4441 
Q 881 4594 1212 4672 
Q 1544 4750 1819 4750 
Q 2544 4750 2975 4387 
Q 3406 4025 3406 3419 
Q 3406 3131 3298 2873 
Q 3191 2616 2906 2266 
Q 2828 2175 2409 1742 
Q 1991 1309 1228 531 
z
" transform="scale(0.015625)"/>
       </defs>
       <use xlink:href="#DejaVuSans-32"/>
       <use xlink:href="#DejaVuSans-30" x="63.623047"/>
      </g>
     </g>
    </g>
    <g id="xtick_3">
     <g id="line2d_3">
      <g>
       <use xlink:href="#m490c515b16" x="214.516364" y="307.584" style="stroke: #000000; stroke-width: 0.8"/>
      </g>
     </g>
     <g id="text_3">
      <!-- 40 -->
      <g transform="translate(208.153864 322.182437) scale(0.1 -0.1)">
       <defs>
        <path id="DejaVuSans-34" d="M 2419 4116 
L 825 1625 
L 2419 1625 
L 2419 4116 
z
M 2253 4666 
L 3047 4666 
L 3047 1625 
L 3713 1625 
L 3713 1100 
L 3047 1100 
L 3047 0 
L 2419 0 
L 2419 1100 
L 313 1100 
L 313 1709 
L 2253 4666 
z
" transform="scale(0.015625)"/>
       </defs>
       <use xlink:href="#DejaVuSans-34"/>
       <use xlink:href="#DejaVuSans-30" x="63.623047"/>
      </g>
     </g>
    </g>
    <g id="xtick_4">
     <g id="line2d_4">
      <g>
       <use xlink:href="#m490c515b16" x="286.661818" y="307.584" style="stroke: #000000; stroke-width: 0.8"/>
      </g>
     </g>
     <g id="text_4">
      <!-- 60 -->
      <g transform="translate(280.299318 322.182437) scale(0.1 -0.1)">
       <defs>
        <path id="DejaVuSans-36" d="M 2113 2584 
Q 1688 2584 1439 2293 
Q 1191 2003 1191 1497 
Q 1191 994 1439 701 
Q 1688 409 2113 409 
Q 2538 409 2786 701 
Q 3034 994 3034 1497 
Q 3034 2003 2786 2293 
Q 2538 2584 2113 2584 
z
M 3366 4563 
L 3366 3988 
Q 3128 4100 2886 4159 
Q 2644 4219 2406 4219 
Q 1781 4219 1451 3797 
Q 1122 3375 1075 2522 
Q 1259 2794 1537 2939 
Q 1816 3084 2150 3084 
Q 2853 3084 3261 2657 
Q 3669 2231 3669 1497 
Q 3669 778 3244 343 
Q 2819 -91 2113 -91 
Q 1303 -91 875 529 
Q 447 1150 447 2328 
Q 447 3434 972 4092 
Q 1497 4750 2381 4750 
Q 2619 4750 2861 4703 
Q 3103 4656 3366 4563 
z
" transform="scale(0.015625)"/>
       </defs>
       <use xlink:href="#DejaVuSans-36"/>
       <use xlink:href="#DejaVuSans-30" x="63.623047"/>
      </g>
     </g>
    </g>
    <g id="xtick_5">
     <g id="line2d_5">
      <g>
       <use xlink:href="#m490c515b16" x="358.807273" y="307.584" style="stroke: #000000; stroke-width: 0.8"/>
      </g>
     </g>
     <g id="text_5">
      <!-- 80 -->
      <g transform="translate(352.444773 322.182437) scale(0.1 -0.1)">
       <defs>
        <path id="DejaVuSans-38" d="M 2034 2216 
Q 1584 2216 1326 1975 
Q 1069 1734 1069 1313 
Q 1069 891 1326 650 
Q 1584 409 2034 409 
Q 2484 409 2743 651 
Q 3003 894 3003 1313 
Q 3003 1734 2745 1975 
Q 2488 2216 2034 2216 
z
M 1403 2484 
Q 997 2584 770 2862 
Q 544 3141 544 3541 
Q 544 4100 942 4425 
Q 1341 4750 2034 4750 
Q 2731 4750 3128 4425 
Q 3525 4100 3525 3541 
Q 3525 3141 3298 2862 
Q 3072 2584 2669 2484 
Q 3125 2378 3379 2068 
Q 3634 1759 3634 1313 
Q 3634 634 3220 271 
Q 2806 -91 2034 -91 
Q 1263 -91 848 271 
Q 434 634 434 1313 
Q 434 1759 690 2068 
Q 947 2378 1403 2484 
z
M 1172 3481 
Q 1172 3119 1398 2916 
Q 1625 2713 2034 2713 
Q 2441 2713 2670 2916 
Q 2900 3119 2900 3481 
Q 2900 3844 2670 4047 
Q 2441 4250 2034 4250 
Q 1625 4250 1398 4047 
Q 1172 3844 1172 3481 
z
" transform="scale(0.015625)"/>
       </defs>
       <use xlink:href="#DejaVuSans-38"/>
       <use xlink:href="#DejaVuSans-30" x="63.623047"/>
      </g>
     </g>
    </g>
    <g id="text_6">
     <!-- Numer iteracji -->
     <g transform="translate(200.586562 335.860562) scale(0.1 -0.1)">
      <defs>
       <path id="DejaVuSans-4e" d="M 628 4666 
L 1478 4666 
L 3547 763 
L 3547 4666 
L 4159 4666 
L 4159 0 
L 3309 0 
L 1241 3903 
L 1241 0 
L 628 0 
L 628 4666 
z
" transform="scale(0.015625)"/>
       <path id="DejaVuSans-75" d="M 544 1381 
L 544 3500 
L 1119 3500 
L 1119 1403 
Q 1119 906 1312 657 
Q 1506 409 1894 409 
Q 2359 409 2629 706 
Q 2900 1003 2900 1516 
L 2900 3500 
L 3475 3500 
L 3475 0 
L 2900 0 
L 2900 538 
Q 2691 219 2414 64 
Q 2138 -91 1772 -91 
Q 1169 -91 856 284 
Q 544 659 544 1381 
z
M 1991 3584 
L 1991 3584 
z
" transform="scale(0.015625)"/>
       <path id="DejaVuSans-6d" d="M 3328 2828 
Q 3544 3216 3844 3400 
Q 4144 3584 4550 3584 
Q 5097 3584 5394 3201 
Q 5691 2819 5691 2113 
L 5691 0 
L 5113 0 
L 5113 2094 
Q 5113 2597 4934 2840 
Q 4756 3084 4391 3084 
Q 3944 3084 3684 2787 
Q 3425 2491 3425 1978 
L 3425 0 
L 2847 0 
L 2847 2094 
Q 2847 2600 2669 2842 
Q 2491 3084 2119 3084 
Q 1678 3084 1418 2786 
Q 1159 2488 1159 1978 
L 1159 0 
L 581 0 
L 581 3500 
L 1159 3500 
L 1159 2956 
Q 1356 3278 1631 3431 
Q 1906 3584 2284 3584 
Q 2666 3584 2933 3390 
Q 3200 3197 3328 2828 
z
" transform="scale(0.015625)"/>
       <path id="DejaVuSans-65" d="M 3597 1894 
L 3597 1613 
L 953 1613 
Q 991 1019 1311 708 
Q 1631 397 2203 397 
Q 2534 397 2845 478 
Q 3156 559 3463 722 
L 3463 178 
Q 3153 47 2828 -22 
Q 2503 -91 2169 -91 
Q 1331 -91 842 396 
Q 353 884 353 1716 
Q 353 2575 817 3079 
Q 1281 3584 2069 3584 
Q 2775 3584 3186 3129 
Q 3597 2675 3597 1894 
z
M 3022 2063 
Q 3016 2534 2758 2815 
Q 2500 3097 2075 3097 
Q 1594 3097 1305 2825 
Q 1016 2553 972 2059 
L 3022 2063 
z
" transform="scale(0.015625)"/>
       <path id="DejaVuSans-72" d="M 2631 2963 
Q 2534 3019 2420 3045 
Q 2306 3072 2169 3072 
Q 1681 3072 1420 2755 
Q 1159 2438 1159 1844 
L 1159 0 
L 581 0 
L 581 3500 
L 1159 3500 
L 1159 2956 
Q 1341 3275 1631 3429 
Q 1922 3584 2338 3584 
Q 2397 3584 2469 3576 
Q 2541 3569 2628 3553 
L 2631 2963 
z
" transform="scale(0.015625)"/>
       <path id="DejaVuSans-20" transform="scale(0.015625)"/>
       <path id="DejaVuSans-69" d="M 603 3500 
L 1178 3500 
L 1178 0 
L 603 0 
L 603 3500 
z
M 603 4863 
L 1178 4863 
L 1178 4134 
L 603 4134 
L 603 4863 
z
" transform="scale(0.015625)"/>
       <path id="DejaVuSans-74" d="M 1172 4494 
L 1172 3500 
L 2356 3500 
L 2356 3053 
L 1172 3053 
L 1172 1153 
Q 1172 725 1289 603 
Q 1406 481 1766 481 
L 2356 481 
L 2356 0 
L 1766 0 
Q 1100 0 847 248 
Q 594 497 594 1153 
L 594 3053 
L 172 3053 
L 172 3500 
L 594 3500 
L 594 4494 
L 1172 4494 
z
" transform="scale(0.015625)"/>
       <path id="DejaVuSans-61" d="M 2194 1759 
Q 1497 1759 1228 1600 
Q 959 1441 959 1056 
Q 959 750 1161 570 
Q 1363 391 1709 391 
Q 2188 391 2477 730 
Q 2766 1069 2766 1631 
L 2766 1759 
L 2194 1759 
z
M 3341 1997 
L 3341 0 
L 2766 0 
L 2766 531 
Q 2569 213 2275 61 
Q 1981 -91 1556 -91 
Q 1019 -91 701 211 
Q 384 513 384 1019 
Q 384 1609 779 1909 
Q 1175 2209 1959 2209 
L 2766 2209 
L 2766 2266 
Q 2766 2663 2505 2880 
Q 2244 3097 1772 3097 
Q 1472 3097 1187 3025 
Q 903 2953 641 2809 
L 641 3341 
Q 956 3463 1253 3523 
Q 1550 3584 1831 3584 
Q 2591 3584 2966 3190 
Q 3341 2797 3341 1997 
z
" transform="scale(0.015625)"/>
       <path id="DejaVuSans-63" d="M 3122 3366 
L 3122 2828 
Q 2878 2963 2633 3030 
Q 2388 3097 2138 3097 
Q 1578 3097 1268 2742 
Q 959 2388 959 1747 
Q 959 1106 1268 751 
Q 1578 397 2138 397 
Q 2388 397 2633 464 
Q 2878 531 3122 666 
L 3122 134 
Q 2881 22 2623 -34 
Q 2366 -91 2075 -91 
Q 1284 -91 818 406 
Q 353 903 353 1747 
Q 353 2603 823 3093 
Q 1294 3584 2113 3584 
Q 2378 3584 2631 3529 
Q 2884 3475 3122 3366 
z
" transform="scale(0.015625)"/>
       <path id="DejaVuSans-6a" d="M 603 3500 
L 1178 3500 
L 1178 -63 
Q 1178 -731 923 -1031 
Q 669 -1331 103 -1331 
L -116 -1331 
L -116 -844 
L 38 -844 
Q 366 -844 484 -692 
Q 603 -541 603 -63 
L 603 3500 
z
M 603 4863 
L 1178 4863 
L 1178 4134 
L 603 4134 
L 603 4863 
z
" transform="scale(0.015625)"/>
      </defs>
      <use xlink:href="#DejaVuSans-4e"/>
      <use xlink:href="#DejaVuSans-75" x="74.804688"/>
      <use xlink:href="#DejaVuSans-6d" x="138.183594"/>
      <use xlink:href="#DejaVuSans-65" x="235.595703"/>
      <use xlink:href="#DejaVuSans-72" x="297.119141"/>
      <use xlink:href="#DejaVuSans-20" x="338.232422"/>
      <use xlink:href="#DejaVuSans-69" x="370.019531"/>
      <use xlink:href="#DejaVuSans-74" x="397.802734"/>
      <use xlink:href="#DejaVuSans-65" x="437.011719"/>
      <use xlink:href="#DejaVuSans-72" x="498.535156"/>
      <use xlink:href="#DejaVuSans-61" x="539.648438"/>
      <use xlink:href="#DejaVuSans-63" x="600.927734"/>
      <use xlink:href="#DejaVuSans-6a" x="655.908203"/>
      <use xlink:href="#DejaVuSans-69" x="683.691406"/>
     </g>
    </g>
   </g>
   <g id="matplotlib.axis_2">
    <g id="ytick_1">
     <g id="line2d_6">
      <defs>
       <path id="m33ba570d36" d="M 0 0 
L -3.5 0 
" style="stroke: #000000; stroke-width: 0.8"/>
      </defs>
      <g>
       <use xlink:href="#m33ba570d36" x="57.6" y="281.8112" style="stroke: #000000; stroke-width: 0.8"/>
      </g>
     </g>
     <g id="text_7">
      <!-- $\mathdefault{10^{-6}}$ -->
      <g transform="translate(27.1 285.610419) scale(0.1 -0.1)">
       <defs>
        <path id="DejaVuSans-31" d="M 794 531 
L 1825 531 
L 1825 4091 
L 703 3866 
L 703 4441 
L 1819 4666 
L 2450 4666 
L 2450 531 
L 3481 531 
L 3481 0 
L 794 0 
L 794 531 
z
" transform="scale(0.015625)"/>
        <path id="DejaVuSans-2212" d="M 678 2272 
L 4684 2272 
L 4684 1741 
L 678 1741 
L 678 2272 
z
" transform="scale(0.015625)"/>
       </defs>
       <use xlink:href="#DejaVuSans-31" transform="translate(0 0.765625)"/>
       <use xlink:href="#DejaVuSans-30" transform="translate(63.623047 0.765625)"/>
       <use xlink:href="#DejaVuSans-2212" transform="translate(128.203125 39.046875) scale(0.7)"/>
       <use xlink:href="#DejaVuSans-36" transform="translate(186.855469 39.046875) scale(0.7)"/>
      </g>
     </g>
    </g>
    <g id="ytick_2">
     <g id="line2d_7">
      <g>
       <use xlink:href="#m33ba570d36" x="57.6" y="236.351408" style="stroke: #000000; stroke-width: 0.8"/>
      </g>
     </g>
     <g id="text_8">
      <!-- $\mathdefault{10^{-4}}$ -->
      <g transform="translate(27.1 240.150627) scale(0.1 -0.1)">
       <use xlink:href="#DejaVuSans-31" transform="translate(0 0.684375)"/>
       <use xlink:href="#DejaVuSans-30" transform="translate(63.623047 0.684375)"/>
       <use xlink:href="#DejaVuSans-2212" transform="translate(128.203125 38.965625) scale(0.7)"/>
       <use xlink:href="#DejaVuSans-34" transform="translate(186.855469 38.965625) scale(0.7)"/>
      </g>
     </g>
    </g>
    <g id="ytick_3">
     <g id="line2d_8">
      <g>
       <use xlink:href="#m33ba570d36" x="57.6" y="190.891617" style="stroke: #000000; stroke-width: 0.8"/>
      </g>
     </g>
     <g id="text_9">
      <!-- $\mathdefault{10^{-2}}$ -->
      <g transform="translate(27.1 194.690836) scale(0.1 -0.1)">
       <use xlink:href="#DejaVuSans-31" transform="translate(0 0.765625)"/>
       <use xlink:href="#DejaVuSans-30" transform="translate(63.623047 0.765625)"/>
       <use xlink:href="#DejaVuSans-2212" transform="translate(128.203125 39.046875) scale(0.7)"/>
       <use xlink:href="#DejaVuSans-32" transform="translate(186.855469 39.046875) scale(0.7)"/>
      </g>
     </g>
    </g>
    <g id="ytick_4">
     <g id="line2d_9">
      <g>
       <use xlink:href="#m33ba570d36" x="57.6" y="145.431825" style="stroke: #000000; stroke-width: 0.8"/>
      </g>
     </g>
     <g id="text_10">
      <!-- $\mathdefault{10^{0}}$ -->
      <g transform="translate(33 149.231044) scale(0.1 -0.1)">
       <use xlink:href="#DejaVuSans-31" transform="translate(0 0.765625)"/>
       <use xlink:href="#DejaVuSans-30" transform="translate(63.623047 0.765625)"/>
       <use xlink:href="#DejaVuSans-30" transform="translate(128.203125 39.046875) scale(0.7)"/>
      </g>
     </g>
    </g>
    <g id="ytick_5">
     <g id="line2d_10">
      <g>
       <use xlink:href="#m33ba570d36" x="57.6" y="99.972034" style="stroke: #000000; stroke-width: 0.8"/>
      </g>
     </g>
     <g id="text_11">
      <!-- $\mathdefault{10^{2}}$ -->
      <g transform="translate(33 103.771253) scale(0.1 -0.1)">
       <use xlink:href="#DejaVuSans-31" transform="translate(0 0.765625)"/>
       <use xlink:href="#DejaVuSans-30" transform="translate(63.623047 0.765625)"/>
       <use xlink:href="#DejaVuSans-32" transform="translate(128.203125 39.046875) scale(0.7)"/>
      </g>
     </g>
    </g>
    <g id="ytick_6">
     <g id="line2d_11">
      <g>
       <use xlink:href="#m33ba570d36" x="57.6" y="54.512243" style="stroke: #000000; stroke-width: 0.8"/>
      </g>
     </g>
     <g id="text_12">
      <!-- $\mathdefault{10^{4}}$ -->
      <g transform="translate(33 58.311461) scale(0.1 -0.1)">
       <use xlink:href="#DejaVuSans-31" transform="translate(0 0.684375)"/>
       <use xlink:href="#DejaVuSans-30" transform="translate(63.623047 0.684375)"/>
       <use xlink:href="#DejaVuSans-34" transform="translate(128.203125 38.965625) scale(0.7)"/>
      </g>
     </g>
    </g>
    <g id="text_13">
     <!-- Norma różnicy przybliżenia i dokładnego rozwiązania -->
     <g transform="translate(21.020312 307.292062) rotate(-90) scale(0.1 -0.1)">
      <defs>
       <path id="DejaVuSans-6f" d="M 1959 3097 
Q 1497 3097 1228 2736 
Q 959 2375 959 1747 
Q 959 1119 1226 758 
Q 1494 397 1959 397 
Q 2419 397 2687 759 
Q 2956 1122 2956 1747 
Q 2956 2369 2687 2733 
Q 2419 3097 1959 3097 
z
M 1959 3584 
Q 2709 3584 3137 3096 
Q 3566 2609 3566 1747 
Q 3566 888 3137 398 
Q 2709 -91 1959 -91 
Q 1206 -91 779 398 
Q 353 888 353 1747 
Q 353 2609 779 3096 
Q 1206 3584 1959 3584 
z
" transform="scale(0.015625)"/>
       <path id="DejaVuSans-f3" d="M 1959 3097 
Q 1497 3097 1228 2736 
Q 959 2375 959 1747 
Q 959 1119 1226 758 
Q 1494 397 1959 397 
Q 2419 397 2687 759 
Q 2956 1122 2956 1747 
Q 2956 2369 2687 2733 
Q 2419 3097 1959 3097 
z
M 1959 3584 
Q 2709 3584 3137 3096 
Q 3566 2609 3566 1747 
Q 3566 888 3137 398 
Q 2709 -91 1959 -91 
Q 1206 -91 779 398 
Q 353 888 353 1747 
Q 353 2609 779 3096 
Q 1206 3584 1959 3584 
z
M 2394 5119 
L 3016 5119 
L 1998 3944 
L 1519 3944 
L 2394 5119 
z
" transform="scale(0.015625)"/>
       <path id="DejaVuSans-17c" d="M 1378 4863 
L 1953 4863 
L 1953 4134 
L 1378 4134 
L 1378 4863 
z
M 1672 3584 
L 1672 3584 
z
M 353 3500 
L 3084 3500 
L 3084 2975 
L 922 459 
L 3084 459 
L 3084 0 
L 275 0 
L 275 525 
L 2438 3041 
L 353 3041 
L 353 3500 
z
" transform="scale(0.015625)"/>
       <path id="DejaVuSans-6e" d="M 3513 2113 
L 3513 0 
L 2938 0 
L 2938 2094 
Q 2938 2591 2744 2837 
Q 2550 3084 2163 3084 
Q 1697 3084 1428 2787 
Q 1159 2491 1159 1978 
L 1159 0 
L 581 0 
L 581 3500 
L 1159 3500 
L 1159 2956 
Q 1366 3272 1645 3428 
Q 1925 3584 2291 3584 
Q 2894 3584 3203 3211 
Q 3513 2838 3513 2113 
z
" transform="scale(0.015625)"/>
       <path id="DejaVuSans-79" d="M 2059 -325 
Q 1816 -950 1584 -1140 
Q 1353 -1331 966 -1331 
L 506 -1331 
L 506 -850 
L 844 -850 
Q 1081 -850 1212 -737 
Q 1344 -625 1503 -206 
L 1606 56 
L 191 3500 
L 800 3500 
L 1894 763 
L 2988 3500 
L 3597 3500 
L 2059 -325 
z
" transform="scale(0.015625)"/>
       <path id="DejaVuSans-70" d="M 1159 525 
L 1159 -1331 
L 581 -1331 
L 581 3500 
L 1159 3500 
L 1159 2969 
Q 1341 3281 1617 3432 
Q 1894 3584 2278 3584 
Q 2916 3584 3314 3078 
Q 3713 2572 3713 1747 
Q 3713 922 3314 415 
Q 2916 -91 2278 -91 
Q 1894 -91 1617 61 
Q 1341 213 1159 525 
z
M 3116 1747 
Q 3116 2381 2855 2742 
Q 2594 3103 2138 3103 
Q 1681 3103 1420 2742 
Q 1159 2381 1159 1747 
Q 1159 1113 1420 752 
Q 1681 391 2138 391 
Q 2594 391 2855 752 
Q 3116 1113 3116 1747 
z
" transform="scale(0.015625)"/>
       <path id="DejaVuSans-7a" d="M 353 3500 
L 3084 3500 
L 3084 2975 
L 922 459 
L 3084 459 
L 3084 0 
L 275 0 
L 275 525 
L 2438 3041 
L 353 3041 
L 353 3500 
z
" transform="scale(0.015625)"/>
       <path id="DejaVuSans-62" d="M 3116 1747 
Q 3116 2381 2855 2742 
Q 2594 3103 2138 3103 
Q 1681 3103 1420 2742 
Q 1159 2381 1159 1747 
Q 1159 1113 1420 752 
Q 1681 391 2138 391 
Q 2594 391 2855 752 
Q 3116 1113 3116 1747 
z
M 1159 2969 
Q 1341 3281 1617 3432 
Q 1894 3584 2278 3584 
Q 2916 3584 3314 3078 
Q 3713 2572 3713 1747 
Q 3713 922 3314 415 
Q 2916 -91 2278 -91 
Q 1894 -91 1617 61 
Q 1341 213 1159 525 
L 1159 0 
L 581 0 
L 581 4863 
L 1159 4863 
L 1159 2969 
z
" transform="scale(0.015625)"/>
       <path id="DejaVuSans-6c" d="M 603 4863 
L 1178 4863 
L 1178 0 
L 603 0 
L 603 4863 
z
" transform="scale(0.015625)"/>
       <path id="DejaVuSans-64" d="M 2906 2969 
L 2906 4863 
L 3481 4863 
L 3481 0 
L 2906 0 
L 2906 525 
Q 2725 213 2448 61 
Q 2172 -91 1784 -91 
Q 1150 -91 751 415 
Q 353 922 353 1747 
Q 353 2572 751 3078 
Q 1150 3584 1784 3584 
Q 2172 3584 2448 3432 
Q 2725 3281 2906 2969 
z
M 947 1747 
Q 947 1113 1208 752 
Q 1469 391 1925 391 
Q 2381 391 2643 752 
Q 2906 1113 2906 1747 
Q 2906 2381 2643 2742 
Q 2381 3103 1925 3103 
Q 1469 3103 1208 2742 
Q 947 2381 947 1747 
z
" transform="scale(0.015625)"/>
       <path id="DejaVuSans-6b" d="M 581 4863 
L 1159 4863 
L 1159 1991 
L 2875 3500 
L 3609 3500 
L 1753 1863 
L 3688 0 
L 2938 0 
L 1159 1709 
L 1159 0 
L 581 0 
L 581 4863 
z
" transform="scale(0.015625)"/>
       <path id="DejaVuSans-142" d="M 622 4863 
L 1197 4863 
L 1197 2981 
L 1588 3263 
L 1825 2931 
L 1197 2491 
L 1197 0 
L 622 0 
L 622 2081 
L 238 1806 
L 6 2138 
L 622 2578 
L 622 4863 
z
" transform="scale(0.015625)"/>
       <path id="DejaVuSans-67" d="M 2906 1791 
Q 2906 2416 2648 2759 
Q 2391 3103 1925 3103 
Q 1463 3103 1205 2759 
Q 947 2416 947 1791 
Q 947 1169 1205 825 
Q 1463 481 1925 481 
Q 2391 481 2648 825 
Q 2906 1169 2906 1791 
z
M 3481 434 
Q 3481 -459 3084 -895 
Q 2688 -1331 1869 -1331 
Q 1566 -1331 1297 -1286 
Q 1028 -1241 775 -1147 
L 775 -588 
Q 1028 -725 1275 -790 
Q 1522 -856 1778 -856 
Q 2344 -856 2625 -561 
Q 2906 -266 2906 331 
L 2906 616 
Q 2728 306 2450 153 
Q 2172 0 1784 0 
Q 1141 0 747 490 
Q 353 981 353 1791 
Q 353 2603 747 3093 
Q 1141 3584 1784 3584 
Q 2172 3584 2450 3431 
Q 2728 3278 2906 2969 
L 2906 3500 
L 3481 3500 
L 3481 434 
z
" transform="scale(0.015625)"/>
       <path id="DejaVuSans-77" d="M 269 3500 
L 844 3500 
L 1563 769 
L 2278 3500 
L 2956 3500 
L 3675 769 
L 4391 3500 
L 4966 3500 
L 4050 0 
L 3372 0 
L 2619 2869 
L 1863 0 
L 1184 0 
L 269 3500 
z
" transform="scale(0.015625)"/>
       <path id="DejaVuSans-105" d="M 2194 1759 
Q 1497 1759 1228 1600 
Q 959 1441 959 1056 
Q 959 750 1161 570 
Q 1363 391 1709 391 
Q 2188 391 2477 730 
Q 2766 1069 2766 1631 
L 2766 1759 
L 2194 1759 
z
M 3341 1997 
L 3341 0 
L 2766 0 
L 2766 531 
Q 2569 213 2275 61 
Q 1981 -91 1556 -91 
Q 1019 -91 701 211 
Q 384 513 384 1019 
Q 384 1609 779 1909 
Q 1175 2209 1959 2209 
L 2766 2209 
L 2766 2266 
Q 2766 2663 2505 2880 
Q 2244 3097 1772 3097 
Q 1472 3097 1187 3025 
Q 903 2953 641 2809 
L 641 3341 
Q 956 3463 1253 3523 
Q 1550 3584 1831 3584 
Q 2591 3584 2966 3190 
Q 3341 2797 3341 1997 
z
M 2775 0 
L 3147 0 
Q 3006 -191 2939 -328 
Q 2872 -466 2872 -563 
Q 2872 -706 2958 -778 
Q 3044 -850 3213 -850 
Q 3313 -850 3409 -826 
Q 3506 -803 3603 -756 
L 3603 -1172 
Q 3484 -1203 3378 -1218 
Q 3272 -1234 3178 -1234 
Q 2797 -1234 2617 -1098 
Q 2438 -963 2438 -672 
Q 2438 -522 2520 -358 
Q 2603 -194 2775 0 
z
" transform="scale(0.015625)"/>
      </defs>
      <use xlink:href="#DejaVuSans-4e"/>
      <use xlink:href="#DejaVuSans-6f" x="74.804688"/>
      <use xlink:href="#DejaVuSans-72" x="135.986328"/>
      <use xlink:href="#DejaVuSans-6d" x="175.349609"/>
      <use xlink:href="#DejaVuSans-61" x="272.761719"/>
      <use xlink:href="#DejaVuSans-20" x="334.041016"/>
      <use xlink:href="#DejaVuSans-72" x="365.828125"/>
      <use xlink:href="#DejaVuSans-f3" x="404.691406"/>
      <use xlink:href="#DejaVuSans-17c" x="465.873047"/>
      <use xlink:href="#DejaVuSans-6e" x="518.363281"/>
      <use xlink:href="#DejaVuSans-69" x="581.742188"/>
      <use xlink:href="#DejaVuSans-63" x="609.525391"/>
      <use xlink:href="#DejaVuSans-79" x="664.505859"/>
      <use xlink:href="#DejaVuSans-20" x="723.685547"/>
      <use xlink:href="#DejaVuSans-70" x="755.472656"/>
      <use xlink:href="#DejaVuSans-72" x="818.949219"/>
      <use xlink:href="#DejaVuSans-7a" x="860.0625"/>
      <use xlink:href="#DejaVuSans-79" x="912.552734"/>
      <use xlink:href="#DejaVuSans-62" x="971.732422"/>
      <use xlink:href="#DejaVuSans-6c" x="1035.208984"/>
      <use xlink:href="#DejaVuSans-69" x="1062.992188"/>
      <use xlink:href="#DejaVuSans-17c" x="1090.775391"/>
      <use xlink:href="#DejaVuSans-65" x="1143.265625"/>
      <use xlink:href="#DejaVuSans-6e" x="1204.789062"/>
      <use xlink:href="#DejaVuSans-69" x="1268.167969"/>
      <use xlink:href="#DejaVuSans-61" x="1295.951172"/>
      <use xlink:href="#DejaVuSans-20" x="1357.230469"/>
      <use xlink:href="#DejaVuSans-69" x="1389.017578"/>
      <use xlink:href="#DejaVuSans-20" x="1416.800781"/>
      <use xlink:href="#DejaVuSans-64" x="1448.587891"/>
      <use xlink:href="#DejaVuSans-6f" x="1512.064453"/>
      <use xlink:href="#DejaVuSans-6b" x="1573.246094"/>
      <use xlink:href="#DejaVuSans-142" x="1631.15625"/>
      <use xlink:href="#DejaVuSans-61" x="1659.574219"/>
      <use xlink:href="#DejaVuSans-64" x="1720.853516"/>
      <use xlink:href="#DejaVuSans-6e" x="1784.330078"/>
      <use xlink:href="#DejaVuSans-65" x="1847.708984"/>
      <use xlink:href="#DejaVuSans-67" x="1909.232422"/>
      <use xlink:href="#DejaVuSans-6f" x="1972.708984"/>
      <use xlink:href="#DejaVuSans-20" x="2033.890625"/>
      <use xlink:href="#DejaVuSans-72" x="2065.677734"/>
      <use xlink:href="#DejaVuSans-6f" x="2104.541016"/>
      <use xlink:href="#DejaVuSans-7a" x="2165.722656"/>
      <use xlink:href="#DejaVuSans-77" x="2218.212891"/>
      <use xlink:href="#DejaVuSans-69" x="2300"/>
      <use xlink:href="#DejaVuSans-105" x="2327.783203"/>
      <use xlink:href="#DejaVuSans-7a" x="2389.0625"/>
      <use xlink:href="#DejaVuSans-61" x="2441.552734"/>
      <use xlink:href="#DejaVuSans-6e" x="2502.832031"/>
      <use xlink:href="#DejaVuSans-69" x="2566.210938"/>
      <use xlink:href="#DejaVuSans-61" x="2593.994141"/>
     </g>
    </g>
   </g>
   <g id="line2d_12">
    <path d="M 73.832727 53.568 
L 77.44 56.26078 
L 81.047273 58.925224 
L 84.654545 61.581095 
L 88.261818 64.232306 
L 91.869091 66.880463 
L 95.476364 69.526418 
L 99.083636 72.170684 
L 102.690909 74.813604 
L 106.298182 77.455416 
L 109.905455 80.096298 
L 113.512727 82.736382 
L 117.12 85.375774 
L 120.727273 88.014557 
L 124.334545 90.652799 
L 127.941818 93.290557 
L 131.549091 95.927877 
L 135.156364 98.5648 
L 138.763636 101.201359 
L 142.370909 103.837586 
L 145.978182 106.473505 
L 149.585455 109.109139 
L 153.192727 111.744508 
L 156.8 114.379631 
L 160.407273 117.014522 
L 164.014545 119.649196 
L 167.621818 122.283667 
L 171.229091 124.917946 
L 174.836364 127.552042 
L 178.443636 130.185967 
L 182.050909 132.819729 
L 185.658182 135.453336 
L 189.265455 138.086796 
L 192.872727 140.720115 
L 196.48 143.353299 
L 200.087273 145.986356 
L 203.694545 148.619289 
L 207.301818 151.252106 
L 210.909091 153.884809 
L 214.516364 156.517404 
L 218.123636 159.149894 
L 221.730909 161.782285 
L 225.338182 164.414579 
L 228.945455 167.046779 
L 232.552727 169.67889 
L 236.16 172.310915 
L 239.767273 174.942855 
L 243.374545 177.574715 
L 246.981818 180.206496 
L 250.589091 182.838201 
L 254.196364 185.469832 
L 257.803636 188.101393 
L 261.410909 190.732884 
L 265.018182 193.364307 
L 268.625455 195.995666 
L 272.232727 198.626961 
L 275.84 201.258195 
L 279.447273 203.889368 
L 283.054545 206.520483 
L 286.661818 209.151542 
L 290.269091 211.782545 
L 293.876364 214.413494 
L 297.483636 217.044391 
L 301.090909 219.675236 
L 304.698182 222.306032 
L 308.305455 224.936778 
L 311.912727 227.567477 
L 315.52 230.19813 
L 319.127273 232.828737 
L 322.734545 235.4593 
L 326.341818 238.089819 
L 329.949091 240.720296 
L 333.556364 243.350731 
L 337.163636 245.981125 
L 340.770909 248.61148 
L 344.378182 251.241796 
L 347.985455 253.872074 
L 351.592727 256.502314 
L 355.2 259.132518 
L 358.807273 261.762685 
L 362.414545 264.392818 
L 366.021818 267.022916 
L 369.629091 269.652981 
L 373.236364 272.283012 
L 376.843636 274.913011 
L 380.450909 277.542978 
L 384.058182 280.172913 
L 387.665455 282.802818 
L 391.272727 285.432692 
L 394.88 288.062537 
L 398.487273 290.692353 
" clip-path="url(#pcceb8cb1ab)" style="fill: none; stroke: #1f77b4; stroke-width: 1.5; stroke-linecap: square"/>
   </g>
   <g id="line2d_13">
    <path d="M 73.832727 53.568 
L 77.44 66.25526 
L 81.047273 78.978168 
L 84.654545 91.682681 
L 88.261818 104.379357 
L 91.869091 117.047313 
L 95.476364 129.670394 
L 99.083636 142.205752 
L 102.690909 154.588416 
L 106.298182 166.713287 
L 109.905455 178.44848 
L 113.512727 189.675475 
L 117.12 200.355343 
L 120.727273 210.55473 
L 124.334545 220.401058 
L 127.941818 230.019742 
L 131.549091 239.502272 
L 135.156364 248.905763 
L 138.763636 258.262912 
L 142.370909 267.591806 
L 145.978182 276.902338 
L 149.585455 286.200015 
L 153.192727 295.488 
" clip-path="url(#pcceb8cb1ab)" style="fill: none; stroke: #ff7f0e; stroke-width: 1.5; stroke-linecap: square"/>
   </g>
   <g id="patch_3">
    <path d="M 57.6 307.584 
L 57.6 41.472 
" style="fill: none; stroke: #000000; stroke-width: 0.8; stroke-linejoin: miter; stroke-linecap: square"/>
   </g>
   <g id="patch_4">
    <path d="M 414.72 307.584 
L 414.72 41.472 
" style="fill: none; stroke: #000000; stroke-width: 0.8; stroke-linejoin: miter; stroke-linecap: square"/>
   </g>
   <g id="patch_5">
    <path d="M 57.6 307.584 
L 414.72 307.584 
" style="fill: none; stroke: #000000; stroke-width: 0.8; stroke-linejoin: miter; stroke-linecap: square"/>
   </g>
   <g id="patch_6">
    <path d="M 57.6 41.472 
L 414.72 41.472 
" style="fill: none; stroke: #000000; stroke-width: 0.8; stroke-linejoin: miter; stroke-linecap: square"/>
   </g>
   <g id="text_14">
    <!-- Wykres różnicy rozwiązania i przybliżenia od numeru iteracji  -->
    <g transform="translate(52.905937 22.034625) scale(0.12 -0.12)">
     <defs>
      <path id="DejaVuSans-57" d="M 213 4666 
L 850 4666 
L 1831 722 
L 2809 4666 
L 3519 4666 
L 4500 722 
L 5478 4666 
L 6119 4666 
L 4947 0 
L 4153 0 
L 3169 4050 
L 2175 0 
L 1381 0 
L 213 4666 
z
" transform="scale(0.015625)"/>
      <path id="DejaVuSans-73" d="M 2834 3397 
L 2834 2853 
Q 2591 2978 2328 3040 
Q 2066 3103 1784 3103 
Q 1356 3103 1142 2972 
Q 928 2841 928 2578 
Q 928 2378 1081 2264 
Q 1234 2150 1697 2047 
L 1894 2003 
Q 2506 1872 2764 1633 
Q 3022 1394 3022 966 
Q 3022 478 2636 193 
Q 2250 -91 1575 -91 
Q 1294 -91 989 -36 
Q 684 19 347 128 
L 347 722 
Q 666 556 975 473 
Q 1284 391 1588 391 
Q 1994 391 2212 530 
Q 2431 669 2431 922 
Q 2431 1156 2273 1281 
Q 2116 1406 1581 1522 
L 1381 1569 
Q 847 1681 609 1914 
Q 372 2147 372 2553 
Q 372 3047 722 3315 
Q 1072 3584 1716 3584 
Q 2034 3584 2315 3537 
Q 2597 3491 2834 3397 
z
" transform="scale(0.015625)"/>
     </defs>
     <use xlink:href="#DejaVuSans-57"/>
     <use xlink:href="#DejaVuSans-79" x="97.126953"/>
     <use xlink:href="#DejaVuSans-6b" x="156.306641"/>
     <use xlink:href="#DejaVuSans-72" x="214.216797"/>
     <use xlink:href="#DejaVuSans-65" x="253.080078"/>
     <use xlink:href="#DejaVuSans-73" x="314.603516"/>
     <use xlink:href="#DejaVuSans-20" x="366.703125"/>
     <use xlink:href="#DejaVuSans-72" x="398.490234"/>
     <use xlink:href="#DejaVuSans-f3" x="437.353516"/>
     <use xlink:href="#DejaVuSans-17c" x="498.535156"/>
     <use xlink:href="#DejaVuSans-6e" x="551.025391"/>
     <use xlink:href="#DejaVuSans-69" x="614.404297"/>
     <use xlink:href="#DejaVuSans-63" x="642.1875"/>
     <use xlink:href="#DejaVuSans-79" x="697.167969"/>
     <use xlink:href="#DejaVuSans-20" x="756.347656"/>
     <use xlink:href="#DejaVuSans-72" x="788.134766"/>
     <use xlink:href="#DejaVuSans-6f" x="826.998047"/>
     <use xlink:href="#DejaVuSans-7a" x="888.179688"/>
     <use xlink:href="#DejaVuSans-77" x="940.669922"/>
     <use xlink:href="#DejaVuSans-69" x="1022.457031"/>
     <use xlink:href="#DejaVuSans-105" x="1050.240234"/>
     <use xlink:href="#DejaVuSans-7a" x="1111.519531"/>
     <use xlink:href="#DejaVuSans-61" x="1164.009766"/>
     <use xlink:href="#DejaVuSans-6e" x="1225.289062"/>
     <use xlink:href="#DejaVuSans-69" x="1288.667969"/>
     <use xlink:href="#DejaVuSans-61" x="1316.451172"/>
     <use xlink:href="#DejaVuSans-20" x="1377.730469"/>
     <use xlink:href="#DejaVuSans-69" x="1409.517578"/>
     <use xlink:href="#DejaVuSans-20" x="1437.300781"/>
     <use xlink:href="#DejaVuSans-70" x="1469.087891"/>
     <use xlink:href="#DejaVuSans-72" x="1532.564453"/>
     <use xlink:href="#DejaVuSans-7a" x="1573.677734"/>
     <use xlink:href="#DejaVuSans-79" x="1626.167969"/>
     <use xlink:href="#DejaVuSans-62" x="1685.347656"/>
     <use xlink:href="#DejaVuSans-6c" x="1748.824219"/>
     <use xlink:href="#DejaVuSans-69" x="1776.607422"/>
     <use xlink:href="#DejaVuSans-17c" x="1804.390625"/>
     <use xlink:href="#DejaVuSans-65" x="1856.880859"/>
     <use xlink:href="#DejaVuSans-6e" x="1918.404297"/>
     <use xlink:href="#DejaVuSans-69" x="1981.783203"/>
     <use xlink:href="#DejaVuSans-61" x="2009.566406"/>
     <use xlink:href="#DejaVuSans-20" x="2070.845703"/>
     <use xlink:href="#DejaVuSans-6f" x="2102.632812"/>
     <use xlink:href="#DejaVuSans-64" x="2163.814453"/>
     <use xlink:href="#DejaVuSans-20" x="2227.291016"/>
     <use xlink:href="#DejaVuSans-6e" x="2259.078125"/>
     <use xlink:href="#DejaVuSans-75" x="2322.457031"/>
     <use xlink:href="#DejaVuSans-6d" x="2385.835938"/>
     <use xlink:href="#DejaVuSans-65" x="2483.248047"/>
     <use xlink:href="#DejaVuSans-72" x="2544.771484"/>
     <use xlink:href="#DejaVuSans-75" x="2585.884766"/>
     <use xlink:href="#DejaVuSans-20" x="2649.263672"/>
     <use xlink:href="#DejaVuSans-69" x="2681.050781"/>
     <use xlink:href="#DejaVuSans-74" x="2708.833984"/>
     <use xlink:href="#DejaVuSans-65" x="2748.042969"/>
     <use xlink:href="#DejaVuSans-72" x="2809.566406"/>
     <use xlink:href="#DejaVuSans-61" x="2850.679688"/>
     <use xlink:href="#DejaVuSans-63" x="2911.958984"/>
     <use xlink:href="#DejaVuSans-6a" x="2966.939453"/>
     <use xlink:href="#DejaVuSans-69" x="2994.722656"/>
     <use xlink:href="#DejaVuSans-20" x="3022.505859"/>
    </g>
    <!--  dla wektora startowego = (1000, 1000, ..., 1000) -->
    <g transform="translate(86.8275 35.472) scale(0.12 -0.12)">
     <defs>
      <path id="DejaVuSans-3d" d="M 678 2906 
L 4684 2906 
L 4684 2381 
L 678 2381 
L 678 2906 
z
M 678 1631 
L 4684 1631 
L 4684 1100 
L 678 1100 
L 678 1631 
z
" transform="scale(0.015625)"/>
      <path id="DejaVuSans-28" d="M 1984 4856 
Q 1566 4138 1362 3434 
Q 1159 2731 1159 2009 
Q 1159 1288 1364 580 
Q 1569 -128 1984 -844 
L 1484 -844 
Q 1016 -109 783 600 
Q 550 1309 550 2009 
Q 550 2706 781 3412 
Q 1013 4119 1484 4856 
L 1984 4856 
z
" transform="scale(0.015625)"/>
      <path id="DejaVuSans-2c" d="M 750 794 
L 1409 794 
L 1409 256 
L 897 -744 
L 494 -744 
L 750 256 
L 750 794 
z
" transform="scale(0.015625)"/>
      <path id="DejaVuSans-2e" d="M 684 794 
L 1344 794 
L 1344 0 
L 684 0 
L 684 794 
z
" transform="scale(0.015625)"/>
      <path id="DejaVuSans-29" d="M 513 4856 
L 1013 4856 
Q 1481 4119 1714 3412 
Q 1947 2706 1947 2009 
Q 1947 1309 1714 600 
Q 1481 -109 1013 -844 
L 513 -844 
Q 928 -128 1133 580 
Q 1338 1288 1338 2009 
Q 1338 2731 1133 3434 
Q 928 4138 513 4856 
z
" transform="scale(0.015625)"/>
     </defs>
     <use xlink:href="#DejaVuSans-20"/>
     <use xlink:href="#DejaVuSans-64" x="31.787109"/>
     <use xlink:href="#DejaVuSans-6c" x="95.263672"/>
     <use xlink:href="#DejaVuSans-61" x="123.046875"/>
     <use xlink:href="#DejaVuSans-20" x="184.326172"/>
     <use xlink:href="#DejaVuSans-77" x="216.113281"/>
     <use xlink:href="#DejaVuSans-65" x="297.900391"/>
     <use xlink:href="#DejaVuSans-6b" x="359.423828"/>
     <use xlink:href="#DejaVuSans-74" x="417.333984"/>
     <use xlink:href="#DejaVuSans-6f" x="456.542969"/>
     <use xlink:href="#DejaVuSans-72" x="517.724609"/>
     <use xlink:href="#DejaVuSans-61" x="558.837891"/>
     <use xlink:href="#DejaVuSans-20" x="620.117188"/>
     <use xlink:href="#DejaVuSans-73" x="651.904297"/>
     <use xlink:href="#DejaVuSans-74" x="704.003906"/>
     <use xlink:href="#DejaVuSans-61" x="743.212891"/>
     <use xlink:href="#DejaVuSans-72" x="804.492188"/>
     <use xlink:href="#DejaVuSans-74" x="845.605469"/>
     <use xlink:href="#DejaVuSans-6f" x="884.814453"/>
     <use xlink:href="#DejaVuSans-77" x="945.996094"/>
     <use xlink:href="#DejaVuSans-65" x="1027.783203"/>
     <use xlink:href="#DejaVuSans-67" x="1089.306641"/>
     <use xlink:href="#DejaVuSans-6f" x="1152.783203"/>
     <use xlink:href="#DejaVuSans-20" x="1213.964844"/>
     <use xlink:href="#DejaVuSans-3d" x="1245.751953"/>
     <use xlink:href="#DejaVuSans-20" x="1329.541016"/>
     <use xlink:href="#DejaVuSans-28" x="1361.328125"/>
     <use xlink:href="#DejaVuSans-31" x="1400.341797"/>
     <use xlink:href="#DejaVuSans-30" x="1463.964844"/>
     <use xlink:href="#DejaVuSans-30" x="1527.587891"/>
     <use xlink:href="#DejaVuSans-30" x="1591.210938"/>
     <use xlink:href="#DejaVuSans-2c" x="1654.833984"/>
     <use xlink:href="#DejaVuSans-20" x="1686.621094"/>
     <use xlink:href="#DejaVuSans-31" x="1718.408203"/>
     <use xlink:href="#DejaVuSans-30" x="1782.03125"/>
     <use xlink:href="#DejaVuSans-30" x="1845.654297"/>
     <use xlink:href="#DejaVuSans-30" x="1909.277344"/>
     <use xlink:href="#DejaVuSans-2c" x="1972.900391"/>
     <use xlink:href="#DejaVuSans-20" x="2004.6875"/>
     <use xlink:href="#DejaVuSans-2e" x="2036.474609"/>
     <use xlink:href="#DejaVuSans-2e" x="2068.261719"/>
     <use xlink:href="#DejaVuSans-2e" x="2100.048828"/>
     <use xlink:href="#DejaVuSans-2c" x="2131.835938"/>
     <use xlink:href="#DejaVuSans-20" x="2163.623047"/>
     <use xlink:href="#DejaVuSans-31" x="2195.410156"/>
     <use xlink:href="#DejaVuSans-30" x="2259.033203"/>
     <use xlink:href="#DejaVuSans-30" x="2322.65625"/>
     <use xlink:href="#DejaVuSans-30" x="2386.279297"/>
     <use xlink:href="#DejaVuSans-29" x="2449.902344"/>
    </g>
   </g>
   <g id="legend_1">
    <g id="patch_7">
     <path d="M 285.690313 78.82825 
L 407.72 78.82825 
Q 409.72 78.82825 409.72 76.82825 
L 409.72 48.472 
Q 409.72 46.472 407.72 46.472 
L 285.690313 46.472 
Q 283.690313 46.472 283.690313 48.472 
L 283.690313 76.82825 
Q 283.690313 78.82825 285.690313 78.82825 
z
" style="fill: #ffffff; opacity: 0.8; stroke: #cccccc; stroke-linejoin: miter"/>
    </g>
    <g id="line2d_14">
     <path d="M 287.690313 54.570437 
L 297.690313 54.570437 
L 307.690313 54.570437 
" style="fill: none; stroke: #1f77b4; stroke-width: 1.5; stroke-linecap: square"/>
    </g>
    <g id="text_15">
     <!-- metoda Jacobiego -->
     <g transform="translate(315.690313 58.070437) scale(0.1 -0.1)">
      <defs>
       <path id="DejaVuSans-4a" d="M 628 4666 
L 1259 4666 
L 1259 325 
Q 1259 -519 939 -900 
Q 619 -1281 -91 -1281 
L -331 -1281 
L -331 -750 
L -134 -750 
Q 284 -750 456 -515 
Q 628 -281 628 325 
L 628 4666 
z
" transform="scale(0.015625)"/>
      </defs>
      <use xlink:href="#DejaVuSans-6d"/>
      <use xlink:href="#DejaVuSans-65" x="97.412109"/>
      <use xlink:href="#DejaVuSans-74" x="158.935547"/>
      <use xlink:href="#DejaVuSans-6f" x="198.144531"/>
      <use xlink:href="#DejaVuSans-64" x="259.326172"/>
      <use xlink:href="#DejaVuSans-61" x="322.802734"/>
      <use xlink:href="#DejaVuSans-20" x="384.082031"/>
      <use xlink:href="#DejaVuSans-4a" x="415.869141"/>
      <use xlink:href="#DejaVuSans-61" x="445.361328"/>
      <use xlink:href="#DejaVuSans-63" x="506.640625"/>
      <use xlink:href="#DejaVuSans-6f" x="561.621094"/>
      <use xlink:href="#DejaVuSans-62" x="622.802734"/>
      <use xlink:href="#DejaVuSans-69" x="686.279297"/>
      <use xlink:href="#DejaVuSans-65" x="714.0625"/>
      <use xlink:href="#DejaVuSans-67" x="775.585938"/>
      <use xlink:href="#DejaVuSans-6f" x="839.0625"/>
     </g>
    </g>
    <g id="line2d_15">
     <path d="M 287.690313 69.248562 
L 297.690313 69.248562 
L 307.690313 69.248562 
" style="fill: none; stroke: #ff7f0e; stroke-width: 1.5; stroke-linecap: square"/>
    </g>
    <g id="text_16">
     <!-- metoda Gaussa -->
     <g transform="translate(315.690313 72.748562) scale(0.1 -0.1)">
      <defs>
       <path id="DejaVuSans-47" d="M 3809 666 
L 3809 1919 
L 2778 1919 
L 2778 2438 
L 4434 2438 
L 4434 434 
Q 4069 175 3628 42 
Q 3188 -91 2688 -91 
Q 1594 -91 976 548 
Q 359 1188 359 2328 
Q 359 3472 976 4111 
Q 1594 4750 2688 4750 
Q 3144 4750 3555 4637 
Q 3966 4525 4313 4306 
L 4313 3634 
Q 3963 3931 3569 4081 
Q 3175 4231 2741 4231 
Q 1884 4231 1454 3753 
Q 1025 3275 1025 2328 
Q 1025 1384 1454 906 
Q 1884 428 2741 428 
Q 3075 428 3337 486 
Q 3600 544 3809 666 
z
" transform="scale(0.015625)"/>
      </defs>
      <use xlink:href="#DejaVuSans-6d"/>
      <use xlink:href="#DejaVuSans-65" x="97.412109"/>
      <use xlink:href="#DejaVuSans-74" x="158.935547"/>
      <use xlink:href="#DejaVuSans-6f" x="198.144531"/>
      <use xlink:href="#DejaVuSans-64" x="259.326172"/>
      <use xlink:href="#DejaVuSans-61" x="322.802734"/>
      <use xlink:href="#DejaVuSans-20" x="384.082031"/>
      <use xlink:href="#DejaVuSans-47" x="415.869141"/>
      <use xlink:href="#DejaVuSans-61" x="493.359375"/>
      <use xlink:href="#DejaVuSans-75" x="554.638672"/>
      <use xlink:href="#DejaVuSans-73" x="618.017578"/>
      <use xlink:href="#DejaVuSans-73" x="670.117188"/>
      <use xlink:href="#DejaVuSans-61" x="722.216797"/>
     </g>
    </g>
   </g>
  </g>
 </g>
 <defs>
  <clipPath id="pcceb8cb1ab">
   <rect x="57.6" y="41.472" width="357.12" height="266.112"/>
  </clipPath>
 </defs>
</svg>
