<?xml version="1.0" encoding="utf-8" standalone="no"?>
<!DOCTYPE svg PUBLIC "-//W3C//DTD SVG 1.1//EN"
  "http://www.w3.org/Graphics/SVG/1.1/DTD/svg11.dtd">
<svg xmlns:xlink="http://www.w3.org/1999/xlink" width="460.8pt" height="345.6pt" viewBox="0 0 460.8 345.6" xmlns="http://www.w3.org/2000/svg" version="1.1">
 <metadata>
  <rdf:RDF xmlns:dc="http://purl.org/dc/elements/1.1/" xmlns:cc="http://creativecommons.org/ns#" xmlns:rdf="http://www.w3.org/1999/02/22-rdf-syntax-ns#">
   <cc:Work>
    <dc:type rdf:resource="http://purl.org/dc/dcmitype/StillImage"/>
    <dc:date>2023-12-03T19:38:01.339838</dc:date>
    <dc:format>image/svg+xml</dc:format>
    <dc:creator>
     <cc:Agent>
      <dc:title>Matplotlib v3.8.0, https://matplotlib.org/</dc:title>
     </cc:Agent>
    </dc:creator>
   </cc:Work>
  </rdf:RDF>
 </metadata>
 <defs>
  <style type="text/css">*{stroke-linejoin: round; stroke-linecap: butt}</style>
 </defs>
 <g id="figure_1">
  <g id="patch_1">
   <path d="M 0 345.6 
L 460.8 345.6 
L 460.8 0 
L 0 0 
z
" style="fill: #ffffff"/>
  </g>
  <g id="axes_1">
   <g id="patch_2">
    <path d="M 57.6 307.584 
L 414.72 307.584 
L 414.72 41.472 
L 57.6 41.472 
z
" style="fill: #ffffff"/>
   </g>
   <g id="matplotlib.axis_1">
    <g id="xtick_1">
     <g id="line2d_1">
      <defs>
       <path id="m7ea283854d" d="M 0 0 
L 0 3.5 
" style="stroke: #000000; stroke-width: 0.8"/>
      </defs>
      <g>
       <use xlink:href="#m7ea283854d" x="73.832727" y="307.584" style="stroke: #000000; stroke-width: 0.8"/>
      </g>
     </g>
     <g id="text_1">
      <!-- 0 -->
      <g transform="translate(70.651477 322.182437) scale(0.1 -0.1)">
       <defs>
        <path id="DejaVuSans-30" d="M 2034 4250 
Q 1547 4250 1301 3770 
Q 1056 3291 1056 2328 
Q 1056 1369 1301 889 
Q 1547 409 2034 409 
Q 2525 409 2770 889 
Q 3016 1369 3016 2328 
Q 3016 3291 2770 3770 
Q 2525 4250 2034 4250 
z
M 2034 4750 
Q 2819 4750 3233 4129 
Q 3647 3509 3647 2328 
Q 3647 1150 3233 529 
Q 2819 -91 2034 -91 
Q 1250 -91 836 529 
Q 422 1150 422 2328 
Q 422 3509 836 4129 
Q 1250 4750 2034 4750 
z
" transform="scale(0.015625)"/>
       </defs>
       <use xlink:href="#DejaVuSans-30"/>
      </g>
     </g>
    </g>
    <g id="xtick_2">
     <g id="line2d_2">
      <g>
       <use xlink:href="#m7ea283854d" x="138.763636" y="307.584" style="stroke: #000000; stroke-width: 0.8"/>
      </g>
     </g>
     <g id="text_2">
      <!-- 20 -->
      <g transform="translate(132.401136 322.182437) scale(0.1 -0.1)">
       <defs>
        <path id="DejaVuSans-32" d="M 1228 531 
L 3431 531 
L 3431 0 
L 469 0 
L 469 531 
Q 828 903 1448 1529 
Q 2069 2156 2228 2338 
Q 2531 2678 2651 2914 
Q 2772 3150 2772 3378 
Q 2772 3750 2511 3984 
Q 2250 4219 1831 4219 
Q 1534 4219 1204 4116 
Q 875 4013 500 3803 
L 500 4441 
Q 881 4594 1212 4672 
Q 1544 4750 1819 4750 
Q 2544 4750 2975 4387 
Q 3406 4025 3406 3419 
Q 3406 3131 3298 2873 
Q 3191 2616 2906 2266 
Q 2828 2175 2409 1742 
Q 1991 1309 1228 531 
z
" transform="scale(0.015625)"/>
       </defs>
       <use xlink:href="#DejaVuSans-32"/>
       <use xlink:href="#DejaVuSans-30" x="63.623047"/>
      </g>
     </g>
    </g>
    <g id="xtick_3">
     <g id="line2d_3">
      <g>
       <use xlink:href="#m7ea283854d" x="203.694545" y="307.584" style="stroke: #000000; stroke-width: 0.8"/>
      </g>
     </g>
     <g id="text_3">
      <!-- 40 -->
      <g transform="translate(197.332045 322.182437) scale(0.1 -0.1)">
       <defs>
        <path id="DejaVuSans-34" d="M 2419 4116 
L 825 1625 
L 2419 1625 
L 2419 4116 
z
M 2253 4666 
L 3047 4666 
L 3047 1625 
L 3713 1625 
L 3713 1100 
L 3047 1100 
L 3047 0 
L 2419 0 
L 2419 1100 
L 313 1100 
L 313 1709 
L 2253 4666 
z
" transform="scale(0.015625)"/>
       </defs>
       <use xlink:href="#DejaVuSans-34"/>
       <use xlink:href="#DejaVuSans-30" x="63.623047"/>
      </g>
     </g>
    </g>
    <g id="xtick_4">
     <g id="line2d_4">
      <g>
       <use xlink:href="#m7ea283854d" x="268.625455" y="307.584" style="stroke: #000000; stroke-width: 0.8"/>
      </g>
     </g>
     <g id="text_4">
      <!-- 60 -->
      <g transform="translate(262.262955 322.182437) scale(0.1 -0.1)">
       <defs>
        <path id="DejaVuSans-36" d="M 2113 2584 
Q 1688 2584 1439 2293 
Q 1191 2003 1191 1497 
Q 1191 994 1439 701 
Q 1688 409 2113 409 
Q 2538 409 2786 701 
Q 3034 994 3034 1497 
Q 3034 2003 2786 2293 
Q 2538 2584 2113 2584 
z
M 3366 4563 
L 3366 3988 
Q 3128 4100 2886 4159 
Q 2644 4219 2406 4219 
Q 1781 4219 1451 3797 
Q 1122 3375 1075 2522 
Q 1259 2794 1537 2939 
Q 1816 3084 2150 3084 
Q 2853 3084 3261 2657 
Q 3669 2231 3669 1497 
Q 3669 778 3244 343 
Q 2819 -91 2113 -91 
Q 1303 -91 875 529 
Q 447 1150 447 2328 
Q 447 3434 972 4092 
Q 1497 4750 2381 4750 
Q 2619 4750 2861 4703 
Q 3103 4656 3366 4563 
z
" transform="scale(0.015625)"/>
       </defs>
       <use xlink:href="#DejaVuSans-36"/>
       <use xlink:href="#DejaVuSans-30" x="63.623047"/>
      </g>
     </g>
    </g>
    <g id="xtick_5">
     <g id="line2d_5">
      <g>
       <use xlink:href="#m7ea283854d" x="333.556364" y="307.584" style="stroke: #000000; stroke-width: 0.8"/>
      </g>
     </g>
     <g id="text_5">
      <!-- 80 -->
      <g transform="translate(327.193864 322.182437) scale(0.1 -0.1)">
       <defs>
        <path id="DejaVuSans-38" d="M 2034 2216 
Q 1584 2216 1326 1975 
Q 1069 1734 1069 1313 
Q 1069 891 1326 650 
Q 1584 409 2034 409 
Q 2484 409 2743 651 
Q 3003 894 3003 1313 
Q 3003 1734 2745 1975 
Q 2488 2216 2034 2216 
z
M 1403 2484 
Q 997 2584 770 2862 
Q 544 3141 544 3541 
Q 544 4100 942 4425 
Q 1341 4750 2034 4750 
Q 2731 4750 3128 4425 
Q 3525 4100 3525 3541 
Q 3525 3141 3298 2862 
Q 3072 2584 2669 2484 
Q 3125 2378 3379 2068 
Q 3634 1759 3634 1313 
Q 3634 634 3220 271 
Q 2806 -91 2034 -91 
Q 1263 -91 848 271 
Q 434 634 434 1313 
Q 434 1759 690 2068 
Q 947 2378 1403 2484 
z
M 1172 3481 
Q 1172 3119 1398 2916 
Q 1625 2713 2034 2713 
Q 2441 2713 2670 2916 
Q 2900 3119 2900 3481 
Q 2900 3844 2670 4047 
Q 2441 4250 2034 4250 
Q 1625 4250 1398 4047 
Q 1172 3844 1172 3481 
z
" transform="scale(0.015625)"/>
       </defs>
       <use xlink:href="#DejaVuSans-38"/>
       <use xlink:href="#DejaVuSans-30" x="63.623047"/>
      </g>
     </g>
    </g>
    <g id="xtick_6">
     <g id="line2d_6">
      <g>
       <use xlink:href="#m7ea283854d" x="398.487273" y="307.584" style="stroke: #000000; stroke-width: 0.8"/>
      </g>
     </g>
     <g id="text_6">
      <!-- 100 -->
      <g transform="translate(388.943523 322.182437) scale(0.1 -0.1)">
       <defs>
        <path id="DejaVuSans-31" d="M 794 531 
L 1825 531 
L 1825 4091 
L 703 3866 
L 703 4441 
L 1819 4666 
L 2450 4666 
L 2450 531 
L 3481 531 
L 3481 0 
L 794 0 
L 794 531 
z
" transform="scale(0.015625)"/>
       </defs>
       <use xlink:href="#DejaVuSans-31"/>
       <use xlink:href="#DejaVuSans-30" x="63.623047"/>
       <use xlink:href="#DejaVuSans-30" x="127.246094"/>
      </g>
     </g>
    </g>
    <g id="text_7">
     <!-- Numer iteracji -->
     <g transform="translate(200.586562 335.860562) scale(0.1 -0.1)">
      <defs>
       <path id="DejaVuSans-4e" d="M 628 4666 
L 1478 4666 
L 3547 763 
L 3547 4666 
L 4159 4666 
L 4159 0 
L 3309 0 
L 1241 3903 
L 1241 0 
L 628 0 
L 628 4666 
z
" transform="scale(0.015625)"/>
       <path id="DejaVuSans-75" d="M 544 1381 
L 544 3500 
L 1119 3500 
L 1119 1403 
Q 1119 906 1312 657 
Q 1506 409 1894 409 
Q 2359 409 2629 706 
Q 2900 1003 2900 1516 
L 2900 3500 
L 3475 3500 
L 3475 0 
L 2900 0 
L 2900 538 
Q 2691 219 2414 64 
Q 2138 -91 1772 -91 
Q 1169 -91 856 284 
Q 544 659 544 1381 
z
M 1991 3584 
L 1991 3584 
z
" transform="scale(0.015625)"/>
       <path id="DejaVuSans-6d" d="M 3328 2828 
Q 3544 3216 3844 3400 
Q 4144 3584 4550 3584 
Q 5097 3584 5394 3201 
Q 5691 2819 5691 2113 
L 5691 0 
L 5113 0 
L 5113 2094 
Q 5113 2597 4934 2840 
Q 4756 3084 4391 3084 
Q 3944 3084 3684 2787 
Q 3425 2491 3425 1978 
L 3425 0 
L 2847 0 
L 2847 2094 
Q 2847 2600 2669 2842 
Q 2491 3084 2119 3084 
Q 1678 3084 1418 2786 
Q 1159 2488 1159 1978 
L 1159 0 
L 581 0 
L 581 3500 
L 1159 3500 
L 1159 2956 
Q 1356 3278 1631 3431 
Q 1906 3584 2284 3584 
Q 2666 3584 2933 3390 
Q 3200 3197 3328 2828 
z
" transform="scale(0.015625)"/>
       <path id="DejaVuSans-65" d="M 3597 1894 
L 3597 1613 
L 953 1613 
Q 991 1019 1311 708 
Q 1631 397 2203 397 
Q 2534 397 2845 478 
Q 3156 559 3463 722 
L 3463 178 
Q 3153 47 2828 -22 
Q 2503 -91 2169 -91 
Q 1331 -91 842 396 
Q 353 884 353 1716 
Q 353 2575 817 3079 
Q 1281 3584 2069 3584 
Q 2775 3584 3186 3129 
Q 3597 2675 3597 1894 
z
M 3022 2063 
Q 3016 2534 2758 2815 
Q 2500 3097 2075 3097 
Q 1594 3097 1305 2825 
Q 1016 2553 972 2059 
L 3022 2063 
z
" transform="scale(0.015625)"/>
       <path id="DejaVuSans-72" d="M 2631 2963 
Q 2534 3019 2420 3045 
Q 2306 3072 2169 3072 
Q 1681 3072 1420 2755 
Q 1159 2438 1159 1844 
L 1159 0 
L 581 0 
L 581 3500 
L 1159 3500 
L 1159 2956 
Q 1341 3275 1631 3429 
Q 1922 3584 2338 3584 
Q 2397 3584 2469 3576 
Q 2541 3569 2628 3553 
L 2631 2963 
z
" transform="scale(0.015625)"/>
       <path id="DejaVuSans-20" transform="scale(0.015625)"/>
       <path id="DejaVuSans-69" d="M 603 3500 
L 1178 3500 
L 1178 0 
L 603 0 
L 603 3500 
z
M 603 4863 
L 1178 4863 
L 1178 4134 
L 603 4134 
L 603 4863 
z
" transform="scale(0.015625)"/>
       <path id="DejaVuSans-74" d="M 1172 4494 
L 1172 3500 
L 2356 3500 
L 2356 3053 
L 1172 3053 
L 1172 1153 
Q 1172 725 1289 603 
Q 1406 481 1766 481 
L 2356 481 
L 2356 0 
L 1766 0 
Q 1100 0 847 248 
Q 594 497 594 1153 
L 594 3053 
L 172 3053 
L 172 3500 
L 594 3500 
L 594 4494 
L 1172 4494 
z
" transform="scale(0.015625)"/>
       <path id="DejaVuSans-61" d="M 2194 1759 
Q 1497 1759 1228 1600 
Q 959 1441 959 1056 
Q 959 750 1161 570 
Q 1363 391 1709 391 
Q 2188 391 2477 730 
Q 2766 1069 2766 1631 
L 2766 1759 
L 2194 1759 
z
M 3341 1997 
L 3341 0 
L 2766 0 
L 2766 531 
Q 2569 213 2275 61 
Q 1981 -91 1556 -91 
Q 1019 -91 701 211 
Q 384 513 384 1019 
Q 384 1609 779 1909 
Q 1175 2209 1959 2209 
L 2766 2209 
L 2766 2266 
Q 2766 2663 2505 2880 
Q 2244 3097 1772 3097 
Q 1472 3097 1187 3025 
Q 903 2953 641 2809 
L 641 3341 
Q 956 3463 1253 3523 
Q 1550 3584 1831 3584 
Q 2591 3584 2966 3190 
Q 3341 2797 3341 1997 
z
" transform="scale(0.015625)"/>
       <path id="DejaVuSans-63" d="M 3122 3366 
L 3122 2828 
Q 2878 2963 2633 3030 
Q 2388 3097 2138 3097 
Q 1578 3097 1268 2742 
Q 959 2388 959 1747 
Q 959 1106 1268 751 
Q 1578 397 2138 397 
Q 2388 397 2633 464 
Q 2878 531 3122 666 
L 3122 134 
Q 2881 22 2623 -34 
Q 2366 -91 2075 -91 
Q 1284 -91 818 406 
Q 353 903 353 1747 
Q 353 2603 823 3093 
Q 1294 3584 2113 3584 
Q 2378 3584 2631 3529 
Q 2884 3475 3122 3366 
z
" transform="scale(0.015625)"/>
       <path id="DejaVuSans-6a" d="M 603 3500 
L 1178 3500 
L 1178 -63 
Q 1178 -731 923 -1031 
Q 669 -1331 103 -1331 
L -116 -1331 
L -116 -844 
L 38 -844 
Q 366 -844 484 -692 
Q 603 -541 603 -63 
L 603 3500 
z
M 603 4863 
L 1178 4863 
L 1178 4134 
L 603 4134 
L 603 4863 
z
" transform="scale(0.015625)"/>
      </defs>
      <use xlink:href="#DejaVuSans-4e"/>
      <use xlink:href="#DejaVuSans-75" x="74.804688"/>
      <use xlink:href="#DejaVuSans-6d" x="138.183594"/>
      <use xlink:href="#DejaVuSans-65" x="235.595703"/>
      <use xlink:href="#DejaVuSans-72" x="297.119141"/>
      <use xlink:href="#DejaVuSans-20" x="338.232422"/>
      <use xlink:href="#DejaVuSans-69" x="370.019531"/>
      <use xlink:href="#DejaVuSans-74" x="397.802734"/>
      <use xlink:href="#DejaVuSans-65" x="437.011719"/>
      <use xlink:href="#DejaVuSans-72" x="498.535156"/>
      <use xlink:href="#DejaVuSans-61" x="539.648438"/>
      <use xlink:href="#DejaVuSans-63" x="600.927734"/>
      <use xlink:href="#DejaVuSans-6a" x="655.908203"/>
      <use xlink:href="#DejaVuSans-69" x="683.691406"/>
     </g>
    </g>
   </g>
   <g id="matplotlib.axis_2">
    <g id="ytick_1">
     <g id="line2d_7">
      <defs>
       <path id="mca75402442" d="M 0 0 
L -3.5 0 
" style="stroke: #000000; stroke-width: 0.8"/>
      </defs>
      <g>
       <use xlink:href="#mca75402442" x="57.6" y="290.096484" style="stroke: #000000; stroke-width: 0.8"/>
      </g>
     </g>
     <g id="text_8">
      <!-- $\mathdefault{10^{-15}}$ -->
      <g transform="translate(22.7 293.895703) scale(0.1 -0.1)">
       <defs>
        <path id="DejaVuSans-2212" d="M 678 2272 
L 4684 2272 
L 4684 1741 
L 678 1741 
L 678 2272 
z
" transform="scale(0.015625)"/>
        <path id="DejaVuSans-35" d="M 691 4666 
L 3169 4666 
L 3169 4134 
L 1269 4134 
L 1269 2991 
Q 1406 3038 1543 3061 
Q 1681 3084 1819 3084 
Q 2600 3084 3056 2656 
Q 3513 2228 3513 1497 
Q 3513 744 3044 326 
Q 2575 -91 1722 -91 
Q 1428 -91 1123 -41 
Q 819 9 494 109 
L 494 744 
Q 775 591 1075 516 
Q 1375 441 1709 441 
Q 2250 441 2565 725 
Q 2881 1009 2881 1497 
Q 2881 1984 2565 2268 
Q 2250 2553 1709 2553 
Q 1456 2553 1204 2497 
Q 953 2441 691 2322 
L 691 4666 
z
" transform="scale(0.015625)"/>
       </defs>
       <use xlink:href="#DejaVuSans-31" transform="translate(0 0.684375)"/>
       <use xlink:href="#DejaVuSans-30" transform="translate(63.623047 0.684375)"/>
       <use xlink:href="#DejaVuSans-2212" transform="translate(128.203125 38.965625) scale(0.7)"/>
       <use xlink:href="#DejaVuSans-31" transform="translate(186.855469 38.965625) scale(0.7)"/>
       <use xlink:href="#DejaVuSans-35" transform="translate(231.391602 38.965625) scale(0.7)"/>
      </g>
     </g>
    </g>
    <g id="ytick_2">
     <g id="line2d_8">
      <g>
       <use xlink:href="#mca75402442" x="57.6" y="259.508905" style="stroke: #000000; stroke-width: 0.8"/>
      </g>
     </g>
     <g id="text_9">
      <!-- $\mathdefault{10^{-13}}$ -->
      <g transform="translate(22.7 263.308123) scale(0.1 -0.1)">
       <defs>
        <path id="DejaVuSans-33" d="M 2597 2516 
Q 3050 2419 3304 2112 
Q 3559 1806 3559 1356 
Q 3559 666 3084 287 
Q 2609 -91 1734 -91 
Q 1441 -91 1130 -33 
Q 819 25 488 141 
L 488 750 
Q 750 597 1062 519 
Q 1375 441 1716 441 
Q 2309 441 2620 675 
Q 2931 909 2931 1356 
Q 2931 1769 2642 2001 
Q 2353 2234 1838 2234 
L 1294 2234 
L 1294 2753 
L 1863 2753 
Q 2328 2753 2575 2939 
Q 2822 3125 2822 3475 
Q 2822 3834 2567 4026 
Q 2313 4219 1838 4219 
Q 1578 4219 1281 4162 
Q 984 4106 628 3988 
L 628 4550 
Q 988 4650 1302 4700 
Q 1616 4750 1894 4750 
Q 2613 4750 3031 4423 
Q 3450 4097 3450 3541 
Q 3450 3153 3228 2886 
Q 3006 2619 2597 2516 
z
" transform="scale(0.015625)"/>
       </defs>
       <use xlink:href="#DejaVuSans-31" transform="translate(0 0.765625)"/>
       <use xlink:href="#DejaVuSans-30" transform="translate(63.623047 0.765625)"/>
       <use xlink:href="#DejaVuSans-2212" transform="translate(128.203125 39.046875) scale(0.7)"/>
       <use xlink:href="#DejaVuSans-31" transform="translate(186.855469 39.046875) scale(0.7)"/>
       <use xlink:href="#DejaVuSans-33" transform="translate(231.391602 39.046875) scale(0.7)"/>
      </g>
     </g>
    </g>
    <g id="ytick_3">
     <g id="line2d_9">
      <g>
       <use xlink:href="#mca75402442" x="57.6" y="228.921326" style="stroke: #000000; stroke-width: 0.8"/>
      </g>
     </g>
     <g id="text_10">
      <!-- $\mathdefault{10^{-11}}$ -->
      <g transform="translate(22.7 232.720544) scale(0.1 -0.1)">
       <use xlink:href="#DejaVuSans-31" transform="translate(0 0.684375)"/>
       <use xlink:href="#DejaVuSans-30" transform="translate(63.623047 0.684375)"/>
       <use xlink:href="#DejaVuSans-2212" transform="translate(128.203125 38.965625) scale(0.7)"/>
       <use xlink:href="#DejaVuSans-31" transform="translate(186.855469 38.965625) scale(0.7)"/>
       <use xlink:href="#DejaVuSans-31" transform="translate(231.391602 38.965625) scale(0.7)"/>
      </g>
     </g>
    </g>
    <g id="ytick_4">
     <g id="line2d_10">
      <g>
       <use xlink:href="#mca75402442" x="57.6" y="198.333746" style="stroke: #000000; stroke-width: 0.8"/>
      </g>
     </g>
     <g id="text_11">
      <!-- $\mathdefault{10^{-9}}$ -->
      <g transform="translate(27.1 202.132965) scale(0.1 -0.1)">
       <defs>
        <path id="DejaVuSans-39" d="M 703 97 
L 703 672 
Q 941 559 1184 500 
Q 1428 441 1663 441 
Q 2288 441 2617 861 
Q 2947 1281 2994 2138 
Q 2813 1869 2534 1725 
Q 2256 1581 1919 1581 
Q 1219 1581 811 2004 
Q 403 2428 403 3163 
Q 403 3881 828 4315 
Q 1253 4750 1959 4750 
Q 2769 4750 3195 4129 
Q 3622 3509 3622 2328 
Q 3622 1225 3098 567 
Q 2575 -91 1691 -91 
Q 1453 -91 1209 -44 
Q 966 3 703 97 
z
M 1959 2075 
Q 2384 2075 2632 2365 
Q 2881 2656 2881 3163 
Q 2881 3666 2632 3958 
Q 2384 4250 1959 4250 
Q 1534 4250 1286 3958 
Q 1038 3666 1038 3163 
Q 1038 2656 1286 2365 
Q 1534 2075 1959 2075 
z
" transform="scale(0.015625)"/>
       </defs>
       <use xlink:href="#DejaVuSans-31" transform="translate(0 0.765625)"/>
       <use xlink:href="#DejaVuSans-30" transform="translate(63.623047 0.765625)"/>
       <use xlink:href="#DejaVuSans-2212" transform="translate(128.203125 39.046875) scale(0.7)"/>
       <use xlink:href="#DejaVuSans-39" transform="translate(186.855469 39.046875) scale(0.7)"/>
      </g>
     </g>
    </g>
    <g id="ytick_5">
     <g id="line2d_11">
      <g>
       <use xlink:href="#mca75402442" x="57.6" y="167.746167" style="stroke: #000000; stroke-width: 0.8"/>
      </g>
     </g>
     <g id="text_12">
      <!-- $\mathdefault{10^{-7}}$ -->
      <g transform="translate(27.1 171.545386) scale(0.1 -0.1)">
       <defs>
        <path id="DejaVuSans-37" d="M 525 4666 
L 3525 4666 
L 3525 4397 
L 1831 0 
L 1172 0 
L 2766 4134 
L 525 4134 
L 525 4666 
z
" transform="scale(0.015625)"/>
       </defs>
       <use xlink:href="#DejaVuSans-31" transform="translate(0 0.684375)"/>
       <use xlink:href="#DejaVuSans-30" transform="translate(63.623047 0.684375)"/>
       <use xlink:href="#DejaVuSans-2212" transform="translate(128.203125 38.965625) scale(0.7)"/>
       <use xlink:href="#DejaVuSans-37" transform="translate(186.855469 38.965625) scale(0.7)"/>
      </g>
     </g>
    </g>
    <g id="ytick_6">
     <g id="line2d_12">
      <g>
       <use xlink:href="#mca75402442" x="57.6" y="137.158588" style="stroke: #000000; stroke-width: 0.8"/>
      </g>
     </g>
     <g id="text_13">
      <!-- $\mathdefault{10^{-5}}$ -->
      <g transform="translate(27.1 140.957807) scale(0.1 -0.1)">
       <use xlink:href="#DejaVuSans-31" transform="translate(0 0.684375)"/>
       <use xlink:href="#DejaVuSans-30" transform="translate(63.623047 0.684375)"/>
       <use xlink:href="#DejaVuSans-2212" transform="translate(128.203125 38.965625) scale(0.7)"/>
       <use xlink:href="#DejaVuSans-35" transform="translate(186.855469 38.965625) scale(0.7)"/>
      </g>
     </g>
    </g>
    <g id="ytick_7">
     <g id="line2d_13">
      <g>
       <use xlink:href="#mca75402442" x="57.6" y="106.571009" style="stroke: #000000; stroke-width: 0.8"/>
      </g>
     </g>
     <g id="text_14">
      <!-- $\mathdefault{10^{-3}}$ -->
      <g transform="translate(27.1 110.370228) scale(0.1 -0.1)">
       <use xlink:href="#DejaVuSans-31" transform="translate(0 0.765625)"/>
       <use xlink:href="#DejaVuSans-30" transform="translate(63.623047 0.765625)"/>
       <use xlink:href="#DejaVuSans-2212" transform="translate(128.203125 39.046875) scale(0.7)"/>
       <use xlink:href="#DejaVuSans-33" transform="translate(186.855469 39.046875) scale(0.7)"/>
      </g>
     </g>
    </g>
    <g id="ytick_8">
     <g id="line2d_14">
      <g>
       <use xlink:href="#mca75402442" x="57.6" y="75.98343" style="stroke: #000000; stroke-width: 0.8"/>
      </g>
     </g>
     <g id="text_15">
      <!-- $\mathdefault{10^{-1}}$ -->
      <g transform="translate(27.1 79.782649) scale(0.1 -0.1)">
       <use xlink:href="#DejaVuSans-31" transform="translate(0 0.684375)"/>
       <use xlink:href="#DejaVuSans-30" transform="translate(63.623047 0.684375)"/>
       <use xlink:href="#DejaVuSans-2212" transform="translate(128.203125 38.965625) scale(0.7)"/>
       <use xlink:href="#DejaVuSans-31" transform="translate(186.855469 38.965625) scale(0.7)"/>
      </g>
     </g>
    </g>
    <g id="ytick_9">
     <g id="line2d_15">
      <g>
       <use xlink:href="#mca75402442" x="57.6" y="45.395851" style="stroke: #000000; stroke-width: 0.8"/>
      </g>
     </g>
     <g id="text_16">
      <!-- $\mathdefault{10^{1}}$ -->
      <g transform="translate(33 49.19507) scale(0.1 -0.1)">
       <use xlink:href="#DejaVuSans-31" transform="translate(0 0.684375)"/>
       <use xlink:href="#DejaVuSans-30" transform="translate(63.623047 0.684375)"/>
       <use xlink:href="#DejaVuSans-31" transform="translate(128.203125 38.965625) scale(0.7)"/>
      </g>
     </g>
    </g>
    <g id="text_17">
     <!-- Różnicy przybliżenia i dokładnej wartości własnej -->
     <g transform="translate(16.620312 297.356906) rotate(-90) scale(0.1 -0.1)">
      <defs>
       <path id="DejaVuSans-52" d="M 2841 2188 
Q 3044 2119 3236 1894 
Q 3428 1669 3622 1275 
L 4263 0 
L 3584 0 
L 2988 1197 
Q 2756 1666 2539 1819 
Q 2322 1972 1947 1972 
L 1259 1972 
L 1259 0 
L 628 0 
L 628 4666 
L 2053 4666 
Q 2853 4666 3247 4331 
Q 3641 3997 3641 3322 
Q 3641 2881 3436 2590 
Q 3231 2300 2841 2188 
z
M 1259 4147 
L 1259 2491 
L 2053 2491 
Q 2509 2491 2742 2702 
Q 2975 2913 2975 3322 
Q 2975 3731 2742 3939 
Q 2509 4147 2053 4147 
L 1259 4147 
z
" transform="scale(0.015625)"/>
       <path id="DejaVuSans-f3" d="M 1959 3097 
Q 1497 3097 1228 2736 
Q 959 2375 959 1747 
Q 959 1119 1226 758 
Q 1494 397 1959 397 
Q 2419 397 2687 759 
Q 2956 1122 2956 1747 
Q 2956 2369 2687 2733 
Q 2419 3097 1959 3097 
z
M 1959 3584 
Q 2709 3584 3137 3096 
Q 3566 2609 3566 1747 
Q 3566 888 3137 398 
Q 2709 -91 1959 -91 
Q 1206 -91 779 398 
Q 353 888 353 1747 
Q 353 2609 779 3096 
Q 1206 3584 1959 3584 
z
M 2394 5119 
L 3016 5119 
L 1998 3944 
L 1519 3944 
L 2394 5119 
z
" transform="scale(0.015625)"/>
       <path id="DejaVuSans-17c" d="M 1378 4863 
L 1953 4863 
L 1953 4134 
L 1378 4134 
L 1378 4863 
z
M 1672 3584 
L 1672 3584 
z
M 353 3500 
L 3084 3500 
L 3084 2975 
L 922 459 
L 3084 459 
L 3084 0 
L 275 0 
L 275 525 
L 2438 3041 
L 353 3041 
L 353 3500 
z
" transform="scale(0.015625)"/>
       <path id="DejaVuSans-6e" d="M 3513 2113 
L 3513 0 
L 2938 0 
L 2938 2094 
Q 2938 2591 2744 2837 
Q 2550 3084 2163 3084 
Q 1697 3084 1428 2787 
Q 1159 2491 1159 1978 
L 1159 0 
L 581 0 
L 581 3500 
L 1159 3500 
L 1159 2956 
Q 1366 3272 1645 3428 
Q 1925 3584 2291 3584 
Q 2894 3584 3203 3211 
Q 3513 2838 3513 2113 
z
" transform="scale(0.015625)"/>
       <path id="DejaVuSans-79" d="M 2059 -325 
Q 1816 -950 1584 -1140 
Q 1353 -1331 966 -1331 
L 506 -1331 
L 506 -850 
L 844 -850 
Q 1081 -850 1212 -737 
Q 1344 -625 1503 -206 
L 1606 56 
L 191 3500 
L 800 3500 
L 1894 763 
L 2988 3500 
L 3597 3500 
L 2059 -325 
z
" transform="scale(0.015625)"/>
       <path id="DejaVuSans-70" d="M 1159 525 
L 1159 -1331 
L 581 -1331 
L 581 3500 
L 1159 3500 
L 1159 2969 
Q 1341 3281 1617 3432 
Q 1894 3584 2278 3584 
Q 2916 3584 3314 3078 
Q 3713 2572 3713 1747 
Q 3713 922 3314 415 
Q 2916 -91 2278 -91 
Q 1894 -91 1617 61 
Q 1341 213 1159 525 
z
M 3116 1747 
Q 3116 2381 2855 2742 
Q 2594 3103 2138 3103 
Q 1681 3103 1420 2742 
Q 1159 2381 1159 1747 
Q 1159 1113 1420 752 
Q 1681 391 2138 391 
Q 2594 391 2855 752 
Q 3116 1113 3116 1747 
z
" transform="scale(0.015625)"/>
       <path id="DejaVuSans-7a" d="M 353 3500 
L 3084 3500 
L 3084 2975 
L 922 459 
L 3084 459 
L 3084 0 
L 275 0 
L 275 525 
L 2438 3041 
L 353 3041 
L 353 3500 
z
" transform="scale(0.015625)"/>
       <path id="DejaVuSans-62" d="M 3116 1747 
Q 3116 2381 2855 2742 
Q 2594 3103 2138 3103 
Q 1681 3103 1420 2742 
Q 1159 2381 1159 1747 
Q 1159 1113 1420 752 
Q 1681 391 2138 391 
Q 2594 391 2855 752 
Q 3116 1113 3116 1747 
z
M 1159 2969 
Q 1341 3281 1617 3432 
Q 1894 3584 2278 3584 
Q 2916 3584 3314 3078 
Q 3713 2572 3713 1747 
Q 3713 922 3314 415 
Q 2916 -91 2278 -91 
Q 1894 -91 1617 61 
Q 1341 213 1159 525 
L 1159 0 
L 581 0 
L 581 4863 
L 1159 4863 
L 1159 2969 
z
" transform="scale(0.015625)"/>
       <path id="DejaVuSans-6c" d="M 603 4863 
L 1178 4863 
L 1178 0 
L 603 0 
L 603 4863 
z
" transform="scale(0.015625)"/>
       <path id="DejaVuSans-64" d="M 2906 2969 
L 2906 4863 
L 3481 4863 
L 3481 0 
L 2906 0 
L 2906 525 
Q 2725 213 2448 61 
Q 2172 -91 1784 -91 
Q 1150 -91 751 415 
Q 353 922 353 1747 
Q 353 2572 751 3078 
Q 1150 3584 1784 3584 
Q 2172 3584 2448 3432 
Q 2725 3281 2906 2969 
z
M 947 1747 
Q 947 1113 1208 752 
Q 1469 391 1925 391 
Q 2381 391 2643 752 
Q 2906 1113 2906 1747 
Q 2906 2381 2643 2742 
Q 2381 3103 1925 3103 
Q 1469 3103 1208 2742 
Q 947 2381 947 1747 
z
" transform="scale(0.015625)"/>
       <path id="DejaVuSans-6f" d="M 1959 3097 
Q 1497 3097 1228 2736 
Q 959 2375 959 1747 
Q 959 1119 1226 758 
Q 1494 397 1959 397 
Q 2419 397 2687 759 
Q 2956 1122 2956 1747 
Q 2956 2369 2687 2733 
Q 2419 3097 1959 3097 
z
M 1959 3584 
Q 2709 3584 3137 3096 
Q 3566 2609 3566 1747 
Q 3566 888 3137 398 
Q 2709 -91 1959 -91 
Q 1206 -91 779 398 
Q 353 888 353 1747 
Q 353 2609 779 3096 
Q 1206 3584 1959 3584 
z
" transform="scale(0.015625)"/>
       <path id="DejaVuSans-6b" d="M 581 4863 
L 1159 4863 
L 1159 1991 
L 2875 3500 
L 3609 3500 
L 1753 1863 
L 3688 0 
L 2938 0 
L 1159 1709 
L 1159 0 
L 581 0 
L 581 4863 
z
" transform="scale(0.015625)"/>
       <path id="DejaVuSans-142" d="M 622 4863 
L 1197 4863 
L 1197 2981 
L 1588 3263 
L 1825 2931 
L 1197 2491 
L 1197 0 
L 622 0 
L 622 2081 
L 238 1806 
L 6 2138 
L 622 2578 
L 622 4863 
z
" transform="scale(0.015625)"/>
       <path id="DejaVuSans-77" d="M 269 3500 
L 844 3500 
L 1563 769 
L 2278 3500 
L 2956 3500 
L 3675 769 
L 4391 3500 
L 4966 3500 
L 4050 0 
L 3372 0 
L 2619 2869 
L 1863 0 
L 1184 0 
L 269 3500 
z
" transform="scale(0.015625)"/>
       <path id="DejaVuSans-15b" d="M 2242 5119 
L 2864 5119 
L 1846 3944 
L 1367 3944 
L 2242 5119 
z
M 2834 3397 
L 2834 2853 
Q 2591 2978 2328 3040 
Q 2066 3103 1784 3103 
Q 1356 3103 1142 2972 
Q 928 2841 928 2578 
Q 928 2378 1081 2264 
Q 1234 2150 1697 2047 
L 1894 2003 
Q 2506 1872 2764 1633 
Q 3022 1394 3022 966 
Q 3022 478 2636 193 
Q 2250 -91 1575 -91 
Q 1294 -91 989 -36 
Q 684 19 347 128 
L 347 722 
Q 666 556 975 473 
Q 1284 391 1588 391 
Q 1994 391 2212 530 
Q 2431 669 2431 922 
Q 2431 1156 2273 1281 
Q 2116 1406 1581 1522 
L 1381 1569 
Q 847 1681 609 1914 
Q 372 2147 372 2553 
Q 372 3047 722 3315 
Q 1072 3584 1716 3584 
Q 2034 3584 2315 3537 
Q 2597 3491 2834 3397 
z
" transform="scale(0.015625)"/>
       <path id="DejaVuSans-73" d="M 2834 3397 
L 2834 2853 
Q 2591 2978 2328 3040 
Q 2066 3103 1784 3103 
Q 1356 3103 1142 2972 
Q 928 2841 928 2578 
Q 928 2378 1081 2264 
Q 1234 2150 1697 2047 
L 1894 2003 
Q 2506 1872 2764 1633 
Q 3022 1394 3022 966 
Q 3022 478 2636 193 
Q 2250 -91 1575 -91 
Q 1294 -91 989 -36 
Q 684 19 347 128 
L 347 722 
Q 666 556 975 473 
Q 1284 391 1588 391 
Q 1994 391 2212 530 
Q 2431 669 2431 922 
Q 2431 1156 2273 1281 
Q 2116 1406 1581 1522 
L 1381 1569 
Q 847 1681 609 1914 
Q 372 2147 372 2553 
Q 372 3047 722 3315 
Q 1072 3584 1716 3584 
Q 2034 3584 2315 3537 
Q 2597 3491 2834 3397 
z
" transform="scale(0.015625)"/>
      </defs>
      <use xlink:href="#DejaVuSans-52"/>
      <use xlink:href="#DejaVuSans-f3" x="64.982422"/>
      <use xlink:href="#DejaVuSans-17c" x="126.164062"/>
      <use xlink:href="#DejaVuSans-6e" x="178.654297"/>
      <use xlink:href="#DejaVuSans-69" x="242.033203"/>
      <use xlink:href="#DejaVuSans-63" x="269.816406"/>
      <use xlink:href="#DejaVuSans-79" x="324.796875"/>
      <use xlink:href="#DejaVuSans-20" x="383.976562"/>
      <use xlink:href="#DejaVuSans-70" x="415.763672"/>
      <use xlink:href="#DejaVuSans-72" x="479.240234"/>
      <use xlink:href="#DejaVuSans-7a" x="520.353516"/>
      <use xlink:href="#DejaVuSans-79" x="572.84375"/>
      <use xlink:href="#DejaVuSans-62" x="632.023438"/>
      <use xlink:href="#DejaVuSans-6c" x="695.5"/>
      <use xlink:href="#DejaVuSans-69" x="723.283203"/>
      <use xlink:href="#DejaVuSans-17c" x="751.066406"/>
      <use xlink:href="#DejaVuSans-65" x="803.556641"/>
      <use xlink:href="#DejaVuSans-6e" x="865.080078"/>
      <use xlink:href="#DejaVuSans-69" x="928.458984"/>
      <use xlink:href="#DejaVuSans-61" x="956.242188"/>
      <use xlink:href="#DejaVuSans-20" x="1017.521484"/>
      <use xlink:href="#DejaVuSans-69" x="1049.308594"/>
      <use xlink:href="#DejaVuSans-20" x="1077.091797"/>
      <use xlink:href="#DejaVuSans-64" x="1108.878906"/>
      <use xlink:href="#DejaVuSans-6f" x="1172.355469"/>
      <use xlink:href="#DejaVuSans-6b" x="1233.537109"/>
      <use xlink:href="#DejaVuSans-142" x="1291.447266"/>
      <use xlink:href="#DejaVuSans-61" x="1319.865234"/>
      <use xlink:href="#DejaVuSans-64" x="1381.144531"/>
      <use xlink:href="#DejaVuSans-6e" x="1444.621094"/>
      <use xlink:href="#DejaVuSans-65" x="1508"/>
      <use xlink:href="#DejaVuSans-6a" x="1569.523438"/>
      <use xlink:href="#DejaVuSans-20" x="1597.306641"/>
      <use xlink:href="#DejaVuSans-77" x="1629.09375"/>
      <use xlink:href="#DejaVuSans-61" x="1710.880859"/>
      <use xlink:href="#DejaVuSans-72" x="1772.160156"/>
      <use xlink:href="#DejaVuSans-74" x="1813.273438"/>
      <use xlink:href="#DejaVuSans-6f" x="1852.482422"/>
      <use xlink:href="#DejaVuSans-15b" x="1913.664062"/>
      <use xlink:href="#DejaVuSans-63" x="1965.763672"/>
      <use xlink:href="#DejaVuSans-69" x="2020.744141"/>
      <use xlink:href="#DejaVuSans-20" x="2048.527344"/>
      <use xlink:href="#DejaVuSans-77" x="2080.314453"/>
      <use xlink:href="#DejaVuSans-142" x="2162.101562"/>
      <use xlink:href="#DejaVuSans-61" x="2190.519531"/>
      <use xlink:href="#DejaVuSans-73" x="2251.798828"/>
      <use xlink:href="#DejaVuSans-6e" x="2303.898438"/>
      <use xlink:href="#DejaVuSans-65" x="2367.277344"/>
      <use xlink:href="#DejaVuSans-6a" x="2428.800781"/>
     </g>
    </g>
   </g>
   <g id="line2d_16">
    <path d="M 73.832727 57.0016 
L 77.079273 57.945263 
L 80.325818 58.795702 
L 83.572364 59.661434 
L 86.818909 60.616236 
L 90.065455 61.714776 
L 93.312 62.989769 
L 96.558545 64.452575 
L 99.805091 66.096773 
L 103.051636 67.903582 
L 106.298182 69.847761 
L 109.544727 71.902628 
L 112.791273 74.043453 
L 116.037818 76.249169 
L 119.284364 78.502847 
L 122.530909 80.791428 
L 125.777455 83.105119 
L 129.024 85.436729 
L 132.270545 87.781053 
L 135.517091 90.134359 
L 138.763636 92.493992 
L 142.010182 94.858073 
L 145.256727 97.225277 
L 148.503273 99.594669 
L 151.749818 101.965595 
L 154.996364 104.337596 
L 158.242909 106.710348 
L 161.489455 109.083627 
L 164.736 111.457275 
L 167.982545 113.831179 
L 171.229091 116.205265 
L 174.475636 118.579476 
L 177.722182 120.953775 
L 180.968727 123.328136 
L 184.215273 125.702541 
L 187.461818 128.076975 
L 190.708364 130.451431 
L 193.954909 132.825901 
L 197.201455 135.200382 
L 200.448 137.57487 
L 203.694545 139.949363 
L 206.941091 142.323859 
L 210.187636 144.698358 
L 213.434182 147.072859 
L 216.680727 149.447361 
L 219.927273 151.821864 
L 223.173818 154.196367 
L 226.420364 156.570871 
L 229.666909 158.945375 
L 232.913455 161.319879 
L 236.16 163.694383 
L 239.406545 166.068888 
L 242.653091 168.443393 
L 245.899636 170.817897 
L 249.146182 173.192402 
L 252.392727 175.566907 
L 255.639273 177.941411 
L 258.885818 180.315915 
L 262.132364 182.690421 
L 265.378909 185.064925 
L 268.625455 187.43943 
L 271.872 189.813932 
L 275.118545 192.188441 
L 278.365091 194.562938 
L 281.611636 196.937452 
L 284.858182 199.311957 
L 288.104727 201.686464 
L 291.351273 204.061005 
L 294.597818 206.435511 
L 297.844364 208.810082 
L 301.090909 211.184614 
L 304.337455 213.559103 
L 307.584 215.933582 
L 310.830545 218.308442 
L 314.077091 220.683315 
L 317.323636 223.058841 
L 320.570182 225.433878 
L 323.816727 227.809799 
L 327.063273 230.185256 
L 330.309818 232.560006 
L 333.556364 234.933418 
L 336.802909 237.310378 
L 340.049455 239.687765 
L 343.296 242.049135 
L 346.542545 244.430349 
L 349.789091 246.808098 
L 353.035636 249.194592 
L 356.282182 251.570768 
L 359.528727 254.052995 
L 362.775273 256.541712 
L 366.021818 259.08555 
L 369.268364 261.454588 
L 372.514909 263.914614 
L 375.761455 266.382542 
L 379.008 268.75158 
L 382.254545 270.986432 
L 385.501091 273.35547 
L 388.747636 275.590321 
L 391.994182 278.983229 
L 395.240727 281.676332 
L 398.487273 286.280221 
" clip-path="url(#pddb458cd56)" style="fill: none; stroke: #1f77b4; stroke-width: 1.5; stroke-linecap: square"/>
   </g>
   <g id="line2d_17">
    <path d="M 73.832727 59.774535 
L 77.079273 67.332497 
L 80.325818 73.167114 
L 83.572364 65.181661 
L 86.818909 63.354505 
L 90.065455 63.198381 
L 93.312 63.849565 
L 96.558545 64.981543 
L 99.805091 66.439812 
L 103.051636 68.136204 
L 106.298182 70.011342 
L 109.544727 72.020987 
L 112.791273 74.130974 
L 116.037818 76.314944 
L 119.284364 78.552872 
L 122.530909 80.829801 
L 125.777455 83.134737 
L 129.024 85.459691 
L 132.270545 87.79891 
L 135.517091 90.148277 
L 138.763636 92.504857 
L 142.010182 94.866564 
L 145.256727 97.231917 
L 148.503273 99.599865 
L 151.749818 101.969663 
L 154.996364 104.340781 
L 158.242909 106.712843 
L 161.489455 109.085582 
L 164.736 111.458805 
L 167.982545 113.832379 
L 171.229091 116.206204 
L 174.475636 118.580212 
L 177.722182 120.954352 
L 180.968727 123.328588 
L 184.215273 125.702895 
L 187.461818 128.077253 
L 190.708364 130.451648 
L 193.954909 132.826071 
L 197.201455 135.200515 
L 200.448 137.574974 
L 203.694545 139.949445 
L 206.941091 142.323923 
L 210.187636 144.698408 
L 213.434182 147.072898 
L 216.680727 149.447392 
L 219.927273 151.821888 
L 223.173818 154.196386 
L 226.420364 156.570885 
L 229.666909 158.945386 
L 232.913455 161.319888 
L 236.16 163.69439 
L 239.406545 166.068893 
L 242.653091 168.443396 
L 245.899636 170.817899 
L 249.146182 173.192403 
L 252.392727 175.566906 
L 255.639273 177.94141 
L 258.885818 180.315914 
L 262.132364 182.690416 
L 265.378909 185.064919 
L 268.625455 187.439423 
L 271.872 189.813929 
L 275.118545 192.188432 
L 278.365091 194.562938 
L 281.611636 196.937443 
L 284.858182 199.311944 
L 288.104727 201.686444 
L 291.351273 204.060949 
L 294.597818 206.435431 
L 297.844364 208.80991 
L 301.090909 211.184369 
L 304.337455 213.558753 
L 307.584 215.933081 
L 310.830545 218.307488 
L 314.077091 220.681949 
L 317.323636 223.056401 
L 320.570182 225.431087 
L 323.816727 227.805808 
L 327.063273 230.180976 
L 330.309818 232.555926 
L 333.556364 234.930501 
L 336.802909 237.306207 
L 340.049455 239.6818 
L 343.296 242.057656 
L 346.542545 244.430349 
L 349.789091 246.808098 
L 353.035636 249.194592 
L 356.282182 251.570768 
L 359.528727 253.950016 
L 362.775273 256.319054 
L 366.021818 258.656885 
L 369.268364 261.145602 
L 372.514909 263.471649 
L 375.761455 265.749491 
L 379.008 268.293329 
L 382.254545 270.986432 
L 385.501091 273.35547 
L 388.747636 277.072442 
L 391.994182 281.676332 
L 395.240727 286.280221 
" clip-path="url(#pddb458cd56)" style="fill: none; stroke: #ff7f0e; stroke-width: 1.5; stroke-linecap: square"/>
   </g>
   <g id="line2d_18">
    <path d="M 73.832727 83.609158 
L 77.079273 58.209546 
L 80.325818 59.843805 
L 83.572364 63.502889 
L 86.818909 67.832787 
L 90.065455 72.400779 
L 93.312 76.994915 
L 96.558545 81.521296 
L 99.805091 85.950018 
L 103.051636 90.281957 
L 106.298182 94.530451 
L 109.544727 98.712053 
L 112.791273 102.842334 
L 116.037818 106.934346 
L 119.284364 110.99836 
L 122.530909 115.042162 
L 125.777455 119.071502 
L 129.024 123.090563 
L 132.270545 127.102351 
L 135.517091 131.109009 
L 138.763636 135.112056 
L 142.010182 139.112568 
L 145.256727 143.111299 
L 148.503273 147.108784 
L 151.749818 151.105394 
L 154.996364 155.101392 
L 158.242909 159.096961 
L 161.489455 163.092231 
L 164.736 167.08729 
L 167.982545 171.082203 
L 171.229091 175.077013 
L 174.475636 179.071752 
L 177.722182 183.066441 
L 180.968727 187.061094 
L 184.215273 191.055724 
L 187.461818 195.050337 
L 190.708364 199.04494 
L 193.954909 203.039539 
L 197.201455 207.03413 
L 200.448 211.028741 
L 203.694545 215.023353 
L 206.941091 219.01799 
L 210.187636 223.012633 
L 213.434182 227.007 
L 216.680727 231.002003 
L 219.927273 234.997904 
L 223.173818 238.994229 
L 226.420364 242.989794 
L 229.666909 246.984757 
L 232.913455 250.989862 
L 236.16 254.999482 
L 239.406545 258.975762 
L 242.653091 262.956507 
L 245.899636 267.082348 
L 249.146182 271.327122 
L 252.392727 275.590321 
L 255.639273 280.19421 
L 258.885818 286.280221 
L 262.132364 290.884111 
" clip-path="url(#pddb458cd56)" style="fill: none; stroke: #2ca02c; stroke-width: 1.5; stroke-linecap: square"/>
   </g>
   <g id="line2d_19">
    <path d="M 73.832727 53.568 
L 77.079273 66.344934 
L 80.325818 81.851134 
L 83.572364 97.007598 
L 86.818909 111.705416 
L 90.065455 126.13684 
L 93.312 140.431397 
L 96.558545 154.657421 
L 99.805091 168.849003 
L 103.051636 183.023042 
L 106.298182 197.188008 
L 109.544727 211.348209 
L 112.791273 225.505979 
L 116.037818 239.662451 
L 119.284364 253.810978 
L 122.530909 267.969264 
L 125.777455 281.676332 
L 129.024 295.488 
" clip-path="url(#pddb458cd56)" style="fill: none; stroke: #d62728; stroke-width: 1.5; stroke-linecap: square"/>
   </g>
   <g id="patch_3">
    <path d="M 57.6 307.584 
L 57.6 41.472 
" style="fill: none; stroke: #000000; stroke-width: 0.8; stroke-linejoin: miter; stroke-linecap: square"/>
   </g>
   <g id="patch_4">
    <path d="M 414.72 307.584 
L 414.72 41.472 
" style="fill: none; stroke: #000000; stroke-width: 0.8; stroke-linejoin: miter; stroke-linecap: square"/>
   </g>
   <g id="patch_5">
    <path d="M 57.6 307.584 
L 414.72 307.584 
" style="fill: none; stroke: #000000; stroke-width: 0.8; stroke-linejoin: miter; stroke-linecap: square"/>
   </g>
   <g id="patch_6">
    <path d="M 57.6 41.472 
L 414.72 41.472 
" style="fill: none; stroke: #000000; stroke-width: 0.8; stroke-linejoin: miter; stroke-linecap: square"/>
   </g>
   <g id="text_18">
    <!-- Różnicy przybliżenia i dokładnej wartości własnej  -->
    <g transform="translate(86.858438 22.034625) scale(0.12 -0.12)">
     <use xlink:href="#DejaVuSans-52"/>
     <use xlink:href="#DejaVuSans-f3" x="64.982422"/>
     <use xlink:href="#DejaVuSans-17c" x="126.164062"/>
     <use xlink:href="#DejaVuSans-6e" x="178.654297"/>
     <use xlink:href="#DejaVuSans-69" x="242.033203"/>
     <use xlink:href="#DejaVuSans-63" x="269.816406"/>
     <use xlink:href="#DejaVuSans-79" x="324.796875"/>
     <use xlink:href="#DejaVuSans-20" x="383.976562"/>
     <use xlink:href="#DejaVuSans-70" x="415.763672"/>
     <use xlink:href="#DejaVuSans-72" x="479.240234"/>
     <use xlink:href="#DejaVuSans-7a" x="520.353516"/>
     <use xlink:href="#DejaVuSans-79" x="572.84375"/>
     <use xlink:href="#DejaVuSans-62" x="632.023438"/>
     <use xlink:href="#DejaVuSans-6c" x="695.5"/>
     <use xlink:href="#DejaVuSans-69" x="723.283203"/>
     <use xlink:href="#DejaVuSans-17c" x="751.066406"/>
     <use xlink:href="#DejaVuSans-65" x="803.556641"/>
     <use xlink:href="#DejaVuSans-6e" x="865.080078"/>
     <use xlink:href="#DejaVuSans-69" x="928.458984"/>
     <use xlink:href="#DejaVuSans-61" x="956.242188"/>
     <use xlink:href="#DejaVuSans-20" x="1017.521484"/>
     <use xlink:href="#DejaVuSans-69" x="1049.308594"/>
     <use xlink:href="#DejaVuSans-20" x="1077.091797"/>
     <use xlink:href="#DejaVuSans-64" x="1108.878906"/>
     <use xlink:href="#DejaVuSans-6f" x="1172.355469"/>
     <use xlink:href="#DejaVuSans-6b" x="1233.537109"/>
     <use xlink:href="#DejaVuSans-142" x="1291.447266"/>
     <use xlink:href="#DejaVuSans-61" x="1319.865234"/>
     <use xlink:href="#DejaVuSans-64" x="1381.144531"/>
     <use xlink:href="#DejaVuSans-6e" x="1444.621094"/>
     <use xlink:href="#DejaVuSans-65" x="1508"/>
     <use xlink:href="#DejaVuSans-6a" x="1569.523438"/>
     <use xlink:href="#DejaVuSans-20" x="1597.306641"/>
     <use xlink:href="#DejaVuSans-77" x="1629.09375"/>
     <use xlink:href="#DejaVuSans-61" x="1710.880859"/>
     <use xlink:href="#DejaVuSans-72" x="1772.160156"/>
     <use xlink:href="#DejaVuSans-74" x="1813.273438"/>
     <use xlink:href="#DejaVuSans-6f" x="1852.482422"/>
     <use xlink:href="#DejaVuSans-15b" x="1913.664062"/>
     <use xlink:href="#DejaVuSans-63" x="1965.763672"/>
     <use xlink:href="#DejaVuSans-69" x="2020.744141"/>
     <use xlink:href="#DejaVuSans-20" x="2048.527344"/>
     <use xlink:href="#DejaVuSans-77" x="2080.314453"/>
     <use xlink:href="#DejaVuSans-142" x="2162.101562"/>
     <use xlink:href="#DejaVuSans-61" x="2190.519531"/>
     <use xlink:href="#DejaVuSans-73" x="2251.798828"/>
     <use xlink:href="#DejaVuSans-6e" x="2303.898438"/>
     <use xlink:href="#DejaVuSans-65" x="2367.277344"/>
     <use xlink:href="#DejaVuSans-6a" x="2428.800781"/>
     <use xlink:href="#DejaVuSans-20" x="2456.583984"/>
    </g>
    <!--  zależnie od numeru iteracji dla metody QR -->
    <g transform="translate(105.974063 35.472) scale(0.12 -0.12)">
     <defs>
      <path id="DejaVuSans-51" d="M 2522 4238 
Q 1834 4238 1429 3725 
Q 1025 3213 1025 2328 
Q 1025 1447 1429 934 
Q 1834 422 2522 422 
Q 3209 422 3611 934 
Q 4013 1447 4013 2328 
Q 4013 3213 3611 3725 
Q 3209 4238 2522 4238 
z
M 3406 84 
L 4238 -825 
L 3475 -825 
L 2784 -78 
Q 2681 -84 2626 -87 
Q 2572 -91 2522 -91 
Q 1538 -91 948 567 
Q 359 1225 359 2328 
Q 359 3434 948 4092 
Q 1538 4750 2522 4750 
Q 3503 4750 4090 4092 
Q 4678 3434 4678 2328 
Q 4678 1516 4351 937 
Q 4025 359 3406 84 
z
" transform="scale(0.015625)"/>
     </defs>
     <use xlink:href="#DejaVuSans-20"/>
     <use xlink:href="#DejaVuSans-7a" x="31.787109"/>
     <use xlink:href="#DejaVuSans-61" x="84.277344"/>
     <use xlink:href="#DejaVuSans-6c" x="145.556641"/>
     <use xlink:href="#DejaVuSans-65" x="173.339844"/>
     <use xlink:href="#DejaVuSans-17c" x="234.863281"/>
     <use xlink:href="#DejaVuSans-6e" x="287.353516"/>
     <use xlink:href="#DejaVuSans-69" x="350.732422"/>
     <use xlink:href="#DejaVuSans-65" x="378.515625"/>
     <use xlink:href="#DejaVuSans-20" x="440.039062"/>
     <use xlink:href="#DejaVuSans-6f" x="471.826172"/>
     <use xlink:href="#DejaVuSans-64" x="533.007812"/>
     <use xlink:href="#DejaVuSans-20" x="596.484375"/>
     <use xlink:href="#DejaVuSans-6e" x="628.271484"/>
     <use xlink:href="#DejaVuSans-75" x="691.650391"/>
     <use xlink:href="#DejaVuSans-6d" x="755.029297"/>
     <use xlink:href="#DejaVuSans-65" x="852.441406"/>
     <use xlink:href="#DejaVuSans-72" x="913.964844"/>
     <use xlink:href="#DejaVuSans-75" x="955.078125"/>
     <use xlink:href="#DejaVuSans-20" x="1018.457031"/>
     <use xlink:href="#DejaVuSans-69" x="1050.244141"/>
     <use xlink:href="#DejaVuSans-74" x="1078.027344"/>
     <use xlink:href="#DejaVuSans-65" x="1117.236328"/>
     <use xlink:href="#DejaVuSans-72" x="1178.759766"/>
     <use xlink:href="#DejaVuSans-61" x="1219.873047"/>
     <use xlink:href="#DejaVuSans-63" x="1281.152344"/>
     <use xlink:href="#DejaVuSans-6a" x="1336.132812"/>
     <use xlink:href="#DejaVuSans-69" x="1363.916016"/>
     <use xlink:href="#DejaVuSans-20" x="1391.699219"/>
     <use xlink:href="#DejaVuSans-64" x="1423.486328"/>
     <use xlink:href="#DejaVuSans-6c" x="1486.962891"/>
     <use xlink:href="#DejaVuSans-61" x="1514.746094"/>
     <use xlink:href="#DejaVuSans-20" x="1576.025391"/>
     <use xlink:href="#DejaVuSans-6d" x="1607.8125"/>
     <use xlink:href="#DejaVuSans-65" x="1705.224609"/>
     <use xlink:href="#DejaVuSans-74" x="1766.748047"/>
     <use xlink:href="#DejaVuSans-6f" x="1805.957031"/>
     <use xlink:href="#DejaVuSans-64" x="1867.138672"/>
     <use xlink:href="#DejaVuSans-79" x="1930.615234"/>
     <use xlink:href="#DejaVuSans-20" x="1989.794922"/>
     <use xlink:href="#DejaVuSans-51" x="2021.582031"/>
     <use xlink:href="#DejaVuSans-52" x="2100.292969"/>
    </g>
   </g>
   <g id="legend_1">
    <g id="patch_7">
     <path d="M 287.941875 108.1845 
L 407.72 108.1845 
Q 409.72 108.1845 409.72 106.1845 
L 409.72 48.472 
Q 409.72 46.472 407.72 46.472 
L 287.941875 46.472 
Q 285.941875 46.472 285.941875 48.472 
L 285.941875 106.1845 
Q 285.941875 108.1845 287.941875 108.1845 
z
" style="fill: #ffffff; opacity: 0.8; stroke: #cccccc; stroke-linejoin: miter"/>
    </g>
    <g id="line2d_20">
     <path d="M 289.941875 54.570438 
L 299.941875 54.570438 
L 309.941875 54.570438 
" style="fill: none; stroke: #1f77b4; stroke-width: 1.5; stroke-linecap: square"/>
    </g>
    <g id="text_19">
     <!-- Wartość własna 1 -->
     <g transform="translate(317.941875 58.070438) scale(0.1 -0.1)">
      <defs>
       <path id="DejaVuSans-57" d="M 213 4666 
L 850 4666 
L 1831 722 
L 2809 4666 
L 3519 4666 
L 4500 722 
L 5478 4666 
L 6119 4666 
L 4947 0 
L 4153 0 
L 3169 4050 
L 2175 0 
L 1381 0 
L 213 4666 
z
" transform="scale(0.015625)"/>
       <path id="DejaVuSans-107" d="M 3122 3366 
L 3122 2828 
Q 2878 2963 2633 3030 
Q 2388 3097 2138 3097 
Q 1578 3097 1268 2742 
Q 959 2388 959 1747 
Q 959 1106 1268 751 
Q 1578 397 2138 397 
Q 2388 397 2633 464 
Q 2878 531 3122 666 
L 3122 134 
Q 2881 22 2623 -34 
Q 2366 -91 2075 -91 
Q 1284 -91 818 406 
Q 353 903 353 1747 
Q 353 2603 823 3093 
Q 1294 3584 2113 3584 
Q 2378 3584 2631 3529 
Q 2884 3475 3122 3366 
z
M 2466 5119 
L 3088 5119 
L 2070 3944 
L 1591 3944 
L 2466 5119 
z
" transform="scale(0.015625)"/>
      </defs>
      <use xlink:href="#DejaVuSans-57"/>
      <use xlink:href="#DejaVuSans-61" x="92.501953"/>
      <use xlink:href="#DejaVuSans-72" x="153.78125"/>
      <use xlink:href="#DejaVuSans-74" x="194.894531"/>
      <use xlink:href="#DejaVuSans-6f" x="234.103516"/>
      <use xlink:href="#DejaVuSans-15b" x="295.285156"/>
      <use xlink:href="#DejaVuSans-107" x="347.384766"/>
      <use xlink:href="#DejaVuSans-20" x="402.365234"/>
      <use xlink:href="#DejaVuSans-77" x="434.152344"/>
      <use xlink:href="#DejaVuSans-142" x="515.939453"/>
      <use xlink:href="#DejaVuSans-61" x="544.357422"/>
      <use xlink:href="#DejaVuSans-73" x="605.636719"/>
      <use xlink:href="#DejaVuSans-6e" x="657.736328"/>
      <use xlink:href="#DejaVuSans-61" x="721.115234"/>
      <use xlink:href="#DejaVuSans-20" x="782.394531"/>
      <use xlink:href="#DejaVuSans-31" x="814.181641"/>
     </g>
    </g>
    <g id="line2d_21">
     <path d="M 289.941875 69.248563 
L 299.941875 69.248563 
L 309.941875 69.248563 
" style="fill: none; stroke: #ff7f0e; stroke-width: 1.5; stroke-linecap: square"/>
    </g>
    <g id="text_20">
     <!-- Wartość własna 2 -->
     <g transform="translate(317.941875 72.748563) scale(0.1 -0.1)">
      <use xlink:href="#DejaVuSans-57"/>
      <use xlink:href="#DejaVuSans-61" x="92.501953"/>
      <use xlink:href="#DejaVuSans-72" x="153.78125"/>
      <use xlink:href="#DejaVuSans-74" x="194.894531"/>
      <use xlink:href="#DejaVuSans-6f" x="234.103516"/>
      <use xlink:href="#DejaVuSans-15b" x="295.285156"/>
      <use xlink:href="#DejaVuSans-107" x="347.384766"/>
      <use xlink:href="#DejaVuSans-20" x="402.365234"/>
      <use xlink:href="#DejaVuSans-77" x="434.152344"/>
      <use xlink:href="#DejaVuSans-142" x="515.939453"/>
      <use xlink:href="#DejaVuSans-61" x="544.357422"/>
      <use xlink:href="#DejaVuSans-73" x="605.636719"/>
      <use xlink:href="#DejaVuSans-6e" x="657.736328"/>
      <use xlink:href="#DejaVuSans-61" x="721.115234"/>
      <use xlink:href="#DejaVuSans-20" x="782.394531"/>
      <use xlink:href="#DejaVuSans-32" x="814.181641"/>
     </g>
    </g>
    <g id="line2d_22">
     <path d="M 289.941875 83.926688 
L 299.941875 83.926688 
L 309.941875 83.926688 
" style="fill: none; stroke: #2ca02c; stroke-width: 1.5; stroke-linecap: square"/>
    </g>
    <g id="text_21">
     <!-- Wartość własna 3 -->
     <g transform="translate(317.941875 87.426688) scale(0.1 -0.1)">
      <use xlink:href="#DejaVuSans-57"/>
      <use xlink:href="#DejaVuSans-61" x="92.501953"/>
      <use xlink:href="#DejaVuSans-72" x="153.78125"/>
      <use xlink:href="#DejaVuSans-74" x="194.894531"/>
      <use xlink:href="#DejaVuSans-6f" x="234.103516"/>
      <use xlink:href="#DejaVuSans-15b" x="295.285156"/>
      <use xlink:href="#DejaVuSans-107" x="347.384766"/>
      <use xlink:href="#DejaVuSans-20" x="402.365234"/>
      <use xlink:href="#DejaVuSans-77" x="434.152344"/>
      <use xlink:href="#DejaVuSans-142" x="515.939453"/>
      <use xlink:href="#DejaVuSans-61" x="544.357422"/>
      <use xlink:href="#DejaVuSans-73" x="605.636719"/>
      <use xlink:href="#DejaVuSans-6e" x="657.736328"/>
      <use xlink:href="#DejaVuSans-61" x="721.115234"/>
      <use xlink:href="#DejaVuSans-20" x="782.394531"/>
      <use xlink:href="#DejaVuSans-33" x="814.181641"/>
     </g>
    </g>
    <g id="line2d_23">
     <path d="M 289.941875 98.604813 
L 299.941875 98.604813 
L 309.941875 98.604813 
" style="fill: none; stroke: #d62728; stroke-width: 1.5; stroke-linecap: square"/>
    </g>
    <g id="text_22">
     <!-- Wartość własna 4 -->
     <g transform="translate(317.941875 102.104813) scale(0.1 -0.1)">
      <use xlink:href="#DejaVuSans-57"/>
      <use xlink:href="#DejaVuSans-61" x="92.501953"/>
      <use xlink:href="#DejaVuSans-72" x="153.78125"/>
      <use xlink:href="#DejaVuSans-74" x="194.894531"/>
      <use xlink:href="#DejaVuSans-6f" x="234.103516"/>
      <use xlink:href="#DejaVuSans-15b" x="295.285156"/>
      <use xlink:href="#DejaVuSans-107" x="347.384766"/>
      <use xlink:href="#DejaVuSans-20" x="402.365234"/>
      <use xlink:href="#DejaVuSans-77" x="434.152344"/>
      <use xlink:href="#DejaVuSans-142" x="515.939453"/>
      <use xlink:href="#DejaVuSans-61" x="544.357422"/>
      <use xlink:href="#DejaVuSans-73" x="605.636719"/>
      <use xlink:href="#DejaVuSans-6e" x="657.736328"/>
      <use xlink:href="#DejaVuSans-61" x="721.115234"/>
      <use xlink:href="#DejaVuSans-20" x="782.394531"/>
      <use xlink:href="#DejaVuSans-34" x="814.181641"/>
     </g>
    </g>
   </g>
  </g>
 </g>
 <defs>
  <clipPath id="pddb458cd56">
   <rect x="57.6" y="41.472" width="357.12" height="266.112"/>
  </clipPath>
 </defs>
</svg>
