<?xml version="1.0" encoding="utf-8" standalone="no"?>
<!DOCTYPE svg PUBLIC "-//W3C//DTD SVG 1.1//EN"
  "http://www.w3.org/Graphics/SVG/1.1/DTD/svg11.dtd">
<svg xmlns:xlink="http://www.w3.org/1999/xlink" width="504pt" height="432pt" viewBox="0 0 504 432" xmlns="http://www.w3.org/2000/svg" version="1.1">
 <metadata>
  <rdf:RDF xmlns:dc="http://purl.org/dc/elements/1.1/" xmlns:cc="http://creativecommons.org/ns#" xmlns:rdf="http://www.w3.org/1999/02/22-rdf-syntax-ns#">
   <cc:Work>
    <dc:type rdf:resource="http://purl.org/dc/dcmitype/StillImage"/>
    <dc:date>2023-12-04T14:45:12.695045</dc:date>
    <dc:format>image/svg+xml</dc:format>
    <dc:creator>
     <cc:Agent>
      <dc:title>Matplotlib v3.8.0, https://matplotlib.org/</dc:title>
     </cc:Agent>
    </dc:creator>
   </cc:Work>
  </rdf:RDF>
 </metadata>
 <defs>
  <style type="text/css">*{stroke-linejoin: round; stroke-linecap: butt}</style>
 </defs>
 <g id="figure_1">
  <g id="patch_1">
   <path d="M 0 432 
L 504 432 
L 504 0 
L 0 0 
z
" style="fill: #ffffff"/>
  </g>
  <g id="axes_1">
   <g id="patch_2">
    <path d="M 63 384.48 
L 453.6 384.48 
L 453.6 51.84 
L 63 51.84 
z
" style="fill: #ffffff"/>
   </g>
   <g id="matplotlib.axis_1">
    <g id="xtick_1">
     <g id="line2d_1">
      <defs>
       <path id="mab6f7b2ac8" d="M 0 0 
L 0 3.5 
" style="stroke: #000000; stroke-width: 0.8"/>
      </defs>
      <g>
       <use xlink:href="#mab6f7b2ac8" x="77.526446" y="384.48" style="stroke: #000000; stroke-width: 0.8"/>
      </g>
     </g>
     <g id="text_1">
      <!-- 0 -->
      <g transform="translate(74.345196 399.078438) scale(0.1 -0.1)">
       <defs>
        <path id="DejaVuSans-30" d="M 2034 4250 
Q 1547 4250 1301 3770 
Q 1056 3291 1056 2328 
Q 1056 1369 1301 889 
Q 1547 409 2034 409 
Q 2525 409 2770 889 
Q 3016 1369 3016 2328 
Q 3016 3291 2770 3770 
Q 2525 4250 2034 4250 
z
M 2034 4750 
Q 2819 4750 3233 4129 
Q 3647 3509 3647 2328 
Q 3647 1150 3233 529 
Q 2819 -91 2034 -91 
Q 1250 -91 836 529 
Q 422 1150 422 2328 
Q 422 3509 836 4129 
Q 1250 4750 2034 4750 
z
" transform="scale(0.015625)"/>
       </defs>
       <use xlink:href="#DejaVuSans-30"/>
      </g>
     </g>
    </g>
    <g id="xtick_2">
     <g id="line2d_2">
      <g>
       <use xlink:href="#mab6f7b2ac8" x="142.08843" y="384.48" style="stroke: #000000; stroke-width: 0.8"/>
      </g>
     </g>
     <g id="text_2">
      <!-- 20 -->
      <g transform="translate(135.72593 399.078438) scale(0.1 -0.1)">
       <defs>
        <path id="DejaVuSans-32" d="M 1228 531 
L 3431 531 
L 3431 0 
L 469 0 
L 469 531 
Q 828 903 1448 1529 
Q 2069 2156 2228 2338 
Q 2531 2678 2651 2914 
Q 2772 3150 2772 3378 
Q 2772 3750 2511 3984 
Q 2250 4219 1831 4219 
Q 1534 4219 1204 4116 
Q 875 4013 500 3803 
L 500 4441 
Q 881 4594 1212 4672 
Q 1544 4750 1819 4750 
Q 2544 4750 2975 4387 
Q 3406 4025 3406 3419 
Q 3406 3131 3298 2873 
Q 3191 2616 2906 2266 
Q 2828 2175 2409 1742 
Q 1991 1309 1228 531 
z
" transform="scale(0.015625)"/>
       </defs>
       <use xlink:href="#DejaVuSans-32"/>
       <use xlink:href="#DejaVuSans-30" x="63.623047"/>
      </g>
     </g>
    </g>
    <g id="xtick_3">
     <g id="line2d_3">
      <g>
       <use xlink:href="#mab6f7b2ac8" x="206.650413" y="384.48" style="stroke: #000000; stroke-width: 0.8"/>
      </g>
     </g>
     <g id="text_3">
      <!-- 40 -->
      <g transform="translate(200.287913 399.078438) scale(0.1 -0.1)">
       <defs>
        <path id="DejaVuSans-34" d="M 2419 4116 
L 825 1625 
L 2419 1625 
L 2419 4116 
z
M 2253 4666 
L 3047 4666 
L 3047 1625 
L 3713 1625 
L 3713 1100 
L 3047 1100 
L 3047 0 
L 2419 0 
L 2419 1100 
L 313 1100 
L 313 1709 
L 2253 4666 
z
" transform="scale(0.015625)"/>
       </defs>
       <use xlink:href="#DejaVuSans-34"/>
       <use xlink:href="#DejaVuSans-30" x="63.623047"/>
      </g>
     </g>
    </g>
    <g id="xtick_4">
     <g id="line2d_4">
      <g>
       <use xlink:href="#mab6f7b2ac8" x="271.212397" y="384.48" style="stroke: #000000; stroke-width: 0.8"/>
      </g>
     </g>
     <g id="text_4">
      <!-- 60 -->
      <g transform="translate(264.849897 399.078438) scale(0.1 -0.1)">
       <defs>
        <path id="DejaVuSans-36" d="M 2113 2584 
Q 1688 2584 1439 2293 
Q 1191 2003 1191 1497 
Q 1191 994 1439 701 
Q 1688 409 2113 409 
Q 2538 409 2786 701 
Q 3034 994 3034 1497 
Q 3034 2003 2786 2293 
Q 2538 2584 2113 2584 
z
M 3366 4563 
L 3366 3988 
Q 3128 4100 2886 4159 
Q 2644 4219 2406 4219 
Q 1781 4219 1451 3797 
Q 1122 3375 1075 2522 
Q 1259 2794 1537 2939 
Q 1816 3084 2150 3084 
Q 2853 3084 3261 2657 
Q 3669 2231 3669 1497 
Q 3669 778 3244 343 
Q 2819 -91 2113 -91 
Q 1303 -91 875 529 
Q 447 1150 447 2328 
Q 447 3434 972 4092 
Q 1497 4750 2381 4750 
Q 2619 4750 2861 4703 
Q 3103 4656 3366 4563 
z
" transform="scale(0.015625)"/>
       </defs>
       <use xlink:href="#DejaVuSans-36"/>
       <use xlink:href="#DejaVuSans-30" x="63.623047"/>
      </g>
     </g>
    </g>
    <g id="xtick_5">
     <g id="line2d_5">
      <g>
       <use xlink:href="#mab6f7b2ac8" x="335.77438" y="384.48" style="stroke: #000000; stroke-width: 0.8"/>
      </g>
     </g>
     <g id="text_5">
      <!-- 80 -->
      <g transform="translate(329.41188 399.078438) scale(0.1 -0.1)">
       <defs>
        <path id="DejaVuSans-38" d="M 2034 2216 
Q 1584 2216 1326 1975 
Q 1069 1734 1069 1313 
Q 1069 891 1326 650 
Q 1584 409 2034 409 
Q 2484 409 2743 651 
Q 3003 894 3003 1313 
Q 3003 1734 2745 1975 
Q 2488 2216 2034 2216 
z
M 1403 2484 
Q 997 2584 770 2862 
Q 544 3141 544 3541 
Q 544 4100 942 4425 
Q 1341 4750 2034 4750 
Q 2731 4750 3128 4425 
Q 3525 4100 3525 3541 
Q 3525 3141 3298 2862 
Q 3072 2584 2669 2484 
Q 3125 2378 3379 2068 
Q 3634 1759 3634 1313 
Q 3634 634 3220 271 
Q 2806 -91 2034 -91 
Q 1263 -91 848 271 
Q 434 634 434 1313 
Q 434 1759 690 2068 
Q 947 2378 1403 2484 
z
M 1172 3481 
Q 1172 3119 1398 2916 
Q 1625 2713 2034 2713 
Q 2441 2713 2670 2916 
Q 2900 3119 2900 3481 
Q 2900 3844 2670 4047 
Q 2441 4250 2034 4250 
Q 1625 4250 1398 4047 
Q 1172 3844 1172 3481 
z
" transform="scale(0.015625)"/>
       </defs>
       <use xlink:href="#DejaVuSans-38"/>
       <use xlink:href="#DejaVuSans-30" x="63.623047"/>
      </g>
     </g>
    </g>
    <g id="xtick_6">
     <g id="line2d_6">
      <g>
       <use xlink:href="#mab6f7b2ac8" x="400.336364" y="384.48" style="stroke: #000000; stroke-width: 0.8"/>
      </g>
     </g>
     <g id="text_6">
      <!-- 100 -->
      <g transform="translate(390.792614 399.078438) scale(0.1 -0.1)">
       <defs>
        <path id="DejaVuSans-31" d="M 794 531 
L 1825 531 
L 1825 4091 
L 703 3866 
L 703 4441 
L 1819 4666 
L 2450 4666 
L 2450 531 
L 3481 531 
L 3481 0 
L 794 0 
L 794 531 
z
" transform="scale(0.015625)"/>
       </defs>
       <use xlink:href="#DejaVuSans-31"/>
       <use xlink:href="#DejaVuSans-30" x="63.623047"/>
       <use xlink:href="#DejaVuSans-30" x="127.246094"/>
      </g>
     </g>
    </g>
    <g id="text_7">
     <!-- Numer iteracji -->
     <g transform="translate(222.726562 412.756563) scale(0.1 -0.1)">
      <defs>
       <path id="DejaVuSans-4e" d="M 628 4666 
L 1478 4666 
L 3547 763 
L 3547 4666 
L 4159 4666 
L 4159 0 
L 3309 0 
L 1241 3903 
L 1241 0 
L 628 0 
L 628 4666 
z
" transform="scale(0.015625)"/>
       <path id="DejaVuSans-75" d="M 544 1381 
L 544 3500 
L 1119 3500 
L 1119 1403 
Q 1119 906 1312 657 
Q 1506 409 1894 409 
Q 2359 409 2629 706 
Q 2900 1003 2900 1516 
L 2900 3500 
L 3475 3500 
L 3475 0 
L 2900 0 
L 2900 538 
Q 2691 219 2414 64 
Q 2138 -91 1772 -91 
Q 1169 -91 856 284 
Q 544 659 544 1381 
z
M 1991 3584 
L 1991 3584 
z
" transform="scale(0.015625)"/>
       <path id="DejaVuSans-6d" d="M 3328 2828 
Q 3544 3216 3844 3400 
Q 4144 3584 4550 3584 
Q 5097 3584 5394 3201 
Q 5691 2819 5691 2113 
L 5691 0 
L 5113 0 
L 5113 2094 
Q 5113 2597 4934 2840 
Q 4756 3084 4391 3084 
Q 3944 3084 3684 2787 
Q 3425 2491 3425 1978 
L 3425 0 
L 2847 0 
L 2847 2094 
Q 2847 2600 2669 2842 
Q 2491 3084 2119 3084 
Q 1678 3084 1418 2786 
Q 1159 2488 1159 1978 
L 1159 0 
L 581 0 
L 581 3500 
L 1159 3500 
L 1159 2956 
Q 1356 3278 1631 3431 
Q 1906 3584 2284 3584 
Q 2666 3584 2933 3390 
Q 3200 3197 3328 2828 
z
" transform="scale(0.015625)"/>
       <path id="DejaVuSans-65" d="M 3597 1894 
L 3597 1613 
L 953 1613 
Q 991 1019 1311 708 
Q 1631 397 2203 397 
Q 2534 397 2845 478 
Q 3156 559 3463 722 
L 3463 178 
Q 3153 47 2828 -22 
Q 2503 -91 2169 -91 
Q 1331 -91 842 396 
Q 353 884 353 1716 
Q 353 2575 817 3079 
Q 1281 3584 2069 3584 
Q 2775 3584 3186 3129 
Q 3597 2675 3597 1894 
z
M 3022 2063 
Q 3016 2534 2758 2815 
Q 2500 3097 2075 3097 
Q 1594 3097 1305 2825 
Q 1016 2553 972 2059 
L 3022 2063 
z
" transform="scale(0.015625)"/>
       <path id="DejaVuSans-72" d="M 2631 2963 
Q 2534 3019 2420 3045 
Q 2306 3072 2169 3072 
Q 1681 3072 1420 2755 
Q 1159 2438 1159 1844 
L 1159 0 
L 581 0 
L 581 3500 
L 1159 3500 
L 1159 2956 
Q 1341 3275 1631 3429 
Q 1922 3584 2338 3584 
Q 2397 3584 2469 3576 
Q 2541 3569 2628 3553 
L 2631 2963 
z
" transform="scale(0.015625)"/>
       <path id="DejaVuSans-20" transform="scale(0.015625)"/>
       <path id="DejaVuSans-69" d="M 603 3500 
L 1178 3500 
L 1178 0 
L 603 0 
L 603 3500 
z
M 603 4863 
L 1178 4863 
L 1178 4134 
L 603 4134 
L 603 4863 
z
" transform="scale(0.015625)"/>
       <path id="DejaVuSans-74" d="M 1172 4494 
L 1172 3500 
L 2356 3500 
L 2356 3053 
L 1172 3053 
L 1172 1153 
Q 1172 725 1289 603 
Q 1406 481 1766 481 
L 2356 481 
L 2356 0 
L 1766 0 
Q 1100 0 847 248 
Q 594 497 594 1153 
L 594 3053 
L 172 3053 
L 172 3500 
L 594 3500 
L 594 4494 
L 1172 4494 
z
" transform="scale(0.015625)"/>
       <path id="DejaVuSans-61" d="M 2194 1759 
Q 1497 1759 1228 1600 
Q 959 1441 959 1056 
Q 959 750 1161 570 
Q 1363 391 1709 391 
Q 2188 391 2477 730 
Q 2766 1069 2766 1631 
L 2766 1759 
L 2194 1759 
z
M 3341 1997 
L 3341 0 
L 2766 0 
L 2766 531 
Q 2569 213 2275 61 
Q 1981 -91 1556 -91 
Q 1019 -91 701 211 
Q 384 513 384 1019 
Q 384 1609 779 1909 
Q 1175 2209 1959 2209 
L 2766 2209 
L 2766 2266 
Q 2766 2663 2505 2880 
Q 2244 3097 1772 3097 
Q 1472 3097 1187 3025 
Q 903 2953 641 2809 
L 641 3341 
Q 956 3463 1253 3523 
Q 1550 3584 1831 3584 
Q 2591 3584 2966 3190 
Q 3341 2797 3341 1997 
z
" transform="scale(0.015625)"/>
       <path id="DejaVuSans-63" d="M 3122 3366 
L 3122 2828 
Q 2878 2963 2633 3030 
Q 2388 3097 2138 3097 
Q 1578 3097 1268 2742 
Q 959 2388 959 1747 
Q 959 1106 1268 751 
Q 1578 397 2138 397 
Q 2388 397 2633 464 
Q 2878 531 3122 666 
L 3122 134 
Q 2881 22 2623 -34 
Q 2366 -91 2075 -91 
Q 1284 -91 818 406 
Q 353 903 353 1747 
Q 353 2603 823 3093 
Q 1294 3584 2113 3584 
Q 2378 3584 2631 3529 
Q 2884 3475 3122 3366 
z
" transform="scale(0.015625)"/>
       <path id="DejaVuSans-6a" d="M 603 3500 
L 1178 3500 
L 1178 -63 
Q 1178 -731 923 -1031 
Q 669 -1331 103 -1331 
L -116 -1331 
L -116 -844 
L 38 -844 
Q 366 -844 484 -692 
Q 603 -541 603 -63 
L 603 3500 
z
M 603 4863 
L 1178 4863 
L 1178 4134 
L 603 4134 
L 603 4863 
z
" transform="scale(0.015625)"/>
      </defs>
      <use xlink:href="#DejaVuSans-4e"/>
      <use xlink:href="#DejaVuSans-75" x="74.804688"/>
      <use xlink:href="#DejaVuSans-6d" x="138.183594"/>
      <use xlink:href="#DejaVuSans-65" x="235.595703"/>
      <use xlink:href="#DejaVuSans-72" x="297.119141"/>
      <use xlink:href="#DejaVuSans-20" x="338.232422"/>
      <use xlink:href="#DejaVuSans-69" x="370.019531"/>
      <use xlink:href="#DejaVuSans-74" x="397.802734"/>
      <use xlink:href="#DejaVuSans-65" x="437.011719"/>
      <use xlink:href="#DejaVuSans-72" x="498.535156"/>
      <use xlink:href="#DejaVuSans-61" x="539.648438"/>
      <use xlink:href="#DejaVuSans-63" x="600.927734"/>
      <use xlink:href="#DejaVuSans-6a" x="655.908203"/>
      <use xlink:href="#DejaVuSans-69" x="683.691406"/>
     </g>
    </g>
   </g>
   <g id="matplotlib.axis_2">
    <g id="ytick_1">
     <g id="line2d_7">
      <defs>
       <path id="m5c2e2e159a" d="M 0 0 
L -3.5 0 
" style="stroke: #000000; stroke-width: 0.8"/>
      </defs>
      <g>
       <use xlink:href="#m5c2e2e159a" x="63" y="353.1776" style="stroke: #000000; stroke-width: 0.8"/>
      </g>
     </g>
     <g id="text_8">
      <!-- $\mathdefault{10^{-10}}$ -->
      <g transform="translate(28.1 356.976819) scale(0.1 -0.1)">
       <defs>
        <path id="DejaVuSans-2212" d="M 678 2272 
L 4684 2272 
L 4684 1741 
L 678 1741 
L 678 2272 
z
" transform="scale(0.015625)"/>
       </defs>
       <use xlink:href="#DejaVuSans-31" transform="translate(0 0.765625)"/>
       <use xlink:href="#DejaVuSans-30" transform="translate(63.623047 0.765625)"/>
       <use xlink:href="#DejaVuSans-2212" transform="translate(128.203125 39.046875) scale(0.7)"/>
       <use xlink:href="#DejaVuSans-31" transform="translate(186.855469 39.046875) scale(0.7)"/>
       <use xlink:href="#DejaVuSans-30" transform="translate(231.391602 39.046875) scale(0.7)"/>
      </g>
     </g>
    </g>
    <g id="ytick_2">
     <g id="line2d_8">
      <g>
       <use xlink:href="#m5c2e2e159a" x="63" y="300.860424" style="stroke: #000000; stroke-width: 0.8"/>
      </g>
     </g>
     <g id="text_9">
      <!-- $\mathdefault{10^{-8}}$ -->
      <g transform="translate(32.5 304.659643) scale(0.1 -0.1)">
       <use xlink:href="#DejaVuSans-31" transform="translate(0 0.765625)"/>
       <use xlink:href="#DejaVuSans-30" transform="translate(63.623047 0.765625)"/>
       <use xlink:href="#DejaVuSans-2212" transform="translate(128.203125 39.046875) scale(0.7)"/>
       <use xlink:href="#DejaVuSans-38" transform="translate(186.855469 39.046875) scale(0.7)"/>
      </g>
     </g>
    </g>
    <g id="ytick_3">
     <g id="line2d_9">
      <g>
       <use xlink:href="#m5c2e2e159a" x="63" y="248.543248" style="stroke: #000000; stroke-width: 0.8"/>
      </g>
     </g>
     <g id="text_10">
      <!-- $\mathdefault{10^{-6}}$ -->
      <g transform="translate(32.5 252.342467) scale(0.1 -0.1)">
       <use xlink:href="#DejaVuSans-31" transform="translate(0 0.765625)"/>
       <use xlink:href="#DejaVuSans-30" transform="translate(63.623047 0.765625)"/>
       <use xlink:href="#DejaVuSans-2212" transform="translate(128.203125 39.046875) scale(0.7)"/>
       <use xlink:href="#DejaVuSans-36" transform="translate(186.855469 39.046875) scale(0.7)"/>
      </g>
     </g>
    </g>
    <g id="ytick_4">
     <g id="line2d_10">
      <g>
       <use xlink:href="#m5c2e2e159a" x="63" y="196.226072" style="stroke: #000000; stroke-width: 0.8"/>
      </g>
     </g>
     <g id="text_11">
      <!-- $\mathdefault{10^{-4}}$ -->
      <g transform="translate(32.5 200.025291) scale(0.1 -0.1)">
       <use xlink:href="#DejaVuSans-31" transform="translate(0 0.684375)"/>
       <use xlink:href="#DejaVuSans-30" transform="translate(63.623047 0.684375)"/>
       <use xlink:href="#DejaVuSans-2212" transform="translate(128.203125 38.965625) scale(0.7)"/>
       <use xlink:href="#DejaVuSans-34" transform="translate(186.855469 38.965625) scale(0.7)"/>
      </g>
     </g>
    </g>
    <g id="ytick_5">
     <g id="line2d_11">
      <g>
       <use xlink:href="#m5c2e2e159a" x="63" y="143.908897" style="stroke: #000000; stroke-width: 0.8"/>
      </g>
     </g>
     <g id="text_12">
      <!-- $\mathdefault{10^{-2}}$ -->
      <g transform="translate(32.5 147.708115) scale(0.1 -0.1)">
       <use xlink:href="#DejaVuSans-31" transform="translate(0 0.765625)"/>
       <use xlink:href="#DejaVuSans-30" transform="translate(63.623047 0.765625)"/>
       <use xlink:href="#DejaVuSans-2212" transform="translate(128.203125 39.046875) scale(0.7)"/>
       <use xlink:href="#DejaVuSans-32" transform="translate(186.855469 39.046875) scale(0.7)"/>
      </g>
     </g>
    </g>
    <g id="ytick_6">
     <g id="line2d_12">
      <g>
       <use xlink:href="#m5c2e2e159a" x="63" y="91.591721" style="stroke: #000000; stroke-width: 0.8"/>
      </g>
     </g>
     <g id="text_13">
      <!-- $\mathdefault{10^{0}}$ -->
      <g transform="translate(38.4 95.390939) scale(0.1 -0.1)">
       <use xlink:href="#DejaVuSans-31" transform="translate(0 0.765625)"/>
       <use xlink:href="#DejaVuSans-30" transform="translate(63.623047 0.765625)"/>
       <use xlink:href="#DejaVuSans-30" transform="translate(128.203125 39.046875) scale(0.7)"/>
      </g>
     </g>
    </g>
    <g id="text_14">
     <!-- Różnica przybliżenia i dokładnej maksymalnej wartości własnej -->
     <g transform="translate(22.020312 376.034219) rotate(-90) scale(0.1 -0.1)">
      <defs>
       <path id="DejaVuSans-52" d="M 2841 2188 
Q 3044 2119 3236 1894 
Q 3428 1669 3622 1275 
L 4263 0 
L 3584 0 
L 2988 1197 
Q 2756 1666 2539 1819 
Q 2322 1972 1947 1972 
L 1259 1972 
L 1259 0 
L 628 0 
L 628 4666 
L 2053 4666 
Q 2853 4666 3247 4331 
Q 3641 3997 3641 3322 
Q 3641 2881 3436 2590 
Q 3231 2300 2841 2188 
z
M 1259 4147 
L 1259 2491 
L 2053 2491 
Q 2509 2491 2742 2702 
Q 2975 2913 2975 3322 
Q 2975 3731 2742 3939 
Q 2509 4147 2053 4147 
L 1259 4147 
z
" transform="scale(0.015625)"/>
       <path id="DejaVuSans-f3" d="M 1959 3097 
Q 1497 3097 1228 2736 
Q 959 2375 959 1747 
Q 959 1119 1226 758 
Q 1494 397 1959 397 
Q 2419 397 2687 759 
Q 2956 1122 2956 1747 
Q 2956 2369 2687 2733 
Q 2419 3097 1959 3097 
z
M 1959 3584 
Q 2709 3584 3137 3096 
Q 3566 2609 3566 1747 
Q 3566 888 3137 398 
Q 2709 -91 1959 -91 
Q 1206 -91 779 398 
Q 353 888 353 1747 
Q 353 2609 779 3096 
Q 1206 3584 1959 3584 
z
M 2394 5119 
L 3016 5119 
L 1998 3944 
L 1519 3944 
L 2394 5119 
z
" transform="scale(0.015625)"/>
       <path id="DejaVuSans-17c" d="M 1378 4863 
L 1953 4863 
L 1953 4134 
L 1378 4134 
L 1378 4863 
z
M 1672 3584 
L 1672 3584 
z
M 353 3500 
L 3084 3500 
L 3084 2975 
L 922 459 
L 3084 459 
L 3084 0 
L 275 0 
L 275 525 
L 2438 3041 
L 353 3041 
L 353 3500 
z
" transform="scale(0.015625)"/>
       <path id="DejaVuSans-6e" d="M 3513 2113 
L 3513 0 
L 2938 0 
L 2938 2094 
Q 2938 2591 2744 2837 
Q 2550 3084 2163 3084 
Q 1697 3084 1428 2787 
Q 1159 2491 1159 1978 
L 1159 0 
L 581 0 
L 581 3500 
L 1159 3500 
L 1159 2956 
Q 1366 3272 1645 3428 
Q 1925 3584 2291 3584 
Q 2894 3584 3203 3211 
Q 3513 2838 3513 2113 
z
" transform="scale(0.015625)"/>
       <path id="DejaVuSans-70" d="M 1159 525 
L 1159 -1331 
L 581 -1331 
L 581 3500 
L 1159 3500 
L 1159 2969 
Q 1341 3281 1617 3432 
Q 1894 3584 2278 3584 
Q 2916 3584 3314 3078 
Q 3713 2572 3713 1747 
Q 3713 922 3314 415 
Q 2916 -91 2278 -91 
Q 1894 -91 1617 61 
Q 1341 213 1159 525 
z
M 3116 1747 
Q 3116 2381 2855 2742 
Q 2594 3103 2138 3103 
Q 1681 3103 1420 2742 
Q 1159 2381 1159 1747 
Q 1159 1113 1420 752 
Q 1681 391 2138 391 
Q 2594 391 2855 752 
Q 3116 1113 3116 1747 
z
" transform="scale(0.015625)"/>
       <path id="DejaVuSans-7a" d="M 353 3500 
L 3084 3500 
L 3084 2975 
L 922 459 
L 3084 459 
L 3084 0 
L 275 0 
L 275 525 
L 2438 3041 
L 353 3041 
L 353 3500 
z
" transform="scale(0.015625)"/>
       <path id="DejaVuSans-79" d="M 2059 -325 
Q 1816 -950 1584 -1140 
Q 1353 -1331 966 -1331 
L 506 -1331 
L 506 -850 
L 844 -850 
Q 1081 -850 1212 -737 
Q 1344 -625 1503 -206 
L 1606 56 
L 191 3500 
L 800 3500 
L 1894 763 
L 2988 3500 
L 3597 3500 
L 2059 -325 
z
" transform="scale(0.015625)"/>
       <path id="DejaVuSans-62" d="M 3116 1747 
Q 3116 2381 2855 2742 
Q 2594 3103 2138 3103 
Q 1681 3103 1420 2742 
Q 1159 2381 1159 1747 
Q 1159 1113 1420 752 
Q 1681 391 2138 391 
Q 2594 391 2855 752 
Q 3116 1113 3116 1747 
z
M 1159 2969 
Q 1341 3281 1617 3432 
Q 1894 3584 2278 3584 
Q 2916 3584 3314 3078 
Q 3713 2572 3713 1747 
Q 3713 922 3314 415 
Q 2916 -91 2278 -91 
Q 1894 -91 1617 61 
Q 1341 213 1159 525 
L 1159 0 
L 581 0 
L 581 4863 
L 1159 4863 
L 1159 2969 
z
" transform="scale(0.015625)"/>
       <path id="DejaVuSans-6c" d="M 603 4863 
L 1178 4863 
L 1178 0 
L 603 0 
L 603 4863 
z
" transform="scale(0.015625)"/>
       <path id="DejaVuSans-64" d="M 2906 2969 
L 2906 4863 
L 3481 4863 
L 3481 0 
L 2906 0 
L 2906 525 
Q 2725 213 2448 61 
Q 2172 -91 1784 -91 
Q 1150 -91 751 415 
Q 353 922 353 1747 
Q 353 2572 751 3078 
Q 1150 3584 1784 3584 
Q 2172 3584 2448 3432 
Q 2725 3281 2906 2969 
z
M 947 1747 
Q 947 1113 1208 752 
Q 1469 391 1925 391 
Q 2381 391 2643 752 
Q 2906 1113 2906 1747 
Q 2906 2381 2643 2742 
Q 2381 3103 1925 3103 
Q 1469 3103 1208 2742 
Q 947 2381 947 1747 
z
" transform="scale(0.015625)"/>
       <path id="DejaVuSans-6f" d="M 1959 3097 
Q 1497 3097 1228 2736 
Q 959 2375 959 1747 
Q 959 1119 1226 758 
Q 1494 397 1959 397 
Q 2419 397 2687 759 
Q 2956 1122 2956 1747 
Q 2956 2369 2687 2733 
Q 2419 3097 1959 3097 
z
M 1959 3584 
Q 2709 3584 3137 3096 
Q 3566 2609 3566 1747 
Q 3566 888 3137 398 
Q 2709 -91 1959 -91 
Q 1206 -91 779 398 
Q 353 888 353 1747 
Q 353 2609 779 3096 
Q 1206 3584 1959 3584 
z
" transform="scale(0.015625)"/>
       <path id="DejaVuSans-6b" d="M 581 4863 
L 1159 4863 
L 1159 1991 
L 2875 3500 
L 3609 3500 
L 1753 1863 
L 3688 0 
L 2938 0 
L 1159 1709 
L 1159 0 
L 581 0 
L 581 4863 
z
" transform="scale(0.015625)"/>
       <path id="DejaVuSans-142" d="M 622 4863 
L 1197 4863 
L 1197 2981 
L 1588 3263 
L 1825 2931 
L 1197 2491 
L 1197 0 
L 622 0 
L 622 2081 
L 238 1806 
L 6 2138 
L 622 2578 
L 622 4863 
z
" transform="scale(0.015625)"/>
       <path id="DejaVuSans-73" d="M 2834 3397 
L 2834 2853 
Q 2591 2978 2328 3040 
Q 2066 3103 1784 3103 
Q 1356 3103 1142 2972 
Q 928 2841 928 2578 
Q 928 2378 1081 2264 
Q 1234 2150 1697 2047 
L 1894 2003 
Q 2506 1872 2764 1633 
Q 3022 1394 3022 966 
Q 3022 478 2636 193 
Q 2250 -91 1575 -91 
Q 1294 -91 989 -36 
Q 684 19 347 128 
L 347 722 
Q 666 556 975 473 
Q 1284 391 1588 391 
Q 1994 391 2212 530 
Q 2431 669 2431 922 
Q 2431 1156 2273 1281 
Q 2116 1406 1581 1522 
L 1381 1569 
Q 847 1681 609 1914 
Q 372 2147 372 2553 
Q 372 3047 722 3315 
Q 1072 3584 1716 3584 
Q 2034 3584 2315 3537 
Q 2597 3491 2834 3397 
z
" transform="scale(0.015625)"/>
       <path id="DejaVuSans-77" d="M 269 3500 
L 844 3500 
L 1563 769 
L 2278 3500 
L 2956 3500 
L 3675 769 
L 4391 3500 
L 4966 3500 
L 4050 0 
L 3372 0 
L 2619 2869 
L 1863 0 
L 1184 0 
L 269 3500 
z
" transform="scale(0.015625)"/>
       <path id="DejaVuSans-15b" d="M 2242 5119 
L 2864 5119 
L 1846 3944 
L 1367 3944 
L 2242 5119 
z
M 2834 3397 
L 2834 2853 
Q 2591 2978 2328 3040 
Q 2066 3103 1784 3103 
Q 1356 3103 1142 2972 
Q 928 2841 928 2578 
Q 928 2378 1081 2264 
Q 1234 2150 1697 2047 
L 1894 2003 
Q 2506 1872 2764 1633 
Q 3022 1394 3022 966 
Q 3022 478 2636 193 
Q 2250 -91 1575 -91 
Q 1294 -91 989 -36 
Q 684 19 347 128 
L 347 722 
Q 666 556 975 473 
Q 1284 391 1588 391 
Q 1994 391 2212 530 
Q 2431 669 2431 922 
Q 2431 1156 2273 1281 
Q 2116 1406 1581 1522 
L 1381 1569 
Q 847 1681 609 1914 
Q 372 2147 372 2553 
Q 372 3047 722 3315 
Q 1072 3584 1716 3584 
Q 2034 3584 2315 3537 
Q 2597 3491 2834 3397 
z
" transform="scale(0.015625)"/>
      </defs>
      <use xlink:href="#DejaVuSans-52"/>
      <use xlink:href="#DejaVuSans-f3" x="64.982422"/>
      <use xlink:href="#DejaVuSans-17c" x="126.164062"/>
      <use xlink:href="#DejaVuSans-6e" x="178.654297"/>
      <use xlink:href="#DejaVuSans-69" x="242.033203"/>
      <use xlink:href="#DejaVuSans-63" x="269.816406"/>
      <use xlink:href="#DejaVuSans-61" x="324.796875"/>
      <use xlink:href="#DejaVuSans-20" x="386.076172"/>
      <use xlink:href="#DejaVuSans-70" x="417.863281"/>
      <use xlink:href="#DejaVuSans-72" x="481.339844"/>
      <use xlink:href="#DejaVuSans-7a" x="522.453125"/>
      <use xlink:href="#DejaVuSans-79" x="574.943359"/>
      <use xlink:href="#DejaVuSans-62" x="634.123047"/>
      <use xlink:href="#DejaVuSans-6c" x="697.599609"/>
      <use xlink:href="#DejaVuSans-69" x="725.382812"/>
      <use xlink:href="#DejaVuSans-17c" x="753.166016"/>
      <use xlink:href="#DejaVuSans-65" x="805.65625"/>
      <use xlink:href="#DejaVuSans-6e" x="867.179688"/>
      <use xlink:href="#DejaVuSans-69" x="930.558594"/>
      <use xlink:href="#DejaVuSans-61" x="958.341797"/>
      <use xlink:href="#DejaVuSans-20" x="1019.621094"/>
      <use xlink:href="#DejaVuSans-69" x="1051.408203"/>
      <use xlink:href="#DejaVuSans-20" x="1079.191406"/>
      <use xlink:href="#DejaVuSans-64" x="1110.978516"/>
      <use xlink:href="#DejaVuSans-6f" x="1174.455078"/>
      <use xlink:href="#DejaVuSans-6b" x="1235.636719"/>
      <use xlink:href="#DejaVuSans-142" x="1293.546875"/>
      <use xlink:href="#DejaVuSans-61" x="1321.964844"/>
      <use xlink:href="#DejaVuSans-64" x="1383.244141"/>
      <use xlink:href="#DejaVuSans-6e" x="1446.720703"/>
      <use xlink:href="#DejaVuSans-65" x="1510.099609"/>
      <use xlink:href="#DejaVuSans-6a" x="1571.623047"/>
      <use xlink:href="#DejaVuSans-20" x="1599.40625"/>
      <use xlink:href="#DejaVuSans-6d" x="1631.193359"/>
      <use xlink:href="#DejaVuSans-61" x="1728.605469"/>
      <use xlink:href="#DejaVuSans-6b" x="1789.884766"/>
      <use xlink:href="#DejaVuSans-73" x="1847.794922"/>
      <use xlink:href="#DejaVuSans-79" x="1899.894531"/>
      <use xlink:href="#DejaVuSans-6d" x="1959.074219"/>
      <use xlink:href="#DejaVuSans-61" x="2056.486328"/>
      <use xlink:href="#DejaVuSans-6c" x="2117.765625"/>
      <use xlink:href="#DejaVuSans-6e" x="2145.548828"/>
      <use xlink:href="#DejaVuSans-65" x="2208.927734"/>
      <use xlink:href="#DejaVuSans-6a" x="2270.451172"/>
      <use xlink:href="#DejaVuSans-20" x="2298.234375"/>
      <use xlink:href="#DejaVuSans-77" x="2330.021484"/>
      <use xlink:href="#DejaVuSans-61" x="2411.808594"/>
      <use xlink:href="#DejaVuSans-72" x="2473.087891"/>
      <use xlink:href="#DejaVuSans-74" x="2514.201172"/>
      <use xlink:href="#DejaVuSans-6f" x="2553.410156"/>
      <use xlink:href="#DejaVuSans-15b" x="2614.591797"/>
      <use xlink:href="#DejaVuSans-63" x="2666.691406"/>
      <use xlink:href="#DejaVuSans-69" x="2721.671875"/>
      <use xlink:href="#DejaVuSans-20" x="2749.455078"/>
      <use xlink:href="#DejaVuSans-77" x="2781.242188"/>
      <use xlink:href="#DejaVuSans-142" x="2863.029297"/>
      <use xlink:href="#DejaVuSans-61" x="2891.447266"/>
      <use xlink:href="#DejaVuSans-73" x="2952.726562"/>
      <use xlink:href="#DejaVuSans-6e" x="3004.826172"/>
      <use xlink:href="#DejaVuSans-65" x="3068.205078"/>
      <use xlink:href="#DejaVuSans-6a" x="3129.728516"/>
     </g>
    </g>
   </g>
   <g id="line2d_13">
    <path d="M 80.754545 66.96 
L 83.982645 88.987772 
L 87.210744 107.00027 
L 90.438843 119.612798 
L 93.666942 124.927356 
L 96.895041 126.509324 
L 100.12314 127.4887 
L 103.35124 128.644727 
L 106.579339 130.040717 
L 109.807438 131.622998 
L 113.035537 133.33744 
L 116.263636 135.144309 
L 119.491736 137.016056 
L 122.719835 138.933657 
L 125.947934 140.883865 
L 129.176033 142.85736 
L 132.404132 144.847528 
L 135.632231 146.849645 
L 138.860331 148.860321 
L 142.08843 150.877119 
L 145.316529 152.898281 
L 148.544628 154.922541 
L 151.772727 156.948986 
L 155.000826 158.976963 
L 158.228926 161.006001 
L 161.457025 163.035765 
L 164.685124 165.066018 
L 167.913223 167.096591 
L 171.141322 169.127366 
L 174.369421 171.158263 
L 177.597521 173.189227 
L 180.82562 175.220219 
L 184.053719 177.251216 
L 187.281818 179.282203 
L 190.509917 181.313171 
L 193.738017 183.344114 
L 196.966116 185.375032 
L 200.194215 187.405924 
L 203.422314 189.43679 
L 206.650413 191.467634 
L 209.878512 193.498456 
L 213.106612 195.529259 
L 216.334711 197.560045 
L 219.56281 199.590817 
L 222.790909 201.621575 
L 226.019008 203.652323 
L 229.247107 205.683061 
L 232.475207 207.71379 
L 235.703306 209.744513 
L 238.931405 211.775229 
L 242.159504 213.80594 
L 245.387603 215.836647 
L 248.615702 217.86735 
L 251.843802 219.89805 
L 255.071901 221.928748 
L 258.3 223.959443 
L 261.528099 225.990136 
L 264.756198 228.020828 
L 267.984298 230.051518 
L 271.212397 232.082207 
L 274.440496 234.112896 
L 277.668595 236.143583 
L 280.896694 238.17427 
L 284.124793 240.204957 
L 287.352893 242.235642 
L 290.580992 244.266328 
L 293.809091 246.297013 
L 297.03719 248.327698 
L 300.265289 250.358383 
L 303.493388 252.389067 
L 306.721488 254.419751 
L 309.949587 256.450435 
L 313.177686 258.48112 
L 316.405785 260.511804 
L 319.633884 262.542487 
L 322.861983 264.573171 
L 326.090083 266.603855 
L 329.318182 268.634539 
L 332.546281 270.665223 
L 335.77438 272.695906 
L 339.002479 274.72659 
L 342.230579 276.757274 
L 345.458678 278.787957 
L 348.686777 280.818641 
L 351.914876 282.849325 
L 355.142975 284.880009 
L 358.371074 286.910693 
L 361.599174 288.941377 
L 364.827273 290.972061 
L 368.055372 293.002746 
L 371.283471 295.03343 
L 374.51157 297.064114 
L 377.739669 299.094799 
L 380.967769 301.125483 
L 384.195868 303.156169 
L 387.423967 305.186854 
L 390.652066 307.217543 
L 393.880165 309.248227 
L 397.108264 311.278915 
L 400.336364 313.309599 
L 403.564463 315.340288 
L 406.792562 317.370975 
L 410.020661 319.401674 
L 413.24876 321.432358 
L 416.47686 323.463066 
L 419.704959 325.493753 
L 422.933058 327.524448 
L 426.161157 329.55515 
L 429.389256 331.585875 
L 432.617355 333.616548 
L 435.845455 335.647269 
" clip-path="url(#p4c23283d11)" style="fill: none; stroke: #1f77b4; stroke-width: 1.5; stroke-linecap: square"/>
   </g>
   <g id="line2d_14">
    <path d="M 80.754545 76.922238 
L 83.982645 88.987772 
L 87.210744 101.912911 
L 90.438843 105.148941 
L 93.666942 107.173466 
L 96.895041 108.475557 
L 100.12314 116.838776 
L 103.35124 118.415615 
L 106.579339 126.515475 
L 109.807438 128.209037 
L 113.035537 136.211167 
L 116.263636 137.937277 
L 119.491736 145.916358 
L 122.719835 147.63749 
L 125.947934 155.625795 
L 129.176033 157.325658 
L 132.404132 165.337156 
L 135.632231 167.008603 
L 138.860331 175.049459 
L 142.08843 176.68924 
L 145.316529 184.762294 
L 148.544628 186.368811 
L 151.772727 194.475491 
L 155.000826 196.047849 
L 158.228926 204.188982 
L 161.457025 205.72658 
L 164.685124 213.90274 
L 167.913223 215.405101 
L 171.141322 223.616756 
L 174.369421 225.083452 
L 177.597521 233.331027 
L 180.82562 234.761649 
L 184.053719 243.045556 
L 187.281818 244.4397 
L 190.509917 252.760345 
L 193.738017 254.117606 
L 196.966116 262.475398 
L 200.194215 263.795368 
L 203.422314 272.190717 
L 206.650413 273.472985 
L 209.878512 281.906308 
L 213.106612 283.150457 
L 216.334711 291.622173 
L 219.56281 292.827782 
L 222.790909 301.338317 
L 226.019008 302.504958 
L 229.247107 311.054747 
L 232.475207 312.181987 
L 235.703306 320.771462 
L 238.931405 321.858863 
L 242.159504 330.48848 
L 245.387603 331.53558 
L 248.615702 340.205794 
L 251.843802 341.212131 
L 255.071901 349.923463 
L 258.3 350.888466 
L 261.528099 359.641423 
L 264.756198 360.564676 
L 267.984298 369.36 
" clip-path="url(#p4c23283d11)" style="fill: none; stroke: #ff7f0e; stroke-width: 1.5; stroke-linecap: square"/>
   </g>
   <g id="patch_3">
    <path d="M 63 384.48 
L 63 51.84 
" style="fill: none; stroke: #000000; stroke-width: 0.8; stroke-linejoin: miter; stroke-linecap: square"/>
   </g>
   <g id="patch_4">
    <path d="M 453.6 384.48 
L 453.6 51.84 
" style="fill: none; stroke: #000000; stroke-width: 0.8; stroke-linejoin: miter; stroke-linecap: square"/>
   </g>
   <g id="patch_5">
    <path d="M 63 384.48 
L 453.6 384.48 
" style="fill: none; stroke: #000000; stroke-width: 0.8; stroke-linejoin: miter; stroke-linecap: square"/>
   </g>
   <g id="patch_6">
    <path d="M 63 51.84 
L 453.6 51.84 
" style="fill: none; stroke: #000000; stroke-width: 0.8; stroke-linejoin: miter; stroke-linecap: square"/>
   </g>
   <g id="text_15">
    <!-- Porównanie metody potęgowej bez przesunięcia  -->
    <g transform="translate(111.454688 31.826625) scale(0.12 -0.12)">
     <defs>
      <path id="DejaVuSans-50" d="M 1259 4147 
L 1259 2394 
L 2053 2394 
Q 2494 2394 2734 2622 
Q 2975 2850 2975 3272 
Q 2975 3691 2734 3919 
Q 2494 4147 2053 4147 
L 1259 4147 
z
M 628 4666 
L 2053 4666 
Q 2838 4666 3239 4311 
Q 3641 3956 3641 3272 
Q 3641 2581 3239 2228 
Q 2838 1875 2053 1875 
L 1259 1875 
L 1259 0 
L 628 0 
L 628 4666 
z
" transform="scale(0.015625)"/>
      <path id="DejaVuSans-119" d="M 3597 1894 
L 3597 1613 
L 953 1613 
Q 991 1019 1311 708 
Q 1631 397 2203 397 
Q 2534 397 2845 478 
Q 3156 559 3463 722 
L 3463 178 
Q 3153 47 2828 -22 
Q 2503 -91 2169 -91 
Q 1331 -91 842 396 
Q 353 884 353 1716 
Q 353 2575 817 3079 
Q 1281 3584 2069 3584 
Q 2775 3584 3186 3129 
Q 3597 2675 3597 1894 
z
M 3022 2063 
Q 3016 2534 2758 2815 
Q 2500 3097 2075 3097 
Q 1594 3097 1305 2825 
Q 1016 2553 972 2059 
L 3022 2063 
z
M 2551 0 
L 2923 0 
Q 2782 -191 2715 -328 
Q 2648 -466 2648 -563 
Q 2648 -706 2734 -778 
Q 2820 -850 2989 -850 
Q 3089 -850 3185 -826 
Q 3282 -803 3379 -756 
L 3379 -1172 
Q 3260 -1203 3154 -1218 
Q 3048 -1234 2954 -1234 
Q 2573 -1234 2393 -1098 
Q 2214 -963 2214 -672 
Q 2214 -522 2296 -358 
Q 2379 -194 2551 0 
z
" transform="scale(0.015625)"/>
      <path id="DejaVuSans-67" d="M 2906 1791 
Q 2906 2416 2648 2759 
Q 2391 3103 1925 3103 
Q 1463 3103 1205 2759 
Q 947 2416 947 1791 
Q 947 1169 1205 825 
Q 1463 481 1925 481 
Q 2391 481 2648 825 
Q 2906 1169 2906 1791 
z
M 3481 434 
Q 3481 -459 3084 -895 
Q 2688 -1331 1869 -1331 
Q 1566 -1331 1297 -1286 
Q 1028 -1241 775 -1147 
L 775 -588 
Q 1028 -725 1275 -790 
Q 1522 -856 1778 -856 
Q 2344 -856 2625 -561 
Q 2906 -266 2906 331 
L 2906 616 
Q 2728 306 2450 153 
Q 2172 0 1784 0 
Q 1141 0 747 490 
Q 353 981 353 1791 
Q 353 2603 747 3093 
Q 1141 3584 1784 3584 
Q 2172 3584 2450 3431 
Q 2728 3278 2906 2969 
L 2906 3500 
L 3481 3500 
L 3481 434 
z
" transform="scale(0.015625)"/>
     </defs>
     <use xlink:href="#DejaVuSans-50"/>
     <use xlink:href="#DejaVuSans-6f" x="56.677734"/>
     <use xlink:href="#DejaVuSans-72" x="117.859375"/>
     <use xlink:href="#DejaVuSans-f3" x="156.722656"/>
     <use xlink:href="#DejaVuSans-77" x="217.904297"/>
     <use xlink:href="#DejaVuSans-6e" x="299.691406"/>
     <use xlink:href="#DejaVuSans-61" x="363.070312"/>
     <use xlink:href="#DejaVuSans-6e" x="424.349609"/>
     <use xlink:href="#DejaVuSans-69" x="487.728516"/>
     <use xlink:href="#DejaVuSans-65" x="515.511719"/>
     <use xlink:href="#DejaVuSans-20" x="577.035156"/>
     <use xlink:href="#DejaVuSans-6d" x="608.822266"/>
     <use xlink:href="#DejaVuSans-65" x="706.234375"/>
     <use xlink:href="#DejaVuSans-74" x="767.757812"/>
     <use xlink:href="#DejaVuSans-6f" x="806.966797"/>
     <use xlink:href="#DejaVuSans-64" x="868.148438"/>
     <use xlink:href="#DejaVuSans-79" x="931.625"/>
     <use xlink:href="#DejaVuSans-20" x="990.804688"/>
     <use xlink:href="#DejaVuSans-70" x="1022.591797"/>
     <use xlink:href="#DejaVuSans-6f" x="1086.068359"/>
     <use xlink:href="#DejaVuSans-74" x="1147.25"/>
     <use xlink:href="#DejaVuSans-119" x="1186.458984"/>
     <use xlink:href="#DejaVuSans-67" x="1247.982422"/>
     <use xlink:href="#DejaVuSans-6f" x="1311.458984"/>
     <use xlink:href="#DejaVuSans-77" x="1372.640625"/>
     <use xlink:href="#DejaVuSans-65" x="1454.427734"/>
     <use xlink:href="#DejaVuSans-6a" x="1515.951172"/>
     <use xlink:href="#DejaVuSans-20" x="1543.734375"/>
     <use xlink:href="#DejaVuSans-62" x="1575.521484"/>
     <use xlink:href="#DejaVuSans-65" x="1638.998047"/>
     <use xlink:href="#DejaVuSans-7a" x="1700.521484"/>
     <use xlink:href="#DejaVuSans-20" x="1753.011719"/>
     <use xlink:href="#DejaVuSans-70" x="1784.798828"/>
     <use xlink:href="#DejaVuSans-72" x="1848.275391"/>
     <use xlink:href="#DejaVuSans-7a" x="1889.388672"/>
     <use xlink:href="#DejaVuSans-65" x="1941.878906"/>
     <use xlink:href="#DejaVuSans-73" x="2003.402344"/>
     <use xlink:href="#DejaVuSans-75" x="2055.501953"/>
     <use xlink:href="#DejaVuSans-6e" x="2118.880859"/>
     <use xlink:href="#DejaVuSans-69" x="2182.259766"/>
     <use xlink:href="#DejaVuSans-119" x="2210.042969"/>
     <use xlink:href="#DejaVuSans-63" x="2271.566406"/>
     <use xlink:href="#DejaVuSans-69" x="2326.546875"/>
     <use xlink:href="#DejaVuSans-61" x="2354.330078"/>
     <use xlink:href="#DejaVuSans-20" x="2415.609375"/>
    </g>
    <!-- oraz z Wilkinsońskim przesunięciem równym 5.105 -->
    <g transform="translate(104.874375 45.84) scale(0.12 -0.12)">
     <defs>
      <path id="DejaVuSans-57" d="M 213 4666 
L 850 4666 
L 1831 722 
L 2809 4666 
L 3519 4666 
L 4500 722 
L 5478 4666 
L 6119 4666 
L 4947 0 
L 4153 0 
L 3169 4050 
L 2175 0 
L 1381 0 
L 213 4666 
z
" transform="scale(0.015625)"/>
      <path id="DejaVuSans-144" d="M 2242 5119 
L 2864 5119 
L 1846 3944 
L 1367 3944 
L 2242 5119 
z
M 3513 2113 
L 3513 0 
L 2938 0 
L 2938 2094 
Q 2938 2591 2744 2837 
Q 2550 3084 2163 3084 
Q 1697 3084 1428 2787 
Q 1159 2491 1159 1978 
L 1159 0 
L 581 0 
L 581 3500 
L 1159 3500 
L 1159 2956 
Q 1366 3272 1645 3428 
Q 1925 3584 2291 3584 
Q 2894 3584 3203 3211 
Q 3513 2838 3513 2113 
z
" transform="scale(0.015625)"/>
      <path id="DejaVuSans-35" d="M 691 4666 
L 3169 4666 
L 3169 4134 
L 1269 4134 
L 1269 2991 
Q 1406 3038 1543 3061 
Q 1681 3084 1819 3084 
Q 2600 3084 3056 2656 
Q 3513 2228 3513 1497 
Q 3513 744 3044 326 
Q 2575 -91 1722 -91 
Q 1428 -91 1123 -41 
Q 819 9 494 109 
L 494 744 
Q 775 591 1075 516 
Q 1375 441 1709 441 
Q 2250 441 2565 725 
Q 2881 1009 2881 1497 
Q 2881 1984 2565 2268 
Q 2250 2553 1709 2553 
Q 1456 2553 1204 2497 
Q 953 2441 691 2322 
L 691 4666 
z
" transform="scale(0.015625)"/>
      <path id="DejaVuSans-2e" d="M 684 794 
L 1344 794 
L 1344 0 
L 684 0 
L 684 794 
z
" transform="scale(0.015625)"/>
     </defs>
     <use xlink:href="#DejaVuSans-6f"/>
     <use xlink:href="#DejaVuSans-72" x="61.181641"/>
     <use xlink:href="#DejaVuSans-61" x="102.294922"/>
     <use xlink:href="#DejaVuSans-7a" x="163.574219"/>
     <use xlink:href="#DejaVuSans-20" x="216.064453"/>
     <use xlink:href="#DejaVuSans-7a" x="247.851562"/>
     <use xlink:href="#DejaVuSans-20" x="300.341797"/>
     <use xlink:href="#DejaVuSans-57" x="332.128906"/>
     <use xlink:href="#DejaVuSans-69" x="428.755859"/>
     <use xlink:href="#DejaVuSans-6c" x="456.539062"/>
     <use xlink:href="#DejaVuSans-6b" x="484.322266"/>
     <use xlink:href="#DejaVuSans-69" x="542.232422"/>
     <use xlink:href="#DejaVuSans-6e" x="570.015625"/>
     <use xlink:href="#DejaVuSans-73" x="633.394531"/>
     <use xlink:href="#DejaVuSans-6f" x="685.494141"/>
     <use xlink:href="#DejaVuSans-144" x="746.675781"/>
     <use xlink:href="#DejaVuSans-73" x="810.054688"/>
     <use xlink:href="#DejaVuSans-6b" x="862.154297"/>
     <use xlink:href="#DejaVuSans-69" x="920.064453"/>
     <use xlink:href="#DejaVuSans-6d" x="947.847656"/>
     <use xlink:href="#DejaVuSans-20" x="1045.259766"/>
     <use xlink:href="#DejaVuSans-70" x="1077.046875"/>
     <use xlink:href="#DejaVuSans-72" x="1140.523438"/>
     <use xlink:href="#DejaVuSans-7a" x="1181.636719"/>
     <use xlink:href="#DejaVuSans-65" x="1234.126953"/>
     <use xlink:href="#DejaVuSans-73" x="1295.650391"/>
     <use xlink:href="#DejaVuSans-75" x="1347.75"/>
     <use xlink:href="#DejaVuSans-6e" x="1411.128906"/>
     <use xlink:href="#DejaVuSans-69" x="1474.507812"/>
     <use xlink:href="#DejaVuSans-119" x="1502.291016"/>
     <use xlink:href="#DejaVuSans-63" x="1563.814453"/>
     <use xlink:href="#DejaVuSans-69" x="1618.794922"/>
     <use xlink:href="#DejaVuSans-65" x="1646.578125"/>
     <use xlink:href="#DejaVuSans-6d" x="1708.101562"/>
     <use xlink:href="#DejaVuSans-20" x="1805.513672"/>
     <use xlink:href="#DejaVuSans-72" x="1837.300781"/>
     <use xlink:href="#DejaVuSans-f3" x="1876.164062"/>
     <use xlink:href="#DejaVuSans-77" x="1937.345703"/>
     <use xlink:href="#DejaVuSans-6e" x="2019.132812"/>
     <use xlink:href="#DejaVuSans-79" x="2082.511719"/>
     <use xlink:href="#DejaVuSans-6d" x="2141.691406"/>
     <use xlink:href="#DejaVuSans-20" x="2239.103516"/>
     <use xlink:href="#DejaVuSans-35" x="2270.890625"/>
     <use xlink:href="#DejaVuSans-2e" x="2334.513672"/>
     <use xlink:href="#DejaVuSans-31" x="2366.300781"/>
     <use xlink:href="#DejaVuSans-30" x="2429.923828"/>
     <use xlink:href="#DejaVuSans-35" x="2493.546875"/>
    </g>
   </g>
   <g id="legend_1">
    <g id="patch_7">
     <path d="M 166.553125 89.59625 
L 446.6 89.59625 
Q 448.6 89.59625 448.6 87.59625 
L 448.6 58.84 
Q 448.6 56.84 446.6 56.84 
L 166.553125 56.84 
Q 164.553125 56.84 164.553125 58.84 
L 164.553125 87.59625 
Q 164.553125 89.59625 166.553125 89.59625 
z
" style="fill: #ffffff; opacity: 0.8; stroke: #cccccc; stroke-linejoin: miter"/>
    </g>
    <g id="line2d_15">
     <path d="M 168.553125 64.938438 
L 178.553125 64.938438 
L 188.553125 64.938438 
" style="fill: none; stroke: #1f77b4; stroke-width: 1.5; stroke-linecap: square"/>
    </g>
    <g id="text_16">
     <!-- Metoda Potęgowa -->
     <g transform="translate(196.553125 68.438438) scale(0.1 -0.1)">
      <defs>
       <path id="DejaVuSans-4d" d="M 628 4666 
L 1569 4666 
L 2759 1491 
L 3956 4666 
L 4897 4666 
L 4897 0 
L 4281 0 
L 4281 4097 
L 3078 897 
L 2444 897 
L 1241 4097 
L 1241 0 
L 628 0 
L 628 4666 
z
" transform="scale(0.015625)"/>
      </defs>
      <use xlink:href="#DejaVuSans-4d"/>
      <use xlink:href="#DejaVuSans-65" x="86.279297"/>
      <use xlink:href="#DejaVuSans-74" x="147.802734"/>
      <use xlink:href="#DejaVuSans-6f" x="187.011719"/>
      <use xlink:href="#DejaVuSans-64" x="248.193359"/>
      <use xlink:href="#DejaVuSans-61" x="311.669922"/>
      <use xlink:href="#DejaVuSans-20" x="372.949219"/>
      <use xlink:href="#DejaVuSans-50" x="404.736328"/>
      <use xlink:href="#DejaVuSans-6f" x="461.414062"/>
      <use xlink:href="#DejaVuSans-74" x="522.595703"/>
      <use xlink:href="#DejaVuSans-119" x="561.804688"/>
      <use xlink:href="#DejaVuSans-67" x="623.328125"/>
      <use xlink:href="#DejaVuSans-6f" x="686.804688"/>
      <use xlink:href="#DejaVuSans-77" x="747.986328"/>
      <use xlink:href="#DejaVuSans-61" x="829.773438"/>
     </g>
    </g>
    <g id="line2d_16">
     <path d="M 168.553125 80.016563 
L 178.553125 80.016563 
L 188.553125 80.016563 
" style="fill: none; stroke: #ff7f0e; stroke-width: 1.5; stroke-linecap: square"/>
    </g>
    <g id="text_17">
     <!-- Metoda Potęgowa z Wilkinsońskim przesunięciem -->
     <g transform="translate(196.553125 83.516563) scale(0.1 -0.1)">
      <use xlink:href="#DejaVuSans-4d"/>
      <use xlink:href="#DejaVuSans-65" x="86.279297"/>
      <use xlink:href="#DejaVuSans-74" x="147.802734"/>
      <use xlink:href="#DejaVuSans-6f" x="187.011719"/>
      <use xlink:href="#DejaVuSans-64" x="248.193359"/>
      <use xlink:href="#DejaVuSans-61" x="311.669922"/>
      <use xlink:href="#DejaVuSans-20" x="372.949219"/>
      <use xlink:href="#DejaVuSans-50" x="404.736328"/>
      <use xlink:href="#DejaVuSans-6f" x="461.414062"/>
      <use xlink:href="#DejaVuSans-74" x="522.595703"/>
      <use xlink:href="#DejaVuSans-119" x="561.804688"/>
      <use xlink:href="#DejaVuSans-67" x="623.328125"/>
      <use xlink:href="#DejaVuSans-6f" x="686.804688"/>
      <use xlink:href="#DejaVuSans-77" x="747.986328"/>
      <use xlink:href="#DejaVuSans-61" x="829.773438"/>
      <use xlink:href="#DejaVuSans-20" x="891.052734"/>
      <use xlink:href="#DejaVuSans-7a" x="922.839844"/>
      <use xlink:href="#DejaVuSans-20" x="975.330078"/>
      <use xlink:href="#DejaVuSans-57" x="1007.117188"/>
      <use xlink:href="#DejaVuSans-69" x="1103.744141"/>
      <use xlink:href="#DejaVuSans-6c" x="1131.527344"/>
      <use xlink:href="#DejaVuSans-6b" x="1159.310547"/>
      <use xlink:href="#DejaVuSans-69" x="1217.220703"/>
      <use xlink:href="#DejaVuSans-6e" x="1245.003906"/>
      <use xlink:href="#DejaVuSans-73" x="1308.382812"/>
      <use xlink:href="#DejaVuSans-6f" x="1360.482422"/>
      <use xlink:href="#DejaVuSans-144" x="1421.664062"/>
      <use xlink:href="#DejaVuSans-73" x="1485.042969"/>
      <use xlink:href="#DejaVuSans-6b" x="1537.142578"/>
      <use xlink:href="#DejaVuSans-69" x="1595.052734"/>
      <use xlink:href="#DejaVuSans-6d" x="1622.835938"/>
      <use xlink:href="#DejaVuSans-20" x="1720.248047"/>
      <use xlink:href="#DejaVuSans-70" x="1752.035156"/>
      <use xlink:href="#DejaVuSans-72" x="1815.511719"/>
      <use xlink:href="#DejaVuSans-7a" x="1856.625"/>
      <use xlink:href="#DejaVuSans-65" x="1909.115234"/>
      <use xlink:href="#DejaVuSans-73" x="1970.638672"/>
      <use xlink:href="#DejaVuSans-75" x="2022.738281"/>
      <use xlink:href="#DejaVuSans-6e" x="2086.117188"/>
      <use xlink:href="#DejaVuSans-69" x="2149.496094"/>
      <use xlink:href="#DejaVuSans-119" x="2177.279297"/>
      <use xlink:href="#DejaVuSans-63" x="2238.802734"/>
      <use xlink:href="#DejaVuSans-69" x="2293.783203"/>
      <use xlink:href="#DejaVuSans-65" x="2321.566406"/>
      <use xlink:href="#DejaVuSans-6d" x="2383.089844"/>
     </g>
    </g>
   </g>
  </g>
 </g>
 <defs>
  <clipPath id="p4c23283d11">
   <rect x="63" y="51.84" width="390.6" height="332.64"/>
  </clipPath>
 </defs>
</svg>
