<?xml version="1.0" encoding="utf-8" standalone="no"?>
<!DOCTYPE svg PUBLIC "-//W3C//DTD SVG 1.1//EN"
  "http://www.w3.org/Graphics/SVG/1.1/DTD/svg11.dtd">
<svg xmlns:xlink="http://www.w3.org/1999/xlink" width="460.8pt" height="345.6pt" viewBox="0 0 460.8 345.6" xmlns="http://www.w3.org/2000/svg" version="1.1">
 <metadata>
  <rdf:RDF xmlns:dc="http://purl.org/dc/elements/1.1/" xmlns:cc="http://creativecommons.org/ns#" xmlns:rdf="http://www.w3.org/1999/02/22-rdf-syntax-ns#">
   <cc:Work>
    <dc:type rdf:resource="http://purl.org/dc/dcmitype/StillImage"/>
    <dc:date>2023-11-07T15:19:39.507642</dc:date>
    <dc:format>image/svg+xml</dc:format>
    <dc:creator>
     <cc:Agent>
      <dc:title>Matplotlib v3.8.0, https://matplotlib.org/</dc:title>
     </cc:Agent>
    </dc:creator>
   </cc:Work>
  </rdf:RDF>
 </metadata>
 <defs>
  <style type="text/css">*{stroke-linejoin: round; stroke-linecap: butt}</style>
 </defs>
 <g id="figure_1">
  <g id="patch_1">
   <path d="M 0 345.6 
L 460.8 345.6 
L 460.8 0 
L 0 0 
z
" style="fill: #ffffff"/>
  </g>
  <g id="axes_1">
   <g id="patch_2">
    <path d="M 57.6 307.584 
L 414.72 307.584 
L 414.72 41.472 
L 57.6 41.472 
z
" style="fill: #ffffff"/>
   </g>
   <g id="matplotlib.axis_1">
    <g id="xtick_1">
     <g id="line2d_1">
      <defs>
       <path id="m9f5fc442c2" d="M 0 0 
L 0 3.5 
" style="stroke: #000000; stroke-width: 0.8"/>
      </defs>
      <g>
       <use xlink:href="#m9f5fc442c2" x="67.207124" y="307.584" style="stroke: #000000; stroke-width: 0.8"/>
      </g>
     </g>
     <g id="text_1">
      <!-- 0 -->
      <g transform="translate(64.025874 322.182437) scale(0.1 -0.1)">
       <defs>
        <path id="DejaVuSans-30" d="M 2034 4250 
Q 1547 4250 1301 3770 
Q 1056 3291 1056 2328 
Q 1056 1369 1301 889 
Q 1547 409 2034 409 
Q 2525 409 2770 889 
Q 3016 1369 3016 2328 
Q 3016 3291 2770 3770 
Q 2525 4250 2034 4250 
z
M 2034 4750 
Q 2819 4750 3233 4129 
Q 3647 3509 3647 2328 
Q 3647 1150 3233 529 
Q 2819 -91 2034 -91 
Q 1250 -91 836 529 
Q 422 1150 422 2328 
Q 422 3509 836 4129 
Q 1250 4750 2034 4750 
z
" transform="scale(0.015625)"/>
       </defs>
       <use xlink:href="#DejaVuSans-30"/>
      </g>
     </g>
    </g>
    <g id="xtick_2">
     <g id="line2d_2">
      <g>
       <use xlink:href="#m9f5fc442c2" x="133.463154" y="307.584" style="stroke: #000000; stroke-width: 0.8"/>
      </g>
     </g>
     <g id="text_2">
      <!-- 2000 -->
      <g transform="translate(120.738154 322.182437) scale(0.1 -0.1)">
       <defs>
        <path id="DejaVuSans-32" d="M 1228 531 
L 3431 531 
L 3431 0 
L 469 0 
L 469 531 
Q 828 903 1448 1529 
Q 2069 2156 2228 2338 
Q 2531 2678 2651 2914 
Q 2772 3150 2772 3378 
Q 2772 3750 2511 3984 
Q 2250 4219 1831 4219 
Q 1534 4219 1204 4116 
Q 875 4013 500 3803 
L 500 4441 
Q 881 4594 1212 4672 
Q 1544 4750 1819 4750 
Q 2544 4750 2975 4387 
Q 3406 4025 3406 3419 
Q 3406 3131 3298 2873 
Q 3191 2616 2906 2266 
Q 2828 2175 2409 1742 
Q 1991 1309 1228 531 
z
" transform="scale(0.015625)"/>
       </defs>
       <use xlink:href="#DejaVuSans-32"/>
       <use xlink:href="#DejaVuSans-30" x="63.623047"/>
       <use xlink:href="#DejaVuSans-30" x="127.246094"/>
       <use xlink:href="#DejaVuSans-30" x="190.869141"/>
      </g>
     </g>
    </g>
    <g id="xtick_3">
     <g id="line2d_3">
      <g>
       <use xlink:href="#m9f5fc442c2" x="199.719184" y="307.584" style="stroke: #000000; stroke-width: 0.8"/>
      </g>
     </g>
     <g id="text_3">
      <!-- 4000 -->
      <g transform="translate(186.994184 322.182437) scale(0.1 -0.1)">
       <defs>
        <path id="DejaVuSans-34" d="M 2419 4116 
L 825 1625 
L 2419 1625 
L 2419 4116 
z
M 2253 4666 
L 3047 4666 
L 3047 1625 
L 3713 1625 
L 3713 1100 
L 3047 1100 
L 3047 0 
L 2419 0 
L 2419 1100 
L 313 1100 
L 313 1709 
L 2253 4666 
z
" transform="scale(0.015625)"/>
       </defs>
       <use xlink:href="#DejaVuSans-34"/>
       <use xlink:href="#DejaVuSans-30" x="63.623047"/>
       <use xlink:href="#DejaVuSans-30" x="127.246094"/>
       <use xlink:href="#DejaVuSans-30" x="190.869141"/>
      </g>
     </g>
    </g>
    <g id="xtick_4">
     <g id="line2d_4">
      <g>
       <use xlink:href="#m9f5fc442c2" x="265.975213" y="307.584" style="stroke: #000000; stroke-width: 0.8"/>
      </g>
     </g>
     <g id="text_4">
      <!-- 6000 -->
      <g transform="translate(253.250213 322.182437) scale(0.1 -0.1)">
       <defs>
        <path id="DejaVuSans-36" d="M 2113 2584 
Q 1688 2584 1439 2293 
Q 1191 2003 1191 1497 
Q 1191 994 1439 701 
Q 1688 409 2113 409 
Q 2538 409 2786 701 
Q 3034 994 3034 1497 
Q 3034 2003 2786 2293 
Q 2538 2584 2113 2584 
z
M 3366 4563 
L 3366 3988 
Q 3128 4100 2886 4159 
Q 2644 4219 2406 4219 
Q 1781 4219 1451 3797 
Q 1122 3375 1075 2522 
Q 1259 2794 1537 2939 
Q 1816 3084 2150 3084 
Q 2853 3084 3261 2657 
Q 3669 2231 3669 1497 
Q 3669 778 3244 343 
Q 2819 -91 2113 -91 
Q 1303 -91 875 529 
Q 447 1150 447 2328 
Q 447 3434 972 4092 
Q 1497 4750 2381 4750 
Q 2619 4750 2861 4703 
Q 3103 4656 3366 4563 
z
" transform="scale(0.015625)"/>
       </defs>
       <use xlink:href="#DejaVuSans-36"/>
       <use xlink:href="#DejaVuSans-30" x="63.623047"/>
       <use xlink:href="#DejaVuSans-30" x="127.246094"/>
       <use xlink:href="#DejaVuSans-30" x="190.869141"/>
      </g>
     </g>
    </g>
    <g id="xtick_5">
     <g id="line2d_5">
      <g>
       <use xlink:href="#m9f5fc442c2" x="332.231243" y="307.584" style="stroke: #000000; stroke-width: 0.8"/>
      </g>
     </g>
     <g id="text_5">
      <!-- 8000 -->
      <g transform="translate(319.506243 322.182437) scale(0.1 -0.1)">
       <defs>
        <path id="DejaVuSans-38" d="M 2034 2216 
Q 1584 2216 1326 1975 
Q 1069 1734 1069 1313 
Q 1069 891 1326 650 
Q 1584 409 2034 409 
Q 2484 409 2743 651 
Q 3003 894 3003 1313 
Q 3003 1734 2745 1975 
Q 2488 2216 2034 2216 
z
M 1403 2484 
Q 997 2584 770 2862 
Q 544 3141 544 3541 
Q 544 4100 942 4425 
Q 1341 4750 2034 4750 
Q 2731 4750 3128 4425 
Q 3525 4100 3525 3541 
Q 3525 3141 3298 2862 
Q 3072 2584 2669 2484 
Q 3125 2378 3379 2068 
Q 3634 1759 3634 1313 
Q 3634 634 3220 271 
Q 2806 -91 2034 -91 
Q 1263 -91 848 271 
Q 434 634 434 1313 
Q 434 1759 690 2068 
Q 947 2378 1403 2484 
z
M 1172 3481 
Q 1172 3119 1398 2916 
Q 1625 2713 2034 2713 
Q 2441 2713 2670 2916 
Q 2900 3119 2900 3481 
Q 2900 3844 2670 4047 
Q 2441 4250 2034 4250 
Q 1625 4250 1398 4047 
Q 1172 3844 1172 3481 
z
" transform="scale(0.015625)"/>
       </defs>
       <use xlink:href="#DejaVuSans-38"/>
       <use xlink:href="#DejaVuSans-30" x="63.623047"/>
       <use xlink:href="#DejaVuSans-30" x="127.246094"/>
       <use xlink:href="#DejaVuSans-30" x="190.869141"/>
      </g>
     </g>
    </g>
    <g id="xtick_6">
     <g id="line2d_6">
      <g>
       <use xlink:href="#m9f5fc442c2" x="398.487273" y="307.584" style="stroke: #000000; stroke-width: 0.8"/>
      </g>
     </g>
     <g id="text_6">
      <!-- 10000 -->
      <g transform="translate(382.581023 322.182437) scale(0.1 -0.1)">
       <defs>
        <path id="DejaVuSans-31" d="M 794 531 
L 1825 531 
L 1825 4091 
L 703 3866 
L 703 4441 
L 1819 4666 
L 2450 4666 
L 2450 531 
L 3481 531 
L 3481 0 
L 794 0 
L 794 531 
z
" transform="scale(0.015625)"/>
       </defs>
       <use xlink:href="#DejaVuSans-31"/>
       <use xlink:href="#DejaVuSans-30" x="63.623047"/>
       <use xlink:href="#DejaVuSans-30" x="127.246094"/>
       <use xlink:href="#DejaVuSans-30" x="190.869141"/>
       <use xlink:href="#DejaVuSans-30" x="254.492188"/>
      </g>
     </g>
    </g>
    <g id="text_7">
     <!-- Parametr N -->
     <g transform="translate(207.894375 335.860562) scale(0.1 -0.1)">
      <defs>
       <path id="DejaVuSans-50" d="M 1259 4147 
L 1259 2394 
L 2053 2394 
Q 2494 2394 2734 2622 
Q 2975 2850 2975 3272 
Q 2975 3691 2734 3919 
Q 2494 4147 2053 4147 
L 1259 4147 
z
M 628 4666 
L 2053 4666 
Q 2838 4666 3239 4311 
Q 3641 3956 3641 3272 
Q 3641 2581 3239 2228 
Q 2838 1875 2053 1875 
L 1259 1875 
L 1259 0 
L 628 0 
L 628 4666 
z
" transform="scale(0.015625)"/>
       <path id="DejaVuSans-61" d="M 2194 1759 
Q 1497 1759 1228 1600 
Q 959 1441 959 1056 
Q 959 750 1161 570 
Q 1363 391 1709 391 
Q 2188 391 2477 730 
Q 2766 1069 2766 1631 
L 2766 1759 
L 2194 1759 
z
M 3341 1997 
L 3341 0 
L 2766 0 
L 2766 531 
Q 2569 213 2275 61 
Q 1981 -91 1556 -91 
Q 1019 -91 701 211 
Q 384 513 384 1019 
Q 384 1609 779 1909 
Q 1175 2209 1959 2209 
L 2766 2209 
L 2766 2266 
Q 2766 2663 2505 2880 
Q 2244 3097 1772 3097 
Q 1472 3097 1187 3025 
Q 903 2953 641 2809 
L 641 3341 
Q 956 3463 1253 3523 
Q 1550 3584 1831 3584 
Q 2591 3584 2966 3190 
Q 3341 2797 3341 1997 
z
" transform="scale(0.015625)"/>
       <path id="DejaVuSans-72" d="M 2631 2963 
Q 2534 3019 2420 3045 
Q 2306 3072 2169 3072 
Q 1681 3072 1420 2755 
Q 1159 2438 1159 1844 
L 1159 0 
L 581 0 
L 581 3500 
L 1159 3500 
L 1159 2956 
Q 1341 3275 1631 3429 
Q 1922 3584 2338 3584 
Q 2397 3584 2469 3576 
Q 2541 3569 2628 3553 
L 2631 2963 
z
" transform="scale(0.015625)"/>
       <path id="DejaVuSans-6d" d="M 3328 2828 
Q 3544 3216 3844 3400 
Q 4144 3584 4550 3584 
Q 5097 3584 5394 3201 
Q 5691 2819 5691 2113 
L 5691 0 
L 5113 0 
L 5113 2094 
Q 5113 2597 4934 2840 
Q 4756 3084 4391 3084 
Q 3944 3084 3684 2787 
Q 3425 2491 3425 1978 
L 3425 0 
L 2847 0 
L 2847 2094 
Q 2847 2600 2669 2842 
Q 2491 3084 2119 3084 
Q 1678 3084 1418 2786 
Q 1159 2488 1159 1978 
L 1159 0 
L 581 0 
L 581 3500 
L 1159 3500 
L 1159 2956 
Q 1356 3278 1631 3431 
Q 1906 3584 2284 3584 
Q 2666 3584 2933 3390 
Q 3200 3197 3328 2828 
z
" transform="scale(0.015625)"/>
       <path id="DejaVuSans-65" d="M 3597 1894 
L 3597 1613 
L 953 1613 
Q 991 1019 1311 708 
Q 1631 397 2203 397 
Q 2534 397 2845 478 
Q 3156 559 3463 722 
L 3463 178 
Q 3153 47 2828 -22 
Q 2503 -91 2169 -91 
Q 1331 -91 842 396 
Q 353 884 353 1716 
Q 353 2575 817 3079 
Q 1281 3584 2069 3584 
Q 2775 3584 3186 3129 
Q 3597 2675 3597 1894 
z
M 3022 2063 
Q 3016 2534 2758 2815 
Q 2500 3097 2075 3097 
Q 1594 3097 1305 2825 
Q 1016 2553 972 2059 
L 3022 2063 
z
" transform="scale(0.015625)"/>
       <path id="DejaVuSans-74" d="M 1172 4494 
L 1172 3500 
L 2356 3500 
L 2356 3053 
L 1172 3053 
L 1172 1153 
Q 1172 725 1289 603 
Q 1406 481 1766 481 
L 2356 481 
L 2356 0 
L 1766 0 
Q 1100 0 847 248 
Q 594 497 594 1153 
L 594 3053 
L 172 3053 
L 172 3500 
L 594 3500 
L 594 4494 
L 1172 4494 
z
" transform="scale(0.015625)"/>
       <path id="DejaVuSans-20" transform="scale(0.015625)"/>
       <path id="DejaVuSans-4e" d="M 628 4666 
L 1478 4666 
L 3547 763 
L 3547 4666 
L 4159 4666 
L 4159 0 
L 3309 0 
L 1241 3903 
L 1241 0 
L 628 0 
L 628 4666 
z
" transform="scale(0.015625)"/>
      </defs>
      <use xlink:href="#DejaVuSans-50"/>
      <use xlink:href="#DejaVuSans-61" x="55.802734"/>
      <use xlink:href="#DejaVuSans-72" x="117.082031"/>
      <use xlink:href="#DejaVuSans-61" x="158.195312"/>
      <use xlink:href="#DejaVuSans-6d" x="219.474609"/>
      <use xlink:href="#DejaVuSans-65" x="316.886719"/>
      <use xlink:href="#DejaVuSans-74" x="378.410156"/>
      <use xlink:href="#DejaVuSans-72" x="417.619141"/>
      <use xlink:href="#DejaVuSans-20" x="458.732422"/>
      <use xlink:href="#DejaVuSans-4e" x="490.519531"/>
     </g>
    </g>
   </g>
   <g id="matplotlib.axis_2">
    <g id="ytick_1">
     <g id="line2d_7">
      <defs>
       <path id="mb453482eb4" d="M 0 0 
L -3.5 0 
" style="stroke: #000000; stroke-width: 0.8"/>
      </defs>
      <g>
       <use xlink:href="#mb453482eb4" x="57.6" y="298.733932" style="stroke: #000000; stroke-width: 0.8"/>
      </g>
     </g>
     <g id="text_8">
      <!-- 0 -->
      <g transform="translate(44.2375 302.533151) scale(0.1 -0.1)">
       <use xlink:href="#DejaVuSans-30"/>
      </g>
     </g>
    </g>
    <g id="ytick_2">
     <g id="line2d_8">
      <g>
       <use xlink:href="#mb453482eb4" x="57.6" y="268.327074" style="stroke: #000000; stroke-width: 0.8"/>
      </g>
     </g>
     <g id="text_9">
      <!-- 2 -->
      <g transform="translate(44.2375 272.126293) scale(0.1 -0.1)">
       <use xlink:href="#DejaVuSans-32"/>
      </g>
     </g>
    </g>
    <g id="ytick_3">
     <g id="line2d_9">
      <g>
       <use xlink:href="#mb453482eb4" x="57.6" y="237.920217" style="stroke: #000000; stroke-width: 0.8"/>
      </g>
     </g>
     <g id="text_10">
      <!-- 4 -->
      <g transform="translate(44.2375 241.719435) scale(0.1 -0.1)">
       <use xlink:href="#DejaVuSans-34"/>
      </g>
     </g>
    </g>
    <g id="ytick_4">
     <g id="line2d_10">
      <g>
       <use xlink:href="#mb453482eb4" x="57.6" y="207.513359" style="stroke: #000000; stroke-width: 0.8"/>
      </g>
     </g>
     <g id="text_11">
      <!-- 6 -->
      <g transform="translate(44.2375 211.312578) scale(0.1 -0.1)">
       <use xlink:href="#DejaVuSans-36"/>
      </g>
     </g>
    </g>
    <g id="ytick_5">
     <g id="line2d_11">
      <g>
       <use xlink:href="#mb453482eb4" x="57.6" y="177.106501" style="stroke: #000000; stroke-width: 0.8"/>
      </g>
     </g>
     <g id="text_12">
      <!-- 8 -->
      <g transform="translate(44.2375 180.90572) scale(0.1 -0.1)">
       <use xlink:href="#DejaVuSans-38"/>
      </g>
     </g>
    </g>
    <g id="ytick_6">
     <g id="line2d_12">
      <g>
       <use xlink:href="#mb453482eb4" x="57.6" y="146.699644" style="stroke: #000000; stroke-width: 0.8"/>
      </g>
     </g>
     <g id="text_13">
      <!-- 10 -->
      <g transform="translate(37.875 150.498863) scale(0.1 -0.1)">
       <use xlink:href="#DejaVuSans-31"/>
       <use xlink:href="#DejaVuSans-30" x="63.623047"/>
      </g>
     </g>
    </g>
    <g id="ytick_7">
     <g id="line2d_13">
      <g>
       <use xlink:href="#mb453482eb4" x="57.6" y="116.292786" style="stroke: #000000; stroke-width: 0.8"/>
      </g>
     </g>
     <g id="text_14">
      <!-- 12 -->
      <g transform="translate(37.875 120.092005) scale(0.1 -0.1)">
       <use xlink:href="#DejaVuSans-31"/>
       <use xlink:href="#DejaVuSans-32" x="63.623047"/>
      </g>
     </g>
    </g>
    <g id="ytick_8">
     <g id="line2d_14">
      <g>
       <use xlink:href="#mb453482eb4" x="57.6" y="85.885929" style="stroke: #000000; stroke-width: 0.8"/>
      </g>
     </g>
     <g id="text_15">
      <!-- 14 -->
      <g transform="translate(37.875 89.685147) scale(0.1 -0.1)">
       <use xlink:href="#DejaVuSans-31"/>
       <use xlink:href="#DejaVuSans-34" x="63.623047"/>
      </g>
     </g>
    </g>
    <g id="ytick_9">
     <g id="line2d_15">
      <g>
       <use xlink:href="#mb453482eb4" x="57.6" y="55.479071" style="stroke: #000000; stroke-width: 0.8"/>
      </g>
     </g>
     <g id="text_16">
      <!-- 16 -->
      <g transform="translate(37.875 59.27829) scale(0.1 -0.1)">
       <use xlink:href="#DejaVuSans-31"/>
       <use xlink:href="#DejaVuSans-36" x="63.623047"/>
      </g>
     </g>
    </g>
    <g id="text_17">
     <!-- Czas działania funkcji (ms) -->
     <g transform="translate(31.795312 241.335031) rotate(-90) scale(0.1 -0.1)">
      <defs>
       <path id="DejaVuSans-43" d="M 4122 4306 
L 4122 3641 
Q 3803 3938 3442 4084 
Q 3081 4231 2675 4231 
Q 1875 4231 1450 3742 
Q 1025 3253 1025 2328 
Q 1025 1406 1450 917 
Q 1875 428 2675 428 
Q 3081 428 3442 575 
Q 3803 722 4122 1019 
L 4122 359 
Q 3791 134 3420 21 
Q 3050 -91 2638 -91 
Q 1578 -91 968 557 
Q 359 1206 359 2328 
Q 359 3453 968 4101 
Q 1578 4750 2638 4750 
Q 3056 4750 3426 4639 
Q 3797 4528 4122 4306 
z
" transform="scale(0.015625)"/>
       <path id="DejaVuSans-7a" d="M 353 3500 
L 3084 3500 
L 3084 2975 
L 922 459 
L 3084 459 
L 3084 0 
L 275 0 
L 275 525 
L 2438 3041 
L 353 3041 
L 353 3500 
z
" transform="scale(0.015625)"/>
       <path id="DejaVuSans-73" d="M 2834 3397 
L 2834 2853 
Q 2591 2978 2328 3040 
Q 2066 3103 1784 3103 
Q 1356 3103 1142 2972 
Q 928 2841 928 2578 
Q 928 2378 1081 2264 
Q 1234 2150 1697 2047 
L 1894 2003 
Q 2506 1872 2764 1633 
Q 3022 1394 3022 966 
Q 3022 478 2636 193 
Q 2250 -91 1575 -91 
Q 1294 -91 989 -36 
Q 684 19 347 128 
L 347 722 
Q 666 556 975 473 
Q 1284 391 1588 391 
Q 1994 391 2212 530 
Q 2431 669 2431 922 
Q 2431 1156 2273 1281 
Q 2116 1406 1581 1522 
L 1381 1569 
Q 847 1681 609 1914 
Q 372 2147 372 2553 
Q 372 3047 722 3315 
Q 1072 3584 1716 3584 
Q 2034 3584 2315 3537 
Q 2597 3491 2834 3397 
z
" transform="scale(0.015625)"/>
       <path id="DejaVuSans-64" d="M 2906 2969 
L 2906 4863 
L 3481 4863 
L 3481 0 
L 2906 0 
L 2906 525 
Q 2725 213 2448 61 
Q 2172 -91 1784 -91 
Q 1150 -91 751 415 
Q 353 922 353 1747 
Q 353 2572 751 3078 
Q 1150 3584 1784 3584 
Q 2172 3584 2448 3432 
Q 2725 3281 2906 2969 
z
M 947 1747 
Q 947 1113 1208 752 
Q 1469 391 1925 391 
Q 2381 391 2643 752 
Q 2906 1113 2906 1747 
Q 2906 2381 2643 2742 
Q 2381 3103 1925 3103 
Q 1469 3103 1208 2742 
Q 947 2381 947 1747 
z
" transform="scale(0.015625)"/>
       <path id="DejaVuSans-69" d="M 603 3500 
L 1178 3500 
L 1178 0 
L 603 0 
L 603 3500 
z
M 603 4863 
L 1178 4863 
L 1178 4134 
L 603 4134 
L 603 4863 
z
" transform="scale(0.015625)"/>
       <path id="DejaVuSans-142" d="M 622 4863 
L 1197 4863 
L 1197 2981 
L 1588 3263 
L 1825 2931 
L 1197 2491 
L 1197 0 
L 622 0 
L 622 2081 
L 238 1806 
L 6 2138 
L 622 2578 
L 622 4863 
z
" transform="scale(0.015625)"/>
       <path id="DejaVuSans-6e" d="M 3513 2113 
L 3513 0 
L 2938 0 
L 2938 2094 
Q 2938 2591 2744 2837 
Q 2550 3084 2163 3084 
Q 1697 3084 1428 2787 
Q 1159 2491 1159 1978 
L 1159 0 
L 581 0 
L 581 3500 
L 1159 3500 
L 1159 2956 
Q 1366 3272 1645 3428 
Q 1925 3584 2291 3584 
Q 2894 3584 3203 3211 
Q 3513 2838 3513 2113 
z
" transform="scale(0.015625)"/>
       <path id="DejaVuSans-66" d="M 2375 4863 
L 2375 4384 
L 1825 4384 
Q 1516 4384 1395 4259 
Q 1275 4134 1275 3809 
L 1275 3500 
L 2222 3500 
L 2222 3053 
L 1275 3053 
L 1275 0 
L 697 0 
L 697 3053 
L 147 3053 
L 147 3500 
L 697 3500 
L 697 3744 
Q 697 4328 969 4595 
Q 1241 4863 1831 4863 
L 2375 4863 
z
" transform="scale(0.015625)"/>
       <path id="DejaVuSans-75" d="M 544 1381 
L 544 3500 
L 1119 3500 
L 1119 1403 
Q 1119 906 1312 657 
Q 1506 409 1894 409 
Q 2359 409 2629 706 
Q 2900 1003 2900 1516 
L 2900 3500 
L 3475 3500 
L 3475 0 
L 2900 0 
L 2900 538 
Q 2691 219 2414 64 
Q 2138 -91 1772 -91 
Q 1169 -91 856 284 
Q 544 659 544 1381 
z
M 1991 3584 
L 1991 3584 
z
" transform="scale(0.015625)"/>
       <path id="DejaVuSans-6b" d="M 581 4863 
L 1159 4863 
L 1159 1991 
L 2875 3500 
L 3609 3500 
L 1753 1863 
L 3688 0 
L 2938 0 
L 1159 1709 
L 1159 0 
L 581 0 
L 581 4863 
z
" transform="scale(0.015625)"/>
       <path id="DejaVuSans-63" d="M 3122 3366 
L 3122 2828 
Q 2878 2963 2633 3030 
Q 2388 3097 2138 3097 
Q 1578 3097 1268 2742 
Q 959 2388 959 1747 
Q 959 1106 1268 751 
Q 1578 397 2138 397 
Q 2388 397 2633 464 
Q 2878 531 3122 666 
L 3122 134 
Q 2881 22 2623 -34 
Q 2366 -91 2075 -91 
Q 1284 -91 818 406 
Q 353 903 353 1747 
Q 353 2603 823 3093 
Q 1294 3584 2113 3584 
Q 2378 3584 2631 3529 
Q 2884 3475 3122 3366 
z
" transform="scale(0.015625)"/>
       <path id="DejaVuSans-6a" d="M 603 3500 
L 1178 3500 
L 1178 -63 
Q 1178 -731 923 -1031 
Q 669 -1331 103 -1331 
L -116 -1331 
L -116 -844 
L 38 -844 
Q 366 -844 484 -692 
Q 603 -541 603 -63 
L 603 3500 
z
M 603 4863 
L 1178 4863 
L 1178 4134 
L 603 4134 
L 603 4863 
z
" transform="scale(0.015625)"/>
       <path id="DejaVuSans-28" d="M 1984 4856 
Q 1566 4138 1362 3434 
Q 1159 2731 1159 2009 
Q 1159 1288 1364 580 
Q 1569 -128 1984 -844 
L 1484 -844 
Q 1016 -109 783 600 
Q 550 1309 550 2009 
Q 550 2706 781 3412 
Q 1013 4119 1484 4856 
L 1984 4856 
z
" transform="scale(0.015625)"/>
       <path id="DejaVuSans-29" d="M 513 4856 
L 1013 4856 
Q 1481 4119 1714 3412 
Q 1947 2706 1947 2009 
Q 1947 1309 1714 600 
Q 1481 -109 1013 -844 
L 513 -844 
Q 928 -128 1133 580 
Q 1338 1288 1338 2009 
Q 1338 2731 1133 3434 
Q 928 4138 513 4856 
z
" transform="scale(0.015625)"/>
      </defs>
      <use xlink:href="#DejaVuSans-43"/>
      <use xlink:href="#DejaVuSans-7a" x="69.824219"/>
      <use xlink:href="#DejaVuSans-61" x="122.314453"/>
      <use xlink:href="#DejaVuSans-73" x="183.59375"/>
      <use xlink:href="#DejaVuSans-20" x="235.693359"/>
      <use xlink:href="#DejaVuSans-64" x="267.480469"/>
      <use xlink:href="#DejaVuSans-7a" x="330.957031"/>
      <use xlink:href="#DejaVuSans-69" x="383.447266"/>
      <use xlink:href="#DejaVuSans-61" x="411.230469"/>
      <use xlink:href="#DejaVuSans-142" x="472.509766"/>
      <use xlink:href="#DejaVuSans-61" x="500.927734"/>
      <use xlink:href="#DejaVuSans-6e" x="562.207031"/>
      <use xlink:href="#DejaVuSans-69" x="625.585938"/>
      <use xlink:href="#DejaVuSans-61" x="653.369141"/>
      <use xlink:href="#DejaVuSans-20" x="714.648438"/>
      <use xlink:href="#DejaVuSans-66" x="746.435547"/>
      <use xlink:href="#DejaVuSans-75" x="781.640625"/>
      <use xlink:href="#DejaVuSans-6e" x="845.019531"/>
      <use xlink:href="#DejaVuSans-6b" x="908.398438"/>
      <use xlink:href="#DejaVuSans-63" x="966.308594"/>
      <use xlink:href="#DejaVuSans-6a" x="1021.289062"/>
      <use xlink:href="#DejaVuSans-69" x="1049.072266"/>
      <use xlink:href="#DejaVuSans-20" x="1076.855469"/>
      <use xlink:href="#DejaVuSans-28" x="1108.642578"/>
      <use xlink:href="#DejaVuSans-6d" x="1147.65625"/>
      <use xlink:href="#DejaVuSans-73" x="1245.068359"/>
      <use xlink:href="#DejaVuSans-29" x="1297.167969"/>
     </g>
    </g>
   </g>
   <g id="line2d_16">
    <path d="M 73.832727 295.488 
L 77.145529 292.678407 
L 80.45833 273.091829 
L 83.771132 278.160652 
L 87.083933 288.768084 
L 90.396735 282.355278 
L 93.709536 284.205536 
L 97.022338 272.021508 
L 100.335139 281.307761 
L 103.647941 282.089218 
L 106.960742 272.91699 
L 110.273544 276.150759 
L 113.586345 277.934121 
L 116.899147 269.897588 
L 120.211948 276.041294 
L 123.52475 268.152235 
L 126.837551 256.621954 
L 130.150353 268.064055 
L 133.463154 265.350243 
L 136.775955 261.369985 
L 140.088757 240.083665 
L 143.401558 262.355167 
L 146.71436 251.951462 
L 150.027161 243.244458 
L 153.339963 260.393925 
L 156.652764 253.023303 
L 159.965566 251.851119 
L 163.278367 232.898524 
L 166.591169 233.562914 
L 169.90397 226.642313 
L 173.216772 243.562209 
L 176.529573 200.405757 
L 179.842375 233.491458 
L 183.155176 229.737731 
L 186.467978 227.86923 
L 189.780779 227.227645 
L 193.093581 230.79741 
L 196.406382 228.687174 
L 199.719184 229.351564 
L 203.031985 219.502783 
L 206.344787 217.444238 
L 209.657588 221.007922 
L 212.97039 214.627043 
L 216.283191 202.934086 
L 219.595993 214.797322 
L 222.908794 198.636077 
L 226.221596 220.24319 
L 229.534397 205.509548 
L 232.847199 191.682029 
L 236.16 176.694489 
L 239.472801 205.485222 
L 242.785603 198.745542 
L 246.098404 196.103186 
L 249.411206 205.806014 
L 252.724007 193.406097 
L 256.036809 191.7322 
L 259.34961 195.020701 
L 262.662412 162.783351 
L 265.975213 179.590742 
L 269.288015 193.529245 
L 272.600816 181.632562 
L 275.913618 144.074012 
L 279.226419 178.07344 
L 282.539221 164.925514 
L 285.852022 174.912647 
L 289.164824 176.350891 
L 292.477625 170.40483 
L 295.790427 150.321101 
L 299.103228 120.695699 
L 302.41603 157.995792 
L 305.728831 154.772665 
L 309.041633 168.452709 
L 312.354434 127.207328 
L 315.667236 140.151527 
L 318.980037 145.065276 
L 322.292839 137.221827 
L 325.60564 144.669986 
L 328.918442 135.806387 
L 332.231243 116.002401 
L 335.544045 131.157179 
L 338.856846 136.821976 
L 342.169647 137.611034 
L 345.482449 142.430521 
L 348.79525 140.233625 
L 352.108052 88.0661 
L 355.420853 124.417499 
L 358.733655 53.568 
L 362.046456 120.481331 
L 365.359258 86.1976 
L 368.672059 75.170552 
L 371.984861 109.537903 
L 375.297662 104.298802 
L 378.610464 101.098479 
L 381.923265 103.455011 
L 385.236067 92.704667 
L 388.548868 95.819849 
L 391.86167 98.547344 
L 395.174471 91.812225 
L 398.487273 98.717623 
" clip-path="url(#p45c759f09e)" style="fill: none; stroke: #1f77b4; stroke-width: 1.5; stroke-linecap: square"/>
    <defs>
     <path id="m3d0e60fd3b" d="M 0 3 
C 0.795609 3 1.55874 2.683901 2.12132 2.12132 
C 2.683901 1.55874 3 0.795609 3 0 
C 3 -0.795609 2.683901 -1.55874 2.12132 -2.12132 
C 1.55874 -2.683901 0.795609 -3 0 -3 
C -0.795609 -3 -1.55874 -2.683901 -2.12132 -2.12132 
C -2.683901 -1.55874 -3 -0.795609 -3 0 
C -3 0.795609 -2.683901 1.55874 -2.12132 2.12132 
C -1.55874 2.683901 -0.795609 3 0 3 
z
" style="stroke: #1f77b4"/>
    </defs>
    <g clip-path="url(#p45c759f09e)">
     <use xlink:href="#m3d0e60fd3b" x="73.832727" y="295.488" style="fill: #1f77b4; stroke: #1f77b4"/>
     <use xlink:href="#m3d0e60fd3b" x="77.145529" y="292.678407" style="fill: #1f77b4; stroke: #1f77b4"/>
     <use xlink:href="#m3d0e60fd3b" x="80.45833" y="273.091829" style="fill: #1f77b4; stroke: #1f77b4"/>
     <use xlink:href="#m3d0e60fd3b" x="83.771132" y="278.160652" style="fill: #1f77b4; stroke: #1f77b4"/>
     <use xlink:href="#m3d0e60fd3b" x="87.083933" y="288.768084" style="fill: #1f77b4; stroke: #1f77b4"/>
     <use xlink:href="#m3d0e60fd3b" x="90.396735" y="282.355278" style="fill: #1f77b4; stroke: #1f77b4"/>
     <use xlink:href="#m3d0e60fd3b" x="93.709536" y="284.205536" style="fill: #1f77b4; stroke: #1f77b4"/>
     <use xlink:href="#m3d0e60fd3b" x="97.022338" y="272.021508" style="fill: #1f77b4; stroke: #1f77b4"/>
     <use xlink:href="#m3d0e60fd3b" x="100.335139" y="281.307761" style="fill: #1f77b4; stroke: #1f77b4"/>
     <use xlink:href="#m3d0e60fd3b" x="103.647941" y="282.089218" style="fill: #1f77b4; stroke: #1f77b4"/>
     <use xlink:href="#m3d0e60fd3b" x="106.960742" y="272.91699" style="fill: #1f77b4; stroke: #1f77b4"/>
     <use xlink:href="#m3d0e60fd3b" x="110.273544" y="276.150759" style="fill: #1f77b4; stroke: #1f77b4"/>
     <use xlink:href="#m3d0e60fd3b" x="113.586345" y="277.934121" style="fill: #1f77b4; stroke: #1f77b4"/>
     <use xlink:href="#m3d0e60fd3b" x="116.899147" y="269.897588" style="fill: #1f77b4; stroke: #1f77b4"/>
     <use xlink:href="#m3d0e60fd3b" x="120.211948" y="276.041294" style="fill: #1f77b4; stroke: #1f77b4"/>
     <use xlink:href="#m3d0e60fd3b" x="123.52475" y="268.152235" style="fill: #1f77b4; stroke: #1f77b4"/>
     <use xlink:href="#m3d0e60fd3b" x="126.837551" y="256.621954" style="fill: #1f77b4; stroke: #1f77b4"/>
     <use xlink:href="#m3d0e60fd3b" x="130.150353" y="268.064055" style="fill: #1f77b4; stroke: #1f77b4"/>
     <use xlink:href="#m3d0e60fd3b" x="133.463154" y="265.350243" style="fill: #1f77b4; stroke: #1f77b4"/>
     <use xlink:href="#m3d0e60fd3b" x="136.775955" y="261.369985" style="fill: #1f77b4; stroke: #1f77b4"/>
     <use xlink:href="#m3d0e60fd3b" x="140.088757" y="240.083665" style="fill: #1f77b4; stroke: #1f77b4"/>
     <use xlink:href="#m3d0e60fd3b" x="143.401558" y="262.355167" style="fill: #1f77b4; stroke: #1f77b4"/>
     <use xlink:href="#m3d0e60fd3b" x="146.71436" y="251.951462" style="fill: #1f77b4; stroke: #1f77b4"/>
     <use xlink:href="#m3d0e60fd3b" x="150.027161" y="243.244458" style="fill: #1f77b4; stroke: #1f77b4"/>
     <use xlink:href="#m3d0e60fd3b" x="153.339963" y="260.393925" style="fill: #1f77b4; stroke: #1f77b4"/>
     <use xlink:href="#m3d0e60fd3b" x="156.652764" y="253.023303" style="fill: #1f77b4; stroke: #1f77b4"/>
     <use xlink:href="#m3d0e60fd3b" x="159.965566" y="251.851119" style="fill: #1f77b4; stroke: #1f77b4"/>
     <use xlink:href="#m3d0e60fd3b" x="163.278367" y="232.898524" style="fill: #1f77b4; stroke: #1f77b4"/>
     <use xlink:href="#m3d0e60fd3b" x="166.591169" y="233.562914" style="fill: #1f77b4; stroke: #1f77b4"/>
     <use xlink:href="#m3d0e60fd3b" x="169.90397" y="226.642313" style="fill: #1f77b4; stroke: #1f77b4"/>
     <use xlink:href="#m3d0e60fd3b" x="173.216772" y="243.562209" style="fill: #1f77b4; stroke: #1f77b4"/>
     <use xlink:href="#m3d0e60fd3b" x="176.529573" y="200.405757" style="fill: #1f77b4; stroke: #1f77b4"/>
     <use xlink:href="#m3d0e60fd3b" x="179.842375" y="233.491458" style="fill: #1f77b4; stroke: #1f77b4"/>
     <use xlink:href="#m3d0e60fd3b" x="183.155176" y="229.737731" style="fill: #1f77b4; stroke: #1f77b4"/>
     <use xlink:href="#m3d0e60fd3b" x="186.467978" y="227.86923" style="fill: #1f77b4; stroke: #1f77b4"/>
     <use xlink:href="#m3d0e60fd3b" x="189.780779" y="227.227645" style="fill: #1f77b4; stroke: #1f77b4"/>
     <use xlink:href="#m3d0e60fd3b" x="193.093581" y="230.79741" style="fill: #1f77b4; stroke: #1f77b4"/>
     <use xlink:href="#m3d0e60fd3b" x="196.406382" y="228.687174" style="fill: #1f77b4; stroke: #1f77b4"/>
     <use xlink:href="#m3d0e60fd3b" x="199.719184" y="229.351564" style="fill: #1f77b4; stroke: #1f77b4"/>
     <use xlink:href="#m3d0e60fd3b" x="203.031985" y="219.502783" style="fill: #1f77b4; stroke: #1f77b4"/>
     <use xlink:href="#m3d0e60fd3b" x="206.344787" y="217.444238" style="fill: #1f77b4; stroke: #1f77b4"/>
     <use xlink:href="#m3d0e60fd3b" x="209.657588" y="221.007922" style="fill: #1f77b4; stroke: #1f77b4"/>
     <use xlink:href="#m3d0e60fd3b" x="212.97039" y="214.627043" style="fill: #1f77b4; stroke: #1f77b4"/>
     <use xlink:href="#m3d0e60fd3b" x="216.283191" y="202.934086" style="fill: #1f77b4; stroke: #1f77b4"/>
     <use xlink:href="#m3d0e60fd3b" x="219.595993" y="214.797322" style="fill: #1f77b4; stroke: #1f77b4"/>
     <use xlink:href="#m3d0e60fd3b" x="222.908794" y="198.636077" style="fill: #1f77b4; stroke: #1f77b4"/>
     <use xlink:href="#m3d0e60fd3b" x="226.221596" y="220.24319" style="fill: #1f77b4; stroke: #1f77b4"/>
     <use xlink:href="#m3d0e60fd3b" x="229.534397" y="205.509548" style="fill: #1f77b4; stroke: #1f77b4"/>
     <use xlink:href="#m3d0e60fd3b" x="232.847199" y="191.682029" style="fill: #1f77b4; stroke: #1f77b4"/>
     <use xlink:href="#m3d0e60fd3b" x="236.16" y="176.694489" style="fill: #1f77b4; stroke: #1f77b4"/>
     <use xlink:href="#m3d0e60fd3b" x="239.472801" y="205.485222" style="fill: #1f77b4; stroke: #1f77b4"/>
     <use xlink:href="#m3d0e60fd3b" x="242.785603" y="198.745542" style="fill: #1f77b4; stroke: #1f77b4"/>
     <use xlink:href="#m3d0e60fd3b" x="246.098404" y="196.103186" style="fill: #1f77b4; stroke: #1f77b4"/>
     <use xlink:href="#m3d0e60fd3b" x="249.411206" y="205.806014" style="fill: #1f77b4; stroke: #1f77b4"/>
     <use xlink:href="#m3d0e60fd3b" x="252.724007" y="193.406097" style="fill: #1f77b4; stroke: #1f77b4"/>
     <use xlink:href="#m3d0e60fd3b" x="256.036809" y="191.7322" style="fill: #1f77b4; stroke: #1f77b4"/>
     <use xlink:href="#m3d0e60fd3b" x="259.34961" y="195.020701" style="fill: #1f77b4; stroke: #1f77b4"/>
     <use xlink:href="#m3d0e60fd3b" x="262.662412" y="162.783351" style="fill: #1f77b4; stroke: #1f77b4"/>
     <use xlink:href="#m3d0e60fd3b" x="265.975213" y="179.590742" style="fill: #1f77b4; stroke: #1f77b4"/>
     <use xlink:href="#m3d0e60fd3b" x="269.288015" y="193.529245" style="fill: #1f77b4; stroke: #1f77b4"/>
     <use xlink:href="#m3d0e60fd3b" x="272.600816" y="181.632562" style="fill: #1f77b4; stroke: #1f77b4"/>
     <use xlink:href="#m3d0e60fd3b" x="275.913618" y="144.074012" style="fill: #1f77b4; stroke: #1f77b4"/>
     <use xlink:href="#m3d0e60fd3b" x="279.226419" y="178.07344" style="fill: #1f77b4; stroke: #1f77b4"/>
     <use xlink:href="#m3d0e60fd3b" x="282.539221" y="164.925514" style="fill: #1f77b4; stroke: #1f77b4"/>
     <use xlink:href="#m3d0e60fd3b" x="285.852022" y="174.912647" style="fill: #1f77b4; stroke: #1f77b4"/>
     <use xlink:href="#m3d0e60fd3b" x="289.164824" y="176.350891" style="fill: #1f77b4; stroke: #1f77b4"/>
     <use xlink:href="#m3d0e60fd3b" x="292.477625" y="170.40483" style="fill: #1f77b4; stroke: #1f77b4"/>
     <use xlink:href="#m3d0e60fd3b" x="295.790427" y="150.321101" style="fill: #1f77b4; stroke: #1f77b4"/>
     <use xlink:href="#m3d0e60fd3b" x="299.103228" y="120.695699" style="fill: #1f77b4; stroke: #1f77b4"/>
     <use xlink:href="#m3d0e60fd3b" x="302.41603" y="157.995792" style="fill: #1f77b4; stroke: #1f77b4"/>
     <use xlink:href="#m3d0e60fd3b" x="305.728831" y="154.772665" style="fill: #1f77b4; stroke: #1f77b4"/>
     <use xlink:href="#m3d0e60fd3b" x="309.041633" y="168.452709" style="fill: #1f77b4; stroke: #1f77b4"/>
     <use xlink:href="#m3d0e60fd3b" x="312.354434" y="127.207328" style="fill: #1f77b4; stroke: #1f77b4"/>
     <use xlink:href="#m3d0e60fd3b" x="315.667236" y="140.151527" style="fill: #1f77b4; stroke: #1f77b4"/>
     <use xlink:href="#m3d0e60fd3b" x="318.980037" y="145.065276" style="fill: #1f77b4; stroke: #1f77b4"/>
     <use xlink:href="#m3d0e60fd3b" x="322.292839" y="137.221827" style="fill: #1f77b4; stroke: #1f77b4"/>
     <use xlink:href="#m3d0e60fd3b" x="325.60564" y="144.669986" style="fill: #1f77b4; stroke: #1f77b4"/>
     <use xlink:href="#m3d0e60fd3b" x="328.918442" y="135.806387" style="fill: #1f77b4; stroke: #1f77b4"/>
     <use xlink:href="#m3d0e60fd3b" x="332.231243" y="116.002401" style="fill: #1f77b4; stroke: #1f77b4"/>
     <use xlink:href="#m3d0e60fd3b" x="335.544045" y="131.157179" style="fill: #1f77b4; stroke: #1f77b4"/>
     <use xlink:href="#m3d0e60fd3b" x="338.856846" y="136.821976" style="fill: #1f77b4; stroke: #1f77b4"/>
     <use xlink:href="#m3d0e60fd3b" x="342.169647" y="137.611034" style="fill: #1f77b4; stroke: #1f77b4"/>
     <use xlink:href="#m3d0e60fd3b" x="345.482449" y="142.430521" style="fill: #1f77b4; stroke: #1f77b4"/>
     <use xlink:href="#m3d0e60fd3b" x="348.79525" y="140.233625" style="fill: #1f77b4; stroke: #1f77b4"/>
     <use xlink:href="#m3d0e60fd3b" x="352.108052" y="88.0661" style="fill: #1f77b4; stroke: #1f77b4"/>
     <use xlink:href="#m3d0e60fd3b" x="355.420853" y="124.417499" style="fill: #1f77b4; stroke: #1f77b4"/>
     <use xlink:href="#m3d0e60fd3b" x="358.733655" y="53.568" style="fill: #1f77b4; stroke: #1f77b4"/>
     <use xlink:href="#m3d0e60fd3b" x="362.046456" y="120.481331" style="fill: #1f77b4; stroke: #1f77b4"/>
     <use xlink:href="#m3d0e60fd3b" x="365.359258" y="86.1976" style="fill: #1f77b4; stroke: #1f77b4"/>
     <use xlink:href="#m3d0e60fd3b" x="368.672059" y="75.170552" style="fill: #1f77b4; stroke: #1f77b4"/>
     <use xlink:href="#m3d0e60fd3b" x="371.984861" y="109.537903" style="fill: #1f77b4; stroke: #1f77b4"/>
     <use xlink:href="#m3d0e60fd3b" x="375.297662" y="104.298802" style="fill: #1f77b4; stroke: #1f77b4"/>
     <use xlink:href="#m3d0e60fd3b" x="378.610464" y="101.098479" style="fill: #1f77b4; stroke: #1f77b4"/>
     <use xlink:href="#m3d0e60fd3b" x="381.923265" y="103.455011" style="fill: #1f77b4; stroke: #1f77b4"/>
     <use xlink:href="#m3d0e60fd3b" x="385.236067" y="92.704667" style="fill: #1f77b4; stroke: #1f77b4"/>
     <use xlink:href="#m3d0e60fd3b" x="388.548868" y="95.819849" style="fill: #1f77b4; stroke: #1f77b4"/>
     <use xlink:href="#m3d0e60fd3b" x="391.86167" y="98.547344" style="fill: #1f77b4; stroke: #1f77b4"/>
     <use xlink:href="#m3d0e60fd3b" x="395.174471" y="91.812225" style="fill: #1f77b4; stroke: #1f77b4"/>
     <use xlink:href="#m3d0e60fd3b" x="398.487273" y="98.717623" style="fill: #1f77b4; stroke: #1f77b4"/>
    </g>
   </g>
   <g id="patch_3">
    <path d="M 57.6 307.584 
L 57.6 41.472 
" style="fill: none; stroke: #000000; stroke-width: 0.8; stroke-linejoin: miter; stroke-linecap: square"/>
   </g>
   <g id="patch_4">
    <path d="M 414.72 307.584 
L 414.72 41.472 
" style="fill: none; stroke: #000000; stroke-width: 0.8; stroke-linejoin: miter; stroke-linecap: square"/>
   </g>
   <g id="patch_5">
    <path d="M 57.6 307.584 
L 414.72 307.584 
" style="fill: none; stroke: #000000; stroke-width: 0.8; stroke-linejoin: miter; stroke-linecap: square"/>
   </g>
   <g id="patch_6">
    <path d="M 57.6 41.472 
L 414.72 41.472 
" style="fill: none; stroke: #000000; stroke-width: 0.8; stroke-linejoin: miter; stroke-linecap: square"/>
   </g>
   <g id="text_18">
    <!-- Wykres zależności czasu wykonywania programu od parametru N -->
    <g transform="translate(39.220313 35.472) scale(0.12 -0.12)">
     <defs>
      <path id="DejaVuSans-57" d="M 213 4666 
L 850 4666 
L 1831 722 
L 2809 4666 
L 3519 4666 
L 4500 722 
L 5478 4666 
L 6119 4666 
L 4947 0 
L 4153 0 
L 3169 4050 
L 2175 0 
L 1381 0 
L 213 4666 
z
" transform="scale(0.015625)"/>
      <path id="DejaVuSans-79" d="M 2059 -325 
Q 1816 -950 1584 -1140 
Q 1353 -1331 966 -1331 
L 506 -1331 
L 506 -850 
L 844 -850 
Q 1081 -850 1212 -737 
Q 1344 -625 1503 -206 
L 1606 56 
L 191 3500 
L 800 3500 
L 1894 763 
L 2988 3500 
L 3597 3500 
L 2059 -325 
z
" transform="scale(0.015625)"/>
      <path id="DejaVuSans-6c" d="M 603 4863 
L 1178 4863 
L 1178 0 
L 603 0 
L 603 4863 
z
" transform="scale(0.015625)"/>
      <path id="DejaVuSans-17c" d="M 1378 4863 
L 1953 4863 
L 1953 4134 
L 1378 4134 
L 1378 4863 
z
M 1672 3584 
L 1672 3584 
z
M 353 3500 
L 3084 3500 
L 3084 2975 
L 922 459 
L 3084 459 
L 3084 0 
L 275 0 
L 275 525 
L 2438 3041 
L 353 3041 
L 353 3500 
z
" transform="scale(0.015625)"/>
      <path id="DejaVuSans-6f" d="M 1959 3097 
Q 1497 3097 1228 2736 
Q 959 2375 959 1747 
Q 959 1119 1226 758 
Q 1494 397 1959 397 
Q 2419 397 2687 759 
Q 2956 1122 2956 1747 
Q 2956 2369 2687 2733 
Q 2419 3097 1959 3097 
z
M 1959 3584 
Q 2709 3584 3137 3096 
Q 3566 2609 3566 1747 
Q 3566 888 3137 398 
Q 2709 -91 1959 -91 
Q 1206 -91 779 398 
Q 353 888 353 1747 
Q 353 2609 779 3096 
Q 1206 3584 1959 3584 
z
" transform="scale(0.015625)"/>
      <path id="DejaVuSans-15b" d="M 2242 5119 
L 2864 5119 
L 1846 3944 
L 1367 3944 
L 2242 5119 
z
M 2834 3397 
L 2834 2853 
Q 2591 2978 2328 3040 
Q 2066 3103 1784 3103 
Q 1356 3103 1142 2972 
Q 928 2841 928 2578 
Q 928 2378 1081 2264 
Q 1234 2150 1697 2047 
L 1894 2003 
Q 2506 1872 2764 1633 
Q 3022 1394 3022 966 
Q 3022 478 2636 193 
Q 2250 -91 1575 -91 
Q 1294 -91 989 -36 
Q 684 19 347 128 
L 347 722 
Q 666 556 975 473 
Q 1284 391 1588 391 
Q 1994 391 2212 530 
Q 2431 669 2431 922 
Q 2431 1156 2273 1281 
Q 2116 1406 1581 1522 
L 1381 1569 
Q 847 1681 609 1914 
Q 372 2147 372 2553 
Q 372 3047 722 3315 
Q 1072 3584 1716 3584 
Q 2034 3584 2315 3537 
Q 2597 3491 2834 3397 
z
" transform="scale(0.015625)"/>
      <path id="DejaVuSans-77" d="M 269 3500 
L 844 3500 
L 1563 769 
L 2278 3500 
L 2956 3500 
L 3675 769 
L 4391 3500 
L 4966 3500 
L 4050 0 
L 3372 0 
L 2619 2869 
L 1863 0 
L 1184 0 
L 269 3500 
z
" transform="scale(0.015625)"/>
      <path id="DejaVuSans-70" d="M 1159 525 
L 1159 -1331 
L 581 -1331 
L 581 3500 
L 1159 3500 
L 1159 2969 
Q 1341 3281 1617 3432 
Q 1894 3584 2278 3584 
Q 2916 3584 3314 3078 
Q 3713 2572 3713 1747 
Q 3713 922 3314 415 
Q 2916 -91 2278 -91 
Q 1894 -91 1617 61 
Q 1341 213 1159 525 
z
M 3116 1747 
Q 3116 2381 2855 2742 
Q 2594 3103 2138 3103 
Q 1681 3103 1420 2742 
Q 1159 2381 1159 1747 
Q 1159 1113 1420 752 
Q 1681 391 2138 391 
Q 2594 391 2855 752 
Q 3116 1113 3116 1747 
z
" transform="scale(0.015625)"/>
      <path id="DejaVuSans-67" d="M 2906 1791 
Q 2906 2416 2648 2759 
Q 2391 3103 1925 3103 
Q 1463 3103 1205 2759 
Q 947 2416 947 1791 
Q 947 1169 1205 825 
Q 1463 481 1925 481 
Q 2391 481 2648 825 
Q 2906 1169 2906 1791 
z
M 3481 434 
Q 3481 -459 3084 -895 
Q 2688 -1331 1869 -1331 
Q 1566 -1331 1297 -1286 
Q 1028 -1241 775 -1147 
L 775 -588 
Q 1028 -725 1275 -790 
Q 1522 -856 1778 -856 
Q 2344 -856 2625 -561 
Q 2906 -266 2906 331 
L 2906 616 
Q 2728 306 2450 153 
Q 2172 0 1784 0 
Q 1141 0 747 490 
Q 353 981 353 1791 
Q 353 2603 747 3093 
Q 1141 3584 1784 3584 
Q 2172 3584 2450 3431 
Q 2728 3278 2906 2969 
L 2906 3500 
L 3481 3500 
L 3481 434 
z
" transform="scale(0.015625)"/>
     </defs>
     <use xlink:href="#DejaVuSans-57"/>
     <use xlink:href="#DejaVuSans-79" x="97.126953"/>
     <use xlink:href="#DejaVuSans-6b" x="156.306641"/>
     <use xlink:href="#DejaVuSans-72" x="214.216797"/>
     <use xlink:href="#DejaVuSans-65" x="253.080078"/>
     <use xlink:href="#DejaVuSans-73" x="314.603516"/>
     <use xlink:href="#DejaVuSans-20" x="366.703125"/>
     <use xlink:href="#DejaVuSans-7a" x="398.490234"/>
     <use xlink:href="#DejaVuSans-61" x="450.980469"/>
     <use xlink:href="#DejaVuSans-6c" x="512.259766"/>
     <use xlink:href="#DejaVuSans-65" x="540.042969"/>
     <use xlink:href="#DejaVuSans-17c" x="601.566406"/>
     <use xlink:href="#DejaVuSans-6e" x="654.056641"/>
     <use xlink:href="#DejaVuSans-6f" x="717.435547"/>
     <use xlink:href="#DejaVuSans-15b" x="778.617188"/>
     <use xlink:href="#DejaVuSans-63" x="830.716797"/>
     <use xlink:href="#DejaVuSans-69" x="885.697266"/>
     <use xlink:href="#DejaVuSans-20" x="913.480469"/>
     <use xlink:href="#DejaVuSans-63" x="945.267578"/>
     <use xlink:href="#DejaVuSans-7a" x="1000.248047"/>
     <use xlink:href="#DejaVuSans-61" x="1052.738281"/>
     <use xlink:href="#DejaVuSans-73" x="1114.017578"/>
     <use xlink:href="#DejaVuSans-75" x="1166.117188"/>
     <use xlink:href="#DejaVuSans-20" x="1229.496094"/>
     <use xlink:href="#DejaVuSans-77" x="1261.283203"/>
     <use xlink:href="#DejaVuSans-79" x="1343.070312"/>
     <use xlink:href="#DejaVuSans-6b" x="1402.25"/>
     <use xlink:href="#DejaVuSans-6f" x="1456.535156"/>
     <use xlink:href="#DejaVuSans-6e" x="1517.716797"/>
     <use xlink:href="#DejaVuSans-79" x="1581.095703"/>
     <use xlink:href="#DejaVuSans-77" x="1640.275391"/>
     <use xlink:href="#DejaVuSans-61" x="1722.0625"/>
     <use xlink:href="#DejaVuSans-6e" x="1783.341797"/>
     <use xlink:href="#DejaVuSans-69" x="1846.720703"/>
     <use xlink:href="#DejaVuSans-61" x="1874.503906"/>
     <use xlink:href="#DejaVuSans-20" x="1935.783203"/>
     <use xlink:href="#DejaVuSans-70" x="1967.570312"/>
     <use xlink:href="#DejaVuSans-72" x="2031.046875"/>
     <use xlink:href="#DejaVuSans-6f" x="2069.910156"/>
     <use xlink:href="#DejaVuSans-67" x="2131.091797"/>
     <use xlink:href="#DejaVuSans-72" x="2194.568359"/>
     <use xlink:href="#DejaVuSans-61" x="2235.681641"/>
     <use xlink:href="#DejaVuSans-6d" x="2296.960938"/>
     <use xlink:href="#DejaVuSans-75" x="2394.373047"/>
     <use xlink:href="#DejaVuSans-20" x="2457.751953"/>
     <use xlink:href="#DejaVuSans-6f" x="2489.539062"/>
     <use xlink:href="#DejaVuSans-64" x="2550.720703"/>
     <use xlink:href="#DejaVuSans-20" x="2614.197266"/>
     <use xlink:href="#DejaVuSans-70" x="2645.984375"/>
     <use xlink:href="#DejaVuSans-61" x="2709.460938"/>
     <use xlink:href="#DejaVuSans-72" x="2770.740234"/>
     <use xlink:href="#DejaVuSans-61" x="2811.853516"/>
     <use xlink:href="#DejaVuSans-6d" x="2873.132812"/>
     <use xlink:href="#DejaVuSans-65" x="2970.544922"/>
     <use xlink:href="#DejaVuSans-74" x="3032.068359"/>
     <use xlink:href="#DejaVuSans-72" x="3071.277344"/>
     <use xlink:href="#DejaVuSans-75" x="3112.390625"/>
     <use xlink:href="#DejaVuSans-20" x="3175.769531"/>
     <use xlink:href="#DejaVuSans-4e" x="3207.556641"/>
    </g>
   </g>
  </g>
 </g>
 <defs>
  <clipPath id="p45c759f09e">
   <rect x="57.6" y="41.472" width="357.12" height="266.112"/>
  </clipPath>
 </defs>
</svg>
